<svg version="1.1" id="color_x5F_1" xmlns="http://www.w3.org/2000/svg" xmlns:xlink="http://www.w3.org/1999/xlink" x="0px" y="0px" width="600px" height="600px" viewBox="0 0 600 600" enable-background="new 0 0 600 600" xml:space="preserve">
<path id="color_x5F_10" fill="#619BD3" d="M577.322,323.635c0,3.428-1.612,6.854-5.039,8.668L257.114,514.329
	c-6.249,3.527-13.909,3.527-20.057,0l-28.826-16.631l0,0l-4.031-2.317l-10.885-6.35L28.221,393.785
	c-3.528-2.016-5.241-5.746-4.939-9.374v-7.861c0,0.101,0,0.202,0,0.302c0,0.202,0,0.404,0.101,0.706
	c0,0.202,0.101,0.403,0.101,0.604s0.101,0.403,0.101,0.605c0.101,0.201,0.101,0.402,0.201,0.604
	c0.101,0.201,0.101,0.403,0.202,0.504c0.101,0.201,0.202,0.403,0.302,0.604c0.101,0.201,0.202,0.303,0.202,0.504
	c0.101,0.201,0.303,0.403,0.403,0.605c0.101,0.1,0.202,0.302,0.302,0.402c0.202,0.201,0.403,0.403,0.605,0.705
	c0.101,0.102,0.202,0.202,0.302,0.303c0.202,0.201,0.504,0.504,0.806,0.705c0.101,0.102,0.101,0.102,0.202,0.202
	c0.403,0.303,0.706,0.504,1.109,0.807L208.13,488.628l0,0l28.927,16.73c6.249,3.629,13.808,3.629,20.057,0l315.169-181.925
	c0.403-0.201,0.806-0.504,1.108-0.807c0.101-0.101,0.201-0.101,0.303-0.201c0.302-0.201,0.504-0.403,0.705-0.705
	c0.101-0.102,0.202-0.202,0.303-0.303c0.201-0.201,0.403-0.403,0.604-0.705c0.101-0.102,0.201-0.202,0.303-0.404
	c0.201-0.201,0.302-0.504,0.402-0.705c0.102-0.101,0.102-0.303,0.202-0.402c0.101-0.202,0.201-0.505,0.302-0.706
	c0.102-0.101,0.102-0.303,0.202-0.403c0.101-0.201,0.201-0.504,0.201-0.807c0-0.201,0.101-0.302,0.101-0.504
	c0-0.201,0.102-0.504,0.102-0.705s0.101-0.403,0.101-0.605c0-0.1,0-0.201,0-0.302L577.322,323.635z M151.991,414.547
	c-0.101-0.402-0.101-0.806-0.202-1.209c0-0.201,0-0.403,0-0.604c0-0.202,0-0.403,0-0.605c0-0.201,0-0.402,0-0.705
	c0-0.202,0-0.303,0-0.504c0-0.303,0-0.504,0-0.807l0,0c0.101-1.512,0.302-2.923,0.604-4.435c0,0,0,0,0,0.101
	c-1.411,4.334-2.217,8.769-1.411,12.901c3.83,21.67,53.821,24.189,81.841,30.741c12.599,2.923,18.243,6.248,18.747,10.28l0,0
	c0.806-1.411,1.209-2.722,1.108-3.931l0,0c0-0.303-0.101-0.504-0.101-0.807l0,0c-0.101-0.201-0.101-0.504-0.202-0.705v-0.102
	c-0.101-0.201-0.202-0.402-0.403-0.705c0-0.101-0.101-0.101-0.101-0.202c-0.101-0.201-0.302-0.402-0.504-0.604l-0.101-0.101
	c-0.201-0.201-0.302-0.303-0.504-0.504c-0.101-0.101-0.101-0.101-0.201-0.201c-0.202-0.202-0.403-0.403-0.706-0.605
	c-0.101-0.101-0.202-0.101-0.303-0.201c-0.201-0.101-0.403-0.303-0.604-0.403c-0.101-0.101-0.302-0.201-0.403-0.303
	c-0.202-0.101-0.504-0.302-0.806-0.402c-0.101-0.102-0.302-0.202-0.403-0.202c-0.302-0.201-0.706-0.303-1.008-0.504
	c-0.202-0.101-0.302-0.101-0.504-0.201c-0.302-0.102-0.605-0.202-0.806-0.403c-0.202-0.101-0.303-0.101-0.504-0.202
	c-0.403-0.201-0.807-0.302-1.209-0.504c-0.202-0.101-0.403-0.101-0.605-0.201c-0.403-0.201-0.907-0.303-1.411-0.504
	c-0.202-0.101-0.403-0.101-0.604-0.202c-0.403-0.101-0.807-0.302-1.311-0.402c-0.202-0.102-0.403-0.102-0.604-0.202
	c-0.605-0.201-1.209-0.302-1.814-0.504c-0.202,0-0.403-0.101-0.604-0.101c-0.706-0.202-1.411-0.303-2.117-0.504
	C205.812,438.736,155.821,436.116,151.991,414.547z M85.671,363.75c15.824,10.985,67.529,1.611,74.081,14.01
	c0.907,1.813,1.008,4.031,0.604,6.35c0.202-0.504,0.303-1.008,0.504-1.512l0,0c0.101-0.404,0.202-0.908,0.403-1.311
	c0-0.102,0-0.202,0.101-0.303c0.101-0.403,0.201-0.705,0.201-1.109c0-0.1,0-0.201,0-0.201c0.101-0.906,0.202-1.713,0.202-2.52
	c0-0.101,0-0.201,0-0.303c0-0.302,0-0.604-0.101-0.906c0-0.102,0-0.202-0.101-0.303c0-0.303-0.101-0.504-0.201-0.807
	c0-0.101,0-0.201-0.101-0.303c-0.101-0.302-0.202-0.705-0.403-1.008c-6.551-12.396-58.256-3.124-74.08-14.01
	c-0.403-0.302-0.806-0.604-1.209-0.906c-0.101-0.102-0.202-0.201-0.202-0.201c-0.302-0.303-0.504-0.504-0.806-0.807
	c-0.101-0.102-0.202-0.201-0.302-0.303c-0.202-0.303-0.403-0.504-0.605-0.807c-0.101-0.101-0.101-0.201-0.202-0.302
	c-0.202-0.303-0.403-0.604-0.504-0.907c-0.101-0.101-0.101-0.201-0.101-0.303c-0.202-0.402-0.303-0.705-0.504-1.108
	c0-0.101,0-0.101-0.101-0.202c-0.504-1.41-0.706-2.821-0.806-4.434v-0.102c0-0.504,0-1.008,0-1.512v-0.101
	c0-2.62,0.504-5.442,1.209-8.366C79.624,349.236,78.616,358.811,85.671,363.75z"></path>
<path id="color_x5F_9" fill="#FFFFFF" d="M264.673,244.516l-3.024,3.729l1.008,2.621L247.337,268l-14.312,23.081
	c-0.101,0.101-0.202,0.202-0.403,0.101c-0.101-0.101-0.201-0.202-0.101-0.403l15.118-24.291l3.628-14.312l-33.361,37.191
	l-6.45,9.273c-0.101,0.201-0.202,0.201-0.403,0.101c-0.101-0.101-0.202-0.302-0.101-0.403l6.148-8.869l16.832-32.757l-26.709-16.933
	l-6.854-2.117c-0.202-0.101-0.202-0.202-0.202-0.403c0.101-0.202,0.202-0.202,0.403-0.202l7.055,2.117l32.454,4.435l6.047-8.769
	l11.188-17.941c0.101-0.101,0.202-0.201,0.403-0.101s0.202,0.202,0.101,0.403l-4.536,7.357l1.209,6.854l15.622-20.057l11.692-18.948
	c0.101-0.202,0.302-0.202,0.403-0.101c0.101,0.101,0.202,0.201,0.101,0.403l-11.289,18.142l-10.785,24.895
	c0.101,0,0.101,0.101,0.101,0.101l9.877,17.537c0.101,0.101,0,0.303-0.101,0.403c-0.202,0.101-0.302,0-0.403-0.101L264.673,244.516z
	 M254.695,359.617l-5.745-3.326l-9.676,5.645l5.745,3.326L254.695,359.617z M239.778,335.326l5.644,3.326l9.777-5.644l-5.745-3.326
	L239.778,335.326z M266.286,352.864l-5.745-3.326l-9.676,5.644l5.745,3.326L266.286,352.864z M277.877,346.111l-5.745-3.326
	l-9.777,5.645l5.745,3.326L277.877,346.111z M239.577,350.848l1.915-1.107l9.676-5.645l-5.745-3.326l-8.063,4.637l-3.528,2.016
	l-9.676,5.645l5.645,3.325L239.577,350.848z M228.087,342.08l5.745,3.326l9.676-5.645l-5.644-3.326L228.087,342.08z
	 M216.496,348.732l5.745,3.325l9.676-5.644l-5.745-3.326L216.496,348.732z M335.932,312.648l-5.645-3.325l-9.776,5.644l5.745,3.326
	L335.932,312.648z M289.568,339.459l-5.745-3.326l-9.676,5.645l5.745,3.326L289.568,339.459z M307.71,314.463l7.156,4.838
	c0,0,2.52-8.768,2.621-8.97l-4.334-1.714C311.54,311.238,307.71,314.463,307.71,314.463z M324.341,319.402l-5.745-3.326l0,0
	l-2.318,6.954l-7.357-1.31l5.745,3.326L324.341,319.402z M328.372,308.314l-5.745-3.325l-0.504,0.302l-1.814,5.544l-0.806,2.62
	L328.372,308.314z M301.159,332.807l-5.645-3.326l-9.776,5.645l5.745,3.326L301.159,332.807z M312.75,326.055l-5.04-2.924
	l-3.729,4.737l-2.418-2.016l-4.334,2.52l5.744,3.326L312.75,326.055z M315.27,302.268l4.031,3.629l1.513-5.039l-5.141-1.613
	C315.572,300.957,315.27,302.268,315.27,302.268z M247.136,355.182l-5.644-3.325l-9.776,5.644l5.745,3.326L247.136,355.182z
	 M285.436,330.69l-2.117-3.023l-5.241,3.023l5.645,3.326l9.776-5.645l-3.023-1.714L285.436,330.69z M247.337,339.762l5.745,3.326
	l9.676-5.645l-5.644-3.326L247.337,339.762z M307.71,319.402l-4.737-2.016l-4.636,3.225l5.442,4.031L307.71,319.402z
	 M251.369,328.675l5.745,3.325l9.676-5.644l-5.745-3.326L251.369,328.675z M274.349,330.69l-5.745-3.326l-9.676,5.645l5.644,3.325
	L274.349,330.69z M292.189,325.449l3.326,1.915l4.637-2.62l-3.427-2.722L292.189,325.449z M304.889,283.622l6.651-3.83l8.87,5.141
	c-5.645-4.435-10.684-8.567-11.994-9.575l-1.21,1.613c0.102,0.604,0,1.209-0.101,1.713
	C306.804,280.8,305.896,282.21,304.889,283.622z M329.179,280.8c3.729,2.116,10.583,5.14,10.885,5.14
	c0.102,0,1.008-0.706,2.318-1.713l-23.887-13.808l0.806,4.535C319.301,274.954,325.449,278.683,329.179,280.8z M248.95,354.174
	l9.776-5.644l-5.745-3.326l-9.676,5.644L248.95,354.174z M277.171,322.526l-6.652,3.83l5.745,3.326l6.047-3.528l-2.117-3.124
	L277.171,322.526z M270.015,316.076l-1.411,1.008l1.814,3.729l5.241-1.813L270.015,316.076z M267.697,319.301l-4.737,2.722
	l5.745,3.326l5.543-3.226L268,321.115L267.697,319.301z M270.317,341.777l-5.745-3.326l-9.676,5.645l5.745,3.326L270.317,341.777z
	 M281.908,335.125l-5.644-3.326l-9.777,5.645l5.745,3.326L281.908,335.125z M281.606,320.107l3.83,5.645c0,0,6.148-4.939,6.45-5.241
	C286.746,321.721,281.606,320.107,281.606,320.107z M328.675,161.062c0.907,0.706,2.116,0.706,3.527-0.101l8.265-4.737l12.599-7.257
	l17.739-10.28c5.141-3.024,9.373-11.087,9.373-18.142c0-0.504,0-1.008-0.101-1.411c0-0.202,0-0.302-0.101-0.403
	c0-0.302-0.101-0.604-0.101-0.907c0-0.201-0.101-0.302-0.101-0.504c-0.102-0.302-0.102-0.504-0.202-0.706
	c0-0.101-0.101-0.302-0.101-0.403c-0.101-0.302-0.202-0.504-0.303-0.807c-0.101-0.201-0.201-0.403-0.302-0.504
	c-0.102-0.202-0.202-0.403-0.303-0.504c-0.101-0.101-0.201-0.302-0.303-0.403c-0.101-0.101-0.201-0.202-0.302-0.303
	c-0.101-0.101-0.303-0.302-0.403-0.403c-0.101-0.101-0.201-0.101-0.201-0.202c-0.202-0.101-0.303-0.202-0.505-0.303l0,0
	c-1.612-0.907-3.628-0.806-5.946,0.504c-1.713,1.008-3.326,2.52-4.737,4.435c-1.612-6.854-6.854-9.474-13.002-5.947
	c-7.055,4.032-12.8,14.715-13.505,24.492c-2.923,2.116-5.241,6.249-6.249,10.482c-0.303,0.101-0.706,0.202-1.109,0.504
	c-2.821,1.613-5.039,6.047-5.039,9.978C327.163,158.945,327.768,160.356,328.675,161.062z M331.9,323.736l-5.745-3.326l-9.777,5.645
	l5.745,3.326L331.9,323.736z M297.127,343.793l1.915-1.108l9.676-5.645l1.914-1.108l9.676-5.645l-5.744-3.326l-1.008,0.605
	l-7.66,4.434l-1.109,0.605l-11.59,6.652l-1.915,1.108l-0.806,0.504l-3.427,2.016l-5.442,3.124l5.745,3.326L297.127,343.793z
	 M332.102,308.314l5.745,3.326l9.776-5.644l-5.745-3.226L332.102,308.314z M355.183,310.331l-5.745-3.326l-9.676,5.644l5.745,3.326
	L355.183,310.331z M343.592,317.084l-5.745-3.326l-9.676,5.645l5.745,3.326L343.592,317.084z M262.254,363.951l-5.745-3.326
	l-9.776,5.645l5.745,3.326L262.254,363.951z M273.845,357.198l-5.745-3.326l-9.676,5.644l5.745,3.326L273.845,357.198z
	 M285.436,350.546l-5.745-3.326l-9.676,5.645l5.745,3.325L285.436,350.546z M382.899,342.785l-111.07,64.103
	c-2.62,1.512-5.946,1.512-8.567,0l-89.501-51.706c-0.202-0.1-0.302-0.201-0.504-0.302c-0.101-0.101-0.202-0.202-0.302-0.302
	l-0.101-0.102c-0.101-0.101-0.202-0.201-0.302-0.303l-0.101-0.1c-0.101-0.102-0.201-0.202-0.201-0.303c0,0,0-0.102-0.101-0.102
	c-0.101-0.1-0.101-0.201-0.202-0.402c0,0,0,0,0-0.102c-0.202-0.402-0.302-0.806-0.302-1.209c-0.202-1.512,0.504-3.125,1.915-4.133
	c-1.613,0.807-3.326,0.605-4.636-0.402c-0.504-0.403-0.907-0.807-1.109-1.311l0,0c-0.101-0.102-0.202-0.303-0.202-0.403v-0.101
	c0-0.102-0.101-0.303-0.101-0.403s0-0.202-0.101-0.302c0-0.102,0-0.202-0.101-0.303c0-0.201,0-0.403,0-0.605V240.786
	c0-3.023,1.613-5.946,4.334-7.458l135.058-78.011c2.923-1.612,6.451,0.403,6.451,3.729v43.743v54.729
	c-0.807,1.109-1.512,2.217-1.814,2.822c-0.101,0.202-0.303,0.504-0.504,0.907c-0.101-0.101-0.202-0.101-0.303-0.202
	c-1.512-0.907-2.116,1.31-2.116,1.31s-0.706-0.202-1.311,0.504s-0.403,1.814-0.403,1.814s-0.806,0-0.806,1.108
	c0,1.008,0,1.008,0,1.008s-1.714,0.403-2.016,1.512c-0.102,0.504,0.705,1.814,1.713,3.225l0,0c0,0-0.101,0.101-0.303,0.302
	l-0.302,0.202c-2.62-2.822-7.156-4.737-11.994-3.527c-0.604,0.101-1.108,0.202-1.613,0.302l12.8-7.458v-94.037l-127.499,73.677
	v94.641l83.252-48.379c-0.604,2.52-0.907,5.645-0.504,9.374c0.101,0.605,0.202,1.209,0.303,1.814
	c0.604,3.527,2.016,6.552,3.931,9.273l-75.391,43.541l53.015,30.539l123.669-71.359l-23.585-13.606
	c3.125-1.109,8.467-3.628,13.002-5.846l20.964,12.095c-0.705,0.303-1.31,0.807-1.713,1.411c-2.218,3.023,5.241,12.599,5.241,12.599
	s-16.832-0.705-19.855,2.217c-3.024,2.924-2.419,8.971-1.21,11.188C357.903,331.698,370.704,337.443,382.899,342.785z
	 M350.445,350.143l-20.058-11.591c-0.604-0.302-1.31-0.302-1.915,0l-30.236,17.538c-0.706,0.402-0.706,1.31,0,1.612l20.057,11.591
	c0.605,0.303,1.311,0.303,1.915,0l30.338-17.537C351.05,351.453,351.05,350.546,350.445,350.143z M334.318,298.236l-9.676,5.645
	l5.745,3.326l9.676-5.645L334.318,298.236z M367.982,390.761c-3.527,0-6.047-3.124-8.97-2.116c-1.613,0.504-2.923,1.814-3.629,2.923
	c-1.814,2.419-2.218,2.419-5.442,4.535c-0.706,0.504-1.108,1.109-1.108,1.814c0,0.403,0.101,0.706,0.302,1.108
	c0.101,0.102,0.101,0.303,0.202,0.403c0.101,0.101,0.201,0.202,0.201,0.303c0,0,0,0,0.101,0.101l0,0
	c0.303,0.303,0.604,0.604,0.907,0.907c0.202,0.101,0.303,0.201,0.504,0.403c1.108,0.705,2.722,1.108,4.334,1.209
	c0.101,0,0.101,0,0.202,0c0.302,0,0.604,0,0.906,0h0.102c0.302,0,0.604,0,0.906-0.101h0.102c0.402-0.101,0.806-0.101,1.108-0.201
	l0,0c0.403-0.102,0.807-0.303,1.108-0.403c0.102,0,0.202-0.102,0.303-0.102c0.101-0.101,0.303-0.201,0.403-0.302
	c0.201-0.202,0.604-0.303,0.907-0.504c0.101-0.101,0.302-0.101,0.402-0.202c2.017-0.906,5.141-2.016,7.56-3.023
	c0.101-0.101,0.303-0.101,0.403-0.201s0.303-0.101,0.403-0.202c0.201-0.101,0.302-0.101,0.504-0.201
	c0.201-0.101,0.302-0.101,0.403-0.202c0.402-0.201,0.705-0.402,0.906-0.504c0.102-0.101,0.202-0.101,0.303-0.201
	s0.201-0.201,0.201-0.303c0-0.101,0.102-0.302,0.102-0.402C372.72,393.583,371.208,390.761,367.982,390.761z M211.355,414.245
	c0.101,0.101,0.202,0.201,0.403,0.302c0.202,0.202,0.604,0.303,0.907,0.504c0.101,0.102,0.302,0.102,0.403,0.202
	c0.101,0.101,0.303,0.101,0.504,0.201c0.101,0.102,0.303,0.102,0.403,0.202c0.302,0.101,0.504,0.201,0.806,0.302
	c1.915,0.807,4.334,1.613,6.148,2.318c0.202,0.101,0.504,0.202,0.706,0.303c0.101,0,0.202,0.101,0.302,0.101
	c0.101,0.101,0.302,0.101,0.403,0.201c0.403,0.202,0.706,0.403,0.907,0.504c0.101,0.102,0.202,0.102,0.303,0.202
	c0.101,0,0.101,0.101,0.202,0.101c0.101,0.101,0.302,0.101,0.403,0.202h0.101c0.907,0.302,1.915,0.504,2.923,0.604h0.101
	c1.915,0.101,3.931-0.303,5.342-1.21c0.706-0.504,1.311-1.008,1.713-1.512c0,0,0-0.101,0.101-0.101
	c0.202-0.303,0.403-0.604,0.504-0.907c0.101-0.201,0.101-0.403,0.101-0.604c0-0.706-0.302-1.311-1.108-1.814
	c-3.226-2.116-3.628-2.116-5.443-4.435c-0.806-1.108-2.016-2.419-3.628-2.923c-2.923-0.907-5.442,2.116-8.97,2.116
	c-3.225,0-4.737,2.822-4.636,4.334c0,0.101,0,0.303,0.101,0.403C211.355,414.043,211.355,414.145,211.355,414.245z M232.723,449.421
	c-28.02-6.552-77.911-9.172-81.841-30.741c-0.706-4.133,0.101-8.567,1.411-12.901c1.613-7.458,5.846-15.118,7.962-21.569
	c0.403-2.418,0.302-4.535-0.605-6.35c-6.551-12.396-58.256-3.023-74.08-14.01c-7.055-4.938-6.047-14.412-3.024-24.491
	c-0.302,1.31-0.504,2.52-0.705,3.729c0.403-2.52,1.108-5.141,1.915-7.861l-11.288,6.449c-9.172,17.941,4.636,29.532,32.354,32.152
	c6.148,0.605-6.955,9.172,14.11,6.047c13.304-2.016,25.802-5.543,28.725-2.721c6.652,6.451-28.221,27.012-16.126,45.759
	c15.824,24.491,74.081,23.786,99.58,31.647c11.994,3.729,0.907,20.158,0.504,20.763l0,0c0.504-0.302,0.907-0.604,1.411-0.907
	c0.202-0.101,0.302-0.201,0.504-0.302c1.008-0.605,1.915-1.21,2.822-1.814c7.458-4.838,12.8-9.071,15.018-12.699
	C250.865,455.67,245.221,452.344,232.723,449.421z M122.157,350.143l0.202,0.705l0.202,0.605l0.202,0.604l0.302,0.504l0.302,0.505
	l0.303,0.402l0.403,0.303l0.403,0.201l6.35,3.729c0,0-0.101,0-0.101-0.101l-0.202-0.102l-0.202-0.201
	c-0.202-0.201-0.403-0.403-0.604-0.705l-0.202-0.303l-0.101-0.201c-0.504-1.008-0.806-2.318-0.907-3.83v-0.403v-0.101
	c0-0.303,0-0.605,0.101-1.008v-0.202l0.101-0.202c0.101-0.504,0.202-1.107,0.403-1.611l0.101-0.303l0.202-0.504l0.101-0.303
	c0.101-0.303,0.202-0.604,0.403-0.907l0.101-0.101l0.101-0.201c0.101-0.202,0.202-0.303,0.202-0.504l0.101-0.202l0.101-0.101
	c0.101-0.201,0.202-0.403,0.403-0.705v-0.102l0.201-0.303c0.303-0.402,0.504-0.806,0.807-1.108l0.101-0.201l0.101-0.101
	c0.202-0.202,0.302-0.403,0.504-0.605l0.101-0.101l0.302-0.302l0,0l0.303-0.303l0.302-0.303l0.302-0.303l0.302-0.302l0.303-0.202
	l0.202-0.1c0.101-0.102,0.201-0.102,0.302-0.202l0.202-0.101l0.403-0.201c0.101-0.102,0.303-0.202,0.504-0.202l0.303-0.202
	l0.504-0.302l0,0l0,0c0.202-0.101,0.302-0.202,0.504-0.303l0.504-0.403l0.403-0.201c0.101-0.101,0.201-0.201,0.403-0.303
	l0.403-0.302l0.604-0.403l0.605-0.504l0.604-0.504l0.605-0.504l0.604-0.504l0.605-0.504l0.604-0.504l0.605-0.504l0.604-0.504
	l0.605-0.504l0.605-0.504l0.604-0.504l0.605-0.504l0.101-0.102c0.202-0.101,0.302-0.303,0.504-0.402l0.504-0.404l0.202-0.1
	c0.202-0.202,0.504-0.404,0.706-0.504l0.101-0.102l0.504-0.303l0.403-0.302l0.403-0.202l0.403-0.201l0.303-0.201l0.302-0.102
	l0.202-0.101h0.202l0.403,0.101l0.403,0.202l-6.451-3.729l-0.403-0.201l-0.403-0.102h-0.202l-0.202,0.102l-0.302,0.101l-0.302,0.201
	l-0.403,0.202l-0.403,0.201l-0.403,0.303l-0.504,0.303l-0.504,0.402l-0.504,0.403l-0.604,0.403l-0.605,0.402l-0.604,0.504
	l-0.605,0.505l-0.604,0.504l-0.605,0.504l-0.604,0.504l-0.605,0.504l-0.604,0.504l-0.605,0.504l-0.604,0.504l-0.605,0.504
	l-0.604,0.504l-0.807,0.403l-0.604,0.403l-0.504,0.403l-0.504,0.402l-0.504,0.404l-0.504,0.302l-0.504,0.302l-0.403,0.202
	l-0.403,0.202l-0.403,0.201l-0.302,0.201l-0.403,0.201l-0.303,0.202l-0.302,0.303l-0.302,0.302l-0.303,0.303l-0.302,0.303
	l-0.302,0.302l-0.302,0.403l-0.303,0.403l-0.302,0.403l-0.302,0.402l-0.302,0.404l-0.202,0.402l-0.202,0.403l-0.202,0.403
	l-0.202,0.402l-0.201,0.404l-0.202,0.504l-0.202,0.402l-0.202,0.504l-0.202,0.403l-0.202,0.505l-0.101,0.402l-0.101,0.403
	l-0.101,0.403l-0.101,0.402l-0.101,0.404v0.402v0.403v0.403l0.101,0.807L122.157,350.143z M230.909,179.204
	c0.605,0.303,1.311,0.303,2.117-0.202l5.543-3.225l8.466-4.938l11.994-6.854c3.527-2.016,6.249-7.458,6.249-12.195
	c0-0.302,0-0.706,0-1.008c0-0.101,0-0.202,0-0.303c0-0.201-0.101-0.403-0.101-0.604c0-0.101,0-0.202-0.101-0.302
	c0-0.202-0.101-0.403-0.101-0.504c0-0.101-0.101-0.202-0.101-0.303c-0.101-0.202-0.202-0.504-0.303-0.706l0,0
	c-0.101-0.201-0.201-0.403-0.403-0.604l-0.101-0.101c-0.101-0.101-0.201-0.303-0.403-0.403c0,0-0.101,0-0.101-0.101
	c-0.302-0.303-0.706-0.504-1.108-0.706c-1.008-0.302-2.218-0.201-3.427,0.605c-1.109,0.706-2.218,1.713-3.125,3.024
	c-1.109-4.637-4.637-6.35-8.769-4.032c-4.737,2.721-8.567,9.877-9.071,16.429c-1.915,1.411-3.528,4.233-4.132,7.055
	c-0.202,0.101-0.504,0.202-0.706,0.302c-1.915,1.109-3.427,4.032-3.427,6.652C229.599,177.793,230.103,178.801,230.909,179.204z
	 M160.356,384.109L160.356,384.109L160.356,384.109L160.356,384.109z M250.664,370.604l-5.745-3.326l-9.676,5.645l5.745,3.325
	L250.664,370.604z M289.165,275.458c-1.512-1.109-2.721-2.218-3.527-3.326l-7.56,4.334c-1.209,2.217-4.737,4.031-6.047,8.265
	c-0.604,1.713,0.202,3.729,1.411,5.543c2.419,3.427,6.854,5.745,7.358,3.326c0.604-2.721-1.512-3.729-2.218-6.35
	c-0.201-0.806-0.201-1.713-0.101-2.822c0.806-5.04,6.148-4.435,6.148-4.435c-1.008,1.209-1.411,2.923-1.31,4.536
	c0.202,2.117,1.411,4.032,3.628,4.032c2.822,0,6.753-4.636,5.241-9.071C291.786,278.078,290.778,276.667,289.165,275.458z
	 M299.95,297.43c-0.504,2.016-1.713,5.141-5.342,6.854c-5.443,2.621-8.87-0.705-8.366-5.039s5.645-6.753,5.645-6.753
	c-11.49-3.024-9.475,8.265-16.228,8.265c-5.644,0-9.071-8.063-8.164-13.405c-6.854,10.784,2.822,24.694,16.227,26.507
	c9.172,1.21,22.979-8.063,16.529-18.344C300.252,295.616,300.252,296.422,299.95,297.43z M261.045,320.914l6.249-3.527l-0.605-2.822
	l-11.288,3.124L261.045,320.914z M310.331,289.871l5.846-0.806l1.108-0.706l-5.745-3.225l-9.675,5.644L310.331,289.871z
	 M320.309,297.631l3.932,1.109l-1.21,3.931l9.374-5.442l-5.645-3.226L320.309,297.631z M243.81,324.341l5.745,3.325l9.777-5.644
	l-5.745-3.326L243.81,324.341z M318.696,289.77l-2.419,6.652l1.512,0.403l6.955-4.032l-5.745-3.326L318.696,289.77z M243.104,366.27
	l-5.745-3.226l-9.777,5.644l5.745,3.326L243.104,366.27z M227.885,357.5l-5.645-3.225l-9.776,5.645l5.745,3.326L227.885,357.5z
	 M235.545,361.936l-5.745-3.326l-9.676,5.645l5.745,3.326L235.545,361.936z M220.326,353.166l-5.745-3.326l-9.676,5.645l5.644,3.326
	L220.326,353.166z M232.219,330.992l5.745,3.326l9.676-5.644l-5.745-3.326L232.219,330.992z M220.527,337.645l5.645,3.326
	l9.776-5.645L230.203,332L220.527,337.645z M208.937,344.398l5.745,3.325l9.777-5.644l-5.745-3.326L208.937,344.398z
	 M197.346,351.15l5.745,3.326l9.676-5.645l-5.745-3.225L197.346,351.15z"></path>
<path id="color_x5F_8" fill="#B8C9C1" d="M386.729,344.498l-114.9,66.32c-2.62,1.512-5.946,1.512-8.567,0l-89.501-51.604
	c-1.512-0.907-2.217-2.52-2.117-4.032v-3.124c0,0.403,0.202,0.807,0.302,1.21c0,0,0,0,0,0.101c0.101,0.101,0.101,0.302,0.202,0.403
	c0,0,0,0.101,0.101,0.101c0.101,0.101,0.101,0.202,0.201,0.302l0.101,0.102c0.101,0.101,0.202,0.201,0.302,0.303l0.101,0.1
	c0.101,0.102,0.201,0.202,0.302,0.303c0.101,0.102,0.302,0.201,0.504,0.303l89.501,51.705c2.621,1.512,5.947,1.512,8.567,0
	l111.07-64.103C384.21,343.391,385.52,343.895,386.729,344.498z M311.138,155.417l-3.326-2.117c-1.21-0.806-2.923-0.907-4.435-0.101
	l-135.059,78.011c-2.621,1.512-4.334,4.435-4.334,7.458v50.193v53.116c0,2.924,2.923,4.233,5.04,5.544
	c-0.504-0.403-0.907-0.807-1.108-1.311l0,0c-0.101-0.101-0.202-0.302-0.202-0.403v-0.101c0-0.101-0.101-0.302-0.101-0.403
	c0-0.101,0-0.201-0.101-0.303c0-0.1,0-0.201-0.101-0.302c0-0.202,0-0.403,0-0.604v-103.31c0-3.023,1.613-5.946,4.334-7.458
	l135.059-78.011C308.113,154.51,309.827,154.611,311.138,155.417z M319.2,153.402v0.302l0.101,0.302l0.102,0.302l0.101,0.303
	l0.101,0.302l0.101,0.202l0.102,0.201l0.101,0.202l0.101,0.202l0.101,0.202l0.202,0.202l0.201,0.202l0.201,0.202l7.963,4.636
	c0,0,0,0,0.101,0c-0.907-0.706-1.512-2.117-1.512-4.132c0-3.83,2.218-8.265,5.039-9.979c0.403-0.201,0.807-0.403,1.109-0.504
	c0.907-4.233,3.326-8.265,6.249-10.482c0.705-9.777,6.551-20.46,13.506-24.492c6.147-3.528,11.389-0.907,13.001,5.946
	c1.411-1.915,3.024-3.527,4.737-4.435c2.218-1.311,4.334-1.411,5.947-0.504c-0.202-0.101-0.403-0.202-0.706-0.303l-8.063-4.636
	l-0.402-0.101l-0.403-0.101l-0.403-0.101h-0.403h-0.403l-0.403,0.101l-0.504,0.101l-0.402,0.101l-0.504,0.202l-0.403,0.202
	l-0.504,0.202l-0.504,0.202l-0.202,0.101l-0.201,0.101l-0.202,0.101l-0.201,0.101l-0.202,0.101l-0.201,0.101l-0.201,0.101
	l-0.202,0.101l-0.201,0.101l-0.202,0.101l-0.201,0.101l-0.201,0.101l-0.202,0.101l-0.101,0.202l-0.202,0.101h-0.101l-7.559-4.435
	l-0.403-0.202l-0.504-0.101l-0.504-0.101l-0.504-0.101h-0.504h-0.504h-0.505l-0.504,0.101l-0.504,0.101l-0.604,0.101l-0.504,0.202
	l-0.604,0.202l-0.604,0.201l-0.605,0.303l-0.604,0.302l-0.705,0.403l-0.605,0.403l-0.705,0.504l-0.604,0.504l-0.605,0.504
	l-0.604,0.604l-0.604,0.605l-0.604,0.604l-0.605,0.706l-0.504,0.706l-0.604,0.706l-0.504,0.706l-0.504,0.706l-0.504,0.806
	l-0.504,0.806l-0.504,0.807l-0.403,0.806l-0.403,0.806l-0.403,0.807l-0.402,0.907l-0.303,0.907l-0.303,0.907l-0.302,0.907
	l-0.303,0.907l-0.201,0.907l-0.202,0.907l-0.201,0.907l-0.202,0.907l-0.201,0.907l-0.101,0.907l-0.102,0.907l-0.101,0.907
	l-0.302,0.201l-0.202,0.202l-0.302,0.202l-0.202,0.202l-0.201,0.202l-0.202,0.302l-0.201,0.202l-0.202,0.302l-0.201,0.302
	l-0.201,0.303l-0.202,0.302l-0.201,0.302l-0.202,0.302l-0.201,0.302l-0.202,0.303l-0.201,0.302l-0.201,0.302l-0.202,0.303
	l-0.201,0.302l-0.202,0.403l-0.201,0.303l-0.202,0.403l-0.201,0.403l-0.201,0.403l-0.102,0.403l-0.201,0.403l-0.101,0.403
	l-0.101,0.403l-0.102,0.403l-0.101,0.403l-0.101,0.403l-0.101,0.403h-0.102h-0.101h-0.101h-0.101h-0.101h-0.102h-0.101h-0.101
	h-0.101h-0.101h-0.102h-0.101h-0.101h-0.101l-0.102,0.101h-0.101l-0.302,0.202l-0.202,0.202l-0.201,0.202l-0.202,0.202l-0.201,0.201
	l-0.202,0.202l-0.201,0.202l-0.201,0.202l-0.202,0.202l-0.201,0.302l-0.202,0.302l-0.201,0.303l-0.202,0.302l-0.201,0.302
	l-0.201,0.302l-0.202,0.303l-0.201,0.302l-0.202,0.302l-0.201,0.302l-0.101,0.403l-0.102,0.302l-0.101,0.403l-0.101,0.403
	l-0.101,0.302l-0.101,0.403l-0.102,0.403l-0.101,0.403l-0.101,0.403v0.303v0.403v0.403v0.302v0.403v0.302L319.2,153.402z
	 M224.257,174.164v0.202l0.101,0.202v0.202l0.101,0.202l0.101,0.202l0.101,0.202l0.101,0.201l0.101,0.101l0.101,0.101l0.101,0.101
	l0.101,0.101l0.101,0.101l5.342,3.125c0.101,0.101,0.202,0.101,0.302,0.202c-0.806-0.403-1.31-1.411-1.31-2.923
	c0-2.621,1.512-5.543,3.427-6.652c0.202-0.202,0.504-0.202,0.706-0.303c0.605-2.822,2.217-5.543,4.132-7.055
	c0.504-6.551,4.435-13.708,9.071-16.429c4.132-2.419,7.66-0.604,8.769,4.032c0.907-1.311,2.016-2.318,3.125-3.024
	c1.31-0.705,2.419-0.907,3.427-0.604l-5.342-3.125l-0.202-0.101l-0.202-0.101h-0.302h-0.202h-0.302h-0.302l-0.303,0.101
	l-0.302,0.101l-0.302,0.101l-0.302,0.101l-0.303,0.101l-0.302,0.202l-0.101,0.101l-0.101,0.101l-0.101,0.101l-0.101,0.101
	l-0.101,0.101l-0.101-0.202l-0.101,0.101l-0.101,0.101l-0.101,0.101l-0.101,0.101l-0.101,0.101l-0.101,0.101l-0.101,0.101
	l-0.101,0.101l-0.101,0.101l0,0l-5.141-2.923l-0.302-0.101l-0.302-0.101l-0.302-0.101h-0.303h-0.302h-0.302h-0.302l-0.303,0.101
	l-0.302,0.101l-0.403,0.101l-0.403,0.101l-0.403,0.101l-0.403,0.202l-0.403,0.201l-0.403,0.202l-0.504,0.303l-0.403,0.302
	l-0.403,0.302l-0.403,0.302l-0.403,0.403l-0.403,0.403l-0.403,0.403l-0.403,0.403l-0.403,0.403l-0.403,0.403l-0.403,0.504
	l-0.303,0.504l-0.302,0.504l-0.302,0.504l-0.303,0.504l-0.302,0.604l-0.302,0.605l-0.302,0.604l-0.202,0.605l-0.302,0.604
	l-0.202,0.605l-0.202,0.604l-0.202,0.605l-0.202,0.604l-0.202,0.605l-0.201,0.604l-0.202,0.605l-0.101,0.605l-0.101,0.604
	l-0.101,0.604l-0.101,0.605l-0.101,0.605l-0.202,0.201l-0.202,0.101l-0.202,0.202l-0.202,0.201l-0.201,0.202l-0.202,0.202
	l-0.202,0.202l-0.202,0.202l-0.202,0.201l-0.202,0.202l-0.201,0.202l-0.202,0.202l-0.101,0.202l-0.201,0.202l-0.101,0.202
	l-0.202,0.201l-0.101,0.202l-0.101,0.202l-0.101,0.202l-0.101,0.202l-0.101,0.201l-0.101,0.202l-0.101,0.202l-0.101,0.302
	l-0.101,0.202l-0.101,0.202l-0.101,0.202l-0.101,0.202l-0.101,0.302l-0.101,0.202l-0.101,0.202L228.086,166l0,0h-0.101l0,0h-0.101
	l0,0h-0.101l0,0h-0.101l0,0h-0.101l0,0h-0.101l0,0h0.302l0,0h-0.101l-0.202,0.101l-0.202,0.101l-0.202,0.201l-0.201,0.101
	l-0.202,0.202l-0.202,0.202l-0.202,0.202l-0.101,0.201l-0.202,0.202l-0.202,0.202l-0.202,0.202l-0.101,0.202l-0.101,0.201
	l-0.101,0.202l-0.101,0.202l-0.101,0.202l-0.101,0.202l-0.101,0.201l-0.101,0.202l-0.101,0.202l-0.101,0.202l-0.101,0.202
	l-0.101,0.202l-0.101,0.202l-0.101,0.201v0.202l-0.101,0.202v0.202v0.202v0.201v0.202v0.202v0.202v0.202v0.202L224.257,174.164z"></path>
<path id="color_x5F_7" fill="#D0E7DF" d="M340.971,296.724c-0.907,0.303-1.612,0.504-2.116,0.504
	c-1.915,0.101-10.784-6.451-18.444-12.397l-8.87-5.14l-6.651,3.83c-1.512,2.016-3.226,3.83-3.226,6.955
	c-0.202,5.241,5.645,6.047,5.645,6.047c5.24,0,5.644-6.551,5.644-6.551c8.567,31.95-35.377,36.989-49.588,17.537l-75.39,43.541
	l53.015,30.539l123.668-71.358L340.971,296.724z M341.878,302.671l5.745,3.226l-9.776,5.645l-5.745-3.326L341.878,302.671z
	 M281.908,335.125l-9.676,5.645l-5.745-3.326l9.777-5.645L281.908,335.125z M278.179,330.69l5.241-3.023l2.117,3.023l5.14-4.032
	l3.024,1.714l-9.776,5.645L278.179,330.69z M258.727,348.53l-9.776,5.644l-5.644-3.326l9.676-5.644L258.727,348.53z
	 M247.337,339.762l9.777-5.645l5.644,3.326l-9.676,5.645L247.337,339.762z M254.896,344.096l9.676-5.645l5.745,3.326l-9.676,5.645
	L254.896,344.096z M264.673,336.334l-5.644-3.325l9.676-5.645l5.745,3.326L264.673,336.334z M257.114,332l-5.745-3.325l9.676-5.645
	l5.745,3.326L257.114,332z M255.199,333.009l-9.777,5.644l-5.644-3.326l9.676-5.644L255.199,333.009z M243.507,339.762l-9.676,5.645
	l-5.745-3.326l9.776-5.645L243.507,339.762z M231.917,346.414l-9.676,5.644l-5.745-3.325l9.676-5.645L231.917,346.414z
	 M233.832,347.522l3.528-2.017l8.063-4.636l5.745,3.326l-9.676,5.644l-1.915,1.109l-9.776,5.645l-5.645-3.326L233.832,347.522z
	 M241.391,351.856l5.644,3.325l-9.676,5.645l-5.745-3.326L241.391,351.856z M248.95,356.291l5.745,3.326l-9.676,5.645l-5.745-3.326
	L248.95,356.291z M250.865,355.182l9.676-5.644l5.745,3.326l-9.676,5.644L250.865,355.182z M262.456,348.53l9.776-5.645l5.745,3.326
	l-9.776,5.645L262.456,348.53z M274.047,341.777l9.676-5.645l5.745,3.326l-9.676,5.645L274.047,341.777z M285.738,335.125
	l9.776-5.645l5.645,3.326l-9.676,5.645L285.738,335.125z M297.329,328.372l4.334-2.52l2.419,2.016l3.729-4.737l5.039,2.924
	l-9.776,5.644L297.329,328.372z M308.92,321.721l7.357,1.31l2.318-6.954l0,0l5.745,3.326l-9.676,5.645L308.92,321.721z
	 M319.2,305.896l-4.031-3.629c0,0,0.303-1.209,0.303-2.923l5.14,1.612L319.2,305.896z M322.123,305.291l0.504-0.302l5.745,3.325
	l-8.869,5.141l0.807-2.62L322.123,305.291z M320.511,314.967l9.776-5.644l5.645,3.325l-9.676,5.645L320.511,314.967z
	 M339.963,301.563l-9.676,5.645l-5.745-3.326l9.676-5.645L339.963,301.563z M332.404,297.229l-9.374,5.442l1.21-3.931l-3.931-1.109
	l6.35-3.628L332.404,297.229z M319.1,289.568l5.745,3.326l-6.954,4.031l-1.513-0.403l2.419-6.652L319.1,289.568z M310.331,289.871
	l-8.466,0.907l9.675-5.644l5.745,3.225l-1.108,0.706L310.331,289.871z M313.153,308.617l4.334,1.714c0,0.202-2.621,8.97-2.621,8.97
	l-7.156-4.838C307.71,314.463,311.54,311.238,313.153,308.617z M302.873,317.387l4.736,2.016l-3.931,5.24l-5.442-4.031
	L302.873,317.387z M296.624,321.82l3.427,2.723l-4.636,2.619l-3.326-1.914L296.624,321.82z M291.987,320.511
	c-0.302,0.302-6.451,5.241-6.451,5.241l-3.83-5.645C281.606,320.107,286.746,321.721,291.987,320.511z M280.195,323.03l2.117,3.124
	l-6.047,3.528l-5.745-3.326l6.652-3.83L280.195,323.03z M270.015,316.076l5.745,2.923l-5.241,1.813l-1.814-3.729L270.015,316.076z
	 M268,321.015l6.249,1.008l-5.543,3.226l-5.745-3.326l4.737-2.722L268,321.015z M266.689,314.463l0.605,2.822l-6.249,3.527
	l-5.644-3.326L266.689,314.463z M253.486,318.696l5.745,3.326l-9.776,5.645l-5.745-3.326L253.486,318.696z M241.895,325.349
	l5.745,3.326l-9.676,5.644l-5.745-3.326L241.895,325.349z M230.304,332.102l5.745,3.326l-9.776,5.645l-5.644-3.326L230.304,332.102z
	 M218.713,338.754l5.745,3.326l-9.777,5.644l-5.745-3.325L218.713,338.754z M197.346,351.15l9.676-5.645l5.745,3.227l-9.676,5.644
	L197.346,351.15z M204.905,355.484l9.676-5.645l5.745,3.326l-9.676,5.645L204.905,355.484z M212.464,359.818l9.776-5.645
	l5.645,3.226l-9.676,5.645L212.464,359.818z M220.023,364.254l9.676-5.645l5.745,3.326l-9.676,5.645L220.023,364.254z
	 M227.583,368.588l9.777-5.645l5.745,3.225l-9.777,5.645L227.583,368.588z M240.887,376.247l-5.745-3.325l9.676-5.645l5.745,3.326
	L240.887,376.247z M252.478,369.596l-5.745-3.326l9.776-5.645l5.745,3.326L252.478,369.596z M264.169,362.842l-5.745-3.326
	l9.676-5.644l5.745,3.326L264.169,362.842z M275.76,356.189l-5.745-3.325l9.676-5.645l5.745,3.326L275.76,356.189z M310.634,336.032
	l-1.915,1.108l-9.676,5.645l-1.915,1.109l-9.776,5.644l-5.745-3.326l5.442-3.124l3.427-2.016l0.806-0.504l1.915-1.109l11.59-6.652
	l1.109-0.604l7.66-4.435l1.008-0.605l5.744,3.326L310.634,336.032z M322.225,329.381l-5.745-3.326l9.776-5.645l5.745,3.326
	L322.225,329.381z M333.814,322.627l-5.744-3.326l9.676-5.644l5.744,3.325L333.814,322.627z M339.762,312.648l9.676-5.644
	l5.745,3.326l-9.676,5.644L339.762,312.648z M350.445,351.856l-30.338,17.537c-0.604,0.302-1.311,0.302-1.915,0l-20.057-11.591
	c-0.706-0.403-0.706-1.311,0-1.613l30.237-17.537c0.604-0.302,1.311-0.302,1.915,0l20.058,11.592
	C351.05,350.546,351.05,351.453,350.445,351.856z"></path>
<path id="color_x5F_6" fill="#9AC6EA" d="M23.383,378.062c0,0.202,0.101,0.403,0.101,0.604c0.101,0.201,0.101,0.403,0.202,0.605
	c0.101,0.201,0.101,0.402,0.202,0.504c0.101,0.201,0.202,0.402,0.302,0.604c0.101,0.201,0.202,0.302,0.202,0.504
	c0.101,0.202,0.302,0.403,0.403,0.604c0.101,0.102,0.201,0.303,0.302,0.403c0.202,0.202,0.403,0.403,0.604,0.706
	c0.101,0.1,0.202,0.201,0.303,0.302c0.201,0.202,0.504,0.504,0.806,0.706c0.101,0.1,0.101,0.1,0.202,0.201
	c0.403,0.303,0.706,0.504,1.108,0.807l179.91,103.914l0,0c8.365-4.334,16.529-8.87,23.584-13.204
	c0.403-0.604,11.49-17.033-0.504-20.763c-25.5-7.861-83.756-7.257-99.58-31.647c-12.095-18.646,22.778-39.208,16.126-45.759
	c-2.923-2.822-15.421,0.705-28.725,2.722c-21.065,3.226-7.962-5.442-14.11-6.048c-27.818-2.62-41.525-14.313-32.354-32.151
	l11.288-6.552l-55.535,32.152c-3.628,2.116-5.241,5.946-4.939,9.574c0,0.202,0,0.404,0.101,0.706
	C23.383,377.658,23.383,377.859,23.383,378.062z"></path>
<path id="color_x5F_5" fill="#FFD2BB" d="M421.099,350.848c0,0,0,0,1.108,2.318c-1.512,2.722-3.729,4.637-6.147,5.947
	C418.68,355.082,421.099,350.848,421.099,350.848z M408.5,350.042c0,0-2.016,1.008-4.133,2.016c0.403,0.202,0.706,0.303,0.706,0.303
	s0.705,1.612-2.621,3.124c-3.225,1.512-6.047,2.117-6.651,3.527c-0.605,1.412,5.846,3.326,9.776,3.125
	c1.311,0,3.326-0.303,5.442-0.907c0-0.604-0.201-1.31-0.403-2.116C409.608,354.88,408.5,350.042,408.5,350.042z M403.562,344.398
	c0.302-4.032-0.202-7.156-0.202-7.156S386.83,320.611,386.83,319.2l0.907-0.705l4.637,0.504c0,0,1.713-2.318,2.419-2.722
	c0.604-0.504,2.419-0.906,2.419-0.906s-11.591-9.374-15.22-13.204c0,0-4.031-0.403-6.854,0.907
	c-0.706,0.303-1.311,0.807-1.714,1.411c-2.217,3.023,5.241,12.599,5.241,12.599s-16.832-0.705-19.855,2.217
	c-3.023,2.924-2.419,8.971-1.209,11.188c0.604,1.21,13.404,6.955,25.601,12.297c1.31,0.605,2.62,1.109,3.829,1.713
	c5.745,2.521,11.087,4.738,14.514,6.148C402.251,348.832,403.359,346.615,403.562,344.398z M418.479,279.489
	c-5.645-8.97-19.453-18.041-19.855-18.344l0.806,1.008c0,0-4.031-2.419-6.148-3.729c-2.116-1.31-5.744-4.032-5.744-4.032
	c1.008,6.955,5.14,9.575,5.14,9.575c-4.233,1.209-12.498-7.055-12.498-7.055c-0.907,3.729,4.032,7.962,4.032,7.962
	c-4.637,0.201-11.591-8.769-11.591-8.769l-1.814,1.814c0,0,0.504-0.605,1.612-3.931c1.109-3.326-3.225-6.35-4.232-5.443
	c-1.009,0.907,0.101,2.217,0,5.443c-0.102,3.125-3.932,8.567-4.032,8.769c0.101-0.101,0.706-1.109,0.504-3.931
	c-0.201-3.125-2.62-6.249-2.62-6.249c-1.008,0.806,0,7.055,0,7.055c-2.52-1.411-3.931-9.575-4.536-13.606
	c-0.101,0.101-0.201,0.201-0.302,0.302c-1.008,1.31,0,6.249-0.706,7.257c-0.705,1.008-2.62,2.419-2.62,3.225
	c0.101,0.807,1.108,1.814,1.108,1.814s-2.016,2.217-2.217,3.225c-0.202,1.008,0,1.311,0,1.311l-0.202,0.604l4.334,7.055l6.955-2.217
	l1.209,1.915c0,0,14.11-1.814,29.33,6.753c15.219,8.466,23.686,14.413,28.523,15.32c4.838,0.907,8.466,2.419,8.466,2.419
	S424.122,288.661,418.479,279.489z M375.139,233.832c3.729,1.311,3.023,2.722,3.023,2.722s0.604-0.706,2.117-0.706
	c0.101,0,0.302,0,0.402,0c-0.504-1.915-0.806-4.032-0.806-6.047c0.201-4.939,2.318-16.328,2.318-16.328s6.248-2.217,6.854-6.249
	c0.101-0.403,0-0.706,0-1.008c-0.504-3.125-5.241-3.931-6.048-3.729c-0.806,0.201,1.512,1.512,1.512,2.217
	c0,0.604-3.124,2.318-7.257,2.52c-0.705,0-1.411,0-2.217,0c-0.102,0-0.202,0-0.303,0l0,0c-0.101,0.101-1.008,2.217-0.504,3.83
	c0,0-4.132,12.599-4.435,15.925c-0.101,1.613-0.101,4.233-0.101,6.451C371.712,233.227,373.627,233.328,375.139,233.832z
	 M342.382,284.227c-1.31,1.008-2.217,1.713-2.318,1.713c-0.302,0-7.257-3.024-10.885-5.14c-3.729-2.117-9.878-5.846-9.878-5.846
	l-0.806-4.535l-0.504-2.722c0,0-1.108-1.108-2.52-2.419c-1.714-1.512-3.729-3.427-4.737-4.031c-0.101-0.101-0.202-0.101-0.303-0.202
	c-1.512-0.907-2.116,1.31-2.116,1.31s-0.706-0.202-1.311,0.504s-0.403,1.814-0.403,1.814s-0.807,0-0.807,1.108
	c0,1.008,0,1.008,0,1.008s-1.713,0.403-2.016,1.512c-0.101,0.504,0.706,1.814,1.714,3.225c1.21,1.713,2.722,3.528,2.722,3.528
	s0.101,0.101,0.302,0.202c1.21,1.008,6.249,5.14,11.994,9.575c7.66,5.947,16.529,12.397,18.444,12.397
	c0.504,0,1.21-0.202,2.117-0.504c3.124-1.108,8.466-3.628,13.001-5.846c4.233-2.116,7.66-3.83,7.66-3.83s6.35,1.411,10.482,2.116
	c4.031,0.706,4.838-2.621,4.938-3.326c0.101-0.705,0.202-7.962-2.62-10.684c-2.722-2.721-9.374-4.636-9.374-4.636
	s-7.659,2.52-9.776,3.931C353.671,275.458,346.212,281.304,342.382,284.227z"></path>
<path id="color_x5F_4" fill="#00CEC9" d="M316.076,253.385c-0.403,0.403-1.714,2.318-2.923,4.132v-54.729l30.236-17.437
	c6.249-3.628,13.809-3.628,20.058,0l14.514,8.365c-1.411,0.706-2.117,1.411-2.923,1.411c-1.008,0-3.125,1.411-4.032,3.326
	c-0.906,1.915,0,6.249,0,6.551s2.117,2.217,3.024,2.217c0,0,0.302,0,0.705,0c-0.101,0.101-1.008,2.217-0.504,3.83
	c0,0-4.132,12.599-4.435,15.925c-0.101,1.613-0.101,4.233-0.101,6.451c-2.521,0.201-4.939,1.008-6.451,1.814
	c-2.52,1.512-6.35,6.854-6.35,8.668c0,0,0.101,0.907,0.303,2.217c-0.101,0.101-0.202,0.202-0.303,0.302
	c-1.008,1.311,0,6.249-0.705,7.257c-0.706,1.008-2.621,2.419-2.621,3.226c0.102,0.806,1.109,1.814,1.109,1.814
	s-2.017,2.217-2.218,3.226c-0.201,1.008,0,1.31,0,1.31l-0.201,0.605l4.334,7.055l6.954-2.217l1.209,1.915
	c0,0-7.659,2.52-9.776,3.931c-1.512,1.108-8.97,6.854-12.8,9.776l-23.686-13.909l-0.504-2.722c0,0-1.109-1.108-2.52-2.419l0,0
	l15.319-23.282c0,0-2.62-1.814-4.435-2.318c-1.814-0.403-3.326-1.512-3.326-1.512s-1.209,3.931-2.016,5.241
	c-0.807,1.31-4.031,8.668-4.031,8.668S316.681,252.679,316.076,253.385z M372.316,292.088c-1.814-1.612-10.684-5.04-10.684-5.04
	s-3.427,1.814-7.66,3.83l20.964,12.094c2.722-1.41,6.854-0.906,6.854-0.906C378.162,298.236,374.131,293.701,372.316,292.088z
	 M577.222,315.471c0,0.202,0,0.404-0.101,0.605c0,0.201-0.101,0.504-0.101,0.705s-0.102,0.303-0.102,0.504
	c-0.101,0.303-0.201,0.504-0.201,0.807c0,0.101-0.101,0.303-0.202,0.403c-0.101,0.302-0.201,0.504-0.302,0.705
	c-0.101,0.101-0.101,0.303-0.202,0.403c-0.101,0.201-0.302,0.504-0.402,0.705c-0.102,0.102-0.202,0.202-0.303,0.404
	c-0.201,0.201-0.403,0.402-0.604,0.705c-0.101,0.101-0.202,0.201-0.303,0.303c-0.201,0.201-0.504,0.402-0.705,0.705
	c-0.101,0.101-0.202,0.201-0.303,0.201c-0.403,0.303-0.705,0.504-1.108,0.807L257.114,505.258c-6.249,3.629-13.909,3.629-20.057,0
	l-28.927-16.731c8.366-4.333,16.529-8.869,23.585-13.203l0,0c0.504-0.302,0.907-0.604,1.411-0.907
	c0.202-0.101,0.303-0.201,0.504-0.302c1.008-0.605,1.915-1.21,2.822-1.814c7.458-4.838,12.8-9.071,15.018-12.699l0,0
	c0.807-1.411,1.209-2.722,1.109-3.931l0,0c0-0.303-0.101-0.505-0.101-0.807l0,0c-0.101-0.202-0.101-0.504-0.201-0.706v-0.101
	c-0.101-0.201-0.202-0.403-0.403-0.705c0-0.102-0.101-0.102-0.101-0.202c-0.101-0.201-0.303-0.403-0.504-0.604l-0.101-0.101
	c-0.202-0.202-0.302-0.303-0.504-0.504c-0.101-0.101-0.101-0.101-0.202-0.202c-0.202-0.201-0.403-0.402-0.706-0.604
	c-0.101-0.101-0.202-0.101-0.302-0.201c-0.202-0.102-0.403-0.303-0.605-0.403c-0.101-0.101-0.302-0.202-0.403-0.303
	c-0.202-0.101-0.504-0.302-0.807-0.403c-0.101-0.101-0.302-0.201-0.403-0.201c-0.302-0.202-0.706-0.303-1.008-0.504
	c-0.202-0.101-0.303-0.101-0.504-0.202c-0.302-0.101-0.604-0.201-0.806-0.402c-0.202-0.102-0.302-0.102-0.504-0.202
	c-0.403-0.201-0.806-0.302-1.209-0.504c-0.202-0.101-0.403-0.101-0.604-0.201c-0.403-0.202-0.907-0.303-1.411-0.504
	c-0.202-0.102-0.403-0.102-0.605-0.202c-0.403-0.101-0.806-0.302-1.31-0.403c-0.202-0.101-0.403-0.101-0.605-0.201
	c-0.604-0.201-1.209-0.303-1.814-0.504c-0.202,0-0.403-0.101-0.605-0.101c-0.706-0.202-1.411-0.303-2.117-0.504
	c-28.019-6.552-77.91-9.172-81.841-30.741c-0.101-0.403-0.101-0.807-0.202-1.209c0-0.202,0-0.403,0-0.605c0-0.201,0-0.402,0-0.604
	c0-0.201,0-0.403,0-0.705c0-0.202,0-0.303,0-0.504c0-0.303,0-0.504,0-0.807l0,0c0.101-1.512,0.302-2.923,0.605-4.435
	c0,0,0,0,0,0.101c1.713-8.063,6.551-16.328,8.466-23.081l0,0c0.101-0.403,0.201-0.907,0.403-1.31c0-0.102,0-0.202,0.101-0.303
	c0.101-0.403,0.202-0.705,0.202-1.109c0-0.1,0-0.201,0-0.201c0.101-0.906,0.201-1.713,0.201-2.52c0-0.101,0-0.201,0-0.303
	c0-0.302,0-0.604-0.101-0.906c0-0.102,0-0.202-0.101-0.303c0-0.303-0.101-0.504-0.202-0.807c0-0.101,0-0.201-0.101-0.303
	c-0.101-0.302-0.202-0.705-0.403-1.008c-6.551-12.396-58.256-3.124-74.081-14.01c-0.403-0.302-0.806-0.604-1.209-0.906
	c-0.101-0.102-0.202-0.201-0.202-0.201c-0.302-0.303-0.504-0.505-0.806-0.807c-0.101-0.102-0.202-0.202-0.302-0.303
	c-0.202-0.303-0.403-0.504-0.605-0.807c-0.101-0.101-0.101-0.201-0.202-0.303c-0.201-0.302-0.403-0.604-0.504-0.906
	c-0.101-0.102-0.101-0.201-0.101-0.303c-0.202-0.402-0.302-0.705-0.504-1.108c0-0.101,0-0.101-0.101-0.202
	c-0.504-1.41-0.706-2.822-0.806-4.434v-0.102c0-0.504,0-1.008,0-1.512v-0.101c0.101-3.83,1.008-8.164,2.318-12.498l-55.837,32.253
	l68.234-39.409c0.101,1.714,0.202,3.226,0.202,4.536c0.403,6.551,3.729,11.792,10.583,11.792c10.583,0,8.265-10.784,7.66-13.103
	c-1.108-4.133-2.016-8.266-2.721-12.297l10.684-6.148c1.311,0.303,2.621,0.404,3.931,0.404c8.668,0,16.126-5.645,18.747-13.506
	l18.344-10.583v53.117c0,2.922,2.923,4.232,5.04,5.543c1.209,1.008,3.023,1.209,4.636,0.403c-1.512,0.907-2.117,2.52-1.915,4.132
	v3.125c-0.101,1.512,0.605,3.125,2.117,4.031l89.501,51.604c2.621,1.512,5.947,1.512,8.567,0l114.9-66.319
	c5.745,2.52,11.087,4.736,14.514,6.148c-0.907,1.512-1.714,2.721-1.915,3.124c-0.303,0.504,2.52-0.604,5.039-1.814
	c0.403,0.202,0.706,0.303,0.706,0.303s0.705,1.612-2.621,3.124c-3.225,1.512-6.047,2.117-6.651,3.527
	c-0.605,1.412,5.846,3.326,9.776,3.125c1.311,0,3.326-0.303,5.442-0.907c0.202,2.923-1.008,4.737-1.008,4.737
	c1.512-0.604,3.83-3.629,5.946-6.753c2.419-1.411,4.737-3.326,6.148-5.946c0.202,0.504,0.504,1.008,0.807,1.713
	c2.016,4.031,1.512,13.405,1.512,13.405c4.132-1.813,10.885-14.815,10.885-14.815l-1.008,8.163c0,0,1.21-0.604,4.435-3.931
	c3.125-3.225,4.032-13.809,4.032-13.809l4.031,6.451c0,0,3.629-7.761,0-15.723c-3.628-7.963-15.723-39.409-15.723-39.409
	s-7.056-6.35-12.801-15.521c-5.645-8.971-19.452-18.042-19.855-18.344l-0.201-0.202l-5.645-7.055
	c-0.807-2.52-4.435-13.103-6.048-15.018c-1.713-2.016-4.334-2.822-5.946-2.923c-0.504-1.915-0.807-4.031-0.807-6.047
	c0.202-4.938,2.318-16.328,2.318-16.328s6.249-2.217,6.854-6.249c0.102-0.403,0-0.706,0-1.008c0.202-0.101,0.403-0.101,0.605-0.202
	c3.931-1.512,3.628,0.202,4.938-2.016c0.101-0.101,0.201-0.303,0.201-0.403l36.386,20.964c-0.403,12.195,0.101,23.484,0.504,30.539
	c0.604,8.366,4.736,15.018,13.506,15.018c13.606,0,10.582-13.708,9.776-16.731c-1.512-5.745-2.722-11.49-3.729-17.134L571.98,306.4
	C575.911,308.013,577.524,311.742,577.222,315.471z M151.89,328.372l0.403,0.101l0.403,0.202l-6.451-3.729l-0.403-0.201
	l-0.403-0.102h-0.202l-0.202,0.102l-0.302,0.101l-0.302,0.202l-0.403,0.201l-0.403,0.201l-0.403,0.303l-0.504,0.303l-0.504,0.402
	l-0.504,0.403l-0.604,0.403l-0.605,0.402l-0.604,0.505l-0.605,0.504l-0.604,0.504l-0.605,0.504l-0.604,0.504l-0.605,0.504
	l-0.604,0.504l-0.605,0.504l-0.604,0.504l-0.605,0.504l-0.604,0.504l-0.807,0.403l-0.604,0.403l-0.504,0.403l-0.504,0.402
	l-0.504,0.404l-0.504,0.302l-0.504,0.302l-0.403,0.202l-0.403,0.202l-0.403,0.201l-0.302,0.201l-0.403,0.201l-0.303,0.202
	l-0.302,0.303l-0.302,0.302l-0.303,0.303l-0.302,0.303l-0.302,0.302l-0.302,0.403l-0.303,0.403l-0.302,0.403l-0.302,0.402
	l-0.302,0.404l-0.202,0.402l-0.202,0.403l-0.202,0.403l-0.202,0.402l-0.201,0.404l-0.202,0.504l-0.202,0.402l-0.202,0.504
	l-0.202,0.403l-0.202,0.505l-0.101,0.402l-0.101,0.403l-0.101,0.403l-0.101,0.402l-0.101,0.404v0.402v0.403v0.403l0.101,0.807
	l0.101,0.705l0.202,0.705l0.202,0.605l0.202,0.604l0.302,0.504l0.302,0.504l0.302,0.403l0.403,0.303l0.403,0.201l6.35,3.729
	c0.907,0.504,1.915,0.504,3.225-0.1c5.241-2.621,5.443-3.226,10.079-3.729c1.915-0.202,4.636-0.807,6.551-2.62
	c3.427-3.125,1.209-8.668,3.931-13.406C157.231,333.21,153.906,328.775,151.89,328.372z M235.041,416.361L235.041,416.361
	c0-0.604-0.302-1.209-1.108-1.713c-3.226-2.117-3.628-2.117-5.443-4.436c-0.806-1.108-2.016-2.419-3.628-2.923
	c-2.923-0.906-5.442,2.117-8.97,2.117c-3.225,0-4.737,2.822-4.636,4.334v-0.202v4.939v0.302l0.101,0.303l0.101,0.101l0.101,0.101
	l0.202,0.101l0.202,0.202l0.202,0.201l0.302,0.202l0.302,0.201l0.302,0.202l0.403,0.201l0.403,0.201l0.403,0.202l0.504,0.201
	l0.403,0.202l0.504,0.201l0.504,0.202l0.504,0.201l0.504,0.201l0.504,0.202l0.504,0.201l0.504,0.202l0.504,0.201l0.504,0.202
	l0.504,0.201l0.504,0.201l0.403,0.202l0.403,0.201l0.403,0.202l0.403,0.201l0.302,0.202l0.302,0.201l0.302,0.201l0.202,0.202
	l0.202,0.201l0.202,0.102l0.202,0.101l0.302,0.101l0.202,0.101l0.302,0.101l0.302,0.102l0.303,0.101l0.302,0.101l0.302,0.101h0.302
	l0.303,0.101h0.302h0.302h0.302h0.303h0.302h0.302h0.302h0.303h0.302l0.302-0.101l0.303-0.101l0.302-0.101l0.302-0.101l0.302-0.102
	l0.303-0.101l0.302-0.101l0.302-0.101l0.202-0.101l0.202-0.102l0.202-0.201l0.403-0.303l0.403-0.302l0.302-0.303l0.302-0.303
	l0.202-0.302l0.202-0.303l0.202-0.302l0.101-0.303l0.101-0.303v-0.302v-5.847H235.041z M372.619,394.894v0.201
	c0.101-1.512-1.411-4.233-4.637-4.233c-3.527,0-6.047-3.124-8.97-2.116c-1.613,0.504-2.923,1.814-3.629,2.923
	c-1.814,2.419-2.218,2.419-5.442,4.535c-0.706,0.505-1.108,1.109-1.108,1.814l0,0v4.938v0.303l0.101,0.303l0.101,0.302l0.201,0.303
	l0.202,0.303l0.201,0.302l0.303,0.303l0.302,0.302l0.403,0.303l0.403,0.303l0.202,0.101l0.201,0.201l0.303,0.101l0.201,0.102
	l0.303,0.101l0.302,0.101l0.303,0.101l0.302,0.101l0.303,0.102l0.303,0.101h0.302l0.303,0.101h0.303h0.302h0.303h0.302h0.303h0.303
	h0.302h0.303l0.302-0.101h0.303l0.303-0.101l0.302-0.102l0.303-0.101l0.303-0.101l0.302-0.101l0.303-0.101l0.201-0.102l0.202-0.101
	l0.201-0.101l0.201-0.201l0.202-0.202l0.302-0.201l0.303-0.202l0.303-0.201l0.403-0.202l0.402-0.201l0.403-0.201l0.403-0.202
	l0.504-0.201l0.504-0.202l0.504-0.201l0.504-0.202l0.504-0.201l0.504-0.201l0.504-0.202l0.504-0.201l0.504-0.202l0.504-0.201
	l0.505-0.202l0.504-0.201l0.402-0.201l0.403-0.202l0.403-0.201l0.403-0.202l0.302-0.201l0.303-0.202l0.303-0.201l0.201-0.201
	l0.202-0.202l0.201-0.101l0.101-0.101l0.101-0.102l0.102-0.302v-0.303v-4.333H372.619z"></path>
<path id="color_x5F_3" fill="#E84393" d="M307.206,296.523c0,0-5.845-0.807-5.644-6.047c0.101-3.125,1.713-4.838,3.225-6.955
	c1.008-1.31,1.915-2.822,2.419-4.939c0.102-0.604,0.102-1.108,0.102-1.713l-6.854,9.676l-2.217,3.729l-1.512,2.117l-6.854,9.172
	c0,0,2.52-6.249,3.024-7.66s3.83-8.567,3.83-8.567s4.939-7.861,5.745-9.373c0.504-1.008,1.916-2.923,2.621-3.83l-0.101-0.101
	c-2.62-2.822-7.156-4.737-11.994-3.527c-0.604,0.101-1.108,0.202-1.613,0.302c-6.854,0.907-7.861-4.132-7.861-4.132
	s-0.907,3.427,2.217,7.357c0.806,1.109,2.016,2.218,3.528,3.326c1.713,1.209,2.621,2.52,3.125,3.931
	c1.512,4.435-2.419,9.071-5.241,9.071c-2.117,0-3.326-1.915-3.628-4.032c-0.202-1.612,0.202-3.326,1.31-4.536
	c0,0-5.241-0.504-6.148,4.435c-0.202,1.108-0.101,2.016,0.101,2.822c0.605,2.621,2.722,3.628,2.217,6.35
	c-0.504,2.419-4.938,0-7.357-3.326c-1.209-1.713-2.016-3.729-1.411-5.543c1.311-4.233,4.939-5.947,6.047-8.265
	c0.302-0.504,0.403-1.109,0.403-1.713c-0.302-3.326-8.063-6.551-8.063-6.551s3.729,3.125,0,5.946
	c-2.822,2.117-8.769,5.04-10.684,13.002c-0.604,2.52-0.907,5.644-0.504,9.374c0.101,0.604,0.202,1.209,0.302,1.814
	c0.605,3.528,2.016,6.551,3.931,9.273c14.211,19.452,58.156,14.412,49.588-17.538C312.951,289.972,312.447,296.523,307.206,296.523z
	 M283.723,313.959c-13.304-1.713-22.98-15.723-16.227-26.507c-0.907,5.241,2.52,13.406,8.164,13.406
	c6.753,0,4.737-11.289,16.228-8.266c0,0-5.141,2.419-5.645,6.753s2.923,7.761,8.366,5.04c3.527-1.714,4.838-4.838,5.342-6.854
	c0.202-1.109,0.202-1.814,0.202-1.814C306.702,305.896,292.895,315.068,283.723,313.959z M406.585,317.285
	c0.504-0.101,2.923-0.402,2.923-0.402c-0.303,0.402-2.116,5.441-2.116,5.441s-2.621-3.023-2.722-3.225
	c-0.101-0.101-2.923-2.016-2.923-2.016S406.182,317.387,406.585,317.285z M286.746,131.228c0-0.302,0-0.605,0-1.008
	c0-0.302,0-0.605,0-0.907s0-0.706,0-1.008s0.101-0.706,0.101-1.008c0-0.303,0.101-0.706,0.101-1.008
	c0-0.302,0.101-0.705,0.101-1.008c0-0.201,0.101-0.302,0.101-0.504l0,0c0-0.202,0.101-0.302,0.101-0.504
	c0.101-0.302,0.101-0.706,0.202-1.008c0.101-0.302,0.101-0.706,0.202-1.008c0.101-0.303,0.202-0.706,0.202-1.008
	c0.101-0.303,0.202-0.706,0.202-1.008c0.101-0.201,0.101-0.302,0.202-0.504c0.101-0.202,0.101-0.302,0.202-0.504
	c0.101-0.302,0.201-0.604,0.302-0.907c0.101-0.202,0.101-0.303,0.202-0.504c0.101-0.201,0.101-0.302,0.201-0.504
	c0-0.202,0.101-0.302,0.202-0.403l0,0l0,0c0.101-0.101,0.101-0.303,0.202-0.504c0.101-0.202,0.101-0.303,0.202-0.403
	c0.101-0.202,0.101-0.302,0.202-0.504c0.101-0.101,0.202-0.303,0.202-0.403c0.101-0.101,0.202-0.302,0.202-0.403
	c0.201-0.302,0.302-0.604,0.403-0.806c0.101-0.101,0.202-0.302,0.202-0.403l0,0c0.101-0.101,0.202-0.303,0.202-0.403
	c0.101-0.101,0.202-0.303,0.202-0.403l0,0c0.101-0.101,0.202-0.302,0.202-0.403c0.202-0.302,0.302-0.504,0.504-0.806
	c0.101-0.101,0.202-0.302,0.302-0.403c0.101-0.101,0.202-0.202,0.202-0.403c0.202-0.202,0.403-0.504,0.604-0.706
	s0.403-0.504,0.605-0.706c0.101-0.101,0.202-0.202,0.302-0.302c0.101-0.101,0.202-0.202,0.302-0.303
	c0.202-0.201,0.403-0.403,0.605-0.706c0.202-0.201,0.403-0.403,0.604-0.604s0.403-0.403,0.605-0.604
	c0.101-0.101,0.202-0.202,0.302-0.202c0.101-0.101,0.202-0.202,0.302-0.202c0.101-0.101,0.202-0.202,0.303-0.202
	c0.101-0.101,0.201-0.202,0.302-0.202c0.202-0.101,0.403-0.302,0.706-0.403c0.101-0.101,0.202-0.101,0.302-0.201l0,0
	c0.101-0.101,0.202-0.101,0.302-0.202c0.101-0.101,0.202-0.101,0.302-0.202c0.101-0.101,0.202-0.101,0.303-0.202
	c0.101,0,0.202-0.101,0.302-0.101s0.202-0.101,0.302-0.101c0.202-0.101,0.403-0.101,0.605-0.201
	c0.201-0.101,0.402-0.101,0.604-0.202c0.101,0,0.202-0.101,0.302-0.101c0.102,0,0.202-0.101,0.303-0.101
	c0.201,0,0.403-0.101,0.605-0.101c0.201,0,0.402,0,0.604,0c0.101,0,0.201,0,0.302,0c0.102,0,0.202,0,0.303,0
	c0.201,0,0.403,0.101,0.605,0.101c0.201,0,0.402,0.101,0.604,0.101c3.024,0.706,5.443,3.528,6.652,7.962
	c2.318,8.668-0.705,20.763-6.954,27.617c-0.202,0.302-0.504,0.604-0.706,0.806c-0.201,0.202-0.504,0.504-0.705,0.706
	c-3.225,2.923-6.551,3.83-9.374,3.023l0,0c-0.101,0-0.202,0-0.202-0.101l0,0c-0.101,0-0.201-0.101-0.302-0.101
	c-0.101,0-0.202-0.101-0.202-0.101c-0.101,0-0.202-0.101-0.202-0.101c-0.101,0-0.201-0.101-0.201-0.101
	c-0.101,0-0.202-0.101-0.202-0.101c-0.202-0.101-0.303-0.202-0.504-0.303c-0.202-0.101-0.303-0.201-0.504-0.403
	c-0.202-0.101-0.303-0.202-0.504-0.403c-0.101-0.202-0.302-0.302-0.403-0.403c-0.101-0.101-0.202-0.202-0.202-0.202
	c-0.101-0.101-0.202-0.202-0.202-0.202c-0.101-0.202-0.202-0.303-0.403-0.504c-0.101-0.101-0.101-0.202-0.201-0.303
	c-0.101-0.101-0.101-0.201-0.202-0.302c-0.101-0.202-0.202-0.403-0.303-0.604c-0.101-0.202-0.201-0.403-0.302-0.605
	c-0.101-0.202-0.202-0.403-0.302-0.706c0-0.101-0.101-0.202-0.101-0.302c-0.101-0.101-0.101-0.202-0.202-0.403
	c0-0.101-0.101-0.201-0.101-0.403c0-0.101-0.101-0.202-0.101-0.403c-0.101-0.202-0.202-0.504-0.202-0.806
	c-0.101-0.303-0.202-0.605-0.202-0.807c0-0.201-0.101-0.302-0.101-0.403c0-0.202-0.101-0.302-0.101-0.403
	c0-0.202,0-0.302-0.101-0.504c0-0.101,0-0.302-0.101-0.403c0-0.302-0.101-0.604-0.101-0.907c0-0.202,0-0.303,0-0.504
	c0-0.202,0-0.303,0-0.403C286.746,131.833,286.746,131.53,286.746,131.228z M142.617,251.571c0,8.869-3.326,17.033-8.87,23.282
	c-6.047,6.854-14.715,11.389-24.492,11.994c-0.706,0-1.411,0.101-2.217,0.101c-2.923,0-5.745-0.403-8.466-1.109
	c-9.777-2.419-17.94-8.97-22.678-17.638c-2.721-5.04-4.233-10.684-4.233-16.731c0.101-19.553,16.026-35.377,35.579-35.377
	S142.718,232.018,142.617,251.571z M394.691,286.343l-0.402,9.676c0,0-6.955-5.141-7.056-5.342
	C387.133,290.476,394.691,286.343,394.691,286.343z M456.879,161.062c3.83-2.016,9.071-4.334,15.925-6.148
	c15.824-4.233,33.765,0.202,33.765,0.202c-4.233-14.211-16.328-19.957-30.641-18.243c-9.877,1.109-20.259,7.156-25.097,15.018
	c1.109-5.745,3.125-12.397,6.451-18.344c7.962-14.312,16.73-20.158,16.73-20.158c-12.095-8.668-29.632,4.334-35.074,18.747
	c-0.907,2.318-1.512,4.535-1.915,6.854c-1.915-1.209-4.031-2.217-6.35-3.125c-14.413-5.644-35.78-1.31-37.394,13.405
	c0,0,10.181-2.621,26.104,1.108c5.04,1.109,9.878,3.125,14.111,5.342c-7.963-0.806-17.235,1.713-23.888,6.451
	c-11.691,8.265-17.033,20.561-10.684,33.966c0,0,10.482-15.219,25.097-22.577c3.931-2.016,7.56-3.427,10.684-4.435
	c0.604-2.117,1.714-4.133,3.023-5.443c2.722-2.721,5.645-2.217,6.955,1.008c-3.023,3.528-4.637,9.273-4.032,14.01
	c0,0.302,0.102,0.605,0.202,0.907c0.101,0.202,0.101,0.403,0.201,0.605c0.102,0.201,0.102,0.403,0.202,0.604
	c1.31,3.83,4.232,5.14,7.257,3.427c0.604-0.403,1.209-0.806,1.915-1.411c1.612-1.612,2.923-4.031,3.729-6.551
	c1.009-3.225,1.311-6.652,0.504-9.575c-0.402-1.311-0.906-2.419-1.612-3.226c1.411-2.016,3.931-2.116,6.249,0.202
	c2.419,2.419,3.931,6.753,3.629,10.482c2.52,1.915,5.14,4.233,7.962,6.955c11.591,11.591,16.731,29.33,16.731,29.33
	c10.18-10.684,9.07-24.089,0.504-35.579C480.867,164.992,467.059,158.24,456.879,161.062z M445.591,163.682
	c-0.807-0.604-1.613-1.31-2.218-2.016c0.907,0.706,1.814,1.31,2.52,1.814C445.691,163.48,445.591,163.582,445.591,163.682z
	 M439.342,327.162c0.101,0.908,2.62,5.141,3.326,5.746l-2.419,1.512l-4.334-0.907C436.016,333.513,438.838,329.078,439.342,327.162z
	 M411.927,300.151c-0.201,0.504,0,5.846,0,5.846s-3.527-1.915-3.628-2.017c-0.202-0.1-3.528-0.906-3.528-0.906
	s4.133-1.311,4.536-1.512C409.811,301.26,411.927,300.151,411.927,300.151z M425.231,308.215c0.504-0.102,4.535-1.412,4.535-1.412
	s-2.218,2.621-2.218,2.722c-0.101,0.202-1.713,3.83-1.713,3.83s-3.023-4.435-3.528-4.737
	C422.409,308.617,424.828,308.215,425.231,308.215z M425.13,325.449l0.504,6.652l-10.481-1.209c0,0,6.35-2.621,7.055-3.227
	C422.913,327.162,425.13,325.449,425.13,325.449z"></path>
<path id="color_x5F_2" fill="#FBC02D" d="M371.107,204.905c0-0.303-0.907-4.637,0-6.551c0.806-1.915,3.023-3.326,4.031-3.326
	c0.807,0,1.512-0.706,2.923-1.411c0.403-0.202,0.807-0.403,1.311-0.605c2.317-0.907,6.35,0.202,6.35,0.202s3.628-1.209,6.753,2.318
	c2.822,3.326,3.628,5.745,2.62,7.761c-0.101,0.101-0.101,0.302-0.201,0.403c-1.311,2.116-1.109,0.504-4.938,2.016
	c-0.202,0.101-0.403,0.101-0.605,0.202c-0.504-3.125-5.241-3.931-6.047-3.729c-0.807,0.202,1.512,1.512,1.512,2.218
	c0,0.604-3.125,2.318-7.257,2.52c-0.907,0-1.612,0-2.218,0c-0.101,0-0.201,0-0.302,0l0,0c-0.504,0-0.706,0-0.706,0
	C373.224,207.123,371.107,205.308,371.107,204.905z M323.131,238.367c0,0-1.209,3.931-2.016,5.241
	c-0.806,1.31-4.031,8.668-4.031,8.668s-0.403,0.504-1.008,1.209c-0.403,0.403-1.714,2.318-2.923,4.132
	c-0.807,1.108-1.512,2.217-1.814,2.822c-0.101,0.202-0.303,0.504-0.504,0.907c1.008,0.706,3.023,2.52,4.737,4.032l0,0l15.319-23.282
	c0,0-2.62-1.814-4.435-2.318C324.542,239.375,323.131,238.367,323.131,238.367z M305.493,271.527L305.493,271.527
	c0,0-0.101,0.101-0.302,0.302c-0.102,0.101-0.102,0.202-0.202,0.303c-0.706,1.008-2.116,2.822-2.62,3.83
	c-0.706,1.512-5.746,9.373-5.746,9.373s-3.225,7.156-3.83,8.567c-0.604,1.411-3.023,7.66-3.023,7.66l6.854-9.172l1.512-2.116
	l2.217-3.729l6.854-9.676l1.21-1.613c-0.201-0.201-0.303-0.201-0.303-0.201S306.702,273.341,305.493,271.527z M446.9,334.42
	c3.629,7.962,0,15.723,0,15.723l-4.031-6.45c0,0-0.907,10.583-4.031,13.808c-3.125,3.226-4.436,3.932-4.436,3.932l1.009-8.164
	c0,0-6.753,13.002-10.886,14.816c0,0,0.504-9.374-1.512-13.406c-0.303-0.705-0.604-1.209-0.807-1.713
	c-1.108-2.318-1.108-2.318-1.108-2.318s-2.318,4.233-5.039,8.266c-2.117,3.124-4.436,6.147-5.947,6.752c0,0,1.21-1.814,1.008-4.736
	c0-0.605-0.201-1.311-0.402-2.117c-1.21-4.133-2.218-9.07-2.218-9.07s-2.016,1.008-4.133,2.016c-2.62,1.209-5.342,2.418-5.039,1.814
	c0.201-0.504,1.108-1.613,1.915-3.125c1.008-1.814,2.116-4.031,2.318-6.249c0.302-4.032-0.202-7.156-0.202-7.156
	s-16.529-16.63-16.529-18.041l0.907-0.706l4.637,0.504c0,0,1.713-2.318,2.419-2.721c0.604-0.504,2.419-0.907,2.419-0.907
	s-11.591-9.374-15.22-13.204c-3.628-3.83-7.66-8.365-9.475-9.978c-1.813-1.613-10.684-5.04-10.684-5.04s6.35,1.411,10.482,2.117
	c4.031,0.706,4.838-2.621,4.938-3.326s0.202-7.962-2.62-10.684c-2.722-2.721-9.374-4.636-9.374-4.636s14.111-1.814,29.33,6.753
	c15.22,8.466,23.686,14.413,28.523,15.32s8.467,2.419,8.467,2.419S443.373,326.457,446.9,334.42z M394.691,286.343
	c0,0-7.559,4.132-7.458,4.333c0.101,0.202,7.056,5.342,7.056,5.342L394.691,286.343z M409.508,316.883c0,0-2.419,0.302-2.923,0.402
	c-0.403,0.102-4.838-0.201-4.838-0.201s2.822,1.915,2.923,2.016c0.101,0.201,2.722,3.225,2.722,3.225
	S409.307,317.285,409.508,316.883z M411.927,300.151c0,0-2.218,1.21-2.62,1.411c-0.403,0.201-4.536,1.512-4.536,1.512
	s3.326,0.807,3.528,0.906c0.201,0.102,3.628,2.017,3.628,2.017S411.826,300.555,411.927,300.151z M425.634,332.102l-0.504-6.652
	c0,0-2.217,1.713-2.923,2.318c-0.705,0.604-7.055,3.225-7.055,3.225L425.634,332.102z M429.867,306.703c0,0-4.132,1.41-4.535,1.41
	c-0.504,0-2.923,0.403-2.923,0.403c0.403,0.302,3.527,4.737,3.527,4.737s1.612-3.629,1.714-3.83
	C427.65,309.323,429.867,306.703,429.867,306.703z M442.668,332.908c-0.706-0.605-3.226-4.838-3.326-5.746
	c-0.605,2.017-3.427,6.351-3.427,6.351l4.334,0.907L442.668,332.908z M455.267,253.284c-1.512-5.745-2.722-11.49-3.729-17.134
	c-3.527-20.359-3.629-39.409-3.125-52.108c-3.023,1.713-5.946,0.403-7.257-3.427c-0.101-0.202-0.101-0.403-0.201-0.604
	s-0.101-0.403-0.201-0.605c-0.102-0.302-0.102-0.604-0.202-0.907c-0.201,0.101-0.403,0.303-0.604,0.403
	c-5.946,11.591-8.164,29.431-8.668,45.658c-0.403,12.195,0.101,23.484,0.504,30.539c0.604,8.366,4.737,15.018,13.506,15.018
	C458.995,270.015,456.072,256.308,455.267,253.284z M127.398,294.306l-1.209-2.117l-16.429,6.35
	c-0.302-4.132-0.403-8.063-0.403-11.691c-0.706,0-1.411,0.101-2.217,0.101c-2.923,0-5.745-0.403-8.466-1.008
	c-0.403,1.814-0.706,3.628-1.008,5.442l-13.506-6.45l-1.512,3.125l14.211,8.97c-0.101,1.411-0.303,2.822-0.403,4.233
	c-0.706,9.777-0.504,19.553-0.202,26.608c0.101,1.714,0.202,3.226,0.202,4.536c0.403,6.551,3.729,11.792,10.583,11.792
	c10.583,0,8.265-10.784,7.66-13.103c-1.108-4.133-2.016-8.266-2.721-12.297c-0.907-4.938-1.512-9.877-2.016-14.514l0.101-0.101
	L127.398,294.306z"></path>
<path id="color_x5F_1_1_" fill="#FD6322" d="M304.586,104.317l0.403,0.101c-0.202-0.101-0.403-0.101-0.604-0.101
	c-0.202,0-0.403-0.101-0.605-0.101c-0.201,0-0.402,0-0.604,0s-0.403,0-0.604,0s-0.403,0-0.605,0.101
	c-0.201,0-0.402,0.101-0.604,0.101c-0.202,0-0.404,0.101-0.605,0.202c-0.201,0.101-0.403,0.101-0.604,0.202
	c-0.202,0.101-0.403,0.201-0.605,0.201c-0.101,0.101-0.202,0.101-0.302,0.202c-0.101,0.101-0.202,0.101-0.302,0.202
	c-0.101,0.101-0.202,0.101-0.303,0.202c-0.101,0.101-0.202,0.101-0.302,0.202c-0.202,0.101-0.403,0.302-0.706,0.403
	c-0.202,0.202-0.403,0.303-0.604,0.403c-0.101,0.101-0.202,0.202-0.303,0.202c-0.101,0.101-0.201,0.202-0.302,0.202
	c-0.202,0.202-0.403,0.403-0.604,0.604s-0.403,0.403-0.605,0.605c-0.202,0.201-0.403,0.403-0.604,0.706
	c-0.202,0.202-0.403,0.403-0.605,0.706c-0.202,0.201-0.403,0.504-0.604,0.705c-0.202,0.202-0.403,0.504-0.605,0.706
	s-0.302,0.504-0.504,0.807c-0.202,0.202-0.302,0.504-0.504,0.806c-0.101,0.101-0.202,0.302-0.202,0.403
	c-0.101,0.101-0.202,0.302-0.202,0.403c-0.101,0.101-0.202,0.303-0.202,0.403c-0.101,0.101-0.201,0.302-0.201,0.403
	c-0.202,0.302-0.303,0.604-0.403,0.806c-0.101,0.202-0.202,0.302-0.202,0.403c-0.101,0.202-0.101,0.302-0.202,0.403
	c-0.101,0.302-0.202,0.604-0.403,0.907c-0.101,0.202-0.101,0.302-0.201,0.504l0,0c-0.101,0.101-0.101,0.302-0.202,0.403
	c-0.101,0.302-0.202,0.605-0.403,0.907c-0.101,0.302-0.202,0.604-0.302,0.907c-0.101,0.303-0.202,0.605-0.302,0.907
	c-0.101,0.303-0.202,0.706-0.202,1.008c-0.101,0.303-0.202,0.605-0.202,1.008c-0.101,0.303-0.202,0.605-0.202,1.008
	c-0.101,0.302-0.101,0.604-0.202,1.008c0,0.202-0.101,0.302-0.101,0.504s-0.101,0.302-0.101,0.504c0,0.302-0.101,0.706-0.101,1.008
	s-0.101,0.706-0.101,1.008c0,0.303-0.101,0.706-0.101,1.008c0,0.302,0,0.705,0,1.008c0,0.302,0,0.604,0,0.907
	c0,0.302,0,0.705,0,1.008c0,0.302,0,0.604,0,0.907c0,0.303,0,0.605,0.101,0.907c0,0.302,0.101,0.605,0.101,0.907
	s0.101,0.604,0.101,0.907c0.101,0.302,0.101,0.604,0.202,0.907c0.101,0.303,0.101,0.605,0.202,0.807
	c0.101,0.302,0.101,0.504,0.202,0.806c0.101,0.202,0.202,0.504,0.202,0.706c0.101,0.202,0.202,0.504,0.302,0.706
	c0.101,0.202,0.202,0.504,0.302,0.706c0.101,0.202,0.202,0.403,0.303,0.604c0.101,0.202,0.201,0.403,0.302,0.605
	c0.101,0.202,0.202,0.403,0.403,0.604c0.101,0.202,0.202,0.302,0.403,0.504s0.302,0.303,0.403,0.504
	c0.101,0.201,0.302,0.302,0.403,0.403c0.202,0.101,0.303,0.202,0.504,0.403c0.202,0.101,0.303,0.202,0.504,0.403
	c0.201,0.101,0.302,0.202,0.504,0.303c0.101,0,0.201,0.101,0.201,0.101c0.101,0.101,0.202,0.101,0.202,0.101
	c0.101,0.101,0.202,0.101,0.202,0.101c0.101,0,0.202,0.101,0.202,0.101c0.101,0,0.202,0.101,0.302,0.101
	c0.101,0,0.202,0.101,0.303,0.101l-3.125-0.806l-0.504-0.202l-0.504-0.202l-0.504-0.302l-0.504-0.302l-0.504-0.302l-0.403-0.403
	l-0.403-0.403l-0.403-0.504l-0.403-0.504l-0.403-0.504l-0.302-0.604l-0.303-0.706l-0.302-0.705l-0.302-0.706l-0.202-0.706
	l-0.202-0.807l-0.202-0.806l-0.201-0.907l-0.202-0.907l-0.101-0.907l-0.101-0.907v-0.907v-0.907v-1.008l0.101-1.008l0.101-1.008
	l0.101-1.008l0.101-1.008l0.201-1.008l0.202-1.008l0.202-1.008l0.202-1.008l0.302-1.008l0.302-0.907l0.303-0.907l0.302-0.907
	l0.403-0.907l0.403-0.907l0.403-0.907l0.504-0.907l0.504-0.807l0.504-0.806l0.504-0.806l0.504-0.706l0.504-0.706l0.605-0.706
	l0.604-0.706l0.605-0.706l0.604-0.604l0.706-0.504l0.605-0.504l0.604-0.504l0.605-0.403l0.604-0.403l0.605-0.302l0.604-0.202
	l0.605-0.202l0.604-0.202l0.605-0.101l0.605-0.101h0.604h0.604l0.604,0.101l0.605,0.101L304.586,104.317z M234.94,416.966
	l-0.101,0.303l-0.201,0.303l-0.202,0.201c0,0,0,0.101-0.101,0.101l-0.201,0.303l-0.303,0.303l-0.302,0.302l-0.403,0.303
	l-0.403,0.302l-0.202,0.202l-0.202,0.101l-0.202,0.101l-0.302,0.101l-0.302,0.102l-0.303,0.101l-0.403,0.201l-0.302,0.102
	l-0.303,0.101l-0.302,0.101l-0.302,0.101h-0.303h-0.302h-0.302h-0.302h-0.302h-0.303h-0.302h-0.101h-0.303h-0.302h-0.302
	l-0.302-0.101l-0.303-0.101l-0.302-0.101l-0.302-0.102l-0.303-0.101l-0.302-0.101l-0.202-0.101h-0.101l-0.202-0.102l-0.202-0.101
	c-0.101,0-0.101-0.101-0.201-0.101h-0.101l-0.202-0.201c-0.202-0.202-0.604-0.303-0.907-0.504l-0.201-0.102l-0.202-0.101
	c-0.101,0-0.202-0.101-0.302-0.101l-0.303-0.101l-0.403-0.202c-1.814-0.806-4.233-1.612-6.148-2.318l-0.202-0.101l-0.504-0.201
	l-0.202-0.101c-0.101-0.102-0.302-0.102-0.403-0.202l-0.202-0.101l-0.202-0.101c-0.202-0.101-0.302-0.101-0.403-0.202l0,0
	l-0.302-0.201l-0.302-0.201l-0.202-0.202l0,0c-0.202-0.101-0.302-0.201-0.403-0.303l0,0l-0.101-0.101
	c0-0.101-0.101-0.201-0.101-0.403v-0.201v4.938v0.303l0.101,0.302l0.101,0.102l0.101,0.101l0.202,0.101l0.202,0.201l0.201,0.202
	l0.303,0.201l0.302,0.202l0.302,0.201l0.403,0.202l0.403,0.201l0.403,0.201l0.504,0.202l0.403,0.201l0.504,0.202l0.504,0.201
	l0.504,0.202l0.504,0.201l0.504,0.202l0.504,0.201l0.504,0.201l0.504,0.202l0.504,0.201l0.504,0.202l0.504,0.201l0.403,0.201
	l0.403,0.202l0.403,0.201l0.403,0.202l0.303,0.201l0.302,0.202l0.302,0.201l0.202,0.202l0.202,0.201l0.202,0.101l0.202,0.101
	l0.302,0.102l0.202,0.101l0.302,0.101l0.302,0.101l0.302,0.101l0.303,0.102l0.302,0.101h0.302l0.302,0.101h0.303h0.302h0.302h0.302
	h0.303h0.302h0.302h0.302h0.303l0.302-0.101l0.302-0.101l0.303-0.102l0.302-0.101l0.302-0.101l0.302-0.101l0.303-0.101l0.302-0.102
	l0.202-0.101l0.201-0.101l0.202-0.201l0.403-0.303l0.403-0.303l0.302-0.302l0.302-0.303l0.202-0.303l0.202-0.302l0.202-0.303
	l0.101-0.302l0.101-0.303v-0.303v-4.938l0,0C235.041,416.563,234.94,416.765,234.94,416.966z M151.89,328.372
	c-0.504-0.101-1.612,0.504-2.923,1.513c-0.202,0.201-0.504,0.302-0.706,0.504c-0.202,0.201-0.504,0.302-0.706,0.504
	c-0.201,0.1-0.302,0.302-0.504,0.402c-2.721,2.117-5.846,4.838-8.466,6.753c-0.101,0.101-0.202,0.202-0.403,0.303
	c-0.303,0.201-0.605,0.403-0.907,0.604c-0.202,0.102-0.302,0.201-0.504,0.303l0,0l0,0c-0.302,0.201-0.504,0.303-0.807,0.504
	c-0.201,0.101-0.302,0.201-0.504,0.201c-0.201,0.102-0.403,0.201-0.604,0.303c-0.101,0.101-0.202,0.101-0.302,0.201
	c-0.706,0.403-1.311,1.008-1.915,1.613l0,0c-0.101,0.101-0.202,0.302-0.403,0.402c-0.202,0.202-0.302,0.403-0.504,0.605
	c-0.101,0.101-0.101,0.201-0.202,0.302c-0.302,0.403-0.504,0.807-0.806,1.108c-0.101,0.102-0.101,0.202-0.202,0.303
	c-0.101,0.201-0.302,0.403-0.403,0.705c-0.101,0.102-0.101,0.202-0.201,0.303c-0.101,0.201-0.202,0.303-0.202,0.504
	c-0.101,0.102-0.101,0.201-0.202,0.403c-0.101,0.302-0.302,0.604-0.403,0.907c-0.101,0.403-0.302,0.705-0.403,1.109
	c-0.202,0.604-0.303,1.107-0.403,1.611c0,0.202,0,0.303-0.101,0.404c0,0.302-0.101,0.705-0.101,1.008c0,0.201,0,0.302,0,0.504
	c0.101,1.512,0.403,2.822,0.907,3.83c0.101,0.201,0.202,0.302,0.302,0.402c0.202,0.303,0.403,0.504,0.605,0.706
	c0.101,0.101,0.302,0.302,0.504,0.403c0,0,0.101,0,0.101,0.101c0.907,0.504,1.915,0.504,3.225-0.101
	c5.241-2.621,5.443-3.226,10.079-3.729c1.915-0.202,4.636-0.807,6.551-2.62c3.427-3.125,1.209-8.668,3.931-13.405
	C157.231,333.21,153.906,328.775,151.89,328.372z M145.54,299.446c0.706-1.915,1.008-4.032,1.008-6.249
	c0-8.366-5.342-15.623-12.699-18.444c-6.047,6.954-14.715,11.49-24.492,12.095c0,3.628,0.101,7.559,0.403,11.691l16.429-6.35
	l1.209,2.117l-17.034,9.877c2.822,4.233,7.257,7.358,12.498,8.466c1.311,0.303,2.621,0.404,3.931,0.404
	C135.562,312.951,142.919,307.307,145.54,299.446z M75.995,268.201C68.839,271.124,63.8,278.28,63.8,286.444
	c0,10.885,8.87,19.755,19.755,19.755c5.039,0,9.575-1.916,13.103-4.939c0.101-1.411,0.202-2.822,0.403-4.233l-14.211-8.97
	l1.512-3.125l13.506,6.45c0.302-1.915,0.604-3.729,1.008-5.442C88.896,283.42,80.732,276.97,75.995,268.201z M176.482,240.988
	l127.499-73.677v94.138l-12.8,7.458c-6.854,0.907-7.862-4.132-7.862-4.132s-0.907,3.427,2.217,7.358l-7.559,4.334
	c0.302-0.504,0.403-1.109,0.403-1.714c-0.303-3.326-8.063-6.551-8.063-6.551s3.729,3.125,0,5.947
	c-2.822,2.117-8.769,5.04-10.684,13.002l-83.252,48.379v-94.541H176.482z M200.269,237.259c0,0.201,0,0.302,0.202,0.403l6.854,2.117
	l26.709,16.933l-16.832,32.757l-6.148,8.869c-0.101,0.101-0.101,0.302,0.101,0.403c0.201,0.101,0.302,0.101,0.403-0.101l6.451-9.272
	l33.361-37.191l-3.628,14.312l-15.119,24.291c-0.101,0.101,0,0.302,0.101,0.403c0.202,0.101,0.302,0.101,0.403-0.101L247.438,268
	l15.32-17.134l-1.008-2.621l3.023-3.729l5.141,9.272c0.101,0.101,0.201,0.202,0.403,0.101c0.101-0.101,0.202-0.202,0.101-0.403
	l-9.877-17.538c0-0.101-0.101-0.101-0.101-0.101l10.785-24.895l11.289-18.142c0.101-0.101,0-0.303-0.101-0.403
	c-0.101-0.101-0.302-0.101-0.403,0.101l-11.692,18.949l-15.622,20.057l-1.209-6.854l4.535-7.357
	c0.101-0.202,0.101-0.302-0.101-0.403c-0.101-0.101-0.302,0-0.403,0.101l-11.288,17.84l-6.047,8.769l-32.455-4.435l-7.055-2.116
	C200.47,237.057,200.37,237.158,200.269,237.259z M459.097,163.48c-2.318-2.318-4.737-2.217-6.249-0.201
	c0.705,0.806,1.209,1.814,1.612,3.225c0.807,2.822,0.504,6.35-0.504,9.575c0.303,0.504,0.604,0.907,1.008,1.311
	c0.101,0.101,0.201,0.202,0.303,0.403c0.101,0.101,0.201,0.201,0.302,0.302c2.822,2.52,5.846,1.612,6.854-2.117
	c0.202-0.604,0.303-1.209,0.303-1.915C463.027,170.334,461.516,165.899,459.097,163.48z M437.729,163.48
	c-1.411,1.411-2.419,3.326-3.023,5.443c-0.705,2.318-0.807,4.838-0.303,6.854c0.907,3.225,3.226,4.334,5.645,3.024
	c0.202-0.101,0.403-0.202,0.604-0.403c-0.604-4.737,1.009-10.482,4.032-14.01C443.373,161.364,440.45,160.759,437.729,163.48z
	 M372.519,395.498l-0.102,0.101l-0.101,0.101l-0.101,0.102c-0.101,0.101-0.202,0.101-0.303,0.201l0,0l-0.201,0.202l-0.303,0.201
	l-0.302,0.201h-0.102c-0.101,0.102-0.302,0.102-0.402,0.202l-0.202,0.101l-0.201,0.101c-0.101,0.101-0.303,0.101-0.403,0.202
	l-0.202,0.101l-0.201,0.101c-2.419,1.008-5.543,2.016-7.56,3.023l-0.201,0.102l-0.201,0.101c-0.403,0.201-0.706,0.403-0.907,0.504
	l-0.202,0.201l-0.201,0.102c-0.101,0-0.202,0.101-0.303,0.101l0,0l-0.201,0.101l-0.303,0.101l-0.302,0.101l-0.303,0.102l0,0
	l-0.303,0.101l-0.302,0.101l-0.303,0.101h-0.201H357.5l-0.302,0.101h-0.303h-0.302h-0.102h-0.302h-0.403h-0.303
	c-0.101,0-0.101,0-0.201,0h-0.202h-0.302h-0.303h-0.302l-0.303-0.101l-0.303-0.101l-0.302-0.101l-0.303-0.101l-0.302-0.102
	l-0.303-0.101l-0.303-0.101l-0.201-0.101l-0.303-0.101l-0.201-0.102l-0.202-0.201c-0.201-0.101-0.402-0.202-0.504-0.403
	l-0.302-0.201l-0.303-0.303l-0.302-0.303l0,0l0,0v-0.101c-0.102-0.101-0.202-0.201-0.202-0.302l-0.201-0.303l-0.102-0.101
	c-0.201-0.403-0.302-0.807-0.302-1.109l0,0v4.939v0.302l0.101,0.303l0.101,0.302l0.202,0.303l0.201,0.303l0.202,0.302l0.302,0.303
	l0.303,0.303l0.403,0.302l0.402,0.303l0.202,0.101l0.201,0.201l0.303,0.102l0.201,0.101l0.303,0.101l0.303,0.101l0.302,0.101
	l0.303,0.102l0.302,0.101l0.303,0.101h0.303l0.302,0.101h0.303h0.302h0.303h0.303h0.302h0.303h0.303h0.302l0.303-0.101h0.302
	l0.303-0.101l0.303-0.101l0.302-0.102l0.303-0.101l0.302-0.101l0.303-0.101l0.201-0.101l0.202-0.102l0.201-0.101l0.202-0.201
	l0.201-0.202l0.303-0.201l0.302-0.202l0.303-0.201l0.403-0.201l0.403-0.202l0.403-0.201l0.402-0.202l0.504-0.201l0.504-0.202
	l0.504-0.201l0.504-0.201l0.505-0.202l0.504-0.201l0.504-0.202l0.504-0.201l0.504-0.202l0.504-0.201l0.504-0.201l0.504-0.202
	l0.403-0.201l0.402-0.202l0.403-0.201l0.403-0.202l0.303-0.201l0.302-0.201l0.303-0.202l0.201-0.201l0.202-0.202l0.201-0.101
	l0.102-0.101l0.101-0.101l0.101-0.303v-0.303v-4.938v0.202C372.519,395.195,372.519,395.397,372.519,395.498z M398.421,260.944
	l-5.442-6.551c0,0-0.101-0.201-0.202-0.504c-0.806-2.52-4.435-13.103-6.047-15.018c-1.714-2.016-4.334-2.822-5.946-2.923
	c-0.102,0-0.303,0-0.403,0c-1.512,0.101-2.117,0.706-2.117,0.706s0.605-1.411-3.023-2.721c-1.612-0.605-3.527-0.706-5.342-0.504
	c-2.52,0.201-4.938,1.008-6.45,1.814c-2.52,1.512-6.35,6.854-6.35,8.668c0,0,0.101,0.907,0.302,2.217
	c0.504,4.032,2.016,12.196,4.536,13.606c0,0-1.008-6.35,0-7.055c0,0,2.419,3.125,2.62,6.249c0.101,2.923-0.504,3.83-0.504,3.931
	c0.101-0.201,3.931-5.644,4.031-8.769c0.102-3.225-1.008-4.536,0-5.442c1.008-0.907,5.342,2.116,4.233,5.442
	s-1.612,3.931-1.612,3.931l1.814-1.814c0,0,6.954,8.97,11.591,8.769c0,0-4.939-4.233-4.032-7.962c0,0,8.265,8.265,12.498,7.055
	c0,0-4.133-2.62-5.141-9.575c0,0,3.629,2.721,5.745,4.032c2.117,1.209,6.148,3.729,6.148,3.729l-0.807-1.008L398.421,260.944z"></path>
</svg>
