<svg version="1.1" id="color_x5F_1" xmlns="http://www.w3.org/2000/svg" xmlns:xlink="http://www.w3.org/1999/xlink" x="0px" y="0px" width="600px" height="600px" viewBox="0 0 600 600" enable-background="new 0 0 600 600" xml:space="preserve">
<path id="color_x5F_11" fill="#FF601A" d="M211.96,242.097c0.101,0,0.202,0.101,0.302,0.101c-1.814-0.706-4.032-0.504-6.35,0.806
	c-2.016,1.109-3.83,3.024-5.443,5.14c-1.915-7.962-8.063-11.086-15.219-6.954c-8.164,4.737-14.917,17.134-15.824,28.624
	c-3.427,2.52-6.148,7.257-7.257,12.196c-0.403,0.101-0.806,0.302-1.311,0.604c-3.326,1.915-5.946,7.055-5.946,11.591
	c0,2.217,0.706,3.931,1.713,4.737l-9.374-5.443l-0.202-0.202l-0.201-0.202l-0.202-0.201l-0.202-0.202l-0.202-0.202l-0.101-0.302
	l-0.101-0.302l-0.101-0.303l-0.101-0.302l-0.101-0.302l-0.101-0.302l-0.101-0.403l-0.101-0.403v-0.403v-0.403v-0.403v-0.403v-0.403
	v-0.403l0.101-0.403l0.101-0.403l0.101-0.403l0.101-0.403l0.101-0.403l0.101-0.403l0.101-0.403l0.101-0.403l0.202-0.403l0.202-0.403
	l0.202-0.403l0.201-0.403l0.202-0.403l0.202-0.403l0.202-0.403l0.202-0.403l0.201-0.403l0.202-0.403l0.303-0.403l0.201-0.302
	l0.303-0.303l0.302-0.302l0.302-0.302l0.302-0.302l0.303-0.202l0.302-0.202l0.302-0.202l0.302-0.202l0.303-0.202h0.101l0.101-0.101
	l0.101-0.101h0.101l0.101-0.101h0.101l0.101-0.101h0.101h0.101h0.101l0.101-0.101h0.101h0.101h0.101h0.101h0.101l0.101-0.504
	l0.101-0.504l0.101-0.403l0.101-0.504l0.101-0.504l0.202-0.403l0.201-0.403l0.202-0.504l0.202-0.403l0.202-0.403l0.202-0.403
	l0.202-0.403l0.201-0.403l0.202-0.403l0.202-0.403l0.202-0.403l0.202-0.403l0.201-0.403l0.202-0.403l0.303-0.403l0.201-0.403
	l0.303-0.403l0.302-0.403l0.302-0.302l0.302-0.302l0.303-0.303l0.302-0.302l0.302-0.302l0.302-0.302l0.303-0.303l0.302-0.201
	l0.302-0.202l0.101-1.109l0.101-1.108l0.202-1.109l0.202-1.109l0.202-1.108l0.302-1.109l0.302-1.108l0.302-1.109l0.303-1.109
	l0.403-1.108l0.403-1.008l0.403-1.008l0.403-1.008l0.504-1.008l0.504-1.008l0.504-1.008l0.504-0.907l0.604-0.907l0.605-0.907
	l0.604-0.907l0.605-0.806l0.604-0.807l0.706-0.806l0.706-0.806l0.706-0.706l0.706-0.706l0.706-0.706l0.706-0.605l0.706-0.604
	l0.705-0.504l0.807-0.504l0.806-0.504l0.706-0.403l0.706-0.303l0.706-0.302l0.706-0.202l0.706-0.201l0.604-0.202l0.605-0.101
	l0.604-0.101l0.605-0.101h0.604h0.605l0.604,0.101l0.504,0.101l0.504,0.101l0.504,0.202l8.869,5.14l0,0l0.202-0.202l0.202-0.202
	l0.202-0.202l0.202-0.101l0.201-0.101l0.202-0.202l0.202-0.101l0.202-0.101l0.202-0.101l0.201-0.101l0.202-0.101l0.202-0.101
	l0.202-0.101l0.202-0.101l0.202-0.101l0.604-0.302l0.504-0.303l0.504-0.201l0.504-0.202l0.504-0.101l0.504-0.101l0.504-0.101h0.504
	h0.504l0.504,0.101l0.504,0.101l0.403,0.101L211.96,242.097z M468.873,199.966l-7.66-4.435l-0.403-0.101l-0.403-0.101l-0.402-0.101
	h-0.403h-0.403h-0.403l-0.403,0.101l-0.403,0.101l-0.402,0.202l-0.505,0.202l-0.402,0.202l-0.504,0.202l-0.202,0.101l-0.101,0.101
	l-0.201,0.101l-0.102,0.101l-0.201,0.101l-0.101,0.101l-0.202,0.101l-0.101,0.101l-0.201,0.101l-0.102,0.101l-0.101,0.101
	l-0.201,0.101l-0.101,0.101l-0.102,0.101l-0.201,0.101v0.101l-7.257-4.233l-0.403-0.101l-0.504-0.101l-0.403-0.101l-0.504-0.101
	h-0.504h-0.504l-0.504,0.101l-0.504,0.101l-0.504,0.101l-0.504,0.101l-0.504,0.202l-0.504,0.202l-0.504,0.202l-0.504,0.302
	l-0.504,0.302l-0.605,0.403l-0.604,0.403l-0.604,0.403l-0.604,0.504l-0.605,0.504l-0.604,0.504l-0.604,0.605l-0.504,0.604
	l-0.504,0.605l-0.504,0.706l-0.504,0.706l-0.706,0.806l-0.504,0.706l-0.504,0.706l-0.403,0.806l-0.504,0.806l-0.402,0.807
	l-0.403,0.806l-0.403,0.806l-0.403,0.807l-0.303,0.806l-0.302,0.907l-0.303,0.806l-0.302,0.907l-0.202,0.907l-0.201,0.907
	l-0.202,0.907l-0.201,0.907l-0.202,0.907l-0.101,0.907l-0.101,0.907l-0.101,0.907l-0.202,0.202l-0.201,0.202l-0.303,0.201
	l-0.201,0.202l-0.202,0.202l-0.201,0.302l-0.201,0.202l-0.202,0.302l-0.201,0.303l-0.202,0.302l-0.201,0.302l-0.201,0.302
	l-0.202,0.303l-0.201,0.302l-0.202,0.302l-0.201,0.302l-0.202,0.303l-0.201,0.302l-0.202,0.403l-0.201,0.302l-0.201,0.403
	l-0.102,0.403l-0.201,0.403l-0.101,0.403l-0.101,0.403l-0.102,0.403l-0.101,0.403l-0.101,0.403l-0.101,0.403l-0.102,0.403
	l-0.101,0.403l-0.101,0.403h-0.101h-0.101h-0.102h-0.101h-0.101h-0.101h-0.101h-0.102h-0.101h-0.101l-0.101,0.101h-0.102h-0.101
	h-0.101l-0.101,0.101h-0.101l-0.202,0.201l-0.201,0.202l-0.202,0.202l-0.201,0.202l-0.202,0.202l-0.201,0.201l-0.201,0.202
	l-0.202,0.303l-0.201,0.201l-0.202,0.303l-0.201,0.302l-0.202,0.302l-0.201,0.302l-0.201,0.303l-0.202,0.302l-0.201,0.302
	l-0.202,0.303l-0.101,0.302l-0.201,0.302l-0.102,0.302l-0.101,0.403l-0.101,0.403l-0.101,0.403l-0.101,0.303l-0.102,0.403
	l-0.101,0.403l-0.101,0.403l-0.101,0.403l-0.101,0.403v0.403v0.403v0.403v0.302v0.302v0.302l0.101,0.303l0.101,0.302l0.101,0.302
	l0.101,0.303l0.102,0.201l0.101,0.202l0.101,0.202l0.101,0.202l0.101,0.202l0.102,0.201l0.201,0.202l0.101,0.101l0.202,0.202
	l7.559,4.333c-0.806-0.705-1.411-2.016-1.411-3.83c0-3.729,2.218-7.962,4.838-9.474c0.403-0.202,0.706-0.403,1.109-0.504
	c0.907-4.031,3.225-7.962,5.946-9.978c0.706-9.374,6.148-19.553,12.901-23.383c5.946-3.427,10.885-0.806,12.498,5.645
	c1.31-1.814,2.821-3.326,4.435-4.233c2.116-1.209,4.132-1.31,5.644-0.504C469.276,200.168,469.074,200.067,468.873,199.966z
	 M206.82,98.169l-0.303-0.101h-0.302h-0.302h-0.302h-0.303l-0.302,0.101l-0.302,0.101l-0.302,0.101l-0.303,0.101l-0.302,0.202
	l-0.202,0.101l-0.101,0.101l-0.101,0.101l-0.101,0.101l-0.101,0.101l-0.101,0.101l-0.101,0.101l-0.101,0.101l-0.101,0.101
	l-0.101,0.101l-0.101,0.101l-0.101,0.101l-0.101,0.101l-0.101,0.101l-0.101,0.101l-0.101,0.101l0,0l-5.141-2.923l-0.302-0.101
	l-0.302-0.101l-0.302-0.101h-0.303h-0.302h-0.302h-0.403l-0.403,0.101l-0.403,0.101l-0.403,0.101l-0.403,0.101l-0.403,0.101
	l-0.403,0.201l-0.403,0.202l-0.403,0.202l-0.403,0.302l-0.403,0.302l-0.403,0.303l-0.403,0.403l-0.403,0.403l-0.403,0.403
	l-0.403,0.403l-0.403,0.403l-0.403,0.403l-0.403,0.504l-0.403,0.504l-0.403,0.504l-0.403,0.504l-0.303,0.504l-0.302,0.504
	l-0.302,0.504l-0.302,0.504l-0.303,0.605l-0.302,0.605l-0.202,0.604l-0.202,0.604l-0.201,0.605l-0.202,0.605l-0.202,0.604
	l-0.202,0.604l-0.202,0.605l-0.101,0.605l-0.101,0.604l-0.101,0.604l-0.101,0.605l-0.101,0.605l-0.101,0.604l-0.202,0.101
	l-0.202,0.101l-0.202,0.202l-0.202,0.201l-0.202,0.202l-0.201,0.202l-0.202,0.202l-0.202,0.202l-0.202,0.202l-0.101,0.201
	l-0.202,0.202l-0.202,0.202l-0.101,0.202l-0.101,0.202l-0.202,0.202l-0.101,0.201l-0.101,0.202l-0.101,0.202l-0.101,0.202
	l-0.101,0.202l-0.101,0.201l-0.101,0.202l-0.101,0.303l-0.101,0.202l-0.101,0.201l-0.101,0.303l-0.101,0.201l-0.101,0.303
	l-0.101,0.201l-0.101,0.303l-0.101,0.302l-0.101,0.202h-0.101h-0.101l0,0h-0.101h-0.101l0,0h-0.101h-0.101h-0.101l0,0h-0.101h-0.101
	h-0.101h-0.101l0,0h-0.101l-0.202,0.101l-0.202,0.101l-0.202,0.101l-0.201,0.101l-0.202,0.201l-0.202,0.101l-0.101,0.202
	l-0.202,0.201l-0.202,0.202l-0.101,0.202l-0.101,0.202l-0.101,0.202l-0.101,0.201l0.706,0.504l-0.101,0.202l-0.101,0.201
	l-0.101,0.202l-0.101,0.202l-0.101,0.202l-0.101,0.202l-0.101,0.202l-0.101,0.202l-0.101,0.201l-0.101,0.202l-0.101,0.202
	l-0.101,0.202l-0.101,0.302v0.202v0.202v0.201v0.202v0.202v0.202v0.202v0.202v0.202v0.201l0.101,0.202l0.101,0.202l0.101,0.202
	l0.101,0.202l0.101,0.101l0.101,0.202l0.101,0.101l0.101,0.101l0.101,0.101l0.101,0.101l0.101,0.101l5.342,3.125
	c0.604,0.504,1.512,0.504,2.419,0c-1.915,1.108-3.427-0.101-3.427-2.721s1.512-5.645,3.427-6.652
	c0.302-0.101,0.504-0.202,0.806-0.302c0.605-2.822,2.217-5.543,4.132-7.055c0.504-6.652,4.435-13.808,9.071-16.53
	c4.132-2.419,7.66-0.604,8.869,4.032c0.907-1.31,2.016-2.318,3.125-3.024c1.311-0.705,2.52-0.907,3.528-0.604l-5.342-3.125
	L206.82,98.169z M348.43,313.254l3.729,21.871c0.102,0.403-0.201,0.807-0.705,0.907l0,0c-0.303,0-0.604-0.101-0.706-0.302
	l-13.908,8.063V326.86l13.506,7.862l-3.83-22.578l-10.079-59.163l0,0l0,0c-0.101,0.101-0.303,0.302-0.504,0.403
	c-0.101,0.101-0.202,0.202-0.303,0.202l-0.101,0.101c-0.201,0.201-0.403,0.302-0.604,0.504l-0.101,0.101
	c-0.102,0-0.102,0.101-0.202,0.101c-0.303,0.202-0.604,0.504-0.907,0.706c-0.101,0.101-0.201,0.101-0.302,0.202l0,0
	c-0.403,0.202-0.706,0.504-1.109,0.706c-6.651,3.83-15.319,5.745-23.987,5.745h0.101l-0.504,38.098l-0.403,33.563l-0.201,14.412
	c-0.605-0.504-1.21-1.108-1.612-1.814l0.201-12.296l0.403-34.772l0.504-37.292c-8.265-0.201-16.429-2.217-22.678-5.846
	c-0.403-0.202-0.806-0.504-1.209-0.706c-0.101,0-0.101-0.101-0.201-0.101c-0.807-0.504-1.512-1.109-2.117-1.713c0,0,0,0-0.101-0.101
	c-1.612-1.411-2.822-3.023-3.729-4.737c0.101,0.101,0.101,0.302,0.202,0.403l0,0l-14.715,85.772l13.708-7.861v16.933l-13.909-8.063
	c-0.101,0.303-0.403,0.403-0.706,0.403c-0.101,0-0.101,0-0.202,0c-0.403-0.101-0.706-0.504-0.706-0.907l15.219-88.695l0,0
	c0,0.101,0.101,0.202,0.101,0.303c-1.109-2.621-1.814-5.543-2.52-8.567c0,0,0,0,0-0.101l0,0l0.202,0.101
	c0.706,0.403,1.512,0.806,2.318,1.209c19.25,9.877,48.48,9.575,66.824-0.907l0,0c-0.102,0.504-0.202,0.907-0.303,1.311l0,0
	c-0.101,0.403-0.201,0.806-0.303,1.209c0,0.101-0.101,0.302-0.101,0.403c-0.101,0.202-0.101,0.504-0.201,0.706
	c0,0.202-0.102,0.303-0.102,0.504c-0.101,0.201-0.101,0.403-0.201,0.604c-0.101,0.302-0.201,0.604-0.303,0.907
	c0,0.202-0.101,0.302-0.101,0.504c-0.101,0.202-0.101,0.403-0.201,0.604c0,0.101-0.101,0.303-0.101,0.403
	c-0.102,0.403-0.303,0.806-0.403,1.209c0,0.101-0.101,0.202-0.101,0.302c-0.102,0.202-0.202,0.403-0.303,0.605
	c-0.101,0.101-0.101,0.202-0.202,0.302c-0.101,0.202-0.201,0.403-0.302,0.605c0,0.101-0.101,0.201-0.101,0.201
	c-0.202,0.403-0.403,0.706-0.605,1.008c0,0,0,0.101-0.101,0.101c0,0.101-0.101,0.101-0.101,0.202c0,0,0,0.101-0.101,0.101
	c-0.101,0.202-0.202,0.302-0.403,0.504c-0.101,0.101-0.201,0.303-0.303,0.403c-0.101,0.101-0.201,0.202-0.302,0.302
	c0.101-0.101,0.101-0.101,0.201-0.202L348.43,313.254z M337.544,251.873c-0.101,0.101-0.101,0.101-0.201,0.202
	c-0.101,0.101-0.202,0.202-0.303,0.302l0,0c0,0,0,0,0.101-0.101C337.242,252.276,337.343,252.075,337.544,251.873z M305.594,360.928
	v0.402c0,0.403,0.403,0.807,0.807,0.807c0.101,0,0.101,0,0.201,0c0.403-0.101,0.706-0.403,0.706-0.807v-0.402v-4.032
	c-0.605-0.604-1.109-1.31-1.612-1.915L305.594,360.928z M337.343,384.512l-0.303,0.202l-3.427,2.52c0,3.023,7.156,3.628,9.071,3.023
	s4.435-2.52,4.435-2.52l-1.209-2.722L337.343,384.512z M457.282,411.624c-0.101,0.403-0.202,0.807-0.303,1.21
	s-0.201,0.807-0.403,1.311c-0.201,0.402-0.302,0.806-0.504,1.209c-0.201,0.403-0.402,0.807-0.604,1.21
	c-0.201,0.402-0.403,0.806-0.705,1.209c-0.202,0.403-0.504,0.807-0.807,1.21c-0.303,0.402-0.604,0.806-0.907,1.209
	s-0.705,0.807-1.008,1.21c-0.403,0.403-0.705,0.806-1.108,1.108c-0.403,0.403-0.807,0.807-1.21,1.108
	c-0.403,0.403-0.907,0.706-1.31,1.109c-0.403,0.402-0.907,0.705-1.411,1.108s-1.008,0.705-1.513,1.008
	c-0.504,0.403-1.108,0.705-1.612,1.008c-0.604,0.303-1.108,0.706-1.713,0.907c-0.303,0.101-0.605,0.303-0.907,0.403
	c-0.303,0.201-0.605,0.302-0.907,0.403c-0.604,0.302-1.21,0.604-1.814,0.806c-0.604,0.202-1.209,0.504-1.915,0.807
	c-0.705,0.201-1.311,0.504-2.016,0.705c-0.706,0.202-1.311,0.403-2.016,0.605c-0.303,0.101-0.706,0.201-1.008,0.302l0,0
	c-0.303,0.101-0.706,0.202-1.008,0.303c-0.706,0.201-1.411,0.403-2.117,0.504c-0.705,0.201-1.411,0.302-2.116,0.504
	c-0.706,0.101-1.411,0.303-2.117,0.403c-0.705,0.101-1.41,0.201-2.116,0.302c-0.705,0.102-1.411,0.202-2.218,0.303
	c-0.705,0.101-1.41,0.201-2.217,0.201c-0.706,0.102-1.512,0.102-2.218,0.202c-0.705,0.101-1.512,0.101-2.217,0.101
	c-0.706,0-1.512,0-2.218,0c-0.705,0-1.512,0-2.217,0c-0.706,0-1.513-0.101-2.218-0.101c-0.706,0-1.512-0.101-2.218-0.101
	c-0.403,0-0.705-0.102-1.108-0.102s-0.705-0.101-1.108-0.101c-0.706-0.101-1.411-0.201-2.218-0.302
	c-0.705-0.102-1.411-0.202-2.116-0.303c-0.706-0.101-1.411-0.201-2.117-0.403c-0.705-0.101-1.411-0.302-2.116-0.504
	c-0.706-0.201-1.411-0.303-2.116-0.504c-0.706-0.201-1.411-0.403-2.017-0.604c-0.705-0.202-1.31-0.403-2.016-0.604
	c-0.705-0.202-1.31-0.403-1.915-0.706c-0.604-0.201-1.209-0.504-1.915-0.807c-0.705-0.302-1.209-0.504-1.813-0.806
	c-0.605-0.303-1.21-0.605-1.814-0.907c-0.604-0.303-1.21-0.604-1.714-0.907s-1.108-0.604-1.612-0.907
	c-0.504-0.302-1.008-0.705-1.512-1.008s-0.907-0.705-1.411-1.008c-0.403-0.403-0.907-0.706-1.311-1.108
	c-0.403-0.403-0.806-0.706-1.209-1.109c-0.403-0.402-0.706-0.705-1.109-1.108c-0.302-0.403-0.705-0.705-1.008-1.108
	c-0.302-0.403-0.604-0.807-0.907-1.109c-0.302-0.402-0.504-0.806-0.806-1.209c-0.202-0.403-0.504-0.807-0.706-1.21
	c-0.101-0.201-0.201-0.402-0.302-0.604c-0.101-0.201-0.202-0.403-0.303-0.604c-0.201-0.403-0.303-0.807-0.504-1.21
	c-0.101-0.402-0.303-0.806-0.403-1.209s-0.201-0.807-0.302-1.21c-0.102-0.402-0.102-0.806-0.202-1.209c0-0.202,0-0.403-0.101-0.604
	c0-0.202,0-0.403-0.101-0.605v7.156l0.101,1.21l0.201,1.209l0.303,1.21l0.403,1.209l0.504,1.21l0.604,1.209l0.706,1.21l0.806,1.209
	l0.907,1.109l1.008,1.108l1.109,1.108l1.209,1.109l1.311,1.008l1.411,1.008L376.55,434l1.612,0.907l1.714,0.907l1.813,0.906
	l1.814,0.807l1.915,0.705l1.915,0.706l2.016,0.604l2.016,0.604l2.117,0.505l2.116,0.402l2.117,0.403l2.116,0.303l2.218,0.302
	l2.217,0.202l2.218,0.201l2.217,0.101h2.218l2.218-0.101l2.217-0.101l2.218-0.201l2.217-0.202l2.218-0.302l2.116-0.403l2.117-0.403
	l2.116-0.504l2.116-0.504l2.017-0.604l2.016-0.706l2.016-0.705l1.915-0.807l1.814-0.807l1.813-0.907l1.714-0.906l1.612-1.009
	l1.512-1.008l1.411-1.108l1.311-1.108l1.21-1.109l1.108-1.209l1.008-1.21l0.907-1.209l0.806-1.21l0.706-1.209l0.604-1.21
	l0.504-1.209l0.403-1.21l0.303-1.31l0.201-1.21l0.101-1.311v-7.155c0,0.403,0,0.806-0.101,1.31
	C457.383,410.818,457.282,411.222,457.282,411.624z M404.973,396.103l-10.482,18.243l38.099-2.318L404.973,396.103z M386.326,337.04
	L386.326,337.04h0.101c0.101,0,0.101,0,0.202,0h0.101h0.101c0.101,0,0.101,0,0.202,0h0.101h0.201l0.202,0.101h0.201l0.202,0.102
	l0.201,0.101l0.201,0.101l0.202,0.101l19.149,11.188l0.202,0.1l0.101,0.102c0.101,0,0.101,0.101,0.201,0.201l0,0l0.102,0.102
	c0,0,0,0,0.101,0.1l0.101,0.102l0.202,0.201l0.201,0.201l0.101,0.202l0.202,0.202l0.201,0.201l0.101,0.201l0.101,0.202l0.202,0.202
	l0.101,0.201c0,0.101,0.101,0.201,0.101,0.303l0,0l0.102,0.201l0.101,0.201l0.101,0.201l0.101,0.202l0.101,0.202l0.102,0.201
	l0.101,0.201l0.101,0.303l0.101,0.201l0.101,0.303l0.102,0.201l0,0l0,0l0.101,0.303v0.101c0,0.303,0.101,0.505,0.101,0.706v0.101
	v0.302v21.872v0.201v0.101c0,0.202,0,0.504-0.101,0.706v0.101l-0.101,0.201l-0.102,0.202l-0.101,0.202l-0.101,0.201v0.101
	c0,0,0,0.101-0.101,0.101l-0.101,0.102l-0.102,0.1l-0.101,0.102l-0.101,0.101l-0.101,0.101l-0.101,0.102l3.023-1.916l1.512-0.906
	l0.201-0.102l0.102-0.1l0.101-0.102l0.101-0.101l0.101-0.101l0.101-0.102l0.102-0.101l0.101-0.201l0.101-0.202l0.101-0.201
	l0.101-0.201l0.102-0.202l0.101-0.202v-0.201v-0.201v-0.201v-0.202v-0.302v-21.67v-0.102v-0.201v-0.201v-0.303v-0.201v-0.303
	l-0.101-0.201l-0.102-0.303l-0.101-0.201l-0.101-0.303l-0.101-0.202l-0.101-0.201l-0.102-0.202l-0.101-0.201l-0.101-0.201
	l-0.101-0.202l-0.101-0.202l-0.102-0.201l-0.101-0.201l-0.101-0.201l-0.101-0.202l-0.202-0.202l-0.101-0.201l-0.201-0.201
	l-0.102-0.202l-0.201-0.201l-0.201-0.202l-0.202-0.201l-0.201-0.101l-0.202-0.202l-0.201-0.101l-0.202-0.101l-0.201-0.102
	l-19.15-11.188l-0.201-0.1l-0.201-0.102l-0.202-0.101l-0.201-0.101l-0.202-0.102h-0.201h-0.202h-0.201h-0.101h-0.202l-0.101,0.102
	h-0.201l-0.102,0.101l-0.101,0.101l-3.225,2.016l-1.613,1.008h0.101C386.226,337.04,386.226,337.04,386.326,337.04z
	 M405.577,358.912c0-1.916-1.612-4.234-3.527-5.141c-1.714-0.807-2.621-0.403-3.528,0.906c-0.907-2.217-1.713-3.426-3.427-4.334
	c-6.854-3.325-2.318,11.188,3.427,15.623C402.05,364.254,405.577,362.439,405.577,358.912z"></path>
<path id="color_x5F_10" fill="#F1BB25" d="M317.487,386.527l1.108,1.613l-12.195,7.055l0.101-32.958
	c0.403-0.101,0.705-0.403,0.705-0.806v-0.403l2.318-1.311c0.604,3.427,3.023,16.63,3.83,18.142c0.807,1.714,4.133,6.652,4.334,6.955
	C317.386,385.822,317.487,386.527,317.487,386.527z M350.747,335.83l-13.908,8.064l-22.98,13.304
	c-0.101,1.008-0.201,1.714-0.201,1.714l5.543,15.621l4.032,5.947h-0.102c0.403,0,0.807,0,1.21,0c0,0,1.311,1.209,2.923,2.621
	l7.257-4.234c-0.403-0.604-0.604-1.41-0.604-2.217c0.101-2.419-0.605-3.023-0.202-3.931c0.303-0.604,0.504-1.21,0.604-1.411h-0.101
	c0,0-0.403-3.629,0-4.133c0,0-3.931-5.543,0-8.365c0,0,0.605,3.125,4.838,2.621c4.233-0.504,7.459-3.125,9.374,0.101
	c2.016,3.124,1.612,4.132,1.612,4.132s1.21,1.008,1.311,3.527l0.101-0.1v-32.959l0,0C351.15,336.234,350.949,336.032,350.747,335.83
	z M334.318,371.409L334.318,371.409L334.318,371.409L334.318,371.409z M407.29,120.947c0,0-9.574-80.027-99.277-80.027
	c51.402,0,56.946,80.027,56.946,80.027s2.923,45.859-17.84,68.033c-17.134,18.243-17.739,36.083-19.251,49.588
	c5.442-1.411,10.583-3.326,15.118-5.947c0.303-0.201,0.605-0.403,0.907-0.504c2.419-12.498,7.056-27.616,32.354-43.138
	C412.33,166.907,407.29,120.947,407.29,120.947z M273.341,238.267L273.341,238.267L273.341,238.267
	c-0.302-1.311-0.504-2.52-0.706-3.729c0.504,2.722,1.008,5.342,1.612,7.761C273.946,240.988,273.644,239.678,273.341,238.267z
	 M213.774,102.201c-2.923,7.66-4.233,13.909-4.737,16.832c-0.202,1.209-0.302,1.915-0.302,1.915s-5.04,45.859,31.043,68.033
	c25.097,15.421,29.833,30.438,32.354,42.835c0-0.101,0-0.202-0.101-0.302c0.504,0.302,0.907,0.604,1.411,0.907
	c0.706,0.403,1.512,0.807,2.318,1.209c3.83,1.915,7.962,3.427,12.296,4.637c-1.512-13.506-2.318-31.144-19.251-49.286
	c-20.662-22.174-17.84-68.033-17.84-68.033s5.443-80.027,56.946-80.027C246.531,40.92,222.745,78.616,213.774,102.201z
	 M272.636,234.537c-0.202-0.907-0.302-1.713-0.504-2.621C272.333,232.723,272.434,233.63,272.636,234.537z M287.553,120.947
	c0,0-1.109,45.859,6.35,68.033c6.45,19.15,6.45,37.796,7.055,51.503c4.738,0.403,9.475,0.403,14.111,0.101
	c0.604-13.707,0.504-32.354,7.055-51.604c7.459-22.174,6.451-68.033,6.451-68.033s-2.017-80.027-20.562-80.027
	S287.553,120.947,287.553,120.947z M273.845,464.337l34.671-19.956v40.114l-34.772,20.058L273.845,464.337L273.845,464.337z
	 M280.699,477.037l5.14-2.923v13.404l13.506-7.761v-13.404l5.141-2.923l-11.894-5.04L280.699,477.037z M289.165,442.063
	l-17.437,10.079l0.101-20.157l17.336-9.979v11.087V442.063L289.165,442.063z M287.149,431.581l-5.947-2.521l-5.946,9.374l2.52-1.512
	v6.651l6.753-3.931v-6.651L287.149,431.581z M457.483,409.104c0,0.202,0,0.403,0,0.604c0,0.202,0,0.403,0,0.706
	c0,0.201-0.101,0.403-0.101,0.604c0,0.202-0.101,0.403-0.101,0.706c-0.101,0.402-0.202,0.806-0.303,1.209s-0.201,0.807-0.403,1.311
	c-0.201,0.403-0.302,0.806-0.504,1.209c-0.201,0.403-0.402,0.807-0.604,1.21c-0.201,0.403-0.403,0.807-0.705,1.209
	c-0.202,0.403-0.504,0.807-0.807,1.21s-0.604,0.807-0.907,1.209c-0.303,0.403-0.705,0.807-1.008,1.21
	c-0.403,0.403-0.705,0.807-1.108,1.108c-0.403,0.403-0.807,0.807-1.21,1.109c-0.201,0.201-0.403,0.402-0.705,0.504
	c-0.202,0.201-0.403,0.402-0.706,0.504c-0.201,0.201-0.504,0.402-0.705,0.504c-0.202,0.201-0.504,0.403-0.706,0.504
	c-0.504,0.403-1.008,0.705-1.512,1.008c-0.504,0.403-1.108,0.705-1.612,1.008c-0.604,0.302-1.108,0.705-1.714,0.907
	c-0.302,0.101-0.604,0.302-0.907,0.403c-0.302,0.201-0.604,0.302-0.906,0.402c-0.605,0.303-1.21,0.605-1.814,0.807
	s-1.21,0.504-1.915,0.807c-0.303,0.101-0.706,0.201-1.008,0.403c-0.303,0.101-0.706,0.201-1.008,0.402
	c-0.706,0.202-1.311,0.403-2.016,0.605c-0.303,0.101-0.706,0.201-1.009,0.302l0,0c-0.302,0.101-0.705,0.202-1.008,0.303
	c-0.705,0.201-1.411,0.403-2.116,0.504c-0.706,0.201-1.411,0.302-2.116,0.504c-0.706,0.101-1.411,0.303-2.117,0.403
	c-0.403,0.101-0.705,0.101-1.108,0.201s-0.706,0.101-1.108,0.202c-0.706,0.101-1.411,0.201-2.218,0.302
	c-0.705,0.101-1.411,0.202-2.218,0.202c-0.705,0.101-1.512,0.101-2.217,0.201c-0.403,0-0.706,0.101-1.109,0.101
	c-0.402,0-0.705,0-1.108,0.102c-0.705,0-1.512,0-2.217,0c-0.706,0-1.513,0-2.218,0c-0.706,0-1.512-0.102-2.218-0.102
	c-0.705,0-1.512-0.101-2.217-0.101c-0.403,0-0.706-0.101-1.109-0.101c-0.402,0-0.705-0.101-1.108-0.101
	c-0.705-0.102-1.411-0.202-2.217-0.303c-0.403-0.101-0.706-0.101-1.109-0.201c-0.403-0.102-0.705-0.102-1.108-0.202
	c-0.705-0.101-1.411-0.201-2.116-0.403c-0.706-0.101-1.411-0.302-2.117-0.504c-0.705-0.201-1.411-0.302-2.116-0.504
	c-0.706-0.201-1.411-0.403-2.016-0.604c-0.706-0.201-1.311-0.403-2.016-0.604c-0.706-0.202-1.311-0.403-1.915-0.706
	c-0.605-0.201-1.21-0.504-1.915-0.806c-0.706-0.303-1.21-0.504-1.814-0.807s-1.21-0.604-1.814-0.907s-1.209-0.604-1.713-0.907
	c-0.504-0.302-1.109-0.604-1.613-0.907c-0.504-0.302-1.008-0.705-1.512-1.008c-0.504-0.302-0.907-0.705-1.411-1.008
	c-0.403-0.403-0.907-0.705-1.311-1.108c-0.402-0.403-0.806-0.706-1.209-1.108c-0.403-0.403-0.706-0.706-1.108-1.109
	c-0.202-0.201-0.303-0.403-0.504-0.604c-0.202-0.201-0.303-0.403-0.504-0.504c-0.102-0.201-0.303-0.403-0.403-0.604
	c-0.202-0.202-0.303-0.403-0.403-0.605c-0.303-0.402-0.504-0.806-0.807-1.209c-0.201-0.403-0.504-0.807-0.705-1.21
	c-0.101-0.201-0.202-0.402-0.303-0.604l0,0c-0.101-0.201-0.201-0.403-0.302-0.604c-0.102-0.201-0.202-0.403-0.202-0.604
	c-0.101-0.202-0.201-0.403-0.201-0.605c-0.102-0.201-0.102-0.402-0.202-0.604c-0.101-0.201-0.101-0.403-0.201-0.604
	c-0.101-0.403-0.202-0.807-0.303-1.21c-0.101-0.402-0.101-0.806-0.201-1.209c0-0.202,0-0.403-0.101-0.604l0,0
	c0-0.202,0-0.403-0.102-0.605l0,0c-0.201-6.551,3.629-13.203,11.793-18.444c0.604-0.403,1.209-0.806,1.915-1.21
	c0.705-0.402,1.411-0.806,2.116-1.209c18.243-9.272,45.859-8.971,63.195,1.008C453.049,395.498,457.483,402.251,457.483,409.104z
	 M435.411,395.297c-12.7-7.357-33.06-7.56-46.464-0.706c-0.505,0.303-1.109,0.604-1.613,0.807c-0.504,0.302-0.907,0.604-1.411,0.907
	c-11.893,7.761-11.591,19.553,1.21,26.91c13.203,7.66,34.772,7.56,48.076-0.101C448.514,415.354,448.614,402.855,435.411,395.297z"></path>
<path id="color_x5F_9_1_" fill="#FCDD50" d="M306.4,362.237c0.101,0,0.101,0,0.201,0l-0.101,32.958l-45.053-26.004v-0.1v-10.08
	v-22.777c0.302,0,0.604-0.202,0.705-0.404l13.909,8.064l29.531,17.033v0.402C305.594,361.834,305.896,362.237,306.4,362.237z
	 M251.067,120.947c0,0-2.923,45.859,17.839,68.033c16.933,18.142,17.739,35.881,19.251,49.286c4.132,1.108,8.466,1.814,12.8,2.217
	c-0.604-13.708-0.604-32.354-7.055-51.503c-7.458-22.174-6.35-68.033-6.35-68.033s2.016-80.027,20.46-80.027
	C256.61,40.92,251.067,120.947,251.067,120.947z M364.959,120.947c0,0-5.442-80.027-56.946-80.027
	c18.545,0,20.562,80.027,20.562,80.027s1.008,45.859-6.451,68.033c-6.45,19.25-6.45,37.897-7.055,51.604
	c4.334-0.302,8.668-1.008,12.8-2.016c1.512-13.506,2.117-31.245,19.251-49.588C367.882,166.907,364.959,120.947,364.959,120.947z
	 M273.744,464.337l-34.772-20.057v0.807v19.754v1.613v2.52v6.148v1.612v0.807v1.814v5.039l34.772,20.057l0.101-40.215l0,0
	L273.744,464.337z M271.829,432.085l-17.437-10.079v13.304v6.753l17.437,9.979V432.085L271.829,432.085z"></path>
<path id="color_x5F_9" fill="#D0E7DF" d="M303.074,350.546c0.101-0.706,0.807-0.604,0.807-0.604s-0.807-0.907-0.605-1.411
	c0.201-0.604,0.605-0.202,0.605-0.202s-0.504-0.906-0.303-1.612s0.807-0.504,0.807-0.504s-0.102-0.202,0.201-0.806
	c0.303-0.504,0.705-0.202,0.705-0.202c0.202,0.403,0.404,0.706,0.605,1.108l0.201-12.296l-29.935-17.235v10.281v16.932
	l29.532,17.033l0.1-5.846C304.082,352.965,303.074,350.949,303.074,350.546z"></path>
<path id="color_x5F_8" fill="#B3C8C0" d="M307.509,333.613l-0.201,14.413c2.016,1.714,4.435,2.821,4.435,2.821
	c0.101-1.914,1.612-4.736,2.116-4.434c0.604,0.302,0.202,3.124,0.303,4.636c0.101,1.008-0.202,4.233-0.403,6.249l22.979-13.305
	v-16.932v-10.281L307.509,333.613z M328.775,335.932v11.691l-11.792,6.854v-11.792l-4.436,2.52l10.382-16.328l10.381,4.334
	L328.775,335.932z M309.424,358.912c0,0,0.101,0.302,0.101,0.806l-2.318,1.31v-4.031
	C307.912,357.702,308.617,358.408,309.424,358.912z"></path>
<path id="color_x5F_7" fill="#2A776D" d="M249.756,438.031c-0.604-3.023-2.621-4.838-4.132-4.938
	c-2.016-0.202-3.326,2.419-3.326,2.419s-0.604-7.357-3.931-10.18c-3.326-2.722-5.342-0.706-6.451-2.419
	c-0.907-1.411,0-3.83-0.604-6.35c-0.302-1.109-0.806-2.521-1.512-4.032c-1.209-2.52-3.326-5.241-6.652-7.66
	c-8.164-5.744-10.28,1.009-10.28,3.83c0,2.822,3.729,9.475,3.729,9.475s-6.148,2.016-6.249,7.056c0,5.14,9.978,10.985,14.514,9.574
	c0,0-2.822,0.807-2.52,2.621c0.302,1.713,6.652,6.753,7.66,9.373c0,0-7.257-3.427-11.389,0.504c-0.907,0.807-1.31,1.714-1.512,2.621
	c-1.31-0.807-2.822-1.411-4.233-1.411c-3.931,0-4.133,2.62-6.047,2.016c-1.411-0.403-2.218-2.822-4.133-4.233
	c-0.806-0.604-2.016-1.411-3.427-2.016c-2.318-1.108-5.442-1.915-9.172-1.612c-9.172,0.604-6.753,6.651-5.14,8.769
	c1.613,2.016,8.164,4.636,8.164,4.636s-3.326,4.939-0.403,8.668c2.923,3.629,13.506,2.117,15.925-1.512c0,0-1.512,2.218-0.302,3.326
	s8.668,1.008,10.885,2.318c0,0-7.156,1.814-7.862,6.954c-0.706,5.241,5.846,5.645,5.846,5.645s-0.403,0.705,0.706,1.411
	c1.109,0.705,2.722,0.806,4.637-0.605c1.915-1.41,0.101-2.52,3.225-3.729c3.023-1.109,4.132-0.504,6.753,0.604
	c1.512,0.706,4.132,0.706,6.35,0.201v-1.813c-3.023,0.302-5.846,0-8.87-2.218c-7.055-4.334-11.994-0.807-14.514,3.226
	c2.419-5.141,6.955-7.357,12.397-5.342c-0.907-1.311-1.814-2.923-2.621-4.637c-0.202-0.403-0.403-0.705-0.504-1.108
	c-1.814-3.629-3.83-7.459-7.257-9.374c-2.721-1.512-5.645-0.906-8.466-0.302c-1.209,0.302-2.419,0.504-3.528,0.705
	c-3.326,3.326-6.753,4.334-10.784,1.915c3.83,0.403,5.846,0.907,9.272-1.915c-1.411-0.101-2.822-0.604-4.032-1.813
	c-1.512-1.512-2.318-2.722-3.023-3.83c-3.125-4.838-5.846-4.737-9.979-5.141c5.443-0.303,7.66-0.303,10.785,4.637
	c0.706,1.108,1.512,2.317,2.822,3.729c2.318,2.318,5.14,1.613,8.265,0.907c3.023-0.705,6.148-1.411,9.172,0.403
	c2.52,1.411,4.233,3.729,5.644,6.148c-0.403-4.938,0.706-6.753,3.125-10.482c-1.512,4.838-3.326,9.071-1.108,14.212l0.201,0.402
	c1.109,2.318,2.218,4.536,3.628,6.048c0.403,0.403,0.706,0.705,1.109,1.008c0.504,0.303,0.706,0.504,0.806,0.504
	c2.117,1.311,4.838,1.612,7.56,1.714v-1.613c-1.311-1.209-2.419-2.52-2.52-2.62c-0.604-0.706-1.108-1.411-1.612-2.218
	c-1.814-2.923-1.008-6.954-2.419-8.265c-1.411-1.311-2.117-1.411-2.117-1.411s0.101-0.101,0.202-0.403
	c1.915,1.008,2.52,2.218,3.628,4.436c0.806,1.512,2.721,3.225,4.737,4.232v-2.52c-1.915-1.612-3.427-3.628-4.334-6.652
	c-1.108-3.023-2.621-5.039-4.334-6.249c0,0,0-0.101-0.101-0.101c-0.403-0.604-0.806-1.108-1.209-1.512
	c2.016,0.807,3.83,2.318,5.241,4.637c0.101-1.814,0.504-3.729,0.907-5.745c0.101-0.403,0.202-0.807,0.303-1.21
	c0.907-4.233,1.915-8.869,0.302-12.9c-1.209-3.125-4.132-4.637-6.955-5.947c-1.209-0.604-2.419-1.209-3.427-1.915
	c-5.04,0.605-8.668-1.008-10.381-5.745c3.024,2.923,4.233,4.737,9.071,4.737c-1.108-1.108-2.016-2.419-2.217-4.334
	c-0.202-2.217-0.101-3.931,0.101-5.342c0.706-6.249-1.713-7.962-4.939-11.188c4.838,3.427,6.753,4.938,6.047,11.288
	c-0.201,1.411-0.403,2.923-0.101,5.04c0.403,3.527,3.326,4.938,6.35,6.45c3.024,1.512,6.148,3.023,7.458,6.552
	c1.109,2.923,1.109,5.946,0.605,9.071c3.023-4.436,5.241-5.141,9.776-6.753c-2.419,1.612-4.737,3.023-6.753,4.838L249.756,438.031z
	 M220.326,452.444c0.403-0.202,0.706-0.303,1.109-0.504c0,0.101,0,0.101,0,0.201C221.132,452.242,220.729,452.344,220.326,452.444
	C220.427,452.444,220.326,452.444,220.326,452.444z M236.553,449.823c0.504-1.915,1.31-3.427,2.318-4.736v19.754
	c-1.209-1.31-2.318-2.821-2.923-4.435c0-0.101-0.101-0.403-0.302-0.907c-0.101-0.504-0.202-1.108-0.302-1.612
	c-0.101-2.218,0.403-4.838,1.108-7.56L236.553,449.823z"></path>
<polygon id="color_x5F_6" fill="#6BA7D0" points="294.104,542.146 118.629,440.954 118.629,451.033 294.104,553.032 
	516.445,424.324 516.445,411.12 "></polygon>
<path id="color_x5F_5" fill="#FFD2BB" d="M336.335,380.884c0,0,0,0.101,0.101,0.101c0,0-1.108-0.807-1.915-2.117
	c-0.403-0.604-0.604-1.41-0.604-2.217c0.101-2.419-0.605-3.023-0.202-3.931c0.303-0.706,0.504-1.21,0.604-1.411c0,0,0,0,0.102,0l0,0
	l0,0h0.101h0.101h0.101h0.102c0,0,0.101,0,0.101,0.101c0,0,0.101,0,0.101,0.101l0.101,0.102l0.101,0.101
	c0.102,0,0.102,0.101,0.202,0.101l0.101,0.102c0.101,0.1,0.202,0.201,0.303,0.402c0.806,1.209-0.101,4.436-0.101,5.846
	c0,0.504,0,1.109,0.101,1.814l0,0c0,0.101,0.101,0.201,0.101,0.303c0,0,0,0,0,0.101
	C336.233,380.682,336.335,380.783,336.335,380.884L336.335,380.884z M345.405,381.791c-0.201,0.101-0.402,0.201-0.604,0.303
	c0,0,0,0-0.101,0c-0.101,0.1-0.303,0.1-0.504,0.201c-0.101,0-0.303,0.101-0.403,0.101s-0.101,0-0.201,0
	c-0.202,0-0.303,0.101-0.504,0.101l0,0c-0.807,0.102-1.714,0.102-2.822,0.102c-0.101,0-0.101,0-0.202,0
	c-1.512-0.202-2.52-0.504-3.124-1.008l-0.101,3.023l0.302-0.202l8.567,0.504C345.305,384.411,345.305,382.799,345.405,381.791z
	 M313.657,358.912c0,0,0.101-0.706,0.201-1.714c0.202-2.017,0.504-5.241,0.403-6.249c-0.201-1.512,0.201-4.334-0.303-4.637
	c-0.604-0.303-2.116,2.52-2.116,4.436c0,0-2.419-1.008-4.435-2.822c-0.604-0.504-1.21-1.109-1.613-1.814
	c-0.201-0.303-0.402-0.705-0.604-1.109c0,0-0.303-0.402-0.706,0.202c-0.303,0.504-0.202,0.806-0.202,0.806s-0.604-0.201-0.807,0.504
	c-0.201,0.706,0.303,1.613,0.303,1.613s-0.402-0.303-0.604,0.201c-0.202,0.605,0.604,1.412,0.604,1.412s-0.705-0.102-0.807,0.604
	c0,0.404,1.009,2.521,2.521,4.536c0.504,0.706,1.008,1.31,1.612,1.915c0.706,0.705,1.411,1.411,2.117,1.814
	c0,0,0.101,0.303,0.101,0.807c0.604,3.426,3.023,16.63,3.83,18.142c0.806,1.714,4.132,6.651,4.334,6.954l0,0
	c0.201-0.906,0.604-1.914,1.411-2.721l0,0c0.101-0.102,0.201-0.202,0.302-0.303c0,0,0,0,0.101,0
	c0.102-0.101,0.202-0.201,0.403-0.303l0.101-0.101c0.102,0,0.202-0.101,0.202-0.101c0.101,0,0.101-0.101,0.201-0.101
	c0.102,0,0.102-0.101,0.202-0.101s0.201-0.102,0.201-0.102c0.101,0,0.202-0.101,0.202-0.101c0.101,0,0.201-0.101,0.302-0.101
	s0.202,0,0.303-0.102c0.101,0,0.302-0.1,0.403-0.1c0.101,0,0.302,0,0.403-0.102c0.101,0,0.201,0,0.302,0s0.202,0,0.303,0h0.101
	l-4.031-5.946L313.657,358.912z M351.654,357.803v0.807l-0.101,0.101l0.101,10.382l-0.302,0.201c0,0.101,0,0.101,0,0.201
	c0,0.504,0,1.008-0.101,1.512l0,0c-0.102,0.605-0.303,1.311-0.505,2.117v0.101c-0.101,0.202-0.201,0.403-0.201,0.706
	c-0.101,0.302-0.201,0.604-0.403,0.906h0.101c1.21,0.403,2.822,1.21,4.032,2.924l0,0c0.302-1.916,0.504-4.032,0.604-5.141
	C354.88,371.309,352.864,362.943,351.654,357.803z"></path>
<path id="color_x5F_4" fill="#00CEC9" d="M415.757,352.562v21.67v0.302v0.202v0.202v0.201v0.201l-0.101,0.202l-0.101,0.201
	l-0.102,0.202l-0.101,0.201l-0.101,0.201l-0.101,0.202l-0.102,0.101l-0.101,0.102l-0.101,0.1l-0.101,0.102l-0.101,0.101
	l-0.102,0.101l-0.101,0.102h-0.101l-1.512,0.906l-3.023,1.916l0,0l-0.102,0.1h-0.101c0,0-0.101,0-0.101,0.102l-0.101,0.101
	l-0.202,0.101h-0.101c0,0,0,0-0.101,0h-0.101h-0.102c0,0,0,0-0.101,0h-0.101H408.5c-0.101,0-0.101,0-0.202,0l0,0l0,0l0,0h-0.201
	h-0.101c-0.202-0.101-0.504-0.201-0.807-0.303l-19.15-11.188c-0.101,0-0.101-0.101-0.201-0.101l-0.201-0.101l-0.202-0.102
	l-0.101-0.1c-0.101-0.102-0.101-0.102-0.201-0.202l-0.102-0.101l-0.101-0.102c-0.101-0.1-0.303-0.302-0.403-0.402l-0.101-0.201
	l-0.101-0.102c-0.101-0.101-0.101-0.201-0.202-0.303l0,0l-0.101-0.201l-0.101-0.201l-0.101-0.201l-0.101-0.202l-0.102-0.202
	c-0.201-0.402-0.403-0.906-0.604-1.311l-0.101-0.201v-0.201c0-0.102,0-0.201-0.101-0.201v-0.102l-0.102-0.201v-0.102
	c0-0.1,0-0.201-0.101-0.302v-0.101l-0.101-0.303v-0.201v-0.303v-0.201v-0.202v-21.871v-0.202v-0.504v-0.201v-0.201l0.101-0.202
	v-0.101c0-0.101,0-0.201,0.101-0.303v-0.101l0.102-0.201l0,0c0-0.101,0-0.101,0.101-0.202l0,0l0.101-0.201l0.101-0.201l0.101-0.102
	l0.102-0.101c0-0.101,0.101-0.101,0.101-0.202l0.101-0.1l0,0l0.101-0.102l0.102-0.101l0.101-0.101l1.612-1.008l-39.207-22.879
	l3.729,21.871c0.101,0.402-0.202,0.807-0.706,0.906v32.959l-0.101,0.101c0,0.101,0,0.202,0,0.302c0-0.1,0-0.1,0-0.201l0.303-0.201
	l-0.102-10.382l0.102-0.101V357.5c1.209,5.141,3.225,13.506,3.225,14.816c0,1.008-0.302,3.225-0.604,5.141
	c0.202,0.302,0.403,0.604,0.604,1.008c0,0-2.317,8.769-2.317,12.9c-0.102,4.133-0.807,29.431-0.807,29.431s-0.101,0.202-0.303,0.403
	c2.419,17.739,1.109,31.648,3.024,50.496c0.302,0,0.402-0.102,0.402-0.102l0.706,3.528c0,0-0.303,0.302-0.907,0.705
	c0.504,1.512,0.807,2.116-0.604,3.326c-1.512,1.311-3.226,2.52-5.745,0.504s-5.946-5.946-6.048-7.761
	c-0.101-1.108,1.814-2.218,3.931-2.419l-5.039-23.585c0,0-5.442,24.189-7.962,32.757c0.201,0,0.402,0,0.504-0.101l-1.109,3.225
	c0,0-0.302,0.303-1.008,0.605c0.202,1.008,0.504,3.023-0.504,3.931c-1.411,1.209-3.527,1.813-6.047,1.713
	c-2.521-0.201-12.095-2.52-11.692-5.14c0.403-2.419,6.451-2.117,9.878-2.117c0.101-1.108,0.604-3.83,0.604-3.83
	s0.202,0.102,0.504,0.102c0.907-7.358,2.621-21.67,2.822-25.097c0.201-4.737,2.016-28.927,2.016-28.927s-3.124-23.888-5.241-27.717
	l-5.342-7.66l-12.195,7.055l-45.053-26.004v-0.1v-10.08L118.427,440.45l175.475,101.192l222.241-130.926L415.757,352.562z
	 M308.517,484.395l-34.772,20.057l-34.772-20.057v-5.039c-2.218,0.504-4.838,0.504-6.35-0.202c-2.621-1.209-3.729-1.714-6.753-0.604
	c-3.125,1.108-1.31,2.217-3.225,3.729c-1.915,1.41-3.427,1.209-4.636,0.604c-1.109-0.706-0.706-1.411-0.706-1.411
	s-6.451-0.403-5.846-5.645c0.706-5.241,7.861-6.954,7.861-6.954c-2.217-1.21-9.676-1.21-10.885-2.318s0.303-3.326,0.303-3.326
	c-2.419,3.729-12.901,5.241-15.925,1.512c-2.923-3.628,0.403-8.668,0.403-8.668s-6.45-2.62-8.164-4.636
	c-1.613-2.016-4.032-8.164,5.14-8.769c3.729-0.202,6.753,0.604,9.172,1.612c1.411,0.604,2.52,1.411,3.427,2.016
	c1.915,1.411,2.621,3.729,4.132,4.233c1.814,0.604,2.016-2.116,6.047-2.016c1.411,0,2.923,0.604,4.233,1.411
	c0.202-0.907,0.605-1.714,1.512-2.621c4.132-3.931,11.389-0.504,11.389-0.504c-1.109-2.62-7.358-7.66-7.66-9.373
	c-0.302-1.714,2.52-2.621,2.52-2.621c-4.637,1.513-14.514-4.435-14.514-9.574c0-5.141,6.249-7.056,6.249-7.056
	s-3.729-6.652-3.729-9.475c0-2.821,2.217-9.574,10.281-3.83c3.326,2.318,5.342,5.141,6.652,7.66
	c0.806,1.512,1.209,2.923,1.512,4.032c0.605,2.419-0.302,4.938,0.605,6.35c1.108,1.713,3.125-0.403,6.45,2.419
	c3.326,2.721,3.931,10.18,3.931,10.18s1.31-2.621,3.326-2.419c1.512,0.101,3.528,1.915,4.133,4.938l4.636-2.62v-13.305l17.437-9.979
	l17.437,9.979v11.087l19.352,11.188v40.014H308.517z M457.383,417.571l-0.201,1.209l-0.303,1.311l-0.303,1.209l-0.504,1.21
	l-0.604,1.209l-0.705,1.21l-0.807,1.209l-0.907,1.21l-1.008,1.209l-1.108,1.21l-1.21,1.108l-1.311,1.109l-1.41,1.108l-1.513,1.008
	l-1.612,1.008l-1.713,0.907l-1.814,0.907l-1.814,0.806l-1.915,0.807l-2.016,0.706l-2.016,0.705l-2.016,0.604l-2.117,0.504
	l-2.116,0.504l-2.117,0.403l-2.116,0.403l-2.218,0.303l-2.217,0.201l-2.218,0.202l-2.217,0.101l-2.218,0.101h-2.218l-2.217-0.101
	l-2.218-0.202l-2.217-0.201l-2.218-0.303l-2.116-0.302l-2.117-0.403l-2.116-0.403l-2.116-0.504l-2.017-0.604l-2.016-0.605
	l-1.915-0.705l-1.915-0.705l-1.813-0.807l-1.814-0.907l-1.714-0.907l-1.612-0.907l-1.512-1.008l-1.411-1.008l-1.311-1.008
	l-1.209-1.108l-1.109-1.109l-1.008-1.108l-0.907-1.108l-0.806-1.21l-0.706-1.209l-0.604-1.21l-0.504-1.209l-0.403-1.21l-0.302-1.209
	l-0.202-1.21l-0.101-1.209v-7.156l0,0c-0.202-6.552,3.628-13.203,11.792-18.444c0.605-0.403,1.21-0.807,1.915-1.21
	c0.706-0.403,1.411-0.806,2.117-1.21c18.242-9.271,45.858-8.97,63.194,1.009c8.971,5.14,13.405,11.994,13.405,18.848v7.156
	L457.383,417.571z M333.613,387.233c-1.411-0.202-4.233-2.218-6.35-4.032l7.257-4.232c0.705,1.311,1.915,2.116,1.915,2.116
	s0-0.101-0.101-0.101c0.504,0.807,1.512,1.512,3.83,1.814l0,0c-1.513-0.201-2.521-0.504-3.125-1.008l-0.101,3.023L333.613,387.233z
	 M336.839,316.681l-0.907-0.504l8.769-5.04l1.814,1.008l3.83,22.578l-13.506-7.862V316.681z M238.972,468.974v6.148
	c-1.311-1.21-2.419-2.52-2.52-2.621c-0.604-0.705-1.108-1.411-1.613-2.217c-1.814-2.923-1.008-6.955-2.419-8.265
	c-1.411-1.311-2.116-1.411-2.116-1.411s0.101-0.102,0.202-0.403c1.915,1.008,2.52,2.217,3.628,4.435
	C234.94,466.252,236.855,467.865,238.972,468.974z"></path>
<path id="color_x5F_3" fill="#E84393" d="M351.252,421.703c0,0.101-0.102,0.101-0.102,0.202l0,0
	c-0.201,0.201-0.302,0.403-0.504,0.604c0,0,0,0-0.101,0.101s-0.201,0.101-0.201,0.202l-0.102,0.101
	c-0.101,0.101-0.201,0.101-0.201,0.201c-0.101,0.101-0.201,0.101-0.303,0.202c-0.101,0.101-0.101,0.101-0.201,0.201
	s-0.202,0.101-0.303,0.201c-0.101,0-0.101,0.102-0.201,0.102c-0.101,0.101-0.202,0.101-0.303,0.201l-0.101,0.101
	c-0.303,0.202-0.705,0.303-1.108,0.504c-0.101,0-0.101,0.102-0.202,0.102c-0.101,0-0.201,0.101-0.302,0.101s-0.202,0-0.303,0.101
	c-0.101,0-0.201,0-0.302,0.101c-0.202,0-0.403,0.101-0.605,0.101c-3.83,0.202-6.854,3.729-11.591,2.318s-4.938-3.527-4.938-3.527
	s-1.814,24.189-2.016,28.927c-0.202,3.527-1.915,17.738-2.822,25.097c1.612,0.403,6.45,1.612,8.769,1.512
	c2.52-8.567,7.963-32.757,7.963-32.757l5.039,23.585l0.504,2.52c0.907,0.504,2.419,1.008,3.931,0.604
	c1.714-0.504,3.125-0.806,3.729-0.907c-1.915-18.848-0.705-32.856-3.023-50.495l0,0
	C351.353,421.603,351.353,421.703,351.252,421.703z"></path>
<path id="color_x5F_2" fill="#FBC02D" d="M354.88,471.997l0.706,3.528c0,0-0.303,0.302-0.907,0.705
	c-0.907,0.705-2.318,1.512-3.528,1.714c-2.016,0.201-4.031-1.814-4.636-3.326s-0.807-2.722-0.807-2.722s0.403,0.303,0.907,0.604
	c0.907,0.504,2.419,1.008,3.931,0.605c1.714-0.504,3.125-0.807,3.729-0.907C354.679,472.098,354.88,471.997,354.88,471.997z
	 M324.441,477.541c-0.303-0.102-0.504-0.102-0.504-0.102s-0.403,2.722-0.604,3.83c0,0.202,0,0.403,0,0.403
	c0,0.303,1.209,2.218,4.535,2.117c1.814-0.102,3.023-0.504,3.83-0.907c0.706-0.303,1.008-0.605,1.008-0.605l1.108-3.225
	c-0.201,0-0.302,0-0.504,0.101C330.892,479.153,326.054,478.045,324.441,477.541z M271.93,431.984l17.336-9.979l-17.437-9.979
	l-17.437,9.979L271.93,431.984L271.93,431.984z M306.3,299.143l-30.338,17.538l29.935,17.235L306.3,299.143z M384.814,363.447
	c-0.101-0.504-0.101-0.907-0.101-1.411v-21.872c0-0.402,0-0.906,0.101-1.209c0-0.101,0-0.201,0.101-0.303
	c0-0.101,0-0.201,0.101-0.201c0-0.101,0-0.101,0.102-0.201c0.101-0.202,0.201-0.403,0.302-0.605c0-0.101,0.101-0.101,0.101-0.201
	l0.102-0.102l0.101-0.1c0.101-0.102,0.201-0.102,0.302-0.202c0.102,0,0.202-0.101,0.303-0.101h0.101c0.101,0,0.101,0,0.202,0
	c0.101,0,0.101,0,0.201,0s0.101,0,0.202,0c0.402,0,0.806,0.101,1.31,0.402l19.15,11.188c0.101,0.101,0.201,0.101,0.302,0.201
	c0.102,0,0.102,0.101,0.202,0.202c0.101,0,0.101,0.101,0.201,0.101c0,0,0,0,0.102,0.101c0.504,0.504,1.008,1.109,1.512,1.814
	c0,0.101,0.101,0.201,0.101,0.303c0.504,0.806,0.807,1.813,1.008,2.822l0,0c0,0.1,0,0.201,0.101,0.402
	c0,0.303,0.101,0.504,0.101,0.705c0,0.102,0,0.303,0,0.404v21.871c0,0.101,0,0.201,0,0.402c0,0.202,0,0.504-0.101,0.706
	c-0.101,0.302-0.201,0.706-0.302,0.907c0,0,0,0.101-0.102,0.101c-0.201,0.403-0.504,0.706-0.806,0.907c0,0-0.102,0-0.102,0.101
	c-0.101,0.101-0.201,0.101-0.402,0.101c0,0,0,0-0.102,0c-0.101,0-0.201,0-0.302,0c0,0,0,0-0.101,0c-0.102,0-0.102,0-0.202,0
	s-0.101,0-0.201,0l0,0l0,0c-0.101,0-0.202,0-0.303-0.101c-0.201-0.101-0.504-0.202-0.806-0.302l-19.15-11.188
	c-0.101,0-0.101-0.102-0.202-0.102c-0.101-0.101-0.302-0.201-0.402-0.303c-0.102-0.1-0.102-0.1-0.202-0.201
	c-0.101-0.101-0.101-0.101-0.201-0.201c-0.101-0.102-0.303-0.303-0.403-0.403s-0.101-0.202-0.201-0.303
	c-0.102-0.101-0.102-0.201-0.202-0.302c-0.201-0.303-0.504-0.706-0.705-1.109c-0.202-0.402-0.403-0.906-0.605-1.311
	c0-0.1-0.101-0.302-0.101-0.402c0-0.102,0-0.201-0.101-0.201c0-0.102-0.101-0.303-0.101-0.404
	C384.915,363.648,384.915,363.548,384.814,363.447z M398.521,365.967c3.528-1.814,6.955-3.527,6.955-7.055
	c0-1.916-1.613-4.234-3.528-5.141c-1.713-0.807-2.62-0.403-3.527,0.906c-0.907-2.217-1.713-3.426-3.427-4.334
	C388.241,347.119,392.776,361.532,398.521,365.967z M307.509,333.613l29.33-16.933l-0.907-0.504l-28.02-16.227L307.509,333.613z
	 M182.933,134.151l5.543-3.225l8.466-4.838l11.994-6.955c0,0,0.101,0,0.101-0.101c0.504-2.923,1.814-9.172,4.737-16.832
	c0-0.101-0.101-0.101-0.201-0.101c0,0,0,0-0.101,0c-0.302-0.302-0.706-0.504-1.109-0.705c-1.008-0.303-2.217-0.202-3.527,0.604
	c-1.209,0.706-2.217,1.713-3.125,3.023c-1.109-4.636-4.636-6.35-8.87-4.031c-4.737,2.721-8.668,9.877-9.071,16.529
	c-1.915,1.411-3.528,4.233-4.132,7.055c-0.202,0.101-0.504,0.202-0.807,0.303c-1.915,1.108-3.427,4.132-3.427,6.652
	C179.506,134.05,181.018,135.26,182.933,134.151z M273.543,238.367c0.705,0.403,1.512,0.806,2.318,1.209
	c19.251,9.877,48.48,9.575,66.824-0.907c0.302-1.612,0.604-3.225,0.907-4.838c0.101-0.604,0.201-1.108,0.302-1.713l0,0
	c-0.302,0.202-0.604,0.303-0.907,0.504c-4.435,2.621-9.574,4.536-15.118,5.947c-4.132,1.008-8.466,1.713-12.8,2.016
	c-4.737,0.403-9.475,0.302-14.111-0.101c-4.434-0.403-8.667-1.109-12.8-2.217c-4.435-1.109-8.567-2.722-12.296-4.637
	c-0.806-0.403-1.512-0.806-2.318-1.209c-0.504-0.302-1.008-0.604-1.411-0.907c0.504,2.318,0.907,4.535,1.31,6.652L273.543,238.367z
	 M284.629,439.745v-6.652l2.52-1.512l-5.947-2.521l-5.946,9.374l2.52-1.512v6.651L284.629,439.745z M346.615,424.626
	c0.101,0,0.201,0,0.303-0.101c0.101,0,0.201-0.101,0.302-0.101s0.101,0,0.202-0.101c0.402-0.102,0.705-0.303,1.108-0.504
	c0,0,0.101,0,0.101-0.102c0.101-0.101,0.202-0.101,0.303-0.201c0.101,0,0.101-0.101,0.201-0.101
	c0.101-0.101,0.202-0.101,0.303-0.202c0.101-0.101,0.201-0.101,0.201-0.201c0.101-0.101,0.202-0.101,0.303-0.202
	c0.101-0.101,0.201-0.101,0.201-0.201l0.101-0.101c0.102-0.101,0.202-0.101,0.202-0.202c0,0,0,0,0.101-0.101
	c0.202-0.201,0.403-0.403,0.504-0.604l0,0c0-0.101,0.101-0.101,0.101-0.202c0-0.101,0.102-0.101,0.102-0.101l0,0
	c0.201-0.302,0.302-0.403,0.302-0.403s0.706-25.298,0.807-29.43c0.101-4.133,2.318-12.901,2.318-12.901
	c-0.202-0.303-0.403-0.706-0.605-1.008l0,0c-1.209-1.714-2.923-2.62-4.031-2.923h-0.101c-1.714,3.931-3.023,6.047-4.838,7.156
	c0.101,0,0.101-0.102,0.201-0.102c-0.101,1.008-0.101,2.621,0.504,3.125l1.21,2.721c0,0-2.52,1.916-4.435,2.52
	c-1.915,0.605-9.071-0.1-9.071-3.023c-1.411-0.201-4.233-2.217-6.35-4.031c-1.613-1.411-2.923-2.621-2.923-2.621
	c-0.403,0-0.807,0-1.21,0c-0.101,0-0.201,0-0.302,0c-0.102,0-0.202,0-0.303,0s-0.303,0-0.403,0.102
	c-0.101,0-0.302,0.101-0.403,0.101c-0.101,0-0.201,0-0.302,0.101c-0.102,0-0.202,0.102-0.303,0.102s-0.201,0.1-0.201,0.1
	c-0.102,0-0.202,0.102-0.202,0.102c-0.101,0-0.101,0.101-0.201,0.101s-0.101,0.101-0.202,0.101c-0.101,0-0.201,0.102-0.201,0.102
	l-0.101,0.101c-0.102,0.101-0.202,0.201-0.403,0.302c0,0,0,0-0.101,0c-0.102,0.102-0.202,0.202-0.303,0.303l0,0
	c-0.807,0.807-1.209,1.915-1.411,2.721l0,0c-0.201,1.009-0.101,1.814-0.101,1.814l1.108,1.613l5.342,7.66
	c2.117,3.83,5.241,27.717,5.241,27.717s0.202,2.116,4.938,3.527c4.737,1.411,7.761-2.116,11.591-2.318c0.202,0,0.403,0,0.605-0.101
	C346.414,424.626,346.515,424.626,346.615,424.626z M435.209,423.014c-13.304,7.66-34.873,7.761-48.076,0.101
	c-12.7-7.357-13.103-19.149-1.21-26.911c0.403-0.302,0.907-0.604,1.411-0.906c0.504-0.303,1.108-0.605,1.612-0.807
	c13.405-6.854,33.765-6.652,46.465,0.705C448.614,402.855,448.514,415.354,435.209,423.014z M432.488,412.027l-27.516-15.925
	l-10.482,18.243L432.488,412.027z M472.703,206.719c0-0.101,0-0.101,0-0.202c0-0.302-0.101-0.706-0.101-1.008
	c0-0.101,0-0.101,0-0.202c0-0.302-0.102-0.604-0.202-0.806c0-0.101,0-0.101,0-0.202c-0.101-0.302-0.201-0.504-0.303-0.806
	c0-0.101-0.101-0.101-0.101-0.202c-0.101-0.202-0.201-0.504-0.302-0.706c0,0,0-0.101-0.102-0.101
	c-0.101-0.202-0.201-0.403-0.302-0.605c0-0.101-0.101-0.101-0.101-0.202c-0.102-0.201-0.303-0.403-0.403-0.504l-0.101-0.101
	c-0.102-0.101-0.303-0.303-0.403-0.403l-0.101-0.101c-0.202-0.101-0.403-0.303-0.505-0.403c0,0-0.101,0-0.101-0.101
	c-1.512-0.807-3.527-0.706-5.644,0.504c-1.613,0.907-3.125,2.419-4.436,4.233c-1.612-6.551-6.551-9.071-12.497-5.644
	c-6.753,3.83-12.196,14.11-12.901,23.383c-2.722,2.016-5.04,5.946-5.946,9.978c-0.303,0.101-0.706,0.202-1.109,0.504
	c-2.721,1.512-4.838,5.745-4.838,9.474c0,1.814,0.504,3.125,1.411,3.83c0.303,0.302,0.706,0.504,1.21,0.605
	c0.705,0.101,1.512-0.101,2.318-0.504l7.861-4.535l11.994-6.955l17.033-9.777c4.938-2.822,8.97-10.583,8.97-17.335
	C472.804,207.425,472.804,207.123,472.703,206.719z M328.775,347.623v-11.691l4.435-2.52l-10.381-4.334l-10.382,16.328l4.435-2.521
	v11.692L328.775,347.623z M280.699,477.037l5.14-2.923v13.404l13.506-7.761v-13.404l5.141-2.923l-11.894-5.04L280.699,477.037z
	 M230.606,474.517c-0.403-0.302-0.806-0.604-1.109-1.008c-1.411-1.512-2.419-3.729-3.628-6.047l-0.201-0.403
	c-2.218-5.141-0.403-9.373,1.108-14.211c-2.419,3.729-3.527,5.543-3.125,10.481c-1.411-2.419-3.125-4.737-5.644-6.147
	c-3.024-1.714-6.148-1.008-9.172-0.403c-3.024,0.705-5.947,1.31-8.265-0.907c-1.411-1.411-2.217-2.621-2.822-3.729
	c-3.125-4.938-5.342-4.838-10.785-4.636c4.132,0.402,6.854,0.201,9.979,5.14c0.706,1.109,1.512,2.419,3.023,3.83
	c1.209,1.21,2.621,1.714,4.032,1.814c-3.427,2.822-5.342,2.217-9.272,1.915c4.031,2.419,7.458,1.411,10.784-1.915
	c1.109-0.101,2.318-0.403,3.528-0.706c2.822-0.604,5.745-1.31,8.466,0.303c3.427,2.016,5.442,5.846,7.257,9.373
	c0.202,0.403,0.302,0.706,0.504,1.109c0.806,1.713,1.713,3.326,2.621,4.636c-5.443-2.016-9.979,0.202-12.397,5.342
	c2.52-4.031,7.458-7.559,14.514-3.225c3.024,2.217,5.846,2.52,8.87,2.217v-0.604c-2.721-0.101-5.442-0.403-7.559-1.713
	C231.312,475.021,231.11,474.819,230.606,474.517z M289.165,442.063l-17.437,10.079l-17.437-9.978v-6.753l-4.636,2.62l-9.273,5.342
	c1.915-1.814,4.334-3.226,6.753-4.838c-4.535,1.512-6.753,2.218-9.776,6.753c0.504-3.023,0.504-6.148-0.605-9.071
	c-1.411-3.527-4.535-5.14-7.458-6.551c-3.024-1.512-5.947-2.923-6.35-6.451c-0.202-2.116-0.101-3.729,0.101-5.039
	c0.706-6.35-1.209-7.761-6.047-11.288c3.225,3.124,5.644,4.838,4.938,11.188c-0.202,1.411-0.403,3.124-0.101,5.342
	c0.201,1.915,1.008,3.326,2.217,4.334c-4.838,0.101-6.047-1.714-9.071-4.737c1.713,4.737,5.342,6.35,10.381,5.745
	c1.008,0.705,2.217,1.311,3.427,1.915c2.822,1.411,5.745,2.822,6.955,5.946c1.613,4.031,0.605,8.668-0.302,12.901
	c-0.101,0.403-0.202,0.806-0.302,1.209c-0.504,2.016-0.807,3.931-0.907,5.745c-1.411-2.318-3.225-3.83-5.241-4.636
	c0.403,0.402,0.807,1.008,1.209,1.512c0,0,0,0.101,0.101,0.101c1.713,1.209,3.225,3.226,4.334,6.249
	c0.806,3.023,2.318,5.039,4.334,6.652v-1.613c-1.209-1.31-2.318-2.822-2.923-4.435c0-0.101-0.101-0.403-0.302-0.907
	c-0.101-0.504-0.202-1.108-0.302-1.612c-0.101-2.218,0.403-4.838,1.109-7.56l0.101-0.403c0.504-1.915,1.31-3.427,2.318-4.736v-0.807
	l34.772,20.057l0.101-0.101l34.671-19.956l-19.352-11.188V442.063z M216.697,251.772c0-0.303,0-0.605,0-0.907
	c0-0.101,0-0.202,0-0.303c0-0.201,0-0.403,0-0.504c0-0.101,0-0.201,0-0.302c0-0.101,0-0.302-0.101-0.403
	c0-0.101,0-0.303-0.101-0.403c0-0.101,0-0.202-0.101-0.302c-0.101-0.303-0.101-0.706-0.202-1.008l0,0
	c0-0.201-0.101-0.403-0.201-0.504v-0.101c-0.101-0.202-0.101-0.403-0.202-0.504l0,0c-0.605-1.613-1.512-2.923-2.722-3.628l0,0
	c-0.101-0.101-0.201-0.202-0.403-0.202h-0.101c-0.101-0.101-0.202-0.101-0.302-0.202c-0.101,0-0.101,0-0.202-0.101
	c-1.814-0.706-4.031-0.504-6.35,0.806c-2.016,1.109-3.83,3.024-5.443,5.14c-1.915-7.962-8.063-11.086-15.219-6.954
	c-8.164,4.737-14.917,17.134-15.824,28.624c-3.427,2.52-6.148,7.257-7.257,12.196c-0.403,0.101-0.806,0.302-1.31,0.604
	c-3.326,1.915-5.947,7.055-5.947,11.591c0,2.217,0.706,3.931,1.713,4.737c1.109,0.907,2.621,0.907,4.233,0l9.676-5.543l14.715-8.466
	l20.762-11.994C211.859,269.511,216.697,260.037,216.697,251.772z"></path>
<path id="color_x5F_1_1_" fill="#1B1D1E" d="M350.042,365.664c0,0,0.403-1.008-1.612-4.132s-5.141-0.505-9.374-0.101
	c-4.232,0.504-4.838-2.621-4.838-2.621c-3.931,2.822,0,8.365,0,8.365c-0.403,0.605,0,4.133,0,4.133s0,0,0.101,0l0,0l0,0h0.102h0.101
	h0.101h0.101c0,0,0.102,0,0.102,0.101c0,0,0.101,0,0.101,0.101l0.101,0.102l0.101,0.101c0.101,0,0.101,0.101,0.202,0.101
	l0.101,0.101c0.101,0.101,0.201,0.202,0.303,0.403c0.806,1.209-0.102,4.435-0.102,5.846c0,0.504,0,1.109,0.102,1.814l0,0
	c0,0.101,0.101,0.201,0.101,0.303c0,0,0,0,0,0.1c0,0.102,0.101,0.202,0.101,0.303c0,0,0,0,0,0.102
	c0.504,0.806,1.512,1.512,3.83,1.814c0.101,0,0.101,0,0.201,0c1.109,0.1,2.016,0.1,2.822-0.102l0,0c0.201,0,0.403-0.101,0.504-0.101
	s0.101,0,0.202,0c0.101,0,0.302-0.101,0.402-0.101c0.202-0.102,0.303-0.102,0.504-0.202c0,0,0,0,0.102,0
	c2.016-0.907,3.427-3.124,5.241-7.357l0,0c0.101-0.302,0.302-0.604,0.402-0.907c0.102-0.201,0.202-0.504,0.202-0.705v-0.102
	c0.201-0.705,0.403-1.41,0.504-2.116l0,0c0.101-0.604,0.101-1.108,0.101-1.512c0-0.101,0-0.202,0-0.302
	C351.252,366.672,350.042,365.664,350.042,365.664z"></path>
</svg>
