<svg version="1.1" id="Layer_2" xmlns="http://www.w3.org/2000/svg" x="0px" y="0px" viewBox="0 0 2000 2000" enable-background="new 0 0 2000 2000">
<path id="color_x5F_18" fill="#E6E769" d="M1302.4,1109l37.2,111.2l-307.9,187.9v-181.7L1302.4,1109z M1339.6,1220.2l77.8-35.8
	l40.8-134.7l-24.7-48.2L1339.6,1220.2z"></path>
<path id="color_x5F_17" fill="#A5AF44" d="M1375,795.5c0,0-4.4,11.9-16.8,0c0,0-11.2-2.1-10.8-11.5c0.4-9.5,10.8-8.7,10.8-8.7V767
	h19.2L1375,795.5z M1412.3,864.8c0,0,4.4,11.9,16.8,0c0,0,11.2-2.1,10.8-11.5c-0.4-9.5-10.8-8.7-10.8-8.7v-8.2h-19.2L1412.3,864.8z
	 M1419.2,839c21.6,14.2,20.1-16.7,20.1-16.7s2-2.9,8.8-5.9c6.9-2.9,5.9-10.8,2.5-22s-8.4,5.8-8.4,5.8c-15.7-21.1-31.4-6.9-31.4-6.9
	S1397.6,824.8,1419.2,839z M1400,802.4c0,0-15.7-14.2-31.4,6.9c0,0-4.9-17-8.4-5.8c-3.4,11.2-4.4,19.1,2.5,22s8.8,5.9,8.8,5.9
	s-1.5,31,20.1,16.7C1413.2,833.9,1400,802.4,1400,802.4z"></path>
<path id="color_x5F_16" fill="#C9DB53" d="M740.7,988c0,0-14.8,4.1-15.2-7.4c0,0-21.4-2.5-26.8-17.7c-5.4-15.2,14.8-22.7,14.8-22.7
	s9.1-25.1,22.2-25.1c0,0-8.2-24.3,2.9-21c11.1,3.3,15.7,16.5,15.7,16.5s33.8,11.9,18.5,30.7c0,0,26,20.8,9.5,36.9
	C765.8,994.2,740.7,988,740.7,988z M672.7,766.1c16.5-16.1-9.5-36.9-9.5-36.9c15.2-18.7-18.5-30.7-18.5-30.7s-4.5-13.2-15.7-16.5
	c-11.1-3.3-2.9,21-2.9,21c-13.2,0-22.3,25.1-22.3,25.1s-20.2,7.4-14.8,22.7c5.4,15.2,26.8,17.7,26.8,17.7
	c0.4,11.5,15.2,7.4,15.2,7.4S656.2,782.1,672.7,766.1z M1442.1,792c16.5-16.1-9.5-36.9-9.5-36.9c15.2-18.7-18.5-30.7-18.5-30.7
	s-4.5-13.2-15.7-16.5s-2.9,21-2.9,21c-13.2,0-22.2,25.1-22.2,25.1s-20.2,7.4-14.8,22.7c5.4,15.2,26.8,17.7,26.8,17.7
	c0.4,11.5,15.2,7.4,15.2,7.4S1425.6,808.1,1442.1,792z M950.8,499.7c16.5-16.1-9.5-36.9-9.5-36.9c15.2-18.7-18.5-30.7-18.5-30.7
	s-4.5-13.2-15.7-16.5s-2.9,21-2.9,21c-13.2,0-22.2,25.1-22.2,25.1s-20.2,7.4-14.8,22.7c5.4,15.2,26.8,17.7,26.8,17.7
	c0.4,11.5,15.2,7.4,15.2,7.4S934.3,515.8,950.8,499.7z"></path>
<path id="color_x5F_15" fill="#A5AF44" d="M681.3,768.5c3.4,11.2,4.4,19.1-2.5,22s-8.8,5.9-8.8,5.9s1,20.4-10.2,20.5v1.8
	c0,0,10.3-0.8,10.8,8.7c0.4,9.5-10.8,11.5-10.8,11.5c-12.4,11.9-16.8,0-16.8,0l-2.4-28.4h5.9c-10.4-9.5-9.7-23.9-7.7-33.4
	c7.7,0.5,19.9-0.2,30-7.6c1.4,1.4,2.8,3,4.2,4.9C672.9,774.3,677.8,757.3,681.3,768.5z M605.7,769.5l0.3-3.5
	c-6.4-2.4-14-6.9-16.9-15.2c-0.2-0.5-0.3-1-0.4-1.5c-1.4-0.1-10.2,0-10.6,8.7c-0.4,9.5,10.8,11.5,10.8,11.5
	C601.2,781.5,605.7,769.5,605.7,769.5z M630.2,776.1c-2.7,0.6-11.3,1.8-13.7-4.3c-5.2,0.5-11.2,3.3-17.3,11.5c0,0-4.9-17-8.4-5.8
	c-3.4,11.2-4.4,19.1,2.5,22s8.8,5.9,8.8,5.9s-1.5,31,20.1,16.7c21.6-14.2,8.4-45.7,8.4-45.7S630.5,776.3,630.2,776.1z M867.2,474.8
	H867v0.6C867,475.2,867.1,475,867.2,474.8z M589,741.1h-0.2v0.6C588.9,741.5,588.9,741.3,589,741.1z M698.6,953.1h-0.2v0.6
	C698.5,953.5,698.5,953.3,698.6,953.1z M782.5,986.3c-1.4-1.9-2.8-3.5-4.2-4.9c-10.2,7.4-22.4,8.1-30,7.6c-2,9.5-2.7,23.9,7.7,33.4
	h-5.9l2.4,28.4c0,0,4.4,11.9,16.8,0c0,0,11.2-2.1,10.8-11.5c-0.4-9.5-10.8-8.7-10.8-8.7v-1.8c11.2,0,10.2-20.5,10.2-20.5
	s2-2.9,8.8-5.9c6.9-2.9,5.9-10.8,2.5-22C787.4,969.3,782.5,986.3,782.5,986.3z M951.1,508c-1.4-1.9-2.8-3.5-4.2-4.9
	c-10.2,7.4-22.4,8.1-30,7.6c-2,9.5-2.7,23.9,7.7,33.4h-5.9l2.4,28.4c0,0,4.4,11.9,16.8,0c0,0,11.2-2.1,10.8-11.5
	c-0.4-9.5-10.8-8.7-10.8-8.7v-1.8c11.2,0,10.2-20.5,10.2-20.5s2-2.9,8.8-5.9s5.9-10.8,2.5-22C956,491,951.1,508,951.1,508z
	 M908.4,509.8c-2.7,0.6-11.3,1.8-13.7-4.3c-5.2,0.5-11.2,3.3-17.3,11.5c0,0-4.9-17-8.4-5.8c-3.4,11.2-4.4,19.1,2.5,22
	s8.8,5.9,8.8,5.9s-1.5,31,20.1,16.7c21.6-14.2,8.4-45.7,8.4-45.7S908.6,510,908.4,509.8z M883.8,503.2l0.3-3.5
	c-6.4-2.4-14-6.9-16.9-15.2c-0.2-0.5-0.3-1-0.4-1.5c-1.4-0.1-10.2,0-10.6,8.7c-0.4,9.5,10.8,11.5,10.8,11.5
	C879.3,515.2,883.8,503.2,883.8,503.2z M739.8,988.2c-2.7,0.6-11.3,1.8-13.7-4.3c-5.2,0.5-11.2,3.3-17.3,11.5c0,0-4.9-17-8.4-5.8
	c-3.4,11.2-4.4,19.1,2.5,22s8.8,5.9,8.8,5.9s-1.5,31,20.1,16.7c21.6-14.2,8.4-45.7,8.4-45.7S740.1,988.4,739.8,988.2z M715.3,981.6
	l0.3-3.5c-6.4-2.4-14-6.9-16.9-15.2c-0.2-0.5-0.3-1-0.4-1.5c-1.4-0.1-10.2,0-10.6,8.7c-0.4,9.5,10.8,11.5,10.8,11.5
	C710.8,993.5,715.3,981.6,715.3,981.6z"></path>
<path id="color_x5F_14" fill="#DEE7EC" d="M673.9,516.7c0,0,0.1-89.3,76.6-45.1s76.6,132.6,76.6,132.6
	c93.7,54.1,72.2,130.1,72.2,130.1L597.4,560C597.4,477.2,673.9,516.7,673.9,516.7z M1252,651.2l301.9,174.3c0,0,21.4-76-72.2-130.1
	c0,0,0-88.4-76.6-132.6c-76.6-44.2-76.6,45.1-76.6,45.1S1252,568.4,1252,651.2z M955.8,268.1l241.9,139.7c0,0,17.2-60.9-57.9-104.2
	c0,0,0-70.8-61.3-106.3c-61.3-35.4-61.4,36.1-61.4,36.1S955.8,201.8,955.8,268.1z"></path>
<path id="color_x5F_13" fill="#A5AF44" d="M1006.9,733.3c-17.7-0.4-23.1-9.9-27.9-24.7s4,0.8,0.3-21.4c-3.7-22.3,32.6,6.6,22.4-13.6
	c-10.2-20.2,16.3-11.1,3.6-28.4c-12.8-17.3,12.8-19.8,13.2-31.7s-3.7-31.7,6.2-23.1c9.9,8.7-1.2,11.9,16.5,31.7
	c17.7,19.8,0.8,25.1,13.6,38.7c12.8,13.6-4.1,26,8.2,35.8c12.4,9.9,4.5,19,0,28.8c-4.5,9.9-4.5-1.6-17.3,5.8
	c-12.8,7.4-21,2.5-21,2.5S1024.6,733.7,1006.9,733.3z M1285,571.6c17.7,0.4,17.7,0.4,17.7,0.4s8.2,4.9,21-2.5
	c10.7-6.2,12.4,0.9,15.4-2.5l0,0c6.6-10.6,17.4-18.4,34.8-16.1c3.8-7.5,6.6-14.8-3.1-22.6c-12.4-9.9,4.5-22.2-8.2-35.8
	c-12.8-13.6,4.1-19-13.6-38.7c-17.7-19.8-6.6-23.1-16.5-31.7c-9.9-8.7-5.8,11.1-6.2,23.1c-0.2,5.2-5.1,8.6-9.6,12.2
	c-14.1-17.2-4.6-20.6-13.9-28.8c-9.9-8.7-5.8,11.1-6.2,23.1c-0.4,11.9-26,14.4-13.2,31.7c12.8,17.3-13.7,8.2-3.6,28.4
	c10.2,20.2-26.1-8.7-22.4,13.6c3.7,22.3-5.1,6.6-0.3,21.4S1267.2,571.2,1285,571.6z M1117.1,1057.8c-12.4-9.9,4.5-22.3-8.2-35.8
	c-12.8-13.6,4.1-19-13.6-38.7c-17.7-19.8-6.6-23.1-16.5-31.7c-9.9-8.7-5.8,11.1-6.2,23.1c-0.2,5.2-5.1,8.6-9.6,12.2
	c-14.1-17.2-4.6-20.6-13.9-28.8c-9.9-8.7-5.8,11.1-6.2,23.1s-26,14.4-13.2,31.7c12.8,17.3-13.7,8.2-3.6,28.4
	c10.2,20.2-26.1-8.7-22.4,13.6c3.7,22.3-5.1,6.6-0.3,21.4s10.2,24.3,27.9,24.7c17.7,0.4,17.7,0.4,17.7,0.4s8.2,4.9,21-2.5
	c10.7-6.2,12.4,0.9,15.4-2.5c3.6,0.1,8.5-0.7,14.3-4.1c12.8-7.4,12.8,4.1,17.3-5.8S1129.4,1067.7,1117.1,1057.8z"></path>
<path id="color_x5F_12" fill="#E5E39F" d="M986.4,1705l842.2-486.3v88.4l-842.2,486.3l-842.2-486.3v-88.4L986.4,1705z M858,626.2
	l20-12.8l32.8-6.7l0.5,19.4c0,0,6.2,10.3,14.8,0l-0.6-22.4l43.4-8.9l13-57.5l96.5-16.2l4.3,80.2c-0.5,3.9-1,8.9-0.9,9.4
	c0.2,0.8,3,2,7.6,1.2s10.6-11.1,11.4-13.4c0.6-1.7-5-1.8-8-1.7c0.5-11.2,2.2-63.3,3.5-78.7l1.5-0.2c2.4,18.3,8.4,92.2,8.7,96.1
	c-0.2,2.4-0.9,9.2,0.1,9.6c1.2,0.5,18.8,2.3,24.1-4c5.3-6.3-13.5-6.4-13.5-6.4s-0.3-0.3-0.7-0.7l1.7-37.3l2.9-61.3l47.9-8.1
	l20.2,69.3c0,0,0.9,1.5,1.4-0.8c0.2-1-7.7-33.5-16.5-69.3l6.3-1.1l77.9,32.6c-0.9,4.7-4.5-0.5-1,10.2c4.8,14.8,10.2,24.3,27.9,24.7
	c17.7,0.4,17.7,0.4,17.7,0.4s1,0.6,2.9,1.1v27c-22.5-4.7-53.6-1.6-53.6,51.2l62.3,36l-32,35.7L933.6,834.1l16.7-181.7l-73-5.7
	C872.1,639.8,865.7,633,858,626.2z M979,708.6c4.8,14.8,10.2,24.3,27.9,24.7c17.7,0.4,17.7,0.4,17.7,0.4s1,0.6,2.9,1.1v48.1
	c0,3.2,2.6,5.8,5.8,5.8c3.5,0,6.2-3.1,5.7-6.5l-6.1-46.8c3.4-0.2,7.7-1.2,12.7-4.1c12.8-7.4,12.8,4.1,17.3-5.8
	c4.5-9.9,12.4-19,0-28.8c-12.4-9.9,4.5-22.2-8.2-35.8c-12.8-13.6,4.1-19-13.6-38.7c-17.7-19.8-6.6-23.1-16.5-31.7
	c-9.9-8.7-5.8,11.1-6.2,23.1c-0.4,11.9-26,14.4-13.2,31.7s-13.7,8.2-3.6,28.4c10.2,20.2-26.1-8.7-22.4,13.6
	C983,709.4,974.2,693.7,979,708.6z M1063,986.8c4.5-3.6,9.4-7,9.6-12.2c0.1-2.1,0-4.5-0.1-6.8l-16.6,7.8
	C1057.1,978.6,1059.2,982.2,1063,986.8z M1328.5,607.9c0,0,0-17.8,6.9-33.6V569l-4.9-2c-1.8,0.2-4,0.9-6.8,2.6
	c-5,2.9-9.3,3.9-12.7,4.1l3.8,28.9C1322.9,605,1328.5,607.9,1328.5,607.9z M823.2,1012.3C823.2,1012.3,823.2,1012.2,823.2,1012.3
	C823.2,1012.2,823.2,1012.3,823.2,1012.3z M755.2,1021.7v0.8h0.8C755.7,1022.2,755.5,1022,755.2,1021.7z M1417.5,869.8
	c-0.6-0.2-1.1-0.4-1.5-0.6l1.4,49.2c-8.7,10.3-14.8,0-14.8,0l-1.8-73.3l-2.3-3.4c-1.7,2.4-4,4.5-6.8,6.4
	c-21.6,14.2-20.1-16.7-20.1-16.7s-1.9-2.8-8.4-5.7l-81,39.7l-1.9,4.4l-196.2,92.6c0.6,4.5,1.8,10.3,11.3,20.9
	c17.7,19.8,0.8,25.1,13.6,38.7c12.8,13.6-4.1,26,8.2,35.8s4.5,19,0,28.8s-4.5-1.6-17.3,5.8c-5,2.9-9.3,3.9-12.7,4.1l6.1,46.8
	c0.5,3.5-2.2,6.5-5.7,6.5c-3.2,0-5.8-2.6-5.8-5.8v-47c-2.2-0.7-5.4-1.7-11.7,2c-5,2.9-9.3,3.9-12.7,4.1l6.1,46.8
	c0.5,3.5-2.2,6.5-5.7,6.5c-3.2,0-5.8-2.6-5.8-5.8v-48.1c-1.9-0.5-2.9-1.1-2.9-1.1s0,0-17.7-0.4c-17.7-0.4-23.1-9.9-27.9-24.7
	c-4.8-14.8,4,0.8,0.3-21.4c-3.7-22.3,32.6,6.6,22.4-13.6c-10.2-20.2,16.3-11.1,3.6-28.4c-12.6-17,11.9-19.7,13.1-31.1l-104.6,49.3
	l-52.6-53.7l-3,1.7c1.4,5.8,2.5,11.5,2.5,14.2c0,0-2,2.8-5.7,5.7c-0.3,4-0.8,8.5-1.4,13.4c0,0,8.4-10.2,35.4,27
	c1.2,0.6,2.6,1.5,3.7,2.6c0.3,0.2,0.4,0.6,0.5,1c0.6-0.2,1.3-0.5,2.2-0.8c3.3-1.2,5.4-1,6.6,0.7l0,0c0.1,0.1,0.2,0.3,0.2,0.4
	c0,0,0,0.1,0.1,0.1c0.1,0.1,0.1,0.2,0.2,0.4c0,0.1,0,0.1,0.1,0.2c0,0.1,0.1,0.2,0.1,0.4c0,0.1,0.1,0.2,0.1,0.3
	c0,0.1,0.1,0.2,0.1,0.3c0.1,0.2,0.1,0.5,0.1,0.7l0,0c0.1,0.3,0.1,0.7,0.2,1.1c0.1,0.4,0.2,0.8,0.3,1.1c0.2,0.9,0.5,1.9,0.8,3
	c0.1,0.3,0.2,0.5,0.2,0.8c0.3,0.8,0.5,1.6,0.8,2.3c0.1,0.2,0.2,0.5,0.2,0.7c0.6,1.8,1.2,3.2,1.6,4c0.1,0.1,0.1,0.2,0.2,0.3
	c0.4,0.6,1.5,2.4,2.5,4.7c0.1,0.2,0.2,0.4,0.2,0.6c0.4,1,0.7,2,0.9,3.1c0.1,0.5,0.2,1,0.2,1.6v0.1c0,1-0.1,2-0.4,3c0,0,0,0,0,0.1
	s-0.1,0.3-0.2,0.4c0,0.1-0.1,0.1-0.1,0.2s-0.1,0.2-0.1,0.3c0,0.1-0.1,0.2-0.1,0.3c0,0.1-0.1,0.2-0.1,0.2c0,0.1-0.1,0.2-0.1,0.3
	c0,0.1-0.1,0.1-0.1,0.2s-0.1,0.2-0.2,0.3c0,0.1-0.1,0.1-0.1,0.2c-0.1,0.1-0.1,0.2-0.2,0.3c0,0.1-0.1,0.1-0.1,0.2
	c-0.1,0.1-0.1,0.2-0.2,0.3l-0.1,0.1c-0.1,0.1-0.1,0.2-0.2,0.4c0,0,0,0.1-0.1,0.1c-0.1,0.1-0.2,0.2-0.2,0.4c0,0,0,0.1-0.1,0.1
	c-0.1,0.1-0.2,0.2-0.3,0.4c0,0,0,0.1-0.1,0.1c-0.1,0.1-0.2,0.2-0.3,0.4c0,0,0,0,0,0.1c-0.1,0.1-0.2,0.2-0.3,0.4l0,0
	c-0.1,0.1-0.2,0.2-0.3,0.3l0,0c-2.3,2.2-5.4,2.4-9-3.6l0,0l0,0c-0.3-0.5-0.6-1-0.9-1.6c-6.5-12.4-6.6-17.8-7.8-19c0,0-6-1.8-7.8-5
	l-38-24.1c0,0-5.7-1.6-8.1-11.9c-0.4-1.8-0.9-4-1.4-6.4c-0.4,0-0.8,0-1.2-0.1l-1.9-14l0,0l-7.2,18c0,0-2,0.3-5.1,0.4
	c-1.6,2.7-2.5,4.5-2.5,4.5c-0.9,5.3-3.7,16.4-4.2,18.4c-0.7,2.6-10.4,17.9-13.1,17.9c-0.3,0-0.7,0-1.2,0c-0.1,0.4-0.2,0.9-0.4,1.4
	c0.4,0.3,0.6,0.5,0.6,0.5s1.6,5.2,1.7,6.5c0.1,1.3-2.4,4.9-7.2,4c-4.9-1-8.7-5.3-12.8-5.9s-10.8-6.2-9.5-9.5s3.3-4.7,3.3-4.7
	s13.7,5.1,14.9,3.9l0,0c0.7-0.8,1.6-1.4,2.2-1.8c1.2-5.5,7.7-35,7.7-36.7c0-0.1,0-0.1,0.1-0.2c0-0.4,0-0.8-0.1-1.2
	c-0.7-0.4-1.5-0.8-2.1-1.3c0,0-0.9-14.1,6.2-27.8c-1.3-1.5-3.4-5.8-3.4-5.8l-2,0.9l-0.9-2.1c0,0,1.2-1.9,1.4-2.9s10.3-7,10.3-7
	l2.6-17.8l-86.2-43.1c3.8,4.6,5.5,9.5,5.5,9.5s33.8,11.9,18.5,30.7c0,0,26,20.8,9.5,36.9c-1.3,1.3-2.6,2.4-4,3.3
	c1.4,1.4,2.8,3,4.2,4.9c0,0,4.9-17,8.4-5.8c3.4,11.2,4.4,19.1-2.5,22s-8.8,5.9-8.8,5.9s1,20.4-10.2,20.5v1.8c0,0,10.3-0.8,10.8,8.7
	c0.4,9.5-10.8,11.5-10.8,11.5c-6.3,6-10.5,6-13.2,4.4l1.4,49.2c-8.7,10.3-14.8,0-14.8,0l-1.9-80.2c-1.9,3.7-4.8,7.1-9,9.9
	c-21.6,14.2-20.1-16.7-20.1-16.7s-0.4-0.6-1.4-1.5l-8.5,100.8l159.5,29.4L1028,1177l117.8-29.2l156.6-38.8l142.2-199L1417.5,869.8z
	 M823.4,1013.2c0.1,0.2,0.1,0.4,0.2,0.6C823.6,1013.6,823.5,1013.4,823.4,1013.2z M740,988.3v-0.1h-0.1
	C739.9,988.2,739.9,988.3,740,988.3z M708.8,995.4c6.1-8.2,12.2-11,17.3-11.5c-0.4-0.9-0.6-2-0.6-3.3c0,0-4.5-0.5-9.9-2.5l-0.3,3.5
	c0,0-4.4,11.9-16.8,0c0,0-11.2-2.1-10.8-11.5c0.4-8.7,9.1-8.7,10.6-8.7c-0.7-2.8-0.5-5.4,0.2-7.6v-0.6h0.2
	c3.3-8.7,14.9-12.9,14.9-12.9s9.1-25.1,22.2-25.1c0,0-8.2-24.3,2.9-21c0.9,0.3,1.8,0.6,2.7,1l31-86.5
	c-32.7,13.7-83.7,36.5-125.2,55.2l0.8,28.7c-8.7,10.3-14.8,0-14.8,0l-0.5-22.2c-31.5,14.2-54.6,24.8-54.6,24.8l39.9,31.7l81.8,65.1
	c0.2-0.8,0.5-1.6,0.7-2.4C703.8,978.4,708.8,995.4,708.8,995.4z"></path>
<path id="color_x5F_11" fill="#9A9F38" d="M891.2,886l56.7-206.8l-14.2,154.9l348.6-111.2l32-35.7l35,20.2l-67.3,158l0,0l-1.9,4.4
	l1.9-121.1L938.2,858.9v172.2l-52.6-53.7l11.4-6.6c2.7-1.6,4.4-4.5,4.4-7.7V958c2.4-1.7,3.8-4.4,3.8-7.3v-10.3
	c0-3.2-1.7-6.1-4.4-7.7c-1.4-0.8-2.9-1.2-4.4-1.2v-8.1l0.1-0.1l-0.1-13.2c0-3.1-1.2-6.1-3.2-8.4c0,0,0,0-0.1-0.1
	c-0.3-0.3-0.6-0.6-0.9-0.9c-0.2-0.2-0.3-0.3-0.5-0.4c-0.2-0.1-0.4-0.3-0.5-0.4c-0.4-0.3-0.7-0.5-1.1-0.7c0,0,0,0-0.1-0.1h-0.1l0,0
	l-1-0.6C893.2,895.7,894.1,889.9,891.2,886z M947.9,679.2l2.5-26.8l-73-5.7c3.5,4.5,6.4,9,9,13.4L947.9,679.2z M701.9,1116.9
	l8.5-100.8c-0.9-0.8-2.3-1.8-4.4-2.9l-45.9,96.1l-7.1,14.8l-91,190.2l113.7,115l-21-265.8l42.7,7.1l334.3,55.9l270.7-117.4
	l-274.4,68L701.9,1116.9z M578,895.1l-110,309l149.9-277.3L578,895.1z"></path>
<path id="color_x5F_10" fill="#E2DE36" d="M1039,782.1c0.5,3.5-2.2,6.5-5.7,6.5c-3.2,0-5.8-2.6-5.8-5.8v-48.1
	c1.4,0.3,3.2,0.6,5.4,0.5L1039,782.1z M921,572.5l-2.4-28.4h5.1v-0.8c-9.6-9.5-8.9-23.4-6.9-32.7c-4.6-0.3-7.6-1-7.6-1
	s-0.3,0.1-0.7,0.2v0.1c0.2,0.1,0.2,0.2,0.2,0.2s8.6,20.4,0.6,35.8l1.9,80.2c0,0,6.2,10.3,14.8,0l-1.4-49.2
	C922.1,575.4,921,572.5,921,572.5z M752.5,1050.9l-2.4-28.4h5.1v-0.8c-9.6-9.5-8.9-23.4-6.9-32.7c-4.6-0.3-7.6-1-7.6-1
	s-0.3,0.1-0.7,0.2v0.1c0.2,0.1,0.2,0.2,0.2,0.2s8.6,20.4,0.6,35.8l1.9,80.2c0,0,6.2,10.3,14.8,0l-1.4-49.2
	C753.6,1053.8,752.5,1050.9,752.5,1050.9z M1057.4,1103.1c-2.2,0.1-4-0.2-5.4-0.5v48.1c0,3.2,2.6,5.8,5.8,5.8c3.5,0,6.2-3.1,5.7-6.5
	L1057.4,1103.1z M642.9,838.8l-2.4-28.4h5.1v-0.8c-9.6-9.5-8.9-23.4-6.9-32.7c-4.6-0.3-7.6-1-7.6-1s-0.3,0.1-0.7,0.2v0.1
	c0.2,0.1,0.2,0.2,0.2,0.2s8.6,20.4,0.6,35.8l1.9,80.2c0,0,6.2,10.3,14.8,0l-1.4-49.2C644,841.7,642.9,838.8,642.9,838.8z M1414,803
	c-7.8,0.3-13.6-1.1-13.6-1.1s-0.3,0.1-0.7,0.2l2.8,116.3c0,0,6.2,10.3,14.8,0L1414,803z M1087.1,1096.5c-0.6,0-1.1,0-1.7,0
	c-1.2,1.4-2.2,1-3.7,0.5v47.1c0,3.2,2.6,5.8,5.8,5.8c3.5,0,6.2-3.1,5.7-6.5L1087.1,1096.5z M1335.4,567.5v6.7
	c1.1-2.5,2.3-4.9,3.8-7.2l0,0C1337.9,568.4,1336.9,568.1,1335.4,567.5z M1305.6,573.1v27c3.3,0.7,6.4,1.5,9.2,2.4l-3.8-28.9
	C1308.8,573.7,1307,573.4,1305.6,573.1z M828.8,867.7c0,0.1,0,0.2,0.1,0.3C828.8,868,828.8,867.8,828.8,867.7z M829,868.8
	c0-0.1-0.1-0.2-0.1-0.4C828.9,868.6,828.9,868.7,829,868.8z M829.4,870.1c-0.1-0.1-0.1-0.3-0.2-0.5
	C829.2,869.9,829.3,870,829.4,870.1z M829.1,869.5c0-0.1-0.1-0.2-0.1-0.4C829.1,869.2,829.1,869.4,829.1,869.5z M741.3,895.1
	l74.9-208.7l83.1,48c0,0,9.8-34.9-13-74.3l61.5,19.1L891.2,886c-0.6-0.9-1.5-1.7-2.5-2.3c-2.7-1.7-6.1-1.8-8.9-0.3l-10.9,5.8
	c-1.5,0-3.4,0-5.3,0.1c-1.6-0.2-3.2-0.1-4.7,0.4l-0.8,0.3c-1,0.2-2.1,0.6-3.3,1c-0.3-0.5-0.8-1.3-1.3-1.9c2.9-1.4,5.5-3.5,7.3-5.6
	c2.9-0.7,6.6-2.3,10-5.9c0.8,0.5,1.7,0.8,2.8,0.8c3,0,5.5-2.4,5.5-5.5c0-2-1.1-3.8-2.8-4.7c-1.4-4.9-21.2-20.6-35.4-16.1
	c-7.1,0.7-11.4,5.4-11.4,5.4c-1,0.8-1.1,4.2-0.9,7.3c-0.6,2.9-1.4,7.5-0.9,9.3c0.7,2.7,2,3.3,2,3.3v8.9c0,0-0.2,6,4.6,7.7
	c2.3,0.8,5.5,0.2,8.1-0.7c0,0.2,0,0.3,0,0.5c-0.8,0-1.5,0.2-2.2,0.6l-0.5,0.3c-2.1,1.2-2.9,3.7-2,5.9l0.1,0.3c-1.8,1.8-3.7,4-5.4,6
	l0,0l-0.4,0.5c-0.9,1.1-1.8,2.2-2.4,3.2l-0.3,0.4c0,0-4.1,4.2,0.4,20.2c2.1,7.5,5.7,10.9,5.7,10.9l-0.3,2.2l-86.2-43.1
	C746.8,898.8,744.3,896.6,741.3,895.1z M828.7,867.2c0-0.1,0-0.1,0-0.2C828.7,867.1,828.7,867.2,828.7,867.2z M1363,825.7l-81,39.7
	l67.3-158l38.4,22.2l-0.2,2.5c-8.7,6.7-14.2,22-14.2,22s-11.6,4.3-14.9,12.9h-0.2v0.6c-0.7,2.3-0.9,4.8-0.2,7.6
	c-1.4-0.1-10.2,0-10.6,8.7c-0.4,9.5,10.8,11.5,10.8,11.5c12.4,11.9,16.8,0,16.8,0l0.3-3.5c3.1,1.2,6,1.8,7.8,2.2l-0.3,4.2
	c-4.4,1.2-9.4,4.4-14.3,11c0,0-4.9-17-8.4-5.8s-4.4,19.1,2.5,22C1362.8,825.6,1362.9,825.6,1363,825.7z M1433.4,1001.4l-93.8,218.8
	l-37.2-111.2l142.2-199L1433.4,1001.4z M1458.1,1049.6v70.9l-48.2,128.9h-118.2l47.8-29.2l77.8-35.8L1458.1,1049.6z M706,1013.1
	l-144,301.1l-93.9-110L618,926.9l81.8,65.1c-2.8,9.9-3.2,16.9,3.2,19.6C704,1012.1,705.1,1012.6,706,1013.1z M1282,748.6l-1.9,121.1
	l-196.2,92.6c-0.5-3.9-0.6-6.8-5.2-10.8c-8.1-7.1-6.8,5-6.3,16.2l-16.6,7.8c-3.2-8.1,0-11.5-6.9-17.5c-9.9-8.7-5.8,11.1-6.2,23.1
	c0,0.2,0,0.4-0.1,0.6L938,1031V858.9L1282,748.6z M654.7,1163.4l377,63v181.7l-356,21L654.7,1163.4z"></path>
<path id="color_x5F_9" fill="#FFFFFF" stroke="#FFFFFF" stroke-miterlimit="10" d="M873.5,867.4c3,0,5.5,2.4,5.5,5.5
	c0,3-2.4,5.5-5.5,5.5s-5.5-2.4-5.5-5.5C868.1,869.8,870.5,867.4,873.5,867.4z M814.9,1046.8c0,0,0.1-0.3,0.2-0.9
	c-1.5,1-4.2,3.1-3.6,5.6c0.8,3.5,7.6,4.1,9,3.3c0.9-0.5,1.5-2.3,1.8-3.3C819.4,1051.5,814.9,1051,814.9,1046.8z M913.9,1053.8
	c0,0-6-1.8-7.8-5c7.5-3.4,7.3-9.4,7.3-9.4c1.2,0.6,2.6,1.5,3.7,2.6c0.3,0.2,0.4,0.6,0.5,1c-2.6,0.9-3,0.9-3,0.9
	S912.7,1052.6,913.9,1053.8z"></path>
<path id="color_x5F_8" fill="#4F8FBA" d="M1103.3,437.2l-35.7-18.9c-0.3-0.1-0.5-0.3-0.8-0.5l-1,0.6c-3.9,2.2-6.3,6.4-6.3,10.8
	l-0.1,13l35.1,20.2v-10.1C1094.6,446.2,1098,440.4,1103.3,437.2L1103.3,437.2z M1077.1,450.3c-1.1,0-2-1.6-2-3.6s0.9-3.6,2-3.6
	s2,1.6,2,3.6C1079,448.7,1078.1,450.3,1077.1,450.3z M1054.6,476.3c-2.3-1.6-3.8-4.3-3.8-7.2V459c0-3.1,1.7-6,4.4-7.6
	c1.4-0.8,2.9-1.2,4.4-1.2v13c-0.2,0.1-0.4,0.2-0.6,0.3c-1.8,1-3.1,2.6-3.8,4.5l0,0c-0.1,0.2-0.2,0.5-0.2,0.7c0,0.1,0,0.2-0.1,0.3
	c-0.1,0.2-0.1,0.5-0.2,0.7c0,0.1,0,0.2,0,0.3c0,0.3-0.1,0.7-0.1,1L1054.6,476.3L1054.6,476.3z M1112,436.9L1112,436.9
	c-2.4,1.5-5.4,1.7-8,0.7l-0.8-0.4c-5.9-3.1-6.3-11.6-0.6-15.1l0,0c2.4-1.5,5.4-1.7,8-0.7l0.8,0.4
	C1117.4,424.9,1117.7,433.3,1112,436.9z M843.5,902.6l0.8-0.4c2.6-1.1,5.6-0.8,8.1,0.7l0,0c5.8,3.6,5.5,12.2-0.6,15.4l-0.8,0.4
	c-2.6,1.1-5.6,0.8-8.1-0.7l0,0C837.2,914.3,837.5,905.8,843.5,902.6z M896.4,910.2c0-4.6-2.5-8.8-6.4-11l-1-0.6
	c-0.3,0.2-0.5,0.3-0.8,0.5l-36.3,19.2l0,0c5.5,3.2,8.8,9.1,8.9,15.4V944l35.8-20.5L896.4,910.2z M905.2,940.5v10.3
	c0,2.9-1.4,5.6-3.8,7.3v-5.2c0-0.3,0-0.7-0.1-1c0-0.1,0-0.2,0-0.3c0-0.3-0.1-0.5-0.2-0.8c0-0.1,0-0.2-0.1-0.3
	c-0.1-0.2-0.1-0.5-0.2-0.7l0,0c-0.7-1.9-2-3.5-3.8-4.5c-0.2-0.1-0.4-0.2-0.6-0.3v-13.2c1.5,0,3.1,0.4,4.4,1.2
	C903.5,934.4,905.2,937.3,905.2,940.5z"></path>
<path id="color_x5F_7" fill="#BEDDED" d="M1077.6,499.5c-0.4-0.2-0.8-0.3-1.2-0.5C1076.8,499.2,1077.2,499.4,1077.6,499.5z
	 M1054.7,469.9c0,0.1,0,0.2,0,0.3C1054.7,470.1,1054.7,470,1054.7,469.9z M1054.9,468.8c0,0.1,0,0.2-0.1,0.3
	C1054.9,469,1054.9,468.9,1054.9,468.8z M1080.5,500.1c0.3,0,0.6,0,1,0C1081.1,500.1,1080.8,500.1,1080.5,500.1z M1078,499.7
	c0.3,0.1,0.6,0.2,0.9,0.3C1078.6,499.8,1078.3,499.8,1078,499.7z M1085.2,473.8l-17.6-10.1c-2.7-1.5-6-1.5-8.7,0
	c-1.8,1-3.1,2.6-3.8,4.5c1.8-0.2,3.5,0.2,5.1,1.1l17.6,10.1c2.7,1.6,4.4,4.4,4.4,7.5V497c0,1.1-0.2,2.1-0.6,3.1
	c1.2-0.1,2.4-0.5,3.5-1.1l0,0c2.7-1.6,4.3-4.4,4.3-7.5v-10.1C1089.6,478.2,1087.9,475.3,1085.2,473.8z M1080.1,500.1
	c-0.3,0-0.6-0.1-0.9-0.1C1079.5,500,1079.8,500.1,1080.1,500.1z M1111.8,472.2c-0.7-0.3-1.4-0.5-2.2-0.6
	C1110.3,471.7,1111.1,471.9,1111.8,472.2z M1104.1,472.7c0.7-0.4,1.4-0.7,2.1-0.9C1105.5,472,1104.8,472.3,1104.1,472.7
	L1104.1,472.7L1104.1,472.7z M1102.4,474c-0.1,0.1-0.2,0.1-0.2,0.2C1102.3,474.1,1102.4,474,1102.4,474z M1103.2,473.3
	c-0.1,0.1-0.2,0.1-0.3,0.2C1103.1,473.4,1103.1,473.3,1103.2,473.3z M1114.7,484.1c-2.7,1.6-6,1.6-8.7,0s-4.4-4.4-4.4-7.6v-1.7
	c-1.2,1.5-1.9,3.4-1.9,5.4v10.1c0,3.1,1.7,6,4.4,7.6c2.7,1.6,6,1.6,8.7,0s4.4-4.4,4.4-7.6V482
	C1116.5,482.8,1115.7,483.6,1114.7,484.1z M873.9,982.2c-1.2-0.1-2.4-0.5-3.6-1.1l0,0c-2.7-1.6-4.4-4.5-4.4-7.7v-10.3
	c0-3.2,1.7-6.1,4.4-7.7l17.9-10.3c2.7-1.6,6.1-1.6,8.8,0c1.8,1,3.1,2.7,3.8,4.5c-1.8-0.2-3.6,0.2-5.2,1.1L877.7,961
	c-2.7,1.6-4.4,4.5-4.4,7.7V979C873.3,980.2,873.5,981.3,873.9,982.2z M876.8,982.1c0.3-0.1,0.6-0.2,0.9-0.3
	C877.3,981.9,877,982,876.8,982.1z M901.4,951.8c0-0.1,0-0.2,0-0.3C901.3,951.6,901.3,951.7,901.4,951.8z M901.1,950.5
	c0,0.1,0,0.2,0.1,0.3C901.1,950.6,901.1,950.5,901.1,950.5z M878,981.7c0.4-0.2,0.8-0.3,1.2-0.6C878.8,981.3,878.4,981.5,878,981.7z
	 M874.1,982.3c0.3,0,0.7,0,1,0C874.7,982.3,874.4,982.3,874.1,982.3z M876.3,982.1c-0.3,0.1-0.6,0.1-0.9,0.1
	C875.8,982.2,876.1,982.2,876.3,982.1z M853.6,956.6v1.7c0,3.2-1.7,6.1-4.4,7.7c-2.8,1.6-6.1,1.6-8.9,0c-1-0.6-1.8-1.3-2.5-2.2v8.5
	c0,3.2,1.7,6.1,4.4,7.7c2.8,1.6,6.1,1.6,8.9,0c2.8-1.6,4.4-4.5,4.4-7.7V962C855.5,960.1,854.8,958.1,853.6,956.6z"></path>
<path id="color_x5F_6" fill="#F8F7D0" d="M1828.6,1218.8L986.4,1705l-842.2-486.3l401.1-231.6l-77.2,217l93.9,110l113.7,115l356-21
	l0,0l307.9-187.9l-47.8,29.2H1410l48.2-128.9v-70.9l-23.1,76.2l23.1-76.2l-24.7-48.2l1.2-10.1L1828.6,1218.8z"></path>
<path id="color_x5F_5" fill="#FFD2BB" d="M1077.2,500l0.6,11.2c-2.3-1.5-5.1-4.1-5.4-6.1c-0.5-2.8,1.1-7.7,2.1-10.3l2.7,1
	C1077.1,498.5,1077.2,500,1077.2,500z M1117.5,386.4c0,0,0,0.1-0.1,0.1c-0.4,0.5-1.1,0.9-2,1.3l0,0c-0.5,0.2-1.1,0.5-1.6,0.7
	c-0.4,0.2-0.9,0.3-1.4,0.5c-0.4,0.1-0.7,0.3-1.1,0.4c-0.3,0.1-0.6,0.2-0.9,0.3c-0.4,0.2-0.9,0.3-1.3,0.5c-3,1.2-0.9,8-0.9,8h-1.6
	l-0.1-2.4l0,0l0,0l0,0c0,0,0,0,0-0.1l0,0v-0.1l0,0c0-0.6-0.1-1.8-1.6-3.1l0,0c-0.1-0.1-0.3-0.2-0.4-0.4l0,0c-0.9,1-2,2-3.2,2.8l0,0
	c0,0.1,0.1,0.2,0.1,0.3c0,0,0,0.1,0.1,0.1c0,0.1,0.1,0.1,0.1,0.2c0,0,0,0.1,0.1,0.1c0,0.1,0,0.1,0.1,0.1v0.1c0,0,0,0.1,0.1,0.1v0.1
	c0,0,0,0.1,0.1,0.1c0,0,0,0,0,0.1v0.1l0,0c0,0.1,0.1,0.1,0.1,0.1c-0.1,0.3-0.2,0.5-0.2,0.7c-0.3,0.8-0.8,1.3-1.4,1.6
	c-0.1,0.1-0.2,0.1-0.3,0.2c-1.7,0.7-4.2-0.2-6.4-0.2c1.1,2.1,2.2,3.8,2.7,4.9c0.3,0.6,1.3,1.3,2.7,1.9v2.5l10.9,1.8c0,0,0,0,0,0.1
	c-0.1-0.6-0.3-1.3-0.4-1.9c5,0.6,9.7,0.5,11-1c2.9-3.3-2.9-21.3-2.9-21.3C1117.9,385.7,1117.8,386.1,1117.5,386.4z M1156.5,431.6
	c-0.3,0.1-0.5,0.3-0.6,0.6l0,0c-0.1,0.1-0.1,0.2-0.2,0.3v0.1c0,0.1,0,0.1-0.1,0.2c-0.2,0.5-0.3,1-0.7,1.5l0,0c0,0,0,0,0,0.1l0,0
	c-0.1,0.1-0.2,0.2-0.2,0.3l0,0l0,0c-0.2,0.3-0.5,0.5-0.9,0.8l0,0l0,0c-0.2,0.1-0.3,0.2-0.5,0.3l0,0c-0.1,0-0.1,0.1-0.2,0.1l0,0
	c-0.2,0.1-0.3,0.2-0.5,0.3c-0.1,0-0.1,0.1-0.2,0.1l0,0c-0.2,0.1-0.4,0.2-0.6,0.2c-0.1,0-0.2,0.1-0.2,0.1l0,0c-0.3,0.1-0.6,0.2-1,0.3
	c-0.3,0.1-0.5,0.2-0.8,0.2c-0.2,0.1-0.5,0.2-0.7,0.3c-3.6,1.5-3.4,3.9-3.1,5l1-0.9c0,0,5.7,1,6.7,4.9c0.4-0.2,0.8-0.3,1.2-0.6
	c0.1,0,0.2-0.1,0.3-0.1c0.2-0.1,0.3-0.2,0.5-0.3c0.2-0.1,0.3-0.2,0.5-0.3c0.1-0.1,0.2-0.1,0.3-0.2c0.2-0.1,0.3-0.2,0.5-0.3
	c0.2-0.1,0.4-0.2,0.5-0.4c0.1,0,0.1-0.1,0.2-0.1c0.4-0.3,0.8-0.7,1.2-1l0,0c1-1,1.9-2.2,2.5-3.6
	C1163.4,433.9,1158.1,430.8,1156.5,431.6z M853.5,889c1,1.2,1.8,2.7,1.8,2.7c-4.5-0.3-12.7,5-12.7,5s-0.4-2.5-0.4-3.6
	c-2.7,0.9-5.8,1.5-8.1,0.7c-4.7-1.7-4.6-7.7-4.6-7.7v-8.9c0,0-1.3-0.6-2-3.3c-0.5-1.8,0.4-6.4,0.9-9.3c0.1,0.8,0.1,1.6,0.2,2.3
	c0,0.1,0,0.1,0,0.2c0,0.2,0.1,0.3,0.1,0.5c0,0.1,0,0.2,0.1,0.3c0,0.1,0,0.3,0.1,0.4c0,0.1,0.1,0.2,0.1,0.4c0,0.1,0,0.2,0.1,0.3
	c0,0.1,0.1,0.3,0.1,0.4c0,0.1,0,0.1,0.1,0.2c0.1,0.2,0.1,0.3,0.2,0.5c1,2.3,2.9,3.5,2.9,3.5c-0.8,12,1.7,10.2,1.7,10.2
	c-0.7-3.7,0.1-6.3,3.3-6.6s2.4,7.2,2.4,7.2s-0.5,5.7,4.7,6.6l0,0l0,0c0.6,0.1,1.2,0.2,1.9,0.1C848.5,891,851.1,890.2,853.5,889z
	 M882.7,931.4l11.7-6.7l0,0L882.7,931.4L882.7,931.4z M821.6,973.9l-0.9-2.1c0,0,1.2-1.9,1.4-2.9s10.3-7,10.3-7l2.9-20
	c0,0-3.6-3.4-5.7-10.9c-4.5-15.9-0.4-20.2-0.4-20.2l3.1-4.1c4.7,1.7,8.3,8.9,10.8,16V954l0,0c-0.3,0.1-0.6,0.3-0.8,0.4
	c-2.8,1.6-4.4,4.5-4.4,7.7v1.7v6.4c-3.1,3.8-9.5,9-10.2,9c-0.9,0-4-6.3-4-6.3L821.6,973.9z M843.9,953.6L843.9,953.6L843.9,953.6
	L843.9,953.6z M906.1,1048.8l-38-24.1c0,0-5.7-1.6-8.1-11.9c-0.4-1.8-0.9-4-1.4-6.4c9,0.5,16.2-3.6,20.8-7.4
	c-0.3,4-0.8,8.5-1.4,13.4c0,0,8.4-10.2,35.4,27C913.4,1039.4,913.7,1045.4,906.1,1048.8z M843.2,1010.7c-1.6,2.7-2.5,4.5-2.5,4.5
	c-0.9,5.3-3.7,16.4-4.2,18.4c-0.7,2.6-10.4,17.9-13.1,17.9c-2.6,0-8.6,0.1-8.6-4.7c0,0,7.8-35.8,7.9-37.6c0-0.1,0-0.1,0.1-0.2
	c0-0.4,0-0.8-0.1-1.2C828.7,1010.8,837.6,1011,843.2,1010.7z"></path>
<path id="color_x5F_4" fill="#00CEC9" d="M1117.4,419.8l-2.4,5.4c0-0.1-0.1-0.2-0.1-0.3c-0.8-1.3-1.9-2.4-3.4-3.2l-0.8-0.4l0,0
	l-5.5-2.9l4.4-4.1c1.5-1.4,3.7-1.7,5.5-0.6l0.5,0.3C1117.5,415.1,1118.3,417.6,1117.4,419.8z M1095.1,413.1l2.1-3.7l-0.8-0.3
	c-1.7-0.6-3.5-0.7-5.3-0.3l-2.9,0.7L1095.1,413.1z M1099.7,490.4v-10.1c0-2,0.7-3.9,1.9-5.4l0,0c0.2-0.2,0.4-0.5,0.6-0.7
	c0.1-0.1,0.2-0.2,0.2-0.2c0.2-0.2,0.4-0.3,0.5-0.5c0.1-0.1,0.2-0.1,0.3-0.2c0.3-0.2,0.6-0.4,0.9-0.6l0,0c0.7-0.4,1.4-0.7,2.1-0.9
	c1.1-0.3,2.2-0.4,3.4-0.2c0.7,0.1,1.5,0.3,2.2,0.6c0.1,0,0.2,0.1,0.2,0.1v-35.4c-0.3,0.2-0.6,0.4-0.9,0.5c-0.1,0.1-0.2,0.1-0.4,0.1
	c-0.2,0.1-0.4,0.2-0.7,0.3c-0.1,0-0.3,0.1-0.5,0.1c-0.2,0.1-0.4,0.1-0.6,0.1s-0.3,0.1-0.5,0.1s-0.4,0-0.6,0.1c-0.2,0-0.4,0-0.5,0
	c-0.2,0-0.3,0-0.5,0s-0.4,0-0.6-0.1c-0.2,0-0.3,0-0.5-0.1c-0.2,0-0.4-0.1-0.6-0.1s-0.3-0.1-0.5-0.1c-0.2-0.1-0.4-0.1-0.6-0.2h-0.1
	l-0.1-0.1c-0.2-0.1-0.4-0.2-0.6-0.3l0,0c-5.4,3.2-8.7,8.9-8.7,15.2v3.5v6.6l0,0l-0.1,37.6l8-3.4
	C1100.8,495.1,1099.7,492.8,1099.7,490.4z M840,906.1l-2.4-5.5c-0.9-2.2-0.1-4.7,2-5.9l0.5-0.3c1.8-1,4-0.8,5.6,0.6l4.4,4.2l-5.6,3
	l0,0l-0.8,0.4c-0.4,0.2-0.7,0.4-1.1,0.7c-0.7,0.5-1.2,1-1.7,1.6C840.4,905.3,840.2,905.7,840,906.1z M867.2,890.1l-3-0.7
	c-1.8-0.4-3.6-0.3-5.3,0.3l-0.8,0.3l2.1,3.7L867.2,890.1z M851.8,918.3c-0.2,0.1-0.4,0.2-0.6,0.3l-0.1,0.1H851
	c-0.2,0.1-0.4,0.1-0.6,0.2c-0.2,0-0.3,0.1-0.5,0.1c-0.2,0.1-0.4,0.1-0.6,0.1c-0.2,0-0.3,0.1-0.5,0.1s-0.4,0-0.6,0.1
	c-0.2,0-0.3,0-0.5,0s-0.4,0-0.6,0c-0.2,0-0.4,0-0.6-0.1c-0.2,0-0.3,0-0.5-0.1c-0.2,0-0.4-0.1-0.6-0.1c-0.2,0-0.3-0.1-0.5-0.1
	c-0.2-0.1-0.4-0.2-0.7-0.3c-0.1,0-0.2-0.1-0.4-0.1c-0.3-0.2-0.7-0.3-1-0.5v36c2.6-1.2,5.6-1,8.1,0.4l0,0c0.3,0.2,0.6,0.4,0.9,0.6
	c0.1,0.1,0.2,0.1,0.3,0.2c0.2,0.2,0.4,0.3,0.6,0.5c0.1,0.1,0.2,0.2,0.2,0.2c0.2,0.2,0.4,0.4,0.6,0.7l0,0c1.2,1.5,1.9,3.5,1.9,5.5
	v10.3c0,2.5-1.1,4.8-2.8,6.5l8.1,3.4l-0.1-48.5C860.7,927.4,857.3,921.5,851.8,918.3z"></path>
<path id="color_x5F_3" fill="#E84393" d="M1079,446.7c0,2-0.9,3.6-2,3.6s-2-1.6-2-3.6s0.9-3.6,2-3.6
	C1078.1,443.2,1079,444.8,1079,446.7z M1077.9,479.3l-17.6-10.1c-1.6-0.9-3.4-1.3-5.1-1.1c-0.4,1-0.6,2-0.6,3.1v10.1
	c0,3.1,1.7,6,4.3,7.5l17.5,10.1c1.6,0.9,3.4,1.3,5.2,1.1c0.4-1,0.6-2,0.6-3.1v-10.1C1082.2,483.8,1080.6,480.9,1077.9,479.3z
	 M1104,437.5c-0.2-0.1-0.4-0.2-0.6-0.3l-35.7-18.9c-5.9-3.1-6.3-11.6-0.6-15.1l0,0c2.6-1.7,6-1.8,8.7-0.3l34.9,18.5
	c-2.6-1.1-5.6-0.8-8,0.7l0,0c-5.7,3.6-5.4,12,0.6,15.1L1104,437.5z M1089.6,491.4v-10.1c0-3.1-1.7-6-4.4-7.5l-17.6-10.1
	c-2.5-1.4-5.5-1.5-8-0.3v-20.9l35,20.1l-0.1,37.6c-2.8,0-5.6-0.7-8.1-2C1088.4,496.5,1089.6,494,1089.6,491.4z M1117.2,480.3v1.7
	c-0.7,0.9-1.5,1.6-2.5,2.2c-2.7,1.6-6,1.6-8.7,0s-4.4-4.4-4.4-7.6v-1.7c0.7-0.9,1.5-1.6,2.5-2.2c2.7-1.6,6-1.6,8.7,0
	S1117.2,477.1,1117.2,480.3z M1110.1,409.6c0.5,1.9,0.9,3.7,0.9,3.7s0,0,0.1,0c-0.6,0.2-1.2,0.5-1.6,1l-4.4,4.1L1095,413l2.1-3.7
	c1.3,0.5,2.1,1.1,2.1,1.1v-2.7L1110.1,409.6z M1117.1,613.3c0,0-0.3-0.3-0.7-0.7v0.3c0,0-4,5.1-9.9,1.3c0,0,0-0.1,0-0.2
	c-0.2,2.4-0.9,9.2,0.1,9.6c1.2,0.5,18.8,2.3,24.1-4C1135.9,613.4,1117.1,613.3,1117.1,613.3z M1146.8,441.6l-16.1,15.6
	c1.3-32.6-11.2-38.1-11.7-38.3l-0.1,0.1c-0.4-0.6-0.8-1.2-1.3-1.7c0.1,0.8,0,1.6-0.3,2.4l-2.4,5.4c2.1,3.8,1.2,9.1-3,11.7l0,0l0,0
	v35.4c0,0-0.1,0-0.1-0.1c0.3,0.1,0.6,0.3,0.9,0.5c2.7,1.6,4.4,4.4,4.4,7.6v1.7l0,0v8.4c0,3.1-1.7,6-4.4,7.6c-2.7,1.6-6,1.6-8.7,0
	c-0.6-0.3-1.1-0.7-1.6-1.2l0,0l-8,3.4l0.1-37.4l-0.1,37.4c-2.8,0-5.6-0.7-8.1-2l0,0c-0.4,0.3-0.8,0.6-1.2,0.9l0,0
	c-1.1,0.6-2.3,1-3.5,1.1l0,0c-0.1,0-0.1,0-0.2,0c-0.3,0-0.6,0-1,0c-0.1,0-0.2,0-0.4,0c-0.3,0-0.6-0.1-0.9-0.1c-0.1,0-0.3,0-0.4-0.1
	c-0.3-0.1-0.6-0.2-0.9-0.3c-0.1,0-0.2-0.1-0.4-0.1c-0.2-0.1-0.3-0.1-0.5-0.2c0,0.4,0,0.7,0,0.7l0.2,3c11.3,1.9,28.9,3.6,44.1,0.1
	l0.1-1.2c0,0-0.1-11-0.2-24.9c2.2,1.4,5.1,2.2,8.8,0.9c9.5-3.3,23.5-29.5,23.5-29.5C1154.3,443,1146.8,441.6,1146.8,441.6z
	 M1082.6,388.4c0,1.9-1,3.4-2.5,4.3c6.3,6.7,13.8,5.9,13.8,5.9c20.5-6.7,16.8-28,16.8-28c-13.1-8-34.3,8.7-35.6,13.4
	c0.7-0.4,1.6-0.7,2.5-0.7C1080.4,383.4,1082.6,385.6,1082.6,388.4z M1092.7,596.9c-0.1,1.4-0.1,2.2-0.1,2.2
	c-0.2-0.7-6.2,7.3-9.9,2.4v-0.1c-0.5,3.9-1,8.9-0.9,9.4c0.2,0.8,3,2,7.6,1.2s10.6-11.1,11.4-13.4
	C1101.3,596.9,1095.8,596.8,1092.7,596.9z M870.8,877.6c-6.9,7.2-14.9,6.4-14.9,6.4c-22.3-7.3-18.3-30.4-18.3-30.4
	c14.2-8.6,37.2,9.3,38.7,14.6c-0.8-0.5-1.7-0.7-2.7-0.7c-3,0-5.5,2.4-5.5,5.5C868.1,874.9,869.2,876.6,870.8,877.6z M888.7,883.7
	c-2.7-1.7-6.1-1.8-8.9-0.3l-35.5,18.8c2.6-1.1,5.6-0.8,8.1,0.7l0,0c5.8,3.6,5.5,12.2-0.6,15.4l-0.7,0.3c0.2-0.1,0.4-0.2,0.7-0.3
	l36.3-19.2C894.2,895.9,894.5,887.3,888.7,883.7z M873.3,968.8v10.3c0,1.1,0.2,2.1,0.6,3.1c1.8,0.2,3.7-0.2,5.3-1.1l17.8-10.3
	c2.7-1.6,4.4-4.5,4.4-7.7v-10.3c0-1.1-0.2-2.1-0.6-3.1c-1.8-0.2-3.6,0.2-5.2,1.1l-17.9,10.3C875,962.7,873.3,965.6,873.3,968.8z
	 M837.7,962.1v1.7c0.7,0.9,1.5,1.6,2.5,2.2c2.8,1.6,6.1,1.6,8.9,0c2.8-1.6,4.4-4.5,4.4-7.7v-1.7c-0.7-0.9-1.5-1.6-2.5-2.2
	c-2.8-1.6-6.1-1.6-8.9,0C839.4,956,837.7,958.9,837.7,962.1z M860.7,944v-9.4l0.1,47.7c2.8,0,5.7-0.7,8.3-2c-2-1.7-3.2-4.1-3.2-6.8
	v-10.3c0-3.2,1.7-6.1,4.4-7.7l17.9-10.3c2.5-1.5,5.6-1.5,8.2-0.3v-21.3L860.7,944z"></path>
<path id="color_x5F_2" fill="#FBC02D" d="M860.8,883.4c-3.2,3.9-9.4,7.5-14.6,7.7c-7.2,0.3-6.6-6.7-6.6-6.7s0.8-7.5-2.4-7.2
	s-4,3-3.3,6.6c0,0-2.5,1.8-1.7-10.2c0,0-1.9-1.2-2.9-3.5s-1.7-11.2,0-12.7c0,0,4.3-4.7,11.4-5.4c-1.1,0.4-2.2,0.8-3.3,1.5
	c0,0-4,23.1,18.3,30.4C855.8,883.9,857.9,884.1,860.8,883.4z M923.7,1066.1c-0.3,2.4-0.7,5.6-1.1,8.2c6,10.1,10.7,2.6,12.4-2.4
	c1.8-5.1-2.5-11.7-3.3-13.1s-3.7-9.2-4.4-13.3c-0.6-3.8-2.7-4.9-6.6-3.8c-0.7,0.7-1.3,1.8-1.7,3.4
	C916.9,1054.4,924.4,1061.1,923.7,1066.1z"></path>
<path id="color_x5F_1" fill="#0984E3" d="M1082.6,388.4c0,2.8-2.2,5-5,5s-5-2.2-5-5s2.2-5,5-5S1082.6,385.6,1082.6,388.4z
	 M1104.6,391.9c2.6,2,2,3.8,2,3.8l0.1,2.4h1.6c0,0-2.1-6.8,0.9-8s8.8-2.6,8.6-4.8c0,0,5-7.1-1.4-12.5c-1.9-1.6-3.9-2.2-5.7-2.2
	C1110.7,370.7,1112.8,383.1,1104.6,391.9z M1093.9,398.6c3-1,5.5-2.3,7.6-3.8c0.4,0.9,0.8,1.5,0.8,1.5
	C1101,400.5,1097.1,398.6,1093.9,398.6z M1077.2,499.8c0,0.1,0,0.2,0,0.2S1077.2,499.9,1077.2,499.8z M1190.5,574.4
	c-0.4,2.3-1.4,0.8-1.4,0.8l-36.4-125c0.6-1.1,1-1.8,1-1.8c0.1-0.7,0-1.3-0.1-1.9c1.6-0.7,3.5-1.8,5.1-3.3
	C1170.6,491.1,1190.8,572.8,1190.5,574.4z M1121.5,503.1l0.1-1.2l-5.2,110.9c0,0-4,5.1-9.9,1.3c0,0-7.9-98.6-9.5-100.3
	c-1.5-1.8-4.2,85.8-4.4,85.1c-0.2-0.7-6.2,7.3-9.9,2.4l-5.5-101.4l0.2,3C1088.7,504.9,1106.3,506.6,1121.5,503.1z M1150.4,437
	c-0.5,0.1-1,0.3-1.4,0.5l-7.7-26.5c4.6-5.5,9-1.6,9-1.6s2.3,9,5.7,22.8C1155.2,433.4,1155.6,435.7,1150.4,437z M858.2,890L858.2,890
	l2.1,3.7l2.6-1.4l-18.5,9.8l5.6-3l-4.4-4.2c-0.1-0.1-0.2-0.2-0.4-0.3C848.5,893.3,854.4,890.9,858.2,890z M879.2,981.1
	c-1.6,0.9-3.5,1.3-5.3,1.1l0,0l0,0c-1.2-0.1-2.4-0.5-3.6-1.1l0,0c-0.4-0.3-0.8-0.6-1.2-0.9c-2.6,1.4-5.4,2-8.3,2V960v22.3l-8.1-3.4
	l0,0c-0.5,0.5-1,0.9-1.6,1.2c-2.8,1.6-6.1,1.6-8.9,0c-2.8-1.6-4.4-4.5-4.4-7.7v-2.1c-3.1,3.8-9.5,9-10.2,9c-0.2,0-0.4-0.2-0.7-0.5
	c-7.2,13.7-6.2,27.8-6.2,27.8c8.6,6.3,27.6,3.8,27.6,3.8l7.2-18l1.9,14c16.8,1.8,27.7-13,27.7-13c0.1-2.7-1.1-8.4-2.5-14.2
	L879.2,981.1z M843,922.7V918l0,0l0,0c-4.3-2.7-5.2-8-3-11.9l0,0l-2.3-5.3c-1.8,1.8-3.7,4-5.4,6C837,908.5,840.6,915.6,843,922.7z
	 M821.8,1052.9c-0.3,0.8-0.8,1.6-1.4,2c-1.4,0.8-8.2,0.2-9-3.3c-0.3-1.4,0.4-2.8,1.4-3.8c-1.3,1.1-14.9-3.9-14.9-3.9s-2,1.4-3.3,4.7
	c-1.3,3.3,5.4,8.9,9.5,9.5s7.9,4.9,12.8,5.9c4.9,1,7.3-2.7,7.2-4s-1.7-6.5-1.7-6.5S822.2,1053.2,821.8,1052.9z M919.1,1045.2
	c0.4-1.6,1-2.7,1.7-3.4c1.7-0.5,3-0.6,4-0.2c-1.2-0.5-2.9-0.3-5.1,0.5c-4.6,1.7-5.1,1.7-5.1,1.7s-1.8,8.7-0.7,9.9
	c1.2,1.2,1.3,6.6,7.8,19c0.3,0.6,0.6,1.1,0.9,1.6c0.3-2.6,0.7-5.8,1.1-8.2C924.4,1061.1,916.9,1054.4,919.1,1045.2z"></path>
</svg>
