<svg version="1.1" id="Layer_1" xmlns="http://www.w3.org/2000/svg" xmlns:xlink="http://www.w3.org/1999/xlink" x="0px" y="0px" width="595.28px" height="595.28px" viewBox="0 0 595.28 595.28" enable-background="new 0 0 595.28 595.28" xml:space="preserve">
<path id="color_x5F_2" fill="#FBC02D" d="M506.582,342.813l-0.034,0.064c0-0.023,0.001-0.047,0.001-0.07
	C506.566,342.811,506.582,342.813,506.582,342.813z M502.588,343.063c-21.178-2.112-41.983-6.665-62.641-11.665
	c-9.228-2.232-18.582-4.119-27.483-7.457c-8.001-3.001-16.292-6.623-24.849-7.626c-17.988-2.108-25.524,16.945-37.151,27.059
	c59.959,14.194,120.668,25.981,138.728,29.421c2.941-5.436,5.818-10.909,8.557-16.449c1.47-2.974,2.948-5.953,4.249-9.006
	c0.448-1.051,0.938-2.113,1.269-3.209C503.679,342.77,503.834,343.188,502.588,343.063z M374.131,316.552
	c1.074-0.595,2.178-1.075,3.307-1.446C376.173,315.422,375.105,315.906,374.131,316.552z M157.24,383.292
	c0,0,0.006-0.001,1.759-0.251c-2.013-2.531-3.842-5.193-5.492-7.972C155.712,380.094,157.24,383.292,157.24,383.292z
	 M483.23,393.094c0.115,0.263,0.184,0.577,0.19,0.938c0.152-0.326,0.284-0.609,0.394-0.848c-0.103-0.018-0.196-0.033-0.303-0.051
	C483.419,393.12,483.324,393.106,483.23,393.094z M292.358,410.794c-50.933-18.541-100.508-40.782-147.724-67.433
	c3.338,14.076,8.441,28.034,17.543,39.226c2.593-0.371,6.558-0.938,12.599-1.8c14.663-4.18,32.254-4.15,46.054,1.928
	c8.609,3.792,15.126,9.657,18.552,18.509c2.001,5.171,3.951,10.556,8.195,14.37c4.551,4.09,10.283,5.658,16.019,7.367
	c10.503,3.127,20.304,8.735,28.13,16.479c3.018,2.985,5.534,6.798,8.293,10.25c6.114-3.311,12.357-5.211,18.688-5.837
	c1.167-0.224,2.346-0.416,3.525-0.563c3.982-0.498,7.796,0.164,11.12,1.266c3.968,0.748,7.958,1.926,11.959,3.505
	c8.496,3.351,16.79,7.637,25.341,10.905c13.22-3.888,26.69-7.691,40.627-6.668c8.166,0.6,15.367,3.45,22.579,6.473
	c4.131,1.425,6.868,2.519,6.868,2.519s-0.453-0.418-0.131-1.588c0.033-1.957,6.328-8.311,7.144-9.342
	c2.117-2.672,4.228-5.354,6.314-8.056C398.575,443.353,344.172,429.656,292.358,410.794z M392.236,390.682
	c-0.019-0.004-0.036-0.014-0.055-0.018c-0.464-0.111-0.943-0.167-1.425-0.167c-2.128,0-4.292,1.07-6.247,2.893
	c0.212-0.152,0.425-0.306,0.643-0.444c0.43-0.299,0.871-0.584,1.333-0.84C388.336,391.083,390.358,390.572,392.236,390.682z
	 M354.507,391.953c0.101-2.661-0.203-5.193-0.927-7.41c-0.037-0.113-0.083-0.213-0.121-0.323c0.082,0.38,0.164,0.76,0.239,1.146
	c0.237,0.902,0.39,1.85,0.468,2.825C354.334,389.435,354.449,390.694,354.507,391.953z M423.571,407.025
	c-0.406,0.986-0.752,2.031-1.036,3.117c0.112,0.013,0.223,0.027,0.334,0.04C423.049,409.121,423.275,408.062,423.571,407.025z
	 M339.669,412.008c0.463,0.11,0.941,0.167,1.422,0.167c2.322,0,4.688-1.263,6.776-3.4c-0.894,0.584-1.888,1.093-3.005,1.506
	c-2.784,1.028-7.436,1.331-9.196-1.73c-0.01-0.011-0.021-0.019-0.031-0.03c-0.704-0.797-1.232-1.639-1.627-2.507
	C335.138,409.157,337.088,411.391,339.669,412.008z M231.363,393.115c-3.243-3.544-7.179-6.311-11.533-8.395
	c11.595,7.109,18.127,18.451,19.906,25.569c1.341,5.364,5.384,8.328,10.513,10.37c-1.979-1.02-3.801-2.273-5.357-3.911
	C238.348,409.857,237.637,399.972,231.363,393.115z M136.474,310.891c0.139,5.79,0.514,11.631,1.267,16.904
	c0.711,4.979,2.186,10.718,4.015,16.574c-0.803-3.379-1.501-6.764-2.114-10.115C138.228,326.513,137.204,318.716,136.474,310.891z
	 M339.536,381.369c-2.186,2.251-4.058,5.465-5.253,9.207c0.996-2.142,2.17-4.176,3.717-5.843
	C338.369,383.53,338.864,382.387,339.536,381.369z M347.896,378.172c0.013-0.009,0.029-0.014,0.042-0.022
	c-0.056-0.015-0.108-0.04-0.164-0.054c-0.463-0.111-0.943-0.167-1.424-0.167c-0.78,0-1.565,0.158-2.343,0.428
	c0.071-0.007,0.141-0.017,0.212-0.021c0.914-0.221,1.863-0.303,2.863-0.304C347.366,378.032,347.636,378.089,347.896,378.172z
	 M438.834,403.99c0.158,0.027,0.311,0.076,0.459,0.141c-0.042-0.146-0.077-0.299-0.124-0.443c-0.975-2.983-2.705-4.912-4.872-5.429
	c-0.387-0.093-0.786-0.14-1.188-0.14c-0.965,0-1.938,0.272-2.89,0.752c2.307-0.611,4.874-0.117,6.688,1.769
	C437.784,401.55,438.416,402.701,438.834,403.99z M441.649,413.123c-0.107,0.668-0.231,1.337-0.391,2.008
	c-1.944,8.138-7.266,14.044-12.652,14.044c-0.557,0-1.112-0.065-1.65-0.193c-2.869-0.686-5.109-3.085-6.308-6.755
	c-1.017-3.113-1.177-6.847-0.481-10.646c-6.6-0.743-13.17-1.673-19.722-2.753c-0.101,0.551-0.211,1.102-0.343,1.652
	c-2.251,9.423-8.393,16.262-14.603,16.262c-0.638,0-1.273-0.074-1.888-0.222c-1.781-0.426-3.315-1.462-4.571-2.931
	c-3.161-3.021-4.199-7.797-3.69-12.772c0.055-1.956,0.311-3.993,0.805-6.06c0.065-0.274,0.146-0.539,0.218-0.809
	c-0.21,0.039-0.396,0.053-0.528,0.023c-6.843-1.519-13.66-3.147-20.458-4.854c-0.006-0.001-0.008-0.004-0.014-0.005
	c-2.469,8.794-8.339,15.062-14.28,15.062c-0.637,0-1.272-0.075-1.887-0.222c-6.603-1.578-9.948-11.341-7.457-21.764
	c0.057-0.24,0.128-0.471,0.19-0.707c-0.407,0.517-1.555,1.005-2.171,0.824c-66.613-19.528-130.366-48.077-190.492-82.65
	c0.684,7.51,1.651,14.987,3.006,22.398c0.502,2.747,1.057,5.517,1.667,8.289c0.303-0.025,0.594,0.012,0.826,0.144
	c47.633,27.058,97.75,49.662,149.246,68.309c51.7,18.721,105.837,32.522,161.194,31.313c0.189-0.004,0.349,0.018,0.493,0.051
	c2.469-3.243,4.883-6.528,7.177-9.894c4.045-5.936,7.869-12.123,11.116-18.572c-0.287,0.209-0.678,0.379-1.089,0.42
	C462.508,413.158,452.092,413.449,441.649,413.123z M480.213,393.387c0.213-0.261,0.426-0.47,0.637-0.637
	c-9.965-1.427-19.907-3.01-29.829-4.71c-35.103-6.013-70.033-13.254-104.504-22.222c-25.073-6.522-49.979-13.869-74.295-22.838
	c-21.904-8.078-43.118-17.76-64.132-27.905c-21.248-10.259-42.333-20.877-63.162-31.963c-2.367-1.26-4.729-2.527-7.088-3.803
	c0.105,9.14,0.441,18.301,1.182,27.423c60.703,35.136,125.124,64.151,192.492,83.902c0.327,0.096,0.493,0.229,0.549,0.38
	c2.465-8.807,8.339-15.086,14.286-15.086c0.638,0,1.274,0.074,1.889,0.222c3.29,0.786,5.861,3.546,7.242,7.771
	c1.325,4.056,1.401,9.024,0.214,13.99c-0.05,0.209-0.112,0.41-0.166,0.616c0.594-0.387,1.733-0.785,2.201-0.668
	c6.347,1.594,12.711,3.11,19.096,4.541c2.643-8.18,8.253-13.904,13.93-13.904c0.638,0,1.274,0.074,1.889,0.222
	c3.29,0.785,5.861,3.545,7.242,7.771c1.021,3.126,1.292,6.794,0.824,10.583c6.583,1.111,13.188,2.061,19.817,2.835
	c1.994-8.003,7.253-13.788,12.582-13.788c0.558,0,1.114,0.065,1.652,0.194c2.869,0.685,5.109,3.083,6.308,6.753
	c0.829,2.538,1.084,5.49,0.776,8.552c10.525,0.368,21.025,0.131,31.509-0.923c0.616-0.063,0.937,0.034,1.05,0.2
	c1.096-2.218,2.122-4.465,3.061-6.745c0.978-2.373,1.938-4.781,2.595-7.267c0.206-0.782,0.431-1.579,0.521-2.386
	c0.03-0.264,0.047-0.431,0.061-0.537C480.184,393.92,479.92,393.746,480.213,393.387z M344.731,450.788l6.098,1.926
	c-2.663-1.185-5.364-2.363-8.108-3.435C344.003,450.166,344.731,450.788,344.731,450.788z M332.964,400.762
	c0.042,0.643,0.106,1.271,0.199,1.877c-0.042-0.598-0.042-1.199,0.009-1.805C333.1,400.815,333.034,400.785,332.964,400.762z
	 M373.229,459.788c0,0,3.183-1.324,7.868-2.86c-3.012,0.78-6.011,1.631-8.998,2.504L373.229,459.788z M422.549,421.605
	c0.181,0.555,0.397,1.061,0.628,1.54c-1.068-2.93-1.071-6.333-0.777-9.35c0.081-0.826,0.183-1.677,0.304-2.532
	c-0.154,0.082-0.314,0.157-0.477,0.223C421.492,415.117,421.594,418.682,422.549,421.605z M480.724,393.967
	c0.115,0.418,0.483,1.456,2.164-0.605C482.572,393.749,481.448,394.006,480.724,393.967z"></path>
<path id="color_x5F_1" d="M540.31,473.244c-31.049,0.016-61.893,0.343-91.861-8.854c-5.056-1.551-9.825-3.623-14.59-5.621
	c-7.212-3.022-14.414-5.873-22.579-6.473c-13.937-1.023-27.408,2.78-40.627,6.668c-8.551-3.269-16.845-7.555-25.341-10.905
	c-4.001-1.579-7.991-2.757-11.959-3.505c-4.921-0.927-9.809-1.18-14.645-0.702c-6.332,0.626-12.574,2.526-18.688,5.837
	c-2.759-3.452-5.275-7.265-8.293-10.25c-7.826-7.743-17.626-13.352-28.13-16.479c-5.736-1.709-11.468-3.277-16.019-7.367
	c-4.244-3.814-6.193-9.199-8.195-14.37c-3.425-8.852-9.942-14.717-18.552-18.509c-13.799-6.078-31.391-6.107-46.054-1.928
	c-1.289,0.367-2.563,0.754-3.801,1.186c-2.165,0.754-4.542,1.657-6.995,2.709c-0.613-0.689-1.223-1.382-1.803-2.095
	c-9.103-11.191-14.206-25.149-17.543-39.226c47.216,26.65,96.791,48.892,147.724,67.433
	c51.813,18.862,106.217,32.559,161.695,31.509c-2.087,2.701-4.198,5.384-6.314,8.056c-0.816,1.031-7.111,7.385-7.144,9.342
	c-0.001,0.102,0,0.202,0.034,0.278c0.242,0.542,1.187,0.368,1.62,0.251c0.031-0.009,0.062-0.017,0.093-0.025
	c0.885-0.241,1.216-0.694,1.103-1.016c0.027,0.004,0.055,0.009,0.082,0.013c-0.269-0.603,3.698-4.848,4.101-5.357
	c2.856-3.607,5.722-7.209,8.539-10.848c6.676-8.622,12.994-17.518,18.229-27.103c3.592-6.577,7.331-13.604,8.933-20.998
	c0.067-0.309,0.095-0.599,0.091-0.864c-0.006-0.36-0.075-0.675-0.19-0.938c0.094,0.013,0.189,0.026,0.281,0.039
	c0.107,0.018,0.2,0.033,0.303,0.051c2.438,0.412,3.768,0.629,3.768,0.629l0.303-0.865c0.93-0.438,1.706-1.301,2.424-2.873
	c1.204-2.639,1.963-5.494,2.778-8.27c0.418-1.424,0.828-2.851,1.263-4.27c0.262-0.853,1.331-2.412,0.348-1.975
	c1.416-0.631,0.748-1.367-0.234-1.409l0.119-0.339c0,0-0.97-0.181-2.778-0.522c3.379-6.237,6.652-12.533,9.772-18.904
	c1.278-2.609,4.934-7.961,4.972-11.509c0-0.023,0.001-0.047,0.001-0.07c0-0.324-0.021-0.64-0.089-0.93
	c-0.093-0.398-0.574-0.552-0.926-0.584c-6.993-0.645-13.943-1.568-20.86-2.693c0-0.024,0.002-0.05,0.002-0.074
	c0-0.047-0.047-0.08-0.129-0.104c-0.741-1.653-0.374-5.311-0.55-6.93c-0.735-6.754-1.774-13.473-2.974-20.158
	c-4.32-24.078-11.24-47.676-20.035-70.487c-8.892-23.063-20.439-43.901-35.353-63.604c-6.083-8.036-12.582-15.787-19.605-23.02
	c-4.418-4.551-9.612-10.15-15.698-12.519c0.845-0.907,1.708-1.796,2.588-2.668c0.042,0.042,0.086,0.081,0.128,0.123
	c0.518,0.53,3.17-0.534,2.731-0.982c-9.502-9.723-24.628-13.614-37.582-15.821c-12.648-2.155-26.608-2.637-38.853,1.748
	c-1.948,0.697-0.098,1.035,0.998,0.643c12.766-4.571,27.729-2.973,40.725-0.287c10.53,2.176,22.244,5.822,30.433,13.217
	c-0.872,0.84-1.727,1.696-2.566,2.569c-0.212-0.382-0.419-0.768-0.635-1.147c-0.485-0.852-3.241,0.172-2.897,0.775
	c0.495,0.869,0.979,1.743,1.453,2.623c-12.205,13.53-20.687,30.504-25.62,47.934c-7.269-4.578-16.165-6.993-24.854-8.557
	c0.003-0.009,0.007-0.018,0.01-0.026c0.309-0.811-1.225-0.825-2.2-0.35c-2.627-0.435-5.222-0.806-7.729-1.144
	c-12.21-1.645-25.249-2.269-37.451,0.256c5.43-19.873,14.979-39.48,29.477-54.284c1.185-1.21-1.662-1.131-2.319-0.459
	c-14.818,15.132-24.63,35.099-30.139,55.427c-0.219,0.055-0.439,0.103-0.657,0.16c-1.689,0.447-1.451,1.327,0.236,0.881
	c0.047-0.013,0.095-0.021,0.142-0.034c-0.011,0.04-0.022,0.079-0.033,0.119c-0.274,1.042,2.64,0.604,2.896-0.369
	c0.039-0.148,0.083-0.296,0.123-0.444c12.368-2.583,25.723-1.531,38.059,0.24c2.089,0.3,4.238,0.631,6.411,1.012
	c-2.752,7.172-5.689,14.271-8.169,21.545c-0.385,1.128,2.548,0.759,2.912-0.309c2.388-7.006,5.199-13.852,7.862-20.755
	c2.328,0.452,4.669,0.976,6.984,1.593c-0.632,0.135-1.25,0.43-1.381,0.821c-2.356,6.999-4.972,13.908-7.095,20.983
	c-0.01,0.034-0.008,0.063-0.01,0.094c-16.043-1.914-32.5-2.705-48.411-0.506c-0.879,0.121-1.9,0.819-1.476,1.035
	c-0.642-0.035-1.472,0.11-1.81,0.387c-21.03,17.229-36.486,41.533-44.898,67.273c-0.323,0.989,2.581,0.594,2.896-0.369
	c8.304-25.408,23.562-49.437,44.322-66.445c0.522-0.428,0.349-0.677-0.082-0.786c0.139-0.001,0.3-0.012,0.505-0.04
	c19.224-2.656,39.356-0.629,58.443,2.169c16.052,2.354,34.358,5.152,48.713,13.353c-20.477,16.281-31.836,41.754-40.216,65.948
	c-14.736-8.101-33.212-10.772-49.495-13.159c-19.29-2.828-39.509-4.592-58.916-1.91c-1.166,0.16-2.586,1.338-0.543,1.055
	c19.224-2.656,39.356-0.628,58.442,2.17c2.01,0.295,4.056,0.597,6.125,0.914c-0.408,0.201-0.728,0.513-0.787,0.912
	c-2.481,16.727-3.276,33.472-2.997,50.364c-9.866-3.673-19.65-7.576-29.394-11.576c-30.393-12.478-60.293-26.224-89.587-41.1
	c-1.589-0.808-3.189-1.614-4.792-2.424c-16.371-8.675-30.165-16.351-39.541-21.667c-4.251-2.748-8.382-5.637-12.324-8.728
	c-0.015-0.011-0.034-0.018-0.05-0.028c0.026-0.044,0.049-0.089,0.075-0.133c0.805-1.364-2.144-1.323-2.758-0.283
	c-8.443,14.311-5.311,31.964-2.583,47.449c0.152,0.863,1.516,0.812,2.321,0.282c0.048,0.015,0.105,0.03,0.163,0.045
	c-0.004,0.07-0.006,0.14-0.009,0.21c-1.069,0.275-2.405,1.271-1.071,1.557c0.362,0.078,0.695,0.082,1.005,0.035
	c-0.602,14.461,0.989,29.24,3.246,43.221c3.09,19.146,8.304,41.069,21.4,56.162c-6.77,4.831-12.117,11.074-12.749,18.876
	c-26.442-13.198-63.117,25.922-44.42,46.51c-12.344,0-24.687,0-37.03,0c-1.704,0-2.183,2.252-0.223,2.252c13.205,0,26.41,0,39.614,0
	c0.887,0.736,1.856,1.442,2.919,2.111c0.846,0.533,3.511-0.682,2.294-1.447c-1.25-0.787-2.351-1.638-3.334-2.535
	c-0.045-0.041-0.093-0.081-0.137-0.122c-10.561-9.807-5.882-25.547,3.291-35.776c5.37-5.988,12.666-10.684,20.669-12.028
	c9.201-1.546,17.374,2.93,23.104,9.872c0.67,0.813,3.453-0.228,2.685-1.158c-2.236-2.708-4.652-4.816-7.184-6.411
	c0.337-0.186,0.581-0.436,0.59-0.721c0.252-7.402,4.845-13.41,11.059-18.117c0.135,0.146,0.258,0.304,0.395,0.448
	c0.778,0.824,3.538-0.277,2.676-1.191c-0.271-0.287-0.517-0.596-0.781-0.888c7.439-4.983,16.55-8.306,23.393-10.091
	c13.163-3.434,29.82-3.279,42.772,2.921c4.354,2.084,8.291,4.851,11.533,8.395c6.274,6.856,6.985,16.742,13.528,23.634
	c1.556,1.638,3.379,2.892,5.357,3.911c6.101,3.143,13.706,4.026,19.704,6.827c9.926,4.636,19.147,11.723,25.75,20.505
	c0.76,1.01,1.476,1.977,2.18,2.902c-0.925,0.619-0.157,0.938,0.718,0.932c3.592,4.598,7.038,7.871,13.986,8.598
	c1.158,0.121,3.064-1.508,1.108-1.713c-5.529-0.578-9.347-3.855-12.702-7.835c8.483-4.774,17.472-6.906,27.253-5.599
	c4.972,0.664,9.787,2.174,14.475,4.002c2.744,1.071,5.445,2.25,8.108,3.435c0.031,0.014,0.063,0.027,0.093,0.041
	c14.305,6.363,28.489,13.536,44.59,12.612c0.995-0.057,3.096-1.656,1.153-1.545c-8.701,0.499-16.811-1.457-24.684-4.356
	c0.04-0.012,0.079-0.023,0.118-0.034c2.987-0.873,5.986-1.724,8.998-2.504c11.848-3.065,23.892-4.985,36.167-2.365
	c6.347,1.355,12.293,4.24,18.204,6.827c6.032,2.64,12.227,4.732,18.566,6.505c27.244,7.619,56.379,6.496,84.382,6.482
	C538.992,474.376,541.707,473.244,540.31,473.244z M455.213,440.108c-55.356,1.21-109.494-12.592-161.194-31.313
	c-51.496-18.646-101.613-41.251-149.246-68.309c-0.232-0.132-0.523-0.169-0.826-0.144c-0.61-2.772-1.165-5.542-1.667-8.289
	c-1.354-7.411-2.322-14.889-3.006-22.398c60.126,34.573,123.879,63.122,190.492,82.65c0.616,0.181,1.764-0.308,2.171-0.824
	c-0.062,0.236-0.133,0.467-0.19,0.707c-2.491,10.423,0.854,20.186,7.457,21.764c0.615,0.146,1.25,0.222,1.887,0.222
	c5.941,0,11.811-6.268,14.28-15.062c0.006,0.001,0.008,0.004,0.014,0.005c6.799,1.707,13.615,3.336,20.458,4.854
	c0.131,0.029,0.318,0.016,0.528-0.023c-0.072,0.27-0.152,0.534-0.218,0.809c-0.494,2.066-0.75,4.104-0.805,6.06
	c-0.147,5.247,1.213,9.875,3.69,12.772c1.256,1.469,2.791,2.505,4.571,2.931c0.615,0.147,1.25,0.222,1.888,0.222
	c6.209,0,12.351-6.839,14.603-16.262c0.132-0.551,0.242-1.102,0.343-1.652c6.551,1.08,13.122,2.01,19.722,2.753
	c-0.695,3.799-0.536,7.532,0.481,10.646c1.199,3.67,3.439,6.069,6.308,6.755c0.538,0.128,1.093,0.193,1.65,0.193
	c5.386,0,10.708-5.906,12.652-14.044c0.16-0.671,0.284-1.34,0.391-2.008c10.443,0.326,20.859,0.035,31.26-1.01
	c0.412-0.041,0.803-0.211,1.089-0.42c-3.247,6.449-7.071,12.637-11.116,18.572c-2.294,3.365-4.708,6.65-7.177,9.894
	C455.562,440.126,455.403,440.104,455.213,440.108z M129.063,275.176c-0.076,0.008-0.153,0.02-0.23,0.033l0.749-2.396l1.513,0.924
	C130.262,273.833,129.602,274.318,129.063,275.176z M125.758,288.155c-0.116-0.661-0.232-1.327-0.348-1.995l0.91-2.912
	c-0.165,1.415-0.307,2.835-0.422,4.26C125.85,287.724,125.807,287.94,125.758,288.155z M410.91,320.236
	c0.567-3.658,1.045-7.338,1.449-11.031c0.133-0.061,0.241-0.125,0.303-0.191c10.269-10.935,28.253-9.256,41.294-5.158
	c11.958,3.757,25.389,12.568,25.7,26.414c0.004,0.189,0.577,0.209,1.213,0.106c0.075,0.632,0.158,1.261,0.228,1.893
	c0.146,1.305-0.067,3.921,0.229,5.758c-10.162-1.748-20.258-3.894-30.313-6.226c-8.713-2.021-17.393-4.183-26.082-6.306
	c-4.958-1.211-9.705-2.977-14.465-4.759C410.709,320.594,410.881,320.423,410.91,320.236z M387.615,316.315
	c8.557,1.003,16.848,4.625,24.849,7.626c8.901,3.338,18.255,5.225,27.483,7.457c20.658,5,41.463,9.553,62.641,11.665
	c1.246,0.124,1.091-0.294,0.679,1.067c-0.332,1.096-0.821,2.158-1.269,3.209c-1.3,3.053-2.779,6.032-4.249,9.006
	c-2.739,5.54-5.616,11.014-8.557,16.449c-18.06-3.439-78.769-15.227-138.728-29.421
	C362.091,333.261,369.627,314.207,387.615,316.315z M482.888,393.361c-1.681,2.062-2.049,1.023-2.164,0.605
	C481.448,394.006,482.572,393.749,482.888,393.361z M480.213,393.387c-0.293,0.359-0.03,0.533,0.43,0.574
	c-0.014,0.106-0.031,0.273-0.061,0.537c-0.09,0.807-0.315,1.604-0.521,2.386c-0.656,2.485-1.617,4.894-2.595,7.267
	c-0.939,2.28-1.965,4.527-3.061,6.745c-0.114-0.166-0.434-0.263-1.05-0.2c-10.483,1.054-20.984,1.291-31.509,0.923
	c0.308-3.062,0.053-6.014-0.776-8.552c-1.199-3.67-3.439-6.068-6.308-6.753c-0.538-0.129-1.094-0.194-1.652-0.194
	c-5.329,0-10.587,5.785-12.582,13.788c-6.63-0.774-13.234-1.724-19.817-2.835c0.468-3.789,0.197-7.457-0.824-10.583
	c-1.381-4.226-3.953-6.985-7.242-7.771c-0.615-0.147-1.251-0.222-1.889-0.222c-5.676,0-11.287,5.725-13.93,13.904
	c-6.385-1.431-12.75-2.947-19.096-4.541c-0.468-0.117-1.607,0.281-2.201,0.668c0.054-0.206,0.116-0.407,0.166-0.616
	c1.187-4.966,1.11-9.935-0.214-13.99c-1.381-4.226-3.953-6.985-7.242-7.771c-0.615-0.147-1.251-0.222-1.889-0.222
	c-5.947,0-11.821,6.279-14.286,15.086c-0.056-0.15-0.222-0.284-0.549-0.38c-67.369-19.751-131.79-48.767-192.492-83.902
	c-0.741-9.122-1.076-18.283-1.182-27.423c2.359,1.275,4.721,2.543,7.088,3.803c20.829,11.086,41.914,21.704,63.162,31.963
	c21.014,10.146,42.228,19.827,64.132,27.905c24.317,8.969,49.222,16.315,74.295,22.838c34.471,8.968,69.401,16.209,104.504,22.222
	c9.921,1.7,19.864,3.283,29.829,4.71C480.64,392.917,480.426,393.126,480.213,393.387z M422.228,411.486
	c0.162-0.065,0.323-0.141,0.477-0.223c0.76-0.406,1.288-0.957,0.325-1.063c-0.053-0.006-0.106-0.013-0.159-0.019
	c-0.111-0.013-0.222-0.027-0.334-0.04c0.283-1.086,0.629-2.131,1.036-3.117c1.589-3.859,4.031-6.836,6.649-8.154
	c0.952-0.479,1.925-0.752,2.89-0.752c0.401,0,0.801,0.047,1.188,0.14c2.167,0.517,3.896,2.445,4.872,5.429
	c0.047,0.145,0.082,0.297,0.124,0.443c0.707,2.418,0.86,5.23,0.458,8.147c-0.32,0.271-0.441,0.552-0.102,0.7
	c-0.094,0.561-0.203,1.123-0.337,1.688c-1.704,7.131-6.307,12.509-10.707,12.509c-0.401,0-0.8-0.047-1.185-0.139
	c-1.764-0.421-3.23-1.791-4.244-3.891c-0.231-0.479-0.447-0.985-0.628-1.54C421.594,418.682,421.492,415.117,422.228,411.486z
	 M378.1,405.223c1.187-4.965,3.579-9.194,6.41-11.833c1.956-1.822,4.119-2.893,6.247-2.893c0.481,0,0.961,0.056,1.425,0.167
	c0.019,0.004,0.036,0.014,0.055,0.018c2.561,0.637,4.603,2.915,5.751,6.429c0.989,3.026,1.197,6.636,0.647,10.366
	c-0.669,0.383-1.058,0.876-0.164,1.03c-0.092,0.502-0.193,1.005-0.313,1.509c-2.006,8.396-7.448,14.727-12.657,14.727
	c-0.481,0-0.96-0.057-1.423-0.167C378.546,423.254,375.865,414.572,378.1,405.223z M333.163,402.639
	c-0.092-0.606-0.156-1.234-0.199-1.877c-0.166-2.52,0.054-5.281,0.729-8.107c0.17-0.711,0.373-1.399,0.589-2.078
	c1.196-3.742,3.068-6.956,5.253-9.207c1.397-1.438,2.919-2.475,4.471-3.013c0.778-0.27,1.563-0.428,2.343-0.428
	c0.481,0,0.961,0.056,1.424,0.167c0.056,0.014,0.108,0.039,0.164,0.054c2.427,0.653,4.372,2.796,5.521,6.07
	c0.039,0.11,0.084,0.21,0.121,0.323c0.724,2.217,1.028,4.749,0.927,7.41c-0.067,1.791-0.313,3.639-0.757,5.494
	c-1.112,4.654-3.282,8.669-5.882,11.327c-2.089,2.138-4.455,3.4-6.776,3.4c-0.481,0-0.959-0.057-1.422-0.167
	c-2.582-0.617-4.531-2.851-5.661-5.995C333.637,404.977,333.347,403.852,333.163,402.639z M402.5,154.374
	c7.671,7.672,14.559,16.145,21.1,24.786c15.012,19.832,26.215,41.003,35.153,64.186c8.574,22.238,15.086,45.319,19.371,68.766
	c0.381,2.086,0.732,4.178,1.07,6.271c-5.762-9.198-17.882-14.601-28.005-17.038c-12.201-2.938-28.312-2.766-38.599,5.581
	c2.392-23.756,1.654-48.09-0.201-71.707c-2.392-30.468-7.112-63.114-21.192-90.74C395.435,147.101,399.149,151.021,402.5,154.374z
	 M353.837,290.5c0.436-0.163,0.798-0.409,0.902-0.713c8.286-24.179,19.439-49.884,39.881-66.26c0.915-0.225,1.976-0.838,1.721-0.99
	c-0.141-0.084-0.288-0.159-0.429-0.242c-0.012-0.18-0.258-0.288-0.596-0.336c-14.896-8.544-33.846-11.284-50.501-13.727
	c-2.85-0.418-5.722-0.808-8.607-1.168c0.488-0.161,0.904-0.416,0.999-0.732c2.124-7.075,4.739-13.984,7.095-20.983
	c6.135,1.755,12.024,4.221,16.908,7.911c0.637,0.481,3.144-0.671,2.731-0.982c-0.439-0.332-0.897-0.642-1.352-0.955
	c0.657-0.134,1.311-0.458,1.433-0.894c4.646-16.585,12.525-32.837,23.855-45.984c14.21,27.438,18.929,59.81,21.504,90.174
	c2.38,28.078,3.008,57.293-1.232,85.253c-0.706-0.263-1.412-0.523-2.12-0.781c-8.627-3.137-19.412-7.006-28.589-3.984
	c-1.129,0.371-2.233,0.852-3.307,1.446c-0.123,0.068-0.248,0.131-0.37,0.202c-10.755,6.275-16.535,17.996-25.788,25.986
	c-0.014,0.012-0.021,0.022-0.033,0.034c-4.013-0.955-8.019-1.92-12.006-2.894c-5.196-1.531-10.357-3.166-15.487-4.893
	c-0.952-18.205-0.2-36.405,1.849-54.511c10.359,2.181,20.608,5.29,29.301,10.499C352.046,291.246,353.167,290.869,353.837,290.5z
	 M310.059,278.607c0.02-0.136,0.005-0.25-0.024-0.354c3.139,0.497,6.318,1.044,9.502,1.665c-0.055,0.096-0.097,0.196-0.11,0.306
	c-2.046,17.862-2.787,35.8-1.953,53.757c-3.563-1.225-7.116-2.479-10.653-3.777c0.155-0.173,0.25-0.379,0.246-0.614
	C306.759,312.486,307.546,295.539,310.059,278.607z M152.563,390.637c-12.769-15.003-17.679-36.488-20.837-55.357
	c-2.508-14.988-4.106-30.95-3.035-46.412c0.791-2.674,1.004-5.936,1.279-7.275c0.334-1.623,0.698-3.239,1.148-4.835
	c0.084-0.3,0.18-0.594,0.288-0.884c0.138,0.091,0.491,0.193,1.195,0.582c0.771,0.425,1.546,0.842,2.318,1.264
	c0.077,9.695,0.425,19.399,1.199,29.064c-0.433,0.322-0.6,0.723-0.073,1.028c0.053,0.03,0.107,0.061,0.16,0.091
	c0.083,0.997,0.175,1.992,0.268,2.988c0.729,7.825,1.753,15.622,3.168,23.363c0.612,3.352,1.311,6.736,2.114,10.115
	c2.54,10.682,6.17,21.308,11.75,30.7c1.65,2.778,3.479,5.44,5.492,7.972c0.761,0.956,1.549,1.893,2.366,2.809
	C158.405,387.225,155.401,388.818,152.563,390.637z M341.135,405.873c0.372,0.089,0.756,0.134,1.141,0.134
	c3.618,0,7.176-3.902,8.46-9.278c0.671-2.809,0.625-5.625-0.128-7.931c-0.809-2.476-2.337-4.097-4.301-4.566
	c-0.373-0.089-0.757-0.135-1.144-0.135c-3.617,0-7.174,3.902-8.458,9.278C335.255,399.442,337.201,404.933,341.135,405.873z
	 M338.651,393.84c1.038-4.342,3.898-7.743,6.513-7.743c0.229,0,0.458,0.027,0.678,0.08c1.263,0.302,2.281,1.453,2.866,3.242
	c0.64,1.96,0.67,4.391,0.083,6.845c-1.128,4.722-4.459,8.323-7.191,7.664C338.852,403.271,337.501,398.651,338.651,393.84z
	 M385.542,418.441c0.372,0.089,0.755,0.134,1.14,0.134c3.618,0,7.177-3.902,8.461-9.279c0.671-2.808,0.625-5.624-0.128-7.93
	c-0.809-2.477-2.337-4.098-4.301-4.566c-0.373-0.089-0.758-0.135-1.145-0.135c-3.616,0-7.173,3.902-8.458,9.278
	C379.662,412.011,381.608,417.501,385.542,418.441z M383.058,406.408c1.038-4.342,3.898-7.743,6.513-7.743
	c0.23,0,0.458,0.027,0.68,0.08c1.263,0.301,2.28,1.452,2.865,3.242c0.641,1.96,0.67,4.391,0.084,6.844
	c-1.128,4.723-4.47,8.324-7.192,7.665C383.258,415.839,381.908,411.22,383.058,406.408z M428.61,422.058
	c0.33,0.079,0.669,0.118,1.011,0.118c3.165,0,6.272-3.389,7.389-8.059c0.581-2.432,0.541-4.873-0.113-6.873
	c-0.709-2.171-2.055-3.594-3.788-4.008c-0.33-0.079-0.671-0.119-1.013-0.119c-3.165,0-6.271,3.39-7.387,8.061
	C423.448,416.454,425.162,421.233,428.61,422.058z M426.654,411.643c0.875-3.659,3.265-6.525,5.442-6.525
	c0.186,0,0.37,0.021,0.548,0.064c1.032,0.246,1.867,1.199,2.352,2.684c0.541,1.654,0.565,3.71,0.069,5.787
	c-0.949,3.969-3.725,6.994-5.99,6.46C426.796,419.567,425.687,415.688,426.654,411.643z" fill="#0984E3"></path>
</svg>
