<svg version="1.1" id="Layer_2" xmlns="http://www.w3.org/2000/svg" xmlns:xlink="http://www.w3.org/1999/xlink" x="0px" y="0px" viewBox="0 0 2000 2000" enable-background="new 0 0 2000 2000" xml:space="preserve">
<path id="color_x5F_10" fill="#2276BB" d="M1246.1,728.9l-1.7,308.6l-25.8,14.6l1.8-323.8L800.9,483l14.3-8.1c7.1-4,15.8-4,22.9,0.2
	l395,231C1241.2,710.8,1246.2,719.5,1246.1,728.9z M937.3,1212.5L517.9,967.4l-0.2,31.2L937.1,1245l281.4-162.9l0.2-30L937.3,1212.5
	z M937.4,1041.8l-43.5,24.8l0.8-150.1l43.5-24.8L937.4,1041.8z M790.9,834.4c0,6.1,4.9,11.1,11,11.1l0,0c6.1,0,11.1-4.9,11.1-11
	l0.3-59.6c0.6-41.4,77.9-42.6,77.5,32.5c0,0.5-0.1,1.3,0,2.2c0,0.1,0,0.3,0,0.4l-0.4,79.6c0,6.1,4.9,11.1,11,11.1l0,0
	c6.1,0,11.1-4.9,11.1-11l0.4-79.6c4.3-111.2-115.2-102.6-121.1-41.3C791.2,770.2,790.9,834.4,790.9,834.4z"></path>
<path id="color_x5F_9" fill="#FFFFFF" d="M846.2,1009.4l24,14.1l0.2-27.8l-23.8-13.9L846.2,1009.4z M850.8,1006.8l0.2-17l14.7,8.6
	l-0.1,17.1L850.8,1006.8z M847.4,916.5l-0.1,26.2l22.6,13.2l0.1-26.2L847.4,916.5z M852.2,924.9l13,7.6l-0.1,15l-13-7.6L852.2,924.9
	z M826.3,952.1l-0.1,13.9l-35.9-21.1l0.1-13.9L826.3,952.1z M788.6,974.1l0.1-24.5l10.6,6.2l-0.1,24.6L788.6,974.1z M813.4,962
	l-0.1,11.8l-10.1-5.9l-0.1-11.9L813.4,962z M869.3,959.1l-0.1,13.8l-35.9-20.8l0.3-27.7l11.9,7l-0.1,13.8L869.3,959.1z M870,991.7
	c0,0-25.7-14.9-25-14.6c0.7,0.3-12.6-7.2-12.6-7.2l0.1-14.5l37.7,21.9L870,991.7z M804.1,984.8l0.2-12.9l11.1,6.7l0.1-13.2l11.1,6.6
	v15.6l4.4,2.6v5.1v5.1l-4.3-2.5l0,0L804.1,984.8z M835.9,997.9l-4.4-2.6v-5.1l4.4,2.6V997.9z M831.9,982l-4.4-2.6v-5.1l4.4,2.6V982z
	 M840.7,1006.2l-4.4-2.6v-5.1l4.4,2.6V1006.2z M845.2,1000.9l-4.4-2.6v-5.1l4.4,2.6V1000.9z M836.4,985.5v-5l4.4,2.6v5.1l0,0v5.1
	l-8.8-5.2V983L836.4,985.5z M845.5,982.1l-4.4-2.6v-5.1l4.4,2.6V982.1z M839.4,978.8l-4.4-2.6v-5.1l4.4,2.6V978.8z M830.3,959.5
	l-4.4-2.6v-5.1l4.4,2.6V959.5z M815.9,946l-7.4-4.3v-8.6l7.4,4.3V946z M824.1,937.6l-7.4-4.3v-8.6l7.4,4.3V937.6z M790.9,909
	l9.4,5.6v8.5l7.4,4.3v-8.5l4.6,2.7l0.1-25.2l-21.8-12.8L790.9,909z M795.2,891.8l12.6,7.4l-0.1,14.6l-12.4-7.4L795.2,891.8z
	 M824.2,925.6l-7.4-4.3v-8.6l7.4,4.3V925.6z M824.2,912.7l-7.4-4.3v-8.6l7.4,4.3V912.7z M797.8,936.1l-7.4-4.3v-8.6l7.4,4.3V936.1z
	 M824,950.8l-7.4-4.3v-8.6l7.4,4.3V950.8z M845.1,924.8l-7.4-4.3v-8.6l7.4,4.3V924.8z M835.1,919.2l-7.4-4.3v-8.6l7.4,4.3V919.2z"></path>
<path id="color_x5F_8" fill="#769DB4" d="M865.5,1015.5l-14.7-8.7l0.2-17l14.7,8.6L865.5,1015.5z M852.1,940l13,7.6l0.1-15l-13-7.6
	L852.1,940z M807.7,913.8l0.1-14.6l-12.6-7.4l0.1,14.6L807.7,913.8z M894.8,916.5l-0.8,150.1l-129.6-75.7l0.8-150.1L894.8,916.5z
	 M847.3,942.8l22.6,13.2l0.1-26.2l-22.6-13.3L847.3,942.8z M845.4,945.2l0.1-13.8l-11.9-7l-0.3,27.7l35.9,20.8l0.1-13.8L845.4,945.2
	z M837.7,920.4l7.4,4.3v-8.6l-7.4-4.3V920.4z M827.7,914.9l7.4,4.3v-8.6l-7.4-4.3V914.9z M816.8,908.4l7.4,4.3v-8.6l-7.4-4.3V908.4z
	 M816.8,921.3l7.4,4.3V917l-7.4-4.3V921.3z M816.7,933.2l7.4,4.3v-8.6l-7.4-4.3V933.2z M790.7,883.8l0.2,25.3l9.4,5.6v8.5l7.4,4.3
	V919l4.6,2.7l0.1-25.2L790.7,883.8z M790.3,944.8l35.9,21.1v-8.8l4,2.4v-5.1l-4.4-2.6l0,0l-1.9-1.1v-8.5l-7.4-4.3v8.5l-0.7-0.4v-8.5
	l-7.4-4.3v8.4l-10.6-6.3v-7.8l-7.4-4.3v7.8l0,0L790.3,944.8z M827.6,974.4v5.1l4.4,2.6V977L827.6,974.4z M799.3,955.7l-10.6-6.2
	l-0.1,24.5l10.6,6.2L799.3,955.7z M803.3,968l10.1,5.9l0.1-11.8l-10.2-6L803.3,968z M830.9,990.2l-4.4-2.6V972l-11.1-6.6l-0.1,13.2
	l-11.1-6.7l-0.2,12.9l22.4,13.1l0,0l4.3,2.5v-5.1L830.9,990.2z M836,992.8l-4.4-2.6v5.1l4.4,2.6V992.8z M840.7,1001.1l-4.4-2.6v5.1
	l4.4,2.6V1001.1z M845.2,995.8l-4.4-2.6v-5.1l0,0V983l-4.4-2.6v5L832,983v5.1l8.8,5.2v5.1l4.4,2.6V995.8z M845.5,982.1v-4.7
	c3.8,2.3,24.4,14.3,24.4,14.3l0.1-14.5l-37.7-21.9l-0.1,14.5c0,0,1.1,0.6,2.7,1.5v4.8l4.4,2.6v-4.9c0.6,0.3,1.2,0.7,1.8,1v4.7
	L845.5,982.1z M870.3,995.7l-23.8-13.9l-0.3,27.7l24,14.1L870.3,995.7z M813.4,774.9l-0.2,40.2l77.5,45.3l0.1-19.8L825,802.2
	l0.2-49.8C818.2,757.1,813.5,764.8,813.4,774.9z M800.9,483l-1.3,264.6c6.1-8.9,15.3-15.6,25.8-19.5l1-210.3l368.2,215.3l-1.6,284.2
	L912.8,853.5l-0.1,19.8l306,178.9l1.8-323.8L800.9,483z M912.7,873.3v3.5l25.6,15l-0.1,16.9l227.7,133.1l-175.8,100.1L641,937.7
	L765.1,867l0.1-26.2l25.7-14.6c0-3.9,0.1-9,0.1-14.4L517.9,967.4l419.3,245.2l281.3-160.4L912.7,873.3z M792.2,1115.6l-109.1-63.1
	l68.4-39l108.6,63.5L792.2,1115.6z M813.1,815.1v3.5l77.5,45.3v-3.5L813.1,815.1z"></path>
<path id="color_x5F_7" fill="#ADDAEA" d="M1099,1664.4l858.9-504.8l0.6,113.2l-859,502.1L42.1,1174.6L41.5,1064L1099,1664.4z
	 M825.3,752.3l-0.2,49.8l65.7,38.4l0.2-30.6c0-0.1,0-0.3,0-0.4c-0.1-0.9,0-1.7,0-2.2C891.2,750.6,847.1,737.5,825.3,752.3z
	 M1194.6,733.1l-1.6,284.2L912.8,853.5l0.2-43.3c2.9-75.2-50.7-95.6-87.6-82l1-210.3L1194.6,733.1z M860.1,1077.1l-67.9,38.5
	l-109.1-63.1l68.4-39L860.1,1077.1z M912.6,876.7l-0.1,13c0,6.1-5,11-11.1,11l0,0c-6.1,0-11-5-11-11.1l0.1-25.8L813,818.5l-0.1,16
	c0,6.1-5,11-11.1,11l0,0c-6.1,0-11-5-11-11.1c0,0,0-3.3,0-8.3l-25.7,14.6l129.6,75.7l43.5-24.8L912.6,876.7z M938.2,908.6
	l-0.7,133.2l-43.5,24.8l-129.6-75.7l0.7-123.8L641,937.7l349.1,204.1l175.8-100.1L938.2,908.6z"></path>
<path id="color_x5F_6" fill="#E89C9F" d="M585.3,1319l67.4,39.6l0.4-78.3l-67.1-39.2L585.3,1319z M598.4,1311.6l0.5-47.9l41.2,24.1
	l-0.3,48.1L598.4,1311.6z M588.8,1057.5l-0.4,73.8l63.7,37.3l0.4-73.8L588.8,1057.5z M602.3,1081.2l36.5,21.4l-0.2,42.3l-36.5-21.4
	L602.3,1081.2z M529.5,1157.6l-0.2,39.1l-101-59.5l0.2-39.1L529.5,1157.6z M423.4,1219.5l0.4-69.1l29.7,17.4l-0.4,69.1L423.4,1219.5
	z M493.3,1185.6l-0.2,33.3l-28.4-16.6l-0.2-33.5L493.3,1185.6z M650.4,1177.4l-0.2,38.9l-101-58.7l0.8-77.9l33.6,19.6l-0.2,38.9
	L650.4,1177.4z M652.4,1269.1c0,0-72.4-42-70.4-41.2c1.9,0.8-35.6-20.4-35.6-20.4l0.2-40.8l106,61.6L652.4,1269.1z M467,1249.6
	l0.6-36.3l31.1,18.9l0.2-37.2l31.1,18.6v44l12.3,7.2l-0.1,14.3l-0.1,14.3l-12.1-7.1l0,0L467,1249.6z M556.5,1286.5l-12.4-7.2
	l0.1-14.3l12.4,7.2L556.5,1286.5z M545.3,1241.9l-12.4-7.2l0.1-14.3l12.4,7.2L545.3,1241.9z M570,1309.9l-12.4-7.2l0.1-14.3
	l12.4,7.2L570,1309.9z M582.5,1295.1l-12.4-7.2l0.1-14.3l12.4,7.2L582.5,1295.1z M557.9,1251.8l0.1-14.1l12.4,7.2l-0.1,14.3v0.1
	l-0.1,14.3l-24.8-14.6l0.1-14.3L557.9,1251.8z M583.6,1242.1l-12.4-7.2l0.1-14.3l12.4,7.2L583.6,1242.1z M566.3,1232.7l-12.4-7.2
	l0.1-14.3l12.4,7.2L566.3,1232.7z M540.7,1178.5l-12.4-7.2l0.1-14.3l12.4,7.2L540.7,1178.5z M500.1,1140.6l-20.9-12.2l0.1-24.2
	l20.9,12.2L500.1,1140.6z M523.3,1116.7l-20.9-12.2l0.1-24.2l20.9,12.2L523.3,1116.7z M429.8,1036.5l26.5,15.8l-0.1,24l20.9,12.2
	l0.1-23.8l12.9,7.7l0.4-71l-61.2-35.9L429.8,1036.5z M442,987.9l35.5,20.8l-0.2,41.1l-34.9-20.8L442,987.9z M523.4,1083.2
	l-20.9-12.2l0.1-24.2l20.9,12.2L523.4,1083.2z M523.6,1046.9l-20.9-12.2l0.1-24.2l20.9,12.2L523.6,1046.9z M449.3,1112.5l-20.9-12.2
	l0.1-24.2l20.9,12.2L449.3,1112.5z M523.1,1153.9l-20.9-12.2l0.1-24.2l20.9,12.2L523.1,1153.9z M582.4,1080.8l-20.9-12.2l0.1-24.2
	l20.9,12.2L582.4,1080.8z M554.3,1065.2l-20.9-12.2l0.1-24.2l20.9,12.2L554.3,1065.2z"></path>
<path id="color_x5F_5" fill="#FFD2BB" d="M358.9,736.5c0,3.1-1.3,5.6-3,5.6s-3-2.5-3-5.6s1.3-5.6,3-5.6S358.9,733.4,358.9,736.5z
	 M1533.5,734.5c0,3.1,1.3,5.6,3,5.6c1.6,0,3-2.5,3-5.6s-1.3-5.6-3-5.6S1533.5,731.4,1533.5,734.5z"></path>
<path id="color_x5F_4" fill="#00CEC9" d="M360.5,727.7c-0.4-0.1-0.8-0.1-1.1-0.1c-8,0-14.6,12.4-14.6,27.8
	c0,15.3,6.5,27.8,14.6,27.8c0.2,0,0.4,0,0.6-0.1c4.4-6.5,7.3-16.7,7.3-28.1C367.2,744,364.6,734.2,360.5,727.7z M356,742.1
	c-1.6,0-3-2.5-3-5.6s1.3-5.6,3-5.6s3,2.5,3,5.6S357.6,742.1,356,742.1z M1525.2,753c0,11.5,2.9,21.6,7.3,28.1c0.2,0,0.4,0.1,0.6,0.1
	c8,0,14.6-12.4,14.6-27.8c0-15.3-6.5-27.8-14.6-27.8c-0.4,0-0.8,0.1-1.1,0.1C1527.9,732.2,1525.2,742,1525.2,753z M1533.5,734.5
	c0-3.1,1.3-5.6,3-5.6s3,2.5,3,5.6s-1.3,5.6-3,5.6S1533.5,737.6,1533.5,734.5z"></path>
<path id="color_x5F_3" fill="#E84393" d="M507.3,719.4c-24.2-27.6-62.3-35.4-95.2-36l3.2,45.1c1.2,0.5,2.4,1.4,3.5,2.7
	c6.1,7.4-13.9,20.1-13.9,0c0,0,1.7-1.6,4.1-2.5v-45.3c-33.4-0.2-60.5,6.6-60.5,6.6c-20.7,5.8-34,29.1-34,65s15.2,65,34,65
	c11.9,1.2,31.1-1,52.3-5.8c-3.3-3.7-5.4-8.6-5.4-13.9c0-11.5,9.3-20.8,20.8-20.8s20.8,9.3,20.8,20.8c0,1.3-0.1,2.5-0.3,3.7
	C489.6,785.6,537.7,754.1,507.3,719.4z M348.5,790.5c-10.3,0-18.6-15.9-18.6-35.5s8.3-35.5,18.6-35.5c5.6,0,10.6,4.7,14.1,12.2
	c0,0,0,0,0,0.1c0.2,0.5,0.4,0.9,0.6,1.4v0.1c0.2,0.5,0.4,1,0.6,1.5c0,0,0,0,0,0.1c0.8,2.1,1.4,4.3,1.9,6.6c0,0.1,0,0.2,0.1,0.3
	c0.1,0.5,0.2,0.9,0.3,1.4c0,0.2,0.1,0.3,0.1,0.5c0.1,0.4,0.1,0.8,0.2,1.2c0,0.2,0.1,0.4,0.1,0.6c0.1,0.4,0.1,0.8,0.2,1.2
	c0,0.2,0.1,0.5,0.1,0.7c0,0.4,0.1,0.8,0.1,1.2c0,0.2,0,0.5,0.1,0.7c0,0.4,0.1,0.8,0.1,1.2c0,0.2,0,0.5,0,0.7c0,0.4,0,0.9,0.1,1.3
	c0,0.2,0,0.4,0,0.6c0,0.6,0,1.3,0,1.9l0,0l0,0c0,0.7,0,1.3,0,2c0,0.2,0,0.4,0,0.6c0,0.5,0,0.9-0.1,1.4c0,0.2,0,0.4,0,0.7
	c0,0.5-0.1,0.9-0.1,1.3c0,0.2,0,0.4-0.1,0.6c0,0.5-0.1,1-0.2,1.5c0,0.1,0,0.3,0,0.4C364.6,779,357.3,790.5,348.5,790.5z
	 M365.2,800.2c41.3-37.8,0-89.7,0-89.7C422.7,763.4,365.2,800.2,365.2,800.2z M501.1,749.1H456c4.2-30.5-15.8-35.5-15.8-35.5l53-0.2
	C509.4,725.6,501.1,749.1,501.1,749.1z M307.6,922c-2.1,0-3.8-2.7-3.8-6.1s1.7-6.1,3.8-6.1c2.1,0,3.8,2.7,3.8,6.1
	S309.7,922,307.6,922z M313.2,919.3c-0.7,2.9-2.2,5.1-4.2,5.9c1.7,8.9-6,19.2-18.3,24.1c-5,2-10,2.7-14.6,2.5
	c6.2,3.6,15.6,4,24.8,0.4c13.4-5.3,21.3-17.1,17.6-26.4C317.5,923,315.6,920.9,313.2,919.3z M369,848.7c0.5,0.6,0.7,1.4,0.7,2.1
	c-1-3.1-3-5.3-5.3-5.3c-3.3,0-6,4.3-6,9.5c0,5.3,2.7,9.5,6,9.5c0.2,0,0.4,0,0.7-0.1l-51.5,51.5c0-0.1,0-0.1,0-0.2
	c0-5.3-2.7-9.5-6-9.5c-1.1,0-2.2,0.5-3.1,1.4c-0.3,0.3-0.7,0.7-1,1.2l0,0c-0.1,0.2-0.3,0.4-0.4,0.7l0,0c-0.1,0.2-0.2,0.5-0.4,0.7
	c0,0,0,0,0,0.1c-0.1,0.2-0.2,0.5-0.3,0.7c0,0,0,0,0,0.1c-0.1,0.3-0.2,0.5-0.2,0.8c0,0,0,0,0,0.1c-0.2,0.6-0.3,1.2-0.4,1.9
	c-0.1,0.6-0.1,1.2-0.1,1.9c0,0.1,0,0.1,0,0.2l-1.2-1.2c-0.6-0.6-0.9-1.4-1-2.2c-8.5-3.8-20.5,2-27.6,13.6c-2.8,4.6-4.4,9.4-4.9,13.9
	c-2.5-6.7-1.3-16,3.8-24.5c7.5-12.3,20.5-18.1,29-12.9c1.6,1,3,2.3,4.1,3.9l52.4-52.4l-33.4-40.7c-1.2-1.4-1-3.5,0.5-4.7l4-3.3
	c5,7.6,11.1,12.7,17.9,13.9L369,848.7z M368.4,855.5c0,3.4-1.7,6.1-3.8,6.1s-3.8-2.7-3.8-6.1s1.7-6.1,3.8-6.1
	S368.4,852.1,368.4,855.5z M466.1,856.9c0,3.4-1.7,6.1-3.8,6.1c-2.1,0-3.8-2.7-3.8-6.1s1.7-6.1,3.8-6.1
	C464.3,850.7,466.1,853.5,466.1,856.9z M405.2,911.1c-2.1,0-3.8,2.7-3.8,6.1s1.7,6.1,3.8,6.1c2.1,0,3.8-2.7,3.8-6.1
	S407.3,911.1,405.2,911.1z M456,856.5c0,5.3,2.7,9.5,6,9.5c0.2,0,0.4,0,0.7-0.1l-51.5,51.5c0-0.1,0-0.1,0-0.2c0-5.3-2.7-9.5-6-9.5
	c-1.1,0-2.2,0.5-3.1,1.4l0,0c-0.3,0.3-0.7,0.7-1,1.2l0,0c-0.1,0.2-0.3,0.4-0.4,0.7l0,0c-0.1,0.2-0.2,0.5-0.4,0.7c0,0,0,0,0,0.1
	c-0.1,0.2-0.2,0.5-0.3,0.7c0,0,0,0,0,0.1c-0.1,0.3-0.2,0.5-0.2,0.8c0,0,0,0,0,0.1c-0.2,0.6-0.3,1.2-0.4,1.9l0,0
	c-0.1,0.6-0.1,1.2-0.1,1.9c0,0.1,0,0.1,0,0.2l-1.2-1.2c-0.6-0.6-0.9-1.4-1-2.2c-8.5-3.8-20.5,2-27.6,13.6c-2.8,4.6-4.4,9.4-4.9,13.9
	c-2.5-6.7-1.3-16,3.8-24.5c7.5-12.3,20.5-18.1,29-12.9c1.6,1,3,2.3,4.1,3.9l52.4-52.4L420.5,815c-1.2-1.4-1-3.5,0.5-4.7l5.3-4.3
	c1.4-1.2,3.5-1,4.7,0.5l35.7,43.6c0.5,0.6,0.7,1.4,0.7,2.1c-1-3.1-3-5.3-5.3-5.3C458.7,847,456,851.2,456,856.5z M416.2,927.1
	c-1-2.7-2.9-4.8-5.4-6.4c-0.7,2.9-2.2,5.1-4.2,5.9c1.7,8.9-6,19.2-18.3,24.1c-5,2-10,2.7-14.6,2.5c6.2,3.6,15.6,4,24.8,0.4
	C412,948.2,419.9,936.4,416.2,927.1z M1455.7,801.9c-0.2-1.2-0.3-2.4-0.3-3.7c0-11.5,9.3-20.8,20.8-20.8s20.8,9.3,20.8,20.8
	c0,5.4-2,10.2-5.4,13.9c21.2,4.8,40.3,7,52.3,5.8c18.8,0,34-29.1,34-65s-13.4-59.2-34-65c0,0-27.1-6.8-60.5-6.6v45.3
	c2.4,1,4.1,2.5,4.1,2.5c0,20.1-20,7.4-13.9,0c1.1-1.4,2.3-2.2,3.5-2.7l3.2-45.1c-32.8,0.7-71,8.4-95.2,36
	C1354.7,752.1,1402.8,783.6,1455.7,801.9z M1525.8,761.4c0-0.1,0-0.3,0-0.4c-0.1-0.5-0.1-1-0.2-1.5c0-0.2,0-0.4-0.1-0.6
	c0-0.4-0.1-0.9-0.1-1.3c0-0.2,0-0.4,0-0.7c0-0.5,0-0.9-0.1-1.4c0-0.2,0-0.4,0-0.6c0-0.7,0-1.3,0-2l0,0l0,0c0-0.6,0-1.3,0-1.9
	c0-0.2,0-0.4,0-0.6c0-0.4,0-0.9,0.1-1.3c0-0.2,0-0.5,0-0.7c0-0.4,0.1-0.8,0.1-1.2c0-0.2,0-0.5,0.1-0.7c0-0.4,0.1-0.8,0.1-1.2
	c0-0.2,0.1-0.5,0.1-0.7c0-0.4,0.1-0.8,0.2-1.2c0-0.2,0.1-0.4,0.1-0.6c0.1-0.4,0.1-0.8,0.2-1.2c0-0.2,0.1-0.3,0.1-0.5
	c0.1-0.5,0.2-0.9,0.3-1.4c0-0.1,0-0.2,0.1-0.3c0.5-2.4,1.2-4.6,1.9-6.6c0,0,0,0,0-0.1c0.2-0.5,0.4-1,0.6-1.5v-0.1
	c0.2-0.5,0.4-0.9,0.6-1.4c0,0,0,0,0-0.1c3.4-7.5,8.4-12.2,14.1-12.2c10.3,0,18.6,15.9,18.6,35.5s-8.3,35.5-18.6,35.5
	C1535.1,788.5,1527.8,777,1525.8,761.4z M1527.2,708.5c0,0-41.3,51.9,0,89.7C1527.2,798.2,1469.7,761.4,1527.2,708.5z M1399.2,711.4
	l53,0.2c0,0-20,5.1-15.8,35.5h-45.1C1391.3,747.1,1383,723.6,1399.2,711.4z M1581,913.9c0-3.4,1.7-6.1,3.8-6.1s3.8,2.7,3.8,6.1
	s-1.7,6.1-3.8,6.1S1581,917.3,1581,913.9z M1573.9,923.7c-3.7,9.3,4.2,21.1,17.6,26.4c9.2,3.6,18.6,3.2,24.8-0.4
	c-4.6,0.3-9.6-0.5-14.6-2.5c-12.3-4.9-20-15.2-18.3-24.1c-1.9-0.7-3.5-3-4.2-5.9C1576.8,918.9,1574.9,921,1573.9,923.7z
	 M1547.3,817.7c6.7-1.3,12.9-6.3,17.9-13.9l4,3.3c1.4,1.2,1.6,3.2,0.5,4.7l-33.4,40.7l52.4,52.4c1.1-1.6,2.4-2.9,4.1-3.9
	c8.6-5.2,21.5,0.6,29,12.9c5.1,8.5,6.3,17.8,3.8,24.5c-0.5-4.5-2.1-9.4-4.9-13.9c-7.1-11.6-19.1-17.4-27.6-13.6c0,0.8-0.3,1.6-1,2.2
	l-1.2,1.2c0-0.1,0-0.1,0-0.2c0-0.6,0-1.3-0.1-1.9c-0.1-0.7-0.2-1.3-0.4-1.9c0,0,0,0,0-0.1c-0.1-0.3-0.2-0.5-0.2-0.8v-0.1
	c-0.1-0.3-0.2-0.5-0.3-0.7c0,0,0,0,0-0.1c-0.1-0.2-0.2-0.5-0.4-0.7l0,0c-0.1-0.2-0.3-0.5-0.4-0.7l0,0c-0.3-0.4-0.6-0.8-1-1.2
	c-0.9-0.9-2-1.4-3.1-1.4c-3.3,0-6,4.3-6,9.5c0,0.1,0,0.1,0,0.2l-51.5-51.5c0.2,0,0.4,0.1,0.7,0.1c3.3,0,6-4.3,6-9.5
	c0-5.3-2.7-9.5-6-9.5c-2.3,0-4.3,2.1-5.3,5.3c0-0.8,0.2-1.5,0.7-2.1L1547.3,817.7z M1527.8,847.4c2.1,0,3.8,2.7,3.8,6.1
	s-1.7,6.1-3.8,6.1s-3.8-2.7-3.8-6.1S1525.7,847.4,1527.8,847.4z M1430.2,848.7c2.1,0,3.8,2.7,3.8,6.1s-1.7,6.1-3.8,6.1
	s-3.8-2.7-3.8-6.1S1428.1,848.7,1430.2,848.7z M1483.4,915.3c0,3.4,1.7,6.1,3.8,6.1s3.8-2.7,3.8-6.1s-1.7-6.1-3.8-6.1
	S1483.4,911.9,1483.4,915.3z M1430.4,845c-2.3,0-4.3,2.1-5.3,5.3c0-0.8,0.2-1.5,0.7-2.1l35.7-43.6c1.2-1.4,3.2-1.6,4.7-0.5l5.3,4.3
	c1.4,1.2,1.6,3.2,0.5,4.7l-33.4,40.7l52.4,52.4c1.1-1.6,2.4-2.9,4.1-3.9c8.6-5.2,21.5,0.6,29,12.9c5.1,8.5,6.3,17.8,3.8,24.5
	c-0.5-4.5-2.1-9.4-4.9-13.9c-7.1-11.6-19.1-17.4-27.6-13.6c0,0.8-0.3,1.6-1,2.2l-1.2,1.2c0-0.1,0-0.1,0-0.2c0-0.6,0-1.3-0.1-1.9l0,0
	c-0.1-0.7-0.2-1.3-0.4-1.9c0,0,0,0,0-0.1c-0.1-0.3-0.2-0.5-0.2-0.8v-0.1c-0.1-0.3-0.2-0.5-0.3-0.7c0,0,0,0,0-0.1
	c-0.1-0.2-0.2-0.5-0.4-0.7l0,0c-0.1-0.2-0.3-0.5-0.4-0.7l0,0c-0.3-0.4-0.6-0.8-1-1.2l0,0c-0.9-0.9-2-1.4-3.1-1.4c-3.3,0-6,4.3-6,9.5
	c0,0.1,0,0.1,0,0.2l-51.5-51.5c0.2,0,0.4,0.1,0.7,0.1c3.3,0,6-4.3,6-9.5C1436.4,849.2,1433.7,845,1430.4,845z M1493.8,951.5
	c9.2,3.6,18.6,3.2,24.8-0.4c-4.6,0.3-9.6-0.5-14.6-2.5c-12.3-4.9-20-15.2-18.3-24.1c-1.9-0.7-3.5-3-4.2-5.9
	c-2.5,1.6-4.4,3.8-5.4,6.4C1472.6,934.4,1480.4,946.2,1493.8,951.5z"></path>
<path id="color_x5F_2" fill="#FBC02D" d="M366.6,763.4c-2,15.6-9.3,27.1-18.1,27.1c-10.3,0-18.6-15.9-18.6-35.5s8.3-35.5,18.6-35.5
	c5.6,0,10.6,4.7,14.1,12.2c-0.7-1.4-1.4-2.8-2.1-4c-0.4-0.1-0.8-0.1-1.1-0.1c-8,0-14.6,12.4-14.6,27.8c0,15.3,6.5,27.8,14.6,27.8
	c0.2,0,0.4,0,0.6-0.1C363.2,778.3,365.6,771.4,366.6,763.4z M366.4,744.9c-0.1-0.4-0.1-0.8-0.2-1.2
	C366.3,744,366.3,744.4,366.4,744.9z M366.7,746.7c0-0.4-0.1-0.8-0.2-1.2C366.5,745.9,366.6,746.3,366.7,746.7z M366.7,747.3
	c0,0.4,0.1,0.8,0.1,1.2C366.8,748.1,366.8,747.7,366.7,747.3z M367.1,753c0,0.6,0,1.3,0,1.9C367.2,754.3,367.2,753.7,367.1,753z
	 M367,750.4c0-0.4-0.1-0.8-0.1-1.2C367,749.6,367,750,367,750.4z M367.1,752.4c0-0.4,0-0.9-0.1-1.3
	C367.1,751.6,367.1,752,367.1,752.4z M362.6,731.7c0.2,0.5,0.4,0.9,0.6,1.4C363,732.7,362.8,732.2,362.6,731.7z M366.1,743.1
	c-0.1-0.5-0.2-0.9-0.3-1.4C365.9,742.2,366,742.6,366.1,743.1z M366.9,761c0-0.4,0.1-0.9,0.1-1.3C367,760.1,366.9,760.5,366.9,761z
	 M366.8,761.6c0,0.5-0.1,1-0.2,1.5C366.7,762.6,366.8,762.1,366.8,761.6z M367.1,759c0-0.5,0-0.9,0.1-1.4
	C367.1,758.1,367.1,758.5,367.1,759z M363.9,734.7c0.8,2.1,1.4,4.3,1.9,6.6C365.2,739,364.6,736.8,363.9,734.7z M367.2,755
	c0,0.7,0,1.3,0,2C367.2,756.3,367.2,755.7,367.2,755z M363.8,734.7c-0.2-0.5-0.4-1-0.6-1.5C363.5,733.7,363.6,734.2,363.8,734.7z
	 M307.6,925.4c-1.5,0-2.9-0.9-4-2.4c1.5,18.2-27.4,30.2-27.4,30.2l11.5-1.5c1-0.3,2-0.6,3-1c12.9-5.1,20.7-16.3,17.9-25.4
	C308.3,925.4,307.9,925.4,307.6,925.4z M364.4,845.6c-3.3,0-6,4.3-6,9.5c0,5.3,2.7,9.5,6,9.5s6-4.3,6-9.5
	C370.3,849.9,367.7,845.6,364.4,845.6z M364.6,861.6c-2.1,0-3.8-2.7-3.8-6.1s1.7-6.1,3.8-6.1c2.1,0,3.8,2.7,3.8,6.1
	S366.7,861.6,364.6,861.6z M356.2,854.4l-4.2,4.2c-0.3-1.1-0.4-2.2-0.4-3.4c0-1.9,0.4-3.7,1-5.2L356.2,854.4z M307.6,906.4
	c-2.9,0-5.3,3.3-5.8,7.6c-0.3-0.2-0.6-0.4-0.9-0.6c-1.6-1-3.5-1.6-5.4-1.8c-0.4,1.3-0.6,2.7-0.6,4.3c0,5.3,2.7,9.5,6,9.5
	c1,0,2-0.4,2.8-1.1c0-0.4,0-0.9-0.1-1.3c1.1,1.5,2.5,2.5,4,2.5c3.3,0,6-4.3,6-9.5C313.5,910.6,310.9,906.4,307.6,906.4z
	 M301.6,914.9c0,0.3,0,0.6,0,1C301.6,915.6,301.6,915.2,301.6,914.9z M301.7,917.2c0-0.1,0-0.2,0-0.3
	C301.7,917,301.7,917.1,301.7,917.2z M303.1,922.3C303.1,922.3,303.2,922.3,303.1,922.3C303.2,922.3,303.1,922.3,303.1,922.3z
	 M301.7,917.9c0,0.1,0,0.2,0,0.3C301.8,918.1,301.8,918,301.7,917.9z M301.9,918.8c0,0.1,0,0.1,0,0.2
	C301.9,919,301.9,918.9,301.9,918.8z M302.1,919.8c0,0.1,0,0.1,0,0.2C302.2,919.9,302.1,919.8,302.1,919.8z M302.4,920.7
	L302.4,920.7L302.4,920.7z M302.8,921.5L302.8,921.5L302.8,921.5z M307.6,922c-2.1,0-3.8-2.7-3.8-6.1c0-3.4,1.7-6.1,3.8-6.1
	s3.8,2.7,3.8,6.1S309.7,922,307.6,922z M322.8,813.7l3.7,4.5c-2.4,1-5.1,1.6-7.9,1.6c-11.5,0-20.8-9.3-20.8-20.8
	c0-10.9,8.3-19.8,18.9-20.7c2.2,10.9,5.9,20.4,10.5,27.6l-4,3.3C321.9,810.2,321.7,812.2,322.8,813.7z M501.1,749.1H456
	c4.2-30.5-15.8-35.5-15.8-35.5l53-0.2C509.4,725.6,501.1,749.1,501.1,749.1z M365.2,800.2c41.3-37.8,0-89.7,0-89.7
	C422.7,763.4,365.2,800.2,365.2,800.2z M418.9,731.3c6.1,7.4-13.9,20.1-13.9,0c0,0,1.7-1.6,4.1-2.5v-89.3l6.3,89.1
	C416.5,729,417.7,729.9,418.9,731.3z M395.4,800.2c0-11.5,9.3-20.8,20.8-20.8s20.8,9.3,20.8,20.8c0,3.8-1,7.3-2.8,10.4l-3.4-4.1
	c-1.2-1.4-3.2-1.6-4.7-0.5l-5.3,4.3c-1.4,1.2-1.6,3.2-0.5,4.7l3.7,4.5c-2.4,1-5.1,1.6-7.9,1.6C404.8,821.1,395.4,811.7,395.4,800.2z
	 M406.3,926.6c2.8,9.1-5,20.4-17.9,25.4c-1,0.4-2,0.7-3,1l-11.5,1.5c0,0,28.9-12,27.4-30.2c1.1,1.5,2.5,2.4,4,2.4
	C405.6,926.8,405.9,926.7,406.3,926.6z M462,847c-3.3,0-6,4.3-6,9.5c0,5.3,2.7,9.5,6,9.5s6-4.3,6-9.5C468,851.2,465.3,847,462,847z
	 M462.2,863c-2.1,0-3.8-2.7-3.8-6.1s1.7-6.1,3.8-6.1c2.1,0,3.8,2.7,3.8,6.1S464.3,863,462.2,863z M453.8,855.7l-4.2,4.2
	c-0.3-1.1-0.4-2.2-0.4-3.4c0-1.9,0.4-3.7,1-5.2L453.8,855.7z M405.2,907.7c-2.9,0-5.3,3.3-5.8,7.6c-0.3-0.2-0.6-0.4-0.9-0.6
	c-1.6-1-3.5-1.6-5.4-1.8c-0.4,1.3-0.6,2.7-0.6,4.3c0,5.3,2.7,9.5,6,9.5c1,0,2-0.4,2.8-1.1c0-0.4,0-0.9-0.1-1.3
	c1.1,1.5,2.5,2.5,4,2.5c3.3,0,6-4.3,6-9.5C411.2,912,408.5,907.7,405.2,907.7z M399.3,916.3c0,0.3,0,0.6,0,1
	C399.2,916.9,399.3,916.6,399.3,916.3z M399.3,918.5c0-0.1,0-0.2,0-0.3C399.3,918.4,399.3,918.4,399.3,918.5z M400.8,923.6
	L400.8,923.6L400.8,923.6z M399.4,919.3c0,0.1,0,0.2,0,0.3C399.4,919.4,399.4,919.3,399.4,919.3z M399.5,920.2c0,0.1,0,0.1,0,0.2
	C399.6,920.3,399.6,920.3,399.5,920.2z M399.8,921.1c0,0.1,0,0.1,0,0.2C399.8,921.2,399.8,921.2,399.8,921.1z M400.1,922
	C400.1,922,400.1,922.1,400.1,922C400.1,922.1,400.1,922,400.1,922z M400.4,922.8C400.4,922.9,400.4,922.9,400.4,922.8
	C400.4,922.9,400.4,922.9,400.4,922.8z M405.2,923.4c-2.1,0-3.8-2.7-3.8-6.1c0-3.4,1.7-6.1,3.8-6.1s3.8,2.7,3.8,6.1
	C409.1,920.6,407.3,923.4,405.2,923.4z M1532.5,781.1c0.2,0,0.4,0.1,0.6,0.1c8,0,14.6-12.4,14.6-27.8c0-15.3-6.5-27.8-14.6-27.8
	c-0.4,0-0.8,0.1-1.1,0.1c-0.8,1.2-1.5,2.5-2.1,4c3.4-7.5,8.4-12.2,14.1-12.2c10.3,0,18.6,15.9,18.6,35.5s-8.3,35.5-18.6,35.5
	c-8.8,0-16.1-11.5-18.1-27.1C1526.8,769.4,1529.2,776.3,1532.5,781.1z M1526.2,741.6c-0.1,0.4-0.1,0.8-0.2,1.2
	C1526.1,742.4,1526.2,742,1526.2,741.6z M1525.9,743.5c-0.1,0.4-0.1,0.8-0.2,1.2C1525.8,744.3,1525.9,743.9,1525.9,743.5z
	 M1525.6,746.5c0-0.4,0.1-0.8,0.1-1.2C1525.6,745.7,1525.6,746.1,1525.6,746.5z M1525.3,751c0,0.6,0,1.3,0,1.9
	C1525.3,752.3,1525.3,751.7,1525.3,751z M1525.5,747.2c0,0.4-0.1,0.8-0.1,1.2C1525.4,748,1525.5,747.6,1525.5,747.2z M1525.4,749.1
	c0,0.4,0,0.9-0.1,1.3C1525.3,750,1525.3,749.6,1525.4,749.1z M1529.2,731.1c0.2-0.5,0.4-0.9,0.6-1.4
	C1529.6,730.2,1529.4,730.7,1529.2,731.1z M1526.6,739.7c-0.1,0.5-0.2,0.9-0.3,1.4C1526.4,740.6,1526.5,740.2,1526.6,739.7z
	 M1525.4,757.6c0,0.5,0.1,0.9,0.1,1.3C1525.5,758.5,1525.4,758.1,1525.4,757.6z M1525.7,761c-0.1-0.5-0.1-1-0.2-1.5
	C1525.6,760.1,1525.7,760.6,1525.7,761z M1525.3,755.6c0,0.5,0,0.9,0.1,1.4C1525.3,756.5,1525.3,756.1,1525.3,755.6z M1526.7,739.4
	c0.5-2.4,1.2-4.6,1.9-6.6C1527.8,734.8,1527.2,737,1526.7,739.4z M1525.3,755c0-0.7,0-1.3,0-2C1525.2,753.7,1525.3,754.3,1525.3,755
	z M1529.2,731.2c-0.2,0.5-0.4,1-0.6,1.5C1528.8,732.2,1529,731.7,1529.2,731.2z M1583.8,923.3c-2.8,9.1,5,20.4,17.9,25.4
	c1,0.4,2,0.7,3,1l11.5,1.5c0,0-28.9-12-27.4-30.2c-1.1,1.5-2.5,2.4-4,2.4C1584.5,923.4,1584.1,923.4,1583.8,923.3z M1522.1,853.1
	c0,5.3,2.7,9.5,6,9.5s6-4.3,6-9.5c0-5.3-2.7-9.5-6-9.5S1522.1,847.9,1522.1,853.1z M1524,853.5c0-3.4,1.7-6.1,3.8-6.1
	c2.1,0,3.8,2.7,3.8,6.1s-1.7,6.1-3.8,6.1S1524,856.9,1524,853.5z M1539.8,848c0.6,1.5,1,3.3,1,5.2c0,1.2-0.1,2.4-0.4,3.4l-4.2-4.2
	L1539.8,848z M1578.9,913.9c0,5.3,2.7,9.5,6,9.5c1.5,0,2.9-0.9,4-2.5c0,0.4-0.1,0.9-0.1,1.3c0.8,0.7,1.8,1.1,2.8,1.1
	c3.3,0,6-4.3,6-9.5c0-1.5-0.2-3-0.6-4.3c-1.9,0.2-3.7,0.8-5.4,1.8c-0.3,0.2-0.6,0.4-0.9,0.6c-0.6-4.4-3-7.6-5.8-7.6
	C1581.5,904.4,1578.9,908.6,1578.9,913.9z M1590.8,913.9c0-0.3,0-0.6,0-1C1590.8,913.2,1590.8,913.6,1590.8,913.9z M1590.8,914.9
	c0,0.1,0,0.2,0,0.3C1590.8,915.1,1590.8,915,1590.8,914.9z M1589.3,920.3L1589.3,920.3L1589.3,920.3z M1590.6,916.1
	c0-0.1,0-0.2,0-0.3C1590.7,916,1590.6,916.1,1590.6,916.1z M1590.5,917.1c0-0.1,0-0.1,0-0.2C1590.5,916.9,1590.5,917,1590.5,917.1z
	 M1590.2,917.9c0-0.1,0-0.1,0-0.2C1590.3,917.8,1590.3,917.9,1590.2,917.9z M1590,918.7L1590,918.7L1590,918.7z M1589.6,919.5
	C1589.6,919.5,1589.7,919.5,1589.6,919.5C1589.7,919.5,1589.6,919.5,1589.6,919.5z M1581,913.9c0-3.4,1.7-6.1,3.8-6.1
	s3.8,2.7,3.8,6.1c0,3.4-1.7,6.1-3.8,6.1S1581,917.3,1581,913.9z M1569.1,807l-4-3.3c4.7-7.2,8.4-16.7,10.5-27.6
	c10.6,1,18.9,9.9,18.9,20.7c0,11.5-9.3,20.8-20.8,20.8c-2.8,0-5.5-0.6-7.9-1.6l3.7-4.5C1570.7,810.2,1570.5,808.2,1569.1,807z
	 M1399.2,711.4l53,0.2c0,0-20,5.1-15.8,35.5h-45.1C1391.3,747.1,1383,723.6,1399.2,711.4z M1527.2,708.5c0,0-41.3,51.9,0,89.7
	C1527.2,798.2,1469.7,761.4,1527.2,708.5z M1477.1,726.5l6.3-89.1v89.3c2.4,1,4.1,2.5,4.1,2.5c0,20.1-20,7.4-13.9,0
	C1474.7,727.9,1475.9,727,1477.1,726.5z M1476.2,819.1c-2.8,0-5.5-0.6-7.9-1.6l3.7-4.5c1.2-1.4,1-3.5-0.5-4.7l-5.3-4.3
	c-1.4-1.2-3.5-1-4.7,0.5l-3.4,4.1c-1.8-3.1-2.8-6.6-2.8-10.4c0-11.5,9.3-20.8,20.8-20.8s20.8,9.3,20.8,20.8
	C1497,809.7,1487.7,819.1,1476.2,819.1z M1487.2,924.8c1.5,0,2.9-0.9,4-2.4c-1.5,18.2,27.4,30.2,27.4,30.2l-11.5-1.5
	c-1-0.3-2-0.6-3-1c-12.9-5.1-20.7-16.3-17.9-25.4C1486.5,924.7,1486.8,924.8,1487.2,924.8z M1424.4,854.5c0,5.3,2.7,9.5,6,9.5
	s6-4.3,6-9.5c0-5.3-2.7-9.5-6-9.5S1424.4,849.2,1424.4,854.5z M1426.4,854.9c0-3.4,1.7-6.1,3.8-6.1c2.1,0,3.8,2.7,3.8,6.1
	s-1.7,6.1-3.8,6.1S1426.4,858.3,1426.4,854.9z M1442.2,849.3c0.6,1.5,1,3.3,1,5.2c0,1.2-0.1,2.4-0.4,3.4l-4.2-4.2L1442.2,849.3z
	 M1481.2,915.3c0,5.3,2.7,9.5,6,9.5c1.5,0,2.9-0.9,4-2.5c0,0.4-0.1,0.9-0.1,1.3c0.8,0.7,1.8,1.1,2.8,1.1c3.3,0,6-4.3,6-9.5
	c0-1.5-0.2-3-0.6-4.3c-1.9,0.2-3.7,0.8-5.4,1.8c-0.3,0.2-0.6,0.4-0.9,0.6c-0.6-4.4-3-7.6-5.8-7.6
	C1483.9,905.7,1481.2,910,1481.2,915.3z M1493.2,915.3c0-0.3,0-0.6,0-1C1493.2,914.6,1493.2,914.9,1493.2,915.3z M1493.1,916.3
	c0,0.1,0,0.2,0,0.3C1493.1,916.4,1493.1,916.4,1493.1,916.3z M1491.6,921.6L1491.6,921.6L1491.6,921.6z M1493,917.5
	c0-0.1,0-0.2,0-0.3C1493,917.3,1493,917.4,1493,917.5z M1492.8,918.4c0-0.1,0-0.1,0-0.2C1492.9,918.3,1492.8,918.3,1492.8,918.4z
	 M1492.6,919.3c0-0.1,0-0.1,0-0.2C1492.6,919.2,1492.6,919.2,1492.6,919.3z M1492.3,920.1C1492.3,920.1,1492.4,920,1492.3,920.1
	C1492.4,920,1492.3,920.1,1492.3,920.1z M1492,920.9L1492,920.9L1492,920.9z M1483.4,915.3c0-3.4,1.7-6.1,3.8-6.1s3.8,2.7,3.8,6.1
	c0,3.4-1.7,6.1-3.8,6.1S1483.4,918.6,1483.4,915.3z"></path>
<path id="color_x5F_1" fill="#0984E3" d="M442.3,1029.1L442,988l35.5,20.8l-0.2,41.1L442.3,1029.1z M1957.9,1159.6L1099,1664.4
	L41.5,1064l224.2-130.4c0.1,2.4,0.5,4.6,1.3,6.6c0.3-2.8,1.1-5.8,2.2-8.7l25.7-14.9c0.2,4.9,2.8,8.8,5.9,8.8c1,0,2-0.4,2.8-1.1
	c0,13.8-17.2,23.8-24.4,27.4c-1.1,0-2.1,0-3.1,0c0.5,0.3,1,0.5,1.5,0.8c-0.9,0.4-1.5,0.7-1.5,0.7l2.4-0.3c6.1,2.5,14.3,2.4,22.4-0.8
	c13.4-5.3,21.3-17.1,17.6-26.4c-1-2.7-2.9-4.8-5.4-6.4l0,0c0.3-1.1,0.4-2.2,0.4-3.4c0,0.1,0,0.1,0,0.2l24.6-24.6l98.2-57.1l13.9,17
	c-0.6,1.5-1,3.3-1,5.2c0,1.2,0.1,2.4,0.4,3.4l-48.2,48.2c-1.1-1.6-2.4-2.9-4.1-3.9c-8.6-5.2-21.5,0.6-29,12.9
	c-5.1,8.5-6.3,17.8-3.8,24.5c0.5-4.5,2.1-9.4,4.9-13.9c6-9.9,15.7-15.6,23.6-14.7c-0.4,1.3-0.6,2.7-0.6,4.3c0,5.3,2.7,9.5,6,9.5
	c1,0,2-0.4,2.8-1.1c0,13.8-17.2,23.8-24.4,27.4c-1.1,0-2.1,0-3.1,0c0.5,0.3,1,0.5,1.5,0.8c-0.9,0.4-1.5,0.7-1.5,0.7l2.4-0.3
	c6.1,2.5,14.3,2.4,22.4-0.8c13.4-5.3,21.3-17.1,17.6-26.4c-1-2.7-2.9-4.8-5.4-6.4l0,0c0.3-1.1,0.4-2.2,0.4-3.4c0,0.1,0,0.1,0,0.2
	l51.5-51.5l0,0c3-0.5,5.3-4.6,5.3-9.5c0-1.5-0.2-3-0.6-4.3c0-0.8-0.2-1.5-0.7-2.1l-18.5-22.6l352.1-204.8l-0.6,124.9
	c-4.2,6.1-6.9,13.2-7.7,21.3c-0.4,0.8-0.7,24.3-0.8,43c0-0.1,0-0.1,0-0.2L517.9,967.4l-0.2,31.2L937.1,1245l281.4-162.9l0.2-30l0,0
	l25.8-14.6L1246,757l179,101.2c0.8,3.1,2.7,5.3,4.8,5.7l0,0l51.5,51.5c0-0.1,0-0.1,0-0.2c0,1.2,0.1,2.3,0.4,3.4l0,0
	c-2.5,1.6-4.4,3.8-5.4,6.4c-3.7,9.3,4.2,21.1,17.6,26.4c8.1,3.2,16.3,3.3,22.4,0.8l2.4,0.3c0,0-0.6-0.2-1.5-0.7
	c0.5-0.2,1-0.5,1.5-0.8c-1,0.1-2.1,0.1-3.1,0c-7.2-3.6-24.4-13.6-24.4-27.4c0.8,0.7,1.8,1.1,2.8,1.1c3.3,0,6-4.3,6-9.5
	c0-1.5-0.2-3-0.6-4.3c8-0.9,17.6,4.7,23.6,14.7c2.8,4.6,4.4,9.4,4.9,13.9c2.5-6.7,1.3-16-3.8-24.5c-0.2-0.4-0.5-0.8-0.8-1.2
	L1957.9,1159.6z M588.4,1131.4l63.7,37.3l0.4-73.8l-63.7-37.3L588.4,1131.4z M583.3,1138.1l0.2-38.9l-33.6-19.6l-0.8,77.9l101,58.7
	l0.2-38.9L583.3,1138.1z M561.5,1068.6l20.9,12.2l0.1-24.2l-20.9-12.2L561.5,1068.6z M533.4,1053l20.9,12.2l0.1-24.2l-20.9-12.2
	L533.4,1053z M502.8,1034.7l20.9,12.2l0.1-24.2l-20.9-12.2L502.8,1034.7z M502.6,1071l20.9,12.2l0.1-24.2l-20.9-12.2L502.6,1071z
	 M502.4,1104.5l20.9,12.2l0.1-24.2l-20.9-12.2L502.4,1104.5z M429.2,965.4l0.6,71.1l26.5,15.8l-0.1,24l20.9,12.2l0.1-23.8l12.9,7.7
	l0.4-71L429.2,965.4z M428.2,1137.2l101,59.5l0.1-24.8l11.3,6.6l0.1-14.3l-12.4-7.2l0,0l-5.4-3.2l0.1-24.1l-20.9-12.2l-0.1,24
	l-2.1-1.2l0.1-23.8l-20.9-12.2l-0.1,23.8l-29.9-17.6l0.1-22.1l-20.9-12.2l-0.1,22l0,0L428.2,1137.2z M533,1220.3l-0.1,14.3l12.4,7.2
	l0.1-14.3L533,1220.3z M453.5,1167.8l-29.7-17.4l-0.4,69.1l29.7,17.5L453.5,1167.8z M464.6,1202.3l28.4,16.6l0.2-33.3l-28.8-16.8
	L464.6,1202.3z M542.4,1264.8l-12.3-7.2v-44L499,1195l-0.2,37.2l-31.1-18.9l-0.6,36.3l63.1,36.8l0,0l12.1,7.1l0.1-14.3L542.4,1264.8
	z M556.6,1272.2l-12.4-7.2l-0.1,14.3l12.4,7.2L556.6,1272.2z M570.1,1295.5l-12.4-7.2l-0.1,14.3l12.4,7.2L570.1,1295.5z
	 M582.6,1280.7l-12.4-7.2l0.1-14.3v-0.1l0.1-14.3l-12.4-7.2l-0.1,14.1l-12.4-7.2l-0.1,14.3l24.8,14.6l-0.1,14.3l12.4,7.2
	L582.6,1280.7z M583.6,1242.1l0.1-13.1c10.7,6.4,68.8,40.1,68.8,40.1l0.2-40.8l-106-61.6l-0.2,40.8c0,0,3.1,1.8,7.5,4.3l-0.1,13.6
	l12.4,7.2l0.1-13.8c1.7,1,3.4,1.9,4.9,2.8l-0.1,13.2L583.6,1242.1z M653.2,1280.3l-67.1-39.2l-0.8,77.9l67.4,39.6L653.2,1280.3z
	 M602.1,1123.6l36.5,21.4l0.2-42.3l-36.5-21.4L602.1,1123.6z M640.1,1287.8l-41.2-24.1l-0.5,47.9l41.4,24.4L640.1,1287.8z"></path>
</svg>
