<svg version="1.1" id="color_x5F_1" xmlns="http://www.w3.org/2000/svg" xmlns:xlink="http://www.w3.org/1999/xlink" x="0px" y="0px" width="600px" height="600px" viewBox="0 0 600 600" enable-background="new 0 0 600 600" xml:space="preserve">
<polygon id="color_x5F_10" fill="#6BA7D0" points="268.705,483.79 34.369,348.732 34.369,362.237 268.705,498.404 565.53,326.559 
	565.53,308.92 "></polygon>
<path id="color_x5F_9" fill="#F4B922" d="M454.057,150.076c-10.482,39.005-60.877,20.057-60.877,20.057s26.911,6.148,37.897-24.895
	c10.985-31.043-14.716-43.743-14.716-43.743S464.64,110.465,454.057,150.076z M368.587,118.024l-3.83-14.11l-3.829,9.474
	l-7.963-4.838l5.544,12.296l-3.528,10.079l8.769-1.915l8.164,10.482l-1.31-12.8l8.365-2.721L368.587,118.024z M304.989,143.021
	l-3.83-14.111l-3.83,9.474l-7.962-4.838l5.543,12.296l-3.528,10.079l8.769-1.915l8.164,10.482l-1.311-12.8l8.365-2.722
	L304.989,143.021z"></path>
<path id="color_x5F_8" fill="#D0E7DF" d="M240.584,248.043l49.084,28.02c-0.101,0.202-0.302,0.302-0.403,0.504
	c-0.807,1.109-1.311,2.52-1.209,4.435c0,0-0.504-0.302-1.311-0.504c-0.202,0-0.302-0.101-0.504-0.101
	c-0.403-0.101-0.806-0.101-1.209-0.202c-1.713-0.101-3.729,0.403-5.04,2.822c-2.318,4.132-2.822,7.257-1.209,11.893l-98.169,56.644
	l-59.667-34.47L240.584,248.043z M222.342,333.714l23.786,14.11l40.316-23.383l0.202-2.217l-22.073-12.801L222.342,333.714z
	 M340.366,269.007c-2.52,1.814-6.249,2.721-6.249,2.721l0.403,0.806l0.504,1.613c0,0,4.031,1.311,7.156-1.209l-1.311-2.923
	L340.366,269.007z M407.996,269.41v-1.008l-7.963,4.536C406.786,274.248,407.996,269.41,407.996,269.41z M393.18,270.62
	l18.546-10.684l-4.032-2.721c-0.302,0.202-0.705,0.403-1.008,0.605c-0.101,0-0.101,0.101-0.201,0.101
	c-0.303,0.202-0.605,0.403-0.907,0.604c-0.101,0.101-0.202,0.101-0.303,0.202c-0.302,0.202-0.705,0.403-1.108,0.706
	c-0.101,0-0.101,0.101-0.201,0.101c-1.814,1.108-3.83,2.318-6.048,3.628l0,0c-2.923,1.713-5.946,3.527-8.769,5.241l0,0
	L393.18,270.62z M372.519,279.893L372.519,279.893c0,0-0.102-3.931,3.124-5.241h0.101c-0.604,0.101-1.008,0.101-1.31,0.101h-0.102
	l0,0h-0.101l0,0l-4.132,2.52C370.905,277.272,372.014,278.481,372.519,279.893z M375.643,274.651L375.643,274.651L375.643,274.651
	L375.643,274.651z M373.526,283.924l-12.599,14.917l2.016,2.722l13.103-16.53L373.526,283.924z M396.809,295.817l-0.202-0.403
	l-1.008-2.621c-3.023,1.915-6.753,0.504-6.753,0.504l7.459,53.318h6.551L396.809,295.817z M403.562,352.26h-6.451l1.513,10.885
	l5.846-3.527L403.562,352.26L403.562,352.26z M393.079,286.343c3.527-6.249,8.365-3.628,8.365-3.628
	c-0.907-1.613-1.512-2.621-1.512-2.621v-2.822l0.202-0.101l0,0l-3.528-2.318l0.807-0.504l-4.334,2.52l-9.071-5.543l0,0l0,0l0,0
	c-0.705,0.403-1.411,0.807-2.016,1.109l0,0c-0.303,0.202-0.604,0.302-0.807,0.403c0,0-0.101,0-0.101,0.101
	c-0.201,0.101-0.403,0.202-0.604,0.302c-0.101,0-0.101,0.101-0.201,0.101c-0.102,0-0.202,0.101-0.202,0.101l0,0h-0.101l0,0
	c1.612-0.101,2.923,0.202,3.326,1.209c0,0.101,0.101,0.202,0.101,0.302c1.108,1.209,0.705,4.133,0.705,4.133
	c5.443,0.806,6.652,5.745,6.652,5.745C392.979,285.638,393.079,286.343,393.079,286.343z M403.965,294.104l-6.148,2.116
	l20.359,59.969l3.124,9.072l6.351,18.746l6.651-3.729L403.965,294.104z M401.444,282.715L401.444,282.715
	C401.444,282.815,401.546,282.815,401.444,282.715C401.546,282.815,401.444,282.815,401.444,282.715z M352.158,267.697l-2.317,0.907
	l0,0l-3.83,2.217c0,0,2.822,2.016,5.039,7.358l3.729-2.318l1.512-0.302C356.291,275.559,354.577,269.31,352.158,267.697z
	 M371.107,383.605l6.753,3.83l9.272-92.525l-6.35-1.109L371.107,383.605z"></path>
<path id="color_x5F_7" fill="#B6CEC2" d="M84.865,199.06v124.979l-3.427-2.218l-3.628-2.217V195.33l156.728-89.199l6.047,3.326
	L84.865,199.06z M84.865,323.938L84.865,323.938L84.865,323.938v7.156l107.845,61.985l92.323-53.217l0.605-7.458l-93.13,53.721
	L84.865,323.938z M345.91,297.732c0.101,0.201,0.101,0.504,0.101,0.806l0,0c0.101,0.907,0,1.915-0.303,3.024l0,0l0,0l0,0
	c0,0.101,0,0.101-0.101,0.201l0,0c-0.101,0.201-0.101,0.403-0.202,0.605c0.102-0.202,0.202-0.404,0.202-0.605
	c-0.101,0.201-0.101,0.403-0.202,0.605c-0.101,0.201-0.201,0.402-0.302,0.604c0,0,0,0.102-0.101,0.102
	c-0.102,0.201-0.202,0.402-0.303,0.604c0,0.101-0.101,0.101-0.101,0.202c-0.202,0.201-0.303,0.504-0.504,0.705
	c-0.504,0.705-0.907,1.411-1.21,2.117l5.745-3.326v-7.156L345.91,297.732z M345.104,299.446l-3.931-1.411l-1.714,1.411l1.411,1.412
	l-22.274,24.189l0,0c0.807,3.124,1.411,5.342,1.411,5.342l11.188-12.096l3.124-3.326l0.505-0.604l10.582-12.8l0,0L345.104,299.446z
	 M344.6,294.91c-0.605-0.907-1.21-1.411-1.21-1.411l-15.823-9.071c0,0-4.939-0.907-5.947,4.535l17.84,10.482
	C339.459,299.446,339.963,294.81,344.6,294.91z M344.6,294.91L344.6,294.91L344.6,294.91L344.6,294.91L344.6,294.91z M319.1,290.072
	l-9.877,15.32l0,0l0,0c0.201,0.101,0.504,0.303,0.705,0.402c0,0,0.101,0,0.101,0.102c0.202,0.101,0.403,0.303,0.706,0.402
	l0.101,0.102c0.101,0.101,0.201,0.101,0.303,0.201l2.317-3.326c-0.201-0.303-0.402-0.705-0.302-1.108
	c0.201-0.604,1.008-0.706,1.31-0.302l7.762-10.987l-0.605-2.016C321.619,288.963,320.007,288.661,319.1,290.072z"></path>
<path id="color_x5F_6" fill="#FD6322" d="M96.456,206.417l136.469-78.414v101.495L96.456,308.314V206.417z M298.438,401.444
	c-1.512,0.807-3.427,1.411-3.427,1.411l-0.504,3.226c0,0-2.52,1.814-5.039,0c0,0,0.101,2.923,0.403,3.527s2.016,0.706,3.528,0.706
	s2.621-1.21,4.334-2.117c1.713-0.806,5.442-4.435,4.838-5.946C302.167,400.739,299.95,400.639,298.438,401.444z M317.991,403.562
	c-2.218,0.201-7.056,1.612-7.056,1.612v1.108c0,0-2.217,1.814-4.838,0v-0.302l0,0c0,0-0.101,4.435,0.403,5.442
	c0.604,1.008,1.512,1.008,3.023,0.705c1.512-0.302,9.676-4.636,10.079-5.543C320.107,405.778,320.107,403.359,317.991,403.562z"></path>
<path id="color_x5F_5" fill="#FFD2BB" d="M308.819,297.027c-3.024,3.528-5.141,0.907-5.141,0.907l-1.008,4.737
	c-3.427,0.504-5.04-1.008-5.442-1.411c-0.101-0.101-0.101-0.101-0.101-0.101s0.504-4.737,0-6.249
	c-0.101-0.202-0.101-0.403-0.202-0.504c2.217,0.706,8.77,0.202,8.063-3.125c-0.706-3.427-0.303-6.451,1.411-5.846
	c1.713,0.604,1.108,4.737,1.108,4.737s1.21-1.512,1.714-6.047c0.504-4.535,2.317-3.225,2.317-3.225
	C313.557,283.42,311.843,293.6,308.819,297.027z M334.521,314.967L334.521,314.967l-3.125,3.326
	c-0.302,0.504-0.504,0.907-0.504,1.411c0,0.706-0.604,1.311-0.604,1.311l2.923,2.419c0,0,2.016-2.621,2.621-4.535
	c0.101-0.202,0.101-0.504,0.201-0.706l0.303-5.342L334.521,314.967z M317.688,303.779c-0.907,0.202-1.512,1.008-1.512,1.109l0,0
	l1.512,3.83h-0.705l-2.621-3.932c-1.108,0.403-2.419,2.318-2.419,2.318l0,0c0.101,0,0.101,0.102,0.202,0.102l0.101,0.1
	c0.101,0.102,0.201,0.102,0.302,0.202l0.102,0.101c0.101,0.102,0.201,0.201,0.403,0.201l0.101,0.102
	c0.101,0.101,0.101,0.101,0.201,0.201l0,0l0,0c0,0,0.101,0,0.101,0.102c0.102,0,0.102,0.101,0.202,0.101l0.101,0.101l0.101,0.101
	c0,0,0,0,0.101,0.101c0.102,0.102,0.102,0.102,0.102,0.202c0,0,0.101,0.101,0.101,0.202l0,0v0.1c0,0.102,0.101,0.202,0.101,0.303
	l0,0c0,0.102,0,0.102,0.101,0.201c0,0.102,0.102,0.202,0.102,0.303c0,0.102,0.101,0.201,0.101,0.303
	c0,0.101,0.101,0.201,0.101,0.402c0,0.102,0.101,0.303,0.101,0.404c0,0.1,0.101,0.201,0.101,0.402s0.102,0.303,0.102,0.504
	c0,0.102,0.101,0.201,0.101,0.403c0.101,0.504,0.302,1.008,0.403,1.512l0,0l0,0c0.402-0.101,1.209-0.101,1.512-0.504
	c0.302-0.403,0.806-1.512,0.806-2.317l0,0c0-0.706,0.403,0,0.807-0.202l0,0c0.403-0.202,1.108-1.411,1.008-2.318
	C319.805,307.408,318.696,303.679,317.688,303.779z"></path>
<path id="color_x5F_4" fill="#00CEC9" d="M397.313,274.45l2.116-1.209l-6.45,3.729L397.313,274.45z M418.176,356.291l-20.359-59.97
	l-1.008-0.403l6.147,50.798L418.176,356.291z M446.8,239.778l-20.359,11.893l0,0c0,0-1.21-0.504-3.124-0.706
	c-0.605-0.101-1.411-0.101-2.218,0c-3.226,0.202-7.962,4.233-7.962,4.233l-2.318,0.201c0,0-1.109,0.706-3.024,1.814l4.032,2.721
	v6.148l-12.297,7.055l0.605-0.302l7.962-4.536v1.008v3.225l-7.962,4.637l-0.202,0.101v2.822c0,0,0.907,1.411,2.016,3.527
	c0,0,0,0.101,0.102,0.101c0.201,0.302,0.302,0.604,0.504,0.907c0,0,0,0.101,0.101,0.101c0.302,0.706,0.705,1.411,1.008,2.117
	c0,0.101,0.101,0.202,0.101,0.302c0.101,0.302,0.202,0.504,0.303,0.806c0.101,0.101,0.101,0.302,0.201,0.403
	c0.101,0.202,0.202,0.504,0.303,0.706c0,0.101,0.101,0.302,0.101,0.403c0.101,0.202,0.201,0.504,0.201,0.706
	c0,0.101,0.102,0.202,0.102,0.403c0.101,0.403,0.201,0.706,0.201,1.109l-1.108,2.52l30.236,86.276l-6.651,3.729l-6.351-18.746
	l-17.638-13.103l0.907,7.257l-5.846,3.527l-1.512-10.885l-16.731,9.979l0.705-6.652l15.32-8.87l-7.458-53.317l-1.814,1.512
	l-9.272,92.525l-6.753-3.83l9.676-89.804l-1.512-1.612l0.201-1.411l1.008-6.451c0,0-1.411,1.209-4.435,0.706l-13.103,16.53
	l0.907,2.318l-12.397,13.605l-5.442-3.729l11.49-14.715l3.427-0.101l12.599-14.917c0,0-0.604-1.209-0.807-3.125
	c0-0.202-0.101-0.403-0.101-0.504s-0.101-0.302-0.101-0.403l0,0c-0.504-1.411-1.613-2.621-2.52-2.621l-5.544,3.326
	c-0.504-0.101-0.907-0.202-1.411-0.302c-0.101,0-0.201,0-0.201-0.101c-0.403-0.101-0.907-0.303-1.311-0.504
	c-0.101,0-0.101,0-0.201-0.101c-3.629-1.512-6.552-3.83-6.552-3.83l-3.729,2.318l0.403,2.318l-4.435,2.318c0,0,0,0-1.311-1.008
	c-1.31-1.008-5.241-0.807-9.776-1.613s-5.846-4.938-5.846-4.938l4.435-2.621l-0.403-0.807c0,0-1.31-0.201-1.915-0.604l0,0l0,0
	c-0.101-0.101-0.201-0.202-0.302-0.302c-0.202-0.706-0.101-1.311,1.008-2.117s4.636-2.621,6.047-2.621
	c0.706,0,1.21,0.302,1.513,0.605l0,0c0.201,0.201,0.402,0.403,0.402,0.403l-0.705,1.915l0.705,1.209c0,0,0.807-0.604,1.714-0.706
	c0.201,0,0.504,0,0.907,0.202c0.201,0.101,0.403,0.101,0.604,0.202c0.101,0,0.201,0.101,0.303,0.101
	c0.907,0.403,1.713,0.907,1.713,0.907l0,0l3.83-2.217l0,0v-4.838l13.405-7.962c-0.807-2.621,0-3.83,0-3.83l3.931-2.419
	l30.741-18.545l1.108-2.217h0.101l5.543-3.326l3.729-3.931l3.729-2.016l-76.097-44.347l-95.649,54.93v3.527l58.458,33.664
	c1.209-0.403,2.52-0.504,3.729-0.101c4.334,1.311,8.567,1.411,8.265-1.31c-0.302-2.621-2.217-2.52-2.217-2.52
	s2.217-1.612,5.442-0.706c3.226,0.807,4.535,7.458,2.722,13.002c-0.202,0.605-0.403,1.109-0.605,1.512l32.253,18.646v7.156
	l-5.745,3.326c-2.923,6.552,0.101,15.724,0.101,15.724l-6.551-3.932l-0.303-0.201l0,0c0,0.303-0.101,0.504-0.201,0.705
	c-0.604,1.814-2.621,4.536-2.621,4.536l-2.923-2.419l3.326,2.721c0,0-11.389,18.041-13.203,18.344s-6.048-5.141-6.048-5.141
	s2.419,28.625,9.071,41.123c0,0-3.326,6.35-12.095,10.078l0,0l-0.403,17.034c0,0,4.838-1.512,7.056-1.612
	c2.218-0.202,2.116,2.217,1.612,3.124c-0.403,0.807-8.566,5.141-10.079,5.543c-1.512,0.303-2.419,0.403-3.023-0.705
	c-0.604-1.008-0.403-5.442-0.403-5.442l-0.503-3.024l-1.916-12.699l0,0c-2.016,0.303-4.233,0.403-6.652,0.403l-1.915,12.195
	c0,0,1.814-0.604,3.427-1.411c1.512-0.806,3.73-0.806,4.234,0.807c0.604,1.512-3.125,5.141-4.838,5.946
	c-1.713,0.807-2.822,2.117-4.334,2.117s-3.225-0.102-3.528-0.706c-0.302-0.604-0.403-3.527-0.403-3.527l-0.806-16.429l0,0
	c-2.419-0.504-5.04-1.109-7.761-2.016l4.132-47.774l-92.524,53.217L84.965,331.094v-7.156l0,0l-3.427-2.217l-47.169,27.012
	L268.705,483.79L565.53,308.92L446.8,239.778z M331.396,318.293l-11.188,12.096l10.18-9.273c0,0,0.605-0.604,0.605-1.311
	C330.892,319.2,331.094,318.797,331.396,318.293z"></path>
<path id="color_x5F_3" fill="#E84393" d="M335.024,314.362l10.583-12.8c-0.101,0.504-0.303,0.906-0.604,1.41
	c0,0,0,0.102-0.102,0.102c-0.101,0.201-0.201,0.402-0.302,0.604c0,0.101-0.101,0.101-0.101,0.202
	c-0.202,0.201-0.303,0.504-0.505,0.705c-0.504,0.705-0.906,1.411-1.209,2.117c-2.923,6.551,0.101,15.723,0.101,15.723l-6.551-3.931
	l-0.303-0.202l0,0l0.303-5.342L335.024,314.362z M346.011,298.539c0-0.302-0.102-0.605-0.102-0.907l0,0
	c-0.101-0.302-0.101-0.504-0.201-0.806l0,0c-0.101-0.202-0.201-0.504-0.303-0.706l0,0c-0.201-0.504-0.504-0.907-0.705-1.209l0,0
	c-4.637-0.101-5.141,4.536-5.141,4.536l1.714-1.411l3.931,1.411l0.604,2.117l0,0C346.011,300.454,346.111,299.446,346.011,298.539
	L346.011,298.539z M309.727,388.846c-0.102,0-0.202,0.102-0.202,0.102c-0.504,0.201-1.008,0.302-1.612,0.504
	c-0.101,0-0.202,0-0.202,0.101c-0.604,0.201-1.209,0.302-1.813,0.403c-0.102,0-0.102,0-0.202,0c-0.705,0.101-1.31,0.302-2.016,0.402
	l0,0l1.915,12.7l0.504,3.023l0,0v0.303c2.621,1.813,4.838,0,4.838,0v-1.109l0.403-17.033l0,0
	C310.835,388.443,310.23,388.645,309.727,388.846z M316.277,304.889c-0.907-1.512-1.612-2.924-1.612-2.924s0,0,0-0.1
	c-0.303-0.404-1.108-0.303-1.311,0.302c-0.101,0.403,0.101,0.806,0.303,1.108c0.101,0.201,0.302,0.403,0.302,0.403l0.605,1.008
	l2.62,3.931h0.706L316.277,304.889C316.177,304.889,316.277,304.889,316.277,304.889z M411.423,236.553
	c3.729,5.543,2.923,11.792-0.604,18.847l2.318-0.201c0,0,8.365-10.885,0-20.662c-4.334-5.04-9.777-5.946-13.909-5.644h-0.101
	l-1.109,2.217C398.018,231.11,407.693,231.01,411.423,236.553z M396.506,274.853l3.527,2.318l0,0l7.963-4.637v-3.225
	c0,0-1.21,4.838-7.963,3.528l-0.604,0.302l12.297-7.055v-6.047l-18.546,10.684l-3.83-2.318l0,0
	c-0.504,0.303-0.907,0.504-1.411,0.807c0,0-0.101,0-0.101,0.101c-0.403,0.202-0.806,0.504-1.209,0.706
	c-0.202,0.101-0.303,0.202-0.504,0.302c-0.303,0.202-0.504,0.303-0.807,0.504c-0.403,0.202-0.807,0.504-1.209,0.706l0,0l0,0
	l9.07,5.543L396.506,274.853z M294.91,390.56c-0.504,0-1.008-0.101-1.512-0.101c-0.202,0-0.403,0-0.605-0.102
	c-0.604-0.101-1.108-0.101-1.713-0.201c-0.101,0-0.302,0-0.403-0.101c-0.604-0.101-1.31-0.202-2.016-0.303l0,0l0.806,16.429
	c2.52,1.814,5.04,0,5.04,0l0.504-3.226l1.915-12.195c-0.403,0-0.806,0-1.31-0.101C295.414,390.56,295.212,390.56,294.91,390.56z
	 M345.708,281.808c1.311,1.008,1.311,1.008,1.311,1.008l4.435-2.318l-0.403-2.318c-2.218-5.443-5.039-7.358-5.039-7.358l0,0
	c0,0-0.807-0.504-1.714-0.907c-0.101,0-0.201-0.101-0.303-0.101c-0.201-0.101-0.402-0.202-0.604-0.202
	c-0.403-0.101-0.705-0.202-0.907-0.202c-0.806,0.101-1.713,0.706-1.713,0.706l1.311,2.923c-3.226,2.52-7.156,1.209-7.156,1.209
	l-0.504-1.613l-4.436,2.621c0,0,1.311,4.132,5.847,4.938C340.467,280.9,344.397,280.8,345.708,281.808z M332.303,271.023
	L332.303,271.023c0.605,0.504,1.915,0.605,1.915,0.605s3.729-0.907,6.249-2.722l-0.101-0.101l0.706-1.915
	c0,0-0.102-0.202-0.403-0.403l0,0c0,0-3.931,4.536-8.567,4.133L332.303,271.023L332.303,271.023z M396.606,295.414l0.202,0.403
	l1.008,0.403l6.148-2.116l1.108-2.52C405.073,291.584,398.925,292.088,396.606,295.414z M408.5,221.636l-3.729,3.931
	c0,0,10.482-2.318,15.622,6.35c5.141,8.668,1.411,17.84,0.706,19.049c0.807,0,1.512,0,2.218,0c1.915,0.202,3.124,0.706,3.124,0.706
	l0,0c0,0,5.241-14.614-3.326-23.282C414.547,219.62,408.5,221.636,408.5,221.636z M454.661,214.379
	c-7.962-10.785-18.242-9.877-18.242-9.877v1.915c0,0,12.095,1.411,16.63,9.272c4.535,7.962,2.52,15.824,0.604,19.957l1.311,0.403
	C455.064,236.15,462.624,225.164,454.661,214.379z M402.956,346.615h-6.551l-15.32,8.869l-0.705,6.652l16.73-9.979h6.451l0,0
	l17.638,13.104l-3.124-9.072L402.956,346.615z M349.841,263.766v4.838l2.317-0.907c2.318,1.613,4.133,7.862,4.133,7.862
	l-1.512,0.302c0,0,1.612,1.31,3.931,2.621C360.726,265.782,349.841,263.766,349.841,263.766z M387.032,294.91l1.813-1.512
	c0,0,3.629,1.411,6.753-0.504l-2.52-6.451c0,0-0.101-0.706-2.52-1.411l-1.311,6.652c0,0-1.915,1.814-5.745,0.806
	c-2.217-0.604-3.427-1.209-4.031-1.713l-0.202,1.411l1.513,1.612L387.032,294.91z M360.928,298.841l-3.428,0.101l-11.489,14.715
	l5.442,3.729l12.397-13.607l-0.907-2.318L360.928,298.841z M382.899,274.853c0.201,0.101,0.303,0.202,0.403,0.302
	c0-0.101,0-0.202-0.101-0.302c-0.403-1.008-1.714-1.31-3.326-1.209l0,0c-0.202,0.101-0.303,0.202-0.504,0.202c0,0,0,0-0.102,0l0,0
	c-0.101,0.101-0.201,0.101-0.402,0.202h-0.102l0,0c-0.101,0-0.101,0.101-0.201,0.101s-0.201,0.101-0.303,0.101
	c-0.302,0.101-0.604,0.101-0.907,0.101c-0.101,0-0.201,0-0.302,0c-0.202,0-0.303,0.101-0.504,0.101c-0.101,0-0.202,0-0.303,0
	s-0.201,0-0.302,0c-0.102,0-0.102,0-0.202,0c0.202,0,0.303,0,0.504-0.101c3.024-15.32-13.002-22.577-13.002-22.577
	s-0.806,1.209,0,3.83c0,0,9.676,3.931,10.785,14.816l-9.777,5.442l-5.543,2.419c0.807,0.403,1.714,0.907,2.62,1.209
	c0.102,0,0.102,0,0.202,0.101c0.403,0.202,0.907,0.302,1.311,0.504c0.101,0,0.201,0,0.201,0.101
	c0.504,0.101,0.907,0.302,1.411,0.302l5.543-3.326l4.133-2.52c0,0,0-3.225,0-4.031c0.101,1.209,0.101,2.62,0,4.031l0,0
	c0,0,0,0,0.101,0l0,0c0.202,0,0.807-0.101,1.512-0.202h-0.101l0,0h-0.101c-3.125,1.311-3.125,5.141-3.125,5.141l0,0l0,0
	c0.102,0.101,0.102,0.302,0.102,0.403c0,0.202,0.101,0.403,0.101,0.504c0.201,1.814,0.806,3.125,0.806,3.125l2.521,1.008
	c0,0-0.202-2.621,0.302-6.148C376.953,275.458,381.186,273.946,382.899,274.853z"></path>
<path id="color_x5F_2" fill="#FBC02D" d="M311.439,280.9c2.016,2.52,0.303,12.599-2.721,16.126s-5.141,0.907-5.141,0.907
	l-1.008,4.737c-3.427,0.504-5.04-1.008-5.443-1.411c-0.101-0.101-0.101-0.101-0.101-0.101s0.604-5.543-0.202-6.753
	c0,0-0.403-1.311-2.117-2.117c0,0-1.411-0.706-1.613-2.621c0,0-1.31,1.209-1.411,2.722c0,0,0,6.954,0.604,11.086l0,0l0,0
	l-2.117,1.412l-2.822,9.474c-1.209,0.706-2.621,1.009-4.233,0.706c-5.846-1.008-7.66-7.66-7.66-7.66
	c2.52,0.807,6.652-4.535,4.132-10.482c-0.302-0.806-0.604-1.512-0.806-2.217l-98.169,56.644l-59.667-34.47l119.738-68.94
	l49.084,28.02c1.713-2.016,4.334-2.722,4.334-2.722c-0.303-2.016,2.116-4.737,5.039-5.745l-58.458-33.664v-3.527V109.458
	L84.865,199.06v124.979l0,0l107.744,62.188l93.129-53.721l-0.604,7.458l-4.133,47.774c2.722,0.907,5.342,1.512,7.761,2.016
	c0.706,0.101,1.31,0.202,2.016,0.303c0.101,0,0.302,0,0.403,0.101c0.604,0.101,1.108,0.201,1.713,0.201c0.201,0,0.403,0,0.604,0.102
	c0.504,0.101,1.008,0.101,1.512,0.101c0.303,0,0.504,0,0.807,0c0.403,0,0.806,0.101,1.31,0.101c2.419,0.102,4.636-0.101,6.652-0.403
	c0.706-0.101,1.411-0.201,2.016-0.403c0.102,0,0.102,0,0.202,0c0.604-0.101,1.209-0.302,1.814-0.402c0.101,0,0.201,0,0.201-0.102
	c0.504-0.201,1.108-0.302,1.612-0.504c0.102,0,0.202-0.101,0.202-0.101c0.604-0.202,1.108-0.403,1.612-0.604
	c8.668-3.629,12.095-10.079,12.095-10.079c-6.652-12.498-9.071-41.122-9.071-41.122s4.233,5.442,6.048,5.141
	c1.814-0.303,13.203-18.344,13.203-18.344l-3.326-2.722l-10.18,9.272c0,0-0.604-2.318-1.411-5.342l0,0l22.275-24.189l-1.411-1.411
	l-17.84-10.482l0.604,2.016l-7.761,10.987c0,0,0,0,0,0.1c0,0,0.807,1.412,1.612,2.924c0-0.102,0.605-0.907,1.512-1.109
	c0.907-0.201,2.017,3.527,2.117,4.536c0.101,0.907-0.605,2.116-1.008,2.317c0.201,0.807,0.402,1.613,0.402,1.613l-1.31-1.311
	c0,0.705-0.504,1.915-0.807,2.318c-0.302,0.403-1.209,0.403-1.512,0.504l0,0l0,0c-0.201-0.504-0.303-1.008-0.403-1.512
	c0-0.102-0.101-0.303-0.101-0.403c0-0.202-0.101-0.302-0.101-0.504c0-0.101-0.101-0.302-0.101-0.403
	c0-0.101-0.102-0.303-0.102-0.402c0-0.102-0.101-0.202-0.101-0.404c0-0.1-0.101-0.201-0.101-0.302s-0.101-0.202-0.101-0.302
	c0-0.102,0-0.102-0.102-0.202l0,0c0-0.101-0.101-0.202-0.101-0.202v-0.101c0,0,0,0,0-0.101s-0.101-0.201-0.101-0.201
	c0-0.102-0.101-0.202-0.201-0.202c0,0,0,0-0.102-0.101c0,0,0,0-0.101-0.101s-0.101-0.101-0.201-0.202l0,0c0,0-0.101,0-0.101-0.101
	l-0.102-0.101c-0.101-0.102-0.201-0.102-0.302-0.201c-0.101-0.102-0.101-0.102-0.202-0.202l0,0c-0.101,0-0.101-0.101-0.201-0.202
	c-0.101-0.1-0.202-0.1-0.303-0.201l-0.101-0.101c-0.303-0.202-0.604-0.403-0.907-0.604c-0.101-0.102-0.201-0.102-0.302-0.202
	l-0.102-0.101c-0.201-0.101-0.403-0.303-0.705-0.403c0,0-0.101,0-0.101-0.101c-0.202-0.101-0.504-0.303-0.706-0.403l0,0l0,0
	l9.878-15.32c0.806-1.411,2.52-1.109,2.52-1.109c1.008-5.543,5.946-4.535,5.946-4.535l15.824,9.071c0,0,1.108,0.907,1.915,2.621l0,0
	c0.101,0.202,0.201,0.504,0.302,0.706l0,0c0.102,0.202,0.202,0.504,0.202,0.806l0,0v0.101l2.62-1.512l-32.252-18.646
	C314.262,281.404,311.439,280.9,311.439,280.9z M96.456,206.417l136.469-78.414v101.495L96.456,308.314V206.417z M286.444,324.441
	l-40.316,23.383l-23.786-14.11l42.23-24.29l22.073,12.801L286.444,324.441z M332.001,270.721c-0.202-0.706-0.101-1.311,1.008-2.117
	s4.636-2.621,6.047-2.621c0.706,0,1.21,0.303,1.512,0.605C340.567,266.588,336.637,271.124,332.001,270.721l0.302,0.302
	C332.102,271.023,332.001,270.922,332.001,270.721z M404.871,290.576c0.102,0.403,0.202,0.706,0.202,1.109
	c0,0-6.148,0.403-8.467,3.83l-3.527-9.071c3.527-6.35,8.365-3.628,8.365-3.628c0.202,0.302,0.303,0.604,0.504,0.907
	c0,0,0,0.101,0.102,0.101c0.201,0.302,0.302,0.605,0.504,0.907c0,0,0,0.101,0.101,0.101c0.303,0.706,0.705,1.411,1.008,2.117
	c0,0.101,0.101,0.202,0.101,0.302c0.101,0.302,0.202,0.504,0.303,0.807c0.101,0.101,0.101,0.302,0.201,0.403
	c0.101,0.202,0.202,0.504,0.303,0.706c0,0.101,0.101,0.302,0.101,0.403c0.101,0.202,0.201,0.504,0.201,0.706
	C404.771,290.375,404.871,290.476,404.871,290.576z M374.131,270.62l-9.776,5.442l-5.544,2.419
	c1.915-12.599-8.97-14.715-8.97-14.715l13.404-7.962C363.245,255.804,372.921,259.634,374.131,270.62z M498.908,209.743
	l-43.844,26.407c0,0,7.56-10.986-0.403-21.771c-7.962-10.785-18.242-9.877-18.242-9.877l40.618-23.484c0,0,4.838-1.109,14.412,5.04
	C501.126,192.206,498.908,209.743,498.908,209.743z M420.394,231.816c5.14,8.668,1.41,17.84,0.705,19.049
	c-3.226,0.202-7.962,4.233-7.962,4.233s8.365-10.885,0-20.662c-4.334-5.04-9.777-5.947-13.909-5.645l5.543-3.326
	C404.771,225.567,415.354,223.148,420.394,231.816z M453.755,235.747l-6.955,4.032l-20.359,11.893c0,0,5.241-14.614-3.326-23.282
	c-8.567-8.769-14.614-6.753-14.614-6.753l3.729-2.016l24.29-13.203c0,0,12.095,1.411,16.63,9.272
	C457.686,223.652,455.67,231.514,453.755,235.747z M390.66,285.033l-1.311,6.652c0,0-1.915,1.814-5.745,0.806
	c-2.217-0.605-3.427-1.209-4.031-1.713l1.008-6.451c0,0-1.411,1.209-4.435,0.706c0,0-0.201-2.621,0.303-6.148
	c0.504-3.427,4.838-4.939,6.45-4.032c0.201,0.101,0.303,0.202,0.403,0.302c1.108,1.209,0.705,4.132,0.705,4.132
	C389.451,280.094,390.66,285.033,390.66,285.033z M410.818,255.4c0,0-1.109,0.706-3.024,1.814c-0.302,0.202-0.705,0.403-1.008,0.605
	c-0.101,0-0.101,0.101-0.201,0.101c-0.303,0.202-0.604,0.403-0.907,0.604c-0.101,0.101-0.201,0.101-0.303,0.202
	c-0.302,0.202-0.705,0.403-1.108,0.706c-0.101,0-0.101,0.101-0.201,0.101c-1.814,1.108-3.83,2.318-6.048,3.628l0,0
	c-2.923,1.713-5.946,3.527-8.769,5.241c-0.504,0.303-0.907,0.504-1.411,0.807c0,0-0.101,0-0.101,0.101
	c-0.403,0.202-0.807,0.504-1.21,0.706c-0.201,0.101-0.302,0.202-0.504,0.302c-0.302,0.202-0.504,0.303-0.806,0.504
	c-0.403,0.202-0.807,0.504-1.21,0.706c-0.705,0.403-1.411,0.807-2.016,1.109l0,0c-0.303,0.202-0.604,0.302-0.807,0.403
	c0,0-0.101,0-0.101,0.101c-0.201,0.101-0.403,0.202-0.604,0.302c-0.101,0-0.101,0.101-0.201,0.101c-0.102,0-0.202,0.101-0.202,0.101
	l0,0h-0.101l0,0c-0.202,0.101-0.303,0.202-0.504,0.202c0,0,0,0-0.101,0l0,0c-0.102,0.101-0.202,0.101-0.403,0.202h-0.101l0,0
	c-0.102,0-0.102,0.101-0.202,0.101s-0.201,0.101-0.302,0.101c-0.303,0.101-0.605,0.101-0.907,0.101c-0.102,0-0.202,0-0.303,0
	c-0.201,0-0.303,0.101-0.504,0.101c-0.101,0-0.201,0-0.303,0c-0.101,0-0.201,0-0.302,0s-0.101,0-0.202,0
	c0.202,0,0.303,0,0.504-0.101c3.024-15.32-13.002-22.577-13.002-22.577l3.932-2.419l30.74-18.545c0,0,9.676-0.101,13.405,5.443
	C415.152,242.097,414.346,248.345,410.818,255.4z"></path>
<path id="color_x5F_1_1_" d="M293.902,273.341c0,0-2.52,0.604-4.334,2.721c-0.101,0.202-0.302,0.302-0.403,0.504
	c-0.806,1.109-1.31,2.52-1.209,4.435c0,0-0.504-0.302-1.31-0.504c-0.202,0-0.302-0.101-0.504-0.101
	c-0.403-0.101-0.807-0.101-1.209-0.202c-1.713-0.101-3.729,0.403-5.04,2.822c-2.318,4.132-2.822,7.257-1.209,11.893
	c0.202,0.706,0.504,1.411,0.806,2.217c2.52,5.947-1.612,11.187-4.132,10.482c0,0,1.713,6.652,7.66,7.66
	c1.612,0.303,3.023-0.101,4.233-0.705l2.822-9.475l2.117-1.411l0,0c-0.504-4.636-0.907-10.583-0.403-11.994
	c0.504-1.411,1.209-1.713,1.209-1.713s0.101,1.411,1.109,2.318c0.101,0.101,0.302,0.202,0.504,0.302
	c0.202,0.101,0.302,0.202,0.504,0.303l0.101,0.101c0.101,0.101,0.202,0.101,0.302,0.202l0.101,0.101
	c0.101,0,0.101,0.101,0.202,0.101l0.101,0.101c0.101,0,0.101,0.101,0.101,0.101l0.101,0.101c0,0.101,0.101,0.101,0.101,0.202
	l0.101,0.101c0,0.101,0.101,0.101,0.101,0.202c0,0,0,0.101,0.101,0.101c0.101,0.101,0.101,0.201,0.202,0.403l0,0l0,0
	c2.217,0.706,8.769,0.202,8.063-3.125c-0.705-3.427-0.302-6.45,1.411-5.846c1.714,0.605,1.109,4.737,1.109,4.737
	s1.209-1.512,1.713-6.047c0.504-4.536,2.318-3.226,2.318-3.226s2.822,0.504,4.737-3.326c0.201-0.504,0.403-1.008,0.604-1.512
	c1.915-5.543,0.504-12.195-2.722-13.001c-3.225-0.807-5.442,0.705-5.442,0.705s1.915-0.101,2.218,2.52
	c0.302,2.621-3.931,2.621-8.266,1.31c-1.209-0.403-2.519-0.302-3.729,0.101C296.12,268.604,293.701,271.325,293.902,273.341z"></path>
</svg>
