<svg version="1.1" id="color_x5F_1" xmlns="http://www.w3.org/2000/svg" xmlns:xlink="http://www.w3.org/1999/xlink" x="0px" y="0px" width="600px" height="600px" viewBox="0 0 600 600" enable-background="new 0 0 600 600" xml:space="preserve">
<path id="color_x5F_9" fill="#8BADBE" d="M474.114,391.77c3.023,2.721,0.705,7.155,0.705,7.155l-6.551-3.729l-200.37,117.319
	L34.067,377.76v16.025l233.832,133.546L566.034,354.98v-17.033L474.114,391.77z"></path>
<path id="color_x5F_8" fill="#D7EBE5" d="M234.638,261.247l-22.779-12.901c0-3.628,3.729-2.822,3.729-2.822s-2.217-6.148,0-6.854
	c2.217-0.604,5.241,5.04,5.241,5.04s-1.411-5.442,2.318-5.644c3.729-0.202,5.543,5.342,5.543,5.342s2.52-8.164,6.854-6.551
	c4.233,1.612,3.226,9.474,3.226,9.474c3.931-1.109,3.628,2.52,3.628,2.52c5.442-1.209,3.326,4.637,3.326,4.637
	c0.807,0,1.411,0.101,1.915,0.302c3.628,1.31,1.512,6.35,1.512,6.35c7.458-1.108,4.334,6.652,4.334,6.652
	c4.938,1.612,2.419,6.35,2.419,6.35L234.638,261.247z M226.676,304.687c0,0,4.233-10.583-5.947-9.071c0,0,3.729-8.97-4.636-9.172
	c0,0,2.923-7.962-4.536-6.35c0,0,0.302-3.729-3.125-3.729c-0.504,0-1.108,0.101-1.814,0.302c0,0,1.411-10.784-4.334-13.001
	c-5.846-2.217-9.273,8.97-9.273,8.97s-2.419-7.56-7.559-7.257c-5.04,0.302-3.225,7.66-3.225,7.66s-4.032-7.66-7.055-6.854
	c-3.024,0.907,0,9.273,0,9.273s-5.04-1.109-5.04,3.83l16.731,9.474l43.037,24.391C230.001,313.354,233.429,306.904,226.676,304.687z
	 M474.114,391.77c-0.605-0.605-1.411-1.009-2.621-1.412c0,0,4.233-10.582-5.946-9.07c0,0,3.729-8.971-4.637-9.172
	c0,0,2.923-7.963-4.535-6.35c0,0,0.403-4.939-4.938-3.428c0,0,1.411-10.784-4.334-13.002c-5.846-2.217-9.272,8.971-9.272,8.971
	s-2.419-7.559-7.56-7.257c-5.039,0.303-3.226,7.66-3.226,7.66s-4.031-7.66-7.055-6.854c-3.024,0.907,0,9.272,0,9.272
	s-5.04-1.109-5.04,3.83l53.217,30.136l6.552,3.729C474.819,398.925,477.138,394.49,474.114,391.77z M234.537,371.611
	L234.537,371.611L234.537,371.611c0.403-0.202,0.807-0.605,1.109-1.008l0,0c0.202-0.202,0.302-0.403,0.403-0.706l0,0
	c0.101-0.202,0.303-0.504,0.403-0.806c0,0,0,0,0-0.102c0.101-0.201,0.202-0.504,0.302-0.807c0-0.1,0-0.1,0-0.201
	c0.101-0.303,0.202-0.604,0.202-0.906v-0.102c0.101-0.303,0.101-0.604,0.101-0.907c0-0.101,0-0.201,0-0.302c0-0.303,0-0.706,0-1.109
	c0-1.713-0.303-3.326-0.807-4.736c-0.202-0.504-0.403-0.908-0.604-1.311c-0.807-1.714-2.016-2.924-3.326-3.226
	c-1.713-0.403-3.125,0.806-3.931,2.923l0,0l0,0c-0.403,1.109-0.706,2.52-0.706,4.133c0,4.535,2.117,8.668,4.737,9.272
	C233.227,372.014,233.933,371.913,234.537,371.611z M269.511,124.677l125.987,72.669v41.021v115.605l-125.987-72.669v-40.316
	V124.677z M366.471,236.654l19.251,11.087v-33.462l-19.251-11.288V236.654z M366.471,281.505l19.251,11.087v-33.563l-19.251-11.289
	V281.505z M366.471,326.256l19.251,11.087v-33.462l-19.251-11.289V326.256z M337.443,219.923l19.251,11.087v-33.462l-19.251-11.289
	V219.923z M337.443,264.673l19.251,11.087v-33.462l-19.251-11.288V264.673z M337.443,309.524l19.251,11.087v-33.462l-19.251-11.289
	V309.524z M308.315,203.091l19.251,11.087v-33.462l-19.251-11.289V203.091z M308.315,247.942l19.251,11.087v-33.462l-19.251-11.289
	V247.942z M308.315,292.693l19.251,11.086v-33.462l-19.251-11.288V292.693z M279.288,186.36l19.251,11.087v-33.462l-19.251-11.288
	V186.36z M279.288,231.11l19.251,11.087v-33.462l-19.251-11.289V231.11z M279.288,275.962l19.251,11.086v-33.462l-19.251-11.289
	V275.962z M231.01,445.994l15.018,7.861v-15.421l-15.018-8.668V445.994z M250.16,365.664l39.005,22.275h0.202
	c0,0,0.101,0.1,0.202,0.201l23.786,13.506v-44.852l-63.094-35.881L250.16,365.664z M289.064,392.475
	c-0.202-0.504-0.403-0.907-0.605-1.311s-0.403-0.807-0.706-1.209c-0.706-1.109-1.612-1.814-2.621-2.016
	c-1.209-0.303-2.217,0.201-3.023,1.31c-0.302,0.403-0.605,1.008-0.907,1.612l0,0l0,0c-0.403,1.109-0.706,2.52-0.706,4.133
	c0,4.535,2.117,8.668,4.737,9.272c0.706,0.202,1.411,0,2.016-0.302l0,0c0.403-0.202,0.807-0.605,1.109-1.008l0,0
	c0.202-0.202,0.302-0.403,0.403-0.706l0,0c0.101-0.201,0.303-0.504,0.403-0.807c0,0,0,0,0-0.101
	c0.101-0.201,0.202-0.504,0.302-0.807c0-0.101,0-0.101,0-0.201c0.101-0.303,0.202-0.604,0.202-0.907v-0.101
	c0-0.303,0.101-0.604,0.101-0.907c0-0.101,0-0.201,0-0.302c0-0.303,0-0.706,0-1.109c0-1.311-0.202-2.62-0.504-3.83
	C289.266,393.079,289.165,392.777,289.064,392.475z"></path>
<path id="color_x5F_7" fill="#C6CEC8" d="M227.885,158.643c2.016,9.979,1.008,21.872-4.536,27.415
	c-1.209,1.209-5.846,2.016-8.97,2.419c6.753-2.218,10.583-13.607,8.668-26.407c-1.915-12.397-8.466-21.871-15.32-22.577l4.838-0.504
	C212.565,138.989,223.954,139.795,227.885,158.643z M347.119,381.892l13.203,18.747v-44.449l-13.203-18.947V381.892z
	 M246.027,438.435v15.421l10.18-5.846l0,0l0,0c0,0,0-0.102-0.101-0.102l0,0c0,0-0.101-0.101-0.201-0.101l0,0
	c-0.101,0-0.202-0.101-0.303-0.101c-0.403-0.101-1.713-0.403-1.915-0.604c-0.201-0.202-0.504-0.907,0-0.907
	c0.504-0.101,2.722,0.201,3.326,0c0.605-0.202,2.016-0.604,2.016-0.604h0.302v-0.202l0.302-0.201v-0.403l0,0l0.101-9.575l0,0
	l0.101-4.636L246.027,438.435z M463.329,158.34v119.637v36.788l-67.831,39.207V238.367v-41.021L463.329,158.34z M443.877,281.203
	l-19.452,11.188v33.563l19.149-11.288L443.877,281.203z M443.877,236.553l-19.452,11.188v33.462l19.149-11.288L443.877,236.553z
	 M443.877,191.802l-19.452,11.188v33.563l19.149-11.289L443.877,191.802z M437.729,161.969l-100.789-59.063l-42.13,24.29
	l101.192,58.861L437.729,161.969z M330.187,347.019l-16.933,9.776v44.751l0,0v5.543l33.865-19.755v-5.543l-16.933,9.877V347.019
	L330.187,347.019z"></path>
<path id="color_x5F_6" fill="#FF7A30" d="M209.038,166.504l8.164,4.737l-1.31,2.218l-9.474-5.443v-19.855h2.621V166.504
	L209.038,166.504z M274.047,476.432c0,0-3.427,1.311-4.334,1.814s0.504,2.117,1.411,2.621c0.907,0.504,4.031-0.807,5.241-1.411
	c1.209-0.605,2.621-1.814,2.621-1.814l-1.008-2.52C276.869,476.029,274.047,476.432,274.047,476.432z M289.165,387.939h-4.536
	c-0.706-0.102-1.31,0-1.31,0h1.31c0.202,0,0.303,0,0.504,0.1c-1.21-0.302-2.218,0.202-3.024,1.311l-41.626-23.988v-8.869
	l-9.575-3.83l-3.225,5.141l-6.451-3.729v-21.065l9.676-9.979l26.508-15.319l7.761,4.535l-5.846,3.427l-8.97,5.241l0,0v44.649
	L289.165,387.939z M245.422,330.992l-10.986-5.945l-9.374,10.18l18.848,8.466L245.422,330.992z M292.189,395.095l21.065,12.095
	v-5.543l0,0l-23.786-13.607C290.072,388.745,291.685,390.761,292.189,395.095z M298.539,163.884l-19.251-11.289v33.664
	l19.251,11.086V163.884z M298.539,208.735l-19.251-11.289v33.664l19.251,11.087V208.735z M308.315,292.693l19.251,11.086v-33.462
	l-19.251-11.288V292.693z M263.363,484.999v0.604c0,0-4.737,1.714-5.442,2.318c-0.706,0.706,0.202,2.419,1.109,2.923
	c0.907,0.504,2.923,0.303,2.923,0.303l5.946-3.729l-0.302-2.419H263.363L263.363,484.999z M298.539,253.486l-19.251-11.289v33.664
	l19.251,11.087V253.486z M337.443,219.923l19.251,11.087v-33.462l-19.251-11.289V219.923z M366.471,281.505l19.251,11.087v-33.563
	l-19.251-11.289V281.505z M366.471,236.654l19.251,11.087v-33.462l-19.251-11.288V236.654z M366.471,326.256l19.251,11.087v-33.462
	l-19.251-11.289V326.256z M424.425,325.953l19.149-11.288l0.303-33.462l-19.452,11.188V325.953z M424.425,281.203l19.149-11.288
	l0.303-33.462l-19.452,11.188V281.203z M308.315,203.091l19.251,11.087v-33.462l-19.251-11.289V203.091z M308.315,247.942
	l19.251,11.087v-33.462l-19.251-11.289V247.942z M337.443,264.673l19.251,11.087v-33.462l-19.251-11.288V264.673z M438.838,161.263
	l4.132-2.318L336.839,97.161l-47.17,27.213l5.04,2.923l42.13-24.291l100.789,59.063L438.838,161.263z M424.425,236.553
	l19.149-11.289l0.303-33.462l-19.452,11.188V236.553z M337.443,309.524l19.251,11.087v-33.462l-19.251-11.289V309.524z"></path>
<path id="color_x5F_5" fill="#FFD2BB" d="M273.14,418.176c-0.806,1.311-2.117,2.116-2.117,2.116l-0.302,1.714l-0.403,2.016
	c-1.814,0.807-4.737-0.403-4.737-0.403v-1.31c-0.101,0-0.202-0.102-0.202-0.102l0,0c-1.209-0.604-2.117-3.023-2.117-3.023
	s0.907,0.303,2.318-0.303c1.411-0.604,3.931-3.325,3.931-3.325s0.806-0.102,1.31,0c-0.101,0-0.101,0-0.202,0v2.62
	c0,0,0.303-2.116,1.411-2.419C273.039,415.454,273.14,418.075,273.14,418.176z M259.332,445.389h-0.302c0,0-1.411,0.504-2.016,0.605
	c-0.604,0.101-2.822-0.102-3.326,0c-0.504,0.101-0.201,0.806,0,0.906c0.202,0.102,1.512,0.504,1.915,0.605
	c0.101,0,0.202,0,0.303,0.101l0,0c0.101,0,0.101,0.101,0.201,0.101l0,0l0.101,0.101l0,0l0,0l0,0l-3.427,2.318
	c0,0,2.016,0.504,3.023,0.303c1.008-0.202,3.83-2.017,3.83-2.017l0.101-0.101l-0.101-0.907L259.332,445.389z"></path>
<path id="color_x5F_4" fill="#00CEC9" d="M261.146,433.496l0.403,10.28l-1.915,0.907l0.101-9.575L261.146,433.496z M565.934,337.947
	l-91.819,53.721c-0.605-0.604-1.411-1.008-2.621-1.411c0,0,4.233-10.583-5.946-9.071c0,0,3.729-8.97-4.637-9.172
	c0,0,2.923-7.962-4.535-6.35c0,0,0.403-4.938-4.938-3.427c0,0,1.411-10.784-4.334-13.001c-5.846-2.218-9.272,8.97-9.272,8.97
	s-2.419-7.56-7.56-7.257c-5.039,0.303-3.226,7.66-3.226,7.66s-4.031-7.66-7.055-6.854c-3.024,0.906,0,9.272,0,9.272
	s-5.04-1.108-5.04,3.829l53.217,30.137L267.898,512.515L34.067,377.76l152.897-88.796l43.037,24.391c0,0,3.427-6.45-3.225-8.567
	c0,0,4.233-10.583-5.946-9.071c0,0,3.729-8.97-4.637-9.172c0,0,2.923-7.962-4.535-6.35c0,0,0.302-3.729-3.125-3.729l26.104-15.119
	l21.065,11.893c0,0,2.52-4.737-2.419-6.35c0,0,3.125-7.761-4.334-6.652c0,0,2.117-5.039-1.512-6.35l22.073-12.8v40.316
	l125.987,72.67V238.468l0,0v115.606l67.831-39.208v-36.788L565.934,337.947z M232.521,371.913c0.706,0.202,1.411,0,2.016-0.302
	c2.117-0.605,5.241-2.117,5.241-6.652c-0.101-6.854-3.024-9.475-3.024-9.475h-4.636c-0.706-0.101-1.31,0-1.31,0h1.31
	c0.202,0,0.302,0,0.504,0.102c-1.713-0.404-3.125,0.806-3.931,2.922l0,0l0,0c-0.403,1.109-0.706,2.521-0.706,4.133
	C227.885,367.076,230.001,371.309,232.521,371.913z M278.985,477.742l-1.008-2.52l-3.83-13.405c0,0,0-0.101,0-0.201v-0.101
	c0-0.102,0-0.202,0-0.403c0-0.101,0-0.101,0-0.202l0,0c0-0.101,0-0.201,0-0.302v-0.101c0-0.102,0-0.202,0-0.303v-0.101
	c0-0.102,0-0.202,0-0.303s0-0.201,0-0.201c0-0.102,0-0.102,0-0.202s0-0.201,0-0.302c0-0.102,0-0.102,0-0.202s0-0.201,0-0.201
	c0-0.102,0-0.202,0-0.303v-0.101c0-0.101,0-0.303,0-0.403s0-0.201,0-0.303c0-0.101,0-0.201,0-0.302c0-0.403,0-0.807,0.101-1.21l0,0
	c0.202-3.628,0.303-7.761,0.101-9.07c0,0-1.008-4.133,0-7.66c1.008-3.528,3.326-8.87,2.621-11.49
	c-0.807-2.722-4.536-4.133-4.536-4.133l-0.101-0.705l-1.713-0.807l0.302-1.713c0,0,1.31-0.807,2.117-2.117l0,0
	c0.101-0.201,0.302-0.402,0.403-0.705c0.101-0.101,0.101-0.303,0.202-0.403v-0.101c0-0.101,0.101-0.303,0.101-0.403s0-0.101,0-0.201
	c0.101-0.202,0.101-0.403,0.202-0.605l0,0c0.101-0.504,0.202-1.108,0.302-1.713c0,0,0,0,0-0.101c0-0.303,0.101-0.605,0.101-0.907
	l0,0c0-0.102,0-0.102,0-0.202l0,0c0-0.201,0-0.504,0-0.705l0,0c0-0.202,0-0.504,0-0.706c0,0,0,0,0-0.101s0-0.101,0-0.201l0,0l0,0
	c0-0.202,0-0.303-0.101-0.504v-0.102c0-0.201-0.101-0.402-0.101-0.604c0-0.101,0-0.101,0-0.201
	c-0.101-0.202-0.101-0.303-0.202-0.504c0-0.102,0-0.102-0.101-0.202c-0.101-0.201-0.202-0.302-0.202-0.504
	c0-0.101-0.101-0.101-0.101-0.201c-0.101-0.202-0.202-0.303-0.303-0.403c0-0.101-0.101-0.101-0.101-0.202
	c-0.202-0.201-0.302-0.402-0.504-0.604c-3.226-2.822-10.381-1.008-11.389,4.334c0,0-2.923,1.814-3.125,2.318v0.101v0.101v0.102
	c0,0,0,0.101,0,0.201v0.101c0,0.102,0,0.102,0,0.202v0.101c0,0.101,0,0.201,0,0.303c0,0,0,0,0,0.101s0,0.201,0,0.302l0,0
	c0,0.605,0.202,1.311,0.604,1.915c0.202,0.303,0.504,0.605,0.807,0.907l0,0c0.201,0.101,0.302,0.202,0.504,0.303c0,0,0,0,0.101,0
	c0.202,0.101,0.403,0.201,0.605,0.201c0,0,0,0,0.101,0c0.202,0.101,0.403,0.101,0.706,0.202c0,0,0,0,0.101,0l0,0
	c0.504,0.101,1.209,0.201,1.915,0.201c0,0,0.807,2.419,2.117,3.023l0,0l-0.907,0.403l-0.302,0.403l-2.117,0.403l-2.923,6.35
	l-0.101,0.101l-14.615-8.365l-13.304,8.265v16.228l15.018,7.861l10.18-5.846l0,0l-3.427,2.317c0,0,2.016,0.505,3.024,0.303
	c1.008-0.201,3.83-2.016,3.83-2.016l0.101-0.101v0.101l2.217-0.403c0,0-0.201,7.861,1.814,13.506c0,0-1.31,17.739-0.403,23.282
	v0.604c0,0-4.737,1.714-5.442,2.318c-0.706,0.706,0.202,2.419,1.108,2.923c0.907,0.504,2.923,0.303,2.923,0.303l5.947-3.729
	L268,485.1c0,0,0.604-12.095,2.52-16.73l3.83,8.163c0,0-3.427,1.311-4.334,1.814s0.504,2.117,1.411,2.621s4.032-0.807,5.241-1.411
	C277.675,478.952,278.985,477.742,278.985,477.742z M360.322,356.189l-13.203-18.947l-65.413-34.672l-22.476,13.203l5.846-3.427
	l-7.761-4.536l-26.507,15.22l-9.676,9.979v21.065l6.45,3.729l3.226-5.141l9.575,3.83v8.869l41.626,23.988
	c-0.303,0.403-0.605,1.008-0.907,1.613l0,0l0,0c-0.403,1.108-0.706,2.52-0.706,4.132c0,4.536,2.117,8.668,4.737,9.272
	c0.705,0.202,1.411,0,2.016-0.302c2.117-0.604,5.241-2.117,5.241-6.652c0-0.807-0.101-1.612-0.101-2.318l21.065,12.095
	l33.865-19.754v-5.544l13.204,18.747v-44.449H360.322z M259.634,447.606l0.101,0.907l0,0L259.634,447.606z"></path>
<path id="color_x5F_3" fill="#E84393" d="M347.119,337.242v44.75l-16.933,9.877v-44.75L347.119,337.242z M265.581,418.881
	c1.411-0.604,3.931-3.325,3.931-3.325s0.806-0.102,1.31,0c0.303,0.101,2.419-1.714,3.729-2.722c0-0.202,0-0.403,0-0.604
	c0-0.102,0-0.102,0-0.202c0-0.201,0-0.504-0.101-0.705c0-0.101,0-0.101,0-0.202c0-0.201,0-0.302-0.101-0.504v-0.101
	c0-0.201-0.101-0.403-0.101-0.604c0-0.101,0-0.101,0-0.202c-0.101-0.201-0.101-0.302-0.201-0.504c0-0.101,0-0.101-0.101-0.201
	c-0.101-0.202-0.202-0.303-0.202-0.504c0-0.101-0.101-0.101-0.101-0.202c-0.101-0.201-0.202-0.302-0.302-0.402
	c0-0.102-0.101-0.102-0.101-0.202c-0.202-0.201-0.302-0.403-0.504-0.604c-3.225-2.822-10.381-1.008-11.389,4.334
	c0,0-2.923,1.814-3.125,2.318v0.101v0.101v0.101c0,0,0,0.102,0,0.202v0.101c0,0.101,0,0.101,0,0.201v0.102c0,0.101,0,0.201,0,0.302
	c0,0,0,0,0,0.101c0,0.102,0,0.202,0,0.303l0,0c0,0.604,0.202,1.311,0.605,1.915c0.202,0.303,0.504,0.604,0.806,0.907l0,0
	c0.202,0.101,0.302,0.201,0.504,0.302c0,0,0,0,0.101,0c0.202,0.102,0.403,0.202,0.605,0.202c0,0,0,0,0.101,0
	c0.202,0.101,0.403,0.101,0.706,0.201c0,0,0,0,0.101,0l0,0l1.915,0.202C263.262,419.184,264.169,419.486,265.581,418.881z
	 M236.754,355.384h-4.636c0.202,0,0.302,0,0.504,0.101c1.311,0.303,2.52,1.512,3.326,3.226c0.202,0.403,0.403,0.907,0.605,1.31
	c0.504,1.412,0.806,3.024,0.806,4.738c0,0.402,0,0.705,0,1.108c0,0.101,0,0.201,0,0.302c0,0.303-0.101,0.605-0.101,0.908v0.1
	c-0.101,0.303-0.101,0.605-0.201,0.908c0,0.1,0,0.1,0,0.201c-0.101,0.303-0.202,0.504-0.303,0.807c0,0,0,0,0,0.1
	c-0.101,0.303-0.201,0.504-0.403,0.807l0,0c-0.101,0.202-0.303,0.504-0.403,0.706l0,0c-0.302,0.403-0.706,0.705-1.109,1.008
	c2.117-0.604,5.241-2.116,5.241-6.652C239.678,358.004,236.754,355.384,236.754,355.384z M234.537,371.611L234.537,371.611
	L234.537,371.611L234.537,371.611L234.537,371.611z M289.468,388.039c-0.101-0.1-0.202-0.201-0.202-0.201h-0.202h-4.536
	c0.202,0,0.302,0,0.504,0.102c1.008,0.201,1.915,1.008,2.621,2.016c0.202,0.402,0.504,0.705,0.706,1.209
	c0.202,0.403,0.403,0.907,0.604,1.311c0.101,0.303,0.202,0.604,0.303,0.906c0.302,1.21,0.504,2.521,0.504,3.831
	c0,0.402,0,0.705,0,1.108c0,0.101,0,0.201,0,0.302c0,0.303-0.101,0.605-0.101,0.907v0.102c-0.101,0.302-0.101,0.604-0.202,0.906
	c0,0.102,0,0.102,0,0.202c-0.101,0.302-0.201,0.504-0.302,0.806c0,0,0,0,0,0.102c-0.101,0.302-0.202,0.504-0.403,0.806l0,0
	c-0.101,0.202-0.303,0.504-0.403,0.706l0,0c-0.302,0.403-0.706,0.705-1.109,1.008l0,0c2.117-0.604,5.241-2.116,5.241-6.652
	c0-0.806-0.101-1.612-0.101-2.318C291.685,390.761,290.072,388.745,289.468,388.039z M274.147,461.516v-0.102
	c0-0.101,0-0.201,0-0.402c0-0.102,0-0.102,0-0.202l0,0c0-0.101,0-0.201,0-0.302v-0.102c0-0.101,0-0.201,0-0.302v-0.102
	c0-0.101,0-0.201,0-0.302s0-0.202,0-0.202c0-0.101,0-0.101,0-0.201s0-0.201,0-0.303c0-0.101,0-0.101,0-0.201s0-0.202,0-0.202
	c0-0.101,0-0.201,0-0.302v-0.101c0-0.102,0-0.303,0-0.403s0-0.202,0-0.303s0-0.201,0-0.302c0-0.403,0-0.807,0.101-1.21l0,0
	c0.202-3.628,0.303-7.761,0.101-9.071c-3.729,0.907-11.188,1.109-11.188,1.109l-1.411,0.302c0,0-0.202,7.862,1.814,13.506
	c0,0-1.31,17.739-0.403,23.282h4.334c0,0,0.604-12.095,2.52-16.73l3.83,8.164c0,0,2.822-0.403,4.032-1.311l-3.83-13.405
	C274.147,461.717,274.147,461.616,274.147,461.516z M224.962,335.227l18.948,8.466l1.411-12.599l-10.986-5.947L224.962,335.227z"></path>
<path id="color_x5F_2" fill="#FBC02D" d="M207.727,139.594l-3.326,0.403c-0.807,0.302-1.613,0.706-2.318,1.209l0,0
	c-5.241,3.83-7.962,13.909-6.249,25.097c1.915,12.599,8.668,22.174,15.623,22.577c0,0,1.31-0.101,3.023-0.403
	c6.753-2.218,10.583-13.607,8.668-26.407C221.132,149.773,214.581,140.299,207.727,139.594z M215.891,173.459l-9.474-5.443v-19.855
	h2.621v18.344l8.164,4.737L215.891,173.459z M337.443,85.57l-67.832,39.106l125.987,72.669l67.832-39.106L337.443,85.57z
	 M437.729,161.969l-41.827,24.089l-101.193-58.861l-5.04-2.923l47.17-27.213l106.131,61.784l-4.132,2.318L437.729,161.969z
	 M277.171,427.65c0.806,2.721-1.613,8.063-2.621,11.489c-1.008,3.528,0,7.66,0,7.66c-3.729,0.907-11.188,1.108-11.188,1.108
	l-1.411,0.303l-2.218,0.403l-0.101-0.907l-0.302-2.116v-0.202l0.302-0.201v-0.403l0,0l1.915-0.907l-0.403-10.28l-1.411,1.512l0,0
	l0.101-4.637l-13.808,8.063l-15.018-8.668l13.304-8.265l14.614,8.365l0.101-0.101l2.923-6.35l2.116-0.403l0.303-0.403l0.907-0.403
	l0,0l0,0c0.101,0,0.202,0.102,0.202,0.102v1.31c0,0,2.923,1.21,4.737,0.403l0.403-2.016l1.713,0.807l0.101,0.705
	C272.636,423.518,276.365,424.929,277.171,427.65z M281.707,302.57l65.413,34.672l-16.933,9.776l-16.933,9.776l-63.094-35.881l0,0
	l8.97-5.241L281.707,302.57z"></path>
<path id="color_x5F_1_1_" fill="#2A192B" d="M270.821,415.556c-0.101,0-0.101,0-0.201,0v2.62c0,0,0.302-2.116,1.411-2.419
	c1.008-0.303,1.109,2.318,1.109,2.419l0,0c0.101-0.201,0.302-0.403,0.403-0.706c0.101-0.101,0.101-0.302,0.201-0.402v-0.102
	c0-0.101,0.101-0.302,0.101-0.402c0-0.102,0-0.102,0-0.202c0.101-0.201,0.101-0.403,0.202-0.604l0,0
	c0.101-0.504,0.202-1.108,0.302-1.714c0,0,0,0,0-0.101c0-0.302,0.101-0.604,0.101-0.907l0,0c0-0.101,0-0.101,0-0.201
	C273.24,413.942,271.124,415.656,270.821,415.556z"></path>
</svg>
