<svg version="1.1" id="Layer_1" xmlns="http://www.w3.org/2000/svg" xmlns:xlink="http://www.w3.org/1999/xlink" x="0px" y="0px" width="595.28px" height="595.28px" viewBox="0 0 595.28 595.28" enable-background="new 0 0 595.28 595.28" xml:space="preserve">
<path id="color_x5F_2" fill="#5980af" d="M527.657,411.706c-9.5,0-19,0-28.499,0c-0.075,0-0.181,0.019-0.302,0.049
	c0.653-2.865,1.306-5.73,1.958-8.596c7.994,0,15.988,0,23.982,0c0.181,0,0.525-0.101,0.892-0.242
	C526.345,405.847,527,408.776,527.657,411.706z M451.573,403.159c-7.994,0-15.988,0-23.982,0c-0.653,2.865-1.306,5.73-1.958,8.596
	c0.121-0.03,0.227-0.049,0.302-0.049c9.466,0,18.933,0,28.399,0c-0.664-2.914-1.328-5.828-1.992-8.741
	C452.022,403.081,451.734,403.159,451.573,403.159z M234.38,379.546c0.942,0,1.884,0,2.826,0c0.327-0.055,0.637-0.057,0.869,0
	c3.234,0,6.468,0,9.702,0c0.327-0.055,0.637-0.057,0.869,0c2.165,0,4.329,0,6.494,0l4.102-0.16c0-8.252,0-16.504,0-24.756
	c-8.12,8.185-16.145,16.463-24.29,24.621C234.84,379.362,234.631,379.462,234.38,379.546z M228.521,342.802l-0.158,0.176
	c0.058-0.059,0.116-0.117,0.175-0.176C228.533,342.802,228.527,342.802,228.521,342.802z M231.087,342.802
	c-12.079,12.104-24.01,24.354-36.098,36.449c-0.112,0.111-0.32,0.211-0.572,0.295c5.93,0,11.86,0,17.791,0
	c0.006-0.054,0.035-0.115,0.109-0.189c12.122-12.131,24.088-24.416,36.203-36.555C242.709,342.802,236.898,342.802,231.087,342.802z
	 M191.124,342.802c-12.079,12.104-24.01,24.354-36.097,36.449c-0.112,0.111-0.32,0.211-0.572,0.295c5.93,0,11.86,0,17.791,0
	c0.006-0.054,0.035-0.115,0.109-0.189c12.122-12.131,24.088-24.416,36.202-36.555C202.746,342.802,196.935,342.802,191.124,342.802z
	 M148.096,342.802c-8.762,8.763-17.525,17.525-26.289,26.286c0,3.485,0,6.972,0,10.458c3.492,0,6.984,0,10.476,0
	c0.003-0.031,0.018-0.066,0.044-0.105c0.082-0.189,0.252-0.356,0.473-0.495c11.981-11.998,23.815-24.142,35.793-36.144
	C161.762,342.802,154.929,342.802,148.096,342.802z M358.994,345.284c-4.06-2.293-7.959-4.962-11.76-7.691
	c-4.323,2.111-8.877,4.653-13.562,6.755c0.702-0.109,1.372,0.019,1.341,0.552c-0.324,5.629-0.736,11.236-0.847,16.87
	c0.554-0.216,1.17-0.35,1.474-0.249c7.807,2.576,15.77,1.566,23.698,0.323c-0.144-5.288-0.522-10.556-0.827-15.843
	C358.496,345.722,358.696,345.479,358.994,345.284z M334.139,363.155h0.465c-0.154-0.044-0.309-0.092-0.462-0.139
	C334.142,363.063,334.14,363.108,334.139,363.155z M358.973,274.144c-5.024,4.154-11.275,6.691-17.345,3.849
	c-2.595,11.159-5.527,22.847-5.695,34.247c-0.007,0.469-0.411,0.825-0.916,1.016c1.291,0.105,2.501,0.261,3.555,0.435
	c6.742,1.112,13.01,4.048,19.739,5.053c0.376,0.056,0.768,0.102,1.164,0.143c-0.135-14.984,0.083-29.622,2.702-44.45
	c0.04-0.226,0.252-0.427,0.544-0.586c-0.435-0.203-0.861-0.425-1.279-0.665C361.196,273.936,359.696,274.371,358.973,274.144z
	 M301.502,311.768c6.745-0.989,13.393-1.034,19.434,2.319c1.189-13.227,3.803-25.281,9.375-37.301
	c-6.425,0.889-13.064,2.082-17.458,6.218C305.507,289.918,304.641,302.577,301.502,311.768z M386.928,278.339
	c-3.568-1.265-7.568-1.571-11.565-1.91c0.007,0.035,0.02,0.066,0.023,0.105c1.097,13.797,0.054,27.738,0.023,41.559
	c0,0.066-0.013,0.127-0.025,0.188c6.898,2.639,14.458,2.91,21.562,0.974l1.123-0.633C396.808,306.833,400.8,283.257,386.928,278.339
	z M341.706,213.494c-13.055,0.581-21.021,8.836-21.264,21.774c-0.007,0.385-0.389,0.694-0.872,0.898c15.476,0,30.952,0,46.428,0
	c-0.005-0.041-0.01-0.081-0.015-0.121c-0.053-0.441,0.254-0.811,0.684-1.061C367.371,221.966,353.737,212.959,341.706,213.494z"></path>
<path id="color_x5F_1" d="M331.099,255.015c-0.595,0.396-1.346,0.55-2.049,0.549c-1.364,0-2.752,0.009-4.018-0.561
	c-0.029-0.039-0.058-0.077-0.086-0.115c0.05-1.308,0.778-2.178,1.362-3.283c0.278-0.525,1.167-0.729,1.691-0.818
	c0.141-0.023,1.435-0.164,1.173,0.33c-0.426,0.805-1.094,1.547-1.27,2.465c-0.132,0.69,0.645,0.663,1.174,0.698
	c0.612,0.04,1.224,0.045,1.838,0.046C331.495,254.325,331.54,254.722,331.099,255.015z M344.314,256.685
	c0.363-0.529-0.311-0.633-0.722-0.615c-0.567,0.023-1.575,0.213-1.93,0.729c-0.228,0.332-0.515,0.785-0.853,0.99
	c-0.025,0.016-0.029,0.018-0.046,0.027c-0.251,0.043-0.506,0.044-0.76,0.047c-0.629,0.007-1.494,0.244-1.93,0.729
	c-0.458,0.51,0.396,0.619,0.722,0.615C340.952,259.183,343.053,258.52,344.314,256.685z M326.506,247.173c0-0.448,0-0.896,0-1.344
	c0-0.686-0.723-0.831-1.292-0.772c-0.488,0.05-1.624,0.406-1.624,1.069c0,0.448,0,0.896,0,1.344c0,0.686,0.723,0.831,1.292,0.772
	C325.37,248.192,326.506,247.836,326.506,247.173z M339.234,248.242c0.488-0.05,1.624-0.406,1.624-1.069c0-0.448,0-0.896,0-1.344
	c0-0.686-0.723-0.831-1.292-0.772c-0.488,0.05-1.624,0.406-1.624,1.069c0,0.448,0,0.896,0,1.344
	C337.942,248.155,338.665,248.301,339.234,248.242z M340.498,241.674c0.472-0.499-0.41-0.577-0.711-0.577c-0.748,0-1.495,0-2.242,0
	c-0.622,0-1.493,0.254-1.932,0.72c-0.472,0.499,0.41,0.577,0.711,0.577c0.748,0,1.495,0,2.242,0
	C339.188,242.394,340.059,242.14,340.498,241.674z M327.491,241.674c0.472-0.499-0.41-0.577-0.711-0.577c-0.748,0-1.495,0-2.243,0
	c-0.622,0-1.493,0.254-1.932,0.72c-0.472,0.499,0.41,0.577,0.711,0.577c0.748,0,1.495,0,2.243,0
	C326.18,242.394,327.052,242.14,327.491,241.674z M281.101,452.495c-17.586,0-35.172,0-52.758,0c-1.432,0,1.256-1.203,1.874-1.203
	c1.786,0,3.573,0,5.359,0c-0.002-0.016-0.011-0.029-0.011-0.047c0-23.447,0-46.895,0-70.34c-18.536,0-37.071,0-55.606,0
	c0,12.675,0,25.349,0,38.023c0.345,0.104,0.267,0.332,0,0.57c0,9.75,0,19.5,0,29.25c0,0.463-0.593,0.818-1.242,1.002
	c-0.122,0.341-1.788,1.061-2.276,1.061c-22.692,0-45.384,0-68.075,0c-1.449,0,1.224-1.238,1.864-1.238c7.347,0,14.694,0,22.042,0
	c0-22.89,0-45.779,0-68.668c-4.146,0-8.292,0-12.438,0c-0.512,0.039-0.923-0.047-0.923-0.291c0-12.596,0-25.19,0-37.785
	c0-0.096,0.036-0.186,0.088-0.271c-0.065-0.391,1.306-1.115,1.962-1.115c3.767,0,7.533,0,11.3,0
	c-0.171-63.02-0.169-126.039-0.002-189.059h-5.739v-12.135h-10.304v-13.031H82.27v-6.539H48.326v-18.58H82.27v-3.75h33.945V82.466
	h79.584v7.941h11.5v7.512c7.808,0.035,15.616,0.035,23.423,0.054c0.207,0,0.414,0.001,0.621,0.001
	c7.826,0.018,15.652,0.053,23.479,0.054c0.395-0.099,0.813-0.104,1.143,0.001c7.837,0,15.674-0.036,23.511-0.053
	c0.212-0.001,0.425-0.002,0.638-0.002c7.958-0.019,15.916-0.019,23.875-0.055c0.004,0,0.008-0.001,0.012-0.001
	c0.07,0.001,0.14,0,0.21,0.001c0.07-0.001,0.14,0,0.209-0.001c0.007,0,0.011,0.001,0.018,0.001
	c7.803,0.035,15.605,0.035,23.408,0.054c0.207,0,0.414,0.001,0.621,0.001c7.826,0.018,15.653,0.053,23.479,0.054
	c0.395-0.099,0.813-0.104,1.143,0.001c7.836,0,15.673-0.036,23.51-0.053c0.213-0.001,0.425-0.002,0.638-0.002
	c8.102-0.019,16.204-0.019,24.307-0.056c0.69-0.003,0.894,0.213,0.825,0.492c0.115,0.118,0.155,0.271,0.083,0.458
	c0,8.901,0,17.805,0,26.706c0,0.099-0.028,0.19-0.068,0.278c0.003,0.018,0.01,0.033,0.01,0.053c0.295,0.426-0.286,0.902-1.011,1.15
	c-0.301,0.164-0.629,0.274-0.924,0.275c-32.445,0.088-64.889,0.087-97.333,0c-31.942,0.086-63.884,0.085-95.826,0.002v6.959h-11.5
	v5.957h-9.267v12.135h-6.576c-0.115,25.73-0.172,51.462-0.193,77.193c0.066,0.135,0.057,0.271,0,0.402
	c-0.01,13.061-0.006,26.121,0.008,39.183c0.051,0.121,0.047,0.243,0,0.36c0.026,23.974,0.081,47.947,0.191,71.92
	c27.11,0,54.221,0,81.332,0c0.712,0,0.858,0.184,0.716,0.415c0.082,0.048,0.129,0.112,0.129,0.194c0,12.596,0,25.19,0,37.785
	c0,0.568-1.02,0.959-1.851,1.05c-0.026,0.005-0.049,0.005-0.073,0.009c-0.164,0.014-0.322,0.021-0.458,0.01
	c-3.575,0-7.15,0-10.725,0c0,23.188,0,46.375,0,69.563c0,0.336-0.283,0.619-0.672,0.824c11.538,0,23.076,0,34.614,0
	C284.407,451.292,281.718,452.495,281.101,452.495z M207.784,123.272c3.131-3.373,6.113-6.881,9.081-10.403
	c-2.97-3.525-5.951-7.042-9.081-10.422C207.784,109.39,207.784,116.331,207.784,123.272z M227.962,125.496
	c-3.34-3.506-6.498-7.179-9.623-10.882c-3.121,3.697-6.279,7.361-9.622,10.855C215.133,125.487,221.547,125.486,227.962,125.496z
	 M232.169,123.272c3.131-3.373,6.113-6.882,9.082-10.403c-2.971-3.525-5.952-7.042-9.082-10.422
	C232.169,109.39,232.169,116.331,232.169,123.272z M229.251,102.046c-3.131,3.373-6.114,6.882-9.082,10.404
	c2.971,3.525,5.952,7.042,9.082,10.422C229.251,115.931,229.251,108.988,229.251,102.046z M252.38,125.529
	c-3.352-3.517-6.52-7.2-9.654-10.915c-3.131,3.709-6.299,7.385-9.654,10.889C239.508,125.511,245.944,125.528,252.38,125.529z
	 M256.555,123.271c3.131-3.372,6.113-6.881,9.081-10.402c-2.971-3.525-5.951-7.042-9.081-10.421
	C256.555,109.389,256.555,116.331,256.555,123.271z M253.637,102.046c-3.131,3.373-6.113,6.881-9.081,10.403
	c2.971,3.526,5.952,7.042,9.081,10.423C253.637,115.931,253.637,108.988,253.637,102.046z M276.743,125.505
	c-3.344-3.509-6.505-7.184-9.632-10.891c-3.14,3.719-6.315,7.404-9.68,10.917C263.869,125.53,270.306,125.513,276.743,125.505z
	 M280.942,123.271c3.131-3.372,6.112-6.881,9.08-10.402c-2.97-3.525-5.95-7.042-9.08-10.421
	C280.942,109.389,280.942,116.331,280.942,123.271z M278.024,102.046c-3.132,3.373-6.115,6.881-9.083,10.403
	c2.971,3.526,5.952,7.043,9.083,10.424C278.024,115.931,278.024,108.988,278.024,102.046z M301.097,125.472
	c-3.332-3.498-6.482-7.162-9.6-10.857c-3.129,3.707-6.295,7.381-9.648,10.884C288.265,125.489,294.681,125.488,301.097,125.472z
	 M305.327,122.83c2.98-3.235,5.825-6.595,8.661-9.961c-2.839-3.369-5.683-6.733-8.661-9.976
	C305.327,109.538,305.327,116.185,305.327,122.83z M301.989,102.487c-2.98,3.236-5.825,6.596-8.662,9.962
	c2.839,3.37,5.684,6.735,8.662,9.978C301.989,115.78,301.989,109.134,301.989,102.487z M325.085,125.496
	c-3.339-3.507-6.498-7.179-9.622-10.882c-3.121,3.697-6.279,7.361-9.622,10.855C312.256,125.487,318.67,125.486,325.085,125.496z
	 M329.292,123.272c3.131-3.373,6.114-6.881,9.082-10.403c-2.971-3.525-5.952-7.042-9.082-10.422
	C329.292,109.389,329.292,116.331,329.292,123.272z M326.374,102.046c-3.131,3.373-6.113,6.882-9.081,10.403
	c2.97,3.526,5.951,7.042,9.081,10.423C326.374,115.931,326.374,108.988,326.374,102.046z M349.503,125.529
	c-3.351-3.517-6.52-7.2-9.654-10.915c-3.131,3.709-6.299,7.385-9.654,10.889C336.631,125.511,343.067,125.528,349.503,125.529z
	 M353.679,123.271c3.131-3.372,6.113-6.881,9.08-10.402c-2.97-3.525-5.951-7.042-9.08-10.421
	C353.679,109.389,353.679,116.331,353.679,123.271z M350.761,102.046c-3.131,3.373-6.114,6.881-9.082,10.403
	c2.971,3.526,5.952,7.042,9.082,10.423C350.761,115.931,350.761,108.988,350.761,102.046z M373.866,125.505
	c-3.343-3.509-6.504-7.184-9.631-10.891c-3.139,3.719-6.315,7.404-9.68,10.917C360.992,125.53,367.429,125.513,373.866,125.505z
	 M378.064,123.272c3.131-3.373,6.113-6.882,9.081-10.403c-2.97-3.525-5.951-7.042-9.081-10.422
	C378.064,109.39,378.064,116.331,378.064,123.272z M375.146,102.046c-3.132,3.373-6.114,6.881-9.082,10.403
	c2.971,3.526,5.952,7.043,9.082,10.423C375.146,115.931,375.146,108.988,375.146,102.046z M398.22,125.472
	c-3.332-3.498-6.483-7.162-9.6-10.857c-3.129,3.707-6.295,7.381-9.648,10.884C385.388,125.489,391.804,125.488,398.22,125.472z
	 M399.532,102.046c-3.132,3.373-6.114,6.882-9.082,10.404c2.971,3.525,5.952,7.042,9.082,10.423
	C399.532,115.931,399.532,108.988,399.532,102.046z M379.242,99.706c3.381,3.541,6.574,7.254,9.733,10.998
	c3.176-3.764,6.39-7.492,9.799-11.042C392.264,99.69,385.753,99.69,379.242,99.706z M354.91,99.763
	c3.361,3.523,6.538,7.217,9.68,10.941c3.16-3.743,6.357-7.453,9.747-10.986C367.86,99.731,361.385,99.761,354.91,99.763z
	 M330.484,99.722c3.376,3.536,6.565,7.244,9.72,10.982c3.146-3.727,6.328-7.419,9.701-10.938
	C343.431,99.765,336.958,99.734,330.484,99.722z M306.046,99.665c3.396,3.554,6.601,7.28,9.772,11.039
	c3.162-3.746,6.361-7.459,9.753-10.994C319.063,99.694,312.554,99.693,306.046,99.665z M282.12,99.706
	c3.381,3.541,6.574,7.254,9.732,10.998c3.176-3.764,6.39-7.492,9.8-11.042C295.141,99.69,288.63,99.69,282.12,99.706z
	 M257.786,99.763c3.361,3.523,6.538,7.217,9.68,10.941c3.16-3.743,6.357-7.453,9.748-10.986
	C270.737,99.731,264.262,99.761,257.786,99.763z M233.361,99.722c3.376,3.536,6.565,7.244,9.72,10.982
	c3.146-3.727,6.328-7.419,9.7-10.938C246.308,99.765,239.834,99.734,233.361,99.722z M208.922,99.665
	c3.396,3.554,6.601,7.281,9.772,11.039c3.163-3.746,6.361-7.458,9.754-10.994C221.939,99.694,215.431,99.693,208.922,99.665z
	 M196.163,131.292h8.136V93.407h-8.136V131.292z M255.14,379.546c1.367,0,2.734,0,4.102,0c0-0.053,0-0.107,0-0.16
	c0-8.252,0-16.504,0-24.756c-8.12,8.185-16.145,16.463-24.29,24.621c-0.112,0.111-0.32,0.211-0.572,0.295c0.942,0,1.884,0,2.826,0
	c0.327-0.055,0.637-0.057,0.869,0c3.234,0,6.468,0,9.702,0c0.327-0.055,0.637-0.057,0.869,0
	C250.81,379.546,252.975,379.546,255.14,379.546z M194.417,379.546c5.93,0,11.86,0,17.791,0c0.006-0.054,0.035-0.115,0.109-0.189
	c12.122-12.131,24.088-24.416,36.203-36.555c-5.811,0-11.622,0-17.433,0c-12.079,12.104-24.01,24.354-36.098,36.449
	C194.877,379.362,194.669,379.462,194.417,379.546z M145.739,405.968c2.602-2.197,5.239-4.354,7.891-6.49
	c-2.65-2.153-5.286-4.323-7.891-6.529C145.739,397.288,145.739,401.628,145.739,405.968z M145.739,418.87
	c10.171,0,20.343,0,30.515,0c-6.724-6.531-14.015-12.41-21.29-18.31c-2.916,2.36-5.817,4.739-8.663,7.187
	c-0.119,0.102-0.321,0.191-0.562,0.262C145.739,411.629,145.739,415.249,145.739,418.87z M177.061,381.823
	c-6.335,6.046-13.152,11.521-19.961,17.013c6.79,5.515,13.591,11.013,19.961,17.01C177.061,404.505,177.061,393.164,177.061,381.823
	z M175.403,380.905c-9.888,0-19.776,0-29.665,0c0,2.91,0,5.821,0,8.732c0.205,0.03,0.393,0.1,0.541,0.227
	c3.118,2.684,6.297,5.293,9.488,7.89C162.493,392.345,169.209,386.931,175.403,380.905z M172.354,379.356
	c12.122-12.131,24.088-24.416,36.202-36.555c-5.811,0-11.622,0-17.433,0c-12.079,12.104-24.01,24.354-36.097,36.449
	c-0.112,0.111-0.32,0.211-0.572,0.295c5.93,0,11.86,0,17.791,0C172.251,379.492,172.28,379.431,172.354,379.356z M188.575,342.802
	c-5.811,0-11.622,0-17.432,0c-12.038,12.063-23.931,24.27-35.975,36.326c0,0.14,0,0.279,0,0.418c5.699,0,11.398,0,17.097,0
	c0.006-0.054,0.035-0.115,0.109-0.189C164.495,367.226,176.461,354.94,188.575,342.802z M135.102,187.749
	c6.147-5.867,12.627-11.373,19.139-16.843c-6.485-5.447-12.94-10.927-19.07-16.76C135.141,165.348,135.121,176.548,135.102,187.749z
	 M137.262,152.384c6.106,5.856,12.549,11.346,19.032,16.792c6.472-5.44,12.901-10.929,18.984-16.792H137.262z M176.854,232.751
	c-6.129,5.848-12.589,11.336-19.081,16.789c6.491,5.451,12.953,10.936,19.088,16.775
	C176.851,255.127,176.847,243.938,176.854,232.751z M176.868,272.298c-6.134,5.851-12.599,11.342-19.095,16.799
	c6.517,5.474,13.004,10.979,19.161,16.844C176.901,294.727,176.881,283.512,176.868,272.298z M176.913,193.138
	c-6.147,5.868-12.627,11.373-19.14,16.844c6.491,5.451,12.953,10.935,19.088,16.773C176.872,215.55,176.884,204.344,176.913,193.138
	z M175.86,191.39c-13.06,0-26.12,0-39.18,0c6.275,6.067,12.926,11.727,19.613,17.345C162.972,203.122,169.608,197.466,175.86,191.39
	z M155.719,211.712c-6.678,5.611-13.314,11.269-19.566,17.344c13.06,0,26.12,0,39.18,0
	C169.057,222.988,162.407,217.329,155.719,211.712z M136.681,230.946c6.275,6.068,12.925,11.729,19.613,17.347
	c6.678-5.612,13.314-11.271,19.566-17.347C162.801,230.946,149.741,230.946,136.681,230.946z M175.333,268.616
	c-6.276-6.068-12.926-11.728-19.614-17.346c-6.678,5.611-13.314,11.27-19.567,17.346
	C149.213,268.616,162.273,268.616,175.333,268.616z M136.681,270.507c6.275,6.066,12.925,11.726,19.612,17.344
	c6.678-5.611,13.314-11.27,19.566-17.344C162.8,270.507,149.741,270.507,136.681,270.507z M175.333,189.499
	c-6.276-6.067-12.926-11.727-19.614-17.346c-6.678,5.612-13.314,11.27-19.567,17.346
	C149.212,189.499,162.272,189.499,175.333,189.499z M135.09,193.63c-0.017,11.238-0.023,22.477-0.03,33.716
	c6.159-5.882,12.654-11.399,19.18-16.881C147.727,204.995,141.243,199.492,135.09,193.63z M135.056,233.155
	c-0.004,11.25-0.001,22.5,0.005,33.75c6.158-5.883,12.652-11.4,19.179-16.882C147.715,244.543,141.219,239.03,135.056,233.155z
	 M135.065,272.724c0.008,11.232,0.021,22.464,0.04,33.696c6.146-5.866,12.625-11.37,19.135-16.839
	C147.718,284.104,141.227,278.595,135.065,272.724z M136.152,308.173c13.06,0,26.12,0,39.181,0
	c-6.276-6.067-12.926-11.727-19.614-17.346C149.041,296.439,142.405,302.097,136.152,308.173z M177.048,153.448
	c-6.188,5.917-12.715,11.463-19.276,16.974c6.517,5.474,13.003,10.979,19.16,16.845
	C176.965,175.993,176.999,164.721,177.048,153.448z M136.621,310.063c6.384,6.23,13.035,12.176,19.761,18.037
	c6.544-5.876,13-11.849,19.255-18.037C162.632,310.063,149.627,310.063,136.621,310.063z M167.768,341.442
	c-3.922-3.419-7.867-6.815-11.799-10.227c-3.847,3.428-7.718,6.83-11.592,10.227C152.174,341.442,159.971,341.442,167.768,341.442z
	 M121.808,379.546c3.492,0,6.984,0,10.476,0c0.003-0.031,0.018-0.066,0.044-0.105c0.082-0.189,0.252-0.356,0.473-0.495
	c11.981-11.998,23.815-24.142,35.793-36.144c-6.833,0-13.666,0-20.498,0c-8.762,8.763-17.525,17.525-26.289,26.286
	C121.808,372.573,121.808,376.06,121.808,379.546z M177.055,341.442c-0.045-9.908-0.071-19.816-0.103-29.724
	c-6.187,6.076-12.559,11.954-19.017,17.739c4.604,4,9.233,7.972,13.822,11.984C173.523,341.442,175.289,341.442,177.055,341.442z
	 M82.27,117.679v-12.58H51.326v12.58H82.27z M116.215,124.218v-22.869H85.27v0.75v18.58v3.539H116.215z M126.519,137.249h60.013
	h6.267V85.466h-73.584v12.883v28.869v10.031H126.519z M129.519,149.384h54.013v-9.135h-54.013V149.384z M135.177,341.442
	c2.072,0,4.143,0,6.214,0c0.053-0.097,0.133-0.2,0.265-0.316c4.266-3.739,8.528-7.482,12.76-11.262
	c-6.557-5.704-13.048-11.482-19.299-17.519C135.136,322.044,135.15,331.743,135.177,341.442z M121.808,342.802
	c0,7.913,0,15.826,0,23.738c7.914-7.912,15.827-15.824,23.741-23.738C137.635,342.802,129.721,342.802,121.808,342.802z
	 M135.15,449.573c2.563,0,5.127,0,7.691,0c0-22.871,0-45.742,0-68.611c0-0.02,0.007-0.037,0.009-0.057c-2.561,0-5.122,0-7.683,0
	c0,22.854,0,45.709,0,68.563C135.168,449.504,135.157,449.538,135.15,449.573z M177.073,449.573
	c-0.003-0.016-0.012-0.029-0.012-0.047c0-9.76,0-19.518,0-29.277c-10.44,0-20.881,0-31.322,0c0,9.74,0,19.479,0,29.219
	c0,0.036-0.011,0.07-0.018,0.105C156.172,449.573,166.622,449.573,177.073,449.573z M192.227,379.546
	c0.006-0.054,0.035-0.115,0.109-0.189c12.063-12.072,23.973-24.297,36.027-36.379c0.058-0.059,0.116-0.117,0.175-0.176
	c-0.005,0-0.011,0-0.017,0c-5.805,0-11.611,0-17.416,0c-12.078,12.104-24.01,24.354-36.098,36.449
	c-0.112,0.111-0.32,0.211-0.572,0.295C180.366,379.546,186.297,379.546,192.227,379.546z M232.189,379.546
	c0.006-0.054,0.035-0.115,0.109-0.189c9.024-9.041,17.895-18.232,26.919-27.273c0.006-0.006,0.017-0.012,0.024-0.019
	c0-3.079,0-6.157,0-9.235c0-0.01,0.004-0.018,0.005-0.027c-2.726,0-5.452,0-8.177,0c-12.079,12.104-24.011,24.354-36.099,36.449
	c-0.112,0.111-0.32,0.211-0.572,0.295C220.329,379.546,226.259,379.546,232.189,379.546z M246.146,451.292
	c-0.002-0.016-0.011-0.029-0.011-0.047c0-23.447,0-46.895,0-70.34c-2.558,0-5.116,0-7.673,0c0,23.188,0,46.375,0,69.563
	c0,0.336-0.283,0.619-0.672,0.824C240.576,451.292,243.361,451.292,246.146,451.292z M473.68,444.698
	c0.11,0.914-1.427,1.523-2.308,1.328c-0.207,0.063-0.385,0.104-0.499,0.104c-20.706,0-41.412,0-62.118,0
	c-0.029,0-0.046-0.004-0.071-0.004c-0.75,0.614-2.551,0.82-2.572,0.199c-0.22-6.423,5.357-10.359,11.237-10.802
	c4.191-18.39,8.382-36.778,12.573-55.169c0.154-0.677,1.159-1.098,1.953-1.097c0.365-0.405,1.259-0.856,1.798-0.856
	c4.822,0,9.644,0,14.466,0c1.092,0,0.9,0.464,0.348,0.873c0.723-0.189,1.516-0.064,1.659,0.563
	c4.209,18.472,8.419,36.942,12.628,55.413c0.036,0.007,0.075,0.011,0.108,0.021C467.537,436.702,473.025,439.271,473.68,444.698z
	 M452.341,402.965c-0.319,0.116-0.607,0.194-0.768,0.194c-7.994,0-15.988,0-23.982,0c-0.653,2.865-1.306,5.73-1.958,8.596
	c0.121-0.03,0.227-0.049,0.302-0.049c9.466,0,18.933,0,28.399,0C453.669,408.792,453.005,405.878,452.341,402.965z M427.874,401.921
	c8.077,0,16.153,0,24.23,0c-1.619-7.102-3.237-14.205-4.856-21.307c-0.075-0.328,0.063-0.619,0.31-0.854
	c-0.213,0.074-0.419,0.121-0.59,0.121c-4.7,0-9.401,0-14.101,0c0.003,0.066-0.001,0.137-0.019,0.215
	C431.189,387.371,429.531,394.646,427.874,401.921z M420.195,435.614c13.195,0,26.391,0,39.587,0
	c-1.723-7.557-3.444-15.113-5.167-22.67c-9.751,0-19.503,0-29.254,0C423.64,420.501,421.917,428.058,420.195,435.614z
	 M470.678,444.892c-0.856-4.313-5.108-6.439-9.028-7.702c-0.617,0.156-1.277,0.081-1.54-0.337c-13.555,0-27.11,0-40.666,0
	c-0.676,0.391-1.681,0.478-2.105,0.121c-4.749,0.082-8.449,3.553-8.328,8.481c0.56-0.29,1.307-0.563,1.609-0.563
	C430.639,444.892,450.658,444.892,470.678,444.892z M546.903,444.698c0.11,0.914-1.427,1.523-2.308,1.328
	c-0.207,0.063-0.385,0.104-0.499,0.104c-20.706,0-41.412,0-62.118,0c-0.03,0-0.048-0.004-0.075-0.005
	c-0.753,0.615-2.554,0.817-2.569,0.2c-0.148-6.021,5.604-9.563,11.17-10.508c2.742-12.031,5.484-24.064,8.226-36.096
	c-0.048-0.011-0.093-0.025-0.13-0.045c-0.413,0.023-0.72-0.021-0.72-0.152c0-0.189,0-0.379,0-0.568
	c-9.099-9.619-19.511-19.047-31.211-25.896c-0.189-0.027-0.311-0.088-0.315-0.186c-6.141-3.563-12.627-6.426-19.474-8.205
	c-10.084-2.621-20.873-3.098-30.825,0.422c-1.426,0.505-2.82,1.065-4.185,1.676c-0.289,0.481-1.122,0.798-1.805,0.85
	c-8.993,4.396-16.653,10.984-23.363,18.486c-0.125,0.141-0.343,0.249-0.6,0.334c4.893,20.23,7.964,40.744,6.259,61.742c1,0,2,0,3,0
	c0.901-0.285,1.971-0.047,1.8,0.902c-1.523,8.48-2.461,17.055-3.338,25.623c-0.434,4.235-0.844,8.473-1.296,12.705
	c-0.287,2.685-0.765,4.553,1.672,6.23c2.986,2.055,6.841,3.281,9.229,6.123c2.87,3.418,2.054,7.322,0.16,11.041
	c-0.093,0.183-0.241,0.332-0.417,0.455c-0.258,0.258-0.626,0.447-1.089,0.471c-7.273,0.376-14.564,0.686-21.849,0.714
	c-3.007,0.012-6.424,0.311-9.37-0.458c-2.559-0.666-1.975-5.782-2.255-7.859c-2.461-18.217-5.207-36.398-8.008-54.566
	c-0.182-1.181,1.65-1.889,2.496-1.381c0.387,0,0.773,0,1.16,0c-1.28-11.723-3.333-23.69-6.932-35.086
	c-2.723,2.733-5.441,5.47-8.168,8.197c-0.194,0.193-0.487,0.322-0.808,0.396c-1.156,8.784-1.906,17.581-0.689,26.493
	c0.036,0,0.072,0,0.107,0c0.79-0.322,1.78-0.211,1.912,0.604c2.148,13.265,4.185,26.552,5.635,39.912
	c0.369,3.4,0.707,6.803,1.126,10.197c0.221,1.792,0.456,3.582,0.72,5.369c0.231,1.563,1.28,4.393,0.904,5.892
	c-0.481,1.917-3.551,1.755-5.062,1.821c-4.474,0.193-8.962,0.123-13.438,0.04c-7.056-0.132-14.112-0.353-21.163-0.644
	c-0.69,0.521-1.832,0.638-2.215-0.113c-1.893-3.71-3.197-8.318,0.12-11.691c2.569-2.612,6.828-3.751,9.049-6.574
	c1.943-2.471-0.042-7.314-0.849-10c-1.155-3.85-2.517-7.625-3.958-11.375c-2.778-7.227-5.867-14.438-7.405-22.057
	c-0.237-1.174,1.588-1.891,2.466-1.381c1.589,0,3.179,0,4.769,0c-6.861-26.908-3.706-54.598-5.708-82.035
	c-0.014-0.187,0.031-0.359,0.114-0.518c-0.614-0.191-1.229-0.399-1.848-0.639c-0.822,0.164-1.685-0.104-1.573-0.956
	c0.676-5.11,1.346-10.19,2.346-15.25c0.042-0.214,0.158-0.4,0.312-0.561c-2.226-0.35-4.449-1.048-6.658-2.182
	c-11.627-5.964-7.718-22.2-6.7-32.705c-0.464,0.07-0.927,0.145-1.391,0.223c-1.274,0.214-1.297-0.358-0.803-0.864
	c-0.002-0.041,0.002-0.085,0.02-0.134c3.603-10.224,4.322-24.653,13.972-31.345c5.371-3.725,12.067-4.789,18.613-5.772
	c0.674-0.501,2.131-0.687,2.528-0.385c1.917-0.298,3.806-0.616,5.625-1.024c0.02-0.004,0.035-0.002,0.055-0.007
	c-0.8-3.755-2.002-6.644-6.557-6.793c-3.676-0.122-6.765-1.142-9.802-3.247c-8.023-5.563-3.598-18.1-6.724-25.92
	c-0.03-0.076-0.04-0.15-0.038-0.223c-3.503,0-7.006,0-10.51,0c-1.96,0,0.014-1.676,1.118-1.676c3.601,0,7.201,0,10.802,0
	c-0.017-0.037-0.028-0.076-0.027-0.121c0.269-14.318,9.62-22.869,23.567-24c13.364-1.084,29.416,7.721,28.438,22.741
	c-0.017,0.263-0.283,0.499-0.645,0.677c1.291,10.717,2.81,21.512-7.934,27.687c-0.474,0.272-1.194,0.276-1.732,0.118
	c0.682,2.227,1.429,4.434,1.871,6.709c0.11,0.027,0.208,0.069,0.278,0.134c8.147,7.45,20.833,2.566,29.933,7.919
	c12.488,7.348,8.107,28.657,9.743,40.654c0.059,0.434-0.592,0.742-0.912,0.852c-0.245,0.083-0.492,0.156-0.738,0.235
	c0.114,0.063,0.189,0.149,0.192,0.271c0.245,9.508-2.499,20.523-10.822,26.231c-2.773,1.901-5.836,3.173-9.01,3.806
	c0.007,0.027,0.021,0.05,0.026,0.078c0.888,4.621,0.761,9.254,1.346,13.904c0.065,0.517-0.264,0.938-0.718,1.208
	c1.861,6.442,3.639,12.907,5.244,19.401c6.79-7.187,14.686-13.343,23.41-17.512c0-32.326,0-64.651,0-96.977
	c0-0.928,2.008-1.457,2.678-1.099c0.35-0.192,0.739-0.331,1.048-0.331c14.01,0,28.02,0,42.03,0c0-14.236,0-28.473,0-42.707
	c0-0.785,1.438-1.283,2.288-1.203c0.191-0.064,0.377-0.105,0.541-0.105c20.31,0,40.62,0,60.93,0c0.574,0,0.799,0.141,0.813,0.337
	c0.04,0.056,0.069,0.118,0.069,0.194c0,14.494,0,28.99,0,43.484c7.146,0,14.292,0,21.438,0c0.673,0,0.869,0.193,0.801,0.443
	c0.047,0.059,0.081,0.125,0.081,0.209c0,56.096,0,112.191,0,168.288C544.412,439.261,546.514,441.472,546.903,444.698z
	 M376.927,350.471c-3.708,0.282-7.494-0.295-11.093-1.802c-1.469-0.615-2.914-1.302-4.339-2.036
	c0.297,4.945,0.627,9.879,0.75,14.829c0.542,0.068,0.423,0.442,0.016,0.782c0.013,0.663,0.037,1.325,0.04,1.989
	c0.076-0.002,0.146,0,0.199,0.014c5.447,1.352,10.345,2.402,15.71,0.252c-0.538-4.532-0.445-9.065-1.309-13.564
	C376.87,350.77,376.884,350.615,376.927,350.471z M335.014,344.899c-0.324,5.629-0.736,11.236-0.847,16.87
	c0.554-0.216,1.17-0.35,1.474-0.249c7.807,2.576,15.77,1.566,23.698,0.323c-0.144-5.288-0.522-10.556-0.827-15.843
	c-0.016-0.279,0.184-0.522,0.482-0.717c-4.06-2.293-7.959-4.962-11.76-7.691c-4.323,2.111-8.877,4.653-13.562,6.755
	C334.375,344.238,335.045,344.366,335.014,344.899z M396.708,320.819c-0.002-0.098,0.028-0.189,0.073-0.278
	c-5.575,1.435-11.382,1.798-17.017,0.838c0.478,0.245,0.94,0.51,1.374,0.815c0.306,0.217-2.109,1.396-2.74,0.953
	c-4.802-3.387-12.127-2.232-17.748-2.773c-6.004-0.579-11.288-2.395-17.034-3.994c-6.871-1.912-23.925-6.011-22.507,5.83
	c3.379-0.723,7.848-1.307,9.896,0.278c1.219,0.944,2.447,1.878,3.678,2.807c6.563,4.951,13.197,9.836,20.053,14.376
	c7.964,5.275,18.578,12.658,28.49,8.094C393.415,343.072,396.976,331.235,396.708,320.819z M330.311,276.786
	c-6.425,0.889-13.064,2.082-17.458,6.218c-7.346,6.914-8.211,19.573-11.351,28.764c6.745-0.989,13.393-1.034,19.434,2.319
	C322.125,300.86,324.739,288.806,330.311,276.786z M319.57,236.167c15.476,0,30.952,0,46.428,0c-0.005-0.041-0.01-0.081-0.015-0.121
	c-0.053-0.441,0.254-0.811,0.684-1.061c0.703-13.02-12.931-22.026-24.962-21.491c-13.055,0.581-21.021,8.836-21.264,21.774
	C320.435,235.653,320.053,235.963,319.57,236.167z M361.443,273.184c-0.247,0.752-1.747,1.188-2.47,0.96
	c-5.024,4.154-11.275,6.691-17.345,3.849c-2.595,11.159-5.527,22.847-5.695,34.247c-0.007,0.469-0.411,0.825-0.916,1.016
	c1.291,0.105,2.501,0.261,3.555,0.435c6.742,1.112,13.01,4.048,19.739,5.053c0.376,0.056,0.768,0.102,1.164,0.143
	c-0.135-14.984,0.083-29.622,2.702-44.45c0.04-0.226,0.252-0.427,0.544-0.586C362.288,273.646,361.861,273.424,361.443,273.184z
	 M386.928,278.339c-3.568-1.265-7.568-1.571-11.565-1.91c0.007,0.035,0.02,0.066,0.023,0.105
	c1.097,13.797,0.054,27.738,0.023,41.559c0,0.066-0.013,0.127-0.025,0.188c6.898,2.639,14.458,2.91,21.562,0.974
	c0.387-0.105,0.773-0.218,1.158-0.336c-0.012-0.1-0.024-0.196-0.035-0.297C396.808,306.833,400.8,283.257,386.928,278.339z
	 M372.488,277.312c-0.036-0.446,0.21-0.822,0.57-1.09c-2.796-0.273-5.55-0.657-8.111-1.494c-2.514,14.648-2.711,29.146-2.569,43.967
	c0.001,0.135-0.048,0.262-0.132,0.378c3.423,0.138,7.245,0.051,10.797,0.47c-0.242-0.092-0.486-0.177-0.727-0.275
	c-0.427-0.174-0.24-0.465,0.179-0.729c-0.019-0.08-0.03-0.165-0.03-0.258C372.495,304.665,373.568,290.903,372.488,277.312z
	 M342.644,275.636c0.022,0.119,0.006,0.231-0.028,0.34c5.784,3.738,11.218,0.756,15.635-3.514c0.051-0.05,0.125-0.096,0.208-0.14
	c-0.512-4.362-2.501-8.392-3.238-12.728c-0.163-0.958,1.998-1.609,2.692-1.098c2.405-0.821,3.51-4.427,3.145-6.647
	c-0.444-2.7-2.155-4.52-4.91-4.879c-0.159-0.021-0.164-0.089-0.078-0.179l-0.012-0.002c-0.271,0.164-0.61,0.291-0.962,0.323
	c-5.689,0.519-11.444-3.245-11.32-9.271c-8.16,0-16.319,0-24.478,0c3.197,9.139-1.944,24.5,11.172,27.205
	c2.409,0.496,5.627-0.215,7.825,1.064C341.474,267.964,342.03,272.37,342.644,275.636z M333.207,276.391
	c-5.611,12.103-8.225,24.237-9.404,37.568c-0.011,0.126-0.078,0.245-0.179,0.355c2.855-1.069,6.42-1.304,9.684-1.166
	c-0.19-0.152-0.311-0.372-0.307-0.675c0.181-12.266,3.562-24.865,6.28-36.779c0.028-0.122,0.087-0.233,0.161-0.338
	C337.502,275.784,335.39,276.094,333.207,276.391z M345.994,336.698c-1.704-1.234-3.391-2.473-5.063-3.687
	c-3.394-2.464-6.766-4.958-10.104-7.498c-3.794-2.887-7.456-2.574-12.334-1.301c-1.725,0.45-2.075-0.84-0.346-1.291
	c0.018-0.005,0.039-0.01,0.057-0.015c-0.346-3.066,0.572-5.229,2.231-6.729c-0.309,0.025-0.587-0.006-0.773-0.129
	c-4.986-3.277-10.504-3.666-16.125-3.085c-0.907,9-4.298,22.065,2.859,29.181C317.931,353.612,334.195,342.435,345.994,336.698z
	 M331.348,365.009c-0.079-0.061-0.124-0.139-0.123-0.238c0.023-6.51,0.527-12.977,0.902-19.473c0.007-0.125,0.076-0.243,0.18-0.354
	c-5.12,2.184-10.38,3.739-15.646,3.532c-0.003,0.038,0,0.071-0.008,0.111c-0.976,4.937-1.637,9.894-2.296,14.879
	C320.026,365.966,325.377,366.301,331.348,365.009z M356.553,410.675c-1.493-4.416-3.243-8.729-5.275-12.898
	c-0.457,6.932-1.529,13.813-2.492,20.691C351.375,415.87,353.962,413.271,356.553,410.675z M377.439,365.73
	c-5.5,1.686-10.606,1.21-16.441-0.17c-0.767,0.204-1.587,0.154-1.588-0.272c-0.002-0.743-0.031-1.484-0.045-2.227
	c-8.269,1.302-16.61,2.4-24.76,0.094c-0.154-0.044-0.309-0.092-0.462-0.139c0,0.047-0.002,0.092-0.003,0.139
	c-0.003,0.279-0.016,0.559-0.017,0.838c-0.001,0.352-0.325,0.643-0.753,0.846c0.34,0.186,0.04,0.615-1.029,0.869
	c-5.134,1.22-9.906,1.602-14.706,0.646c1.875,27.363-1.188,55.016,5.845,81.824c7.064,0,14.128,0,21.192,0
	c-2.313-18.639,3.702-36.783,3.928-55.387c0-0.024,0.01-0.047,0.013-0.07c-1.822-3.229-3.82-6.363-6.064-9.352
	c-0.792-1.055,1.996-2.1,2.675-1.195c6.331,8.429,10.906,17.893,14.253,27.84c0.212,0.146,0.305,0.351,0.196,0.613
	c4.019,12.146,6.232,24.99,7.569,37.551c7.411,0,14.822,0,22.234,0C391.697,419.97,385.232,392.665,377.439,365.73z
	 M457.735,268.753c3.711,0,7.421,0,11.132,0c0-10.91,0-21.82,0-32.73c0-0.221,0.241-0.408,0.579-0.559
	c0.158-0.469,0.7-0.914,1.459-0.914c11.08,0,22.159,0,33.238,0c0.539,0,0.875,0.151,1.056,0.368
	c0.152,0.068,0.247,0.175,0.247,0.327c0,11.046,0,22.092,0,33.137c0,0.133-0.044,0.256-0.119,0.371c3.75,0,7.501,0,11.252,0
	c0-14.133,0-28.266,0-42.398c-19.615,0-39.23,0-58.845,0C457.735,240.487,457.735,254.62,457.735,268.753z M471.765,268.753
	c10.262,0,20.523,0,30.785,0c0-10.736,0-21.473,0-32.207c-10.262,0-20.523,0-30.785,0
	C471.765,247.282,471.765,258.019,471.765,268.753z M469.244,372.122c6.025,3.508,11.717,7.676,17.073,12.22
	c0-5.77,0-11.538,0-17.307c-5.689,0-11.378,0-17.067,0c0,1.687,0,3.372,0,5.058C469.25,372.103,469.245,372.112,469.244,372.122z
	 M497.881,395.151c0-9.496,0-18.992,0-28.488c0-0.346,0.562-0.615,1.19-0.775c0.377-0.281,0.853-0.495,1.269-0.495
	c9.817,0,19.633,0,29.45,0c1.124,0,1.014,0.616,0.485,1.142c0.249,0.116,0.415,0.316,0.415,0.625c0,14.791,0,29.582,0,44.372
	c1.771,7.906,3.541,15.813,5.311,23.72c0.035,0.006,0.073,0.01,0.106,0.02c0.914,0.281,1.859,0.607,2.794,0.99
	c0-55.297,0-110.594,0-165.891c-7.086,0-14.173,0-21.26,0c-0.166,0-0.331,0-0.496,0c-35.056,0-70.111,0-105.166,0
	c0,31.834,0,63.667,0,95.5c8.728-3.649,18.215-5.297,28.2-4.032c9.311,1.179,18.035,4.299,26.174,8.665c0-1.02,0-2.039,0-3.059
	c0-0.252,0.259-0.465,0.618-0.628c-0.16-0.396,1.258-1.189,1.955-1.189c6.271,0,12.542,0,18.813,0
	c0.733-0.156,1.476-0.142,1.476,0.11c0,6.83,0,13.659,0,20.488c0,0.154-0.097,0.293-0.252,0.416
	C492.051,389.387,495.025,392.242,497.881,395.151z M501.097,401.921c8.123,0,16.246,0,24.369,0
	c-1.648-7.361-3.297-14.724-4.945-22.085c-0.118,0.027-0.231,0.046-0.33,0.046c-4.7,0-9.401,0-14.101,0
	c0.003,0.066-0.001,0.137-0.019,0.215C504.413,387.371,502.755,394.646,501.097,401.921z M500.815,403.159
	c-0.653,2.865-1.306,5.73-1.958,8.596c0.121-0.03,0.227-0.049,0.302-0.049c9.499,0,18.999,0,28.499,0
	c-0.656-2.93-1.312-5.859-1.968-8.789c-0.366,0.142-0.71,0.242-0.892,0.242C516.803,403.159,508.809,403.159,500.815,403.159z
	 M527.826,367.27c-9.017,0-18.032,0-27.048,0c0,7.823,0,15.647,0,23.47c0.789-3.461,1.578-6.923,2.367-10.385
	c0.081-0.355,0.398-0.637,0.794-0.828c0.084-0.438,1.291-1.125,1.957-1.125c5.151,0,10.303,0,15.454,0
	c0.795-0.344,1.854-0.299,2.019,0.436c1.471,6.568,2.941,13.137,4.412,19.705c0-10.353,0-20.705,0-31.059
	C527.781,367.409,527.799,367.339,527.826,367.27z M493.429,435.568c0.287-0.001,0.575-0.004,0.854,0.011
	c0.124,0.006,0.231,0.019,0.324,0.035c12.801,0,25.602,0,38.403,0c-1.651-7.373-3.302-14.746-4.953-22.119
	c-0.17-0.121-0.276-0.301-0.276-0.549v-0.002c-9.731,0-19.463,0-29.196,0C496.867,420.485,495.148,428.026,493.429,435.568z
	 M543.901,444.892c-0.856-4.313-5.108-6.439-9.028-7.702c-0.618,0.157-1.279,0.082-1.541-0.337c-13.1,0-26.201,0-39.301,0
	c-0.321,0.139-0.657,0.229-0.917,0.215c-0.3-0.016-0.603-0.018-0.907-0.01c-0.426,0.141-0.891,0.18-1.25,0.098
	c-4.421,0.555-8.782,3.449-8.721,8.299c0.56-0.289,1.305-0.563,1.606-0.563C503.862,444.892,523.882,444.892,543.901,444.892z
	 M457.687,329.722c0,8.207,0,16.413,0,24.619c0,0.892-2.277,1.38-2.791,0.975c-0.132,0.033-0.244,0.053-0.322,0.053
	c-11.072,0-22.144,0-33.216,0c-0.484,0-0.492-0.139-0.273-0.32c-0.507-0.09-0.911-0.395-0.911-0.971c0-7.666,0-15.333,0-23
	c0-0.607,0.6-1.023,1.257-1.154c0.574-0.307,1.494-0.637,1.808-0.637c11.252,0,22.505,0,33.757,0c0.31,0,0.412,0.058,0.388,0.145
	C457.568,329.483,457.687,329.577,457.687,329.722z M454.789,354.165c0-7.889,0-15.777,0-23.666c0-0.022,0.009-0.043,0.012-0.064
	c-10.597,0-21.194,0-31.791,0c0.063,0.125,0.104,0.268,0.104,0.439c0,7.666,0,15.333,0,23c0,0.112-0.027,0.215-0.064,0.313
	c0.07-0.013,0.133-0.022,0.181-0.022C433.75,354.165,444.27,354.165,454.789,354.165z M457.687,317.544
	c0.144,0.158,0.127,0.38,0,0.615c0,0.131,0,0.262,0,0.393c0,0.784-2.897,1.181-2.897,0.777c0-0.016,0-0.033,0-0.049
	c-11.339,0-22.677,0-34.016,0c-1.08,0-1.043-0.597-0.579-1.133c0-11.115,0-22.23,0-33.346c0-0.383,0.534-0.682,1.144-0.855
	c0.417-0.258,0.944-0.465,1.308-0.465c10.9,0,21.8,0,32.7,0c0.841-0.385,2.34-0.512,2.34-0.221
	C457.687,294.688,457.687,306.116,457.687,317.544z M454.789,317.315c0-10.785,0-21.568,0-32.354c-10.565,0-21.131,0-31.697,0
	c0,10.785,0,21.568,0,32.354C433.658,317.315,444.224,317.315,454.789,317.315z M497.88,355.02c0-8.031,0-16.063,0-24.094
	c0-0.108,0.041-0.212,0.106-0.31c-0.528-0.482,0.807-1.705,1.811-1.705c9.33,0,18.659,0,27.989,0c0.374,0,0.611,0.07,0.743,0.182
	c0.862-0.391,2.161-0.361,2.161,0.518c0,8.06,0,16.119,0,24.178c0,0.168-0.08,0.322-0.204,0.461c0.592,0.17-1.678,1.066-2.18,1.066
	c-9.338,0-18.676,0-28.014,0C499.466,355.821,497.88,355.927,497.88,355.02z M526.728,330.81c-8.649,0-17.299,0-25.948,0
	c0,7.803,0,15.605,0,23.408c9.006,0,18.011,0,27.017,0c-0.005-0.037-0.016-0.069-0.016-0.109c0-7.883,0-15.767,0-23.648
	C527.448,330.665,527.069,330.81,526.728,330.81z M497.881,318.306c0-11.09,0-22.179,0-33.268c0-0.146,0.08-0.279,0.203-0.399
	c0.07-0.509,1.181-1.276,1.938-1.276c9.636,0,19.272,0,28.908,0c0.351-0.085,0.724-0.085,1.038,0.011
	c0.557,0.038,0.718,0.244,0.637,0.505c0.062,0.125,0.101,0.268,0.101,0.438c0,11.031,0,22.063,0,33.092
	c0,0.139-0.037,0.266-0.091,0.383c0.186,0.409-1.219,1.238-1.946,1.238c-9.856,0-19.713,0-29.569,0
	c-0.732,0-0.885-0.206-0.738-0.463C498.075,318.542,497.881,318.459,497.881,318.306z M527.764,285.081c-8.995,0-17.99,0-26.985,0
	c0,10.816,0,21.632,0,32.447c0,0.014-0.006,0.025-0.008,0.039c8.998,0,17.996,0,26.993,0
	C527.764,306.737,527.764,295.909,527.764,285.081z M489.219,329.76c0,7.972,0,15.942,0,23.914c0,0.33-0.3,0.614-0.707,0.807
	c-0.406,0.321-1.799,0.83-2.175,0.83c-6.016,0-12.032,0-18.047,0c-0.843,0.32-1.938,0.331-1.938-0.146c0-7.967,0-15.934,0-23.9
	c0-0.353,0.335-0.643,0.774-0.844c-0.337-0.393,1.142-1.3,1.906-1.3c6.143,0,12.286,0,18.429,0
	C488.274,328.9,489.219,329.022,489.219,329.76z M486.345,354.223c-0.021-0.065-0.032-0.139-0.032-0.219c0-7.802,0-15.603,0-23.404
	c-5.687,0-11.375,0-17.063,0c0,7.874,0,15.749,0,23.623C474.949,354.223,480.647,354.223,486.345,354.223z M489.225,283.507
	c0,11.613,0,23.227,0,34.842c0,0.69-1.075,1.156-1.921,1.107c-0.433,0.313-1.064,0.586-1.484,0.586c-6.162,0-12.323,0-18.484,0
	c-0.963,0-0.928-0.362-0.529-0.729c-0.285-0.165-0.477-0.441-0.477-0.847c0-11.574,0-23.148,0-34.725
	c0-0.008,0.002-0.014,0.003-0.021c0-0.033,0.008-0.063,0.012-0.096c0.11-0.885,1.43-1.313,2.263-1.004c0,0,0.001,0,0.002,0
	c6.543,0,13.087,0,19.63,0c0.304,0,0.415,0.056,0.406,0.142C488.984,282.876,489.225,283.11,489.225,283.507z M486.307,318.554
	c0-11.576,0-23.152,0-34.731c-5.678,0-11.355,0-17.033,0c0,11.485,0,22.972,0,34.46c0,0.096-0.017,0.186-0.042,0.271
	C474.923,318.554,480.615,318.554,486.307,318.554z" fill="#644211"></path>
</svg>
