<svg version="1.1" id="color_x5F_1" xmlns="http://www.w3.org/2000/svg" xmlns:xlink="http://www.w3.org/1999/xlink" x="0px" y="0px" width="600px" height="600px" viewBox="0 0 600 600" enable-background="new 0 0 600 600" xml:space="preserve">
<path id="color_x5F_11" fill="#67A2C1" d="M103.007,414.043l4.233,17.235l-73.073-42.331v-14.615L103.007,414.043z M268,508.887
	l-129.918-74.686l-0.504,2.722c-5.342,2.62-10.482,3.326-15.018,3.225L268,524.307l166.605-96.152l-14.211-8.266L268,508.887z
	 M432.891,412.531c0,0.303,0,0.504,0,0.807l0,0c1.814,0,2.722,1.713,2.722,4.535c0,3.629,1.512,3.427,6.552,5.141
	c0.302,0.101,0.604,0.201,0.806,0.403l122.862-70.855v-17.537L432.891,412.531z"></path>
<path id="color_x5F_10" fill="#02E6AB" d="M294.608,166.101c0,0,4.334,5.14,0.504,12.599c-3.729,7.458-12.296,4.334-12.296,4.334
	s1.31,5.14-5.645,8.87c-6.954,3.729-11.288,0-11.288,0s4.031-1.713,6.047-7.458c2.016-5.745-1.613-5.947-1.613-5.947
	s14.715-3.628,15.018-8.466c0.303-4.838-5.946-6.955-5.946-6.955s-0.504-7.458-6.854-10.281c-6.35-2.822-10.583,5.141-10.583,5.141
	s-1.915-8.265-11.087-10.382c-9.273-2.116-12.196,15.925-12.196,15.925s-2.117-5.946-6.955-5.745
	c-2.721,0.101-5.241,2.721-6.752,5.04c0.101-0.303,0.201-0.706,0.302-1.008v-0.101c0.101-0.302,0.202-0.706,0.403-1.008
	c0.101-0.302,0.202-0.605,0.303-0.907c0.101-0.302,0.202-0.605,0.302-0.907s0.202-0.604,0.403-0.907
	c0.101-0.303,0.201-0.605,0.403-0.807c0.101-0.302,0.303-0.604,0.403-1.008c0.101-0.302,0.202-0.504,0.403-0.806
	c0.101-0.303,0.302-0.605,0.403-1.008c0.101-0.302,0.202-0.504,0.403-0.806s0.302-0.706,0.504-1.008
	c0.101-0.202,0.202-0.504,0.403-0.706c0.201-0.302,0.403-0.706,0.504-1.008c0.101-0.202,0.202-0.403,0.403-0.706
	c0.202-0.403,0.403-0.706,0.605-1.109c0.101-0.201,0.202-0.403,0.302-0.504c0.302-0.504,0.706-1.008,1.008-1.512
	c0,0,0.303-0.101,0.706-0.302l0,0c0.202-0.101,0.303-0.202,0.504-0.302c0,0,0.101,0,0.101-0.101
	c0.202-0.101,0.403-0.202,0.706-0.403l0.101-0.101c0.202-0.101,0.504-0.302,0.806-0.504l0.101-0.101
	c0.302-0.201,0.604-0.403,0.907-0.604c0,0,0.101,0,0.101-0.101c0.302-0.202,0.605-0.403,1.008-0.706c0,0,0.101,0,0.101-0.101
	c0.302-0.202,0.706-0.504,1.008-0.806c0.101,0,0.101-0.101,0.202-0.101c0.302-0.302,0.706-0.604,1.008-0.907
	c0.101-0.101,0.101-0.101,0.202-0.202c0.403-0.302,0.706-0.605,1.108-1.008c0.101-0.101,0.101-0.101,0.202-0.202
	c0.403-0.403,0.706-0.706,1.109-1.109l0.101-0.101c0.403-0.403,0.706-0.807,1.109-1.311c0,0,0,0,0.101-0.101
	c0.403-0.403,0.706-0.907,1.109-1.411c0-0.101,0.101-0.101,0.101-0.202c0.302-0.504,0.706-1.008,1.008-1.512
	c0.101-0.101,0.101-0.202,0.202-0.302c0.302-0.504,0.605-1.008,0.907-1.613c0.101-0.101,0.101-0.202,0.202-0.302
	c0.302-0.605,0.604-1.209,0.907-1.814c0-0.101,0.101-0.101,0.101-0.201c0.302-0.605,0.604-1.311,0.806-2.016l-3.225-2.117l0,0
	c0,0,0,0,0,0.101c-0.302,0.604-1.814,3.729-4.737,7.357l0,0c-0.202,0.302-0.504,0.605-0.806,0.907
	c-0.101,0.101-0.101,0.101-0.202,0.202c-0.202,0.302-0.504,0.604-0.806,0.907c-0.101,0.101-0.202,0.201-0.302,0.302
	c-0.403,0.403-0.807,0.806-1.209,1.209c-0.202,0.202-0.504,0.504-0.706,0.706c-0.202,0.202-0.403,0.302-0.504,0.504
	c-0.303,0.302-0.504,0.504-0.807,0.806c-0.202,0.202-0.403,0.303-0.504,0.504c-0.302,0.303-0.604,0.504-1.008,0.807
	c-0.202,0.101-0.302,0.302-0.504,0.403c-0.504,0.403-1.008,0.807-1.613,1.209l2.721-11.792c0,0,1.411,2.318,5.342-0.706
	c3.931-3.023,5.342-6.45,5.342-6.45s0.907,2.016,3.931,2.822c3.023,0.907,3.023,0.907,3.023,0.907s-3.527,3.729-3.427,5.745
	c0.202,2.016,12.296,2.822,14.312-1.411c2.016-4.334,2.016-5.14,2.016-5.14s2.721,0.202,5.342-1.814
	c2.721-2.016,4.536-7.861,4.536-7.861s13.405,2.419,9.676,16.126c0,0,6.954-2.923,10.482,3.125c3.528,6.047,0,11.691,0,11.691
	s4.838-4.838,9.373,1.31C309.323,155.115,305.09,162.876,294.608,166.101z M213.472,170.637c-0.202-0.202-0.504-0.403-0.706-0.504
	c-0.706-0.504-1.512-0.807-2.318-1.109c-0.303-0.101-0.504-0.202-0.706-0.202c-1.411-0.403-2.621-0.403-2.621-0.403l0,0l0,0
	c0,0,1.915-1.512,3.326-4.032c0.101-0.302,0.302-0.604,0.403-0.907c0.303-0.604,0.504-1.31,0.605-2.016
	c0.302-1.512,0.302-3.125-0.302-4.938c-0.202-0.706-0.504-1.311-0.807-1.814c-0.202-0.302-0.504-0.706-0.706-0.907
	c-0.504-0.604-1.209-1.008-1.814-1.31c-0.504-0.302-1.008-0.403-1.613-0.605c-0.202,0-0.403-0.101-0.504-0.101
	c-0.605-0.101-1.109-0.202-1.713-0.202c-0.504,0-1.109-0.101-1.613-0.101c-0.302,0-0.706,0-1.008,0s-0.605,0-0.907,0.101
	c-0.302,0-0.504,0.101-0.806,0.101c-0.202,0-0.403,0.101-0.605,0.101c-0.201,0-0.302,0.101-0.403,0.101
	c-0.202,0-0.302,0.101-0.302,0.101c0.806-2.721,0.705-5.342,0.302-7.458c-1.311,1.411-4.334,3.427-9.777,2.923
	c-8.063-0.706-9.978-8.769-9.978-8.769s-3.528,5.04-7.357,6.753c-3.729,1.814-13.204,0.403-16.63-4.435
	c-0.403-0.604-0.806-1.209-1.109-1.713c0,0-4.435-0.302-7.458,2.52c-3.023,2.822-1.411,7.458-1.411,7.458s-5.141-2.117-10.583,2.016
	c-5.443,4.132,0,8.769,0,8.769s-9.374,0-10.785,5.745s4.636,7.458,4.636,7.458s-2.318-0.202-4.334,5.745
	c-2.016,5.947,6.148,6.148,6.148,6.148c5.644-2.318,10.28,3.729,10.28,3.729s0.403-6.954,5.241-7.458
	c4.838-0.504,8.265,9.273,8.265,9.273s2.52-5.543,7.66-3.628s5.644,11.792,5.644,11.792s3.226-1.512,5.645,3.125
	c2.419,4.535-5.947,7.66-5.947,7.66s3.225,5.342-0.403,8.567c-3.628,3.225-8.869-1.311-8.869-1.311s2.923,4.737,0.806,8.567
	s-8.567,7.357-12.901,7.357s-6.854-2.52-6.854-2.52s4.132,5.342,0.403,9.374c-3.729,4.031-9.877,3.225-9.877,3.225
	c0,9.978,8.769,5.543,8.769,5.543c7.862,10.684,14.615-1.411,14.615-1.411c5.543,3.125,9.071,0.604,11.389-3.023
	c0.604-0.907,1.109-1.915,1.411-2.822l0,0c0.101-0.302,0.302-0.605,0.403-0.907c0.101-0.302,0.202-0.604,0.303-0.907l0,0
	c0.604-1.915,0.907-3.427,1.008-4.737c0-0.605,0-1.109,0-1.613c0-0.302,0-0.604-0.101-0.806c-0.101-0.504-0.101-0.807-0.101-0.807
	s0.101,0,0.101,0.101c0,0,0,0,0.101,0l0.101,0.101c0,0,0.101,0,0.101,0.101c0.101,0,0.101,0.101,0.202,0.101
	c0,0,0.101,0,0.101,0.101c0.101,0,0.202,0.101,0.302,0.101c0,0,0.101,0,0.101,0.101c0.101,0.101,0.202,0.101,0.302,0.202h0.101
	c0.303,0.101,0.504,0.302,0.807,0.403c1.713,0.806,4.031,1.512,5.14,0.302c2.016-2.117,3.225-6.955,3.225-6.955
	s2.822,3.729,7.66,5.141c2.621,0.806,3.931,0.302,4.636-0.202c0.605-0.504,0.605-1.008,0.605-1.008v-26.407l0,0
	c0.604,0.202,1.108,0.202,1.512,0.202s0.806-0.202,1.109-0.403c0.504-0.303,0.806-0.706,1.108-1.209
	c0.806-1.411,0.806-3.326,0.806-3.326s12.7,5.946,15.724-2.117c1.108-3.023,1.008-5.644,0.504-7.761
	c-0.202-0.706-0.403-1.311-0.706-1.915c-1.008-2.318-2.52-3.628-2.52-3.628s4.233-0.907,6.249-4.132
	c0.706-1.109,1.109-2.419,1.109-4.032c0-1.209-0.302-2.217-0.807-3.125C214.278,171.544,213.875,171.04,213.472,170.637z
	 M222.846,141.206c-5.14-1.209-6.955-8.567-6.955-8.567c-1.814,3.729-3.931,4.636-3.931,4.636l1.814,32.555l0,0
	c0.101-0.202,0.303-0.504,0.403-0.706l0,0c1.209-2.016,2.217-4.032,3.125-5.947l0,0c5.442-11.289,6.451-20.964,6.451-20.964
	l1.008-1.108C224.156,141.307,223.45,141.408,222.846,141.206z"></path>
<path id="color_x5F_9" fill="#267873" d="M339.056,321.115c-1.31,0-2.62-0.303-3.427-0.604c-1.814-0.706-1.713-1.915-1.713-2.116
	l0,0c0,0,1.612-2.117,6.551-2.318c2.621-0.102,4.032,0.906,4.032,0.906s0.402,2.318-1.311,3.428
	C342.181,320.914,340.567,321.115,339.056,321.115z M137.275,353.166c-14.11,3.932-10.583,20.562-10.583,20.562
	s-5.342-5.14-3.527-17.84c1.814-12.699,7.156-16.63,14.614-38.804c0.302-0.907,0.504-1.713,0.806-2.621
	c6.047-21.568-1.915-46.161-16.731-48.479c-15.421-2.52-16.227,13.204-6.753,26.306c9.474,13.001,3.628,27.515,3.628,27.515
	c0-6.047-7.559-18.242-18.444-17.738s-14.111,10.885-2.217,19.855c4.031,3.023,6.047,7.257,6.954,11.893
	c1.714,9.071-1.108,19.957-2.016,27.516c-1.411,11.49,8.366,21.268,8.366,21.268s0,0-5.141-2.723
	c-5.14-2.721-12.699-1.512-19.855-11.188c-7.156-9.676-21.771-18.545-20.46-2.318c1.31,16.229,28.322,15.522,39.308,20.764
	c3.125,1.512,5.241,3.427,6.652,5.342c0.907,1.209,1.411,2.52,1.814,3.628c-9.676,1.714-14.01,6.35-14.01,6.35s0,0-0.101,0
	c1.512,1.915,4.938,3.629,9.474,4.737c0.605,0.202,1.311,0.303,1.915,0.403c0.706,0.101,1.311,0.201,2.016,0.403
	c1.411,0.201,2.923,0.403,4.435,0.504s3.125,0.201,4.737,0.201c4.838,0,9.475-0.504,13.204-1.411
	c3.931-1.008,7.055-2.317,8.769-3.931c0-1.108-2.923-5.039-13.606-6.854c0-1.311,0.101-2.721,0.302-4.232
	c0.403-4.637,1.311-9.777,3.326-12.902c4.334-6.953,12.901-3.93,18.545-14.514C158.34,354.074,151.386,349.236,137.275,353.166z
	 M144.129,403.058L144.129,403.058L144.129,403.058L144.129,403.058z M99.378,402.352L99.378,402.352
	C99.378,402.251,99.378,402.251,99.378,402.352C99.378,402.251,99.378,402.251,99.378,402.352z M220.326,262.355
	c0.807-4.334,0.807-23.584,10.18-34.167c9.373-10.583,9.877-19.855,9.877-19.855c9.475-2.621,13.708-8.366,15.623-12.296l0,0
	c-0.302,0-0.706,0-1.109,0c-0.403,0-0.806-0.101-1.31-0.101c0,0,0,0-0.101,0l0,0c-0.101,0.101-0.303,0.202-0.605,0.303l0,0
	c-0.504,0.302-1.411,0.706-2.52,1.108l0,0c-0.303,0.101-0.504,0.202-0.807,0.303l0,0c-3.628,3.83-8.365,6.551-8.365,6.551
	l1.108-6.249c-0.302-0.101-0.504-0.202-0.806-0.302c0,0,0,0-0.101,0c-0.202-0.101-0.403-0.202-0.706-0.303c0,0-0.101,0-0.101-0.101
	c-0.202-0.101-0.403-0.202-0.604-0.403l-0.101-0.101c-0.202-0.202-0.504-0.403-0.706-0.605l-0.604-0.202l-5.846,14.514
	c-5.443-4.334-6.148-13.607-6.249-15.522l0,0c-0.202,0.101-0.403,0.202-0.605,0.202h-0.101c-0.101,0-0.101,0.101-0.202,0.101
	s-0.202,0.101-0.302,0.101l0,0c-0.101,0-0.101,0-0.202,0.101l0,0c-0.202,0.101-0.403,0.101-0.605,0.202l0,0
	c-0.101,0-0.101,0-0.201,0.101l0,0c-0.303,0.101-0.504,0.101-0.807,0.202l0,0l0,0c-2.318,11.893,6.451,20.46,6.451,20.46
	l-13.909,14.413c0,0-0.201-10.885,2.318-36.486l0,0c0,0,0-0.101,0-0.403l0,0c0-0.101,0-0.202,0-0.302c0,0,0-0.101,0-0.202
	c0-0.101,0-0.202,0-0.403c0-0.101,0-0.201,0-0.302c0-0.101,0-0.202,0-0.403c0-0.101,0-0.202,0-0.303
	c0-0.201,0.101-0.403,0.101-0.706l0,0l0,0c0-0.101,0-0.201,0-0.302c0.706-6.35,1.814-12.195,3.024-17.336l0,0
	c0.101-0.302,0.101-0.604,0.202-0.907c0-0.101,0.101-0.202,0.101-0.302c0-0.101,0.101-0.202,0.101-0.303
	c0-0.101,0-0.101,0.101-0.202c0-0.202,0.101-0.403,0.101-0.604c0-0.101,0.101-0.202,0.101-0.403s0.101-0.403,0.101-0.504
	c0-0.101,0.101-0.202,0.101-0.302s0.101-0.202,0.101-0.302c0-0.101,0-0.101,0.101-0.202c0.101-0.303,0.201-0.605,0.201-0.907
	c0-0.101,0.101-0.302,0.101-0.403c0.101-0.504,0.302-0.907,0.403-1.411c0-0.101,0.101-0.302,0.101-0.403
	c0.101-0.504,0.302-0.907,0.403-1.411c0-0.101,0.101-0.202,0.101-0.302c0.101-0.202,0.101-0.504,0.202-0.706
	c0-0.101,0-0.101,0.101-0.202c0.101-0.403,0.303-0.907,0.403-1.31c0,0,0,0,0-0.101l0,0c0.101-0.302,0.202-0.706,0.302-1.008v-0.101
	c0.101-0.303,0.202-0.706,0.403-1.008c0.101-0.303,0.202-0.605,0.302-0.907c0.101-0.303,0.202-0.605,0.302-0.907
	c0.101-0.302,0.202-0.604,0.403-0.907c0.101-0.302,0.202-0.604,0.403-0.806c0.101-0.302,0.302-0.605,0.403-1.008
	c0.101-0.302,0.202-0.504,0.403-0.807c0.101-0.302,0.302-0.604,0.403-1.008c0.101-0.302,0.202-0.504,0.403-0.806
	c0.202-0.302,0.303-0.706,0.504-1.008c0.101-0.202,0.202-0.504,0.403-0.706c0.202-0.302,0.403-0.706,0.504-1.008
	c0.101-0.202,0.202-0.403,0.403-0.706c0.202-0.403,0.403-0.706,0.604-1.109c0.101-0.202,0.202-0.403,0.303-0.504
	c0.302-0.504,0.705-1.008,1.008-1.512c0.101,0,0.202-0.101,0.302-0.101c0.101-0.101,0.302-0.101,0.403-0.201l0,0
	c0.201-0.101,0.302-0.202,0.504-0.303c0,0,0.101,0,0.101-0.101c0.202-0.101,0.403-0.202,0.706-0.403l0.101-0.101
	c0.202-0.101,0.504-0.303,0.807-0.504l0.101-0.101c0.303-0.202,0.605-0.403,0.907-0.604c0,0,0.101,0,0.101-0.101
	c0.303-0.201,0.605-0.403,1.008-0.706c0,0,0.101,0,0.101-0.101c0.302-0.202,0.706-0.504,1.008-0.806
	c0.101,0,0.101-0.101,0.202-0.101c0.302-0.302,0.706-0.604,1.008-0.907c0.101-0.101,0.101-0.101,0.202-0.202
	c0.403-0.303,0.706-0.605,1.109-1.008c0.101-0.101,0.101-0.101,0.201-0.201c0.403-0.403,0.706-0.706,1.109-1.109l0.101-0.101
	c0.403-0.403,0.705-0.807,1.108-1.311c0,0,0,0,0.101-0.101c0.403-0.403,0.705-0.907,1.108-1.411c0-0.101,0.101-0.101,0.101-0.202
	c0.302-0.504,0.705-1.008,1.008-1.512c0.101-0.101,0.101-0.202,0.202-0.303c0.302-0.504,0.604-1.008,0.907-1.612
	c0.101-0.101,0.101-0.202,0.202-0.302c0.302-0.605,0.605-1.209,0.907-1.814c0-0.101,0.101-0.101,0.101-0.202
	c0.303-0.604,0.605-1.31,0.807-2.016l-3.226-2.117l0,0c0,0,0,0,0,0.101l0,0c-1.108,2.62-2.822,5.14-4.737,7.357l0,0
	c-0.202,0.302-0.504,0.604-0.807,0.907c-0.101,0.101-0.101,0.101-0.201,0.202c-0.202,0.302-0.504,0.604-0.807,0.907
	c-0.101,0.101-0.202,0.202-0.302,0.303c-0.403,0.403-0.806,0.806-1.209,1.209c-0.202,0.202-0.504,0.504-0.706,0.706
	c-0.202,0.201-0.403,0.302-0.504,0.504c-0.302,0.302-0.504,0.504-0.806,0.806c-0.202,0.202-0.403,0.302-0.504,0.504
	c-0.303,0.302-0.605,0.504-1.008,0.806c-0.202,0.101-0.302,0.303-0.504,0.403c-0.504,0.403-1.008,0.806-1.612,1.209l2.721-11.792
	l-9.978,10.482l-1.008,1.108c-0.504,7.358-3.83,15.421-6.45,20.964l0,0c-0.907,1.915-2.016,3.931-3.125,5.947l0,0
	c-0.302,0.504-0.403,0.705-0.403,0.705l0,0l0,0l-1.814-32.555c0,0-1.109,1.713-3.528,2.822l0,0
	c-0.806,0.403-1.814,0.705-2.923,0.806h-0.101c-0.201,0-0.403,0-0.504,0c-0.101,0-0.101,0-0.201,0c-0.202,0-0.303,0-0.504,0
	c-0.101,0-0.202,0-0.303,0c-0.202,0-0.302,0-0.504,0c-0.101,0-0.202,0-0.302,0c-0.202,0-0.302,0-0.504-0.101
	c-0.101,0-0.202,0-0.302-0.101c-0.202,0-0.303-0.101-0.504-0.101c-0.101,0-0.202-0.101-0.403-0.101s-0.302-0.101-0.504-0.101
	c-0.101,0-0.202-0.101-0.403-0.101c-0.202-0.101-0.302-0.101-0.504-0.202c-0.101,0-0.202-0.101-0.403-0.101
	c-0.201-0.101-0.403-0.101-0.604-0.202c-0.101-0.101-0.202-0.101-0.403-0.202c-0.202-0.101-0.403-0.202-0.604-0.302
	c-0.101-0.101-0.202-0.101-0.303-0.202c-0.302-0.202-0.705-0.302-1.008-0.504c0,0,0,0,0.101,0.101l0,0
	c0,0.101,0.101,0.101,0.101,0.201c0,0,0,0,0,0.101c0.101,0.101,0.101,0.302,0.202,0.403l0,0c0.302,0.605,0.604,1.411,0.907,2.419
	v0.101c0.101,0.302,0.201,0.604,0.302,1.008v0.101c0.101,0.403,0.202,0.806,0.202,1.209l0,0c0.403,2.117,0.403,4.637-0.303,7.458
	c0,0,0.101,0,0.303-0.101c0.101,0,0.302-0.101,0.403-0.101c0.202,0,0.403-0.101,0.605-0.101s0.504-0.101,0.806-0.101
	c0.303,0,0.605-0.101,0.907-0.101s0.605,0,1.008,0c0.504,0,1.109,0,1.613,0.101c0.504,0,1.108,0.101,1.713,0.201
	c0.202,0,0.403,0.101,0.504,0.101c0.504,0.101,1.109,0.302,1.613,0.604c0.706,0.303,1.31,0.807,1.814,1.311
	c0.302,0.302,0.504,0.604,0.706,0.907c0.302,0.504,0.605,1.109,0.806,1.814c0.504,1.814,0.605,3.528,0.303,4.938
	c-0.101,0.706-0.303,1.411-0.605,2.016c-0.101,0.302-0.302,0.604-0.403,0.907c-1.311,2.621-3.326,4.032-3.326,4.032l0,0
	c0,0,1.108,0,2.621,0.403c0.201,0.101,0.504,0.101,0.706,0.202c0.806,0.302,1.512,0.604,2.318,1.108
	c0.202,0.202,0.504,0.303,0.706,0.504c0.403,0.403,0.806,0.907,1.209,1.411c0.504,0.807,0.806,1.814,0.806,3.125
	c0,1.613-0.403,3.024-1.108,4.032c-2.016,3.225-6.249,4.132-6.249,4.132s1.411,1.31,2.52,3.628c0.303,0.604,0.504,1.209,0.706,1.915
	c0.605,2.117,0.605,4.737-0.504,7.761c-3.023,8.063-15.723,2.117-15.723,2.117s0,1.915-0.806,3.326
	c-0.302,0.504-0.605,0.907-1.109,1.21c-0.302,0.201-0.706,0.302-1.108,0.403c-0.403,0-0.907,0-1.512-0.202l0,0v26.407
	c0,0-0.101,0.604-0.604,1.008l0,0l-0.403,16.63c0,0-6.753-0.302-14.917-8.265c-2.116-2.116-3.83-4.334-5.342-6.652l0,0
	c-0.302-0.101-0.604-0.302-0.806-0.403h-0.101c-0.101-0.101-0.202-0.101-0.303-0.202c0,0-0.101,0-0.101-0.101
	c-0.101-0.101-0.202-0.101-0.302-0.101c0,0-0.101,0-0.101-0.101c-0.101,0-0.101-0.101-0.202-0.101c0,0-0.101,0-0.101-0.101
	c-0.101,0-0.101-0.101-0.101-0.101s0,0-0.101,0c-0.101,0-0.101-0.101-0.101-0.101s0.101,0.303,0.101,0.807
	c0,0.202,0,0.504,0.101,0.806c0,0.403,0,1.008,0,1.613c-0.101,1.209-0.403,2.822-1.008,4.737l0.403,1.109l-0.706-0.302l0,0
	c-0.101,0.302-0.202,0.604-0.403,0.907l0,0c-0.403,1.008-0.907,1.915-1.411,2.822l23.686,16.832c0,0,2.217,11.188,3.527,23.686
	c1.311,12.599,1.713,26.608-1.915,31.547c-7.257,9.877-28.422-4.737-28.422-4.737l-2.419,4.737c0,0,6.45,9.474,20.662,15.319
	c14.211,5.946,12.095,8.567,9.071,17.235c-2.923,8.668-13.708,14.313-13.708,14.313l5.14,5.039c0,0,24.089-22.375,37.796-6.854
	c13.707,15.521,27.918,17.437,27.918,17.437l0.806-4.838c-11.49-5.946-24.088-32.958-24.391-35.882
	c-0.303-2.922,2.721-3.527,2.721-3.527c16.126,1.916,29.229-11.691,29.229-11.691l-3.729-2.621
	c-26.003,12.196-29.229-17.537-29.229-17.537s-0.706-23.282-0.504-34.47C220.023,265.177,220.125,263.162,220.326,262.355z
	 M441.357,228.994c-14.11,3.931-10.583,20.561-10.583,20.561s-5.342-5.14-3.527-17.84c1.813-12.699,7.155-16.63,14.614-38.804
	c7.458-22.174-0.504-48.581-15.925-51.1c-15.421-2.52-16.228,13.203-6.753,26.306c9.475,13.001,3.629,27.515,3.629,27.515
	c0-6.047-7.56-18.243-18.445-17.739c-10.885,0.504-14.11,10.885-2.217,19.855c11.893,8.97,6.35,27.919,4.938,39.409
	c-0.201,1.915-0.201,3.729,0.101,5.543c1.411,8.87,8.265,15.723,8.265,15.723s0,0-5.14-2.721c-5.141-2.722-12.7-1.512-19.855-11.188
	c-7.156-9.676-21.771-18.545-20.461-2.318c1.311,16.227,28.322,15.521,39.309,20.763c3.124,1.512,5.24,3.427,6.651,5.342
	c0.907,1.209,1.411,2.52,1.814,3.628c-9.676,1.713-14.01,6.35-14.01,6.35s0,0-0.101-0.101c0.604,0.706,1.411,1.411,2.52,2.117
	c0.403,0.201,0.807,0.504,1.311,0.705c0.403,0.202,0.907,0.403,1.411,0.605s1.008,0.403,1.612,0.604
	c0.604,0.202,1.108,0.403,1.714,0.504c1.209,0.302,2.52,0.604,3.931,0.806c0.705,0.101,1.411,0.202,2.116,0.302
	c2.52,0.302,5.241,0.504,8.063,0.504c9.978,0,18.545-2.217,21.972-5.442c0-1.109-2.923-5.04-13.606-6.854
	c0-1.31,0.101-2.721,0.303-4.233c0.201-2.722,0.705-5.745,1.411-8.265c0.504-1.714,1.108-3.326,1.915-4.637
	c4.334-6.954,12.9-3.931,18.545-14.514C462.422,229.901,455.468,225.063,441.357,228.994z M377.054,344.7
	c0,0-9.475,6.35-14.413,15.622l0,0c3.629-16.025,13.305-25.096,13.305-25.096v-0.706c0-0.101,0-0.202,0-0.202
	c-7.66,4.838-12.397,13.607-15.119,20.562c1.109-7.458,3.629-16.63,9.172-23.182c0,0-14.514,12.599-16.327,29.229l0,0
	c-2.318-23.182,9.07-36.587,10.985-38.703c0-0.404,0-0.605,0-0.605s-0.302,0-0.604,0c-10.684,10.079-12.901,23.787-13.203,31.951
	c0.101,0.302,0.201,0.705,0.403,1.008c-2.117-6.148-6.148-14.111-12.901-18.646c0,0,9.676,19.352,8.869,33.361l0,0l0,0
	c0.604-0.705,1.108-1.613,1.714-2.218l0,0c0.101-0.101,0.201-0.201,0.403-0.302l0,0c0.101-0.102,0.201-0.202,0.402-0.202l0,0
	c0.102-0.101,0.303-0.101,0.403-0.101c0,0,0,0,0.101,0c0.102,0,0.303,0,0.403,0h0.101c0.202,0,0.303,0.101,0.505,0.101
	c1.813,0.807,1.612,3.124,2.52,4.938c0.302,0.504,0.604,1.008,1.108,1.412c0.403,0.201,0.807,0.504,1.311,0.604
	c0.302,0.102,0.604,0.102,0.907,0.202c0.705,0.101,1.209,0.101,1.713,0.101c0.202,0,0.504,0,0.706,0
	c0.402,0,0.705-0.101,1.008-0.201c0.302-0.102,0.504-0.102,0.604-0.201c0.303-0.102,0.504-0.202,0.604,0
	c0.101,0.1,0.101,0.402,0.202,0.906c0.101,0.303,0.101,0.705,0.201,1.21c0.202,1.31,0.706,2.62,1.21,3.628
	c0.302,0.605,0.705,1.21,1.008,1.613c0.504,0.604,0.907,1.008,1.31,1.008c0.403,0,0.706-0.303,0.807-1.008l0,0
	c0-0.202,0.101-0.303,0.101-0.504c0-0.102,0.101-0.202,0.101-0.202c0-0.101,0-0.101,0.102-0.202c0.101-0.1,0.101-0.201,0.201-0.302
	c0,0,0,0,0-0.101c0.101-0.102,0.202-0.201,0.202-0.303l0,0C366.773,371.712,366.874,356.594,377.054,344.7z M428.658,403.763
	c-1.109-24.794,8.97-36.687,10.381-38.3c0.101-0.102,0.201-0.201,0.201-0.201l-0.705-0.807l-0.101,0.101
	c-10.28,11.188-12.498,22.778-12.599,30.438l0,0c-2.016-6.249-5.544-13.305-11.793-16.631c0,0,8.164,12.397,8.87,27.718l0,0
	c0.201,0,0.302,0.101,0.504,0.201c0,0,0,0,0.101,0s0.101,0.102,0.201,0.102c0.102,0,0.102,0.101,0.202,0.101
	s0.101,0.101,0.201,0.101c0.101,0.101,0.202,0.201,0.403,0.303l0.101,0.101c0.101,0.101,0.202,0.201,0.303,0.302
	c0,0.102,0.101,0.102,0.101,0.202c0.101,0.201,0.303,0.403,0.403,0.604c1.411,2.117,2.116,3.931,3.023,4.938
	c0.202,0.202,0.403,0.403,0.604,0.504c0.102,0.102,0.202,0.102,0.303,0.102c0.403,0.101,0.807,0.101,1.411-0.102
	c0.101,0,0.201-0.101,0.403-0.101l0,0c0.302-0.101,0.604-0.201,0.907-0.302l0,0c0.302-0.102,0.504-0.102,0.806-0.102l0,0
	c0-0.201,0-0.504,0-0.806c0.706-10.482,3.226-30.741,12.801-34.067C445.691,378.465,432.79,381.791,428.658,403.763z
	 M399.025,384.008L399.025,384.008c2.923-16.832,10.886-23.887,13.305-25.802c0.504-0.302,0.705-0.504,0.705-0.504v-1.21
	c-0.302,0.202-0.705,0.303-1.008,0.504c-7.156,3.83-11.893,12.699-14.413,19.15c1.21-7.559,3.629-16.328,8.366-22.274
	c0,0-14.01,13.708-15.724,32.857c-1.612-31.95,10.28-42.231,10.28-42.231l-0.201-0.201l-0.604-0.604
	c-0.101,0.101-0.101,0.202-0.202,0.202c-10.078,12.195-11.591,25.197-11.591,32.151c-2.016-6.048-5.543-13.305-12.095-17.739
	c0,0,7.761,13.305,8.971,29.129l0,0c0.201,0,0.403,0.1,0.604,0.1l0,0c0.202,0.102,0.403,0.202,0.604,0.303l0,0
	c0.202,0.102,0.403,0.201,0.605,0.403l0.101,0.101c0.201,0.201,0.403,0.303,0.504,0.504c1.714,2.016,2.722,5.745,3.326,5.846
	c0.101,0,0.101-0.101,0.201-0.201c0.403-1.209,0-4.133,2.419-3.527c0.101,0,0.303,0.101,0.403,0.201
	c0.504,0.303,1.008,1.008,1.411,1.713c0.101,0.202,0.201,0.404,0.303,0.605c0.806,2.016,1.108,4.535,1.108,4.535
	s0.201-0.403,0.504-0.806c0-0.102,0.101-0.102,0.101-0.202c0.101-0.201,0.202-0.302,0.403-0.504l0.101-0.101
	c0.403-0.403,0.807-0.907,1.21-1.108c0.201-0.102,0.302-0.202,0.504-0.202c0.201-0.101,0.403-0.101,0.604-0.101
	s0.504,0.101,0.705,0.303c0.102,0.101,0.202,0.201,0.403,0.302l0.102,0.101c0.101,0.102,0.101,0.202,0.201,0.202
	c0,0.101,0.101,0.101,0.101,0.201c0.101,0.101,0.101,0.202,0.202,0.303c0,0.101,0.101,0.101,0.101,0.201s0.101,0.202,0.101,0.303
	s0,0.101,0.101,0.201c0,0.102,0.101,0.202,0.101,0.303s0,0.101,0.102,0.201c0,0.102,0.101,0.202,0.101,0.303v0.101
	c0,0.101,0.101,0.303,0.101,0.403v0.101c0,0.202,0.101,0.303,0.101,0.504l0,0c0-7.861,1.613-24.391,13.405-32.756
	C415.757,366.27,404.871,373.324,399.025,384.008z"></path>
<path id="color_x5F_8" fill="#B8C9C1" d="M390.056,205.711l-23.182,13.506l-23.888,13.909c0,0,0-0.101,0.102-0.101l0,0l0.806-0.504
	c0,0,3.528-3.931,1.008-6.451c-0.504-0.504-0.907-0.806-1.31-1.008c-0.403-0.202-0.706-0.302-1.008-0.403c-0.102,0-0.202,0-0.303,0
	s-0.201,0-0.201,0c-0.605,0.101-0.907,0.504-0.907,0.504s0.101-0.303,0-0.807c0-1.108-0.303-3.023-2.017-4.435l0,0
	c-0.101-0.101-0.302-0.202-0.402-0.303c-0.102,0-0.102,0-0.202-0.101c-0.101,0-0.201-0.101-0.302-0.101c-0.102,0-0.102,0-0.202,0
	s-0.201,0-0.302,0c-0.102,0-0.102,0-0.202,0s-0.201,0-0.201,0.101c-0.101,0-0.202,0-0.202,0.101c0,0-0.101,0-0.101,0.101
	c-0.403,0.202-0.705,0.403-1.108,0.706l0,0c-0.706,0.302-1.411,1.008-2.016,1.613l0,0c0-0.101,0.101-0.303,0.101-0.403l0,0
	c0-0.101,0-0.302,0-0.504l0,0c0-0.302,0-0.706-0.101-1.008c0-0.101,0-0.101,0-0.202c0-0.101-0.102-0.202-0.102-0.403
	c0-0.101-0.101-0.101-0.101-0.202c-0.101-0.101-0.101-0.202-0.201-0.302c0-0.101-0.101-0.101-0.101-0.202
	c-0.102-0.101-0.202-0.202-0.303-0.302s-0.101-0.101-0.201-0.202c-0.202-0.202-0.403-0.302-0.605-0.504
	c-0.201-0.101-0.403-0.202-0.604-0.302c-0.101,0-0.101,0-0.201-0.101c-0.102-0.101-0.202-0.101-0.403-0.101
	c-0.101,0-0.101,0-0.202,0c-0.101,0-0.201,0-0.302-0.101c-0.102,0-0.102,0-0.202,0s-0.201,0-0.302,0c-0.102,0-0.102,0-0.102,0
	c-0.101,0-0.201,0-0.302,0.101h-0.101c-0.102,0-0.202,0.101-0.303,0.101c0,0,0,0-0.101,0c-0.101,0.101-0.202,0.101-0.303,0.202l0,0
	c-0.101,0.101-0.201,0.202-0.302,0.202l0,0c-0.303,0.101-0.706,0.302-0.907,0.605l0,0c0-0.101,0-0.202,0-0.303
	c0-0.101,0-0.101,0-0.201c0-0.101,0-0.202,0-0.303c0-0.101,0-0.101,0-0.202c0-0.101,0-0.201,0-0.302c0-0.101,0-0.101,0-0.202
	c0-0.101,0-0.202,0-0.302l0,0c0.907,0.302,1.612,0.504,1.512,0.101c-0.303-0.907,1.209-3.527,4.938-2.721
	c3.729,0.907,5.342-0.907,5.141-0.907c-0.303,0,0-4.233,3.527-3.326s6.35,3.527,6.35,3.527s-0.504-1.411-2.722-4.132
	c-0.604-0.706-0.806-1.411-0.906-2.217c-0.102-2.117,1.512-4.132,3.427-4.233c2.721-0.101,9.07,2.923,9.07,2.923
	s-8.163-6.854-4.031-8.366c4.133-1.512,11.894,4.737,11.894,4.737s-2.117-4.032,0.604-5.342c2.722-1.311,5.946,3.023,5.946,3.023
	s-1.512-5.947,1.814-5.14c3.326,0.907,5.543,5.14,5.543,5.14s0.706-6.753,3.729-4.737c3.023,2.016,2.318,7.257,2.318,7.257
	s0.201-1.512,2.52-0.403C390.963,202.789,390.056,205.711,390.056,205.711z M412.027,268.906c-0.604,0.202-1.209,0.303-1.713,0.504
	c-0.605,0.202-1.109,0.403-1.613,0.605c-3.83,1.512-6.147,3.528-6.147,5.745l0,0c0,0.202,0,0.403,0.101,0.504l0,0v0.101l0,0
	c0,0.202,0.101,0.302,0.101,0.504l0,0c0,0,0,0,0,0.101l0,0c0.101,0.403,0.403,0.706,0.604,1.108l0,0l0,0
	c0.102,0,0.102,0.101,0.102,0.101s4.435-4.737,14.009-6.35c-0.402-1.209-1.008-2.419-1.813-3.628
	C414.446,268.402,413.237,268.604,412.027,268.906z M434.806,267.898c-0.101,1.512-0.201,2.923-0.302,4.233
	c10.684,1.814,13.606,5.745,13.606,6.854l0,0l0,0c0.302-0.202,0.504-0.504,0.705-0.706l0,0c0.202-0.202,0.403-0.504,0.504-0.706l0,0
	c0.102-0.202,0.202-0.504,0.303-0.706l0,0c0.101-0.302,0.101-0.504,0.101-0.806C449.823,272.232,443.574,269.108,434.806,267.898z
	 M135.26,392.877c-0.605-0.201-1.311-0.302-1.915-0.402c-0.706-0.102-1.311-0.201-2.016-0.403c-0.202,0-0.403-0.101-0.504-0.101
	c-0.101,1.512-0.202,2.923-0.302,4.232c10.583,1.915,13.606,5.847,13.606,6.955c0.303-0.202,0.504-0.504,0.706-0.706l0,0
	c0.202-0.201,0.403-0.504,0.504-0.705l0,0c0.101-0.202,0.202-0.504,0.302-0.706l0,0c0.101-0.302,0.101-0.504,0.101-0.806
	C145.742,397.01,141.609,394.49,135.26,392.877z M108.954,392.877c-6.249,1.513-10.381,4.133-10.381,7.056
	c0,0.202,0,0.403,0.101,0.504v0.101c0,0.202,0.101,0.303,0.101,0.504c0,0,0,0,0,0.102c0.101,0.403,0.403,0.705,0.604,1.108
	c0.101,0,0.101,0.101,0.101,0.101s4.435-4.737,14.009-6.35c-0.403-1.209-1.008-2.419-1.814-3.629
	C110.768,392.475,109.76,392.676,108.954,392.877z"></path>
<path id="color_x5F_7" fill="#CFE7DF" d="M346.011,310.533c1.612,2.217,1.612,6.047,1.612,6.047s0,0,0.604,1.008
	c0.605,1.008,0.706,4.838,0.706,4.838s5.241-3.226,5.241-3.729s-1.21-1.915,0.302-2.62s5.947,1.512,5.544,2.52
	c-0.504,1.008-3.629,1.411-3.629,1.411l-7.861,7.659c0,0-2.822,4.234-8.365,3.932c-5.544-0.303-7.66-2.621-8.063-3.326
	s-0.706-12.195,0-14.614c0.705-2.419,1.713-2.419,1.713-2.419l0.202-0.102l0,0c0.101,0,0.201,0,0.303,0
	c0.201-0.1,0.504-0.1,0.705-0.201h0.101c0.202-0.101,0.504-0.101,0.706-0.201l0,0c-2.016,1.512-1.814,7.458-1.814,7.458v0.101
	c0,0.202-0.101,1.411,1.714,2.117c0.906,0.402,2.217,0.604,3.427,0.604c1.512,0.101,3.124-0.101,4.132-0.706
	c1.714-1.108,1.311-3.426,1.311-3.426s0.403-3.024-0.101-4.637c-0.504-1.613-3.024-2.722-3.024-2.722l0,0l0,0
	c0.303-0.302,0.605-0.604,0.807-0.907l0,0c0.101-0.101,0.101-0.201,0.201-0.303l0,0l0.102-0.201
	C342.482,308.215,344.397,308.314,346.011,310.533z M282.21,273.644c0,0,0.504-3.125-2.016-5.241
	c-2.52-2.116-5.846,3.427-5.846,3.427s2.117-3.527-1.008-5.644s-4.737,1.613-4.737,1.613s1.613-6.451-2.721-7.56
	c-4.334-1.209-8.164,2.117-8.063,5.543c0,0-5.14-6.752-10.482-3.427c-5.241,3.326-5.946,11.289-3.83,15.824
	c0,0-6.954-5.645-11.188-0.907c-4.233,4.737,1.109,11.591,1.109,11.591s-3.628-1.209-5.443,1.915
	c-1.814,3.023-0.403,10.08,4.737,11.49c0,0-5.645,2.923-0.403,9.071l52.511-30.237c0,0,3.528-3.931,1.008-6.451
	C283.319,272.031,282.21,273.644,282.21,273.644z M137.981,410.415L137.981,410.415c-0.403,0.101-0.706,0.303-1.008,0.403
	c-0.101,0-0.202,0.101-0.303,0.101c-0.302,0.101-0.504,0.201-0.806,0.303c-0.101,0-0.202,0.101-0.302,0.101
	c-0.403,0.101-0.807,0.201-1.209,0.302h-0.101c-0.403,0.102-0.806,0.202-1.108,0.303c-0.101,0-0.303,0.101-0.403,0.101
	c-0.302,0.101-0.604,0.101-0.907,0.202c-0.202,0-0.302,0.101-0.504,0.101c-0.302,0.101-0.706,0.101-1.008,0.201
	c-0.101,0-0.302,0-0.403,0.102c-0.504,0.101-1.008,0.201-1.512,0.201c-0.101,0-0.302,0-0.403,0.101c-0.403,0-0.807,0.101-1.21,0.101
	c-0.201,0-0.403,0-0.604,0.102c-0.403,0-0.806,0.101-1.209,0.101c-0.202,0-0.302,0-0.504,0c-0.605,0-1.109,0.101-1.713,0.101
	c-0.907,0-1.814,0-2.621,0c-0.202,0-0.403,0-0.605,0c-0.806,0-1.612-0.101-2.419-0.101c-0.101,0-0.201,0-0.302,0
	c-0.706-0.101-1.411-0.101-2.117-0.202c-0.101,0-0.302,0-0.403-0.101c-0.706-0.101-1.411-0.201-2.117-0.403
	c-0.101,0-0.302-0.101-0.403-0.101c-0.604-0.101-1.209-0.302-1.814-0.403c-0.101,0-0.202,0-0.202-0.101
	c-0.604-0.201-1.209-0.303-1.713-0.504c-0.101,0-0.302-0.101-0.403-0.101c-0.504-0.202-1.008-0.403-1.512-0.504
	c-0.101,0-0.202-0.101-0.202-0.101c-0.403-0.202-0.806-0.303-1.209-0.505c-0.101-0.101-0.302-0.101-0.403-0.201
	c-0.403-0.201-0.706-0.303-1.109-0.504c-0.202-0.101-0.302-0.201-0.504-0.201c-0.202-0.102-0.403-0.202-0.605-0.303
	c-0.201-0.101-0.302-0.201-0.504-0.303l0,0l0,0l1.311,5.443l4.233,17.234l1.411,5.645c0,0,5.846,3.023,14.01,3.226
	c4.536,0.101,9.676-0.605,15.018-3.226l0.504-2.722l4.939-26.205l0,0l0,0C141.811,408.701,140.198,409.508,137.981,410.415z
	 M343.088,233.025l0.806-0.504c0,0,3.528-3.931,1.008-6.451c-0.504-0.504-0.907-0.806-1.31-1.008
	c-0.403-0.202-0.706-0.302-1.008-0.403c-0.102,0-0.202,0-0.303,0s-0.201,0-0.201,0c-0.605,0.101-0.907,0.504-0.907,0.504
	s0.101-0.303,0-0.807c0-1.108-0.303-3.023-2.017-4.435l0,0c-0.101-0.101-0.302-0.202-0.402-0.303c-0.102,0-0.102,0-0.202-0.101
	c-0.101,0-0.201-0.101-0.302-0.101c-0.102,0-0.102,0-0.202,0s-0.201,0-0.302,0c-0.102,0-0.102,0-0.202,0s-0.201,0-0.201,0.101
	c-0.101,0-0.202,0-0.202,0.101c0,0-0.101,0-0.101,0.101c-0.403,0.202-0.705,0.403-1.108,0.706l0,0
	c-1.411,1.108-2.52,3.023-2.52,3.023s0.302-0.604,0.604-1.411l0,0c0-0.101,0.101-0.303,0.101-0.403l0,0c0-0.101,0-0.302,0-0.504l0,0
	c0-0.302,0-0.706-0.101-1.008c0-0.101,0-0.101,0-0.202c0-0.101-0.101-0.202-0.101-0.403c0-0.101-0.102-0.101-0.102-0.202
	c-0.101-0.101-0.101-0.202-0.201-0.302c0-0.101-0.101-0.101-0.101-0.202c-0.101-0.101-0.202-0.202-0.303-0.302
	s-0.101-0.101-0.201-0.202c-0.202-0.202-0.403-0.302-0.605-0.504c-0.201-0.101-0.402-0.202-0.604-0.302
	c-0.101,0-0.101,0-0.201-0.101c-0.101-0.101-0.202-0.101-0.403-0.101c-0.101,0-0.101,0-0.201,0c-0.102,0-0.202,0-0.303-0.101
	c-0.101,0-0.101,0-0.202,0c-0.101,0-0.201,0-0.302,0s-0.101,0-0.101,0c-0.102,0-0.202,0-0.303,0.101h-0.101
	c-0.101,0-0.202,0.101-0.303,0.101c0,0,0,0-0.101,0c-0.101,0.101-0.201,0.101-0.303,0.202l0,0c-0.101,0.101-0.201,0.202-0.302,0.202
	l0,0c-0.706,0.706-1.109,1.512-1.109,1.512s0.102-0.403,0.202-0.907c0-0.101,0-0.202,0-0.303c0-0.101,0-0.101,0-0.201
	c0-0.101,0-0.202,0-0.303c0-0.101,0-0.101,0-0.202c0-0.101,0-0.201,0-0.302c0-0.101,0-0.101,0-0.202c0-0.101,0-0.202,0-0.302
	c0-1.915-0.604-4.132-3.023-4.838c-4.334-1.209-8.164,2.117-8.063,5.543c0,0-1.311-1.713-3.326-3.024
	c-1.915-1.209-4.535-2.016-7.156-0.403c-2.52,1.613-4.031,4.233-4.636,7.156c-0.706,3.125-0.303,6.35,0.705,8.769
	c0,0-6.954-5.645-11.188-0.907c-4.233,4.737,1.109,11.591,1.109,11.591s-3.628-1.209-5.443,1.915
	c-1.814,3.023-0.403,10.079,4.737,11.49c0,0-5.645,2.923-0.403,9.071L343.088,233.025L343.088,233.025z M447.103,283.723
	c-0.807,0.504-1.814,1.008-3.023,1.612l0,0c-0.605,0.303-1.311,0.504-2.017,0.807h-0.101c-0.302,0.101-0.604,0.202-0.907,0.302
	c-0.101,0-0.201,0.101-0.302,0.101c-0.303,0.101-0.504,0.202-0.807,0.303c-0.101,0-0.201,0.101-0.303,0.101
	c-0.402,0.101-0.806,0.202-1.209,0.302h-0.101c-0.403,0.101-0.807,0.202-1.109,0.302c-0.101,0-0.302,0.101-0.402,0.101
	c-0.303,0.101-0.605,0.101-0.907,0.202c-0.202,0-0.303,0.101-0.504,0.101c-0.303,0.101-0.706,0.101-1.008,0.202
	c-0.102,0-0.303,0-0.403,0.101c-0.504,0.101-1.008,0.202-1.512,0.202c-0.102,0-0.303,0-0.403,0.101c-0.403,0-0.807,0.101-1.21,0.101
	c-0.201,0-0.403,0-0.604,0.101c-0.403,0-0.807,0.101-1.21,0.101c-0.201,0-0.302,0-0.504,0c-0.604,0-1.108,0.101-1.713,0.101
	c-0.907,0-1.814,0-2.621,0c-0.201,0-0.402,0-0.604,0c-0.806,0-1.612-0.101-2.419-0.101c-0.101,0-0.201,0-0.302,0
	c-0.706-0.101-1.411-0.101-2.117-0.202c-0.101,0-0.302,0-0.403-0.101c-0.705-0.101-1.411-0.202-2.116-0.403
	c-0.101,0-0.303-0.101-0.403-0.101c-0.604-0.101-1.209-0.303-1.713-0.403c-0.102,0-0.202,0-0.202-0.101
	c-0.604-0.202-1.209-0.303-1.713-0.504c-0.102,0-0.303-0.101-0.403-0.101c-0.504-0.202-1.008-0.403-1.512-0.504
	c-0.102,0-0.202-0.101-0.202-0.101c-0.403-0.202-0.806-0.303-1.209-0.504c-0.101-0.101-0.303-0.101-0.403-0.201
	c-0.403-0.202-0.706-0.303-1.108-0.504c-0.202-0.101-0.303-0.202-0.504-0.202c-0.202-0.101-0.403-0.202-0.605-0.303
	c-0.201-0.101-0.302-0.201-0.504-0.302l0,0l0,0l6.955,28.423c0,0,14.11,7.257,28.926,0L447.103,283.723L447.103,283.723
	L447.103,283.723z M442.97,423.316c-0.201-0.102-0.504-0.303-0.806-0.403c-5.04-1.714-6.552-1.411-6.552-5.141
	c0-2.822-1.008-4.535-2.722-4.535c-0.201,0-0.504,0-0.806,0.101l0,0c-0.303,0.101-0.605,0.101-0.907,0.303l0,0
	c-0.101,0.101-0.202,0.101-0.403,0.101c-0.504,0.201-1.008,0.201-1.411,0.101c-0.101,0-0.201-0.101-0.303-0.101
	c-0.201-0.101-0.402-0.303-0.604-0.504c-0.907-0.907-1.612-2.722-3.023-4.938c-0.101-0.202-0.303-0.403-0.403-0.605
	c0-0.101-0.101-0.101-0.101-0.201c-0.101-0.101-0.201-0.202-0.303-0.303l-0.101-0.101c-0.101-0.101-0.201-0.201-0.403-0.303
	c-0.101-0.101-0.101-0.101-0.201-0.101s-0.101-0.101-0.202-0.101c-0.101,0-0.201-0.101-0.201-0.101s0,0-0.101,0
	c-0.202-0.101-0.403-0.101-0.504-0.202c-1.411-0.201-2.318,1.21-2.419,2.822c-0.101,2.621-3.226,0.101-4.637-4.031
	c-1.411-4.133-3.527-2.419-3.427,0.403c0.202,2.721-4.334,2.52-5.141-1.21c-0.806-3.628-3.023-4.435-4.838-3.226
	c0,0,0-0.906-0.101-1.914l0,0c0-0.202,0-0.303-0.101-0.505v-0.101c0-0.101-0.101-0.302-0.101-0.403v-0.101
	c0-0.101-0.101-0.201-0.101-0.302c0-0.102,0-0.102-0.102-0.202c0-0.101-0.101-0.201-0.101-0.302c0-0.102,0-0.102-0.101-0.202
	c0-0.101-0.101-0.201-0.101-0.303c0-0.101-0.102-0.101-0.102-0.201s-0.101-0.201-0.201-0.303c0-0.101-0.101-0.101-0.101-0.201
	c-0.101-0.101-0.101-0.201-0.202-0.201l-0.101-0.102c-0.101-0.101-0.201-0.201-0.403-0.302c-0.201-0.202-0.504-0.202-0.705-0.303
	c-0.201,0-0.403,0-0.604,0.101c-0.202,0.102-0.303,0.102-0.504,0.202c-0.504,0.302-0.907,0.705-1.21,1.108l-0.101,0.101
	c-0.101,0.202-0.303,0.303-0.403,0.504c0,0.102-0.101,0.102-0.101,0.202c-0.303,0.504-0.504,0.806-0.504,0.806
	s-0.303-2.52-1.108-4.535c-0.102-0.202-0.202-0.403-0.303-0.604c-0.403-0.807-0.807-1.411-1.411-1.714
	c-0.101-0.101-0.303-0.101-0.403-0.201c-2.419-0.604-2.016,2.218-2.419,3.527c-0.101,0.202-0.101,0.202-0.201,0.202
	c-0.504-0.102-1.613-3.83-3.326-5.846c-0.202-0.202-0.403-0.404-0.504-0.504l-0.101-0.102c-0.202-0.201-0.403-0.303-0.605-0.402l0,0
	c-0.201-0.102-0.402-0.202-0.604-0.303l0,0c-0.201-0.102-0.403-0.102-0.604-0.102c-1.21-0.1-2.117,0.807-1.714,2.521
	c0,0-3.527-6.048-5.745-7.156c-2.217-1.108-1.209,3.628-1.209,3.628s-2.722,0.202-3.83-4.938c-0.907-4.031-3.629-4.333-4.938-2.821
	l0,0c-0.101,0.1-0.202,0.201-0.202,0.302c0,0,0,0,0,0.101c-0.101,0.102-0.101,0.201-0.201,0.303c0,0.101-0.101,0.101-0.101,0.201
	c0,0.102-0.102,0.201-0.102,0.201c-0.101,0.202-0.101,0.303-0.101,0.505l0,0c-0.101,0.806-0.403,1.108-0.806,1.008
	c-0.403,0-0.807-0.403-1.311-1.008c-0.303-0.403-0.706-1.009-1.008-1.612c-0.504-1.109-1.008-2.42-1.21-3.629
	c-0.101-0.504-0.201-0.907-0.201-1.209c-0.101-0.504-0.101-0.706-0.202-0.908c-0.101-0.201-0.302-0.1-0.604,0
	c-0.201,0.102-0.403,0.102-0.604,0.202c-0.303,0.101-0.604,0.101-1.008,0.202c-0.202,0-0.403,0-0.706,0
	c-0.504,0-1.008,0-1.713-0.102c-0.303,0-0.604-0.101-0.907-0.201c-0.504-0.102-1.008-0.303-1.311-0.605
	c-0.504-0.402-0.907-0.906-1.108-1.41c-0.907-1.714-0.604-4.032-2.52-4.939c-0.202-0.101-0.303-0.101-0.504-0.101h-0.102
	c-0.101,0-0.302,0-0.402,0c0,0,0,0-0.102,0c-0.101,0-0.302,0.101-0.402,0.101l0,0c-0.102,0.102-0.303,0.102-0.403,0.202l0,0
	c-0.101,0.101-0.202,0.201-0.403,0.302l0,0c-0.604,0.605-1.108,1.412-1.714,2.218l0,0l0,0c-0.806,1.008-1.813,1.714-3.225,1.31
	c-3.629-1.107-2.822-5.744-6.652-6.551c-3.729-0.807-2.722-0.101-4.637,1.008c-1.915,1.109-3.023-1.814-5.342-2.016
	c-2.317-0.201-3.124,1.008-3.124,1.008l96.053,56.14l14.211,8.265l7.56,4.436C442.164,432.589,446.599,425.634,442.97,423.316z"></path>
<path id="color_x5F_6" fill="#02EDB0" d="M373.324,320.611c-1.209,3.125-4.334,0.403-4.334,0.403s0.706,3.628-1.915,4.132
	c-2.016,0.404-2.318-1.914-2.318-3.023c0-0.402,0-0.604,0-0.604s-0.302,0-0.604,0c-0.806-0.101-2.217-0.504-2.318-1.714
	c-0.201-1.914,1.411-2.52,1.411-2.52s-0.504-3.225,1.512-3.729c2.017-0.504,2.318,1.31,2.318,1.31s1.613-2.722,3.226-1.915
	c1.612,0.907,0.604,4.031,0.604,4.031S374.534,317.387,373.324,320.611z M407.693,341.676c0,0,1.714-2.821,0.403-4.132
	c-1.311-1.21-3.527,1.008-3.527,1.008s0.201-1.915-1.915-1.915c-2.117,0-2.419,3.226-2.419,3.226s-1.714,0.202-2.016,2.016
	c-0.202,1.008,0.604,1.714,1.31,2.116c0.102-0.1,0.102-0.201,0.202-0.201l0.604,0.605c0.201,0.1,0.303,0.1,0.303,0.1
	s-1.311,3.83,1.411,4.032c2.721,0.202,2.923-3.528,2.923-3.528s2.317,3.528,4.232,0.706
	C411.12,342.986,407.693,341.676,407.693,341.676z M419.486,352.26c0,0,1.713-2.822,0.402-4.133
	c-1.31-1.209-3.527,1.008-3.527,1.008s0.202-1.915-1.915-1.915c-2.116,0-2.419,3.226-2.419,3.226s-1.713,0.201-2.016,2.016
	s2.419,2.52,2.419,2.52s-0.303,1.008-0.303,1.915c0.303-0.201,0.605-0.403,1.009-0.504v1.21c0,0-0.303,0.201-0.706,0.504
	c0.202,0.504,0.706,0.807,1.411,0.906c2.722,0.202,2.923-3.527,2.923-3.527s2.318,3.527,4.233,0.706
	C422.913,353.57,419.486,352.26,419.486,352.26z M445.691,358.912c0,0,1.713-2.822,0.403-4.133
	c-1.311-1.209-3.528,1.008-3.528,1.008s0.202-1.915-1.915-1.915c-2.116,0-2.419,3.226-2.419,3.226s-1.713,0.201-2.016,2.016
	c-0.302,1.814,2.419,2.52,2.419,2.52s-0.604,1.814-0.201,3.023l0.101-0.101l0.706,0.806c0,0-0.102,0.102-0.202,0.202
	c0.202,0.101,0.504,0.202,0.907,0.303c2.722,0.201,2.923-3.528,2.923-3.528s2.318,3.528,4.233,0.706
	C449.118,360.222,445.691,358.912,445.691,358.912z M382.093,329.381c0,0,0.907-3.125-0.604-4.032
	c-1.612-0.907-3.226,1.915-3.226,1.915s-0.302-1.814-2.317-1.311c-2.017,0.504-1.513,3.729-1.513,3.729s-1.612,0.604-1.41,2.52
	c0.201,1.915,2.923,1.814,2.923,1.814s0,0.202,0,0.403c0,0.101,0,0.101,0,0.201c0,1.109,0.402,3.326,2.317,2.923
	c2.621-0.504,1.915-4.132,1.915-4.132s3.125,2.822,4.334-0.403C385.722,329.783,382.093,329.381,382.093,329.381z M222.846,141.206
	c0.604,0.202,1.31,0.101,2.016-0.101l9.978-10.482c0,0,1.411,2.318,5.342-0.705c3.931-3.024,5.342-6.451,5.342-6.451
	s0.907,2.016,3.931,2.822c3.023,0.907,3.023,0.907,3.023,0.907s-3.527,3.729-3.427,5.745c0.202,2.016,12.296,2.822,14.313-1.411
	c2.016-4.334,2.016-5.14,2.016-5.14s2.721,0.202,5.342-1.814c2.721-2.016,4.536-7.861,4.536-7.861l3.527-6.551
	c0-0.303,0.101-0.706,0-1.109v-0.101c0-0.302,0-0.706-0.101-1.109c0-0.101,0-0.302-0.101-0.403c0-0.302-0.101-0.504-0.101-0.806
	c-0.101-0.403-0.202-0.907-0.403-1.31c-2.419-7.458-10.18-2.923-10.18-2.923s1.613-15.824-5.644-18.747s-17.94,4.334-17.94,4.334
	s1.915-9.676-7.257-11.49c-9.071-1.915-10.482,5.645-10.482,5.645s-0.806-8.063-6.45-11.49c-5.645-3.527-14.715,3.226-14.715,3.226
	s-1.109-5.645-8.063-7.458c-6.954-1.915-13.405,9.374-13.405,9.374s-9.071-5.342-21.972,0s-10.684,27.918-10.684,27.918
	s-5.947-3.225-13.708,2.117s0,24.391,0,24.391s-5.14-7.257-14.514-3.729c-0.907,0.302-1.613,0.706-2.318,1.209
	c-0.504,0.303-0.907,0.605-1.209,1.008c-0.403,0.303-0.705,0.706-1.008,1.109c-0.604,0.806-1.108,1.613-1.411,2.419
	c-0.201,0.403-0.302,0.806-0.504,1.31c-0.101,0.403-0.201,0.907-0.302,1.311c-0.706,3.628,0,6.955,0,6.955s-0.302-0.303-1.008-0.504
	c-0.202-0.101-0.302-0.101-0.504-0.202c-0.101-0.101-0.302-0.101-0.403-0.101c-0.101,0-0.101,0-0.202-0.101
	c-0.201-0.101-0.403-0.101-0.604-0.202c-0.101,0-0.101,0-0.202,0c-0.403-0.101-0.806-0.101-1.209-0.202c-0.302,0-0.706,0-1.109,0
	c-0.706,0-1.512,0.101-2.419,0.302c-0.201,0-0.403,0.101-0.604,0.202c-0.403,0.101-0.706,0.202-1.109,0.403
	c-0.403,0.202-0.907,0.403-1.31,0.605c-0.202,0.101-0.504,0.201-0.706,0.403c-1.109,0.605-2.318,1.411-3.628,2.52
	c-0.806,0.705-1.512,1.411-2.217,2.016c-0.202,0.202-0.403,0.403-0.605,0.604c-0.907,1.008-1.512,2.016-2.016,2.923
	c-0.403,0.907-0.706,1.714-0.806,2.419c0,0.101,0,0.303,0,0.403c0,0.302,0,0.504,0,0.706c0,0.403,0.101,0.706,0.201,1.008
	c0.101,0.202,0.101,0.403,0.202,0.504c0.101,0.202,0.101,0.302,0.202,0.403c0.302,0.504,0.605,0.806,0.605,0.806l0,0
	c0,0-3.729,0-10.18,9.273c-6.451,9.272,5.342,18.545,5.342,18.545s-8.265-2.52-8.567,9.273c0,1.512,0.202,2.621,0.605,3.628
	c1.108,2.621,3.729,3.326,6.45,3.326c4.233,0,8.769-1.915,8.769-1.915l0,0c-0.101,0.403-0.101,0.706-0.101,1.008
	c0,0.101,0,0.202,0,0.302c0,0.202,0,0.403,0,0.604c0,0.101,0,0.202,0,0.303c0,0.202,0,0.302,0,0.504c0,0.101,0,0.202,0,0.302
	c0,0.202,0,0.302,0,0.403c0,0.101,0,0.202,0.101,0.302c0,0.101,0.101,0.302,0.101,0.403c0,0.101,0.101,0.201,0.101,0.302
	c0,0.101,0.101,0.202,0.101,0.302c0,0.101,0.101,0.101,0.101,0.202c0,0.101,0.101,0.202,0.202,0.302
	c0,0.101,0.101,0.101,0.101,0.202c0.101,0.101,0.101,0.202,0.201,0.302c0,0.101,0.101,0.101,0.101,0.202
	c0.101,0.101,0.202,0.202,0.202,0.202l0.101,0.101c0.101,0.101,0.202,0.101,0.302,0.202l0.101,0.101
	c0.101,0.101,0.201,0.101,0.302,0.202c0,0,0.101,0,0.101,0.101c0.101,0.101,0.303,0.101,0.403,0.101c0,0,0,0,0.101,0
	c0.504,0.101,1.008,0.202,1.613,0.202c0,0,0,0,0.101,0c0.201,0,0.302,0,0.504,0h0.101c0.101,0,0.302,0,0.403,0h0.101
	c0.101,0,0.302,0,0.403-0.101h0.101c0.101,0,0.302,0,0.403-0.101h0.101c0.101,0,0.303-0.101,0.403-0.101h0.101
	c0.101,0,0.303-0.101,0.403-0.101h0.101c0.101,0,0.303-0.101,0.403-0.101h0.101c0.101,0,0.302-0.101,0.403-0.101h0.101
	c0.101,0,0.302-0.101,0.403-0.101h0.101c0.101,0,0.302-0.101,0.403-0.101l0,0c0.303-0.101,0.504-0.202,0.706-0.302c0,0,0,0,0.101,0
	c0.101,0,0.202-0.101,0.202-0.101h0.101c0,0,0.101,0,0.101-0.101c0,0,0.101,0,0.101-0.101l0,0l0,0l0,0
	c0.101,0,0.101-0.101,0.202-0.101c-0.605,0.403-1.109,0.706-1.613,1.008s-0.806,0.706-1.209,1.008
	c-1.008,1.008-1.512,1.915-1.613,2.721c-0.202,1.411,0.504,2.52,1.311,3.427l0,0c0.202,0.201,0.302,0.302,0.504,0.504
	c0.907,0.706,1.713,1.108,1.713,1.108s-0.202,0-0.504,0c-0.101,0-0.202,0-0.303,0c-0.201,0-0.403,0-0.705,0.101
	c-0.101,0-0.303,0-0.403,0.101c-0.403,0.101-0.907,0.302-1.411,0.504c-0.403,0.202-0.706,0.403-1.108,0.605
	c-0.605,0.403-1.21,0.806-1.915,1.411c-0.303,0.302-0.605,0.604-0.706,1.008c-0.101,0.202-0.202,0.504-0.202,0.706
	c0,0.302-0.101,0.504,0,0.806c0,0.302,0.101,0.504,0.101,0.806c0.101,0.403,0.202,0.807,0.403,1.209
	c0.101,0.303,0.202,0.504,0.403,0.807c0.403,0.806,1.008,1.612,1.512,2.318c0.202,0.202,0.302,0.403,0.504,0.605
	c0.806,1.008,1.512,1.713,1.512,1.713s-1.209,1.008-1.209,3.326c0,0.806,0.101,1.713,0.403,2.822
	c0.403,1.512,1.209,3.226,2.621,5.342c0.202,0.303,0.302,0.504,0.504,0.706s0.403,0.403,0.604,0.605
	c0.403,0.403,0.807,0.706,1.209,1.008c0.807,0.604,1.613,0.907,2.52,1.109c0.403,0.101,0.907,0.101,1.31,0.101s0.907,0,1.311-0.101
	c0.201,0,0.403-0.101,0.604-0.101c0.403-0.101,0.806-0.202,1.31-0.302c3.528-1.109,6.451-3.628,6.451-3.628l0,0
	c-0.202,1.814,0.202,3.023,0.806,3.83c0.303,0.403,0.807,0.706,1.21,1.008c0.201,0.101,0.504,0.202,0.705,0.302
	c1.209,0.403,2.218,0.403,2.218,0.403s6.148,0.806,9.877-3.225c3.729-4.032-0.403-9.374-0.403-9.374s2.52,2.52,6.854,2.52
	s10.684-3.528,12.901-7.357c2.218-3.83-0.806-8.567-0.806-8.567s5.241,4.536,8.87,1.311c3.628-3.226,0.403-8.567,0.403-8.567
	s8.265-3.125,5.946-7.66c-2.419-4.536-5.644-3.125-5.644-3.125s-0.504-9.877-5.645-11.792c-5.14-1.915-7.66,3.628-7.66,3.628
	s-3.528-9.777-8.265-9.273c-4.737,0.504-5.241,7.458-5.241,7.458s-4.737-6.047-10.281-3.729c0,0-8.164-0.302-6.148-6.148
	c2.016-5.946,4.334-5.745,4.334-5.745s-5.947-1.814-4.636-7.458c1.411-5.745,10.784-5.745,10.784-5.745s-5.442-4.636,0-8.769
	c5.443-4.132,10.583-2.016,10.583-2.016s-1.613-4.637,1.411-7.458c3.023-2.822,7.458-2.52,7.458-2.52
	c0.302,0.504,0.706,1.109,1.108,1.713c3.427,4.838,12.901,6.249,16.63,4.435c3.729-1.814,7.358-6.753,7.358-6.753
	s2.016,8.063,9.978,8.769c5.442,0.504,8.466-1.613,9.776-2.923l0,0c-0.101-0.403-0.202-0.807-0.202-1.209v-0.101
	c-0.101-0.302-0.201-0.705-0.302-1.008v-0.101c-0.302-1.008-0.604-1.814-0.907-2.419l0,0c-0.101-0.202-0.201-0.302-0.201-0.403
	c0,0,0,0,0-0.101c-0.101-0.101-0.101-0.202-0.101-0.202l0,0c0-0.101-0.101-0.101-0.101-0.101c0.302,0.202,0.706,0.403,1.008,0.504
	c0.101,0.101,0.202,0.101,0.302,0.202c0.202,0.101,0.403,0.201,0.605,0.302c0.101,0.101,0.201,0.101,0.403,0.202
	c0.202,0.101,0.403,0.201,0.605,0.201c0.101,0,0.302,0.101,0.403,0.101c0.202,0.101,0.403,0.101,0.504,0.202
	c0.101,0,0.201,0.101,0.403,0.101s0.302,0.101,0.504,0.101c0.101,0,0.202,0.101,0.403,0.101s0.302,0.101,0.504,0.101
	c0.101,0,0.202,0,0.302,0.101c0.202,0,0.303,0,0.504,0.101c0.101,0,0.202,0,0.303,0c0.201,0,0.302,0,0.504,0
	c0.101,0,0.202,0,0.302,0c0.202,0,0.302,0,0.504,0c0.101,0,0.101,0,0.202,0c0.202,0,0.403,0,0.504,0h0.101
	c1.109-0.101,2.117-0.403,2.923-0.806l0,0c0.202-0.101,0.303-0.202,0.504-0.202l3.023-2.621c0,0,2.117-0.907,3.931-4.636
	C215.791,132.639,217.604,139.997,222.846,141.206z M279.389,162.977c0,0-0.504-7.458-6.854-10.28
	c-6.35-2.822-10.583,5.14-10.583,5.14s-1.915-8.265-11.087-10.381c-9.273-2.117-12.196,15.925-12.196,15.925
	s-2.116-5.947-6.954-5.745c-2.722,0.101-5.241,2.721-6.753,5.04l0,0c0,0,0,0,0,0.101c-0.101,0.403-0.303,0.907-0.403,1.311
	c0,0.101,0,0.101-0.101,0.202c-0.605,1.814-1.109,3.729-1.613,5.543c0,0.101,0,0.101-0.101,0.201
	c-0.101,0.403-0.201,0.807-0.302,1.209c0,0.101-0.101,0.202-0.101,0.403c-0.101,0.403-0.202,0.706-0.302,1.109
	c0,0.101-0.101,0.202-0.101,0.302c-2.117,8.769-3.023,16.429-3.427,19.755v0.101c0,0.101,0,0.302,0,0.403c0,0.101,0,0.101,0,0.202
	c0,0.101,0,0.201,0,0.302c0,0.101,0,0.202,0,0.302l0,0c0,0.202,0,0.403,0,0.403c0.202,0.202,0.403,0.504,0.604,0.604
	c0.706,0.605,1.411,0.907,2.218,1.008c0.504,0.101,1.008,0.101,1.612,0.101c0.303,0,0.504-0.101,0.807-0.101
	c0.302,0,0.504-0.101,0.806-0.201c0.101,0,0.101,0,0.202-0.101c0.202-0.101,0.403-0.101,0.604-0.202c0.101,0,0.101,0,0.202-0.101
	c0.101,0,0.202-0.101,0.302-0.101c0.101,0,0.101-0.101,0.202-0.101h0.101c0.201-0.101,0.403-0.202,0.604-0.202
	c0.706-0.302,1.209-0.604,1.209-0.604c4.536,6.148,8.567-2.117,8.567-2.117c0.806,1.814,1.814,3.125,2.822,4.032
	c0.202,0.201,0.504,0.403,0.706,0.604l0.101,0.101c0.201,0.101,0.403,0.302,0.604,0.403c0,0,0.101,0,0.101,0.101
	c0.201,0.101,0.403,0.201,0.706,0.302c0,0,0,0,0.101,0c0.302,0.101,0.504,0.202,0.806,0.302c2.52,0.807,5.141,0.403,7.257-0.302
	c0.303-0.101,0.605-0.202,0.807-0.302l0,0c1.108-0.403,1.915-0.807,2.52-1.109l0,0c0.302-0.101,0.504-0.202,0.605-0.302l0,0h0.101
	c0.403,0.101,0.907,0.101,1.31,0.101c0.403,0,0.706,0,1.109,0c7.055,0,9.978-4.132,9.978-4.132s4.032-1.713,6.047-7.458
	c2.016-5.745-1.612-5.946-1.612-5.946s14.715-3.628,15.018-8.466C285.94,165.497,279.389,162.977,279.389,162.977z"></path>
<path id="color_x5F_5" fill="#FFD2BB" d="M305.695,285.94L305.695,285.94c-0.102,0.101-0.102,0.202-0.202,0.403
	C305.594,286.142,305.695,286.041,305.695,285.94z M319.805,280.497c0,0-0.402,1.613-1.108,2.52
	c-0.806,0.907-1.512,1.008-1.512,1.008s1.612-2.419,1.311-3.931c-0.303-1.613-1.915-0.807-2.621,1.008
	c-0.705,1.814,0.403,2.822-0.806,3.931c-1.21,1.008-2.218,1.008-4.233,0.403c-2.016-0.605-4.435-2.923-4.435-2.923
	s0.201,1.31-0.807,3.326h0.102l5.442,2.822c0,0,0.201-1.814,1.41-1.915c1.21-0.101,2.117,1.311,4.133,0.504
	c2.016-0.806,3.226-3.326,3.729-5.04c0,0,0.403-1.209,1.008-2.016l0,0L319.805,280.497z M286.646,352.461
	c-0.302-0.101-0.605-0.101-0.907-0.201h-0.101c-0.605-0.102-1.109-0.202-1.613-0.403c0,0,0,0-0.101,0
	c-0.201-0.101-0.403-0.101-0.604-0.202h-0.101c-0.403-0.101-0.807-0.201-1.109-0.302c0,0,0,0-0.101,0
	c-0.201,0-0.302-0.101-0.403-0.101l0,0l1.713,21.064l0,0l0.101,1.008h3.226l0.101-1.209l0.907-19.453l0,0
	C287.25,352.562,286.948,352.461,286.646,352.461L286.646,352.461z M294.306,352.864L294.306,352.864l3.729,25.802l0,0l0.101,0.705
	v0.202h3.125v-28.02l0,0C298.942,352.26,296.624,352.764,294.306,352.864z M342.382,307.609c-0.403-0.807-2.822-2.721-4.535-2.52
	c-1.714,0.303-2.722,2.822-2.722,2.822l-4.233-0.504v3.729c0.907,0.102,2.117,0.102,2.923-0.1l0,0c0.102,0,0.202,0,0.303,0
	c0.201-0.102,0.504-0.102,0.706-0.202h0.101c0.201-0.101,0.504-0.101,0.705-0.202c1.008-0.302,1.814-0.504,1.814-0.504
	s1.008,0.404,2.116,0.404c0.504,0,1.21-0.505,1.714-1.009c0.303-0.302,0.604-0.604,0.807-0.907l0,0
	c0.101-0.101,0.101-0.201,0.201-0.303C342.482,308.113,342.482,307.811,342.382,307.609z"></path>
<path id="color_x5F_4" fill="#00CEC9" d="M344.499,316.883c0,0,0.402,2.317-1.311,3.426c-0.907,0.605-2.52,0.807-4.133,0.706
	c1.613,0.101,3.226-0.202,4.133-0.806c1.713-1.109,1.311-3.428,1.311-3.428s-1.411-1.008-4.032-0.906
	c-4.938,0.201-6.551,2.317-6.551,2.317l0,0c0-0.101,0-0.101,0-0.101s-0.102-5.947,1.813-7.459l0,0
	c1.008-0.302,1.814-0.504,1.814-0.504s1.008,0.404,2.117,0.404c0.504,0,1.209-0.505,1.713-1.009l0,0l0,0c0,0,2.52,1.108,3.023,2.722
	C344.901,313.858,344.499,316.883,344.499,316.883z M105.124,386.932c-10.885-5.141-37.998-4.436-39.308-20.764
	c-1.31-16.227,13.304-7.357,20.46,2.318s14.614,8.467,19.855,11.188c5.14,2.722,5.14,2.722,5.14,2.722s-9.877-9.776-8.365-21.267
	c0.907-7.559,3.729-18.444,2.016-27.516l-70.754,40.618l68.94,39.61l-1.311-5.442l0,0l0,0c-2.117-1.21-3.225-2.318-3.225-2.318
	v-6.249c0-2.923,4.132-5.543,10.381-7.055c0.907-0.202,1.814-0.404,2.822-0.605C110.264,390.357,108.248,388.443,105.124,386.932z
	 M360.928,354.88C360.928,354.779,360.928,354.779,360.928,354.88L360.928,354.88C360.928,354.779,360.928,354.779,360.928,354.88z
	 M316.781,217.201c-0.101-3.427,3.629-6.752,8.063-5.543c2.419,0.604,3.023,2.923,3.023,4.838l0,0
	c0.907,0.302,1.612,0.504,1.512,0.101c-0.302-0.907,1.21-3.528,4.938-2.721c3.729,0.907,5.343-0.907,5.141-0.907
	c-0.303,0,0-4.233,3.527-3.326c3.528,0.907,6.351,3.528,6.351,3.528s-0.505-1.411-2.722-4.132c-0.604-0.706-0.807-1.411-0.907-2.217
	l-9.676-5.645l-22.577,13.002C315.472,215.488,316.781,217.201,316.781,217.201z M405.778,284.327L405.778,284.327L405.778,284.327
	L405.778,284.327z M360.021,366.874c0-1.814,0.101-5.745,0.705-10.685C360.021,361.129,360.021,365.06,360.021,366.874z
	 M445.691,378.465c0,0-12.901,3.326-17.033,25.398c-1.109-24.794,8.97-36.688,10.381-38.3c0.202,0.101,0.504,0.202,0.907,0.303
	c2.722,0.201,2.923-3.528,2.923-3.528s2.318,3.528,4.233,0.706s-1.512-4.032-1.512-4.032s1.713-2.821,0.403-4.132
	c-1.311-1.21-3.528,1.008-3.528,1.008s0.202-1.915-1.915-1.915c-2.116,0-2.419,3.226-2.419,3.226s-1.713,0.202-2.016,2.016
	c-0.303,1.814,2.419,2.52,2.419,2.52s-0.604,1.814-0.201,3.024c-10.281,11.188-12.498,22.777-12.599,30.438l0,0
	c-2.017-6.248-5.544-13.304-11.793-16.63c0,0,8.164,12.397,8.87,27.717l0,0c-1.411-0.201-2.318,1.21-2.42,2.822
	c-0.101,2.621-3.225,0.101-4.636-4.031c-1.411-4.133-3.527-2.419-3.427,0.403c0.201,2.721-4.334,2.52-5.141-1.21
	c-0.806-3.628-3.023-4.435-4.838-3.226c0,0,0-0.906-0.101-1.914c0-7.861,1.612-24.392,13.405-32.757c0,0-10.886,7.056-16.731,17.739
	l0,0c2.923-16.832,10.886-23.888,13.305-25.803c0.201,0.504,0.705,0.807,1.411,0.907c2.721,0.202,2.923-3.528,2.923-3.528
	s2.317,3.528,4.232,0.706c1.915-2.821-1.512-4.031-1.512-4.031s1.714-2.822,0.403-4.132c-1.311-1.21-3.527,1.008-3.527,1.008
	s0.201-1.916-1.915-1.916c-2.117,0-2.419,3.226-2.419,3.226s-1.714,0.202-2.016,2.016c-0.303,1.814,2.419,2.521,2.419,2.521
	s-0.303,1.008-0.303,1.914c-7.156,3.83-11.894,12.699-14.413,19.15c1.21-7.559,3.629-16.328,8.365-22.274
	c0,0-14.009,13.708-15.723,32.857c-1.612-31.95,10.28-42.231,10.28-42.231l-0.201-0.201c0.201,0.102,0.302,0.102,0.302,0.102
	s-1.31,3.83,1.411,4.031c2.722,0.201,2.923-3.527,2.923-3.527s2.318,3.527,4.233,0.705s-1.512-4.031-1.512-4.031
	s1.714-2.822,0.403-4.133c-1.311-1.209-3.527,1.008-3.527,1.008s0.201-1.915-1.915-1.915c-2.117,0-2.419,3.226-2.419,3.226
	s-1.714,0.201-2.017,2.016c-0.201,1.008,0.605,1.713,1.311,2.117c-10.079,12.195-11.591,25.197-11.591,32.151
	c-2.016-6.048-5.543-13.304-12.095-17.739c0,0,7.761,13.305,8.971,29.129l0,0c-1.21-0.102-2.117,0.806-1.714,2.52
	c0,0-3.527-6.048-5.745-7.156c-2.217-1.109-1.209,3.629-1.209,3.629s-2.722,0.201-3.83-4.939c-0.907-4.031-3.629-4.334-4.938-2.822
	c-0.605-7.055-0.605-22.274,9.676-34.168c0,0-9.475,6.35-14.413,15.623l0,0c3.628-16.025,13.304-25.097,13.304-25.097v-0.706
	c0,1.109,0.403,3.326,2.318,2.924c2.621-0.504,1.915-4.133,1.915-4.133s3.125,2.822,4.334-0.403c1.21-3.124-2.419-3.527-2.419-3.527
	s0.907-3.124-0.604-4.032c-1.613-0.906-3.226,1.916-3.226,1.916s-0.303-1.814-2.318-1.311s-1.512,3.729-1.512,3.729
	s-1.612,0.605-1.411,2.521c0.202,1.915,2.923,1.813,2.923,1.813s0,0.202,0,0.404c-7.66,4.838-12.396,13.605-15.118,20.561
	c1.108-7.459,3.629-16.631,9.172-23.182c0,0-14.514,12.599-16.328,29.229l0,0c-2.318-23.182,9.071-36.586,10.986-38.703
	c0,1.109,0.303,3.326,2.318,3.023c2.62-0.504,1.915-4.132,1.915-4.132s3.124,2.822,4.334-0.403c1.209-3.125-2.419-3.527-2.419-3.527
	s0.907-3.125-0.605-4.031c-1.612-0.908-3.225,1.914-3.225,1.914s-0.303-1.813-2.318-1.31s-1.512,3.729-1.512,3.729
	s-1.613,0.604-1.411,2.52c0.101,1.311,1.512,1.612,2.318,1.713c-10.684,10.079-12.901,23.787-13.204,31.951
	c0.102,0.302,0.202,0.705,0.403,1.008c-2.116-6.148-6.148-14.111-12.9-18.646c0,0,9.676,19.352,8.869,33.361
	c-0.807,1.008-1.814,1.713-3.226,1.311c-3.628-1.109-2.822-5.746-6.652-6.552c-3.729-0.806-2.721-0.101-4.636,1.008
	s-3.023-1.813-5.342-2.016s-3.125,1.008-3.125,1.008l96.053,56.14l-152.394,88.997l-129.716-74.987l4.939-26.205
	c1.814-1.108,2.62-1.915,2.62-1.915v-5.946c0-2.923-4.132-5.544-10.381-7.056c-0.605-0.202-1.311-0.302-1.915-0.403
	c-0.706-0.101-1.311-0.201-2.016-0.402c-0.202,0-0.403-0.102-0.504-0.102c0.403-4.637,1.311-9.776,3.326-12.9
	c4.334-6.955,12.901-3.932,18.545-14.514c5.745-10.584-1.209-15.422-15.421-11.49c-14.11,3.931-10.583,20.561-10.583,20.561
	s-5.342-5.141-3.527-17.84c1.814-12.699,7.156-16.63,14.614-38.804c0.302-0.907,0.504-1.714,0.806-2.62l52.512-30.136
	c1.31,12.599,1.713,26.609-1.915,31.546c-7.257,9.878-28.423-4.736-28.423-4.736l-2.419,4.736c0,0,6.451,9.475,20.662,15.32
	c14.211,5.947,12.095,8.567,9.071,17.235c-2.923,8.668-13.708,14.312-13.708,14.312l5.141,5.04c0,0,24.088-22.376,37.796-6.854
	c13.708,15.521,27.918,17.437,27.918,17.437l0.807-4.838c-11.49-5.947-24.089-32.959-24.391-35.881
	c-0.302-2.924,2.721-3.527,2.721-3.527c16.126,1.914,29.229-11.692,29.229-11.692l-3.729-2.62
	c-26.004,12.195-29.229-17.537-29.229-17.537s-0.706-23.283-0.504-34.471l81.741-46.867c-0.706,3.125-0.303,6.35,0.705,8.769
	c0,0-6.955-5.645-11.188-0.907c-4.233,4.737,1.109,11.591,1.109,11.591s-3.628-1.209-5.442,1.915
	c-1.814,3.023-0.403,10.079,4.737,11.49c0,0-5.644,2.923-0.403,9.071l51.705-29.733l-0.102,0.101l23.888-13.909l40.315,23.383
	c1.411,8.87,8.265,15.724,8.265,15.724s0,0-5.14-2.722c-5.141-2.721-12.7-1.512-19.855-11.188
	c-7.156-9.676-21.771-18.545-20.461-2.318c1.311,16.228,28.322,15.522,39.309,20.763c3.124,1.512,5.241,3.427,6.651,5.342
	c-1.31,0.202-2.52,0.504-3.729,0.807c-0.605,0.201-1.21,0.302-1.714,0.504c-0.604,0.202-1.108,0.403-1.612,0.604
	c-3.83,1.512-6.148,3.528-6.148,5.745v6.249c0,0,1.108,1.008,3.226,2.318l0,0l6.954,28.423c0,0,14.11,7.256,28.927,0l5.442-29.028
	c1.814-1.109,2.621-1.915,2.621-1.915v-5.946c0-3.628-6.249-6.652-14.917-7.962c0.201-2.722,0.705-5.745,1.411-8.265l129.615,75.39
	l-132.941,77.608C433.597,402.05,436.116,381.791,445.691,378.465z M284.932,281.001c0,0,3.527-3.931,1.008-6.45
	c-2.621-2.52-3.729-0.907-3.729-0.907s0.504-3.125-2.016-5.241c-2.52-2.116-5.846,3.427-5.846,3.427s2.117-3.527-1.008-5.644
	s-4.737,1.613-4.737,1.613s1.613-6.451-2.721-7.56c-4.334-1.209-8.164,2.117-8.063,5.543c0,0-5.14-6.752-10.482-3.427
	c-5.241,3.326-5.946,11.289-3.83,15.824c0,0-6.954-5.645-11.188-0.907c-4.233,4.737,1.109,11.591,1.109,11.591
	s-3.628-1.209-5.443,1.915c-1.814,3.023-0.403,10.08,4.737,11.49c0,0-5.645,2.923-0.403,9.071L284.932,281.001z M354.477,316.076
	c-1.512,0.705-0.201,2.016-0.302,2.62c0,0.504-5.241,3.729-5.241,3.729s-0.101-3.931-0.706-4.838
	c-0.604-1.008-0.604-1.008-0.604-1.008s-0.101-3.83-1.612-6.047c-1.613-2.218-3.528-2.318-3.528-2.318l-0.101,0.201l0,0
	c0.101-0.303,0.202-0.504,0.101-0.705c-0.402-0.807-2.821-2.722-4.535-2.52c-1.714,0.302-2.722,2.821-2.722,2.821l-4.232-0.504
	v-0.504l-7.459-2.318c0,0-4.535-8.466-7.962-11.893c-3.427-3.427-4.334-3.931-4.334-3.931s0.201-1.814,1.411-1.915
	c1.209-0.101,2.116,1.311,4.132,0.504c2.016-0.806,3.226-3.326,3.729-5.04c0,0,0.403-1.209,1.008-2.016
	c0.201-0.302,0.403-0.504,0.604-0.706c1.21-0.806,1.814-2.318,2.218-4.636c0.504-3.83-4.637-10.785-10.784-8.466
	c0,0-6.351,0.101-7.358,5.947c0,0-3.527-0.907-5.644,2.318c-2.117,3.225-0.907,4.132-0.807,8.466c0,0.403,0,0.806-0.101,1.209
	c-0.504-0.101-1.714-0.302-2.722,0.101c-1.411,0.604-5.442,4.132-7.257,9.776c-1.814,5.644-4.233,10.583-7.055,16.933
	s-4.032,9.676-2.822,11.288c0,0-1.512,8.971-0.403,17.639c1.108,8.668,1.411,10.784,1.411,10.784s0.302,0.101,0.806,0.303l0,0
	l1.713,21.065c-0.101,0-0.202,0-0.202,0s-0.706,0.1-1.008,0.705c-0.202,0.604-0.101,2.923,0.302,3.125
	c0.403,0.201,3.729,0.504,4.435,0.201c0.706-0.201,5.946-3.023,6.551-4.133c0.604-1.108-1.512-1.814-3.427-1.311
	c-1.814,0.404-2.621,1.008-3.326,1.21l0.907-19.452c2.016,0.303,4.333,0.402,6.753,0.303l3.729,25.802c-0.101,0-0.101,0-0.101,0
	s-0.705,0.101-1.008,0.705c-0.202,0.604-0.101,2.923,0.303,3.124c0.403,0.202,3.729,0.505,4.435,0.202
	c0.706-0.202,5.946-3.023,6.552-4.132c0.604-1.109-1.513-1.814-3.428-1.311c-1.814,0.402-2.62,1.008-3.326,1.209l-0.1,1.21h-3.226
	v-0.302v0.201h3.125v-28.02l0,0c0.201-0.102,0.403-0.102,0.504-0.201l0.807-25.299l0,0l0,0c1.209-1.209,0.201-3.023,1.612-8.566
	c2.016-7.561,4.435-7.561,6.45-9.979c2.017-2.42,1.513-5.342,1.513-5.342s8.668,9.172,10.381,9.574
	c1.714,0.404,8.365-0.402,8.365-0.402v-0.202c0.907,0.101,2.117,0.101,2.923-0.101l-0.201,0.101c0,0-1.008-0.101-1.714,2.419
	c-0.705,2.419-0.402,13.909,0,14.615c0.403,0.705,2.521,3.023,8.063,3.326c5.544,0.302,8.365-3.932,8.365-3.932l7.862-7.66
	c0,0,3.124-0.402,3.628-1.41C360.424,317.588,355.988,315.371,354.477,316.076z"></path>
<path id="color_x5F_3" fill="#E84393" d="M301.26,351.453c-2.318,0.807-4.737,1.209-6.954,1.411l0,0
	c-2.419,0.202-4.737,0-6.753-0.303l0,0c-0.303,0-0.706-0.101-1.008-0.201l0,0c-0.302-0.101-0.604-0.101-0.907-0.202h-0.101
	c-0.604-0.101-1.108-0.201-1.613-0.402c0,0,0,0-0.101,0c-0.202-0.102-0.403-0.102-0.604-0.202h-0.101
	c-0.403-0.101-0.806-0.202-1.109-0.302c0,0,0,0-0.101,0c-0.202,0-0.302-0.102-0.403-0.102c-0.504-0.201-0.806-0.303-0.806-0.303
	s-0.403-2.115-1.411-10.783c-1.108-8.668,0.403-17.639,0.403-17.639c1.209,1.612,15.219,6.551,20.158,4.838
	c0.303-0.102,0.605-0.201,0.907-0.303h0.101c0.202-0.101,0.403-0.201,0.604-0.303l0,0c0.202-0.1,0.404-0.201,0.504-0.302l0,0
	c0.202-0.101,0.303-0.202,0.404-0.302l0,0l0,0l-0.807,25.298C301.663,351.353,301.461,351.453,301.26,351.453z M289.972,370.905
	c-1.814,0.403-2.621,1.008-3.326,1.21l-0.101,1.209h-3.225l-0.101-1.008l0,0c-0.101,0-0.202,0-0.202,0s-0.706,0.102-1.008,0.705
	c-0.202,0.605-0.101,2.924,0.302,3.125c0.403,0.201,3.729,0.504,4.435,0.201c0.706-0.201,5.947-3.023,6.551-4.132
	C294.003,371.107,291.987,370.502,289.972,370.905z M304.787,377.256c-1.814,0.402-2.62,1.008-3.326,1.209l-0.1,1.209h-3.226v-0.303
	l-0.101-0.705l0,0c-0.101,0-0.101,0-0.101,0s-0.705,0.102-1.008,0.705c-0.202,0.605-0.101,2.924,0.303,3.125
	c0.403,0.201,3.729,0.504,4.435,0.201c0.706-0.201,5.946-3.023,6.551-4.132C308.819,377.558,306.702,376.852,304.787,377.256z"></path>
<path id="color_x5F_2" fill="#FBC02D" d="M323.534,304.586l7.459,2.318v0.504v3.729v0.202c0,0-6.753,0.706-8.366,0.403
	c-1.713-0.403-10.381-9.575-10.381-9.575s0.504,2.923-1.512,5.342s-4.435,2.419-6.451,9.978c-1.512,5.544-0.402,7.258-1.612,8.568
	c-0.101,0.1-0.202,0.201-0.403,0.302l0,0c-0.101,0.101-0.303,0.202-0.504,0.302l0,0c-0.201,0.102-0.402,0.202-0.604,0.303h-0.101
	c-0.303,0.102-0.605,0.201-0.907,0.303c-4.939,1.713-19.049-3.226-20.158-4.838c-1.209-1.613,0-4.939,2.822-11.289
	s5.241-11.288,7.055-16.932c1.814-5.644,5.846-9.172,7.257-9.777c1.008-0.403,2.217-0.201,2.721-0.101l0,0l0,0
	c-0.403,3.628-2.721,5.644-2.721,5.644s5.242-0.403,7.055-2.318c0.706-0.806,1.108-1.209,1.411-1.512c0,0,0,0,0.102-0.101l0,0
	c0.1-0.101,0.1-0.202,0.201-0.403h0.101l5.442,2.822c0,0,0.907,0.504,4.334,3.931C318.999,296.12,323.534,304.586,323.534,304.586z
	 M449.723,276.566L449.723,276.566c-0.101,0.302-0.201,0.504-0.302,0.806l0,0c-0.102,0.202-0.303,0.504-0.504,0.706l0,0
	c-0.202,0.202-0.403,0.504-0.706,0.706l0,0l0,0c-3.427,3.125-11.994,5.443-21.972,5.443c-2.822,0-5.544-0.202-8.063-0.504
	c-0.705-0.101-1.411-0.202-2.116-0.303c-1.411-0.201-2.722-0.504-3.932-0.806c-0.604-0.202-1.209-0.302-1.713-0.504
	c-0.604-0.202-1.108-0.403-1.612-0.604c-0.504-0.202-1.009-0.403-1.411-0.605c-0.403-0.202-0.907-0.403-1.311-0.706
	c-1.612-1.008-2.722-2.016-3.226-3.225c0,0,0,0,0-0.101c-0.101-0.202-0.101-0.302-0.101-0.504v-0.101
	c0-0.202-0.101-0.403-0.101-0.504v6.249c0,0,1.108,1.008,3.226,2.318c0.101,0.101,0.302,0.202,0.504,0.302
	c0.201,0.101,0.402,0.202,0.604,0.303c0.101,0.101,0.302,0.201,0.504,0.201c0.302,0.202,0.705,0.303,1.108,0.504
	c0.101,0.101,0.303,0.101,0.403,0.201c0.403,0.202,0.807,0.303,1.209,0.504c0.102,0,0.202,0.101,0.202,0.101
	c0.504,0.202,1.008,0.403,1.512,0.504c0.101,0,0.303,0.101,0.403,0.101c0.604,0.202,1.108,0.303,1.713,0.504
	c0.102,0,0.202,0,0.202,0.101c0.604,0.101,1.108,0.302,1.713,0.403c0.102,0,0.303,0.101,0.403,0.101
	c0.706,0.101,1.411,0.302,2.117,0.403c0.101,0,0.302,0,0.402,0.101c0.706,0.101,1.411,0.202,2.117,0.202c0.101,0,0.201,0,0.302,0
	c0.807,0.101,1.613,0.101,2.419,0.101c0.202,0,0.403,0,0.605,0c0.907,0,1.713,0,2.62,0c0.604,0,1.21-0.101,1.714-0.101
	c0.201,0,0.302,0,0.504,0c0.403,0,0.806-0.101,1.209-0.101c0.202,0,0.403,0,0.605-0.101c0.402,0,0.806-0.101,1.209-0.101
	c0.101,0,0.303,0,0.403-0.101c0.504-0.101,1.008-0.101,1.512-0.202c0.101,0,0.303,0,0.403-0.101
	c0.302-0.101,0.705-0.101,1.008-0.202c0.201,0,0.303-0.101,0.504-0.101c0.303-0.101,0.604-0.101,0.907-0.202
	c0.101,0,0.302-0.101,0.403-0.101c0.402-0.101,0.806-0.202,1.108-0.302h0.101c0.403-0.101,0.807-0.202,1.21-0.302
	c0.101,0,0.201-0.101,0.302-0.101c0.303-0.101,0.605-0.201,0.807-0.302c0.101,0,0.201-0.101,0.303-0.101
	c0.302-0.101,0.604-0.202,0.906-0.302h0.102c0.705-0.303,1.411-0.504,2.016-0.807l0,0c1.209-0.604,2.217-1.108,3.023-1.612l0,0l0,0
	c1.814-1.109,2.621-1.915,2.621-1.915v-5.947C449.823,276.063,449.723,276.365,449.723,276.566z M145.641,400.84
	c-0.101,0.303-0.201,0.504-0.302,0.706l0,0c-0.101,0.302-0.302,0.504-0.504,0.705l0,0c-1.512,1.915-4.938,3.629-9.474,4.737
	c-3.729,0.907-8.265,1.411-13.204,1.411c-1.612,0-3.225-0.101-4.737-0.202c-1.512-0.101-3.024-0.302-4.435-0.504
	c-0.706-0.101-1.411-0.201-2.016-0.403c-0.706-0.101-1.31-0.302-1.915-0.402c-5.442-1.311-9.172-3.427-10.18-5.846c0,0,0,0,0-0.102
	c-0.101-0.201-0.101-0.302-0.101-0.504v-0.101c0-0.201-0.101-0.403-0.101-0.504v6.249c0,0,1.109,1.008,3.226,2.318
	c0.101,0.101,0.302,0.201,0.504,0.302c0.201,0.102,0.403,0.202,0.604,0.303c0.101,0.101,0.302,0.201,0.504,0.201
	c0.302,0.202,0.706,0.303,1.109,0.504c0.101,0.102,0.302,0.102,0.403,0.202c0.403,0.201,0.807,0.302,1.209,0.504
	c0.101,0,0.202,0.101,0.202,0.101c0.504,0.202,1.008,0.403,1.512,0.504c0.101,0,0.302,0.101,0.403,0.101
	c0.605,0.202,1.109,0.303,1.713,0.504c0.101,0,0.202,0,0.202,0.102c0.605,0.101,1.109,0.302,1.814,0.403
	c0.101,0,0.302,0.101,0.403,0.101c0.706,0.101,1.411,0.302,2.117,0.403c0.101,0,0.302,0,0.403,0.101
	c0.706,0.101,1.411,0.201,2.116,0.201c0.101,0,0.202,0,0.303,0c0.806,0.101,1.612,0.101,2.419,0.101c0.202,0,0.403,0,0.604,0
	c0.907,0,1.713,0,2.621,0c0.605,0,1.209-0.101,1.713-0.101c0.202,0,0.302,0,0.504,0c0.403,0,0.807-0.101,1.209-0.101
	c0.202,0,0.403,0,0.605-0.101c0.403,0,0.806-0.101,1.209-0.101c0.101,0,0.302,0,0.403-0.102c0.504-0.101,1.008-0.101,1.512-0.201
	c0.101,0,0.302,0,0.403-0.101c0.303-0.102,0.706-0.102,1.008-0.202c0.202,0,0.303-0.101,0.504-0.101
	c0.302-0.101,0.604-0.101,0.907-0.201c0.101,0,0.303-0.102,0.403-0.102c0.403-0.101,0.806-0.201,1.109-0.302h0.101
	c0.403-0.101,0.806-0.202,1.209-0.303c0.101,0,0.202-0.101,0.302-0.101c0.302-0.101,0.605-0.201,0.807-0.303
	c0.101,0,0.201-0.101,0.302-0.101c0.302-0.101,0.604-0.201,0.907-0.303h0.101c2.117-0.806,3.83-1.713,5.04-2.418l0,0l0,0
	c1.814-1.109,2.621-1.915,2.621-1.915v-5.947C145.742,400.235,145.641,400.537,145.641,400.84L145.641,400.84z"></path>
<path id="color_x5F_1_1_" d="M299.748,284.529c-0.403,3.628-2.721,5.644-2.721,5.644s5.241-0.403,7.055-2.318
	c0.705-0.806,1.108-1.209,1.411-1.512c0,0,0,0,0.101-0.101l0,0c1.21-2.217,1.008-3.729,1.008-3.729s2.419,2.318,4.435,2.923
	c2.017,0.604,2.923,0.604,4.233-0.403c1.21-1.008,0.101-2.016,0.807-3.931c0.705-1.814,2.318-2.621,2.62-1.008
	c0.303,1.612-1.311,3.931-1.311,3.931s0.706-0.101,1.513-1.008c0.806-0.907,1.108-2.52,1.108-2.52l1.713-0.201l0,0
	c0.202-0.303,0.403-0.504,0.605-0.706c1.209-0.806,1.813-2.318,2.217-4.636c0.504-3.83-4.636-10.784-10.784-8.466
	c0,0-6.35,0.101-7.357,5.947c0,0-3.527-0.907-5.645,2.318c-2.117,3.226-0.907,4.133-0.806,8.467
	C299.748,283.723,299.748,284.125,299.748,284.529L299.748,284.529L299.748,284.529z"></path>
</svg>
