<svg version="1.1" id="Layer_1" xmlns="http://www.w3.org/2000/svg" xmlns:xlink="http://www.w3.org/1999/xlink" x="0px" y="0px" width="595.279px" height="595.281px" viewBox="0 0 595.279 595.281" enable-background="new 0 0 595.279 595.281" xml:space="preserve">
<path id="color_x5F_2" fill="#FBC02D" d="M163.93,268.57c3.207,9.982,6.409,19.959,10.292,29.704
	c-6.205,7.957-11.392,16.557-14.996,26.008c-3.091,8.107-3.289,16.384-4.866,24.781c-1.262,6.709-4.27,12.466-11.126,14.597
	c-9.241,2.872-20.608,0.321-29.791-1.529c-15.856-3.194-34.135-8.217-45.597-20.45c-12.646-13.499-0.531-29.919,9.854-40.44
	c0.229-0.097,0.435-0.235,0.582-0.429c6.692-8.788,13.336-17.767,18.162-27.75c3.688-7.63,6.542-15.596,10.435-23.145
	c11.956-23.188,33.121-53.283,62.311-53.113c3.832,8.167,9.567,15.039,15.384,21.875c0.643,0.756,3.42-0.272,2.692-1.128
	c-5.902-6.938-11.766-13.881-15.538-22.257c-0.064-0.141-0.18-0.241-0.322-0.311c2.5-2.85,5.64-5.263,9.327-6.254
	c5.692,12.225,16.286,21.407,24.427,31.949c-0.169,1.273-0.515,2.715-0.767,3.67c-0.673,1.082-1.679,1.968-2.948,2.7
	c-1.271,0.731-2.718,1.222-3.979,1.984c-5.238-5.061-11.68-8.024-19.544-6.077c-1.74,0.431-1.374,1.754,0.355,1.325
	c17.461-4.322,28.02,21.954,32.917,34.131c6.578,16.352,10.479,33.479,15.604,50.29c0.044,0.146,0.155,0.245,0.303,0.313
	c-7.067,10.617-22.284,14.438-34.965,14.8c-7.187-7.534-11.487-17.525-15.318-27.057c-3.811-9.479-6.865-19.242-9.988-28.962
	C166.382,266.404,163.489,267.196,163.93,268.57z M178.94,326.457c0.158-0.04,0.315-0.084,0.475-0.123
	c0.042-0.01,0.074-0.005,0.115-0.013c-0.276-0.562-0.448-1.1-0.527-1.613C178.695,325.318,178.636,325.913,178.94,326.457z
	 M239.489,316.794c-0.586,0.653-2.815,1.013-2.738,0.156c0.324-3.636,0.792-7.738-0.381-11.282
	c-1.405-4.246-4.761-5.413-8.784-4.855c0.459,1.586,0.927,3.172,1.401,4.757c0.149-0.341,0.302-0.683,0.437-1.034
	c0.324-0.846,3.168-1.191,2.878-0.436c-5.755,15.013-24.903,20.496-40.39,21.098c-0.655,0.424-1.733,0.572-2.29,0.055
	c-1.228,0.01-2.427-0.007-3.584-0.056c-1.945-0.083,0.25-1.448,1.189-1.409c0.353,0.015,0.709,0.023,1.068,0.034
	c-0.972-1.104-1.885-2.261-2.757-3.451c-2.683,0.84-5.306,2.356-3.063,5.407c1.725,2.344,4.067,4.168,6.41,5.861
	c3.517,2.541,8.968,4.867,11.488,8.512c0.854,1.234-1.909,2.351-2.653,1.273c-1.613-2.333-4.955-3.893-7.247-5.449
	c-0.097-0.066-0.193-0.133-0.291-0.198c5.958,15.573,22.858,14.515,35.979,7.913c3.805-2.192,7.592-4.622,10.46-6.526
	c2.04-1.655,3.872-3.509,5.273-5.606C245.787,325.73,244.183,320.742,239.489,316.794z M490.844,361.158
	c1.732,1.956,3.606,4.225,5.385,6.679C494.705,365.439,492.893,363.201,490.844,361.158z M460.031,441.133
	c-4.781,2.17-9.497,4.457-14.075,7.036L460.031,441.133z M500.312,356.045c-0.129-0.128-0.086-0.282,0.055-0.436
	c-4.221,0.618-8.359-0.15-11.516-3.198l-4.654,0.556c7.618,4.378,14.573,10.86,17.794,19.189c3.221,8.33,4.119,20.021-2.166,27.277
	c-1.646,1.898-3.82,3.574-6.275,4.901c-0.242,0.217-0.477,0.421-0.695,0.602c-1.191,0.986-2.966,1.472-4.919,1.661
	c-7.344,2.043-15.422,0.88-19.384-5.994c-2.366,1.463-4.765,2.871-7.179,4.236c0.168,0.164,0.339,0.329,0.502,0.49
	c0.253,0.25,0.262,0.513,0.122,0.751c1.521,0.28,3.03,0.545,4.516,0.75c1.951,0.268,0.194,2.034-1.068,1.86
	c-0.614-0.084-1.236-0.183-1.86-0.287l0.169,0.193c0,0-0.329-0.124-0.902-0.318c-11.06-1.931-23.22-5.897-29.329,6.877
	c-5.557,11.621-1.544,24.953,6.622,34.239c0.086,0.099,0.127,0.198,0.146,0.298c9.849-6.067,20.456-10.486,31.056-15.117
	c-2.338-2.303-4.728-4.523-6.723-7.146c-0.551-0.724,2.23-1.68,2.715-1.044c1.884,2.478,4.12,4.595,6.332,6.763
	c0.7-0.471,1.807-0.572,2.172,0.104c1.543,2.851,3.119,5.691,4.665,8.548c2.954,0.251,6.014,0.497,9.115,0.649
	c1.11,0.021,2.958,0.043,5.2,0.033c0.212-0.031,0.418-0.033,0.604-0.004c1.962-0.014,4.178-0.054,6.439-0.142
	c4.76-0.404,9.413-1.321,13.715-3.115c4.015-1.674,7.222-4.069,9.719-6.997c1.47-1.996,2.861-4.232,4.116-6.607
	c1.583-3.578,2.512-7.565,2.881-11.777C534.471,389.004,516.47,372.18,500.312,356.045z M438.316,450.938
	c0.013-0.008,0.024-0.016,0.037-0.023c-0.018,0-0.034,0-0.052,0C438.307,450.922,438.311,450.929,438.316,450.938z M515.249,440.765
	c0.982-0.303,1.987-0.803,2.996-1.46c-1.729,0.801-3.542,1.473-5.417,2.03C513.732,441.168,514.551,440.98,515.249,440.765z"></path>
<path id="color_x5F_1" d="M223.128,202.463c5.624,2.025,11.469-3.616,14.507-7.553c0.222-0.287,0.092-0.517-0.182-0.677
	c-4.338-2.55-8.999-4.547-13.002-7.639c-0.353-0.271-1.088-0.185-1.722,0.043c-0.463,0.139-0.865,0.361-1.03,0.646
	c-0.007,0.008-0.014,0.017-0.019,0.024c-0.007,0.012-0.02,0.022-0.024,0.035C219.854,191.492,217.013,200.262,223.128,202.463z
	 M224.013,200.305c-2.99-2.512-1.706-7.606-0.333-11.229c3.492,2.341,7.316,4.125,10.961,6.226
	C232.399,198.142,227.679,203.385,224.013,200.305z M241.896,183.891c0.775-1.552,1.552-3.104,2.327-4.656
	c0.559-1.115,3.492-1.151,2.765,0.306c-0.776,1.552-1.553,3.104-2.327,4.656C244.102,185.312,241.168,185.348,241.896,183.891z
	 M241.945,166.228c0.421-0.508,1.292-0.747,1.924-0.747c1.552,0,3.104,0,4.654,0c0.366,0,1.181,0.154,0.741,0.685
	c-0.421,0.508-1.292,0.747-1.924,0.747c-1.552,0-3.104,0-4.655,0C242.32,166.912,241.506,166.758,241.945,166.228z M392.034,469.494
	c-1.778,0-3.558,0-5.335,0c0.01-0.021,0.023-0.042,0.031-0.064c2.932-9.016-3.128-11.85-10.122-12.736
	c-1.801-6.463-6.87-10.315-13.643-9.649c-0.073,0.007-0.143,0.021-0.213,0.036c0.205-8.105-8.229-10.905-15.582-10.26
	c-0.048-5.643-0.564-11.269-0.729-16.906c0.774-1.141,1.011-2.281-0.063-2.986c0-14.576,0-29.154,0-43.729
	c0.304-0.124,0.56-0.293,0.688-0.507c6.194-10.173,13.891-19.897,18.04-31.113c7.63-1.76,15.444-4.486,21.348-9.824
	c6.806-6.153,10.259-14.393,12.297-23.189c0.072-0.311-0.263-0.414-0.514-0.426c-7.776-0.347-16.331,0.568-22.348,6.062
	c-5.532,5.05-8.492,12.183-11.09,19.188c-0.199,0.158-0.341,0.348-0.381,0.563c-0.076,0.397-0.176,0.787-0.263,1.182
	c-0.424,1.158-0.844,2.31-1.268,3.438c-0.063,0.17,0.063,0.276,0.292,0.328c-3.395,11.082-10.562,20.609-16.803,30.353
	c0-16.093,0-32.186,0-48.276c10.013-5.961,16.758-15.487,19.415-26.858c0.01-0.041,0.007-0.075,0.011-0.113
	c5.16-5.327,10.181-10.986,12.563-18.137c2.536-7.61,0.283-15.843-2.377-23.069c-0.249-0.676-1.927-0.106-2.305,0.118
	c-6.865,4.091-12.842,9.213-14.765,17.269c-2.027,8.49,0.947,17.955,2.809,26.197c0.041,0.179,0.235,0.271,0.502,0.304
	c-2.623,8.929-8.054,16.669-15.853,21.786c0-19.52,0-39.037,0-58.556c0-0.026-0.008-0.047-0.012-0.071
	c3.416-6.966,6.31-14.185,5.926-22.067c-0.386-7.896-5.182-14.879-9.888-20.887c-0.473-0.603-2.308,0.15-2.683,0.581
	c-5.227,5.992-8.934,12.603-7.784,20.758c1.192,8.458,7.189,16.264,11.437,23.409c0.025,0.044,0.062,0.081,0.101,0.114
	c0,25.891,0,51.78,0,77.672c-6.308-3.36-11.187-9.545-15.221-15.229c-4.357-6.14-8.349-13.422-9.037-21.043
	c-0.004-0.051-0.021-0.093-0.033-0.138c3.33-6.895,6.113-14.018,6.186-21.783c0.076-8.162-4.267-15.435-9.11-21.663
	c-0.472-0.604-2.309,0.152-2.684,0.581c-5.27,6.028-9.159,12.695-8.443,20.934c0.739,8.508,6.435,16.498,10.647,23.621
	c0.115,0.195,0.364,0.279,0.668,0.29c1.028,7.873,5.445,15.242,9.949,21.588c4.332,6.104,9.939,12.418,16.913,15.505
	c0.053,0.023,0.11,0.037,0.166,0.052c0,14.375,0,28.75,0,43.125c-7.086-4.955-13.904-10.735-18.855-17.834
	c-1.766-7.462-4.196-14.788-9.355-20.621c-5.455-6.166-13.774-8.846-21.552-10.553c-0.65-0.142-2.597,0.065-2.627,0.996
	c-0.275,8.291,1.318,15.997,8.048,21.361c6.373,5.081,15.15,7.168,22.688,9.868c0.019,0.033,0.028,0.065,0.052,0.1
	c5.466,7.888,13.269,14.256,21.159,19.596c0.129,0.087,0.279,0.142,0.442,0.168c0,9.299,0,18.6,0,27.899
	c-1.283-0.052-2.579,0.015-3.804-0.53c-2.435-1.083-4.938-1.934-7.472-2.751c-3.093-0.998-6.222-1.887-9.346-2.778
	c-4.827-1.379-9.957-0.088-14.708-1.842c-0.109-0.041-0.245-0.056-0.394-0.054c-7.403-3.469-13.903-7.833-19.421-13.933
	c-5.871-6.49-10.98-14.021-15.896-21.248c-2.928-4.305-5.754-9.052-8.805-13.67c0.336-0.127,0.598-0.291,0.666-0.486
	c4.157-11.902,12.742-25.454,3.499-37.335c-5.869-7.542-17.033-8.918-25.621-6.015c-0.715-0.629-1.489-1.228-2.313-1.787
	c0.286-3.732,0.316-7.672-1.464-10.957c-2.194-4.05-7.136-3.961-11.154-3.24c-4.565-15.854-8.671-31.787-15.247-47.011
	c-2.977-6.888-7.22-15.728-13.07-22.073c0.542-0.379,1.316-0.624,1.882-0.89c1.213-0.569,2.392-1.2,3.501-1.953
	c2.49-1.69,4.05-4.253,3.963-7.297c-0.002-0.075-0.017-0.141-0.032-0.206c-0.006-0.072-0.025-0.144-0.079-0.215
	c-0.005-0.005-0.01-0.011-0.014-0.017c-0.031-0.041-0.063-0.081-0.096-0.122c-0.786-1.024-1.6-2.033-2.427-3.035
	c1.703-3.484,3.875-7.328,8.43-6.358c2.568,0.547,4.993,2.208,7.231,3.516c4.204,2.457,8.611,4.605,13.518,5.115
	c8.471,0.879,11.861-7.786,14.141-14.471c4.906,0.365,12.02,0.311,10.131-6.389c-1.221-4.334-2.218-7.334-1.44-12.009
	c0.944-5.683,4.192-10.843,7.051-15.894c1.354,0.893,2.794,1.628,4.313,2.145c2.702,0.919,6.087,0.645,7.488-2.175
	c1.484-2.985,0.072-7.026-1.617-10.467c3.831,1.865,8.06,3.15,12.102,3.933c3.181,0.615,9.479,1.111,11.516-2.307
	c3.83-6.428-5.22-12.061-14.225-16.35c-5.128-3.12-9.512-5.274-9.512-5.274s11.833-1.666,4-8.524
	c-7.834-6.857-31.834-14.375-44.834-11.45c-8.662,1.949-12.708,3.464-14.446,4.26c-4.494-3.195-9.494-5.604-15.186-4.631
	c-5.109,0.873-8.69,4.832-11.401,8.948c-5.184,7.869-8.925,17.877-9.901,27.215c-1.065,10.204,2.485,20.158,6.386,29.404
	c-1.667,1.468-3.254,3.062-4.925,4.586c-0.353-0.687-0.693-1.38-1.015-2.086c-0.299-0.66-1.878-0.342-2.583,0.168
	c-4.439,1.142-8.37,3.533-11.509,6.869c-26.861-0.112-47.78,24.576-60.204,45.805c-5.417,9.256-9.645,18.897-13.857,28.725
	c-4.813,11.227-12.078,21.108-19.439,30.774c-0.1,0.13-0.159,0.25-0.203,0.366c-10.693,10.742-22.808,26.723-11.633,41.268
	c0.226,0.293,0.462,0.577,0.695,0.863c0.008,0.037,0.009,0.073,0.023,0.11c1.923,4.93,1.541,10.094,1.604,15.293
	c0.055,4.3,1.107,8.33,2.342,12.42c2.68,8.886,6.529,17.216,12.598,24.269c8.751,10.168,20.119,16.186,32.664,20.162
	c8.183,2.594,16.48,4.875,24.832,6.914c-8.285,0.297-16.553,0.969-24.849,1.023c-0.538,0.003-1.597,0.508-1.891,0.896
	c-4.488-1.979-9.912-1.377-14.593-0.27c-0.354,0.084-0.602,0.206-0.788,0.337c-0.813-0.056-2.104,0.344-2.233,0.918
	c-1.139,5.019-3.35,9.781-4.841,14.702c-0.788,2.601-2.625,7.98,0.104,10.087c-1.173,3.853-1.803,7.905-2.346,11.884
	c-0.468,3.439-1.235,7.633,0.758,10.701c4.35,6.692,17.788,3.479,24.263,3.577c4.43,0.067,15.551,0.207,13.789-6.996
	c-0.259-1.055-0.706-1.922-1.295-2.642c1.581-0.107,3.1-0.238,4.357-0.238c8.753,0.001,17.507-0.066,26.26-0.127
	c12.361-0.085,24.876,0.382,37.277-0.008c0,2.09,0,4.179,0,6.269c0,0.124,0.026,0.229,0.064,0.326
	c-0.021,0.255,0.143,0.459,0.596,0.519c0.303,0.096,0.671,0.096,1.022,0.02c25.748,0,51.496,0,77.245,0
	c0.165,0,0.336-0.032,0.505-0.088c0.59-0.084,1.18-0.352,1.39-0.77c8.78-17.539-18.774-18.551-26.898-28.076
	c1.34-0.922,2.429-2.223,3.092-4.098c1.581-4.471,1.63-9.625,2.264-14.279c1.136-8.353,2.654-16.586,2.438-25.039
	c2.175,1.203,4.319,2.401,6.373,3.632c10.696,6.405,21.713,12.698,31.485,20.487c0.021,0.05,0.04,0.101,0.073,0.151
	c5.37,8.142,12.245,15.617,19.758,21.82c1.209,0.998,2.809,2.237,4.572,3.307c-1.931,0.677-3.613,1.671-4.855,3.358
	c-1.013,1.375-1.499,3.011-2.016,4.613c-5.585,1.547-10.115,5.481-9.114,11.957c-1.477,0-2.952,0-4.429,0
	c-1.151,0-3.06,1.75-1.099,1.75c31.912,0,63.823,0,95.735,0C392.088,471.243,393.995,469.494,392.034,469.494z M393.827,309.366
	c3.592-0.045-0.848,9.243-1.608,10.974c-1.501,3.414-3.592,6.51-6.078,9.276c-5.349,5.954-12.998,8.888-20.604,10.712
	c0.676-1.976,1.243-3.995,1.666-6.074c1.856-4.952,3.81-9.883,6.543-14.418C378.241,312.374,385.306,309.471,393.827,309.366z
	 M361.293,273.642c0.244-8.48,5.505-14.55,12.191-18.978c2.37,6.671,3.961,13.536,2.313,20.596
	c-1.64,7.028-6.806,12.813-11.726,17.922C362.597,286.761,361.103,280.252,361.293,273.642z M308.438,282.738
	c-1.918-7.834,1.417-14.799,6.15-20.749c4.421,5.983,7.597,12.408,7.883,20.019c0.253,6.753-2.341,13.416-5.223,19.521
	C313.691,295.575,310.097,289.509,308.438,282.738z M301.85,357.576c-6.325-4.646-7.92-12.107-7.896-19.494
	c6.613,1.664,12.911,4.184,17.903,9.039c5.179,5.036,7.647,12.215,9.385,19.119C314.536,363.951,307.563,361.771,301.85,357.576z
	 M336.477,433.234c-3.952-3.6-8.256-7.133-12.862-9.924c3.32-0.844,8.179,1.228,11.403,1.426c2.262,0.141,4.836-0.588,7.004-1.184
	c0.369-0.102,0.945-0.418,1.579-0.865c0.215,4.807,0.597,9.607,0.633,14.422c0,0.06,0.014,0.11,0.021,0.164
	c-0.923,0.209-1.802,0.475-2.615,0.793C339.905,436.031,337.457,434.128,336.477,433.234z M335.374,239.849
	c-2.323-7.717,0.711-14.606,5.376-20.541c4.352,5.756,7.921,11.909,8.645,19.245c0.665,6.738-1.944,13.448-4.813,19.507
	C341.029,252.245,337.342,246.389,335.374,239.849z M267.822,327.594c3.882,10.283-1.92,20.271-5.594,29.758
	c-5.815-8.494-12.585-16.246-22.434-19.568c-0.228-0.076-0.557-0.032-0.909,0.063c2.143-1.815,4.095-3.832,5.75-6.072
	c4.258-5.761,2.604-11.281-1.715-15.486C252.547,313.008,264.197,317.994,267.822,327.594z M202.738,350.409
	c3.344,4.392,6.719,8.854,10.19,13.261c-11.924,5.163-23.683,10.694-35.616,15.834c-0.183,0.079-0.322,0.161-0.439,0.244
	c-9.149-5.57-18.296-11.146-27-17.371c1.838-1.387,3.428-3.154,4.684-5.381c3.751-6.65,3.397-14.849,4.593-22.209
	c6.881-2.355,13.652-4.996,20.734-6.709c0.242-0.06,0.436-0.145,0.596-0.242c0.268,0.346,0.565,0.699,0.908,1.06
	c1.787,1.882,3.881,3.479,6.025,4.979c-0.484,0.25-0.816,0.643-0.676,1.091c2.882,9.195,9.047,13.563,16.32,14.812
	C202.748,349.982,202.587,350.21,202.738,350.409z M197.022,392.389c-6.042-4.021-12.235-7.82-18.442-11.601
	c11.871-5.116,23.569-10.615,35.43-15.753c0.954,1.199,1.917,2.392,2.888,3.578c-0.549,0.098-1.077,0.36-1.281,0.771
	c-4.729,9.521-5.562,19.982-8.686,29.961C203.663,396.891,200.319,394.583,197.022,392.389z M179.003,324.708
	c0.079,0.514,0.251,1.052,0.527,1.613c-0.041,0.008-0.073,0.002-0.115,0.013c-0.159,0.039-0.316,0.083-0.475,0.123
	c-6.617,1.643-12.972,4.064-19.404,6.291c2.401-11.635,8.56-22.538,15.684-31.997c2.51,6.121,5.361,12.354,9.103,17.886
	C180.832,319.894,178.581,321.959,179.003,324.708z M190.184,335.775c0.098,0.065,0.194,0.132,0.291,0.197
	c2.292,1.557,5.634,3.117,7.247,5.45c0.745,1.077,3.508-0.039,2.653-1.274c-2.521-3.644-7.973-5.971-11.488-8.512
	c-2.343-1.693-4.686-3.518-6.41-5.861c-2.243-3.051,0.38-4.566,3.063-5.406c0.872,1.19,1.786,2.347,2.757,3.451
	c-0.358-0.01-0.716-0.02-1.068-0.034c-0.939-0.039-3.136,1.327-1.189,1.409c1.157,0.049,2.357,0.064,3.584,0.056
	c0.556,0.518,1.634,0.368,2.29-0.056c15.484-0.602,34.634-6.084,40.39-21.098c0.29-0.756-2.554-0.41-2.878,0.437
	c-0.135,0.353-0.287,0.692-0.438,1.034c-0.474-1.584-0.94-3.17-1.4-4.758c4.022-0.557,7.378,0.61,8.784,4.856
	c1.173,3.544,0.705,7.646,0.381,11.282c-0.077,0.856,2.151,0.498,2.737-0.156c4.694,3.947,6.299,8.936,2.408,14.761
	c-1.4,2.098-3.233,3.952-5.272,5.606c-3.032,2.461-6.527,4.482-9.782,6.185c-0.224,0.117-0.452,0.228-0.678,0.342
	C213.042,350.29,196.142,351.349,190.184,335.775z M204.392,224.348c-0.673,1.082-1.678,1.968-2.947,2.7
	c-1.271,0.731-2.719,1.222-3.979,1.984c-5.239-5.061-11.68-8.024-19.544-6.077c-1.741,0.431-1.374,1.754,0.355,1.325
	c17.461-4.322,28.02,21.954,32.917,34.131c6.577,16.352,10.479,33.479,15.604,50.29c0.044,0.146,0.155,0.245,0.302,0.313
	c-7.066,10.617-22.284,14.438-34.965,14.801c-7.186-7.535-11.487-17.526-15.317-27.058c-3.811-9.479-6.865-19.242-9.988-28.962
	c-0.446-1.39-3.339-0.597-2.897,0.776c3.207,9.981,6.409,19.959,10.292,29.704c-6.205,7.957-11.392,16.556-14.996,26.007
	c-3.091,8.108-3.288,16.384-4.866,24.782c-1.262,6.708-4.27,12.465-11.126,14.596c-9.241,2.872-20.608,0.322-29.791-1.529
	c-15.856-3.193-34.135-8.217-45.597-20.449c-12.646-13.5-0.531-29.92,9.854-40.441c0.229-0.096,0.435-0.235,0.582-0.428
	c6.693-8.788,13.336-17.768,18.162-27.75c3.688-7.63,6.542-15.596,10.435-23.146c11.956-23.188,33.121-53.283,62.311-53.113
	c3.832,8.167,9.567,15.039,15.384,21.875c0.643,0.756,3.42-0.273,2.692-1.128c-5.902-6.938-11.766-13.881-15.538-22.257
	c-0.064-0.141-0.179-0.241-0.322-0.311c2.5-2.851,5.64-5.263,9.327-6.254c5.693,12.225,16.286,21.407,24.427,31.949
	c0.058,0.074,0.116,0.147,0.173,0.221C205.325,222.229,205,223.372,204.392,224.348z M185.47,191.278
	c3.868-3.303,7.21-7.998,12.227-9.596c0.081-0.025,0.135-0.063,0.207-0.092c2.085,0.836,4.754,0.569,6.798,0.174
	c0.478-0.092,1.395-0.589,1.228-1.212c-0.179-0.668-1.19-0.528-1.669-0.436c-2.272,0.438-5.104,0.36-6.264-2.01
	c-1.12-2.291-0.505-5.15,0.228-7.455c0.882-2.773,2.371-5.474,4.259-7.69c0.831-0.976,1.68-1.792,2.718-2.44
	c0.083-0.052,0.19-0.107,0.305-0.162c0.729-0.045,1.363-0.06,1.916-0.034c1.065,0.624,1.797,2.139,2.21,3.37
	c0.979,2.918,1.166,6.117,1.167,9.218c-0.703,0.382-1.135,0.9-0.002,0.937c-0.003,0.348-0.007,0.695-0.013,1.039
	c-0.007,0.422,0.283,0.653,0.681,0.738v0.139c0,0,6.952,0.011,10.952-3.911c1.539-1.509,2.732-3.332,3.719-5.161
	c0.305-0.364,0.604-0.736,0.896-1.126c4.356-5.828,7.326-14.74,14.8-16.869c-0.54,0.581-1.005,1.228-1.396,1.948
	c-2.158,1.847-3.792,4.067-1.184,5.285c3.945,1.841,11.888-1.452,15.066-2.925c0.538,5.875,3.672,11.789,8.271,15.718
	c-3.834,7.172-8.082,13.987-8.367,22.398c-0.075,2.23,0.771,4.425,1.498,6.49c0.395,1.118,0.82,2.26,0.838,3.458
	c0.037,2.386-6.227,1.365-7.359,1.27c-0.387-0.032-0.771,0.094-1.095,0.299c-0.702,0.105-1.454,0.453-1.625,0.958
	c-1.711,5.07-3.851,13.775-10.593,13.664c-5.453-0.091-10.611-3.896-15.189-6.448c-7.176-4.001-12.844-2.307-16.752,3.984
	c-6.481-7.581-13.694-14.798-18.567-23.457C185.408,191.32,185.444,191.3,185.47,191.278z M123.386,471.171
	c-0.29,2.09-4.171,2.174-5.652,2.31c-2.845,0.258-5.695-0.05-8.541,0.077c-5.769,0.257-18.649,2.53-19.396-5.939
	c-0.529-6.015,1.067-13.206,2.85-18.937c0.106-0.342-0.081-0.546-0.4-0.639c-2.704-2.391,0.023-8.822,0.884-11.514
	c1.282-4.013,3.036-7.916,4.034-12.016c0.175-0.003,0.373-0.025,0.595-0.079c4.708-1.114,10.166-1.467,14.194,1.664
	c0.09,0.069,0.208,0.113,0.344,0.138c-0.762,12.362-0.042,24.422,3.639,36.307c-4.888-0.237-10.301,0.533-13.4-0.014
	c-1.037-0.184-3.434,1.416-1.736,1.717c4.548,0.802,10.733-0.582,15.799,0.26c0.045,0.053,0.107,0.093,0.176,0.127
	c-0.042,0.057-0.084,0.113-0.093,0.176c0,0.007-0.001,0.014-0.002,0.02c-0.025,0.226,0.052,0.339,0.271,0.422
	c1.041,0.396,2.293,0.557,3.617,0.611c0.469,0.274,0.923,0.576,1.341,0.944C123.035,467.8,123.587,469.727,123.386,471.171z
	 M118.676,465.002c0.027,0.009,0.052,0.021,0.08,0.031c-0.175,0.068-0.402,0.135-0.703,0.195
	C118.268,465.186,118.479,465.104,118.676,465.002z M178.005,463.839c-16.166,0.024-32.33,0.259-48.495,0.257
	c-2.261,0-4.522-0.01-6.785-0.036c-1.034-0.554-2.231-0.926-3.533-1.165c-4.163-12.771-4.863-25.691-3.88-39.043
	c9.417-0.199,18.809-1.056,28.231-1.119c0.048,0,0.102-0.006,0.158-0.014c2.662,0.619,5.328,1.22,7.998,1.794
	c8.301,1.784,19.392,5.242,27.919,3.026c1.762-0.459,1.318-2.094-0.438-1.637c-3.236,0.842-7.077,0.096-10.325-0.318
	c-5.915-0.754-11.775-1.979-17.598-3.25c-11.983-2.616-23.888-5.75-35.593-9.415c-12.337-3.864-22.928-9.894-31.727-19.64
	c-6.474-7.173-10.08-16.241-12.838-25.386c-2.074-6.875-0.993-14.226-2.142-21.138c11.401,9.997,28.936,14.222,42.765,17.155
	c10.148,2.151,25.781,5.476,35.939-0.112c17.974,12.783,37.679,22.959,55.61,35.831c0.976,0.7,1.933,1.409,2.877,2.126
	c-0.112,0.688,0.527,0.988,1.235,0.964c6.625,5.169,12.455,10.915,16.903,18.271c5.227,8.646,11.111,22.675,5.138,32.267
	c-5.31,8.524-18.541,9.674-27.511,10.334c-2.166,0.159-4.332,0.246-6.5,0.292c-0.474-0.458-1.522-0.38-2.161,0.035
	C188.174,463.97,183.089,463.832,178.005,463.839z M271.187,470.549c-25.175,0-50.35,0-75.524,0c0-1.754,0-3.508,0-5.262
	c2.08-0.09,4.156-0.203,6.227-0.355c8.087-0.595,16.46-1.959,23.644-5.914c5.539-3.051,8.229-7.726,8.893-13.271
	c3.136,0.006,6.656,0.058,9.604-0.89C251.683,453.665,277.716,455.514,271.187,470.549z M251.514,399.502
	c0.476,11.583-2.004,23.227-3.533,34.67c-0.354,2.663-0.621,6.309-2.841,8.162c-0.146,0.121-0.303,0.23-0.466,0.334
	c-0.383,0.09-0.749,0.268-1.001,0.495c-2.625,1.022-6.483,0.68-9.102,0.624c0.047-1.339-0.004-2.719-0.157-4.135
	c-1.801-16.576-12.686-28.742-25.199-38.553c3.469-10.244,4.198-21.102,8.948-30.953c4.881,5.871,10.009,11.516,15.568,16.593
	c5.223,4.769,11.757,8.479,18.193,12.034C251.668,398.964,251.502,399.213,251.514,399.502z M295.043,423.188
	c-0.139-0.211-0.364-0.332-0.625-0.386c-9.244-7.271-19.568-13.225-29.625-19.268c-9.145-5.495-19.646-10.363-27.787-17.319
	c-11.874-10.145-21.565-23.68-31-36.102c6.963,0.412,14.627-1.653,21.283-4.883c3.563-1.729,7.076-3.822,10.252-6.31
	c16.293,5.797,24.174,23.73,33.406,37.009c4.599,6.614,9.349,13.313,14.648,19.386c5.5,6.304,12.395,10.71,19.938,14.183
	c0.02,0.111,0.111,0.214,0.318,0.289c5.541,2.045,11.546,0.97,17.234,2.603c5.104,1.465,10.206,2.951,15.062,5.113
	c1.201,0.534,2.728,0.417,4,0.405c0.64-0.004,1.062,0.084,1.319,0.233c0.005,0.424,0.014,0.849,0.024,1.271
	c-0.891,1.307-3.534,3.019-4.693,3.213c-2.124,0.357-4.213,0.306-6.339-0.088c-3.791-0.698-7.3-1.661-10.86-0.18
	c-1.119,0.029-2.737,1.024-1.671,1.625c7.021,3.957,14.066,9.631,19.186,15.865c0.608,0.743,2.58,3.168,0.47,2.837
	c-0.196-0.11-0.443-0.166-0.708-0.17c-2.004-0.575-3.921-1.901-5.646-2.983c-4.396-2.764-8.419-6.078-12.771-8.908
	c-0.899-0.586-3.538,0.688-2.277,1.508c2.107,1.371,11.882,9.826,18.741,12.133c-1.104,2.848-8.706-1.236-10.238-2.056
	c-3.543-1.896-6.859-4.398-9.529-7.401c-0.892-1.001-3.639,0.176-2.65,1.286c4.001,4.5,9.362,8.125,15.086,10.171
	c-0.074,0.149-0.108,0.311-0.078,0.483c0.468,2.629-0.752,1.936-2.679,1.063c-1.914-0.865-3.7-2.031-5.445-3.189
	c-3.08-2.043-6.22-4.289-8.88-6.869c-0.847-0.82-3.592,0.318-2.67,1.214c4.091,3.966,9.114,7.515,14.162,10.121
	c0.342,0.177,0.712,0.34,1.093,0.491C318.313,453.648,297.887,427.5,295.043,423.188z M318.126,458.496
	c0.645,0.176,3.177-0.871,2.391-1.085c-2.352-0.642-5.082-0.798-7.752-0.458c0.837-2.581,1.795-5.458,4.646-6.379
	c0.131-0.042,0.4-0.125,0.663-0.244c3.319,1.73,6.985,2.547,9.647-0.008c2.503,0.385,4.809-0.26,4.793-3.174
	c2.748,0.564,6.128,0.316,7.174-2.313c1.708,0.072,3.035-0.548,3.695-2.225c0.454-1.153-0.192-2.56-1.258-3.946
	c0.309-0.045,0.587-0.107,0.739-0.171c0.588-0.25,1.199-0.443,1.822-0.592c0.602,0.351,1.646,0.184,2.169-0.317
	c6.636-0.394,13.789,4.217,12.919,11.446c-0.023,0.194,1.685,0.105,2.488-0.326c0.098,0,0.202-0.004,0.319-0.016
	c5.383-0.529,9.126,3.01,10.794,7.723c-2.161-0.119-4.296-0.119-6.174-0.115c-1.161,0.002-3.057,1.768-1.095,1.764
	c4.22-0.008,8.499-0.15,12.634,0.826c5.566,1.316,6.692,5.627,5.159,10.608c-26.777,0-53.555,0-80.331,0
	c0.096-0.095,0.148-0.192,0.13-0.29C301.987,460.387,310.539,456.427,318.126,458.496z M463.078,317.488
	c0.635-0.716,0.833-1.659,1.606-2.275c0.794-0.632,2.497-1.234,3.414-0.595c2.06,1.434,2.428,3.221,2.431,5.604
	c0.001,1.102-2.897,1.642-2.897,0.776c-0.001-0.948,0.05-1.979-0.255-2.894c-0.209-0.626-0.562-1.116-0.992-1.549
	c-0.014,0.028-0.03,0.056-0.044,0.083c-0.164,0.32-0.332,0.614-0.571,0.884c-0.472,0.531-1.211,0.791-1.915,0.782
	C463.479,318.3,462.603,318.023,463.078,317.488z M474.132,334.08c-4.57,4.272-10.854,5.344-16.285,2.002
	c-1.232-0.76,1.425-1.993,2.29-1.461c4.047,2.49,8.142,2.181,11.649-1.101C472.529,332.827,475.39,332.904,474.132,334.08z
	 M477.41,310.736c0.754,0.752-1.986,1.83-2.693,1.123c-1.25-1.248-2.396-2.469-3.207-4.054c-0.415-0.809,2.397-1.754,2.897-0.775
	C475.149,308.479,476.271,309.596,477.41,310.736z M486.596,335.32c0.605-0.375,1.346-0.528,2.049-0.55
	c-0.506,0.015,0.217-0.049,0.351-0.065c0.32-0.041,0.643-0.08,0.966-0.096c0.837-0.043,1.744-0.068,2.551,0.197
	c2.104,0.696,2.305,2.596,1.916,4.555c-0.139,0.695-2.982,1.157-2.855,0.519c0.334-1.68,0.143-3.717-1.866-4.067
	c-0.985-0.172-1.905,0.092-2.945,0.121C486.189,335.95,486.15,335.594,486.596,335.32z M503.059,355.037
	c2.441-0.676,4.844-1.752,7.03-3.055c3.546-2.113,13.854-11.343,6.093-14.299c6.638-2.673,11.65-8.552,12.928-15.715
	c1.315-7.385-3.685-10.934-9.788-11.445c5.002-6.799-2.823-16.571-8.027-21.184c-5.876-5.208-14.46-9.18-22.146-7.063
	c-0.018-0.104-0.05-0.208-0.115-0.315c-5.029-8.136-14.697-9.216-23.026-5.836c-5.415,2.197-10.4,7.794-6.628,12.665
	c-6.564,2.266-14.269,7.983-8.836,14.623c1.786,2.182,4.188,3.159,6.703,3.165c0.087,0.019,0.171,0.029,0.257,0.047
	c-4.361,5.004-7.689,10.87-13.889,13.92c-0.578,0.284-1.043,0.843-0.688,1.479c1.316,2.354,2.778,3.687,5.081,4.658
	c-2.097,5.624-4.64,12.976-0.321,18.063c3.971,4.677,12.063,5.897,18.203,7.185c-10.03,3.374-19.425,11.632-27.73,16.729
	c-0.411,0.252-0.626,0.541-0.697,0.818c-0.444,0.194-0.805,0.509-0.882,0.914c-0.789,4.15-0.084,8.099,1.538,11.83
	c-4.082,6.709-8.914,13.916-15.321,18.802c-0.952-1.38-1.903-2.761-2.854-4.143c-0.322-0.467-1.526-0.155-1.904,0.023
	c-6.667,3.164-13.527,6.208-19.881,9.981c-1.303-0.804-2.47-1.854-3.479-3.087c0.446-0.056,0.877-0.229,1.124-0.534
	c6.55-8.089,3.013-16.73,0.242-25.623c-0.302-0.97-1.797-0.693-2.403-0.246c-4.627,3.418-6.591,9.311-6.286,15.189
	c-4.317-5.034-9.239-8.969-16.996-8.284c-0.607,0.054-2.023,0.271-2.042,1.101c-0.234,10.039,13.105,16.652,22.397,17.945
	c1.271,1.979,2.881,3.682,4.805,4.939c-0.429,0.207-0.854,0.432-1.271,0.688c-0.039,0.024-0.092,0.064-0.146,0.114
	c-6.768,3.39-13.571,6.825-20.017,10.796c-0.167,0.104-0.251,0.185-0.281,0.25c-0.057,0.066-0.08,0.131-0.057,0.187
	c3.257,7.842,6.55,15.663,10.925,22.962c3.725,6.213,8.388,11.92,15.854,13.154c10.936,1.808,26.395-2.87,31.774-13.344
	c1.448,2.725,3.198,5.269,5.171,7.513c0.187,0.211,0.491,0.304,0.834,0.313c0.018,0,0.034,0,0.053,0
	c-0.013,0.009-0.024,0.017-0.037,0.024c-0.587,0.379-1.173,0.76-1.753,1.152c-0.495,0.334-0.601,0.588-0.487,0.767
	c-0.027,0.043-0.03,0.078,0.005,0.099c4.951,2.913,9.951,5.793,15.049,8.471c-2.831,0.225-5.694,0.856-7.811,2.709
	c-2.6,2.276-2.842,5.754-2.858,8.992c0,0.116,0.025,0.215,0.062,0.305c-0.017,0.238,0.152,0.428,0.601,0.483
	c0.24,0.065,0.521,0.073,0.801,0.033c6.452,0.224,34.979,3.248,45.393-2.054c0.139,0.078,0.337,0.137,0.622,0.158
	c5.644,0.42,17.799,1.326,18.573-6.879c0.672-7.103-6.253-15.478-9.941-21.438c5.566-0.199,11.138-0.881,16.257-2.402
	c1.875-0.557,3.688-1.229,5.417-2.029c6.616-3.065,12.008-8.036,14.881-15.936C543.396,395.131,521.17,373.121,503.059,355.037z
	 M393.748,380.314c2.303,7.066,4.907,14.34,0.51,20.938c-1.008-1.209-1.984-2.462-2.954-3.716
	C389.354,391.611,389.875,384.665,393.748,380.314z M371.24,385.667c7.889,0.29,12.547,6.448,17.089,12.491
	c0.349,1.137,0.784,2.242,1.305,3.292C381.556,399.501,371.856,393.632,371.24,385.667z M481.439,354.195
	c0.125,0.055,0.261,0.078,0.398,0.09c3.315,1.915,6.356,4.229,9.006,6.873c2.049,2.043,3.861,4.281,5.385,6.679
	c4.467,7.028,6.442,15.425,4.521,24.313c-2.704,12.5-23.026,20.281-29.722,6.891c4.322-2.785,8.508-5.781,12.409-9.119
	c1.283-1.098-1.601-1.134-2.332-0.509c-6.426,5.498-13.646,10.043-20.991,14.218c-9.045-8.582-22.96-19.932-20.646-33.221
	C451.358,363.107,466.32,347.717,481.439,354.195z M439.255,384.541c4.37,8.021,12.614,14.987,18.651,20.779
	c-8.977-1.635-17.982-2.596-24.533,5.504c-1.605,1.984-2.813,4.117-3.684,6.341c-3.741,4.442-8.335,8.221-13.008,11.636
	c-0.482,0.354-6.103,4.598-6.74,3.852c-0.761-0.89,1-3.375,1.924-4.631c0.344-0.229,0.676-0.582,0.366-0.891
	c-0.467-0.463-1.395-0.18-1.91,0c-2.198,0.768-5.183,2.71-7.638,2.428c-0.12-1.039,0.938-2.089,1.52-2.842
	c0.754-0.976,1.463-1.947,1.918-3.101c0.042-0.108,0.036-0.197-0.006-0.271c0.53-0.374,1.02-0.76,1.438-1.148
	c0.511-0.477-0.439-0.619-0.72-0.606c-0.68,0.03-1.424,0.256-1.93,0.728c-0.957,0.891-6.163,4.016-7.082,2.195
	c-0.493-0.974,3.448-2.764,3.635-4.039c0.001-0.008-0.002-0.015-0.001-0.022c0.437-0.083,0.865-0.228,1.23-0.465
	c0.446-0.29,0.396-0.665-0.178-0.665c-2.622-0.002-4.948-0.303-7.432-1.12c-1.028-0.338-1.335-1.028-0.418-1.713
	c2.163-1.616,5.231-2.417,7.816-3.073c0.259-0.064,1.445-0.4,1.323-0.857c-0.033-0.125-0.146-0.189-0.294-0.222
	c-1.4-0.518-2.729-1.173-3.985-1.971c-3.584-2.086,1.892-2.703,3.49-2.833c2.836-0.23,5.675-0.253,8.507-0.561
	c3.796-0.411,7.104-1.709,10.396-3.599c0.13-0.073,0.254-0.159,0.382-0.235c0.484-0.146,0.929-0.396,1.114-0.684
	C430.01,398.133,435.035,391.24,439.255,384.541z M417.69,398.633c0.922,1.336,1.842,2.671,2.763,4.007
	c-0.862,0.545-1.744,1.061-2.661,1.515c-5.025,2.486-10.741,1.787-16.153,2.453C406.825,403.673,412.305,401.169,417.69,398.633z
	 M430.811,440.07c-3.348,12.828-21.967,19.602-33.416,13.49c-5.78-3.087-9.486-10.176-12.472-15.711
	c-3.149-5.839-5.664-12-8.205-18.119c5.803-3.547,11.891-6.658,17.972-9.709c1.737,1.134,3.486,2.177,5.366,3.027
	c-2.82,0.788-5.803,1.838-7.978,3.59c-1.013,0.815-1.292,1.813,0.022,2.465c2.092,1.036,4.493,1.326,6.829,1.402
	c-0.192,0.127-0.324,0.271-0.347,0.426c-0.181,1.235-2.322,2.131-3.16,2.98c-1.172,1.188-0.121,2.191,1.186,2.388
	c1.729,0.259,3.785-0.16,5.73-0.929c-1.532,2.086-4.137,5.369-1.257,5.744c2.461,0.322,4.958-0.652,7.333-1.652
	c-1.062,1.627-2.317,3.982-0.813,4.359c1.888,0.473,4.138-0.715,5.76-1.528c5.412-2.714,10.702-6.802,15.181-11.293
	c-1.332,6.261-0.29,12.964,2.291,19.024C430.827,440.041,430.814,440.055,430.811,440.07z M443.389,472.068
	c0.028-2.092,0.176-4.252,1.263-6.08c1.675-2.817,6.251-2.747,9.055-2.771c0.205-0.002,0.422-0.058,0.634-0.145
	c1.602,0.806,3.212,1.592,4.837,2.344c0.759,0.351,2.987-0.85,2.736-0.966c-7.777-3.597-15.27-7.862-22.654-12.202
	c2.192-1.447,4.427-2.801,6.697-4.079c4.578-2.579,9.294-4.866,14.075-7.036c4.47-2.029,8.992-3.963,13.511-5.943
	c5.269,9.696,10.842,19.297,14.238,29.826c-0.015,0.099-0.013,0.199,0.025,0.306C491.797,476.241,452.189,472.438,443.389,472.068z
	 M493.349,444.025c3.329,5.703,7.328,11.25,9.545,17.514c3.233,9.134-6.654,9.184-13.252,8.734c0.678-0.68,1.141-1.45,1.356-2.321
	c0.375-0.265,0.605-0.642,0.481-1.079c-2.34-8.291-6.104-15.984-10.151-23.539c3.798,0.281,7.836,0.484,11.933,0.467
	C493.276,443.875,493.305,443.949,493.349,444.025z M525.296,432.229c-2.497,2.928-5.704,5.323-9.719,6.997
	c-4.303,1.794-8.955,2.712-13.715,3.115c-2.014,0.17-4.045,0.256-6.078,0.267c-0.104-0.062-0.227-0.103-0.361-0.125
	c-0.204,0.002-0.406,0.004-0.604,0.004c-0.151,0.023-0.305,0.062-0.453,0.111c-1.587-0.016-3.173-0.066-4.747-0.145
	c-3.103-0.152-6.161-0.398-9.115-0.649c-1.546-2.856-3.122-5.698-4.665-8.548c-0.366-0.676-1.472-0.574-2.172-0.104
	c-2.211-2.168-4.447-4.285-6.332-6.763c-0.483-0.636-3.266,0.32-2.715,1.044c1.996,2.623,4.385,4.844,6.723,7.146
	c-10.6,4.631-21.207,9.05-31.056,15.117c-0.02-0.1-0.061-0.199-0.146-0.298c-8.166-9.288-12.179-22.62-6.622-34.239
	c6.108-12.774,18.27-8.808,29.329-6.877c0.245,0.043,0.489,0.084,0.733,0.125c0.625,0.104,1.246,0.202,1.86,0.287
	c1.264,0.175,3.021-1.593,1.068-1.86c-1.485-0.205-2.994-0.468-4.516-0.75c0.14-0.238,0.131-0.5-0.122-0.751
	c-0.163-0.162-0.334-0.327-0.502-0.49c2.415-1.365,4.813-2.771,7.179-4.236c3.961,6.874,12.04,8.037,19.384,5.994
	c1.954-0.544,3.856-1.313,5.614-2.263c2.455-1.327,4.631-3.003,6.275-4.901c6.285-7.257,5.387-18.947,2.166-27.277
	s-10.177-14.813-17.794-19.189c-0.178-0.102-0.354-0.205-0.53-0.305c-0.09-0.174-0.267-0.335-0.563-0.463
	c-4.305-1.844-8.545-2.135-12.69-1.43c-0.104-0.095-0.263-0.174-0.488-0.229c-5.997-1.489-12.986-2.402-18.228-5.894
	c-6.111-4.07-2.617-13.147-0.633-18.455c0.038-0.103,0.06-0.195,0.069-0.282c0.092-0.323-0.056-0.64-0.612-0.837
	c-2.09-0.746-3.343-1.793-4.439-3.489c6.426-3.682,9.866-10.017,14.856-15.262c0.254-0.153,0.458-0.343,0.59-0.573
	c0.019-0.031,0.054-0.072,0.075-0.105c3.567-1.572,5.982-5.123,9.248-7.144c0.984,1.401,5.089,7.085,8.149,8.918
	c1.979,1.187,4.754,2.521,6.79,3.456c0.198,0.246,0.386,0.505,0.579,0.758c-0.251,0.077-0.464,0.174-0.582,0.286
	c-5.88,5.505-5.168,13.911,2.566,16.888c-0.281,0.157-0.56,0.317-0.827,0.485c-1.664,1.043,0.752,1.983,1.905,1.261
	c5.93-3.719,8.956,2.245,8.466,7.644c-0.252,2.782-1.44,5.612-3.715,7.321c-3.184,2.394-7.681,0.721-10.79-0.895
	c-1.08-0.561-3.644,0.909-2.243,1.637c1.666,0.865,3.436,1.594,5.243,2.027c-0.164,0.261-0.199,0.566-0.019,0.886
	c0.727,1.29,1.562,2.357,2.477,3.241c3.156,3.047,7.295,3.816,11.516,3.198c-0.141,0.153-0.184,0.307-0.055,0.436
	c16.158,16.136,34.16,32.958,31.981,57.798c-0.369,4.211-1.298,8.199-2.881,11.777C528.347,428.029,526.983,430.251,525.296,432.229
	z" fill="#0984E3"></path>
</svg>
