<svg version="1.1" id="color_x5F_1" xmlns="http://www.w3.org/2000/svg" xmlns:xlink="http://www.w3.org/1999/xlink" x="0px" y="0px" width="600px" height="600px" viewBox="0 0 600 600" enable-background="new 0 0 600 600" xml:space="preserve">
<path id="color_x5F_14" fill="#6BA7D0" d="M571.376,311.137L571.376,311.137v17.639l-80.935,46.867
	c0.504-2.217,0.102-4.535-1.41-7.055c1.914-2.722,2.217-5.846,0.402-9.273L571.376,311.137z M436.822,390.459
	c-0.102,0-0.102,0-0.202,0l-21.367,12.599c3.226,16.831-14.917,20.561-34.873,20.561l-105.829,62.389L40.215,350.949v13.404
	l234.336,136.268l192.911-111.674C458.491,390.66,447.707,391.365,436.822,390.459z"></path>
<path id="color_x5F_13" fill="#F3BA63" d="M325.248,240.786l-6.552-2.52v-5.443c0,0,2.621,2.117,5.946,0.706
	c1.311-0.604,2.117-2.419,2.621-4.737c0.303,0,0.504,0,0.807,0c4.535,0.303,8.566,1.714,12.296,3.629l-14.816,8.567L325.248,240.786
	z M467.663,343.391c0.605,0.302,1.311,0.705,2.117,1.107c11.188,5.242,17.336,10.281,19.755,14.816
	c1.813,3.428,1.512,6.451-0.403,9.273c-6.249,8.768-29.027,13.808-52.209,11.893c-22.88-1.814-22.778,8.063-22.778,8.063
	c0.906,2.318,1.411,4.536,1.512,6.451c0.201,2.419,0,4.535-0.706,6.35c-7.055,19.956-61.784,9.374-76.802,9.475
	c-15.42,0.201-24.29,2.419-42.734,0.907c-60.675-7.862-40.417-44.146-91.92-52.915c-48.278-8.265-81.438-29.632-87.485-53.016
	c-0.403-1.512-0.706-3.124-0.806-4.736c-1.311-13.405,18.646-12.7,35.881-13.909c10.381-0.706,19.755-2.117,22.879-7.761
	c1.411-2.52,1.512-5.947-0.202-10.482c-1.311-3.527-2.117-6.753-2.52-9.776c-3.628-24.492,18.243-35.276,50.697-38.703
	c0.302,0,0.504,0,0.806-0.101c-1.209,13.204-3.527,27.516-7.257,41.727c-1.008,3.729-4.636,20.46,11.994,20.46
	c10.785,0,15.824-8.164,16.529-18.344c0.605-9.979,1.311-26.81,0.303-44.247c6.854,0.504,13.103,1.512,18.848,2.923
	c14.01,3.427,24.391,8.769,32.152,12.397c1.915,0.907,3.527,1.512,5.039,1.814c-1.915,2.217-4.031,5.846-4.333,10.482
	c-0.403,8.668,2.116,46.666,2.116,46.666s5.04,11.994,18.243,12.7c5.544,0.807,16.026,2.217,22.376,2.721
	c4.938,0.403,16.832-2.922,26.508-5.946c3.628,1.915,7.559,4.032,8.566,0.302c0.303-1.008,0.101-2.016-0.302-2.922
	c3.527-1.21,5.745-2.016,5.745-2.016s6.752-5.04,2.721-11.289c-4.132-6.148-8.567-4.938-8.567-4.938l-27.414-1.109l-3.226-2.822
	c0,0-0.907-4.233-0.403-6.249c0.504-2.016,1.915-1.915,0.807-2.923c-1.108-1.008-7.963,0.706-7.357,3.125l-4.939-4.334
	c0-3.125,0-5.443,0-5.443l7.963,2.822c0,0,0.303-0.202,0.705-0.504c0,0,9.374,4.435,12.901,4.334
	c2.318-0.101,14.211-6.955,22.477-11.994c0.402-0.302,0.906-0.504,1.31-0.806c17.94,6.753,45.053-4.636,56.442,26.709
	c24.492,16.429,51.504,5.846,59.466,25.903c1.714,4.334,1.512,7.862,0.201,10.685c-3.124,6.651-12.599,9.574-19.452,11.287
	C465.144,333.714,457.383,337.746,467.663,343.391z M197.85,321.619c0-0.402-0.201-0.807-0.705-1.108c0,0-0.101,0-0.101-0.101
	l-0.101-0.102c-1.109-0.604-2.822-0.604-3.83,0c-0.605,0.303-0.806,0.706-0.806,1.109l0,0c0.101,1.008,1.512,1.814,2.923,1.814
	C196.439,323.333,197.85,322.627,197.85,321.619z M219.822,296.926c0-0.504-0.302-1.108-1.008-1.512l-0.101-0.101
	c-0.101,0-0.101-0.101-0.202-0.101c-1.512-0.806-3.729-0.706-5.14,0.101c-0.706,0.403-1.109,1.008-1.109,1.512l0,0
	c0.101,1.411,1.915,2.419,3.729,2.419C217.907,299.244,219.822,298.337,219.822,296.926z M241.088,349.639
	c0-1.108-0.604-2.217-2.016-3.125c-0.101-0.1-0.202-0.1-0.302-0.201c-0.101-0.101-0.202-0.101-0.303-0.201
	c-3.023-1.512-7.761-1.512-10.583,0.201c-1.512,0.907-2.217,2.016-2.217,3.226v0.101c0.101,2.923,4.031,4.939,7.861,4.939
	C237.158,354.477,240.988,352.461,241.088,349.639z M320.107,330.69c0.101,1.411,1.915,2.419,3.729,2.419s3.628-1.008,3.729-2.318
	c0-0.604-0.303-1.108-0.907-1.512c-0.102,0-0.102-0.101-0.202-0.101s-0.101-0.101-0.201-0.101c-1.512-0.807-3.729-0.706-5.141,0.101
	C320.41,329.48,320.107,330.086,320.107,330.69L320.107,330.69z M268.906,306.904c0-0.605-0.403-1.311-1.209-1.814
	c-0.101,0-0.101-0.101-0.202-0.101c-0.101,0-0.101-0.101-0.201-0.101c-1.814-0.907-4.536-0.907-6.148,0.101
	c-0.907,0.504-1.31,1.21-1.31,1.813c0,0,0,0,0,0.102c0.101,1.713,2.318,2.923,4.636,2.923
	C266.588,309.827,268.806,308.617,268.906,306.904z M276.365,256.913c0-0.504-0.302-1.109-1.008-1.512l-0.101-0.101
	c-0.101,0-0.101-0.101-0.202-0.101c-1.512-0.807-3.729-0.706-5.14,0.101c-0.706,0.403-1.109,1.008-1.109,1.512c0,0,0,0,0,0.101
	c0.101,1.411,1.915,2.419,3.729,2.419C274.45,259.332,276.264,258.324,276.365,256.913z M290.576,388.745
	c0-0.403-0.202-0.706-0.706-1.008c0,0-0.101,0-0.101-0.101h-0.101c-1.008-0.504-2.52-0.504-3.527,0
	c-0.504,0.303-0.807,0.705-0.706,1.008l0,0c0,1.008,1.31,1.612,2.621,1.612C289.266,390.357,290.576,389.652,290.576,388.745z
	 M386.125,356.291c0-0.807-0.303-1.613-1.109-2.016l-43.742-25.197c-1.411-0.807-3.125-0.807-4.535,0l-47.271,27.313
	c-0.706,0.403-1.109,1.108-1.109,1.814l0,0v0.101c0,0.102,0,0.102,0,0.201v5.746c-2.621-0.404-5.443-0.102-7.559,1.108
	c-1.512,0.907-2.218,2.016-2.218,3.124v0.102c0.101,2.922,4.032,4.938,7.862,4.938c1.209,0,2.52-0.201,3.628-0.604l43.238,24.895
	c1.411,0.807,3.125,0.807,4.536,0l47.271-27.314c0.806-0.402,1.108-1.209,1.108-2.016v-12.195H386.125z M418.68,301.663
	c3.629,0,7.257-2.016,7.458-4.737c0-1.108-0.604-2.116-1.915-3.023c-0.101-0.101-0.201-0.101-0.302-0.202
	c-0.101-0.101-0.202-0.101-0.303-0.202c-2.923-1.512-7.458-1.411-10.18,0.202c-1.411,0.907-2.116,1.915-2.116,3.023v0.101
	C411.322,299.647,415.051,301.663,418.68,301.663z M425.735,364.857c0-0.705-0.403-1.512-1.311-2.115
	c-0.101,0-0.101-0.102-0.202-0.102c-0.101,0-0.201-0.101-0.201-0.101c-2.016-1.008-5.241-1.008-7.156,0.101
	c-1.008,0.605-1.512,1.411-1.512,2.117c0,0,0,0,0,0.1c0.101,1.916,2.722,3.326,5.241,3.326S425.634,366.773,425.735,364.857z
	 M429.464,338.451c0-0.504-0.302-1.108-0.907-1.512c0,0-0.101,0-0.201-0.102c0,0-0.101-0.1-0.201-0.1
	c-1.513-0.706-3.729-0.706-5.141,0.1c-0.706,0.404-1.108,1.009-1.108,1.513l0,0c0.101,1.411,1.915,2.419,3.83,2.419
	S429.464,339.862,429.464,338.451z"></path>
<path id="color_x5F_12" fill="#F6FBFF" d="M378.263,245.624c0-0.101,0.102-0.101,0.102-0.202v1.713
	C378.062,246.833,377.86,246.229,378.263,245.624z M360.625,246.733l2.318,1.31l1.31-0.806l-2.317-1.311L360.625,246.733z
	 M357.903,245.221l2.318,1.311l1.311-0.807l-2.318-1.31L357.903,245.221z M366.874,248.849l-2.218-1.31l-1.31,0.806l2.217,1.311
	L366.874,248.849z M345.507,242.601l-2.218-1.311l-1.311,0.807l2.218,1.31L345.507,242.601z M365.16,249.857l-2.217-1.311
	l-0.807-0.504l-1.915-1.108l-1.311,0.806l2.218,1.31l0.403,0.303l2.217,1.31L365.16,249.857z M360.726,249.354l-2.218-1.311
	l-1.31,0.806l2.217,1.311L360.726,249.354z M363.347,250.865l-2.218-1.311l-1.311,0.807l2.218,1.31L363.347,250.865z
	 M355.283,243.608l2.217,1.31l1.311-0.706l-2.217-1.31L355.283,243.608z M339.258,240.484l2.217,1.31l1.311-0.706l-2.218-1.31
	L339.258,240.484z M342.685,238.468l2.318,1.311l1.31-0.806l-2.318-1.311L342.685,238.468z M340.971,239.476l2.218,1.31l1.311-0.806
	l-2.218-1.311L340.971,239.476z M358.004,247.741l-2.217-1.311l-1.311,0.807l2.218,1.31L358.004,247.741z M347.119,238.972
	l2.318,1.31l1.31-0.806l-2.317-1.311L347.119,238.972z M349.841,240.484l2.217,1.31l1.311-0.806l-2.218-1.31L349.841,240.484z
	 M344.499,237.359l2.317,1.31l1.311-0.806l-2.318-1.31L344.499,237.359z M352.562,242.097l2.218,1.31l1.311-0.806l-2.218-1.311
	L352.562,242.097z M368.688,182.832l-2.017-1.209l-0.302-0.202v4.536l2.318,1.311V182.832z M368.688,191.097l-2.318-1.31l0,0v1.915
	v2.621l2.318,1.31V191.097z M348.228,244.112l-2.317-1.311l-1.311,0.807l2.318,1.31L348.228,244.112z M353.469,244.616l2.318,1.31
	l1.311-0.806l-2.318-1.209L353.469,244.616z M360.726,252.881l2.318,1.311l1.311-0.807l-2.318-1.31L360.726,252.881z
	 M361.633,167.714c0.201,0.202,0.403,0.403,0.705,0.604c1.411,1.209,2.822,2.117,4.233,2.52l-8.466-34.772
	c-1.512,1.209-2.621,3.225-3.326,5.846c-2.117,7.862,0.705,18.848,6.249,24.996C361.129,167.21,361.33,167.411,361.633,167.714z
	 M366.37,206.417v4.536l2.318,1.31v-4.536l-0.807-0.504L366.37,206.417L366.37,206.417z M372.417,170.233
	c0.102,0,0.102-0.101,0.202-0.202c0.101,0,0.101-0.101,0.201-0.101c0.101-0.101,0.101-0.101,0.202-0.202
	c0.101-0.101,0.101-0.101,0.201-0.202c0.101-0.101,0.101-0.101,0.201-0.202c0.102-0.101,0.102-0.101,0.202-0.201
	c0.101-0.101,0.101-0.101,0.201-0.202c0.102-0.101,0.102-0.101,0.202-0.202s0.101-0.101,0.201-0.202
	c0.101-0.101,0.101-0.101,0.202-0.202c0-0.101,0.101-0.101,0.201-0.201c0.101-0.101,0.101-0.202,0.201-0.303
	c0-0.101,0.102-0.202,0.202-0.302c0.101-0.202,0.201-0.302,0.302-0.504c0-0.101,0.102-0.202,0.102-0.302
	c0-0.101,0.101-0.202,0.201-0.303c0-0.101,0.101-0.201,0.101-0.302c0-0.101,0.102-0.202,0.102-0.302s0.101-0.202,0.101-0.302l0,0
	c0-0.101,0.101-0.202,0.101-0.303c0-0.101,0.101-0.202,0.101-0.302s0.101-0.202,0.101-0.302c0-0.101,0.102-0.202,0.102-0.302
	c0-0.101,0.101-0.303,0.101-0.403c0.101-0.302,0.101-0.504,0.201-0.806c0-0.101,0-0.303,0.102-0.403c0-0.101,0-0.302,0.101-0.403
	c0-0.101,0-0.302,0.101-0.403c0-0.101,0-0.303,0-0.403s0-0.302,0.101-0.403c0-0.101,0-0.302,0-0.403c0-0.101,0-0.303,0-0.403
	c0-0.101,0-0.302,0-0.403c0-0.101,0-0.302,0-0.403c0-0.101,0-0.303,0-0.403s0-0.302,0-0.403c0-0.101,0-0.302,0-0.403
	c0-0.101,0-0.302,0-0.403c0-0.101,0-0.302,0-0.403c0-0.101,0-0.302,0-0.403c0-0.101,0-0.303,0-0.403c0-0.202,0-0.302,0-0.403
	c0-0.201,0-0.302,0-0.403c0-0.202,0-0.302,0-0.403c0-0.202,0-0.302,0-0.403c0-0.202,0-0.303,0-0.504c0-0.101,0-0.302-0.101-0.403
	c0-0.101,0-0.303-0.101-0.403l0,0c0-0.101,0-0.302-0.101-0.403c0-0.101,0-0.302-0.102-0.403c0-0.202-0.101-0.302-0.101-0.403
	c0-0.101-0.101-0.302-0.101-0.403c0-0.101-0.101-0.303-0.101-0.403c0-0.101-0.102-0.303-0.102-0.403s-0.101-0.302-0.101-0.403
	c0-0.101-0.101-0.302-0.101-0.403c0-0.202-0.101-0.302-0.101-0.403c0-0.101-0.101-0.302-0.101-0.403
	c0-0.101-0.102-0.303-0.102-0.403s-0.101-0.302-0.101-0.403c0-0.101-0.101-0.302-0.201-0.403c0-0.101-0.102-0.302-0.102-0.403
	c-0.101-0.101-0.101-0.302-0.201-0.403c-0.101-0.101-0.101-0.302-0.201-0.403l0,0l0,0c0-0.101-0.102-0.303-0.202-0.403
	s-0.101-0.302-0.201-0.403c0-0.101-0.101-0.302-0.202-0.403c0-0.101-0.101-0.303-0.201-0.403c-0.101-0.101-0.101-0.302-0.201-0.403
	c-0.102-0.101-0.102-0.302-0.202-0.403c-0.101-0.101-0.101-0.303-0.201-0.403c-0.102-0.101-0.102-0.302-0.202-0.403l0,0
	c-0.101-0.101-0.101-0.302-0.201-0.403c-0.101-0.101-0.101-0.302-0.202-0.403l0,0l0,0c-0.101-0.101-0.101-0.202-0.201-0.302
	c-0.101-0.101-0.202-0.303-0.202-0.403c-0.101-0.101-0.201-0.202-0.201-0.302c-0.101-0.101-0.201-0.202-0.303-0.302
	c-0.101-0.101-0.201-0.202-0.201-0.303c-0.101-0.101-0.201-0.201-0.303-0.302c-0.101-0.101-0.201-0.202-0.302-0.302
	s-0.202-0.202-0.303-0.302c-0.101-0.101-0.201-0.202-0.302-0.303c-0.102-0.101-0.202-0.202-0.303-0.302s-0.201-0.202-0.303-0.302
	c-0.101-0.101-0.201-0.202-0.302-0.302c-0.101-0.101-0.202-0.202-0.303-0.303c-0.101-0.101-0.201-0.201-0.302-0.302
	c-0.102-0.101-0.202-0.202-0.303-0.302c-0.101-0.101-0.202-0.202-0.303-0.303l0,0l0,0c-0.101-0.101-0.201-0.201-0.302-0.201
	c-0.102-0.101-0.202-0.202-0.303-0.202c-0.101-0.101-0.201-0.101-0.303-0.202c-0.101-0.101-0.201-0.202-0.302-0.202
	s-0.202-0.101-0.303-0.202c-0.101-0.101-0.201-0.101-0.302-0.201c-0.102-0.101-0.202-0.101-0.303-0.202
	c-0.101,0-0.201-0.101-0.303-0.202c-0.101,0-0.201-0.101-0.302-0.202c-0.101,0-0.202-0.101-0.303-0.101s-0.201-0.101-0.302-0.101
	c-0.102,0-0.202-0.101-0.303-0.101l0,0c-0.101,0-0.202-0.101-0.303-0.101s-0.201-0.101-0.302-0.101c-0.102,0-0.202,0-0.303-0.101
	c-0.101,0-0.201,0-0.303-0.101c-0.101,0-0.201,0-0.302-0.101c-0.101,0-0.202,0-0.202,0l8.668,35.679
	C372.316,170.233,372.316,170.233,372.417,170.233z M355.283,246.229l-2.318-1.311l-1.311,0.806l2.318,1.311L355.283,246.229z
	 M368.688,199.462l-2.017-1.209l-0.302-0.202v4.536l2.318,1.311V199.462z M349.941,243.104l-2.218-1.311l-1.31,0.807l2.217,1.31
	L349.941,243.104z M343.692,240.988l2.218,1.31l1.31-0.806l-2.217-1.31L343.692,240.988z M352.662,244.616l-2.317-1.311
	l-1.311,0.807l2.318,1.31L352.662,244.616z M345.405,239.98l2.218,1.31l1.311-0.806l-2.218-1.311L345.405,239.98z M359.818,246.733
	l-2.318-1.311l-1.31,0.807l2.318,1.31L359.818,246.733z M350.849,243.104l2.217,1.31l1.311-0.806l-2.218-1.311L350.849,243.104z
	 M348.127,241.492l2.218,1.31l1.31-0.806l-2.217-1.31L348.127,241.492z M364.656,247.035l1.311-0.806l-2.318-1.311l-1.311,0.806
	L364.656,247.035z M338.754,240.686l-1.311,0.806l2.218,1.31l1.31-0.806L338.754,240.686z M341.475,242.298l-1.31,0.807l2.317,1.31
	l1.311-0.806L341.475,242.298z M336.032,239.173l-1.311,0.807l2.218,1.31l1.311-0.806L336.032,239.173z M350.849,245.624
	l-2.318-1.31l-1.311,0.806l2.318,1.31L350.849,245.624z M352.26,248.446l-1.311,0.706l2.217,1.31l1.311-0.806L352.26,248.446z
	 M340.063,239.476l-2.217-1.311l-1.311,0.807l2.318,1.31L340.063,239.476z M343.592,237.359l-2.318-1.311l-1.311,0.807l2.318,1.31
	L343.592,237.359z M341.878,238.468l-2.318-1.31l-1.31,0.806l2.317,1.311L341.878,238.468z M336.436,248.849l-10.886-7.861
	l14.816-8.567l3.124-1.814c0.605-0.403,1.411-0.403,2.017,0c-0.605-0.403-1.008-1.008-1.008-1.713v-23.988
	c0-0.807,0.806-1.209,1.512-0.907l31.346,18.041c0.604,0.303,1.008,1.008,1.008,1.714v21.367c-0.102-0.202-0.202-0.403-0.403-0.504
	c-0.202-0.101-1.008,0.101-1.714,0.806v-21.569l-29.632-17.134v21.872l29.33,17.033c-0.202,0.302-0.403,0.605-0.504,1.109
	c-0.102,0.302-0.102,0.706-0.202,1.008c-0.201,1.411-0.302,2.822-0.806,3.931l-6.854,3.931c-5.846,1.209-17.033,3.024-17.033,3.024
	l-6.249-3.628c0-0.302-0.101-0.403-0.101-0.403l-1.21-0.806c0.102,0,0.102,0,0.202,0l4.636-2.721c0.202-0.101,0.202-0.303,0-0.403
	l-7.055-4.032c-0.101-0.101-0.303-0.101-0.403,0L336.436,248.849z M332.605,239.879l28.725,16.53l12.297-7.055l-28.726-16.53
	L332.605,239.879z M337.544,345.607c-3.124,0-5.846,1.008-7.055,2.621c1.209,1.512,3.931,2.619,7.055,2.619
	c3.125,0,5.846-1.107,7.056-2.619C343.39,346.716,340.669,345.607,337.544,345.607z M484.596,242.298v42.836
	c0,0.907-0.302,1.512-0.705,1.915c-0.202,0.202-0.403,0.303-0.604,0.303l0,0c-0.403,0.101-0.807,0-1.311-0.303l-71.46-41.324
	c-0.705-0.403-1.311-1.512-1.311-2.52v-26.709V200.37c0-1.109,0.403-1.814,1.008-2.117c0.505-0.302,1.009-0.202,1.714,0.101
	l71.46,41.223C483.991,240.081,484.596,241.29,484.596,242.298z M450.933,253.083c0-0.504-0.303-1.008-0.605-1.209l-34.873-20.158
	c-0.705-0.403-1.31,0-1.31,1.008v3.527c0,0.504,0.302,1.008,0.604,1.209l34.873,20.158c0.705,0.403,1.311,0,1.311-1.008V253.083z
	 M450.933,242.802c0-0.504-0.303-1.008-0.605-1.209l-34.873-20.158c-0.705-0.403-1.31,0-1.31,1.008v3.528
	c0,0.504,0.302,1.008,0.604,1.209l34.873,20.158c0.705,0.403,1.311,0,1.311-1.008V242.802z M450.933,232.521
	c0-0.504-0.303-1.008-0.605-1.209l-34.873-20.158c-0.705-0.403-1.31,0-1.31,1.008v3.527c0,0.504,0.302,1.008,0.604,1.209
	l34.873,20.158c0.705,0.403,1.311,0,1.311-1.008V232.521z M386.125,356.291c0,0.705-0.403,1.411-1.109,1.915l-47.27,27.313
	c-1.411,0.807-3.125,0.807-4.536,0l-43.742-25.197c-0.706-0.402-1.109-1.108-1.109-1.914c0-0.102,0-0.102,0-0.202c0,0,0,0,0-0.101
	c0.101-0.706,0.403-1.411,1.109-1.814l47.271-27.314c1.41-0.806,3.124-0.806,4.535,0l43.742,25.197
	C385.822,354.678,386.125,355.484,386.125,356.291z M351.856,348.631c0,0.102,0,0.303,0,0.403c0.201-3.427-1.311-6.552-5.645-8.769
	c-5.543-2.822-14.11-2.722-19.452,0.303c-3.629,2.116-5.04,4.938-4.938,8.164l0,0l0,0v0.1v3.024
	c-0.202,8.063,9.373,18.343,15.018,23.383c5.543-5.04,15.118-15.319,14.917-23.282v-3.326H351.856z M354.88,250.059l-1.311,0.807
	l2.318,1.31l1.311-0.806L354.88,250.059z M357.602,251.571l-1.311,0.806l2.318,1.311l1.31-0.807L357.602,251.571z M362.54,254.494
	l-2.218-1.311l-1.31,0.807l2.217,1.31L362.54,254.494z M345.305,236.352l-2.217-1.311l-1.311,0.807l2.218,1.31L345.305,236.352z
	 M350.546,247.539l-0.807-0.504l-0.201-0.101l-0.403-0.202l-2.721-1.613l-0.303-0.101l-1.814-1.008l-0.201-0.101l-1.311,0.806
	l2.318,1.311l0.403,0.302l2.217,1.31l0.403,0.303l2.218,1.31l1.31-0.806L350.546,247.539z M362.54,251.873l2.318,1.31l1.31-0.806
	l-2.317-1.31L362.54,251.873z M364.253,250.865l2.218,1.31l1.311-0.806l-2.218-1.311L364.253,250.865z M361.633,251.873
	l-2.318-1.311l-1.311,0.807l2.318,1.31L361.633,251.873z M366.067,249.857l2.218,1.31l1.31-0.806l-2.217-1.311L366.067,249.857z
	 M358.911,250.361l-2.217-1.311l-1.311,0.807l2.218,1.31L358.911,250.361z M353.569,247.237l-2.217-1.311l-1.311,0.807l2.218,1.31
	L353.569,247.237z M369.998,250.16l1.311-0.806l-2.218-1.311l-1.31,0.806L369.998,250.16z M356.291,248.749l-2.218-1.31l-1.31,0.806
	l2.217,1.31L356.291,248.749z M347.119,235.344l-2.218-1.311l-1.31,0.807l2.217,1.31L347.119,235.344z M351.15,239.274l1.311-0.706
	l-2.318-1.31l-1.31,0.806L351.15,239.274z M348.53,237.662l1.311-0.806l-2.218-1.311l-1.311,0.807L348.53,237.662z M353.872,240.786
	l1.311-0.806l-2.318-1.311l-1.311,0.807L353.872,240.786z M359.314,243.911l1.311-0.806l-2.218-1.311l-1.31,0.706L359.314,243.911z
	 M361.936,245.523l1.31-0.807l-2.217-1.31l-1.311,0.806L361.936,245.523z M356.594,242.399l1.31-0.807l-2.217-1.31l-1.311,0.806
	L356.594,242.399z M367.378,248.547l1.311-0.806l-2.218-1.311l-1.311,0.807L367.378,248.547z"></path>
<path id="color_x5F_11" fill="#B1CBC3" d="M379.069,223.249v19.15v4.536c-0.201,0.504-0.504,0.504-0.807,0.201v-1.713
	c0-0.101,0-0.202,0-0.302v-21.367c0-0.706-0.402-1.411-1.008-1.714l-31.345-18.041c-0.303-0.202-0.706-0.202-1.009,0l0.807-0.504
	c0.303-0.202,0.706-0.202,1.008,0l31.346,18.041C378.767,221.938,379.069,222.543,379.069,223.249z M370.1,255.098
	c0.101,0,0.201-0.101,0.302-0.101l0.303-0.202l2.822-1.613c0.402-0.403,0.705-0.907,0.906-1.411l-6.854,3.931
	C368.587,255.4,369.494,255.199,370.1,255.098z M371.611,206.014l-2.923,1.713v4.536l2.923-1.713V206.014z M371.611,181.119
	l-2.923,1.713v4.536l2.923-1.713V181.119z M371.611,197.749l-2.923,1.713v4.536l2.923-1.713V197.749z M371.611,194.02v-4.536
	l-2.923,1.713v4.536l2.217-1.311L371.611,194.02z M485.302,238.468l-71.46-41.223c-0.604-0.403-1.21-0.504-1.612-0.202l-2.218,1.209
	l0,0c0.504-0.302,1.008-0.202,1.714,0.101l71.459,41.223c0.706,0.403,1.311,1.613,1.311,2.52v42.835
	c0,0.907-0.302,1.512-0.705,1.915l1.713-0.907c0.604-0.302,1.108-1.109,1.108-2.217v-22.174v-20.763
	C486.713,240.081,486.107,238.871,485.302,238.468z"></path>
<path id="color_x5F_10" fill="#D0E7DF" d="M347.926,250.966l-4.637,2.721c-0.101,0-0.101,0-0.201,0l-6.652-4.838l4.132-2.318
	c0.102-0.101,0.303-0.101,0.403,0l7.056,4.031C348.127,250.563,348.127,250.865,347.926,250.966z M373.526,249.354l-12.297,7.055
	l-28.624-16.53l12.296-7.055L373.526,249.354z M366.471,246.531l-1.311,0.806l2.318,1.311l1.311-0.807L366.471,246.531z
	 M361.532,245.725l-2.318-1.31l-1.311,0.806l2.318,1.311L361.532,245.725z M360.625,246.733l2.318,1.31l1.31-0.806l-2.317-1.311
	L360.625,246.733z M354.376,243.608l-2.218-1.311l-1.31,0.807l2.217,1.31L354.376,243.608z M353.469,244.616l2.318,1.31l1.311-0.806
	l-2.318-1.209L353.469,244.616z M351.654,242.097l-2.217-1.311l-1.311,0.806l2.218,1.311L351.654,242.097z M349.034,240.484
	l-2.218-1.311l-1.31,0.807l2.217,1.31L349.034,240.484z M345.003,240.282l-1.311,0.806l2.218,1.311l1.31-0.807L345.003,240.282z
	 M346.313,242.601l2.218,1.31l1.311-0.806l-2.218-1.311L346.313,242.601z M349.034,244.112l2.318,1.31l1.31-0.806l-2.317-1.311
	L349.034,244.112z M351.756,245.624l2.317,1.311l1.311-0.807l-2.318-1.31L351.756,245.624z M354.477,247.237l2.218,1.31l1.31-0.806
	l-2.217-1.311L354.477,247.237z M357.098,248.749l2.217,1.31l1.311-0.806l-2.218-1.31L357.098,248.749z M358.407,247.539
	l1.311-0.806l-2.318-1.311l-1.31,0.807L358.407,247.539z M358.811,244.213l-2.217-1.31l-1.311,0.806l2.217,1.311L358.811,244.213z
	 M356.09,242.601l-2.218-1.311l-1.311,0.807l2.218,1.31L356.09,242.601z M353.469,241.088l-2.217-1.31l-1.311,0.806l2.217,1.311
	L353.469,241.088z M350.747,239.476l-2.317-1.311l-1.311,0.807l2.318,1.31L350.747,239.476z M348.026,237.964l-2.318-1.31
	l-1.311,0.806l2.318,1.311L348.026,237.964z M343.994,237.662l-1.31,0.806l2.318,1.311l1.31-0.806L343.994,237.662z
	 M342.281,238.669l-1.311,0.706l2.218,1.311l1.311-0.807L342.281,238.669z M340.567,239.678l-1.31,0.806l2.217,1.31l1.311-0.706
	L340.567,239.678z M341.878,241.996l2.218,1.31l1.31-0.806l-2.217-1.31L341.878,241.996z M344.6,243.507l2.318,1.311l1.31-0.807
	l-2.318-1.31L344.6,243.507z M347.32,245.12l2.318,1.31l1.311-0.806l-2.318-1.31L347.32,245.12z M349.941,246.733l2.217,1.31
	l1.311-0.806l-2.217-1.311L349.941,246.733z M352.662,248.245l2.218,1.31l1.311-0.806l-2.218-1.31L352.662,248.245z
	 M355.384,249.756l2.218,1.311l1.31-0.807l-2.217-1.31L355.384,249.756z M358.105,251.369l2.317,1.31l1.311-0.806l-2.318-1.311
	L358.105,251.369z M362.036,251.671l1.311-0.806l-2.218-1.311l-1.311,0.807L362.036,251.671z M363.851,250.664l1.31-0.806
	l-2.217-1.311l-0.807-0.504l-1.915-1.108l-1.311,0.806l2.218,1.31l0.403,0.303L363.851,250.664z M365.563,249.555l1.311-0.806
	l-2.218-1.31l-1.31,0.806L365.563,249.555z M363.749,244.918l-1.31,0.806l2.317,1.311l1.311-0.806L363.749,244.918z
	 M361.028,243.407l-1.311,0.806l2.218,1.311l1.31-0.807L361.028,243.407z M358.307,241.895l-1.311,0.706l2.218,1.31l1.311-0.806
	L358.307,241.895z M355.687,240.282l-1.311,0.806l2.218,1.311l1.31-0.807L355.687,240.282z M352.965,238.771l-1.311,0.806
	l2.318,1.31l1.311-0.806L352.965,238.771z M350.243,237.158l-1.31,0.806l2.318,1.311l1.31-0.706L350.243,237.158z M347.522,235.646
	l-1.311,0.806l2.218,1.311l1.31-0.807L347.522,235.646z M343.592,234.84l2.217,1.31l1.311-0.806l-2.218-1.311L343.592,234.84z
	 M341.777,235.848l2.218,1.31l1.31-0.806l-2.217-1.311L341.777,235.848z M340.063,236.855l2.318,1.31l1.311-0.806l-2.318-1.311
	L340.063,236.855z M338.25,237.863l2.317,1.31l1.311-0.806l-2.318-1.31L338.25,237.863z M336.536,238.871l2.318,1.311l1.311-0.807
	l-2.218-1.31L336.536,238.871z M337.04,241.189l1.311-0.807l-2.218-1.31l-1.31,0.806L337.04,241.189z M339.661,242.802l1.31-0.806
	l-2.217-1.31l-1.311,0.806L339.661,242.802z M342.382,244.314l1.311-0.807l-2.318-1.31l-1.311,0.806L342.382,244.314z
	 M350.445,249.051l1.311-0.806l-1.21-0.706l-0.807-0.504l-0.201-0.101l-0.403-0.202l-2.721-1.613l-0.303-0.101l-1.814-1.008
	l-0.201-0.101l-1.311,0.806l2.318,1.311l0.403,0.302l2.217,1.31l0.403,0.303L350.445,249.051z M353.166,250.563l1.311-0.806
	l-2.217-1.31l-1.311,0.706L353.166,250.563z M355.888,252.075l1.311-0.807l-2.318-1.31l-1.311,0.806L355.888,252.075z
	 M358.609,253.687l1.31-0.806l-2.317-1.31l-1.311,0.806L358.609,253.687z M362.54,254.494l-2.218-1.311l-1.31,0.807l2.217,1.31
	L362.54,254.494z M364.354,253.385l-2.318-1.31l-1.311,0.806l2.318,1.311L364.354,253.385z M366.067,252.377l-2.318-1.31
	l-1.31,0.806l2.317,1.31L366.067,252.377z M367.882,251.369l-2.218-1.311l-1.31,0.807l2.217,1.31L367.882,251.369z M369.595,250.361
	l-2.217-1.311l-1.311,0.807l2.218,1.31L369.595,250.361z M369.998,250.16l1.311-0.806l-2.218-1.311l-1.31,0.806L369.998,250.16z
	 M367.882,207.223l0.807,0.504l2.923-1.713l-2.318-1.31l-2.923,1.713L367.882,207.223z M368.688,182.832l2.923-1.713l-2.318-1.31
	l-2.923,1.713l0.302,0.202L368.688,182.832z M368.688,199.462l2.923-1.713l-2.318-1.31l-2.923,1.713l0.302,0.201L368.688,199.462z
	 M368.688,191.097l2.923-1.713l-2.318-1.311l-2.923,1.713L368.688,191.097z"></path>
<path id="color_x5F_9" fill="#F3B922" d="M228.087,154.107c3.729,4.233,5.745,11.288,4.938,17.033
	c-0.101,0.403-0.101,0.706-0.202,1.108c0,0.303-0.101,0.504-0.202,0.706c0,0.201-0.101,0.504-0.202,0.705
	c-1.512,4.737-5.14,6.249-8.769,4.233c-0.806-0.403-1.512-1.008-2.318-1.814c-2.016-2.016-3.628-4.838-4.536-7.962
	c-1.209-3.931-1.613-8.164-0.605-11.692c0.403-1.613,1.109-2.923,2.016-3.931c0.101-0.101,0.202-0.302,0.403-0.403
	c1.008-1.008,2.218-1.512,3.528-1.512c1.512,0,3.125,0.604,4.737,2.016c0.101,0.101,0.201,0.202,0.302,0.302
	c0.101,0.101,0.302,0.202,0.403,0.403C227.583,153.603,227.885,153.805,228.087,154.107z M382.093,160.255c0,0.403,0,0.806,0,1.209
	c0,0.202,0,0.403,0,0.604c0,0.202,0,0.403,0,0.605c0,0.403-0.101,0.806-0.101,1.209s-0.101,0.806-0.101,1.209
	s-0.101,0.806-0.202,1.109c0,0.403-0.101,0.705-0.201,1.108s-0.201,0.706-0.303,1.109c-0.101,0.302-0.201,0.706-0.302,1.008
	s-0.202,0.706-0.303,1.008c-0.101,0.202-0.101,0.302-0.201,0.504l0,0c-0.101,0.202-0.101,0.302-0.202,0.504
	c-0.101,0.302-0.302,0.605-0.402,0.907c-0.102,0.101-0.102,0.302-0.202,0.403c-0.101,0.101-0.101,0.302-0.201,0.403
	c-0.202,0.303-0.303,0.504-0.504,0.807c-0.202,0.302-0.303,0.504-0.504,0.705c-0.202,0.202-0.303,0.403-0.504,0.706
	c-0.202,0.201-0.303,0.403-0.505,0.604c-0.201,0.202-0.302,0.403-0.604,0.604c-0.201,0.202-0.403,0.303-0.604,0.504
	s-0.403,0.302-0.604,0.504c-0.101,0.101-0.202,0.101-0.303,0.202c-0.101,0.101-0.201,0.101-0.303,0.201
	c-0.101,0-0.201,0.101-0.302,0.202c-0.101,0.101-0.202,0.101-0.303,0.202c-0.201,0.101-0.403,0.202-0.604,0.302
	c-0.101,0.101-0.303,0.101-0.403,0.202c-0.101,0-0.201,0.101-0.201,0.101l0,0c-3.629,1.109-7.963-0.101-12.095-3.83
	c-0.303-0.303-0.605-0.605-0.907-0.907c-0.303-0.302-0.706-0.706-1.008-1.008c-7.963-8.87-11.894-24.391-8.971-35.579
	c1.613-5.846,4.737-9.273,8.567-10.281c0.201-0.101,0.504-0.101,0.705-0.202c0.303,0,0.504-0.101,0.706-0.101
	c0.303,0,0.504,0,0.807,0c0.302,0,0.504,0,0.806,0c0.303,0,0.504,0,0.807,0.101c0.302,0,0.504,0.101,0.806,0.101
	c0.303,0.101,0.505,0.101,0.807,0.202c0.303,0.101,0.504,0.201,0.807,0.302c0.302,0.101,0.504,0.202,0.806,0.302
	c0.303,0.101,0.505,0.202,0.807,0.403c0.303,0.201,0.604,0.302,0.807,0.504c0.302,0.201,0.604,0.302,0.806,0.504
	c0.102,0.101,0.303,0.202,0.403,0.302c0.101,0.101,0.303,0.202,0.403,0.302c0.101,0.101,0.303,0.202,0.403,0.303
	c0.101,0.101,0.303,0.201,0.403,0.302c0.302,0.202,0.504,0.504,0.806,0.706c0.303,0.201,0.504,0.504,0.807,0.806
	c0.101,0.101,0.303,0.302,0.403,0.403c0.101,0.101,0.303,0.302,0.403,0.403c0.101,0.101,0.302,0.303,0.403,0.403
	c0.101,0.202,0.302,0.302,0.402,0.403c0.102,0.201,0.303,0.302,0.403,0.504c0.101,0.101,0.303,0.302,0.403,0.504
	c0.101,0.101,0.201,0.302,0.303,0.504c0.101,0.202,0.302,0.302,0.402,0.504c0.202,0.302,0.504,0.604,0.706,1.008
	c0.201,0.303,0.403,0.706,0.604,1.008c0.101,0.202,0.202,0.303,0.303,0.504l0,0l0,0l0,0c0.101,0.202,0.201,0.303,0.302,0.504
	c0.202,0.303,0.403,0.706,0.605,1.109c0.201,0.302,0.403,0.706,0.604,1.109c0.201,0.403,0.403,0.706,0.604,1.108
	c0.202,0.403,0.303,0.807,0.504,1.109c0.101,0.202,0.202,0.403,0.202,0.605l0,0l0,0l0,0c0.101,0.201,0.201,0.403,0.201,0.604
	c0.101,0.202,0.202,0.403,0.202,0.604c0.101,0.202,0.101,0.403,0.201,0.605s0.101,0.403,0.201,0.605
	c0.102,0.201,0.102,0.403,0.202,0.604s0.101,0.403,0.201,0.604c0.101,0.202,0.101,0.403,0.202,0.605
	c0.101,0.202,0.101,0.403,0.201,0.605c0.101,0.201,0.101,0.403,0.202,0.604c0,0.101,0,0.101,0.101,0.202
	c0.101,0.302,0.201,0.706,0.201,1.008c0.101,0.403,0.202,0.806,0.303,1.209s0.201,0.807,0.201,1.311
	c0,0.201,0.101,0.403,0.101,0.604l0,0c0,0.202,0.102,0.403,0.102,0.604c0,0.403,0.101,0.807,0.201,1.21c0,0.201,0,0.403,0.101,0.604
	c0,0.202,0,0.403,0.101,0.604c0,0.202,0,0.403,0,0.605s0,0.403,0,0.605c0,0.403,0,0.806,0.102,1.209
	C382.093,159.449,382.093,159.852,382.093,160.255z M366.471,170.838l-8.467-34.772c-1.512,1.209-2.62,3.225-3.325,5.846
	c-2.117,7.862,0.705,18.848,6.249,24.996c0.201,0.303,0.504,0.504,0.705,0.706s0.403,0.403,0.706,0.605
	C363.648,169.528,365.06,170.435,366.471,170.838z M377.154,157.635c0-0.101,0-0.302,0-0.403c0-0.101,0-0.302,0-0.403
	c0-0.101,0-0.302,0-0.403c0-0.202,0-0.302,0-0.403c0-0.202,0-0.303,0-0.403c0-0.202,0-0.303,0-0.403c0-0.202,0-0.302,0-0.403
	c0-0.201,0-0.302,0-0.504c0-0.101,0-0.302-0.101-0.403c0-0.101,0-0.302-0.101-0.403l0,0c0-0.101,0-0.302-0.102-0.403
	c0-0.101,0-0.303-0.101-0.403c0-0.202-0.101-0.303-0.101-0.403s-0.101-0.302-0.101-0.403c0-0.101-0.101-0.302-0.101-0.403
	c0-0.101-0.102-0.302-0.102-0.403c0-0.101-0.101-0.302-0.101-0.403c0-0.101-0.101-0.303-0.101-0.403
	c0-0.202-0.101-0.302-0.101-0.403c0-0.101-0.101-0.302-0.101-0.403c0-0.101-0.102-0.302-0.102-0.403
	c0-0.101-0.101-0.302-0.101-0.403c0-0.101-0.101-0.302-0.201-0.403c0-0.101-0.102-0.303-0.102-0.403
	c-0.101-0.101-0.101-0.302-0.201-0.403c-0.101-0.101-0.101-0.302-0.201-0.403l0,0l0,0c0-0.101-0.102-0.303-0.202-0.403
	c-0.101-0.101-0.101-0.302-0.201-0.403c0-0.101-0.101-0.302-0.202-0.403c0-0.101-0.101-0.303-0.201-0.403s-0.101-0.302-0.202-0.403
	c-0.101-0.101-0.101-0.302-0.201-0.403c-0.101-0.101-0.101-0.302-0.201-0.403c-0.102-0.101-0.102-0.302-0.202-0.403l0,0
	c-0.101-0.101-0.101-0.302-0.201-0.403c-0.101-0.101-0.101-0.303-0.202-0.403l0,0l0,0c-0.101-0.101-0.101-0.202-0.201-0.302
	c-0.101-0.101-0.202-0.302-0.202-0.403c-0.101-0.101-0.201-0.202-0.201-0.302c-0.101-0.101-0.201-0.202-0.303-0.302
	c-0.101-0.101-0.201-0.202-0.201-0.303c-0.101-0.101-0.201-0.202-0.303-0.302c-0.101-0.101-0.201-0.202-0.302-0.302
	c-0.101-0.101-0.202-0.202-0.303-0.302c-0.101-0.101-0.201-0.202-0.302-0.303c-0.102-0.101-0.202-0.201-0.303-0.302
	c-0.101-0.101-0.202-0.202-0.303-0.302c-0.101-0.101-0.201-0.202-0.302-0.302c-0.102-0.101-0.202-0.202-0.303-0.303
	c-0.101-0.101-0.201-0.202-0.303-0.302c-0.101-0.101-0.201-0.202-0.302-0.302c-0.101-0.101-0.202-0.202-0.303-0.302l0,0l0,0
	c-0.101-0.101-0.201-0.202-0.302-0.202c-0.102-0.101-0.202-0.202-0.303-0.202c-0.101-0.101-0.201-0.101-0.303-0.202
	c-0.101-0.101-0.201-0.202-0.302-0.202s-0.202-0.101-0.303-0.202c-0.101-0.101-0.201-0.101-0.302-0.201
	c-0.102-0.101-0.202-0.101-0.303-0.202c-0.101,0-0.201-0.101-0.303-0.202c-0.101,0-0.201-0.101-0.302-0.202
	c-0.101,0-0.202-0.101-0.303-0.101s-0.201-0.101-0.302-0.101c-0.102,0-0.202-0.101-0.303-0.101l0,0
	c-0.101,0-0.202-0.101-0.303-0.101s-0.201-0.101-0.302-0.101c-0.102,0-0.202,0-0.303-0.101c-0.101,0-0.201,0-0.303-0.101
	c-0.101,0-0.201,0-0.302-0.101c-0.101,0-0.202,0-0.202,0l8.668,35.679c0,0,0.102,0,0.102-0.101c0.101,0,0.101-0.101,0.201-0.202
	c0.101,0,0.101-0.101,0.201-0.101c0.102-0.101,0.102-0.101,0.202-0.201c0.101-0.101,0.101-0.101,0.201-0.202
	c0.101-0.101,0.101-0.101,0.202-0.202c0.101-0.101,0.101-0.101,0.201-0.202c0.101-0.101,0.101-0.101,0.202-0.202
	c0.101-0.101,0.101-0.101,0.201-0.201c0.101-0.101,0.101-0.101,0.201-0.202c0.102-0.101,0.102-0.101,0.202-0.202
	c0-0.101,0.101-0.101,0.201-0.202c0.101-0.101,0.101-0.202,0.202-0.302c0-0.101,0.101-0.202,0.201-0.302
	c0.101-0.202,0.202-0.303,0.303-0.504c0-0.101,0.101-0.201,0.101-0.302c0-0.101,0.101-0.202,0.201-0.302
	c0-0.101,0.102-0.202,0.102-0.302c0-0.101,0.101-0.202,0.101-0.302c0-0.101,0.101-0.202,0.101-0.303l0,0
	c0-0.101,0.101-0.202,0.101-0.302c0-0.101,0.101-0.202,0.101-0.302c0-0.101,0.102-0.202,0.102-0.303
	c0-0.101,0.101-0.201,0.101-0.302c0-0.101,0.101-0.302,0.101-0.403c0.101-0.303,0.101-0.504,0.202-0.807
	c0-0.101,0-0.302,0.101-0.403c0-0.101,0-0.302,0.101-0.403c0-0.101,0-0.302,0.101-0.403c0-0.101,0-0.302,0-0.403
	c0-0.101,0-0.303,0.101-0.403c0-0.101,0-0.302,0-0.403c0-0.101,0-0.302,0-0.403c0-0.101,0-0.303,0-0.403c0-0.101,0-0.302,0-0.403
	c0-0.101,0-0.302,0-0.403c0-0.101,0-0.303,0-0.403s0-0.302,0-0.403C377.154,157.937,377.154,157.735,377.154,157.635z
	 M351.856,349.034c0,0.302,0,0.504-0.101,0.806c0,0.202,0,0.404-0.102,0.504c-0.101,0.404-0.201,0.908-0.302,1.311
	c0,0.102-0.101,0.202-0.101,0.303c-0.102,0.403-0.202,0.807-0.403,1.209c-0.102,0.102-0.102,0.303-0.202,0.404
	c-0.201,0.402-0.403,0.906-0.604,1.31v0.101c-0.201,0.504-0.504,1.008-0.807,1.512c-0.101,0.102-0.101,0.202-0.201,0.303
	c-0.202,0.403-0.504,0.907-0.807,1.311c0,0.101-0.101,0.101-0.101,0.201c-0.303,0.504-0.604,1.008-1.008,1.512
	c0,0.102-0.101,0.102-0.101,0.201c-0.303,0.404-0.604,0.807-0.907,1.21c-0.101,0.101-0.202,0.202-0.202,0.303
	c-0.302,0.504-0.705,0.907-1.008,1.411c0,0.101-0.101,0.101-0.101,0.201c-0.302,0.403-0.604,0.807-0.907,1.109
	c-0.101,0.201-0.302,0.302-0.403,0.504c-0.201,0.302-0.504,0.504-0.705,0.806c-0.201,0.202-0.303,0.302-0.504,0.504
	c-0.303,0.302-0.604,0.604-0.907,0.907c-0.201,0.201-0.403,0.403-0.604,0.604c-0.101,0.202-0.303,0.303-0.403,0.505
	c-0.201,0.201-0.403,0.402-0.604,0.604c-0.101,0.102-0.202,0.202-0.202,0.202c-0.403,0.403-0.705,0.706-1.108,1.108
	c-0.101,0.102-0.303,0.201-0.403,0.403c-0.201,0.101-0.302,0.302-0.504,0.403c-0.302,0.303-0.504,0.504-0.807,0.705
	c-0.201-0.101-0.302-0.302-0.504-0.402c-1.713-1.613-4.031-3.83-6.249-6.451l-0.101-0.101c-0.201-0.202-0.302-0.403-0.504-0.604
	c-0.101-0.102-0.201-0.201-0.201-0.303c-0.202-0.201-0.403-0.504-0.604-0.705c-0.202-0.202-0.403-0.403-0.504-0.706
	c-0.102-0.101-0.202-0.302-0.303-0.403c-0.101-0.201-0.303-0.402-0.403-0.504c-0.101-0.101-0.201-0.303-0.303-0.402
	c-0.201-0.303-0.402-0.504-0.604-0.807c0-0.102-0.101-0.102-0.101-0.201c-0.201-0.303-0.403-0.605-0.706-1.008
	c-0.101-0.102-0.101-0.202-0.201-0.303c-0.201-0.303-0.303-0.504-0.504-0.807c0-0.101-0.101-0.201-0.101-0.201
	c-0.202-0.303-0.403-0.706-0.604-1.008c0,0,0-0.102-0.102-0.102c-0.201-0.303-0.302-0.604-0.504-0.906
	c0-0.102-0.101-0.202-0.101-0.303c-0.101-0.303-0.302-0.605-0.403-0.907c0,0,0-0.101-0.101-0.101
	c-0.101-0.303-0.303-0.705-0.403-1.008c0-0.102-0.101-0.202-0.101-0.303c-0.101-0.201-0.201-0.504-0.201-0.705
	c0-0.102-0.102-0.202-0.102-0.303c-0.101-0.303-0.201-0.604-0.201-0.807c0-0.101-0.101-0.303-0.101-0.402
	c0-0.202-0.102-0.404-0.102-0.706c0-0.202,0-0.302-0.101-0.504c0-0.202,0-0.302,0-0.504c0-0.101,0-0.202,0-0.302v-0.102l0,0
	c-0.101-3.125,1.311-6.047,4.938-8.164c5.343-3.023,13.809-3.124,19.453-0.303C350.546,342.382,352.058,345.506,351.856,349.034z
	 M345.305,346.414c0-0.202,0-0.404-0.101-0.706v-0.101c-0.101-0.201-0.201-0.403-0.303-0.605l-0.101-0.1
	c-0.101-0.202-0.201-0.404-0.403-0.504c0,0,0,0-0.101-0.102c-0.201-0.201-0.403-0.402-0.604-0.504l-0.101-0.101
	c-0.202-0.202-0.403-0.303-0.706-0.504c0,0-0.101,0-0.101-0.101c-0.201-0.102-0.504-0.303-0.807-0.403h-0.101
	c-0.302-0.101-0.604-0.202-0.907-0.303c-0.101,0-0.101,0-0.201-0.101c-0.303-0.102-0.706-0.201-1.008-0.201h-0.101
	c-0.706-0.102-1.411-0.202-2.117-0.202c-0.101,0-0.201,0-0.302,0c-0.202,0-0.303,0-0.505,0h-0.101c-0.201,0-0.403,0-0.604,0
	c-0.101,0-0.201,0-0.303,0c-0.101,0-0.201,0-0.302,0c-0.202,0-0.303,0.101-0.504,0.101c-0.101,0-0.101,0-0.202,0
	c-0.201,0-0.403,0.102-0.504,0.102h-0.101c-0.201,0.1-0.403,0.1-0.604,0.201l0,0c-0.202,0.101-0.403,0.101-0.604,0.201l0,0
	c-0.202,0.102-0.403,0.202-0.504,0.202l0,0c-0.202,0.101-0.303,0.201-0.505,0.302l0,0c-0.101,0.102-0.302,0.202-0.402,0.303
	c0,0,0,0-0.102,0.101c-0.101,0.101-0.201,0.202-0.302,0.303l-0.101,0.101c-0.102,0.102-0.202,0.201-0.303,0.303l-0.101,0.101
	c-0.101,0.101-0.101,0.202-0.202,0.302c0,0.102-0.101,0.102-0.101,0.202s-0.101,0.202-0.101,0.202c0,0.1-0.101,0.1-0.101,0.201
	c0,0.101-0.102,0.101-0.102,0.201c0,0.102-0.101,0.201-0.101,0.303c0,0.101,0,0.101,0,0.201c0,0.102,0,0.303,0,0.403
	c0,0.202,0,0.302,0,0.504c0,0.101,0,0.101,0,0.202c0,0.101,0,0.201,0.101,0.302c0,0.101,0.102,0.101,0.102,0.202
	c0,0.101,0.101,0.201,0.101,0.302s0.101,0.101,0.101,0.202c0.101,0.101,0.101,0.201,0.202,0.201c0,0,0,0,0.101,0.102
	c1.209,1.512,3.931,2.619,7.055,2.619c3.125,0,5.846-1.107,7.056-2.619c0,0,0,0,0-0.102c0.101-0.101,0.101-0.201,0.201-0.303
	c0-0.101,0.102-0.101,0.102-0.201s0.101-0.201,0.101-0.303c0-0.101,0.101-0.101,0.101-0.201s0-0.101,0.101-0.201
	c0-0.102,0.101-0.202,0.101-0.303C345.305,346.716,345.305,346.514,345.305,346.414z"></path>
<path id="color_x5F_8" fill="#DAA14A" d="M472.501,331.799c6.854-1.713,16.429-4.637,19.453-11.288
	c5.039,14.01-9.777,18.948-19.453,21.267c-1.713,0.403-3.427,0.907-4.938,1.613C457.383,337.746,465.144,333.714,472.501,331.799z
	 M414.95,401.444c-7.055,19.957-61.784,9.374-76.802,9.475c-15.42,0.201-24.29,2.419-42.734,0.907
	c-60.675-7.861-40.417-44.146-91.92-52.914c-48.278-8.266-81.438-29.633-87.485-53.016c-0.302,0.604-0.504,1.209-0.706,1.914
	c-0.202,1.008-0.302,2.117-0.202,3.326c2.52,25.098,36.889,48.883,88.292,57.652c51.503,8.769,31.144,45.053,91.92,52.914
	c18.444,1.512,27.313-0.705,42.734-0.907c7.66-0.101,25.601,2.621,42.332,2.621c19.956,0.101,38.099-3.729,34.873-20.562
	C415.152,402.554,415.051,401.948,414.95,401.444z M173.56,279.086c0.101,0.202,0.101,0.303,0.202,0.504
	c1.411-2.52,1.512-5.947-0.202-10.482c-1.31-3.527-2.117-6.753-2.52-9.776c-0.807,4.536-0.403,9.776,1.31,15.723
	C172.652,276.365,173.056,277.675,173.56,279.086z M436.822,380.48c-22.88-1.814-22.779,8.063-22.779,8.063
	c0.907,2.318,1.411,4.536,1.513,6.451c2.217-2.621,7.761-5.645,21.064-4.637c0.101,0,0.101,0,0.202,0
	c10.885,0.908,21.669,0.202,30.64-1.612c12.397-2.52,21.468-7.156,22.979-13.304c0.504-2.218,0.102-4.536-1.41-7.056
	C482.883,377.355,460.003,382.295,436.822,380.48z M424.223,362.641c-0.101,0-0.201-0.101-0.201-0.101
	c-2.016-1.008-5.241-1.008-7.156,0.101c-1.008,0.605-1.512,1.411-1.512,2.117c0,0,0,0,0,0.1c0.101,1.916,2.722,3.326,5.241,3.326
	s5.141-1.41,5.141-3.326c0-0.705-0.403-1.512-1.311-2.115C424.324,362.742,424.324,362.641,424.223,362.641z M323.837,333.109
	c1.814,0,3.628-1.008,3.729-2.318c0-0.604-0.303-1.108-0.907-1.512c-0.102,0-0.102-0.101-0.202-0.101s-0.101-0.101-0.201-0.101
	c-1.512-0.807-3.729-0.706-5.141,0.101c-0.705,0.403-1.108,1.008-1.108,1.512l0,0C320.107,332.102,322.022,333.109,323.837,333.109z
	 M418.68,301.663c3.629,0,7.257-2.016,7.458-4.737c0-1.108-0.604-2.116-1.915-3.023c-0.101-0.101-0.201-0.101-0.302-0.202
	c-0.101-0.101-0.202-0.101-0.303-0.202c-2.923-1.512-7.458-1.411-10.18,0.202c-1.411,0.907-2.116,1.915-2.116,3.023v0.101
	C411.322,299.647,415.051,301.663,418.68,301.663z M289.871,387.637h-0.101c-1.008-0.504-2.52-0.504-3.528,0
	c-0.504,0.303-0.806,0.705-0.706,1.008l0,0c0,1.008,1.311,1.612,2.621,1.612s2.52-0.705,2.621-1.612
	C290.576,388.342,290.375,387.939,289.871,387.637L289.871,387.637z M286.444,373.426c1.209,0,2.52-0.202,3.628-0.605l-0.504-0.303
	c-0.806-0.504-1.209-1.31-1.109-2.116v-6.35c-2.621-0.403-5.442-0.101-7.559,1.108c-1.512,0.907-2.217,2.016-2.217,3.125v0.101
	C278.784,371.409,282.614,373.426,286.444,373.426z M233.429,354.477c3.729,0,7.559-2.016,7.66-4.938
	c0-1.108-0.604-2.218-2.016-3.124c-0.101-0.102-0.202-0.102-0.302-0.202c-0.101-0.101-0.202-0.101-0.303-0.202
	c-3.023-1.512-7.761-1.512-10.583,0.202c-1.512,0.907-2.217,2.017-2.217,3.226v0.101
	C225.668,352.461,229.599,354.477,233.429,354.477z M264.371,309.727c2.217,0,4.435-1.21,4.535-2.822
	c0-0.605-0.403-1.311-1.209-1.814c-0.101,0-0.101-0.101-0.202-0.101c-0.101,0-0.101-0.101-0.201-0.101
	c-1.814-0.907-4.536-0.907-6.148,0.101c-0.907,0.504-1.31,1.21-1.31,1.813c0,0,0,0,0,0.102
	C259.835,308.617,262.153,309.727,264.371,309.727z M423.114,336.838c-0.705,0.404-1.108,1.009-1.108,1.513l0,0
	c0.101,1.411,1.915,2.419,3.83,2.419c1.814,0,3.628-1.008,3.729-2.419c0-0.504-0.302-1.108-0.906-1.513c0,0-0.102,0-0.202-0.1
	c0,0-0.101-0.102-0.201-0.102C426.743,336.032,424.525,336.032,423.114,336.838z M216.093,299.244c1.814,0,3.628-1.008,3.729-2.318
	c0-0.504-0.302-1.108-1.008-1.512l-0.101-0.101c-0.101,0-0.101-0.101-0.202-0.101c-1.512-0.806-3.729-0.706-5.14,0.101
	c-0.706,0.403-1.109,1.008-1.109,1.512l0,0C212.363,298.337,214.278,299.244,216.093,299.244z M195.028,323.333
	c1.411,0,2.721-0.706,2.822-1.814c0-0.403-0.201-0.806-0.705-1.108c0,0-0.101,0-0.101-0.102l-0.101-0.1
	c-1.109-0.605-2.822-0.605-3.83,0c-0.605,0.302-0.806,0.705-0.806,1.107l0,0C192.206,322.627,193.717,323.333,195.028,323.333z
	 M272.636,259.332c1.814,0,3.628-1.008,3.729-2.318c0-0.504-0.302-1.108-1.008-1.512l-0.101-0.101c-0.101,0-0.101-0.101-0.202-0.101
	c-1.512-0.806-3.729-0.706-5.14,0.101c-0.706,0.403-1.109,1.008-1.109,1.512c0,0,0,0,0,0.101
	C268.906,258.324,270.821,259.332,272.636,259.332z"></path>
<path id="color_x5F_7" fill="#02EDB0" d="M283.924,192.508c0,0-12.8-18.545-30.64-27.516c-4.737-2.419-9.172-4.132-13.002-5.442
	c-0.706-2.621-2.016-5.04-3.729-6.652c-3.326-3.326-6.854-2.62-8.466,1.311c-0.202-0.202-0.403-0.504-0.706-0.706
	c-0.101-0.101-0.303-0.202-0.403-0.403c1.008-0.806,1.915-1.612,2.721-2.52c-1.108,0.806-2.116,1.512-3.023,2.217
	c-1.613-1.411-3.226-2.016-4.737-2.016c-1.31,0-2.52,0.504-3.527,1.512c-0.101,0.101-0.202,0.202-0.403,0.403
	c-1.814-2.52-4.838-2.52-7.559,0.201c-3.024,3.024-4.737,8.265-4.435,12.801c-3.023,2.318-6.35,5.14-9.676,8.567
	c-14.11,14.211-20.46,35.78-20.46,35.78c-12.498-13.103-10.986-29.431-0.605-43.541c8.668-11.692,25.5-19.957,37.998-16.53
	c-4.636-2.52-11.087-5.342-19.352-7.559c-19.352-5.14-41.223,0.202-41.223,0.202c5.14-17.336,19.956-24.29,37.292-22.274
	c11.994,1.411,24.794,8.769,30.64,18.344c-1.411-7.056-3.83-15.219-7.862-22.476c-9.676-17.538-20.359-24.593-20.359-24.593
	c14.816-10.583,36.083,5.241,42.735,22.98c1.008,2.822,1.814,5.543,2.318,8.265c2.318-1.512,4.939-2.721,7.761-3.83
	c17.538-6.854,43.642-1.612,45.658,16.429c0,0-12.397-3.225-31.95,1.311c-6.148,1.411-11.994,3.83-17.235,6.551
	c9.776-0.907,20.964,2.117,29.128,7.861C285.134,161.062,291.584,176.18,283.924,192.508z"></path>
<path id="color_x5F_6" fill="#297673" d="M215.186,262.355c-1.008,3.729-4.636,20.46,11.994,20.46
	c10.784,0,15.824-8.164,16.529-18.344c0.605-9.978,1.311-26.81,0.302-44.247c-1.008-17.739-3.83-36.083-10.28-48.581
	c-0.202-0.101-0.504-0.302-0.706-0.504c-0.101,0.403-0.101,0.706-0.202,1.108c0,0.303-0.101,0.504-0.202,0.706
	c0,0.201-0.101,0.504-0.202,0.705c-1.512,4.737-5.14,6.249-8.769,4.233c0.403,11.087,0.504,26.003-1.108,42.735
	C221.233,233.731,219.016,248.043,215.186,262.355z"></path>
<path id="color_x5F_5" fill="#FFD2BB" d="M324.643,206.417c0,0,3.729,6.35,3.729,10.986c0,2.822-0.201,7.66-1.008,11.289
	c-0.504,2.318-1.411,4.132-2.62,4.737c-3.326,1.411-5.947-0.706-5.947-0.706v5.442c0,0-10.885,1.209-15.723-3.83l0.402-4.535
	c1.613,0.907,4.436,2.419,6.854,3.125c0.201,0.101,0.302,0.101,0.504,0.201c0.101,0,0.303,0.101,0.403,0.101
	c0.302,0.101,0.604,0.101,0.806,0.202c3.427,0.403,4.133-6.753,4.133-6.753s-1.814-4.334,0.403-6.35
	c2.116-2.016,6.652,4.737,6.652,4.737l1.512-4.636c0,0,1.813-6.652-1.411-8.265c-3.226-1.613-2.621-2.722-2.621-2.722
	S325.248,208.735,324.643,206.417z M381.689,243.709c-0.504-1.31-2.52-1.209-2.52-1.209c0.102,0.706,0.303,3.024,0,4.334
	c0,0.101,0,0.101,0,0.202c-0.201,0.504-0.504,0.504-0.806,0.202c-0.303-0.302-0.403-0.907-0.102-1.512
	c0-0.101,0.102-0.101,0.102-0.201c0-0.101,0-0.202,0-0.303c-0.102-0.201-0.202-0.403-0.403-0.504
	c-0.202-0.101-1.008,0.101-1.714,0.807c-0.101,0.101-0.201,0.201-0.302,0.302c-0.202,0.302-0.403,0.605-0.504,1.109
	c-0.102,0.302-0.102,0.705-0.202,1.008c-0.201,1.411-0.302,2.822-0.806,3.931c-0.202,0.504-0.505,1.008-0.907,1.411
	c-0.605,0.706-1.513,1.209-2.722,1.713c-0.101,0.101-0.303,0.101-0.403,0.101s-0.201,0.101-0.302,0.101
	c-0.605,0.202-1.411,0.403-2.419,0.604c-5.847,1.209-17.034,3.024-17.034,3.024l-6.249-3.628l0,0c0.202,1.612,0.202,3.225,0,4.838
	c0,0.202-0.101,0.302-0.101,0.504c0,0,0,0.101-0.101,0.101c0,0.101-0.101,0.202-0.201,0.403c0,0,0,0.101-0.102,0.101
	c-0.101,0.101-0.101,0.303-0.201,0.403c0,0,0,0.101-0.101,0.101c-0.102,0.202-0.202,0.303-0.303,0.504
	c-0.101,0.101-0.101,0.101-0.201,0.202c-0.102,0.101-0.102,0.202-0.202,0.202c-0.101,0.101-0.201,0.202-0.201,0.302l-0.101,0.101
	c-1.109,1.209-2.521,2.318-3.326,2.923l0,0c0,0,9.373,4.435,12.9,4.334c2.318-0.101,14.212-6.955,22.477-11.994
	c0.403-0.302,0.907-0.504,1.311-0.806C380.884,254.292,384.714,251.873,381.689,243.709z"></path>
<path id="color_x5F_4" fill="#00CEC9" d="M436.62,390.459l-21.367,12.599c-0.101-0.504-0.202-1.109-0.403-1.613
	c0.706-1.813,0.907-3.931,0.706-6.35C417.772,392.373,423.316,389.451,436.62,390.459z M338.048,420.897
	c-15.421,0.201-24.29,2.419-42.734,0.906c-60.675-7.861-40.417-44.146-91.92-52.914s-85.771-32.556-88.292-57.651
	c-0.101-1.21-0.101-2.318,0.202-3.326L40.316,351.05l234.335,135.058l105.829-62.389
	C363.648,423.518,345.708,420.796,338.048,420.897z M173.761,279.59c-0.101-0.202-0.101-0.303-0.202-0.504
	c-0.504-1.411-0.907-2.721-1.31-4.031l-21.368,12.296C161.263,286.646,170.637,285.234,173.761,279.59z M370.704,254.695
	l-0.303,0.201C370.502,254.896,370.704,254.896,370.704,254.695c1.31-0.403,2.217-1.008,2.822-1.613L370.704,254.695z
	 M308.819,232.421c-0.202-0.101-0.403-0.202-0.604-0.303C308.416,232.32,308.617,232.32,308.819,232.421z M379.17,246.833
	c0.303-1.31,0-3.628,0-4.334v4.536C379.17,246.935,379.17,246.833,379.17,246.833z M571.376,311.137l-81.841,48.279
	c-2.419-4.536-8.567-9.576-19.755-14.816c-0.807-0.403-1.411-0.705-2.117-1.109c1.512-0.604,3.226-1.209,4.939-1.612
	c9.676-2.419,24.491-7.257,19.452-21.267c1.31-2.822,1.512-6.35-0.202-10.684c-7.861-20.057-34.873-9.474-59.466-25.903
	c-11.489-31.346-38.501-19.957-56.441-26.709c4.938-3.023,8.869-5.442,5.846-13.606c-0.504-1.31-2.521-1.209-2.521-1.209v-19.15
	c0-0.706-0.402-1.411-1.008-1.713l-31.345-18.042c-0.303-0.202-0.706-0.202-1.009,0l-0.806,0.504c0.302-0.202,0.705-0.202,1.008,0
	c-0.706-0.403-1.512,0.101-1.512,0.907v23.786c0,0.706,0.403,1.411,1.008,1.714c-0.604-0.403-1.411-0.403-2.016,0l-3.125,1.814
	c-3.729-1.915-7.66-3.326-12.296-3.628c-0.303,0-0.504,0-0.807,0c0.807-3.628,1.008-8.466,1.008-11.289
	c0.101-4.636-3.729-10.986-3.729-10.986s1.21-3.024-4.838-3.326c-6.147-0.302-15.018,1.411-16.832,6.35
	c-1.813,4.838,0.605,15.119,0,17.336c-0.705,2.217-0.705,2.318-0.705,2.318s3.023,1.814,5.946,3.125
	c-1.813-0.807-3.527-1.713-4.737-2.318l-0.402,4.536c0,0-1.411,1.008-3.125,2.923c-1.512-0.302-3.125-0.907-5.04-1.814
	c-7.761-3.628-18.142-8.97-32.152-12.397l79.321-45.557l24.392,14.211v2.621l2.318,1.311l2.217-1.311l38.099,22.174v26.709
	c0,1.008,0.604,2.117,1.311,2.52l71.46,41.324c0.504,0.302,0.906,0.302,1.31,0.302l0,0l0,0c0.202-0.101,0.504-0.202,0.605-0.302
	l1.713-0.907c0.604-0.302,1.108-1.108,1.108-2.217v-22.174L571.376,311.137z M371.611,206.014l-2.318-1.31l-2.923,1.713l0,0v4.536
	l2.318,1.31l2.923-1.713V206.014z M371.611,197.749l-2.318-1.31l-2.923,1.713v4.535l2.318,1.311l2.923-1.713V197.749z"></path>
<path id="color_x5F_3" fill="#E84393" d="M315.976,307.207L315.976,307.207c0.402,0,0.806,0,1.31,0
	c14.11,0,17.739-13.607,17.739-13.607s-1.612-4.333-3.226-9.373c-0.201-0.403-0.302-1.008-0.403-1.613c0-0.101,0-0.302-0.101-0.403
	c-0.504-2.721-0.705-6.551-0.806-10.079l0,0c0-0.303,0-0.605,0-0.907c0-0.806,0-1.713,0-2.419l0,0l4.938,4.334l0,0l6.954,6.047l0,0
	l3.226,2.822l27.415,1.108c0,0,4.435-1.209,8.566,4.939c4.133,6.148-2.721,11.288-2.721,11.288s-2.318,0.807-5.745,2.017l0,0
	c-0.504,0.201-1.008,0.302-1.512,0.504c-1.411,0.504-3.024,1.008-4.737,1.512c-0.706,0.201-1.311,0.402-2.016,0.604l0,0
	c-9.575,3.023-21.469,6.249-26.508,5.946C332.001,309.424,321.519,308.013,315.976,307.207z M385.016,358.206l-47.27,27.313
	c-1.411,0.807-3.125,0.807-4.536,0l-43.742-25.197c-0.706-0.402-1.109-1.108-1.109-1.914v5.744v6.35
	c0,0.807,0.302,1.613,1.109,2.117l0.504,0.303l43.238,24.895c1.411,0.807,3.125,0.807,4.536,0l47.27-27.314
	c0.807-0.402,1.109-1.209,1.109-2.016v-12.195C386.125,356.996,385.722,357.803,385.016,358.206z"></path>
<path id="color_x5F_2" fill="#FBC02D" d="M373.022,301.26c0.402,0.907,0.604,1.915,0.302,2.923
	c-1.008,3.729-4.938,1.714-8.567-0.302l0,0c0.706-0.202,1.411-0.404,2.017-0.605c1.713-0.504,3.326-1.008,4.736-1.512
	C372.115,301.563,372.619,301.461,373.022,301.26L373.022,301.26z M335.024,293.6c0,0-1.612-4.333-3.226-9.373
	c-0.201-0.403-0.302-1.008-0.403-1.613c-0.504-2.721-0.705-6.753-0.806-10.381l0,0c0-0.302,0-0.604,0-0.907c0-0.806,0-1.713,0-2.419
	l0,0c0-3.124,0-5.442,0-5.442l7.962,2.822c0,0,0.303-0.202,0.706-0.504l0,0c0.806-0.605,2.217-1.714,3.326-2.923l0.101-0.101
	c0.101-0.101,0.201-0.202,0.201-0.302c0.101-0.101,0.101-0.202,0.202-0.202c0.101-0.101,0.101-0.101,0.201-0.202
	c0.101-0.202,0.202-0.302,0.303-0.504c0,0,0-0.101,0.101-0.101c0.101-0.101,0.201-0.303,0.201-0.403c0,0,0-0.101,0.102-0.101
	c0.101-0.101,0.101-0.201,0.201-0.403v-0.101c0.101-0.202,0.101-0.302,0.101-0.504c0.202-1.612,0.202-3.225,0-4.838l0,0
	c0-0.302-0.101-0.403-0.101-0.403l-1.21-0.807l-6.651-4.838l-10.886-7.861l-0.201-0.202l-6.552-2.52c0,0-10.885,1.21-15.724-3.83
	c0,0-1.41,1.008-3.124,2.923c-1.915,2.217-4.031,5.846-4.333,10.482c-0.403,8.668,2.116,46.666,2.116,46.666
	s5.04,11.995,18.243,12.7c0,0,0,0-0.101,0c0.403,0,0.907,0,1.311,0C331.396,307.207,335.024,293.6,335.024,293.6z M236.452,152.797
	c-3.326-3.326-6.854-2.621-8.466,1.311c3.729,4.233,5.745,11.288,4.939,17.033c0.201,0.202,0.504,0.302,0.705,0.504
	c2.923,1.613,5.846,0.202,6.854-3.729c0.706-2.52,0.504-5.543-0.302-8.366C239.476,156.929,238.166,154.51,236.452,152.797z
	 M342.785,270.015c-1.108-1.008-7.962,0.706-7.357,3.125l0,0l6.954,6.047l0,0c0,0-0.907-4.233-0.403-6.249
	S343.793,271.023,342.785,270.015z M343.894,343.692l-0.101-0.101c-0.201-0.202-0.403-0.303-0.705-0.504c0,0-0.102,0-0.102-0.102
	c-0.201-0.101-0.504-0.302-0.806-0.402h-0.101c-0.303-0.102-0.605-0.202-0.907-0.303c-0.102,0-0.102,0-0.202-0.101
	c-0.302-0.101-0.705-0.202-1.008-0.202h-0.101c-0.807-0.101-1.612-0.201-2.419-0.201c-0.201,0-0.303,0-0.504,0h-0.101
	c-0.202,0-0.403,0-0.605,0c-0.101,0-0.201,0-0.302,0s-0.202,0-0.303,0c-0.201,0-0.302,0.101-0.504,0.101c-0.101,0-0.101,0-0.201,0
	c-0.202,0-0.403,0.101-0.504,0.101h-0.102c-0.201,0.102-0.402,0.102-0.604,0.202l0,0c-0.201,0.101-0.403,0.101-0.604,0.201l0,0
	c-0.201,0.101-0.403,0.202-0.504,0.202l0,0c-0.201,0.101-0.303,0.201-0.504,0.302l0,0c-0.101,0.101-0.303,0.202-0.403,0.303
	c0,0,0,0-0.101,0.101c-0.101,0.102-0.202,0.201-0.303,0.303l-0.101,0.101c-0.101,0.101-0.201,0.202-0.303,0.302l-0.101,0.102
	c-0.101,0.101-0.101,0.201-0.201,0.303c0,0.1-0.101,0.1-0.101,0.201c0,0.101-0.102,0.201-0.102,0.201
	c0,0.102-0.101,0.102-0.101,0.201c0,0.102-0.101,0.102-0.101,0.202s-0.101,0.202-0.101,0.302c0,0.102,0,0.102,0,0.202
	s0,0.302,0,0.403c0,0.201,0,0.303,0,0.504c0,0.101,0,0.101,0,0.201c0,0.102,0,0.202,0.101,0.303c0,0.101,0.101,0.101,0.101,0.201
	c0,0.102,0.101,0.202,0.101,0.303s0.102,0.101,0.102,0.201c0.101,0.102,0.101,0.202,0.201,0.202c0,0,0,0,0.101,0.101
	c1.21-1.512,3.931-2.621,7.056-2.621c3.124,0,5.846,1.109,7.055,2.621c0,0,0,0,0-0.101c0.102-0.101,0.102-0.202,0.202-0.302
	c0-0.102,0.101-0.102,0.101-0.202s0.101-0.202,0.101-0.303s0.101-0.101,0.101-0.201s0-0.101,0.102-0.202
	c0-0.101,0.101-0.201,0.101-0.302s0-0.303,0-0.505c0-0.201,0-0.402-0.101-0.705v-0.101c-0.102-0.202-0.202-0.403-0.303-0.604
	l-0.101-0.102c-0.101-0.201-0.202-0.402-0.403-0.504c0,0,0,0-0.101-0.1C344.297,344.096,344.096,343.895,343.894,343.692z
	 M218.108,152.495c-1.814-2.52-4.838-2.52-7.559,0.202c-3.024,3.023-4.737,8.265-4.435,12.8c0.101,0.806,0.201,1.612,0.403,2.318
	c1.209,4.636,4.939,5.745,8.366,2.621c0.101-0.101,0.302-0.302,0.403-0.403c0.101-0.101,0.302-0.302,0.403-0.403
	c0.403-0.504,0.807-1.008,1.209-1.613c-1.209-3.931-1.612-8.164-0.604-11.691C216.496,154.813,217.201,153.502,218.108,152.495z
	 M346.615,228.591l29.33,17.033c0.101-0.101,0.201-0.202,0.302-0.302v-21.569l-29.632-17.134V228.591z M450.227,231.312
	l-34.873-20.158c-0.705-0.403-1.311,0-1.311,1.008v3.527c0,0.504,0.303,1.008,0.605,1.209l34.873,20.158
	c0.705,0.403,1.311,0,1.311-1.008v-3.527C450.933,232.018,450.63,231.514,450.227,231.312z M351.756,349.84
	c0,0.202,0,0.404-0.102,0.504c-0.101,0.404-0.201,0.908-0.302,1.311c0,0.102-0.101,0.202-0.101,0.303
	c-0.102,0.403-0.202,0.807-0.403,1.209c-0.102,0.102-0.102,0.303-0.202,0.404c-0.201,0.402-0.403,0.906-0.604,1.31v0.101
	c-0.201,0.504-0.504,1.008-0.807,1.512c-0.101,0.102-0.101,0.202-0.201,0.303c-0.202,0.403-0.504,0.907-0.807,1.311
	c0,0.101-0.101,0.101-0.101,0.201c-0.303,0.504-0.604,1.008-1.008,1.512c0,0.102-0.101,0.102-0.101,0.201
	c-0.303,0.404-0.604,0.807-0.907,1.21c-0.101,0.101-0.202,0.202-0.202,0.303c-0.302,0.504-0.705,0.907-1.008,1.411
	c0,0.101-0.101,0.101-0.101,0.201c-0.302,0.403-0.604,0.807-0.907,1.109c-0.101,0.201-0.302,0.302-0.403,0.504
	c-0.201,0.302-0.504,0.504-0.705,0.806c-0.201,0.202-0.303,0.302-0.504,0.504c-0.303,0.303-0.604,0.604-0.907,0.907
	c-0.201,0.201-0.403,0.403-0.604,0.605c-0.101,0.201-0.303,0.302-0.403,0.504c-0.201,0.201-0.403,0.402-0.604,0.604
	c-0.101,0.102-0.202,0.202-0.202,0.202c-0.403,0.403-0.705,0.706-1.108,1.108c-0.101,0.102-0.303,0.202-0.403,0.403
	c-0.201,0.101-0.302,0.303-0.504,0.403c-0.302,0.303-0.504,0.504-0.807,0.705c-0.201-0.101-0.302-0.302-0.504-0.402
	c-1.713-1.613-4.031-3.83-6.249-6.451l-0.101-0.101c-0.201-0.202-0.302-0.403-0.504-0.604c-0.101-0.102-0.201-0.201-0.201-0.303
	c-0.202-0.201-0.403-0.504-0.604-0.705c-0.202-0.201-0.403-0.403-0.504-0.706c-0.102-0.101-0.202-0.302-0.303-0.403
	c-0.101-0.201-0.303-0.402-0.403-0.504c-0.101-0.101-0.201-0.302-0.303-0.402c-0.201-0.303-0.402-0.504-0.604-0.807
	c0-0.102-0.101-0.102-0.101-0.201c-0.201-0.303-0.403-0.605-0.706-1.008c-0.101-0.102-0.101-0.202-0.201-0.303
	c-0.201-0.303-0.303-0.504-0.504-0.807c0-0.101-0.101-0.201-0.101-0.201c-0.202-0.303-0.403-0.706-0.604-1.008
	c0,0,0-0.102-0.102-0.102c-0.201-0.302-0.302-0.604-0.504-0.906c0-0.102-0.101-0.202-0.101-0.303
	c-0.101-0.303-0.302-0.605-0.403-0.907c0,0,0-0.101-0.101-0.101c-0.101-0.303-0.303-0.705-0.403-1.008
	c0-0.102-0.101-0.201-0.101-0.303c-0.101-0.201-0.201-0.504-0.201-0.705c0-0.102-0.102-0.202-0.102-0.303
	c-0.101-0.303-0.201-0.604-0.201-0.807c0-0.101-0.101-0.302-0.101-0.402c0-0.202-0.102-0.404-0.102-0.706
	c0-0.202,0-0.302-0.101-0.504c0-0.202,0-0.302,0-0.504c0-0.101,0-0.202,0-0.302v3.023c-0.201,8.063,9.374,18.344,15.018,23.383
	c5.544-5.039,15.119-15.32,14.917-23.282v-3.326c0,0.101,0,0.302,0,0.403C351.856,349.236,351.756,349.538,351.756,349.84z
	 M450.227,241.592l-34.873-20.158c-0.705-0.403-1.311,0-1.311,1.008v3.528c0,0.504,0.303,1.008,0.605,1.209l34.873,20.158
	c0.705,0.403,1.311,0,1.311-1.008v-3.528C450.933,242.298,450.63,241.794,450.227,241.592z M450.227,251.873l-34.873-20.158
	c-0.705-0.403-1.311,0-1.311,1.008v3.527c0,0.504,0.303,1.008,0.605,1.209l34.873,20.158c0.705,0.403,1.311,0,1.311-1.008v-3.528
	C450.933,252.679,450.63,252.075,450.227,251.873z M385.923,155.417l-0.101-1.209l-0.201-1.311l-0.202-1.209l-0.302-1.21
	l-0.303-1.209l-0.303-1.21l-0.302-1.209l-0.403-1.21l-0.403-1.209l-0.403-1.21l-0.504-1.209l-0.504-1.109l-0.504-1.109l-0.604-1.108
	l-0.604-1.109l-0.605-1.008l-0.705-1.008l-0.706-1.008l-0.705-0.907l-0.706-0.907l-0.806-0.907l-0.807-0.806l-0.807-0.806
	l-0.806-0.706l-0.807-0.605l-0.807-0.604l-0.806-0.504l-0.807-0.504l-0.806-0.403l-0.807-0.302l-0.807-0.303l-0.806-0.201
	l-0.807-0.202l-0.807-0.101h-0.806h-0.706l-0.705,0.101l-0.706,0.101l-4.031,1.109c0.201-0.101,0.504-0.101,0.705-0.202
	c0.303,0,0.504-0.101,0.706-0.101c0.302,0,0.504,0,0.806,0c0.303,0,0.504,0,0.807,0s0.504,0,0.807,0.101
	c0.302,0,0.504,0.101,0.806,0.101c0.303,0.101,0.504,0.101,0.807,0.202c0.303,0.101,0.504,0.202,0.807,0.303
	c0.302,0.101,0.504,0.201,0.806,0.302c0.303,0.101,0.504,0.202,0.807,0.403c0.303,0.202,0.604,0.303,0.807,0.504
	c0.302,0.202,0.604,0.303,0.806,0.504c0.303,0.202,0.605,0.403,0.807,0.605c0.303,0.202,0.504,0.403,0.807,0.605
	c0.302,0.201,0.504,0.504,0.806,0.705c0.303,0.202,0.504,0.504,0.807,0.807c0.101,0.101,0.303,0.302,0.403,0.403
	c0.101,0.101,0.302,0.302,0.403,0.403c0.302,0.302,0.504,0.605,0.806,0.907c0.303,0.302,0.504,0.604,0.706,0.907
	c0.201,0.302,0.504,0.604,0.705,0.907c0.202,0.303,0.504,0.605,0.706,1.008c0.201,0.303,0.403,0.706,0.604,1.008
	c0.101,0.202,0.201,0.302,0.303,0.504l0,0c0.101,0.202,0.201,0.403,0.302,0.504c0.202,0.302,0.403,0.706,0.604,1.109
	c0.202,0.302,0.403,0.705,0.605,1.108c0.201,0.403,0.403,0.706,0.604,1.109c0.201,0.403,0.303,0.806,0.504,1.108
	c0.101,0.202,0.201,0.403,0.201,0.605l0,0c0.102,0.202,0.202,0.403,0.202,0.604c0.101,0.202,0.201,0.403,0.201,0.605
	c0.102,0.202,0.102,0.403,0.202,0.604s0.101,0.403,0.201,0.605s0.101,0.403,0.202,0.604c0.101,0.403,0.302,0.807,0.402,1.209
	c0.102,0.403,0.303,0.807,0.403,1.209c0,0.101,0,0.101,0.101,0.202c0.102,0.302,0.202,0.706,0.202,1.008
	c0.101,0.403,0.201,0.807,0.302,1.209c0.102,0.403,0.202,0.807,0.202,1.311c0,0.202,0.101,0.403,0.101,0.604
	s0.101,0.403,0.101,0.605c0,0.403,0.102,0.806,0.202,1.209c0,0.403,0.101,0.806,0.101,1.209c0,0.403,0.101,0.806,0.101,1.209
	s0,0.806,0.101,1.209c0,0.403,0,0.806,0,1.209s0,0.806,0,1.209c0,0.202,0,0.403,0,0.604s0,0.403,0,0.605
	c0,0.403-0.101,0.806-0.101,1.209c0,0.403-0.101,0.806-0.101,1.209s-0.101,0.806-0.201,1.108c0,0.403-0.102,0.706-0.202,1.109
	s-0.201,0.706-0.303,1.109c-0.101,0.302-0.201,0.705-0.302,1.008c-0.101,0.302-0.202,0.706-0.303,1.008
	c-0.101,0.202-0.101,0.302-0.201,0.504s-0.101,0.302-0.202,0.504c-0.101,0.302-0.302,0.605-0.402,0.907
	c-0.102,0.302-0.303,0.604-0.403,0.806c-0.202,0.302-0.303,0.504-0.504,0.806c-0.202,0.303-0.303,0.504-0.504,0.706
	c-0.202,0.201-0.303,0.403-0.504,0.705c-0.202,0.202-0.303,0.403-0.504,0.605c-0.202,0.202-0.303,0.403-0.605,0.604
	c-0.201,0.202-0.402,0.303-0.604,0.504c-0.201,0.201-0.403,0.302-0.604,0.504c-0.202,0.101-0.403,0.302-0.604,0.403
	c-0.202,0.101-0.403,0.202-0.605,0.302c-0.201,0.101-0.402,0.202-0.604,0.303c-0.101,0.101-0.303,0.101-0.403,0.201
	c-0.101,0-0.201,0.101-0.201,0.101l4.031-1.109l0.706-0.201l0.705-0.303l0.604-0.302l0.605-0.403l0.604-0.504l0.604-0.504
	l0.604-0.604l0.504-0.605l0.504-0.706l0.505-0.706l0.402-0.806l0.403-0.806l0.403-0.907l0.303-0.907l0.302-1.008l0.303-1.008
	l0.302-1.109l0.202-1.108l0.201-1.109l0.101-1.209l0.102-1.209l0.101-1.209v-1.209v-1.209l-0.101-1.209L385.923,155.417z"></path>
<path id="color_x5F_1_1_" fill="#003B48" d="M311.138,233.227c0.302,0.101,0.604,0.101,0.806,0.202
	c3.427,0.403,4.133-6.753,4.133-6.753s-1.814-4.334,0.403-6.35c2.116-2.016,6.651,4.737,6.651,4.737l1.512-4.636
	c0,0,1.814-6.652-1.41-8.265c-3.226-1.613-2.621-2.722-2.621-2.722s4.536-0.504,3.931-2.822c0,0,1.21-3.024-4.838-3.326
	c-6.147-0.302-15.018,1.411-16.831,6.35c-1.814,4.838,0.604,15.119,0,17.336c-0.706,2.217-0.706,2.318-0.706,2.318
	s4.535,2.822,8.063,3.931c0.201,0.101,0.302,0.101,0.504,0.202C310.936,233.126,311.036,233.227,311.138,233.227z"></path>
</svg>
