<svg version="1.1" id="Layer_1" xmlns="http://www.w3.org/2000/svg" xmlns:xlink="http://www.w3.org/1999/xlink" x="0px" y="0px" width="600px" height="600px" viewBox="0 0 600 600" enable-background="new 0 0 600 600" xml:space="preserve">
<polygon id="color_x5F_6" fill="#6BA7D0" points="256.308,453.452 21.972,318.395 21.972,331.799 256.308,468.066 553.133,296.22 
	553.133,278.582 "></polygon>
<path id="color_x5F_5" fill="#FFD2BB" d="M358.71,302.973c0,0-6.954-6.349-2.52-17.939l0.101,0.101l0,0
	c0-1.411,0.201-2.923,0.705-4.637c0.202-0.504,0.303-1.008,0.403-1.512c-10.079-12.095-31.548-22.778-50.597-26.205
	c-19.05-3.427-28.726-3.226-43.239-5.241c-14.514-1.915-24.895-13.708-24.895-13.708v-8.265l-17.134,9.676l69.747,40.417
	c0.806-2.116,1.411-4.535,1.411-6.45c0,0,1.713,3.628,4.636,5.04v-1.714c0,0,6.45,7.358,10.18,7.962c0,0-1.411,1.008-3.729,1.008
	c0,0,4.537,4.333,9.375,5.342c0,0-0.504,0.302-1.513,0.604l6.753,3.931c0.201,0,0.402,0,0.604,0l-0.303,0.202l0.303,0.202
	l-2.923,1.512l-1.613,1.008l-40.013,22.979v-2.016l-59.768,34.369v-2.822l-22.577,13.506l1.411-4.938l1.108-3.932l-10.986,6.35
	l-1.209,3.227l-0.101,0.302l3.226-1.713l-1.713,3.526l-26.206,15.623c0,0,1.411-2.821,2.52-6.25l-10.381,5.242l91.113,51.604
	L508.282,274.35l-99.278,57.55L358.71,302.973z"></path>
<path id="color_x5F_4" fill="#00CEC9" d="M553.133,278.582l-296.825,174.87L21.972,318.395l47.673-27.415v40.819l78.011,44.852l0,0
	l1.915,1.109l0,0l91.114,51.604L508.08,274.349v-11.591l-19.554-11.188v-10.583L553.133,278.582z M183.941,230.606
	c0,0-1.209,0.403-3.83,0.302c0,0,3.024,3.931,6.148,5.04c0,0-0.504,0.604-2.822,0.806c0,0,2.923,2.822,6.047,3.125
	c0,0-1.008,1.209-3.628,1.209c0,0,2.318,2.52,6.753,3.226c0,0,3.83-5.443,4.031-8.466c0,0-2.116,1.612-4.535,2.52
	c0,0,3.729-5.745,3.527-8.466c0,0-1.915,1.008-3.427,1.209c0,0,3.83-7.458,3.83-12.095c0,0,1.713,3.628,4.636,5.04v-1.713
	c0,0,6.451,7.357,10.18,7.962c0,0-1.411,1.008-3.729,1.008c0,0,3.628,3.528,7.861,4.938l4.132-2.419l2.318,1.311l17.134-9.676
	v-5.543l0,0l0,0c-0.504-11.49,18.243-22.174,18.243-22.174l44.448,25.197l0,0l-46.464-26.407l6.955-0.806l-5.14-2.52
	c-0.605-0.202-0.807-0.403-0.807-0.403l0.807,0.403c0.604,0.202,1.713,0.303,3.326,0.101c3.226-0.403,5.04-1.411,5.04-1.411
	l-5.04-2.117c0,0,2.217,0.302,4.032-0.101c1.814-0.403,3.628-1.311,3.628-1.311l-4.536-1.814c4.435-0.403,10.482-7.66,10.482-7.66
	c-0.101,4.536,2.923,10.482,3.83,12.195c-0.604-1.008-1.814-3.427-2.721-6.148l54.325-31.144l30.036,17.84l5.442-3.225
	l-40.618-23.686l-144.331,82.849C180.514,228.994,182.026,230.405,183.941,230.606z M163.078,244.415c0,0-1.915,1.31-4.334,1.31
	c0,0,3.225,3.326,8.365,4.032c0,0-1.713,1.713-3.628,2.419c0,0,3.125,2.318,8.567,1.814l3.225-4.536l-4.636,2.419
	c0,0,1.31-3.729,2.419-6.047l-3.628,1.411c0,0,4.536-4.334,4.132-8.769c0,0-1.209,1.411-3.729,1.915c0,0,4.435-6.047,4.333-9.474
	l-17.134,9.877C158.139,241.996,160.255,243.81,163.078,244.415z M144.834,263.564l-4.334,1.814l12.498,7.257l-10.583-6.148
	l5.644,1.109l3.326-6.753l-4.737,3.125c0,0,3.225-5.846,3.125-8.567c0,0-1.613,1.109-4.032,1.411l3.427-7.257l-4.334,1.613
	c0,0,1.613-2.117,3.024-5.14l-11.188,6.45l2.621,3.729l-4.132-0.504L144.834,263.564z"></path>
<path id="color_x5F_3" fill="#E84393" d="M452.746,189.888l-33.865-30.54l48.581-27.415L452.746,189.888z M324.945,195.834
	l0.101-0.101c0.103-0.202,0.303-0.504,0.403-0.706l0,0c0,0,0,0,0-0.101c0.101-0.101,0.101-0.302,0.202-0.403c0,0,0,0,0-0.101l0,0
	c0,0,0-0.101,0.101-0.101c0-0.101,0.102-0.101,0.102-0.202c0,0,0,0,0-0.101l0,0c0,0,0-0.101,0.101-0.101v-0.101l0,0
	c0-0.101,0.101-0.202,0.101-0.202l0,0l0,0c0,0,0,0,0,0.101c0,0,0,0,0,0.101c0,0,0,0.101,0,0.202v0.101c0,0.101,0,0.202,0,0.302
	c0,0.101,0,0.101,0,0.202s0,0.302,0,0.504c0,0.101,0,0.101,0,0.202s0,0.101,0,0.202c0,0.101,0,0.202,0,0.202
	c0,0.101,0,0.302,0,0.403c0,0.202,0,0.303,0,0.504c0,0.202,0,0.303,0,0.504s0,0.504,0,0.705c0,0.101,0,0.303,0,0.403
	c0,0.403,0,0.806,0.103,1.311c0.101,0.907,0.401,2.016,0.806,3.023c0.103,0.302,0.202,0.504,0.303,0.806
	c0.201,0.504,0.505,1.008,0.808,1.512c0.101,0.201,0.302,0.504,0.401,0.705c1.109,1.814,2.117,3.226,2.117,3.226l0,0l-0.906-0.403
	l-2.521-0.907l0,0c0,0.605,0.101,1.109,0.201,1.613c0.1,0.504,0.303,1.008,0.504,1.512c0.303,0.706,0.706,1.411,1.108,2.117
	c0.303,0.403,0.505,0.807,0.807,1.209c0.101,0.202,0.303,0.302,0.403,0.504c0.807,0.907,1.411,1.512,1.411,1.512l0,0l-4.737-2.52
	c0,0,0,0,0.807,2.721c0.807,2.722,3.932,5.846,3.932,5.846l-5.241-1.411l0,0c0.907,1.814,4.435,4.838,4.435,4.838h-4.435l0,0
	c0.201,0.202,0.303,0.403,0.504,0.604l0.101,0.101c0.202,0.201,0.304,0.302,0.504,0.504l0.103,0.101
	c0.201,0.101,0.302,0.302,0.504,0.403l0.101,0.101c0.201,0.101,0.403,0.303,0.604,0.403l0.101,0.101
	c0.202,0.101,0.403,0.202,0.604,0.403c0,0,0.102,0,0.102,0.101c0.201,0.101,0.403,0.202,0.604,0.403h0.101
	c0.202,0.101,0.403,0.202,0.604,0.302h0.102c0.201,0.101,0.402,0.202,0.604,0.303c0,0,0,0,0.101,0
	c0.202,0.101,0.403,0.201,0.604,0.302c0,0,0,0,0.102,0c0.201,0.101,0.402,0.202,0.604,0.302l0,0
	c0.201,0.101,0.403,0.202,0.505,0.202c0,0,0,0,0.101,0c0.202,0.101,0.303,0.101,0.504,0.202c0,0,0,0,0.102,0
	s0.303,0.101,0.402,0.101h0.102c0.102,0,0.201,0.101,0.201,0.101h0.102h0.101h0.102c2.017-0.907,3.428-2.016,3.932-2.621l0,0
	c0.102-0.101,0.201-0.202,0.201-0.202l0,0l0.101-0.101c-1.008-0.101-1.915-0.303-2.619-0.504c-0.604-0.201-1.108-0.302-1.613-0.504
	c-0.807-0.302-1.311-0.604-1.713-0.806c-0.304-0.202-0.403-0.302-0.403-0.302c4.031-0.302,6.552-2.419,7.761-3.83
	c0.504-0.605,0.808-1.008,0.808-1.008c-1.312-0.101-2.318-0.403-3.227-0.605c-0.604-0.101-1.008-0.302-1.411-0.403
	c-0.504-0.201-0.806-0.302-0.806-0.302c0.604,0,1.209-0.202,1.713-0.504c0.706-0.302,1.411-0.806,1.915-1.209
	c0.403-0.302,0.807-0.706,1.108-1.008c0.102-0.101,0.202-0.202,0.303-0.302c0.101-0.202,0.303-0.302,0.403-0.403
	c0.2-0.202,0.302-0.403,0.302-0.403l0,0c-0.806-0.101-1.713-0.403-2.521-0.706c-1.31-0.504-2.52-1.109-2.52-1.109
	c4.133-0.302,8.265-3.427,8.265-3.427c-2.52-0.101-5.645-0.807-5.645-0.807c1.813-0.604,3.629-1.411,5.342-2.217
	c2.621-1.31,4.939-2.721,6.652-3.83c1.714-1.108,2.722-1.915,2.722-1.915c0.201,4.636,5.342,14.211,5.342,14.211l-4.232-2.419
	c0.101,4.435,2.52,10.482,2.52,10.482c-2.016-1.209-3.729-3.628-3.729-3.628c0.806,8.567,5.239,11.691,5.239,11.691
	c5.544,1.613,10.281-2.117,10.281-2.117c-2.722-0.806-5.544-2.721-5.544-2.721c7.561,1.008,12.196-3.83,12.196-3.83
	c-2.318,0-6.552-1.713-6.552-1.713c9.172,0.302,15.018-7.458,15.018-7.458c0.807,6.451,6.652,14.715,6.652,14.715l-4.737-2.822
	c2.822,6.753,8.365,15.018,8.365,15.018l-5.745-2.52c0,0,0.907,8.366,6.048,10.583c5.141,2.217,9.373-0.504,9.373-0.504
	c-2.62-0.605-5.846-3.024-5.846-3.024c7.659,1.512,17.738-8.164,17.738-8.164c0.102,0.403,0.102,0.907,0.201,1.411
	c0,0.101,0,0.202,0.103,0.303c0.101,0.504,0.2,0.907,0.401,1.411c0,0.101,0,0.101,0.103,0.202c0.101,0.504,0.302,0.907,0.504,1.411
	c0,0.101,0.101,0.202,0.101,0.302c0.201,0.504,0.403,1.008,0.604,1.613c0,0.101,0.101,0.101,0.101,0.202
	c0.202,0.504,0.504,1.108,0.706,1.612l0,0c0.302,0.605,0.604,1.21,0.907,1.714c0,0,0,0.101,0.101,0.101
	c0.604,1.209,1.312,2.419,1.915,3.528l0,0l0,0c0.403-10.482-1.107-20.561-6.35-27.113c-15.623-19.049-10.482-21.166-6.552-38.098
	c3.93-16.932-5.646-40.82-5.646-40.82l-39.207,23.484l-5.441,3.225l-30.035-17.839l-4.535,42.533c0,0,0,0,0-0.101
	C324.643,196.338,324.845,196.036,324.945,195.834z M158.139,367.982L158.139,367.982c0.605-0.604,2.52-3.023,3.83-6.351
	l-52.007-29.229l19.553-73.375l-5.14,2.721l-11.49,6.148l-1.814,0.907l0,0l-11.893,6.35l-0.202,0.101l-8.97,4.838l0,0l-17.335,9.172
	l-3.024,1.612v0.101v40.819l78.011,44.852l0,0l1.915,1.109l0,0l10.381-5.242l0,0c0.101-0.401,0.302-0.806,0.403-1.209
	c0,0,0,0,0-0.101c0.101-0.403,0.202-0.706,0.303-1.108c0-0.102,0.101-0.201,0.101-0.303c0.101-0.303,0.101-0.605,0.202-0.906
	c0-0.102,0-0.203,0.101-0.303c0.101-0.404,0.101-0.807,0.202-1.109C161.263,367.479,160.558,368.184,158.139,367.982
	C158.038,368.084,158.038,368.084,158.139,367.982C158.038,368.084,158.139,367.982,158.139,367.982z M488.628,273.744
	l-79.725,46.564l-50.193-28.523l0,0l0,0c0,0,0-0.101-0.101-0.101c0,0,0,0,0-0.101s-0.103-0.101-0.103-0.202c0,0,0,0,0-0.101
	c-0.101-0.101-0.101-0.202-0.201-0.302l-0.101-0.101c0-0.101-0.102-0.202-0.102-0.202c0-0.101-0.102-0.101-0.102-0.201
	c-0.101-0.101-0.101-0.202-0.201-0.403c0-0.101-0.101-0.101-0.101-0.202c-0.102-0.101-0.102-0.302-0.202-0.504
	c0-0.101-0.102-0.101-0.102-0.202c-0.101-0.101-0.101-0.302-0.2-0.403c0-0.101-0.102-0.201-0.102-0.302
	c-0.102-0.202-0.102-0.302-0.202-0.504c0-0.101,0-0.101-0.101-0.202c-0.101-0.202-0.101-0.403-0.202-0.706
	c0-0.101,0-0.202-0.101-0.302c0-0.202-0.102-0.403-0.102-0.504c0-0.101,0-0.202,0-0.302c0-0.202,0-0.504,0-0.706
	c0-0.101,0-0.101,0-0.202l0,0l-0.101-0.101c-4.334,11.591,2.52,17.941,2.52,17.941l50.094,28.926l99.276-57.551v-11.591
	L488.628,273.744z M357.399,278.985L357.399,278.985L357.399,278.985l0.101-2.621l0,0l0,0v-0.101c0-0.403-0.101-0.806-0.201-1.209
	c0-0.101-0.101-0.302-0.101-0.403c-0.102-0.302-0.102-0.604-0.202-0.907c0-0.201-0.102-0.302-0.102-0.504
	c-0.101-0.302-0.2-0.604-0.302-0.907c-0.102-0.202-0.102-0.303-0.202-0.504c-0.2-0.403-0.302-0.705-0.504-1.108
	c0-0.101-0.101-0.202-0.101-0.302c-0.202-0.504-0.504-0.907-0.808-1.411c-0.101-0.101-0.2-0.302-0.2-0.403
	c-0.202-0.302-0.403-0.706-0.604-1.008c-0.102-0.202-0.202-0.302-0.303-0.504c-0.202-0.302-0.403-0.605-0.706-0.907
	c-0.101-0.202-0.302-0.302-0.402-0.504c-0.303-0.302-0.604-0.604-0.807-1.008c-0.102-0.101-0.201-0.202-0.303-0.403
	c-0.402-0.403-0.807-0.806-1.311-1.31c-0.102-0.101-0.202-0.202-0.303-0.202c-0.403-0.302-0.705-0.706-1.108-1.008
	c-0.202-0.101-0.303-0.302-0.504-0.403c-0.303-0.302-0.706-0.504-1.008-0.806c-0.202-0.101-0.403-0.302-0.605-0.403
	c-0.401-0.302-0.704-0.504-1.107-0.706c-0.201-0.101-0.303-0.202-0.504-0.302c-0.604-0.302-1.108-0.706-1.714-1.008
	c-10.28-5.645-26.91-14.11-49.487-14.917c-22.577-0.806-49.084-7.055-54.426-19.855c-0.101-0.403-0.302-0.706-0.403-1.109
	c0-0.101-0.101-0.201-0.101-0.302c-0.101-0.302-0.101-0.504-0.202-0.806c0-0.101,0-0.202-0.101-0.403
	c0-0.302-0.101-0.706-0.101-1.008l0,0l0,0l0,0v5.543v8.265c0,0,10.482,11.792,24.895,13.708c14.514,1.915,24.189,1.814,43.239,5.241
	C325.853,256.207,347.422,266.891,357.399,278.985L357.399,278.985z M212.565,237.763l-31.749,18.545l-27.818,16.328l41.223,23.887
	l9.172,21.167l0,0l15.723-83.756l-4.132,2.419L212.565,237.763z"></path>
<path id="color_x5F_2" fill="#FBC02D" d="M198.354,315.371l3.225-0.605c0,0-4.939-2.117-7.559-4.736c0,0-0.403,4.232-3.427,7.66
	c0,0,1.512-0.907,2.722-1.612c0,0-0.706,2.317-1.814,4.637l-0.302-0.303l-0.403,1.612c-0.504,0.806-0.907,1.512-1.512,2.115
	c0,0,0.403-0.101,1.008-0.201l-1.209,4.737l-1.915-3.226l-1.713,11.793l-1.512-1.21l-5.04,13.002
	c-2.318-0.604-3.931-1.714-3.931-1.714c3.023-0.303,4.233-1.713,4.233-1.713c-5.946-0.303-7.861-3.729-7.861-3.729
	c1.814-0.302,2.822-1.108,2.822-1.108c-5.04-1.108-7.458-6.047-7.458-6.047c0.101,2.619-5.04,14.715-5.04,14.715
	c1.915-1.209,3.125-4.232,3.125-4.232c-0.202,8.668-5.745,12.296-5.745,12.296c2.52,0,3.931-0.604,3.931-0.604
	c-0.504,5.545-4.233,10.08-4.938,10.887c0.504-0.605,2.52-3.023,3.83-6.35l-52.007-29.229l19.553-73.375l10.986,6.45l12.498,7.257
	h0.101l41.223,23.887l9.172,21.166C201.781,317.387,199.664,316.682,198.354,315.371z M488.628,251.571v-10.583v-81.236
	l-21.166-27.717l-14.716,57.954l-33.865-30.539l-15.219-14.111c0,0,9.575,23.887,5.645,40.82
	c-3.932,16.933-9.172,19.049,6.552,38.099c5.342,6.45,6.753,16.529,6.35,27.112c4.233,7.458,9.272,14.01,9.272,14.01l-7.56-4.536
	c1.612,8.87,9.172,20.863,9.172,20.863l-6.451-3.225c0.202,0.504,0.403,1.109,0.706,1.613c0.102,0.202,0.102,0.302,0.201,0.504
	c0.202,0.403,0.303,0.806,0.504,1.108c0.103,0.202,0.202,0.403,0.304,0.605c0.2,0.403,0.303,0.706,0.504,1.008
	c0.101,0.202,0.2,0.403,0.303,0.504c0.201,0.302,0.402,0.706,0.504,1.008c0,0.101,0.101,0.101,0.101,0.202
	c0.102,0.202,0.201,0.403,0.304,0.605c0.101,0.101,0.201,0.302,0.201,0.403c0.2,0.403,0.402,0.706,0.604,1.109
	c0.101,0.202,0.202,0.302,0.303,0.504c0.102,0.202,0.303,0.504,0.403,0.706c0.101,0.202,0.201,0.302,0.302,0.504
	c0.103,0.202,0.304,0.504,0.403,0.706c0.1,0.202,0.303,0.403,0.403,0.604c0.101,0.202,0.303,0.403,0.402,0.605
	c0.102,0.101,0.201,0.302,0.303,0.403c0.102,0.202,0.201,0.302,0.303,0.504c0.101,0.101,0.201,0.302,0.303,0.403
	c0.201,0.202,0.302,0.504,0.504,0.706c0.102,0.101,0.102,0.202,0.201,0.303c0.101,0.101,0.201,0.302,0.303,0.403
	s0.102,0.202,0.201,0.302c0.102,0.101,0.202,0.202,0.202,0.303s0.101,0.101,0.101,0.202c0.102,0.101,0.201,0.302,0.303,0.403
	l0.102,0.101c0.102,0.101,0.102,0.101,0.102,0.201l0,0l0.101,0.101l-6.148-2.52c0.202,0.303,0.304,0.706,0.504,1.008l0,0
	l-8.063,0.202l-8.769-5.241c0.806,1.108,1.713,2.117,2.619,2.822c0,0-3.226-1.31-4.938-2.318c0,0,3.83,9.374,8.063,11.691
	c0,0-4.132-0.604-5.239-1.412c0,0,0.806,4.837,2.82,6.753L356.392,268c0,0,5.442-1.008,8.468-2.117c0,0-3.326-2.923-4.939-6.249
	h3.125l-33.361-19.049l-2.821-2.721l-25.499-14.715l-44.449-25.197c0,0-18.747,10.583-18.243,22.174l0,0
	c0,0.302,0.101,0.706,0.101,1.008c0,0.101,0,0.202,0.101,0.403c0,0.303,0.101,0.504,0.202,0.807c0,0.101,0.101,0.202,0.101,0.302
	c0.101,0.403,0.202,0.706,0.403,1.109c5.342,12.8,31.85,19.049,54.426,19.855c22.577,0.806,39.106,9.272,49.487,14.917
	c0.604,0.303,1.21,0.706,1.714,1.008c0.201,0.101,0.303,0.201,0.504,0.302c0.403,0.202,0.807,0.504,1.108,0.706
	c0.201,0.101,0.402,0.302,0.604,0.403c0.302,0.303,0.705,0.504,1.008,0.807c0.201,0.101,0.303,0.302,0.504,0.403
	c0.403,0.303,0.807,0.605,1.108,1.008c0.102,0.101,0.202,0.201,0.303,0.201c0.403,0.403,0.907,0.807,1.311,1.311
	c0.102,0.101,0.202,0.202,0.303,0.403c0.303,0.303,0.604,0.605,0.807,1.008c0.102,0.202,0.303,0.302,0.402,0.504
	c0.202,0.302,0.505,0.604,0.706,0.907c0.101,0.202,0.201,0.303,0.303,0.504c0.201,0.302,0.402,0.706,0.604,1.008
	c0.101,0.101,0.201,0.302,0.201,0.403c0.303,0.504,0.504,0.907,0.807,1.411c0,0.101,0.101,0.202,0.101,0.302
	c0.202,0.403,0.304,0.706,0.505,1.109c0.101,0.202,0.101,0.302,0.201,0.504c0.102,0.302,0.201,0.605,0.303,0.907
	c0.101,0.202,0.101,0.302,0.101,0.504c0.103,0.302,0.202,0.604,0.202,0.907c0,0.101,0.101,0.302,0.101,0.403
	c0.102,0.403,0.102,0.807,0.201,1.209v0.101l0,0l0,0c0.103,0.907,0,1.713-0.101,2.52v0.101l0,0l0,0
	c-0.102,0.504-0.201,1.008-0.403,1.512c-0.604,1.713-0.806,3.225-0.705,4.636c0,0.101,0,0.101,0,0.202c0,0.202,0,0.504,0,0.706
	c0,0.101,0,0.202,0,0.302c0,0.202,0.102,0.403,0.102,0.504c0,0.101,0,0.202,0.101,0.302c0,0.202,0.102,0.504,0.202,0.706
	c0,0.101,0,0.101,0.101,0.202c0.102,0.202,0.102,0.403,0.201,0.504c0,0.101,0.103,0.202,0.103,0.303s0.101,0.302,0.2,0.403
	c0,0.101,0.102,0.202,0.102,0.202c0.102,0.202,0.102,0.302,0.202,0.504c0,0.101,0.101,0.101,0.101,0.202
	c0.102,0.101,0.102,0.202,0.201,0.403c0,0.101,0.102,0.101,0.102,0.202c0.102,0.101,0.102,0.201,0.102,0.201l0.101,0.101
	c0.102,0.101,0.102,0.202,0.202,0.302c0,0,0,0,0,0.101c0.101,0.101,0.101,0.101,0.101,0.201c0,0,0,0,0,0.101l0.102,0.101l0,0l0,0
	l50.193,28.523l79.725-46.564l19.553-10.986L488.628,251.571z M273.644,193.213c0.202,0.302,0.403,0.706,0.604,1.109
	c0.303,0.403,0.504,0.907,0.807,1.31c0,0,0,0.101,0.101,0.101l0,0c0.807,1.31,1.512,2.419,1.512,2.419l0,0l-2.721-1.814
	c0,0-0.101,0.202,0,0.807c0.101,0.302,0.202,0.604,0.302,1.108c0.101,0.202,0.202,0.504,0.303,0.706
	c0.101,0.302,0.302,0.605,0.504,0.907c0.101,0.202,0.202,0.302,0.302,0.504c0.202,0.302,0.403,0.604,0.605,0.907
	c0.302,0.403,0.705,0.806,1.008,1.108c1.108,1.008,2.116,1.613,2.116,1.613l-5.241-0.806c0,0,4.838,5.241,6.551,5.241
	c0.504,0,1.209-0.101,1.915-0.101c0.403,0,0.907-0.101,1.31-0.101c0.302,0,0.504-0.101,0.806-0.101
	c0.706-0.101,1.21-0.202,1.21-0.202l0,0l-1.613-1.108l-0.605-0.403l0,0c1.311,0.101,2.419,0.101,3.326,0
	c0.302,0,0.706-0.101,0.907-0.202c0.101,0,0.302-0.101,0.403-0.101c0.202-0.101,0.504-0.101,0.605-0.202
	c0.504-0.202,0.806-0.403,0.806-0.403l-3.628-2.117c1.109,0,2.016-0.101,2.822-0.403c2.419-0.706,3.628-2.016,3.628-2.016
	l-3.024-1.31l0,0c0.303-0.101,0.605-0.101,0.807-0.202c0.302-0.101,0.504-0.202,0.806-0.302c0.504-0.202,1.008-0.504,1.512-0.807
	c0.504-0.302,0.907-0.604,1.311-1.008c2.116-1.713,3.326-3.628,3.326-3.628c-0.806,4.132,2.52,10.785,2.52,10.785l-2.822-1.613
	c0,2.721,2.721,6.551,2.721,6.551l-4.435-2.116c0.202,0.302,0.403,0.705,0.605,1.008c0.202,0.302,0.403,0.706,0.706,1.008
	c0.201,0.302,0.504,0.706,0.705,1.008c0.101,0.202,0.202,0.302,0.403,0.504c0.202,0.302,0.504,0.605,0.706,0.907
	c0.806,0.907,1.411,1.512,1.411,1.512l-3.225-1.209l2.318,2.923l1.512,1.915l4.837-0.302l0,0l-2.017-0.907l-1.008-0.504l0,0
	c0,0,0,0,0.102,0c0,0,0.102,0,0.201,0l0,0c0,0,0.103,0,0.201,0c0.102,0,0.303,0,0.504,0c0.103,0,0.202,0,0.404,0
	c0.201,0,0.402,0,0.705,0c0.102,0,0.303,0,0.402,0c2.116,0,5.746-0.706,5.746-0.706l-6.148-4.334c0,0,0.303,0.101,0.807,0.302l0,0
	c0,0,0,0,0.101,0c0.202,0,0.303,0.101,0.505,0.101c0.102,0,0.102,0,0.201,0.101c0.201,0,0.303,0.101,0.504,0.101
	c0.101,0,0.202,0,0.303,0.101c0.201,0,0.403,0.101,0.604,0.101c0.101,0,0.201,0,0.303,0c0.302,0,0.604,0,0.907,0
	c2.217,0,6.249-1.411,6.249-1.411l-4.737-2.621l0,0l-1.512-0.806c0,0,0,0,0.604,0c0.102,0,0.302,0,0.504,0
	c0.201,0,0.504,0,0.705,0.101c0.303,0,0.605,0,1.008,0.101c0.202,0,0.403,0,0.605,0c0.907,0.101,1.713,0,2.419-0.101
	c2.116-0.302,3.326-1.109,3.326-1.109l-4.838-3.023c0,0,1.915,0,4.03-0.302l0,0c0.504-0.101,1.108-0.101,1.612-0.202h0.101
	c0.202,0,0.403-0.101,0.605-0.101c0.101,0,0.101,0,0.201,0c0.202-0.101,0.504-0.101,0.706-0.201
	c0.201-0.101,0.401-0.202,0.604-0.303c0.102,0,0.102-0.101,0.201-0.101c0.103-0.101,0.303-0.202,0.403-0.302
	c0.101-0.101,0.202-0.101,0.202-0.202c0.101-0.101,0.2-0.202,0.401-0.302c0.103-0.101,0.202-0.202,0.202-0.202
	c0.102-0.101,0.201-0.302,0.403-0.403c0.101-0.101,0.201-0.202,0.201-0.302c0.101-0.101,0.201-0.302,0.402-0.504
	c0.102-0.101,0.102-0.202,0.201-0.202c0.103-0.202,0.303-0.403,0.403-0.605l0,0c0-0.101,0.101-0.101,0.101-0.201l0,0
	c0.403-0.504,0.706-1.008,1.008-1.512l0,0l4.536-42.533l-54.326,31.144c0.907,2.721,2.117,5.141,2.721,6.148l0,0
	c0.101,0.101,0.101,0.201,0.202,0.302c0,0,0,0,0,0.101v0.101l0,0l-4.838-2.722c0,0-0.101,0.303-0.101,0.706
	c0,0.403,0,1.109,0.101,1.814C272.938,192.004,273.24,192.609,273.644,193.213z M292.29,280.094c0,0-1.915,1.008-3.427,1.209
	c0,0,1.31-2.52,2.419-5.645l-69.747-40.417l-2.318-1.31l-15.723,83.756c1.612,0.302,2.822,0.302,2.822,0.302l-3.83,2.219
	c1.209,0.604,3.225,1.008,4.737,1.31l0.807-4.838l6.249,5.645l0.907-3.225l4.032,3.729l2.016-7.155l-3.427,3.326l4.132-9.575
	l-5.04,1.713l6.753-8.365l-4.435,1.814l7.66-16.63l5.442,9.676l-2.621-0.101l6.047,8.668l-4.132-0.504l9.575,7.962l-5.443,2.218
	l8.668,1.713l3.326-6.753l-4.737,3.124c0,0,3.226-5.846,3.125-8.566c0,0-1.612,1.108-4.031,1.41l3.427-7.256l-4.334,1.613
	c0,0,3.023-4.032,4.334-8.668l-3.628,2.016c0,0,4.737-7.257,4.535-12.397c0,0,3.931,5.644,9.172,6.451c0,0-1.612,1.008-3.326,1.209
	c0,0,2.721,3.83,6.954,4.636c0,0-1.915,1.31-4.334,1.31c0,0,3.226,3.326,8.366,4.032c0,0-1.713,1.713-3.628,2.419
	c0,0,3.125,2.318,8.567,1.813l3.225-4.535l-4.636,2.419c0,0,1.31-3.73,2.419-6.048l-3.628,1.411c0,0,4.535-4.334,4.132-8.769
	c0,0-1.209,1.411-3.729,1.915c0,0,4.737-6.35,4.334-9.877l-2.822,1.209c0,0,3.427-7.761,3.729-10.482c0,0,2.621,3.628,6.148,4.536
	c0,0-1.612,0.604-2.721,0.604c0,0,2.217,3.83,5.443,4.132c0,0-1.209,0.403-3.83,0.303c0,0,3.023,3.931,6.148,5.039
	c0,0-0.504,0.605-2.822,0.807c0,0,2.923,2.822,6.047,3.125c0,0-1.008,1.209-3.628,1.209c0,0,2.318,2.52,6.753,3.225
	c0,0,3.83-5.442,4.031-8.466c0,0-2.117,1.613-4.536,2.52C288.762,288.561,292.491,282.815,292.29,280.094z M388.544,278.179
	c3.527,0.706,4.535,0,4.535,0s-3.227-1.613-4.436-2.822c0,0,0.505-0.101,1.513-0.504l-7.257-4.132
	c0.704,1.209,1.611,2.318,2.419,2.923l-3.629-0.907C381.589,272.837,385.016,277.474,388.544,278.179z"></path>
<path id="color_x5F_1" fill="#0984E3" d="M144.834,263.564l-4.334,1.814l-10.986-6.451l-5.14,2.721l1.008-2.419l-1.512,0.504
	l-3.527,1.21l6.753-8.366l-4.435,1.814l7.66-16.63l5.443,9.676l-2.621-0.101l3.527,5.04l2.621,3.729l-4.132-0.504L144.834,263.564z
	 M318.395,291.382c0.201,0,0.402,0,0.604,0l-0.303,0.202l-2.62,1.613l-1.613,1.008l-40.013,22.98v-2.017l-59.768,34.47v-2.822
	l-22.577,13.507l1.411-4.938l1.108-3.931l-10.986,6.351l-1.209,3.226l-0.101,0.302l3.226-1.713l-1.713,3.527l-26.206,15.623
	c0,0,1.411-2.822,2.52-6.25l0,0c0.101-0.402,0.302-0.807,0.403-1.209c0,0,0,0,0-0.102c0.101-0.402,0.202-0.706,0.302-1.107
	c0-0.103,0.101-0.203,0.101-0.304c0.101-0.303,0.101-0.604,0.202-0.907c0-0.101,0-0.201,0.101-0.302
	c0.101-0.403,0.101-0.807,0.202-1.108c0,0-0.706,0.705-3.225,0.604l0,0c0,0,0,0,0-0.103c0,0,0,0,0-0.101
	c0.706-0.807,4.435-5.342,4.938-10.886c0,0-1.411,0.605-3.931,0.605c0,0,5.543-3.629,5.745-12.297c0,0-1.209,3.022-3.125,4.232
	c0,0,5.14-11.994,5.039-14.717c0,0,2.318,5.041,7.458,6.049c0,0-1.008,0.806-2.822,1.107c0,0,1.814,3.429,7.861,3.729
	c0,0-1.209,1.411-4.233,1.714c0,0,1.512,1.107,3.931,1.713l5.04-13.002l1.512,1.21l1.713-11.792l1.915,3.225l1.209-4.735
	l0.504-1.813l0.403-1.613l0.302,0.303c1.109-2.318,1.814-4.637,1.814-4.637c-1.31,0.705-2.721,1.613-2.721,1.613
	c3.024-3.429,3.427-7.66,3.427-7.66c2.621,2.52,7.56,4.735,7.56,4.735l-3.226,0.605c1.311,1.409,3.427,2.016,5.141,2.317l0,0
	c1.612,0.303,2.822,0.303,2.822,0.303l-3.83,2.218c1.209,0.604,3.226,1.008,4.737,1.312l0.806-4.839l6.249,5.644l0.907-3.226
	l4.032,3.729l2.016-7.155l-3.427,3.325l4.132-9.575l-5.04,1.714l6.753-8.365l-4.435,1.813l7.66-16.63l5.443,9.676l-2.621-0.101
	l6.047,8.667l-4.132-0.504l9.575,7.963l-5.443,2.218l8.668,1.713l3.326-6.752l-4.737,3.124c0,0,3.225-5.846,3.125-8.567
	c0,0-1.613,1.109-4.032,1.411l3.427-7.257l-4.333,1.612c0,0,3.023-4.031,4.333-8.667l-3.628,2.016c0,0,4.737-7.257,4.535-12.397
	c0,0,3.931,5.644,9.172,6.451c0,0-1.612,1.008-3.326,1.209c0,0,2.722,3.83,6.955,4.636c0,0-1.915,1.31-4.334,1.31
	c0,0,3.226,3.326,8.366,4.032c0,0-1.713,1.713-3.628,2.419c0,0,3.125,2.317,8.567,1.813l3.226-4.536l-4.637,2.418
	c0,0,1.311-3.729,2.419-6.046l-3.628,1.411c0,0,4.536-4.334,4.133-8.769c0,0-1.209,1.411-3.729,1.915c0,0,4.737-6.35,4.334-9.877
	l-2.822,1.209c0,0,3.427-7.761,3.729-10.482c0,0,2.621,3.628,6.148,4.536c0,0-1.612,0.604-2.721,0.604c0,0,2.217,3.83,5.443,4.132
	c0,0-1.21,0.403-3.83,0.302c0,0,3.023,3.931,6.148,5.04c0,0-0.504,0.605-2.822,0.807c0,0,2.923,2.822,6.047,3.125
	c0,0-1.008,1.209-3.628,1.209c0,0,2.318,2.52,6.753,3.225c0,0,3.83-5.443,4.032-8.466c0,0-2.117,1.613-4.536,2.52
	c0,0,3.729-5.745,3.528-8.466c0,0-1.915,1.008-3.427,1.209c0,0,1.31-2.52,2.419-5.644c0.806-2.117,1.411-4.536,1.411-6.451
	c0,0,1.713,3.628,4.636,5.04v-1.713c0,0,6.451,7.358,10.179,7.962c0,0-1.411,1.008-3.729,1.008c0,0,4.535,4.334,9.373,5.342
	c0,0-0.504,0.303-1.512,0.605c-0.706,0.202-1.714,0.403-3.022,0.403C308.617,287.855,313.153,291.685,318.395,291.382z
	 M180.816,350.949c-0.202,0.101-0.403,0.201-0.706,0.303c0,0,0.202,0.102,0.504,0.201L180.816,350.949z M194.322,322.525
	c-0.202,0.102-0.504,0.303-0.806,0.404l0.504,0.504C194.221,322.828,194.322,322.525,194.322,322.525z M207.021,323.131
	c-0.806,0.403-1.411,0.706-1.411,0.706c0.302,0.202,0.806,0.302,1.209,0.403L207.021,323.131z M212.263,237.964
	c-0.101-0.101-0.202-0.201-0.202-0.201c0.202,0,0.403,0,0.605,0l2.419-1.411c-4.233-1.411-7.862-4.939-7.862-4.939
	c2.318,0,3.729-1.008,3.729-1.008c-3.729-0.604-10.18-7.962-10.18-7.962v1.713c-2.923-1.411-4.637-5.04-4.637-5.04
	c0,4.637-3.83,12.095-3.83,12.095c1.512-0.101,3.427-1.209,3.427-1.209c0.201,2.721-3.528,8.466-3.528,8.466
	c2.52-0.806,4.536-2.52,4.536-2.52c-0.202,2.923-4.032,8.466-4.032,8.466c-4.536-0.706-6.753-3.225-6.753-3.225
	c2.621,0,3.628-1.209,3.628-1.209c-3.125-0.302-6.047-3.125-6.047-3.125c2.318-0.202,2.822-0.807,2.822-0.807
	c-3.125-1.108-6.148-5.039-6.148-5.039c2.621,0.101,3.83-0.303,3.83-0.303c-1.915-0.201-3.427-1.612-4.435-2.721
	c-0.706-0.806-1.008-1.411-1.008-1.411c1.108,0,2.721-0.604,2.721-0.604c-3.528-0.907-6.148-4.536-6.148-4.536
	c-0.303,2.721-3.729,10.482-3.729,10.482l2.822-1.209c0,0.101,0,0.202,0,0.303c0,3.527-4.334,9.474-4.334,9.474
	c2.52-0.504,3.729-1.915,3.729-1.915c0.303,4.435-4.132,8.769-4.132,8.769l3.628-1.411c-1.108,2.318-2.419,6.047-2.419,6.047
	l4.636-2.419l-3.225,4.536c-5.442,0.504-8.567-1.814-8.567-1.814c1.915-0.706,3.628-2.419,3.628-2.419
	c-5.04-0.706-8.366-4.032-8.366-4.032c2.52,0,4.334-1.31,4.334-1.31c-2.721-0.605-4.838-2.419-6.047-3.629
	c-0.604-0.604-0.907-1.008-0.907-1.008c1.713-0.201,3.326-1.209,3.326-1.209c-5.241-0.806-9.172-6.45-9.172-6.45
	c0.101,5.14-4.536,12.397-4.536,12.397l3.628-2.016c-0.403,1.31-0.806,2.52-1.411,3.527c-1.411,2.923-3.024,5.141-3.024,5.141
	l4.334-1.613l-3.427,7.257c2.419-0.302,4.031-1.411,4.031-1.411c0.101,2.721-3.124,8.567-3.124,8.567l4.737-3.124l-3.326,6.753
	l-5.644-1.109l10.583,6.148h0.101l27.818-16.328L212.263,237.964z M429.968,292.391c0.202,0.302,0.304,0.705,0.504,1.008l0,0
	l-8.063,0.202l-8.77-5.241c0.807,1.109,1.713,2.117,2.62,2.822c0,0-3.226-1.311-4.938-2.318c0,0,3.83,9.374,8.063,11.693
	c0,0-4.132-0.605-5.24-1.412c0,0,0.807,4.837,2.821,6.753l-60.574-38.1c0,0,5.442-1.008,8.468-2.117c0,0-3.326-2.923-4.939-6.249
	h3.125l-33.361-19.049l-2.821-2.721l0,0l-25.499-14.514l-46.465-26.407l6.955-0.807l-5.14-2.52c0.604,0.202,1.713,0.302,3.326,0.101
	c3.225-0.403,5.039-1.411,5.039-1.411l-5.039-2.117c0,0,2.217,0.302,4.031-0.101c1.814-0.403,3.628-1.311,3.628-1.311l-4.535-1.814
	c4.435-0.403,10.482-7.66,10.482-7.66c-0.101,4.536,2.923,10.482,3.83,12.195l0,0c0.101,0.101,0.101,0.202,0.202,0.303
	c0,0,0,0,0,0.101v0.101l0,0l-4.838-2.721c0,0-0.101,0.303-0.101,0.706c0,0.403,0,1.109,0.101,1.814
	c0.101,0.403,0.403,0.907,0.806,1.612c0.202,0.303,0.403,0.706,0.604,1.109c0.303,0.403,0.504,0.907,0.807,1.31
	c0,0,0,0.101,0.101,0.101l0,0c0.807,1.31,1.512,2.419,1.512,2.419l-2.721-1.814c0,0-0.101,0.202,0,0.807
	c0.101,0.302,0.202,0.604,0.302,1.108c0.101,0.202,0.202,0.504,0.303,0.706c0.101,0.302,0.302,0.605,0.504,0.907
	c0.101,0.202,0.202,0.302,0.302,0.504c0.202,0.302,0.403,0.604,0.604,0.907c0.303,0.403,0.706,0.806,1.008,1.108
	c1.108,1.008,2.116,1.613,2.116,1.613l-5.241-0.806c0,0,4.838,5.241,6.551,5.241c0.504,0,1.209-0.101,1.915-0.101
	c0.403,0,0.907-0.101,1.31-0.101c0.302,0,0.504-0.101,0.806-0.101c0.706-0.101,1.209-0.202,1.209-0.202l0,0l0,0l-1.612-1.108
	l-0.605-0.403c1.311,0.101,2.419,0.101,3.326,0c0.302,0,0.706-0.101,0.907-0.202c0.101,0,0.302-0.101,0.403-0.101
	c0.202-0.101,0.504-0.101,0.605-0.202c0.504-0.202,0.806-0.403,0.806-0.403l-3.628-2.117c1.109,0,2.016-0.101,2.822-0.403
	c2.419-0.706,3.628-2.016,3.628-2.016l-3.024-1.31c0.303-0.101,0.605-0.101,0.807-0.202c0.302-0.101,0.504-0.202,0.806-0.302
	c0.504-0.202,1.008-0.504,1.512-0.806c0.504-0.303,0.907-0.605,1.311-1.008c2.116-1.713,3.326-3.628,3.326-3.628
	c-0.806,4.132,2.52,10.785,2.52,10.785l-2.822-1.613c0,2.721,2.721,6.551,2.721,6.551l-4.435-2.116l0,0
	c0.202,0.302,0.403,0.705,0.605,1.008c0.201,0.302,0.403,0.706,0.706,1.008c0.201,0.302,0.504,0.706,0.705,1.008
	c0.101,0.202,0.202,0.302,0.403,0.504c0.202,0.303,0.504,0.605,0.706,0.907c0.806,0.907,1.411,1.512,1.411,1.512l-3.225-1.209
	l2.318,2.923l1.512,1.915l4.837-0.302l0,0l-2.017-0.907l-1.008-0.504c0,0,0,0,0.102,0c0,0,0.102,0,0.201,0l0,0c0,0,0.102,0,0.201,0
	c0.102,0,0.303,0,0.504,0c0.103,0,0.202,0,0.404,0c0.201,0,0.402,0,0.705,0c0.102,0,0.303,0,0.402,0
	c2.116,0,5.746-0.706,5.746-0.706l-6.148-4.334c0,0,0.303,0.101,0.807,0.302l0,0c0,0,0,0,0.1,0c0.203,0,0.304,0.101,0.505,0.101
	c0.102,0,0.102,0,0.202,0.101c0.201,0,0.303,0.101,0.504,0.101c0.101,0,0.202,0,0.303,0.101c0.201,0,0.403,0.101,0.604,0.101
	c0.101,0,0.2,0,0.303,0c0.302,0,0.604,0,0.907,0c2.217,0,6.249-1.411,6.249-1.411l-4.737-2.621l0,0l-1.512-0.806c0,0,0,0,0.604,0
	c0.102,0,0.302,0,0.504,0c0.201,0,0.504,0,0.705,0.101c0.303,0,0.605,0,1.008,0.101c0.202,0,0.403,0,0.605,0
	c0.907,0.101,1.713,0,2.419-0.101c2.116-0.302,3.326-1.109,3.326-1.109l-4.838-3.023c0,0,1.915,0,4.03-0.302l0,0
	c0.504-0.101,1.108-0.101,1.612-0.202h0.101c0.202,0,0.403-0.101,0.605-0.101c0.101,0,0.101,0,0.201,0
	c0.202-0.101,0.504-0.101,0.706-0.202c0.201-0.101,0.401-0.202,0.604-0.303c0.102,0,0.102-0.101,0.201-0.101
	c0.101-0.101,0.303-0.202,0.403-0.302c0.101-0.101,0.202-0.101,0.202-0.202c0.101-0.101,0.2-0.202,0.401-0.302
	c0.103-0.101,0.202-0.202,0.202-0.202c0.101-0.101,0.201-0.302,0.403-0.403c0.101-0.101,0.201-0.202,0.201-0.302
	c0.101-0.101,0.2-0.302,0.402-0.504c0.102-0.101,0.102-0.202,0.201-0.202l0.102-0.101c0.102-0.101,0.201-0.302,0.303-0.504
	c0-0.101,0.101-0.101,0.101-0.201l0,0c0.202-0.303,0.403-0.504,0.504-0.807c0.202-0.302,0.304-0.504,0.504-0.806l0,0l0,0
	c0,0,0,0,0-0.101l0,0c0.103-0.201,0.304-0.504,0.403-0.705l0,0l0.102-0.101l0,0c0.102-0.202,0.303-0.504,0.402-0.706
	c0,0,0,0,0-0.101c0.102-0.101,0.102-0.302,0.202-0.403c0,0,0,0,0-0.101c0,0,0-0.101,0.101-0.101c0-0.101,0.102-0.101,0.102-0.202
	c0,0,0,0,0-0.101c0,0,0-0.101,0.101-0.101v-0.101l0,0c0-0.101,0.103-0.202,0.103-0.202l0,0c0,0,0,0,0,0.101c0,0,0,0,0,0.101
	c0,0,0,0.101,0,0.202v0.101c0,0.101,0,0.202,0,0.303s0,0.101,0,0.202s0,0.302,0,0.504c0,0.101,0,0.101,0,0.202s0,0.101,0,0.201
	c0,0.101,0,0.202,0,0.202c0,0.101,0,0.302,0,0.403c0,0.202,0,0.302,0,0.504c0,0.202,0,0.302,0,0.504s0,0.504,0,0.706
	c0,0.101,0,0.302,0,0.403c0,0.403,0,0.806,0.101,1.31c0.102,0.907,0.403,2.016,0.807,3.023c0.102,0.303,0.201,0.504,0.303,0.807
	c0.202,0.504,0.504,1.008,0.807,1.512c0.102,0.202,0.302,0.504,0.403,0.706c1.107,1.814,2.116,3.225,2.116,3.225l-0.907-0.403
	l-2.521-0.907l0,0c0,0.604,0.102,1.108,0.201,1.613c0.103,0.504,0.304,1.008,0.504,1.512c0.304,0.706,0.706,1.411,1.109,2.117
	c0.302,0.403,0.504,0.806,0.806,1.209c0.102,0.201,0.304,0.302,0.403,0.504c0.807,0.907,1.411,1.512,1.411,1.512l-4.737-2.52
	c0,0,0,0,0.808,2.722c0.807,2.721,3.931,5.846,3.931,5.846l-5.241-1.411l0,0c0.907,1.814,4.436,4.838,4.436,4.838h-4.436l0,0
	c0.202,0.202,0.303,0.403,0.504,0.605l0.102,0.101c0.201,0.202,0.303,0.302,0.504,0.504l0.102,0.101
	c0.201,0.101,0.302,0.302,0.504,0.403l0.102,0.101c0.201,0.101,0.402,0.302,0.604,0.403l0.102,0.101
	c0.201,0.101,0.402,0.202,0.604,0.403c0,0,0.102,0,0.102,0.101c0.2,0.101,0.402,0.202,0.604,0.403h0.102
	c0.201,0.101,0.402,0.201,0.604,0.302h0.102c0.2,0.101,0.402,0.202,0.604,0.302c0,0,0,0,0.101,0
	c0.202,0.101,0.403,0.202,0.605,0.302c0,0,0,0,0.101,0c0.201,0.101,0.403,0.202,0.604,0.302l0,0
	c0.201,0.101,0.403,0.202,0.504,0.202c0,0,0,0,0.101,0c0.202,0.101,0.304,0.101,0.505,0.202c0,0,0,0,0.101,0
	c0.102,0,0.303,0.101,0.403,0.101h0.102c0.102,0,0.201,0.101,0.201,0.101h0.101h0.102h0.102c2.017-0.907,3.428-2.016,3.932-2.621
	l0,0c0.101-0.101,0.2-0.202,0.2-0.202l0,0l0.102-0.101c-1.008-0.101-1.915-0.302-2.62-0.504c-0.604-0.202-1.108-0.302-1.612-0.504
	c-0.807-0.302-1.311-0.605-1.714-0.807c-0.303-0.201-0.403-0.302-0.403-0.302c4.032-0.302,6.553-2.419,7.762-3.83
	c0.504-0.604,0.807-1.008,0.807-1.008c-1.311-0.101-2.318-0.403-3.226-0.604c-0.604-0.101-1.009-0.303-1.411-0.403
	c-0.504-0.202-0.807-0.302-0.807-0.302c0.604,0,1.209-0.202,1.714-0.504c0.705-0.303,1.41-0.807,1.915-1.209
	c0.402-0.303,0.807-0.706,1.108-1.008c0.102-0.101,0.201-0.202,0.302-0.303c0.102-0.202,0.304-0.302,0.403-0.403
	c0.201-0.202,0.303-0.403,0.303-0.403l0,0l0,0c-0.807-0.101-1.714-0.403-2.521-0.706c-1.311-0.504-2.521-1.109-2.521-1.109
	c4.134-0.302,8.266-3.427,8.266-3.427c-2.521-0.101-5.645-0.806-5.645-0.806c1.813-0.605,3.628-1.411,5.343-2.217
	c2.619-1.311,4.938-2.721,6.65-3.83c1.714-1.109,2.722-1.915,2.722-1.915c0.201,4.636,5.343,14.211,5.343,14.211l-4.233-2.419
	c0.103,4.435,2.521,10.482,2.521,10.482c-2.017-1.209-3.729-3.628-3.729-3.628c0.806,8.567,5.241,11.691,5.241,11.691
	c5.543,1.613,10.28-2.116,10.28-2.116c-2.723-0.807-5.545-2.722-5.545-2.722c7.561,1.008,12.196-3.83,12.196-3.83
	c-2.317,0-6.552-1.713-6.552-1.713c9.172,0.302,15.018-7.458,15.018-7.458c0.808,6.45,6.652,14.715,6.652,14.715l-4.737-2.822
	c2.822,6.753,8.365,15.018,8.365,15.018l-5.744-2.521c0,0,0.906,8.365,6.047,10.583c5.142,2.218,9.373-0.504,9.373-0.504
	c-2.62-0.604-5.846-3.023-5.846-3.023c7.66,1.512,17.739-8.164,17.739-8.164c0.101,0.403,0.101,0.907,0.201,1.411
	c0,0.101,0,0.202,0.102,0.302c0.101,0.504,0.201,0.907,0.403,1.411c0,0.101,0,0.101,0.101,0.202
	c0.102,0.504,0.302,0.907,0.504,1.411c0,0.101,0.102,0.201,0.102,0.302c0.201,0.504,0.402,1.008,0.604,1.612
	c0,0.101,0.102,0.101,0.102,0.202c0.201,0.504,0.504,1.109,0.706,1.613l0,0c0.303,0.604,0.604,1.209,0.906,1.713
	c0,0,0,0.101,0.102,0.101c0.604,1.209,1.311,2.419,1.915,3.527l0,0l0,0c4.232,7.458,9.271,14.01,9.271,14.01l-7.56-4.536
	c1.613,8.87,9.172,20.864,9.172,20.864l-6.45-3.226c0.202,0.504,0.403,1.109,0.706,1.613c0.102,0.202,0.102,0.302,0.201,0.504
	c0.201,0.403,0.303,0.806,0.504,1.109c0.101,0.201,0.202,0.403,0.303,0.604c0.201,0.403,0.303,0.706,0.504,1.008
	c0.102,0.202,0.201,0.403,0.303,0.504c0.201,0.303,0.402,0.706,0.504,1.008c0,0.101,0.102,0.101,0.102,0.201
	c0.102,0.202,0.201,0.403,0.302,0.605c0.102,0.101,0.202,0.302,0.202,0.403c0.201,0.403,0.403,0.705,0.604,1.108
	c0.101,0.202,0.201,0.302,0.303,0.504c0.101,0.202,0.302,0.504,0.402,0.706c0.102,0.202,0.202,0.302,0.303,0.504
	c0.101,0.202,0.303,0.504,0.403,0.706c0.1,0.202,0.302,0.403,0.402,0.605c0.102,0.202,0.303,0.403,0.402,0.604
	c0.102,0.101,0.202,0.302,0.303,0.403c0.102,0.202,0.201,0.302,0.304,0.504c0.101,0.101,0.2,0.302,0.302,0.403
	c0.202,0.202,0.303,0.504,0.504,0.706c0.102,0.101,0.102,0.201,0.202,0.302s0.201,0.302,0.302,0.403
	c0.102,0.101,0.102,0.202,0.202,0.303s0.201,0.202,0.201,0.302c0,0.1,0.101,0.101,0.101,0.202c0.103,0.101,0.202,0.302,0.303,0.403
	l0.102,0.101c0.102,0.101,0.102,0.101,0.102,0.202l0,0l0.102,0.101L429.968,292.391z M393.079,278.179c0,0-3.227-1.613-4.436-2.822
	c0,0,0.505-0.101,1.513-0.504l-7.257-4.132c0.704,1.209,1.611,2.318,2.419,2.923l-3.629-0.907c0,0,3.428,4.737,6.954,5.443
	C392.071,278.885,393.079,278.179,393.079,278.179z M111.574,266.588l-0.101,0.403l-0.302,1.814l0,0l1.814-0.907l-1.108-1.008
	L111.574,266.588z M94.742,270.317l-1.915,7.358l-0.202,0.806l-0.302-0.504l-1.613-2.621l-0.604,3.931l-0.101,0.807l0,0l8.97-4.838
	l0.202-0.101l-0.706-0.706L94.742,270.317z"></path>
</svg>
