<svg version="1.1" id="Layer_1" xmlns="http://www.w3.org/2000/svg" xmlns:xlink="http://www.w3.org/1999/xlink" x="0px" y="0px" width="595.275px" height="595.28px" viewBox="0 0 595.275 595.28" enable-background="new 0 0 595.275 595.28" xml:space="preserve">
<path id="color_x5F_2" fill="#5980af" d="M429.177,505.912c1.346-0.194,2.677-0.432,3.974-0.756l-0.68,0.756
	C432.471,505.912,431.264,505.912,429.177,505.912z M435.471,502.579c0,0-0.016-0.007-0.019-0.009
	c0.005,0.004,0.01,0.009,0.015,0.013L435.471,502.579z M394.299,446.925c-2.978,5.142-5.71,10.424-7.941,15.882
	C389.025,457.471,392.199,451.123,394.299,446.925z M391.689,505.775c8.761,0.056,17.533,0.024,26.286-0.383
	c4.851-0.226,10.36-0.11,15.169-1.406c-4.148-3.8-9.177-6.622-14.404-9.072c-1.161-0.527-2.342-1.061-3.529-1.596
	c-3.554-1.555-7.13-3.003-10.523-4.522c-2.78-1.245-5.705-2.5-8.605-3.872c-1.204-0.526-2.334-1.083-3.369-1.669
	c-4.324-2.247-8.436-4.867-11.73-8.257c-0.731,0.11-1.407-0.024-1.281-0.527c0.057-0.225,0.123-0.448,0.182-0.672
	c-0.03-0.035-0.063-0.067-0.094-0.103c-0.184-0.214-0.018-0.464,0.306-0.683c3.668-13.46,11.142-25.866,18.571-37.53
	c6.69-10.503,13.623-20.869,20.486-31.264c-0.377,0.219-0.813,0.381-1.145,0.381c-15.496,0-30.993,0-46.49,0
	c-0.044,0.158-0.278,0.338-0.581,0.502l-0.151,0.339c0.045-0.026,0.088-0.054,0.1-0.063c-0.016,0.014-0.07,0.072-0.148,0.171
	l-12.752,28.401c-4.532,10.854-8.945,21.76-13.493,32.604c-3.83,9.133-7.683,18.262-11.76,27.289c-0.96,2.126-1.927,4.25-2.922,6.36
	c-0.497,1.052-0.919,1.631-0.67,1.99c1.813,0.298,4.97,0.8,8.816,1.341c0.045,0.004,0.09,0.01,0.135,0.014
	C355.886,505.172,373.829,505.663,391.689,505.775z M148.849,417.756c-0.327-3.879-0.634-7.759-0.892-11.644
	c-0.072-1.093-0.129-2.188-0.198-3.28l0.712,18.08l2.729,1.841c-0.664-0.693-1.265-1.418-1.758-2.184
	C148.819,419.602,148.968,419.162,148.849,417.756z M289.294,322.017l-1.505-33.091C287.492,299.976,288.24,311.014,289.294,322.017
	z M283.537,283.363c-10.009,1.18-20.04,1.862-30.077,2.415l-0.989,0.135c0,0-33,2-55,4c-3.486,0.317-6.947,0.608-10.305,0.875
	c-10.852,1.117-21.721,2.055-32.609,2.121c-0.052,0.002-0.086,0.004-0.086,0.004l-10.209,0.928
	c-0.248,3.983-0.362,7.973-0.322,11.963l0.475,12.071c0.745,12.064,2.166,24.075,3.379,36.106
	c1.59,15.788,1.795,31.653,2.809,47.483c0.289,4.526,0.6,9.052,0.98,13.571c0.104,1.227-0.217,3.333,0.556,4.418
	c0.793,1.112,1.827,2.063,2.833,2.978c4.207,3.827,8.732,7.315,13.246,10.77c4.744,3.631,9.543,7.192,14.363,10.726l48.675,32.841
	c1.342-1.597,3.14-3.144,3.956-4.02c4.687-5.022,9.557-9.873,14.433-14.709c4.148-4.115,8.325-8.203,12.501-12.293l29.617-30.096
	c0.373-0.517,0.728-1.041,1.043-1.579c0.791-1.348,0.095-3.151-0.033-4.605c-0.338-3.869-0.655-7.74-0.923-11.615
	c-0.533-7.723-0.963-15.453-1.313-23.187c-0.706-15.548-2.019-30.892-3.596-46.374c-1.535-15.075-2.787-30.219-1.725-45.371
	c0.045-0.623,1.416-0.984,2.257-0.992l-0.001-0.015l-13,1l-6.068,0.828c5.466-0.412,10.93-0.906,16.389-1.55
	C286.688,281.966,284.28,283.275,283.537,283.363z M401.906,226.619c-0.434,0.984-0.867,1.979-1.305,2.977
	c-2.041,5.791-5.387,15.123-8.152,22.088c-0.453,1.24-0.947,2.444-1.477,3.617c-0.863,2.041-1.615,3.668-2.17,4.611
	c-0.229,0.388-0.516,0.801-0.846,1.233c7.791,2.19,15.663,4.122,23.569,5.886c6.944-15.875,13.929-31.714,21.641-47.236
	c-5.453-3.944-11.665-7.295-18.056-9.344c-3.907-0.905-7.564-1.293-9.512-1.447c0.135,0.506,0.242,1.032,0.283,1.607
	C406.275,216.144,404.097,221.645,401.906,226.619z M299.316,262.38c-1.572,0.18-3.145,0.347-4.719,0.507l-15.939,0.943
	c2.705-3.819,5.766-7.55,7.057-12.11c0.336-1.188-2.604-0.789-2.914,0.305c-1.272,4.499-4.449,8.202-7.115,11.981l-31.449,1.861
	c0.244-0.143,0.396-0.274,0.35-0.343c-8.496-12.519-19.181-23.501-31.275-32.577c0.042-0.042,0.084-0.085,0.127-0.128
	c12.139-12.059,27.813-20.068,43.426-26.632c4.144,0.181,8.073,1.194,11.359,4.068c3.023,2.644,4.846,6.554,6.592,10.079
	c2.466,4.978,6.165,14.551,12.629,15.259c5.562,0.609,8.656-4.844,10.225-9.382c2.582-7.471,3.49-15.485,2.055-23.278
	c-0.564-3.063-1.594-5.708-2.965-7.978c2.192-0.156,4.382-0.208,6.578-0.133c0.043,19.907,1.626,43.831,22.344,51.988
	c19.244,7.577,40.641-11.022,47.156-27.965c0.994,0.51,2.004,0.746,3.003,0.749c-0.17,7.889,1.587,17.219,6.241,23.692
	c2.525,3.512,6.169,3.262,9.13,1.359c0.165-0.039,0.261-0.066,0.261-0.066l0.102-0.187c1.218-0.855,2.308-1.979,3.125-3.231
	c0.02-0.03,0.037-0.061,0.057-0.091c-0.366,1.087-0.617,1.841-0.617,1.841l-3.073,4.671c-0.146,0.132-0.262,0.29-0.317,0.479
	c-0.001,0.002-0.002,0.004-0.002,0.007l-4.941,7.51l-1.286,6.113c-2.877,4.531-6.329,8.612-10.16,12.521
	c-2.051,1.877-4.059,3.776-5.843,5.632c-0.614,0.566-1.232,1.132-1.858,1.698c-9.099,8.237-16.81,17.061-22.127,28.21
	c-4.698,9.854-8.491,20.275-11.801,30.672c-0.392,1.23-0.61,2.144-1.069,2.936c-1.01,0.052-1.609,0.888-1.364,1.463
	c-0.196,0.142-0.402,0.283-0.645,0.425c-6.267,3.691-14.891,3.151-21.777,2.426c-0.28-0.03-0.561,0.025-0.817,0.133
	c-0.213-2.962-0.447-5.923-0.737-8.881c-2.496-25.426-6.226-50.952-4.4-76.555C301.976,261.546,300.051,261.806,299.316,262.38z
	 M317.123,294.806c3.343-1.505,7.174-0.943,10.236,0.963c1.129,0.703,3.643-0.83,2.223-1.714c-4.173-2.598-9.264-3.063-13.764-1.037
	C314.012,293.832,315.614,295.485,317.123,294.806z M358.083,293.933c-4.182,5.099-7.745,10.535-10.788,16.534
	C350.151,306.031,354.316,299.603,358.083,293.933z M393.527,248.43c-0.328,1.113-0.69,2.194-1.078,3.253
	c2.766-6.965,6.111-16.297,8.152-22.088c-1.725,3.934-3.538,7.914-5.848,11.475c-0.366,1.087-0.617,1.841-0.617,1.841l-3.073,4.671
	C391.908,246.824,393.938,247.034,393.527,248.43z M387.957,261.146c0.33-0.433,0.617-0.846,0.846-1.233
	c0.555-0.943,1.307-2.57,2.17-4.611c-0.918,2.031-1.939,3.972-3.063,5.832C387.926,261.137,387.941,261.141,387.957,261.146z
	 M385.803,255.579l-1.286,6.113c2.603-4.098,4.737-8.563,6.228-13.623L385.803,255.579z"></path>
<path id="color_x5F_1" d="M323.912,228.403c-2.297-6.001-1.6-13.394,0.738-19.277c0.363-0.914,3.237-1.263,2.891-0.39
	c-2.185,5.498-2.916,12.162-1.082,17.881c0.863-0.389,1.742-0.691,2.783-0.825c2.015-0.258,0.939,1.335-0.422,1.509
	c-0.918,0.231-1.775,0.598-2.571,1.101C325.763,228.667,324.22,229.207,323.912,228.403z M348.873,226.006
	c-0.723,1.441-1.514,2.839-2.646,4.002c-0.4,0.412-0.38,0.852,0.26,0.967c0.629,0.114,1.586-0.073,2.049-0.549
	c1.391-1.429,2.342-3.033,3.229-4.805c0.299-0.596-1.005-0.602-1.236-0.57C349.888,225.136,349.175,225.402,348.873,226.006z
	 M348.843,211.001c0.001-1.428,0.034-2.831,0.647-4.147c0.671-1.444-2.252-1.32-2.75-0.251c-0.697,1.501-0.82,3.028-0.821,4.662
	C345.918,212.701,348.842,212.196,348.843,211.001z M318.736,207.075c0-1.223,0-2.447,0-3.67c0-0.895-2.898-0.346-2.898,0.776
	c0,1.223,0,2.447,0,3.67C315.838,208.746,318.736,208.197,318.736,207.075z M372.951,209.11c0.699,0.213,1.54-0.041,2.049-0.549
	c0.285-0.284,0.48-0.476,0.747-0.667c0.046-0.033,0.273-0.147,0.141-0.101c0.282-0.1,0.394-0.084,0.702-0.092
	c0.601-0.014,1.51-0.441,1.613-1.108c0.113-0.729-0.805-0.852-1.309-0.839c-1.74,0.042-3.091,0.886-4.285,2.079
	C372.141,208.301,372.342,208.925,372.951,209.11z M283.398,216.652c1.164-2.964,4.48-3.631,7.376-3.519
	c0.644-0.21,1.383-0.219,1.703,0.164c2.267,2.706,3.475,6.391,0.378,8.978c-1.907,1.593-5.209,2.481-7.289,0.742
	C283.903,221.626,282.547,218.822,283.398,216.652z M286.111,217.295c-0.07,1.456,0.574,3.011,1.596,4.044
	c1.102,1.114,2.426,0.963,3.436-0.278c1.574-1.935,0.367-4.371-0.959-6.1C288.331,214.831,286.223,214.993,286.111,217.295z
	 M384.691,227.662c1.164-2.964,4.479-3.631,7.374-3.519c0.644-0.211,1.385-0.22,1.705,0.163c2.266,2.706,3.475,6.391,0.378,8.978
	c-1.907,1.594-5.208,2.481-7.289,0.742C385.196,232.636,383.84,229.832,384.691,227.662z M387.404,228.305
	c-0.07,1.456,0.574,3.011,1.596,4.044c1.102,1.114,2.426,0.963,3.436-0.279c1.574-1.934,0.368-4.369-0.958-6.099
	C389.625,225.841,387.516,226.002,387.404,228.305z M296.031,412.577c0.113-3.792-0.707-7.847-1.002-11.638
	c-0.65-8.361-1.104-16.737-1.506-25.114c-0.749-15.577-1.869-30.963-3.496-46.475c-0.256-2.442-0.5-4.887-0.733-7.333
	c-1.054-11.003-1.802-22.042-1.505-33.091c0.045-1.679,0.105-3.358,0.201-5.037c0.041-0.582,0.082-1.164,0.123-1.747
	c0.01-0.15-0.262-0.219-0.642-0.215c-0.841,0.008-2.212,0.369-2.257,0.992c-1.063,15.152,0.189,30.296,1.725,45.371
	c1.577,15.482,2.89,30.826,3.596,46.374c0.351,7.734,0.78,15.463,1.313,23.187c0.268,3.875,0.585,7.746,0.923,11.615
	c0.128,1.455,0.824,3.257,0.033,4.605c-0.315,0.538-0.67,1.062-1.043,1.579c-2.229,3.089-5.36,5.827-7.928,8.473
	c-7.108,7.326-14.396,14.479-21.689,21.623c-4.176,4.09-8.353,8.178-12.501,12.293c-4.876,4.836-9.746,9.688-14.433,14.709
	c-0.816,0.876-2.614,2.423-3.956,4.02c-0.154,0.184-0.308,0.368-0.447,0.553c-0.258-0.113-0.565-0.263-0.911-0.475
	c-1.915-1.169-3.785-2.414-5.654-3.655c-5.573-3.7-11.074-7.509-16.56-11.336c-8.431-5.882-16.81-11.849-25.103-17.928
	c-4.82-3.533-9.619-7.095-14.363-10.726c-4.514-3.455-9.039-6.942-13.246-10.77c-1.006-0.915-2.04-1.865-2.833-2.978
	c-0.772-1.085-0.452-3.191-0.556-4.418c-0.381-4.52-0.691-9.045-0.98-13.571c-1.014-15.831-1.219-31.696-2.809-47.483
	c-1.213-12.031-2.634-24.042-3.379-36.106c-0.198-3.21-0.359-6.423-0.443-9.642c-0.021-0.81-0.023-1.62-0.031-2.43
	c-0.04-3.99,0.074-7.979,0.322-11.963c0.023-0.38,0.04-0.761,0.066-1.141c3.412,0.174,6.821,0.229,10.229,0.209
	c10.889-0.066,21.758-1.003,32.609-2.121c7.197-0.741,14.386-1.555,21.566-2.241c14.882-1.42,29.811-1.949,44.728-2.77
	c10.037-0.552,20.068-1.235,30.077-2.415c0.743-0.087,3.151-1.396,1.254-1.173c-5.459,0.644-10.923,1.138-16.389,1.55
	c-18.282,1.376-36.594,1.776-54.879,3.315c-23.413,1.97-46.792,5.939-70.356,4.284c-0.62-0.043-3.326,1.086-1.877,1.188
	c0.086,0.006,0.173,0.009,0.259,0.015c-0.053,0.081-0.091,0.164-0.097,0.252c-2.106,29.987,3.903,60.125,5.229,90.051
	c0.295,6.666,0.658,13.329,1.077,19.988c0.069,1.093,0.126,2.187,0.198,3.28c0.258,3.884,0.564,7.765,0.892,11.644
	c0.119,1.406-0.029,1.846,0.593,2.813c0.493,0.766,1.094,1.491,1.758,2.184c2.066,2.16,4.766,4.008,6.926,5.76
	c21.777,17.661,45.073,34.376,68.817,49.303c0.902,0.567,1.789,1.247,2.757,1.532c-0.055,0.204-0.094,0.405-0.095,0.597
	c0,0.033-0.001,0.065-0.001,0.098c-0.004,0.536,2.893,0.105,2.898-0.776c0.017-2.458,5.211-6.563,6.709-8.147
	c4.93-5.219,10.044-10.267,15.146-15.316c11.246-11.132,22.699-22.071,33.675-33.473c2.656-2.76,5.791-5.599,7.748-8.937
	C295.932,413.135,296.021,412.876,296.031,412.577z M205.229,195.534c1.81-0.385,1.289-2.206-0.49-1.828
	c-28.19,5.993-50.432,26.033-67.034,48.697c-17.157,23.422-29.462,50.858-36.575,78.963c-0.332,1.31,2.624,0.924,2.924-0.263
	c6.736-26.613,18.25-52.234,33.834-74.839C154.047,222.825,176.62,201.616,205.229,195.534z M103.474,275.073
	c-24.071,23.543-22.077,61.697-25.437,92.645c-0.09,0.833,2.787,0.255,2.867-0.479c3.336-30.74,1.281-68.922,25.208-92.324
	C106.788,274.253,103.998,274.559,103.474,275.073z M517.252,117.524c0.028,0.17-0.06,0.332-0.219,0.477
	c-0.046,1.467-0.895,3.659-1.077,4.474c-5.999,26.798-12.704,53.449-19.232,80.122c-3.497,14.286-7.006,28.568-10.552,42.842
	c-0.219,0.88-0.432,1.763-0.641,2.649c2.066,2.276,3.233,5.377,3.928,8.333c0.5,2.129,1.183,4.791,0.453,6.952
	c-0.014,0.04-0.037,0.078-0.061,0.115c1.543,0.572,3.033,1.419,4.465,2.488c3.11,2.323,4.508,6.804,1.527,9.854
	c-1.876,1.92-4.223,2.996-6.734,3.549c2.504,2.195,0.904,11.46,0.627,13.644c-1.046,8.214-2.687,21.645-11.034,25.938
	c-7.631,3.924-17.438,4.359-25.784,3.106c-5.092-0.764-16.377-2.834-14.882-10.255c0.021-0.1,0.085-0.194,0.181-0.283
	c-2.665-2.044-4.393-5.377-4.529-10.563c-0.002-0.087,0.021-0.168,0.055-0.249c-1.646-2.975-0.291-6.786,1.965-10.238
	c-1.658-2.698-1.412-6.603,0.336-9.268c0.801-1.221,1.912-2.109,3.18-2.769c-4.365-1.89-5.492-6.681-3.508-10.981
	c-2.568-1.262-5.113-2.372-7.849-3.189c-0.873,2.037-1.747,4.073-2.618,6.11c-0.328,0.765-1.593,1.097-2.343,0.944
	c-12.096-2.452-24.17-5.18-36.061-8.497c-4.862,7.478-11.274,13.755-18.251,20.099c-3.891,3.538-7.373,7.178-10.511,11.004
	c-4.182,5.099-7.745,10.535-10.788,16.534c-1.207,2.38-2.334,4.847-3.387,7.417c-2.502,6.108-4.829,12.291-6.955,18.54
	c-0.739,2.174-1.182,4.751-2.1,6.883c26.291-0.469,52.503-5.032,78.736-1.052c0.824,0.125,1.006,0.54,0.842,0.96
	c10.223-0.696,22.869,3.019,28.024,12.055c7.428,13.018-3.943,26.386-11.627,36.245c-9.497,12.187-17.646,25.747-26.076,38.696
	c-3.538,5.434-7.142,10.988-10.454,16.712c-2.978,5.142-5.71,10.424-7.941,15.882c-1.369,3.346-2.559,6.756-3.485,10.245
	c7.093,7.948,18.375,11.959,27.858,16.151c8.351,3.692,17.77,7.206,24.722,13.367c0.005,0.004,0.01,0.009,0.015,0.013
	c0.332,0.295,0.666,0.589,0.986,0.897c0.42,0.402-0.577,0.865-0.829,0.952c-0.809,0.277-1.635,0.515-2.474,0.724
	c-1.297,0.324-2.628,0.562-3.974,0.756c-4.424,0.637-9.026,0.695-13.321,0.868c-11.154,0.45-22.33,0.442-33.49,0.246
	c-11.563-0.203-23.13-0.57-34.674-1.289c-7.204-0.449-14.582-0.757-21.67-2.221c-0.162-0.034-0.349-0.205-0.261-0.388
	c10.183-21.239,18.81-43.233,27.844-64.974c3.062-7.367,6.085-14.766,9.338-22.055c-14.791,24.517-47.292,36.466-74.643,28.357
	c-11.351,11.264-22.837,22.392-34.132,33.712c-4.55,4.559-9.107,9.124-13.459,13.874c-1.28,1.398-5.677,5.014-5.648,7.168
	c0.013,0.997-2.889,1.504-2.898,0.776c-0.004-0.286,0.07-0.58,0.175-0.877c-2.368-0.459-5.103-2.935-6.619-3.924
	c-5.231-3.413-10.396-6.929-15.536-10.479c-12.814,10.852-33.444,21.463-50.026,14.961c-8.728-3.422-14.005-12.553-13.949-21.684
	c0.068-11.089,4.289-21.495,6.674-32.187c0.127-0.57,0.938-0.959,1.677-1.045c-5.89-4.396-11.672-8.974-16.811-14.089
	c-0.813-0.809-1.766-1.677-2.291-2.718c-0.619-1.228-0.406-3.016-0.516-4.338c-0.314-3.815-0.613-7.633-0.873-11.452
	c-1.082-15.936-1.135-31.977-2.393-47.888c-2.349-29.727-7.629-59.452-5.495-89.356c0.007-0.102,0.059-0.201,0.142-0.294
	c-0.139-0.009-0.277-0.014-0.416-0.023c-1.553-0.111,1.052-1.457,1.82-1.402c14.324,1.021,28.605,0.294,42.864-0.982
	c-0.149-0.202-0.136-0.485,0.177-0.86c6.254-7.513,13.633-14.128,21.042-20.474c4.019-3.443,8.142-7.534,12.672-10.466
	c-0.035-0.027-0.071-0.055-0.106-0.082c-0.18-0.138-0.127-0.452-0.004-0.602c10.358-12.557,23.786-21.56,38.188-28.731
	c-0.128-0.167-0.164-0.396-0.04-0.702c4.874-12.011,17.396-21.643,30.002-24.263c9.791-2.036,18.75,0.711,23.699,8.028
	c0.346-0.111,0.711-0.173,1.03-0.199c2.028-0.166,4.057-0.251,6.087-0.244c0.002-1.687,0.01-3.343,0.018-4.953
	c-0.598,0.631-1.261,1.23-2.002,1.79c-0.596,0.45-2.076,0.715-2.395-0.216c-1.322-3.87-1.549-5.907,0.288-9.187
	c-8.501-1.878-9.81-10.401-7.644-18.231c0.247-0.894,1.471-1.348,2.312-1.058c2.611,0.902,4.85,2.248,6.655,3.943
	c0.703-4.081,5.854-6.09,10.43-6.242c-2.008-8.338,7.486-14.949,14.129-11.433c3.758-6.383,13.713-8.949,18.082-1.995
	c4.508-3.053,11.266-5.036,16.716-4.121c0.97-0.032,1.831,0.239,2.591,0.711c2.869,1.127,5.084,3.349,5.943,7.026
	c4.991-2.729,10.749,0.325,15.34,5.282c1.766-0.139,4.791,0.144,8.338,2.648c4.447,3.14,1.504,11.822,0.031,15.412
	c1.819-1.117,3.654-2.031,5.323-2.688c0.332-0.131,2.119-0.596,1.975,0.241c-1.776,10.287-5.323,22.694-16.316,26.369
	c-0.155,0.052-0.319,0.085-0.485,0.104c-0.56,0.59-1.174,1.106-1.688,1.51c-0.126,0.099-0.265,0.186-0.406,0.266
	c1.504,0.381,2.877,1.168,3.941,2.331c6.318-0.018,16.702,0.104,20.199,5.749c10.686,0.352,21.721,5.117,30.801,11.592
	c0.43,0.035,0.741,0.2,0.719,0.532c2.49,1.822,4.822,3.765,6.951,5.779c0.671-0.065,1.23,0.07,1.066,0.478
	c-0.084,0.21-0.173,0.419-0.258,0.629c0.311-0.091,0.604-0.133,0.807-0.09c4.662,0.994,9.133,2.566,13.455,4.534
	c0.19-1.583,0.383-3.167,0.573-4.75c2.478-20.609,4.925-41.222,7.392-61.832c1.199-10.02,2.401-20.04,3.618-30.058
	c0.552-4.537,1.104-9.073,1.664-13.608c0.401-3.259,0.472-6.282,2.244-9.118c4.29-6.863,11.302-12.248,17.239-17.616
	c1.313-1.186,5.459-6.959,7.843-4.753c4.333,4.011,7.378,10.236,10.42,15.204c1.974,3.223,3.924,6.461,5.813,9.734
	C515.702,114.646,517.032,116.219,517.252,117.524z M383.949,195.216c8.074-3.992,10.892-14.596,12.42-23.008
	c-2.57,1.289-5.245,3.104-7.441,5.276l-2.064,2.359c-2.769,3.691-3.928,8.083-1.332,12.551c0.186,0.32-0.527,0.764-1.302,0.976
	C384.351,193.998,384.225,194.621,383.949,195.216z M378.741,218.981c-0.108,6.286,1.104,13.068,3.616,18.816
	c1.003,2.297,2.578,6.131,5.329,6.849c3.601,0.94,6.629-7.444,7.698-9.687c3.18-6.673,9.5-16.838,7.434-24.537
	c-1.918-7.147-10.479-7.929-17.348-7.996c0.234,0.401,0.448,0.825,0.618,1.287C388.028,208.982,383.983,216.754,378.741,218.981z
	 M377.572,193.557c0.004,0.056,0.008,0.111,0.017,0.166c0.034,0.201,0.089,0.398,0.164,0.587c0.05,0.126,0.104,0.251,0.167,0.373
	c0.008,0.016,0.031,0.056,0.047,0.084c0.023,0.039,0.046,0.078,0.069,0.116c0.16,0.253,0.335,0.497,0.525,0.728
	c0.387,0.472,0.821,0.899,1.271,1.312c0.061-0.059,0.125-0.112,0.185-0.172c0.165-0.167,0.324-0.338,0.476-0.516
	c0.037-0.045,0.086-0.106,0.102-0.127c0.059-0.077,0.116-0.154,0.171-0.233c0.112-0.163,0.219-0.329,0.312-0.503
	c0.037-0.071,0.074-0.141,0.107-0.214c0.004-0.009,0.006-0.011,0.008-0.017c0.003-0.006,0.003-0.008,0.006-0.015
	c0.095-0.259,0.165-0.532,0.174-0.809c0-0.01,0.001-0.012,0.001-0.02c-0.001-0.007-0.001-0.009-0.002-0.018
	c-0.006-0.055-0.012-0.11-0.021-0.165c-0.021-0.105-0.046-0.211-0.083-0.312c-0.021-0.057-0.045-0.113-0.072-0.167
	c-0.055-0.086-0.115-0.17-0.184-0.248c-0.08-0.092-0.166-0.179-0.26-0.258c-0.01-0.007-0.023-0.018-0.036-0.028
	c-0.023-0.017-0.048-0.034-0.071-0.049c-0.205-0.13-0.424-0.239-0.65-0.327c-0.034-0.011-0.068-0.021-0.103-0.032
	c-0.091-0.026-0.181-0.051-0.272-0.072c-0.093-0.021-0.187-0.042-0.28-0.058c-0.011-0.002-0.022-0.004-0.033-0.005
	c-0.199-0.021-0.397-0.036-0.598-0.035c-0.007,0-0.015,0-0.021,0c-0.077,0.005-0.153,0.011-0.229,0.02
	c-0.066,0.008-0.132,0.019-0.198,0.029c-0.017,0.004-0.032,0.008-0.046,0.011c-0.051,0.013-0.102,0.029-0.152,0.044
	c-0.006,0.002-0.007,0.003-0.013,0.006c-0.022,0.01-0.044,0.021-0.067,0.03c-0.031,0.019-0.063,0.037-0.094,0.058
	c-0.037,0.034-0.072,0.069-0.107,0.105c-0.014,0.02-0.028,0.04-0.041,0.06c-0.031,0.049-0.058,0.101-0.084,0.152
	c-0.008,0.023-0.016,0.047-0.022,0.07c-0.021,0.077-0.039,0.154-0.049,0.232C377.575,193.388,377.574,193.51,377.572,193.557z
	 M324.04,150.368c0.01,0.04,0.02,0.081,0.028,0.118c0.008-0.027,0.014-0.055,0.021-0.082
	C324.073,150.392,324.057,150.381,324.04,150.368z M321.211,241.591c18.633,14.082,42.261-4.691,48.943-22.938
	c0.135-0.369,0.637-0.651,1.188-0.805c-0.117-0.098-0.236-0.185-0.354-0.292c-0.719-0.656,1.987-1.753,2.699-1.102
	c5.76,5.261,11.525-6.471,9.708-11.408c-0.354-0.961-0.875-1.858-1.516-2.621c-0.079,0-0.165,0-0.243,0
	c-0.994,0-0.87-0.342-0.4-0.675c-1.153-1.081-2.585-1.742-4.117-1.658l-0.648,0.487c0,0-1.979,1.256-3.821,1.924
	c-2.163,2.165-3.403,5.115-3.267,8.241c0.02,0.434-0.466,0.783-1.042,0.987c-0.6,0.413-2.073,0.958-2.511,0.612
	c-4.893-3.861-5.08-9.371-3.855-15.02c-0.102-0.002-0.204-0.005-0.309-0.009c-3.553,0.685-6.909,0.288-9.747-1.927
	c-5.651,4.311-13.997,4.185-15.947-3.435c-6.46,4.206-18.409,5.198-19.386-3.273c-3.632,1.28-7.818,1.622-10.336-0.582
	c-0.013,1.876-0.033,3.805-0.045,5.768c0.006,0.016,0,0.033,0,0.049C306.109,211.009,306.821,230.716,321.211,241.591z
	 M304.189,179.805c-0.788,0.152-1.62-0.065-1.576-0.84c0.373-6.544-2.839-11.856-8.52-14.566c-1.323,6.471-0.377,13.915,7.562,14.91
	c0.521,0.065,1.253,0.5,0.86,1.128c-1.77,2.828-1.928,4.594-1.254,7.12C303.205,185.386,304.15,182.74,304.189,179.805z
	 M245.73,209.448c2.367-1.125,4.754-2.207,7.156-3.249c-1.487-0.159-0.742-1.814,0.701-1.888c6.06-0.307,12.723,0.25,17.304,4.729
	c4.517,4.415,6.469,10.484,9.567,15.84c1.654,2.859,4.197,7.783,7.688,8.688c3.351,0.869,5.381-3.869,6.332-6.373
	c2.314-6.097,3.685-13.366,2.892-19.893c-0.771-6.339-2.807-13.501-8.491-17.203c-4.983-3.245-11.082-3.6-16.75-2.113
	C261.006,190.904,250.503,198.821,245.73,209.448z M207.935,239.238c0.594,0.166,0.954,0.526,0.507,0.958
	c1.05,1.272,3.332,2.614,3.846,3.018c2.749,2.16,5.496,4.337,8.086,6.688c5.342,4.847,9.987,10.19,14.109,16.109
	c0.127,0.183,0.132,0.365,0.053,0.536c2.357-0.124,4.717-0.241,7.075-0.355c-8.2-12.056-18.446-22.649-30.024-31.498
	c-1.205,1.241-2.382,2.51-3.483,3.845C207.929,238.749,207.891,238.986,207.935,239.238z M173.202,271.965
	c13.3-1.249,26.582-2.906,39.862-4.009c6.136-0.509,12.274-0.902,18.414-1.242c-7.04-9.971-15.813-17.646-25.369-25.049
	c-4.61,3.021-8.85,7.213-12.896,10.733C186.188,258.508,179.178,264.799,173.202,271.965z M208.443,483.503
	c-0.722-0.5-1.445-0.999-2.166-1.5c-13.474-9.356-26.841-18.873-40.016-28.645c-3.453-2.561-6.989-5.107-10.5-7.709
	c-3.548,15.743-15.016,41.063,4.335,51.354C175.461,505.175,196.451,493.848,208.443,483.503z M306.295,423.065
	c0.736-0.887,1.861-1.965,2.201-3.104c0.604-2.027-0.473-5.763-0.651-7.899c-0.321-3.853-0.625-7.706-0.889-11.563
	c-1.102-16.086-1.152-32.28-2.423-48.343c-2.326-29.417-7.508-58.833-5.55-88.422c-14.056,1.627-28.166,2.725-42.292,3.514
	c-14.908,0.832-29.938,0.854-44.811,2.143c-27.546,2.388-55.125,6.893-82.837,5.383c-2.21,31.727,4.473,62.948,5.762,94.532
	c0.651,15.94,1.343,31.887,2.573,47.795c0.238,3.074-0.619,8.276,1.506,10.811c0.957,1.143,2.047,2.175,3.15,3.174
	c9.653,8.74,20.372,16.401,30.854,24.097c12.58,9.236,25.298,18.291,38.138,27.161c0.614,0.044,1.101,0.268,0.958,0.666
	c0.206,0.142,0.41,0.287,0.616,0.428c4.943,3.406,9.897,6.8,14.92,10.088c1.629,1.066,3.26,2.134,4.926,3.143
	c0.327,0.198,0.66,0.388,0.993,0.579c0.706-0.886,1.541-1.702,2.058-2.297c2.997-3.449,6.176-6.742,9.37-10.009
	c11.24-11.5,22.801-22.683,34.25-33.973C288.311,441.903,298.035,433.015,306.295,423.065z M398.666,435.483
	c6.69-10.503,13.623-20.869,20.486-31.264c-0.377,0.219-0.813,0.381-1.145,0.381c-15.496,0-30.993,0-46.49,0
	c-0.044,0.158-0.278,0.338-0.581,0.502c-0.56,0.302-1.366,0.546-1.722,0.477c0.891,0.175,1.379-0.026,1.57-0.138
	c0.045-0.026,0.088-0.054,0.1-0.063c-0.016,0.014-0.07,0.072-0.148,0.171c-0.107,0.137-0.266,0.361-0.48,0.747
	c-0.35,0.629-0.686,1.266-1.005,1.911c-1.048,2.117-2.028,4.266-2.985,6.425c-2.838,6.405-5.581,12.852-8.281,19.318
	c-4.532,10.854-8.945,21.76-13.493,32.604c-3.83,9.133-7.683,18.262-11.76,27.289c-0.96,2.126-1.927,4.25-2.922,6.36
	c-0.497,1.052-0.919,1.631-0.67,1.99c0.144,0.207,0.507,0.34,1.212,0.447c2.523,0.383,5.063,0.661,7.604,0.895
	c0.045,0.004,0.09,0.01,0.135,0.014c17.795,1.625,35.738,2.116,53.599,2.229c8.761,0.056,17.533,0.024,26.286-0.383
	c4.851-0.226,10.36-0.11,15.169-1.406c-4.148-3.8-9.177-6.622-14.404-9.072c-1.17-0.548-2.348-1.079-3.529-1.596
	c-3.554-1.555-7.13-3.003-10.523-4.522c-2.78-1.245-5.705-2.5-8.605-3.872c-1.131-0.536-2.257-1.09-3.369-1.669
	c-4.324-2.247-8.436-4.867-11.73-8.257c-0.731,0.11-1.407-0.024-1.281-0.527c0.057-0.225,0.123-0.448,0.182-0.672
	c-0.03-0.035-0.063-0.067-0.094-0.103c-0.184-0.214-0.018-0.464,0.306-0.683C383.763,459.553,391.236,447.146,398.666,435.483z
	 M367.987,405.638c0.55-0.652,1.169-1.151,1.874-1.348c-0.062-0.459,1.201-1.268,1.947-1.268c15.781,0,31.563,0,47.344,0
	c0.357,0,0.578,0.054,0.698,0.14c0.788-1.196,1.58-2.39,2.366-3.587c3.89-5.923,8.691-11.177,12.67-17.036
	c3.801-5.595,8.304-12.854,7.003-19.984c-2.185-11.969-15.171-18.078-26.694-17.866c-0.271,0.29-0.691,0.53-1.188,0.583
	C383.193,348.494,377.661,381.451,367.987,405.638z M333.513,345.326c-1.748,1.733-4.606,2.803-6.661,3.406
	c-6.4,1.878-13.067,1.816-19.648,1.143c0.809,12.115,1.126,24.258,1.813,36.387c0.472,8.348,1.01,16.693,1.727,25.024
	c0.218,2.525,1.674,6.548,0.306,8.905c-1.845,3.181-4.767,5.91-7.272,8.557c-4.488,4.743-9.1,9.369-13.729,13.974
	c17.675,5.232,37.279,1.916,52.472-8.543c7.181-4.943,14.505-11.568,18.544-19.445c3.104-6.052,5.458-12.433,7.706-18.842
	c4.284-12.211,8.179-25.404,16.118-35.846c6.478-8.52,14.947-13.902,25.14-15.945c0.063-0.052,0.132-0.102,0.204-0.149
	C384.671,340.56,359.131,344.976,333.513,345.326z M374.356,274.213c3.831-3.909,7.283-7.99,10.16-12.521
	c2.603-4.098,4.737-8.563,6.228-13.623c0-0.003,0.001-0.005,0.002-0.007c0.056-0.189,0.171-0.347,0.317-0.479
	c0.845-0.759,2.875-0.549,2.464,0.847c-0.328,1.113-0.69,2.194-1.078,3.253c-0.453,1.24-0.947,2.444-1.477,3.617
	c-0.918,2.031-1.939,3.972-3.063,5.832c0.016,0.004,0.031,0.008,0.047,0.013c7.791,2.19,15.663,4.122,23.569,5.886
	c6.944-15.875,13.929-31.714,21.641-47.236c-5.453-3.944-11.665-7.295-18.056-9.344c-3.2-1.026-6.445-1.732-9.664-2.011
	c0.061,0.181,0.103,0.375,0.152,0.564c0.135,0.506,0.242,1.032,0.283,1.607c0.393,5.531-1.786,11.032-3.977,16.006
	c-0.434,0.984-0.867,1.979-1.305,2.977c-1.725,3.934-3.538,7.914-5.848,11.475c-0.02,0.03-0.037,0.061-0.057,0.091
	c-0.817,1.252-1.907,2.375-3.125,3.231c-0.121,0.084-0.239,0.174-0.362,0.253c-2.961,1.903-6.604,2.153-9.13-1.359
	c-4.654-6.473-6.411-15.803-6.241-23.692c-0.999-0.003-2.009-0.239-3.003-0.749c-6.516,16.942-27.912,35.542-47.156,27.965
	c-20.718-8.157-22.301-32.082-22.344-51.988c-2.196-0.075-4.386-0.022-6.578,0.133c1.371,2.27,2.4,4.915,2.965,7.978
	c1.436,7.792,0.527,15.807-2.055,23.278c-1.568,4.539-4.663,9.991-10.225,9.382c-6.464-0.708-10.163-10.281-12.629-15.259
	c-1.746-3.524-3.568-7.435-6.592-10.079c-3.286-2.874-7.216-3.887-11.359-4.068c-15.612,6.564-31.287,14.573-43.426,26.632
	c-0.043,0.042-0.085,0.085-0.127,0.128c12.095,9.075,22.779,20.058,31.275,32.577c0.047,0.068-0.105,0.2-0.35,0.343
	c-0.124,0.073-0.264,0.147-0.427,0.22c10.521-0.498,21.041-0.949,31.554-1.627c0.105-0.151,0.216-0.303,0.322-0.454
	c2.666-3.779,5.843-7.483,7.115-11.981c0.311-1.093,3.25-1.493,2.914-0.305c-1.291,4.561-4.352,8.291-7.057,12.11
	c-0.104,0.145-0.208,0.289-0.31,0.434c5.419-0.374,10.837-0.823,16.249-1.377c1.574-0.16,3.146-0.327,4.719-0.507
	c0.734-0.574,2.659-0.834,2.601-0.007c-1.825,25.603,1.904,51.129,4.4,76.555c0.29,2.958,0.524,5.919,0.737,8.881
	c0.257-0.108,0.537-0.163,0.817-0.133c6.887,0.725,15.511,1.266,21.777-2.426c0.242-0.143,0.448-0.284,0.645-0.425
	c-0.245-0.575,0.354-1.411,1.364-1.463c0.459-0.792,0.678-1.706,1.069-2.936c3.31-10.397,7.103-20.818,11.801-30.672
	c5.317-11.149,13.028-19.973,22.127-28.21c0.626-0.566,1.244-1.132,1.858-1.698C370.533,277.985,372.489,276.119,374.356,274.213z
	 M441.053,226.39c-1.805-1.748-3.779-3.463-5.889-5.099c-7.427,15.053-14.188,30.397-20.912,45.775
	c-0.078,0.179-0.245,0.335-0.461,0.466c3.039,0.666,6.082,1.309,9.128,1.934C429.049,255.146,435.236,240.839,441.053,226.39z
	 M438.744,263.428c4.309-3.781,10.164-1.349,15.32,1.245c0.746-3.434,0.856-7.19,1.285-10.605c0.894-7.138,1.76-14.28,2.622-21.422
	c-4.676-2.285-9.512-4.13-14.599-5.253c-4.699,11.618-9.621,23.148-14.559,34.668c2.889,0.795,5.54,1.932,8.213,3.232
	C437.524,264.639,438.084,264.007,438.744,263.428z M487.99,279.839c-0.549,0.262-2.113,0.305-2.264-0.008
	c-1.283,0.076-2.571,0.06-3.832-0.013c-0.281,0.142-0.595,0.225-0.911,0.2c-10.013-0.805-20.166-1.808-30.223-1.438
	c-1.884,0.069-4.601,0.023-7.051,0.501c-0.327,0.122-0.632,0.2-0.82,0.19c-0.007,0-0.013-0.002-0.021-0.002
	c-1.638,0.419-3.088,1.123-3.985,2.324c-2.48,3.321-1.53,8.684,2.701,9.812c7.164,1.91,14.959,0.17,22.249,0.087
	c1.964-0.022,1.469,2.218-0.227,2.237c-4.965,0.057-9.909,0.72-14.877,0.686c-3.555-0.025-8.105,0.067-11.202-2.027
	c-1.269,2.022-2.479,4.579-1.513,6.73c0.947,2.106,3.447,3.065,5.559,3.531c4.78,1.053,9.684,0.951,14.55,0.943
	c1.96-0.003,1.485,2.257-0.221,2.26c-5.938,0.01-12.997,0.599-18.526-1.993c-0.166-0.078-0.304-0.165-0.459-0.247
	c0.685,3.907,2.543,7.468,6.794,8.699c4.675,1.353,9.674,0.456,14.325-0.554c1.731-0.376,2.122,0.96,0.359,1.343
	c-6.085,1.321-12.716,1.954-17.578-0.078c0.557,5.111,8.896,6.993,12.986,7.607c7.037,1.056,15.985,1.519,22.521-1.843
	c6.777-3.486,8.697-13.87,9.857-20.703c0.697-4.101,1.249-8.285,1.181-12.453c-0.02-1.189-0.023-2.408-0.235-3.582
	C486.828,280.37,486.223,280.682,487.99,279.839z M481.375,265.124c-0.087,0.038-0.171,0.074-0.257,0.112
	c-0.281,0.527-1.044,0.788-1.7,0.738c-4.056,1.768-7.793,3.373-11.775,3.995c-0.455,0.257-1.09,0.314-1.582,0.194
	c-2.439,0.209-4.996,0.025-7.796-0.74c-0.476-0.13-0.616-0.344-0.562-0.577c-4.338-1.828-14.441-8.997-17.974-3.799
	c-0.324,0.477-0.599,0.966-0.849,1.46c0.117,0.381-0.111,0.794-0.492,1.096c-1.609,4.116-0.629,8.35,3.595,9.785
	c1.874-0.51,3.857-0.725,5.618-0.858c11.391-0.867,23.011,0.367,34.356,1.278c0.313,0.025,0.531,0.106,0.684,0.217
	c0.013,0,0.027-0.002,0.04-0.001c3.926,0.254,14.49-0.907,11.616-7.509C492.304,265.933,485.973,263.143,481.375,265.124z
	 M484.662,251.8c-0.89,3.83-1.795,7.667-2.906,11.419c1.896-0.574,3.735-0.688,5.513-0.412
	C487.846,259.558,486.495,255.052,484.662,251.8z M514.31,118.202c-0.222-0.216-0.33-0.496-0.243-0.781
	c-0.482-1.087-1.4-2.243-1.906-3.116c-1.572-2.708-3.17-5.402-4.8-8.077c-3.21-5.267-6.299-11.394-10.58-15.907
	c-0.622,0.612-1.256,1.21-1.901,1.797c-2.959,2.69-5.966,5.33-8.862,8.088c-3.185,3.033-6.561,6.151-9.05,9.805
	c-2.053,3.014-2.156,6.073-2.594,9.618c-2.421,19.658-4.766,39.326-7.113,58.993c-2.349,19.671-4.682,39.345-7.07,59.011
	c-0.803,6.612-1.604,13.226-2.453,19.833c-0.342,2.671-0.419,5.62-1.162,8.222c-0.021,0.072-0.066,0.139-0.123,0.204
	c1.461,0.746,2.827,1.422,4.037,1.863c0.106,0.039,0.167,0.087,0.203,0.14c1.848,0.439,3.547,0.587,5.143,0.501
	c0.521-1.221,0.869-3.95,1.126-5.208c0.813-3.98,1.542-7.977,2.252-11.976c2.054-11.564,3.964-23.155,5.868-34.746
	c1.824-11.104,3.615-22.213,5.492-33.309c0.578-3.416,1.148-6.833,1.798-10.237c0.239-1.255,0.317-2.954,1.061-4.042
	c0.739-1.084,3.458-0.686,2.42,0.836c-0.29,0.426-0.741,4.003-0.962,5.235c-0.701,3.907-1.36,7.821-2.014,11.736
	c-1.92,11.518-3.785,23.044-5.687,34.565c-1.848,11.192-3.685,22.388-5.729,33.546c-0.644,3.508-1.279,7.023-2.064,10.503
	c-0.18,0.793-0.317,1.774-0.582,2.676c3.279-0.725,6.3-2.22,9.709-3.586c0.301-1.046,0.756-2.938,1.061-4.139
	c6.732-26.552,13.188-53.177,19.658-79.794c3.482-14.325,6.957-28.651,10.35-42.998c1.101-4.654,2.201-9.308,3.25-13.974
	c0.313-1.393,0.629-2.785,0.911-4.184c0.159-0.785-0.015-1.69,0.404-1.118C514.207,118.19,514.258,118.196,514.31,118.202z
	 M329.582,294.055c-4.173-2.598-9.264-3.063-13.764-1.037c-1.807,0.813-0.204,2.467,1.305,1.787
	c3.343-1.505,7.174-0.943,10.236,0.963C328.488,296.472,331.002,294.939,329.582,294.055z M319.336,398.045
	c-1.051-0.184-3.433,1.437-1.73,1.734c15.84,2.769,16.924-16.317,20.322-27.019c0.369-1.163-2.568-0.784-2.914,0.303
	C332.483,381.033,331.557,400.181,319.336,398.045z" fill="#644211"></path>
</svg>
