<svg version="1.1" id="Layer_1" xmlns="http://www.w3.org/2000/svg" xmlns:xlink="http://www.w3.org/1999/xlink" x="0px" y="0px" viewBox="0 0 2000 2000" enable-background="new 0 0 2000 2000" xml:space="preserve">
<path id="color_x5F_8" fill="#F0F3F9" d="M881.7,715.9c-2.8,4.9-12.1,7.7-12.1,7.7s-8.5-14.9-4.9-18.4c1.7-1.7,3.9-3.1,5.7-4
	C870.4,701.2,870.1,710.7,881.7,715.9z M1154,1200c0.2,0.9,0.3,1.4,0.3,1.4c0,6.6-7,7.3-11.5,7.4c0.4,1.6,1.3,4.3,2.8,5.2
	c2.2,1.2,12.8,0.3,14-5.2C1160.4,1204.9,1156.4,1201.6,1154,1200z M1012.4,1204.6c-2.8,4.9-12.1,7.7-12.1,7.7c1.8-1.8-1-15.4-1-15.4
	s-0.6,0-4.7-1.5c0.1-0.6,0.4-1.1,0.8-1.5c1.7-1.7,3.9-3.1,5.7-4C1001.1,1189.9,1000.7,1199.3,1012.4,1204.6z M1142.8,1208.8
	c0.2,0.6,0.4,1.4,0.7,2.1v0.1c0.1,0.2,0.2,0.4,0.2,0.6c0,0.1,0.1,0.1,0.1,0.2c0.1,0.2,0.2,0.4,0.3,0.6c0,0,0,0.1,0.1,0.1
	c0.1,0.2,0.2,0.3,0.3,0.5c0,0,0,0.1,0.1,0.1c0.1,0.2,0.3,0.3,0.4,0.5l0.1,0.1c0.2,0.1,0.3,0.3,0.5,0.4c2.2,1.2,12.8,0.3,14-5.2
	c0.1-0.3,0.1-0.5,0.1-0.8c0-0.1,0-0.2,0-0.2c0-0.2,0-0.3,0-0.5c0-0.1,0-0.2,0-0.3c0-0.2-0.1-0.3-0.1-0.5c0-0.1,0-0.2-0.1-0.3
	c0-0.2-0.1-0.3-0.2-0.5c0-0.1-0.1-0.2-0.1-0.2c-0.1-0.2-0.2-0.3-0.2-0.5c0-0.1-0.1-0.1-0.1-0.2c-0.4-0.7-0.9-1.4-1.4-2
	c-1.1-1.2-2.4-2.2-3.4-2.8c0.2,0.9,0.3,1.4,0.3,1.4c0,0.8-0.1,1.6-0.3,2.2l0,0l0,0c-0.1,0.4-0.3,0.7-0.4,1c-0.1,0.1-0.1,0.2-0.2,0.3
	c-0.1,0.2-0.3,0.4-0.4,0.6c-0.1,0.1-0.2,0.2-0.2,0.3c-0.2,0.2-0.3,0.4-0.5,0.5c-0.1,0.1-0.2,0.1-0.2,0.2c-0.3,0.2-0.5,0.4-0.8,0.6
	l0,0c-0.3,0.2-0.6,0.3-1,0.5c-0.1,0-0.2,0.1-0.3,0.1c-0.3,0.1-0.5,0.2-0.8,0.3c-0.1,0-0.2,0.1-0.3,0.1c-0.3,0.1-0.5,0.1-0.8,0.2
	c-0.1,0-0.2,0-0.3,0.1c-0.4,0.1-0.7,0.1-1.1,0.2l0,0l0,0C1145.2,1208.7,1143.9,1208.8,1142.8,1208.8z M870.4,701.2
	c-1.8,1-4,2.3-5.7,4c-3.6,3.5,4.9,18.4,4.9,18.4s9.4-2.8,12.1-7.7C870.1,710.7,870.4,701.2,870.4,701.2z M1028.9,720.1
	c-1.2,5.4-11.8,6.4-14,5.2s-3.1-6.5-3.1-6.5l0,0l0,0c4.1,0,11.8,1.5,11.8-6.1c0,0-0.1-0.5-0.3-1.4
	C1025.7,712.9,1029.8,716.2,1028.9,720.1z M994.5,1013.7c-1.2,5.4-11.8,6.4-14,5.2c-1.5-0.8-2.4-3.6-2.8-5.2
	c4.5-0.1,11.5-0.8,11.5-7.4c0,0-0.1-0.5-0.3-1.4C991.3,1006.6,995.4,1009.9,994.5,1013.7z M833,1023.6c-3.8,2.8-8.9,4.3-8.9,4.3l0,0
	l0,0c1.8-1.8-1-15.4-1-15.4s-0.6,0-4.7-1.5c0.1-0.6,0.4-1.1,0.8-1.5c1.7-1.7,3.9-3.1,5.7-4c0.2-0.1,0.4-0.2,0.6-0.3
	C825.4,1009.5,825.8,1018.9,833,1023.6z"></path>
<path id="color_x5F_7" fill="#CEE0EB" d="M1007.5,1181.3l-0.6-0.3l1.5-0.9C1008.2,1180.5,1007.8,1180.9,1007.5,1181.3z
	 M986.2,1193.1l-0.1-0.1l-0.1,0.1C986,1193.1,986.1,1193.1,986.2,1193.1z M1063.6,1023.3l-164.9,95.2l95.7,55.2l60.6-35
	c-0.4-4-0.8-7.9-1.1-11.5c-5.7-4.6-8.8-8.9-8.8-8.9c-0.3-8.7,7.5-36.6,10.1-45.8c0.4-1.7,0.7-2.6,0.8-2.9v-0.1
	C1056,1069.5,1064,1044.5,1063.6,1023.3z M807.1,1009.1C807.1,1009,807.2,1009,807.1,1009.1c2-0.7,4.6-0.5,8,0.8
	c1.3,0.5,2.4,0.9,3.3,1.2c0.1-0.6,0.4-1.1,0.8-1.5c1.7-1.7,3.9-3.1,5.7-4c0.2-0.1,0.4-0.2,0.6-0.3l0,0c0.1-1.3,0.2-2.1,0.2-2.1
	c41.8-57.8,65.2-50.2,65.2-50.2c-7.4-60.3,0-78.5,0-78.5s0.2-0.8,0.7-2.2L681.7,993.5l95.7,55.2l17.4-10.1c0.7-1.3,1.3-2.2,1.6-2.7
	c1.2-2.1,5.7-14.4,6.8-20.7c0.4-2.3,1.1-3.9,2.2-5l0.1-0.1c0.1-0.1,0.1-0.1,0.2-0.2c0.1-0.1,0.3-0.2,0.4-0.3c0.1,0,0.1-0.1,0.2-0.1
	c0.2-0.1,0.4-0.2,0.6-0.3C807,1009.1,807,1009.1,807.1,1009.1z M806.3,1009.5L806.3,1009.5C806.3,1009.5,806.2,1009.5,806.3,1009.5
	C806.2,1009.5,806.3,1009.5,806.3,1009.5z M807.3,1009C807.2,1009,807.2,1009,807.3,1009c-0.1,0-0.1,0-0.1,0S807.2,1009,807.3,1009z
	 M805.6,1010C805.5,1010,805.5,1010,805.6,1010c-0.1,0.1-0.1,0.1-0.1,0.1S805.5,1010,805.6,1010z M978.6,1013.7c-0.3,0-0.6,0-0.8,0
	C978,1013.7,978.3,1013.7,978.6,1013.7z M1589.7,830l-95.5-55.1l-365.4,210.9c1.1,1.4,2,2.7,2.8,3.8l0.5,0.6c0,0,6.3,6.6-0.6,31.3
	c-3.3,11.7-8.9,16.9-8.9,16.9l4.6,31.1c0,0,15.7,9.4,16,10.9s2.2,4.5,2.2,4.5l-0.9,2.2L1589.7,830z M1139,1090.2l4.2-2.4l-2.3-1.1
	C1140.8,1086.7,1140,1088.3,1139,1090.2z M1622.3,811.1l109-62.9l12.8,7.4l-109,62.9l143.9,83.1v5.9l114.1-65.9l-257.2-148.5
	l-109,62.9L1622.3,811.1z M1091,1117.9l0.5-0.3l-0.3-0.8l0,0L1091,1117.9z M790,1055.9l1.5,0.9c-0.1-0.2-0.1-0.4-0.2-0.5
	c-0.1-0.3-0.2-0.6-0.3-0.9L790,1055.9z M1111.1,966.8c0,0-16.2-7.4-24.6-9.2s-21.3-1-21.3-1c-0.4,0.5-0.8,1.1-1.2,1.8
	c-4.5,6.6-36.1,53.6-34.6,57.3c1.6,3.9,1.6,7.8,8.8,7.2c0,0,0.4,0,1.2,0l-153.3,88.5l-7.6-4.4l75.9-42.6c18.2-10.2,16.5-37-2.9-44.8
	l-29.2-11.7c-7.1-2.8-15.1-2.3-21.7,1.5l-83.6,48.2c-3.9,2.3-6.9,5.3-9,8.8l-1.6-0.9c1.4-1.2,2.8-3,4.2-5.5c-0.5-4.1-1.1-9-1.7-12.8
	c0.5,3.8,1.1,8.7,1.7,12.8c0.5-0.8,0.9-1.6,1.4-2.4c4.3-8.2,6.8-14.5,8.4-19.1l130.9-75.6c1.5,8.7,3.6,20.5,4.3,23.1
	c1,4.1,16.2,27.9,20.3,27.9c0.5,0,1.2,0,1.9,0l0,0c0.2,0.6,0.4,1.4,0.7,2.1c-0.6,0.5-1,0.8-1,0.8s-2.5,8.2-2.6,10.2
	c-0.2,2,3.7,7.7,11.2,6.2c7.6-1.5,13.6-8.3,19.9-9.2c6.3-0.9,16.8-9.7,14.8-14.8s-5.1-7.2-5.1-7.2s-21.2,7.9-23.2,6.1
	c-1.1-1.2-2.4-2.2-3.4-2.8c0.2,0.9,0.3,1.4,0.3,1.4s-12-54.8-12.2-58.4l408.6-235.8l95.8,55.3L1120.3,976
	C1115.4,970.9,1111.1,966.8,1111.1,966.8z M1111.2,966.8c0,0,0.7-4.5,0.7-6c4.2,1.4,9.2,2.4,12.8,1.1c7.4-2.6,7.1-12,7.1-12V936
	c0,0,2-0.9,3.1-5.1c0.7-2.8-0.6-9.9-1.5-14.4c0.3-4.8,0-10-1.4-11.3c0,0-12.5-13.7-31.4-6.5s-21.4,31.8-20.8,39.8
	c0.4,5.4,7.1,12,14.8,15.8c-1.8,1.9-3,4.5-3,4.5C1098.5,958.4,1111.2,966.8,1111.2,966.8z M978.4,1015.8L978.4,1015.8L978.4,1015.8
	L978.4,1015.8z M957.5,843.4l4.6,31.1c0,0,15.7,9.4,16,10.9s2.2,4.5,2.2,4.5l-1.4,3.2l-3.1-1.4c0,0-4.8,9.7-6.3,9.7
	c-0.6,0-4-2.5-7.6-5.8c4.3,7,8.3,13.6,9.7,15.8c1.9,3,4,12.5,4.9,22.3l396.4-228.9l-95.5-55.1L965.3,829.8
	C962,839.1,957.5,843.4,957.5,843.4z M891.1,874.7c0.1,0.2,0.3,0.4,0.5,0.8C891.4,875.2,891.2,874.9,891.1,874.7z M661.1,1005.4
	l-433.4,250.1l95.8,55.3l433.3-250.2L661.1,1005.4z M669.1,986.2l226.7-130.9c1.3-6.6,2.4-14.1,2.7-21.6c-0.3-0.1-0.6-0.2-0.9-0.3
	l-17.2-6.2c-4.3,0.3-7.3,0.4-7.3,0.4c-6.8,0.6-7.2-2.9-8.6-6.5c-16.2-9.1-17.1-33.3-0.1-43.1l51.8-29.9c-0.9-1.6-1.5-3.1-1.6-4.6
	c-0.4-5.3,0.6-18,6.8-28L858,752.2c-0.2,0.3-0.3,0.7-0.5,1c-0.5,0.9-0.9,1.7-1.4,2.4l0,0l0,0c-5.5,9.2-10.3,9-13.9,5.6L548.7,930.8
	l12.1-7L669.1,986.2z M843,1110.4l-22-7.9c-6.8-2.5-11.6-7.3-14.2-12.9l-37.5-21.7L335.9,1318l96.1,55.5l433.3-250.2L843,1110.4z
	 M966.8,710.2c1.5,1.3,1.8,6.5,1.4,11.3c0.4,1.9,0.9,4.3,1.2,6.7c0.1,0,0.2,0.1,0.3,0.1L999,740c19.4,7.8,21.1,34.5,2.9,44.8
	L969.5,803c0.2,2.5,0.2,5.8-0.3,9.9l295.5-170.6l-108.2-62.5L1013,662.7c2.9,14.3,9,42.1,10.4,48.6c1,0.7,2.3,1.6,3.4,2.9
	c2.1,1.8,23.2-6.1,23.2-6.1s3.1,2.2,5.1,7.2c2,5.1-8.5,13.8-14.8,14.8c-6.3,0.9-12.3,7.7-19.9,9.2s-11.4-4.2-11.2-6.2
	s2.6-10.2,2.6-10.2s0.4-0.3,1-0.8c-0.7-1.7-1-3.4-1-3.4c-4.1,0-23.4-33-24.4-37.1c-0.2-0.9-0.6-2.2-0.9-3.8l-41,23.7
	C958.7,701.2,966.8,710.2,966.8,710.2z M1602.4,837.3l-462.9,267.1c6.8,18.1,5.8,34.4,5.8,34.4c-1,0.7-2.1,1.4-3.3,2
	c0,0.6-0.1,1.2-0.1,1.8c0.1,0.1,0.1,0.2,0.1,0.3c0,2.6,10,48.5,11.9,57.1c1,0.7,2.3,1.6,3.4,2.9c2.1,1.8,23.2-6.1,23.2-6.1
	s3.1,2.2,5.1,7.2c2,5.1-8.5,13.8-14.8,14.8c-6.3,0.9-12.3,7.7-19.9,9.2s-11.4-4.2-11.2-6.2c0.2-2,2.6-10.2,2.6-10.2s0.4-0.3,1-0.8
	c-0.3-0.8-0.5-1.5-0.7-2.1c-0.7,0-1.3,0-1.8,0c-4.1,0-19.3-23.8-20.3-27.9c-0.8-3.1-5-20.3-6.5-28.6c0,0-1.5-2.8-4-6.9
	c-4.7-0.2-7.9-0.7-7.9-0.7l-6.1-15.3l-7.4,4.3l-0.7,4.8c-0.6,0.1-1.3,0.1-1.9,0.1c-0.8,3.6-1.6,7-2.2,9.9
	c-3.7,16-12.6,18.5-12.6,18.5l-42.1,26.8l25.5,14.7l12.7-7.3c6.6-3.8,14.6-4.4,21.7-1.5l29.2,11.7c16.6,6.6,20.3,27.2,9.6,39.4
	l28.3,16.3l595.1-343.7L1602.4,837.3z M1037.7,1303.1c-6.3,3.5-13.8,4.2-20.6,1.7l-29.1-10.5c-19.9-7.2-22.3-34.4-4-44.9l49.9-28.8
	l-23.5-13.6c-3.8,3.4-10.1,5.3-10.1,5.3c-1.8,1.8-2.1,10.3-12.1,29.5c-0.5,0.9-0.9,1.7-1.4,2.4l0,0l0,0c-5.6,9.3-10.4,9-13.9,5.6
	l0,0c-0.2-0.2-0.3-0.3-0.5-0.5c0,0,0,0,0-0.1c-0.2-0.2-0.3-0.4-0.5-0.5c0,0,0-0.1-0.1-0.1c-0.1-0.2-0.3-0.4-0.4-0.6l-0.1-0.1
	c-0.1-0.2-0.3-0.4-0.4-0.6l-0.1-0.1c-0.1-0.2-0.2-0.4-0.4-0.6c0-0.1-0.1-0.1-0.1-0.2c-0.1-0.2-0.2-0.4-0.3-0.5
	c0-0.1-0.1-0.1-0.1-0.2c-0.1-0.2-0.2-0.4-0.3-0.5c0-0.1-0.1-0.2-0.1-0.2c-0.1-0.2-0.2-0.3-0.3-0.5c0-0.1-0.1-0.2-0.1-0.3
	c-0.1-0.2-0.2-0.3-0.2-0.5c0-0.1-0.1-0.2-0.1-0.3c-0.1-0.2-0.1-0.3-0.2-0.5c-0.1-0.1-0.1-0.2-0.2-0.4c-0.1-0.1-0.1-0.3-0.2-0.4
	c-0.1-0.1-0.1-0.3-0.2-0.4c0-0.1-0.1-0.2-0.1-0.3c-0.1-0.2-0.2-0.4-0.2-0.6v-0.1c-1.1-3-0.8-6.3,0-9.4c0-0.2,0.1-0.3,0.1-0.5
	c0.3-0.9,0.5-1.7,0.9-2.5c1.5-3.8,3.5-6.9,4.1-7.9c0,0,0-0.1,0.1-0.1c0-0.1,0.1-0.2,0.2-0.3c0.1-0.2,0.2-0.5,0.4-0.7
	c1.4-3.1,4.1-10.5,5.5-16.2l0,0c0.3-1.2,0.6-2.4,0.7-3.4l0,0c0.1-0.4,0.1-0.7,0.2-1.1c0-0.2,0.1-0.3,0.1-0.5s0.1-0.3,0.1-0.5
	c0.1-0.2,0.1-0.4,0.2-0.6c0-0.1,0.1-0.2,0.1-0.3c0.1-0.1,0.1-0.3,0.2-0.4l-427.7,246.8l149.4,86.3l433.3-250.2l-27.1-15.7
	L1037.7,1303.1z M877.8,1130.5l-433.4,250.1l95.8,55.3l433.3-250.2L877.8,1130.5z M540.3,935.6L107,1185.8l108.2,62.5l433.3-250.2
	L540.3,935.6z M957.3,891.3c-0.2,0-0.4,0-0.7,0C956.9,891.4,957.1,891.4,957.3,891.3z M955.8,891.4c0.3,0,0.6,0,0.8,0
	C956.4,891.4,956.1,891.4,955.8,891.4z M945.8,951.4c-4.3-7.3-12.1-20.1-19.8-29.7c-2.3,10.4-5.1,23.4-7.1,31.8
	c-3.7,16-12.6,18.5-12.6,18.5l-13.6,10.1L945.8,951.4z M1405.6,686l109-62.9l8.3,4.8L1419.2,568l-109,62.9L1405.6,686z M955.8,891.4
	c-0.4,0-0.8,0-1.3,0C954.9,891.4,955.4,891.4,955.8,891.4z M1297.4,623.5l108.9-62.9l-108.2-62.5L1189.2,561L1297.4,623.5z
	 M1514.1,748.6l109-62.9l-95.8-55.3l-109,62.9L1514.1,748.6z"></path>
<path id="color_x5F_6" fill="#844F7F" d="M1746,959.6l33-58v37.7L1746,959.6z M1141.1,533.2l21.3,12.3l21.7-25.9L1141.1,533.2v37.7
	l0,0V533.2z"></path>
<path id="color_x5F_5" fill="#FFD2BB" d="M870.4,701.2c41.8-57.8,55-41.9,55-41.9c-0.9-7.6-1.6-14.5-2.1-20.8
	c7.2,5.9,18.4,12.3,32.4,11.5c-0.8,3.6-1.6,7-2.2,9.9c-3.7,16-12.6,18.5-12.6,18.5l-59,37.5C870.1,710.7,870.4,701.2,870.4,701.2z
	 M900.8,512.6c6.1,10.1,9,14.8,10.3,16.9c0,0.1,0,0.1,0,0.2c0.3,6.1,6.9,19.8,8.2,20.3s9.3-6.9,9.3-6.9l2.4,2.4l1.6-1.7
	c0.2-2.1,0.3-4.1,0.3-6.2c-0.4-1-2.2-3.1-4.3-5.3c1.4-1.4,2.5-2.7,2.4-3.4c-0.3-2.1-9.3-3.9-9.3-3.9l0,0c-1-3.1-3.9-12.4-4-13.4
	c-0.2-3.6-4.4-12.1-8-17.9c6.5-1.6,14.3-3.3,20.1-4.1c0.3-10.1,1.7-18.4,4.7-21.7c-18.7,0-43.9,10.3-45,13.2
	c-1.5,3.9,1,9.4,4.8,18.2C895.9,503.4,898,507.9,900.8,512.6z M1064,958.3c-5,9.4-4.1,36.4-1,57.1c0.2,1.4,0.4,2.8,0.5,4.2
	c-10.5,2.8-25.2,3.1-25.2,3.1c-7.2,0.6-7.2-3.3-8.8-7.2C1027.8,1012,1059.5,964.9,1064,958.3z M1041.5,1021.8
	c-0.7,0.3-1.3,0.5-1.9,0.7C1040.2,1022.3,1040.9,1022.1,1041.5,1021.8z M864.3,820.5c1.6,3.9,1.6,7.8,8.8,7.2c0,0,14.8-0.4,25.3-3.2
	c-0.1-1.4-0.3-2.8-0.5-4.2c-3.1-21.2-4-49.2,1.5-57.8C899.4,762.5,862.7,816.6,864.3,820.5z M980.6,478.1c0,0,0.7-4.5,0.7-6
	c4.2,1.4,9.2,2.4,12.8,1.1c7.4-2.6,7.1-12,7.1-12v-13.8c0,0,2-0.9,3.1-5.1c0.7-2.8-0.6-9.9-1.5-14.4c-0.2,3.5-0.8,6.9-1.4,8.4
	c-1.5,3.5-4.5,5.4-4.5,5.4c1.2,18.6-2.6,15.8-2.6,15.8c1.1-5.7-0.2-9.8-5.1-10.3c-4.9-0.5-3.7,11.2-3.7,11.2s0.8,9.2-7.8,10.4
	c-3.6-2.5-8.8-5.3-10.7-5c-3.1,0.4-6.1,6.5-6.1,6.5C967.9,469.8,980.6,478.1,980.6,478.1z M1000.8,532.8c7-24.8,0.6-31.3,0.6-31.3
	l-4.8-6.4c-15.5,5.5-23.1,49.2-23.1,49.2s-4,17.2,3.3,21.5s54.4-7.4,54.4-7.4s0,0,0-0.1c6.7,0.2,22.8-5.1,23.5-6.2
	c0.8-1.2-5-10.5-5-10.5l2.8-1.9l-2-2.9c0,0-3.5,0-4.9-0.5c-1.5-0.6-17.7,7.8-17.7,7.8c-0.9,0.9-1.5,1.8-2,2.7
	c-7.2-0.6-24.7-1.8-32.3,0.9C995.6,545.2,998.7,540.4,1000.8,532.8z M946.8,765.7c4.2,1.4,9.2,2.4,12.8,1.1c7.4-2.6,7.1-12,7.1-12
	V741c0,0,2-0.9,3.1-5.1c0.7-2.8-0.6-9.9-1.5-14.4c-0.2,2.6-0.5,5.1-1,6.9v0.1c-0.1,0.3-0.1,0.5-0.2,0.7v0.1
	c-0.1,0.2-0.1,0.4-0.2,0.6c-1.5,3.5-4.5,5.4-4.5,5.4c1.2,18.6-2.6,15.8-2.6,15.8c1.1-5.7-0.2-9.8-5.1-10.3S951,752,951,752
	s0,0,0,0.1l0,0c0,0.1,0,0.2,0,0.3l0,0c0,0.1,0,0.3,0,0.5l0,0c-0.1,2.6-1,10-10.3,9.6c-3.6-0.1-7.5-1.3-11.2-3.2
	c-1.8,1.9-3,4.5-3,4.5c7.1-0.5,19.7,7.8,19.7,7.8S946.9,767.2,946.8,765.7z M1111.9,960.7c4.2,1.4,9.2,2.4,12.8,1.1
	c7.4-2.6,7.1-12,7.1-12V936c0,0,2-0.9,3.1-5.1c0.7-2.8-0.6-9.9-1.5-14.4c-0.2,3.5-0.8,6.9-1.4,8.4c-1.5,3.5-4.5,5.4-4.5,5.4
	c1.2,18.6-2.6,15.8-2.6,15.8c1.1-5.7-0.2-9.8-5.1-10.3s-3.7,11.2-3.7,11.2s0.8,9.2-7.8,10.4c-3.6-2.5-8.8-5.3-10.7-5
	c-3.1,0.4-6.1,6.5-6.1,6.5c7.1-0.5,19.7,7.8,19.7,7.8S1111.9,962.2,1111.9,960.7z M1134.5,1096.4c1.4,0,6.3-9.7,6.3-9.7l3.1,1.4
	l1.4-3.2c0,0-1.8-2.9-2.2-4.5c-0.3-1.5-16-10.9-16-10.9l-4.6-31.1c0,0,5.6-5.3,8.9-16.9c7-24.8,0.6-31.3,0.6-31.3l-4.8-6.4
	c-15.5,5.5-23.1,49.2-23.1,49.2s6.5,36.7,11.9,44.6C1116.1,1082.1,1133.1,1096.4,1134.5,1096.4z M1142,1143c0-0.1-0.1-0.2-0.1-0.3
	c0-0.6,0.1-1.2,0.1-1.8c-9.3,4.7-23.1,5-31.8,4.5c2.4,4.2,4,6.9,4,6.9c1.4,8.3,5.7,25.5,6.5,28.6c1,4.1,16.2,27.9,20.3,27.9
	c4.1,0,13.3,0.2,13.3-7.4C1154.3,1201.4,1142.1,1145.8,1142,1143z M1053.9,1127.2c0.5,6.3,1.2,13.2,2.1,20.8c0,0-13.1-15.9-55,41.9
	c0,0-0.4,9.4,11.3,14.7l59-37.5c0,0,8.9-2.5,12.6-18.5c0.7-2.9,1.4-6.3,2.2-9.9C1072.3,1139.5,1061.1,1133.1,1053.9,1127.2z
	 M962.1,874.5l-4.6-31.1c0,0,5.6-5.3,8.9-16.9c7-24.8,0.6-31.3,0.6-31.3l-4.8-6.4c-15.5,5.5-23.1,49.2-23.1,49.2s6.5,36.7,11.9,44.6
	c0,4.6,17.1,18.9,18.5,18.9s6.3-9.7,6.3-9.7l3.1,1.4l1.4-3.2c0,0-1.8-2.9-2.2-4.5S962.1,874.5,962.1,874.5z M1011.9,718.8
	c4.1,0,11.8,1.5,11.8-6.1c0,0-12.2-55.6-12.2-58.5c0-0.1-0.1-0.2-0.1-0.3c0-0.6,0.1-1.2,0.1-1.8c-9.3,4.7-23.1,5-31.8,4.5
	c2.4,4.2,4,6.9,4,6.9c1.4,8.3,3.2,15.1,3.9,18.1C988.5,685.9,1007.8,718.8,1011.9,718.8z"></path>
<path id="color_x5F_4" fill="#00CEC9" d="M946.2,771.7c0,0,0.7-4.5,0.7-6c4.2,1.4,9.2,2.4,12.8,1.1c7.4-2.6,7.1-12,7.1-12V741
	c0,0,2-0.9,3.1-5.1c0.4-1.6,0.2-4.6-0.3-7.7c0.1,0,0.2,0.1,0.3,0.1L999,740c19.4,7.8,21.1,34.5,2.9,44.8L969.5,803
	c-0.6-5.9-2.5-7.9-2.5-7.9l-4.8-6.4l4.8,6.4c-1.1-1.9-2.8-4.1-4.8-6.4l0,0l0,0C955.6,780.8,946.2,771.7,946.2,771.7z M987.9,1294.3
	l29.1,10.5c6.8,2.5,14.3,1.8,20.6-1.7l83.7-47c18.2-10.2,16.5-37-2.9-44.8l-29.2-11.7c-7.1-2.8-15.1-2.3-21.7,1.5l-83.6,48.2
	C965.6,1259.9,968,1287.1,987.9,1294.3z M864.6,821.2c-0.1-0.2-0.2-0.4-0.3-0.6c-1.6-3.9,35.1-58,35.1-58c0.2-0.4,0.5-0.7,0.8-1
	c0,0,12.9-0.8,21.3,1c1.4,0.3,3.1,0.8,4.9,1.4c0,0,1.3-2.6,3-4.5c-5.6-2.8-10.7-7-13.2-11.2L864.5,778
	C847.5,787.9,848.4,812.1,864.6,821.2z M821,1102.4l29.1,10.5c6.8,2.5,14.3,1.8,20.6-1.7l83.7-47c18.2-10.2,16.5-37-2.9-44.8
	l-29.2-11.7c-7.1-2.8-15.1-2.3-21.7,1.5l-83.6,48.2C798.6,1068.1,801.1,1095.3,821,1102.4z M1778.9,907.5v31.8l-33,20.3l16.8-29.6
	l-11.4-6.6L702,1529.4l-595-343.6v62.7L702,1592l1191-687.6v-62.8L1778.9,907.5z M898.2,822.4c0.1,0.7,0.1,1.4,0.2,2.1l0,0
	C898.4,823.8,898.3,823.1,898.2,822.4z M897.6,833.5c0.3,0.1,0.6,0.2,0.9,0.3c0.1-3.1,0.1-6.2-0.1-9.2c-5.7,1.5-12.8,2.3-18,2.7
	L897.6,833.5z"></path>
<path id="color_x5F_3" fill="#E84393" d="M985.1,1231.5c0.5,3.8,1.1,8.7,1.7,12.8c-9.4,15.7-16.6,4-19.3-3.7
	c-2.9-8,3.9-18.3,5.1-20.3c1.2-2.1,5.7-14.4,6.8-20.7c0.9-5.8,4.2-7.7,10.2-5.9c1.1,1.1,2,2.7,2.6,5.3
	C995.6,1213.3,984,1223.6,985.1,1231.5z M1127.9,984.6l3.7,5C1130.6,988,1129.3,986.3,1127.9,984.6z M1116.5,1079.1l-60.5-9.6
	c0,0,0,0,0,0.1c0-0.1,0-0.1,0-0.1s10.3-32,7-54.1c-3.3-22.2-4.1-51.7,2.3-58.9c0,0,12.9-0.8,21.3,1s24.6,9.2,24.6,9.2
	s9.5,9.1,16.1,17c-15.5,5.6-23,49.1-23,49.1s6.5,36.7,11.9,44.6C1116.1,1078,1116.2,1078.5,1116.5,1079.1z M1141.1,533.2v37.7
	L1779,939.3v-37.7L1141.1,533.2z"></path>
<path id="color_x5F_2" fill="#FBC02D" d="M854.5,742.8c0.5,3.8,1.1,8.7,1.7,12.8c-9.4,15.7-16.6,4-19.3-3.7
	c-2.9-8,3.9-18.3,5.1-20.3c1.2-2.1,5.7-14.4,6.8-20.7c0.9-5.8,4.2-7.7,10.2-5.9c1.1,1.1,2,2.7,2.6,5.3
	C865,724.7,853.4,735,854.5,742.8z M957.3,891.3c-7.7,0.3-46.7,1.4-54-3.7c-8.2-5.7-12.3-13.1-12.3-13.1s10.3-32,7-54.1
	c-3.3-22.2-4.1-51.7,2.3-58.9c0,0,12.9-0.8,21.3,1c8.4,1.8,24.6,9.2,24.6,9.2s15.8,15.2,20.8,23.4l-4.8-6.4
	c-15.5,5.5-23.1,49.2-23.1,49.2s6.5,36.7,11.9,44.6C951,884.4,953.9,887.9,957.3,891.3z M925.4,580.9
	C925.4,580.9,925.4,580.8,925.4,580.9l66.4,10.4l0,0c-1.5-9-2.2-17.3-2.2-25c-6,0.6-10.8,0.6-12.8-0.5c-7.3-4.3-3.3-21.5-3.3-21.5
	s7.5-43.6,23-49.1c-6.6-7.9-16.1-17-16.1-17s-16.2-7.4-24.6-9.2c-8.4-1.8-21.3-1-21.3-1c-6.4,7.2-5.5,36.7-2.3,58.9
	C935.6,548.8,925.3,580.8,925.4,580.9C925.3,580.8,925.3,580.9,925.4,580.9z"></path>
<path id="color_x5F_1" fill="#0984E3" d="M1131.9,924.9c-1.5,3.5-4.5,5.4-4.5,5.4c1.2,18.6-2.6,15.8-2.6,15.8
	c1.1-5.7-0.2-9.8-5.1-10.3S1116,947,1116,947s0.9,10.9-10.3,10.5c-11.2-0.5-25.4-10.9-26-18.9s1.8-32.6,20.8-39.8
	c18.9-7.2,31.4,6.5,31.4,6.5C1134.5,907.5,1133.4,921.4,1131.9,924.9z M1135.6,1095.7c-0.4,0.5-0.8,0.8-1,0.8
	c-1.3,0-15.4-11.7-18-17.4l-60.5-9.6c0,0-11.3,38.4-10.9,48.8c0,0,16.9,23,43.1,20.3l3-21.8l11.2,27.9c0,0,29.6,4,42.9-5.8
	C1145.3,1138.8,1146.7,1116.9,1135.6,1095.7z M1001.2,436.2c-1.5,3.5-4.5,5.4-4.5,5.4c1.2,18.6-2.6,15.8-2.6,15.8
	c1.1-5.7-0.2-9.8-5.1-10.3c-4.9-0.5-3.7,11.2-3.7,11.2s0.9,10.9-10.3,10.5c-11.2-0.5-25.4-10.9-26-18.9s1.8-32.6,20.8-39.8
	c18.9-7.2,31.4,6.5,31.4,6.5C1003.8,418.8,1002.8,432.7,1001.2,436.2z M925.4,580.8c0,0-11.3,38.4-10.9,48.8c0,0,16.9,23,43.1,20.3
	l3-21.8l11.2,27.9c0,0,29.6,4,42.9-5.8c0,0,0-34.5-22.8-58.8L925.4,580.8z M966.8,710.2c0,0-12.5-13.7-31.4-6.5
	s-21.4,31.8-20.8,39.8c0.6,8,14.8,18.5,26,18.9C951.9,762.9,951,752,951,752s-1.2-11.7,3.7-11.2s6.2,4.6,5.1,10.3
	c0,0,3.8,2.8,2.6-15.8c0,0,2.9-1.8,4.5-5.4S969.4,712.5,966.8,710.2z M977,947.9c0-0.1-0.1-0.2-0.1-0.3c0.8-12.9-2.4-31.8-5.3-36.2
	c-1.8-2.8-7.9-12.7-13.2-21.4c0.1,0.4,0.2,0.9,0.3,1.3c0,0-47.2,2.1-55.4-3.7c-8.2-5.7-12.3-13.1-12.3-13.1l0,0c0,0-7.4,18.2,0,78.5
	c0,0-23.4-7.7-65.2,50.2c0,0-2.5,16.3,9.2,21.5l71.4-52.6c0,0,8.9-2.5,12.6-18.5c1.9-8.4,4.8-21.4,7.1-31.8
	c11.4,14.2,23.1,35.5,23.1,35.5s0.5,0.2,1.3,0.4c1.4,8.3,4.4,25.1,5.1,28.2c1,4.1,16.2,27.9,20.3,27.9s13.3,0.2,13.3-7.4
	C989.2,1006.4,977,950.8,977,947.9z M1000.3,1212.3c-1.8,1.8-2.1,10.3-12.1,29.5c-0.5,0.9-0.9,1.7-1.4,2.4c-0.5-4.1-1.1-9-1.7-12.8
	c-1.1-7.8,10.5-18.2,7.1-32.5c-0.6-2.6-1.5-4.2-2.6-5.3c-4.2-1.2-7-0.8-8.6,1.5c1.9-2.6,5.2-2.9,10.3-1c7.2,2.7,8,2.7,8,2.7
	S1002.1,1210.5,1000.3,1212.3z M1185.7,1204c-2-5.1-5.1-7.2-5.1-7.2s-21.2,7.9-23.2,6.1l0,0c0.6,0.6,1.1,1.3,1.4,2
	c0,0.1,0.1,0.1,0.1,0.2c0.1,0.2,0.2,0.3,0.2,0.5c0,0.1,0.1,0.2,0.1,0.2c0.1,0.2,0.1,0.3,0.2,0.5c0,0.1,0.1,0.2,0.1,0.3
	c0,0.2,0.1,0.3,0.1,0.5c0,0.1,0,0.2,0,0.3c0,0.2,0,0.3,0,0.5c0,0.1,0,0.2,0,0.2c0,0.3,0,0.5-0.1,0.8c-1.2,5.4-11.8,6.4-14,5.2
	c-0.2-0.1-0.3-0.2-0.5-0.4l-0.1-0.1c-0.1-0.1-0.3-0.3-0.4-0.5c0,0,0-0.1-0.1-0.1c-0.1-0.2-0.2-0.3-0.3-0.5c0,0,0-0.1-0.1-0.1
	c-0.1-0.2-0.2-0.4-0.3-0.6c0-0.1-0.1-0.1-0.1-0.2c-0.1-0.2-0.2-0.4-0.2-0.6v-0.1l0,0c-0.6,0.5-1,0.8-1,0.8s-2.5,8.2-2.6,10.2
	c-0.2,2,3.7,7.7,11.2,6.2c7.6-1.5,13.6-8.3,19.9-9.2C1177.3,1217.8,1187.7,1209,1185.7,1204z M851.8,705.2c-0.1,0.1-0.2,0.1-0.2,0.2
	C851.6,705.3,851.7,705.3,851.8,705.2z M869.6,723.6c-1.8,1.8-2.1,10.3-12.1,29.5c-0.5,0.9-0.9,1.7-1.4,2.4c-0.5-4.1-1.1-9-1.7-12.8
	c-1.1-7.8,10.5-18.2,7.1-32.5c-0.6-2.6-1.5-4.2-2.6-5.3c-2.6-0.8-4.6-0.9-6.2-0.3c1.9-0.7,4.5-0.4,7.9,0.8c1.3,0.5,2.4,0.9,3.3,1.2
	C862.9,711.8,869.6,723.6,869.6,723.6z M852.7,704.8c0,0-0.1,0-0.1,0.1C852.6,704.8,852.6,704.8,852.7,704.8z M851.8,705.2
	c0.2-0.1,0.5-0.3,0.8-0.4C852.3,704.9,852,705.1,851.8,705.2z M851,705.8c0.2-0.2,0.4-0.3,0.6-0.4
	C851.4,705.5,851.2,705.6,851,705.8z M851,705.8c-0.3,0.2-0.5,0.5-0.7,0.8C850.5,706.3,850.7,706,851,705.8z M1040.3,730.1
	c-6.3,0.9-12.3,7.7-19.9,9.2s-11.4-4.2-11.2-6.2s2.6-10.2,2.6-10.2s0.4-0.3,1-0.8c0.5,1.3,1.2,2.5,2.1,3.1c2.2,1.2,12.8,0.3,14-5.2
	c0.5-2.2-0.6-4.3-2.1-5.9c2.1,1.8,23.2-6.1,23.2-6.1s3.1,2.2,5.1,7.2C1057.1,720.4,1046.6,729.1,1040.3,730.1z M1005.9,1023.7
	c-6.3,0.9-12.3,7.7-19.9,9.2s-11.4-4.2-11.2-6.2s2.6-10.2,2.6-10.2s0.4-0.3,1-0.8c0.5,1.3,1.2,2.5,2.1,3.1c2.2,1.2,12.8,0.3,14-5.2
	c0.5-2.2-0.6-4.3-2.1-5.9c2.1,1.8,23.2-6.1,23.2-6.1s3.1,2.2,5.1,7.2C1022.7,1014,1012.2,1022.8,1005.9,1023.7z M824.1,1027.9
	c-1.8,1.8-2.1,10.3-12.1,29.5c-0.5,0.9-0.9,1.7-1.4,2.4c-0.5-4.1-1.1-9-1.7-12.8c-1.1-7.8,10.5-18.2,7.1-32.5
	c-0.6-2.6-1.5-4.2-2.6-5.3c-4.2-1.2-7-0.8-8.6,1.5c1.9-2.6,5.2-2.9,10.3-1c7.2,2.7,8,2.7,8,2.7S826,1026.1,824.1,1027.9z"></path>
</svg>
