<svg version="1.1" id="Layer_1" xmlns="http://www.w3.org/2000/svg" xmlns:xlink="http://www.w3.org/1999/xlink" x="0px" y="0px" width="595.279px" height="595.281px" viewBox="0 0 595.279 595.281" enable-background="new 0 0 595.279 595.281" xml:space="preserve">
<path id="color_x5F_2" fill="#ece187" d="M445.705,360.276c-1.102,2.68-3.187,5.289-4.526,6.877
	c-6.517,7.711-15.051,13.824-23.894,18.592c-10.316,5.561-21.468,9.402-32.829,11.008l-0.48,0.139h-0.583
	c-6.002,0.771-12.057,0.926-18.074,0.365c0.149,0.156,0.359,0.371,0.598,0.609c0.66-0.227,1.397-0.314,1.622-0.049
	c9.976,11.906,24.32,8.57,37.768,5.977c2.029-0.391,0.629,0.883-0.529,1.105c-7.644,1.475-15.749,3.232-23.231,2.498l-0.99,0.396
	c5.749,14.611,28.188,11.25,40.313,8.992c1.026-0.191,1.629,0.361,1.624,0.93l20.588-4.172c-0.072-0.182-0.053-0.406,0.105-0.684
	c6.199-10.82,13.501-21.586,23.574-29.176c-0.298,0-0.563-0.059-0.739-0.207C458.277,376.977,451.312,368.84,445.705,360.276z
	 M351.655,250.942c-0.236-0.523,0.257-0.986,0.904-1.213l-6.116-12.232c-0.144,0.689-0.248,1.398-0.266,2.154
	c-0.183,7.934-3.843,12.777-7.807,19.313c-0.249,0.41-1.113,0.688-1.818,0.711c-3.343,5-9.261,8.307-14.705,10.389
	c-7.783,2.975-16.072,5.201-24.396,6.201c-0.723,0.137-1.144,0.211-1.144,0.211l0.31,0.879c9.132,8.684,23.738,7.33,34.994,3.494
	C343.789,276.7,358.128,265.266,351.655,250.942z M275.711,240.489c11.291-0.227,22.329-4.92,32.934-8.328
	c5.942-1.908,13.069-3.703,18.493-7.432c0.326-0.232,0.648-0.463,0.967-0.689c1.706-1.301,3.208-2.822,4.405-4.641
	c1.985-6.148,1.625-14.52-3.459-18.771c-7.924-6.627-16.669,1.98-22.05,7.549c-4.454,4.607-9.219,10.002-15.707,11.559
	c-5.832,1.398-10.251-2.523-13.434-6.926c-3.337,8.715-4.401,18.064-2.047,26.971C275.884,240.042,275.836,240.28,275.711,240.489z
	 M379.309,241.444c0.202-0.066,0.434-0.109,0.661-0.133c1.424-3.342,2.122-7.004,2.39-10.607
	c0.639-8.596-1.063-20.854-10.465-22.748c-0.151,0.424-0.694,0.738-1.286,0.838c-2.354,5.734-2.359,12.48-1.392,18.512
	C370.011,232.247,371.853,243.887,379.309,241.444z M378.808,242.725l0.608-0.426c-0.828,0.26-1.737,0.508-2.652,0.652
	C378.788,242.727,378.808,242.725,378.808,242.725z M422.994,322.116c2.938-0.119,5.979-0.76,9.175-1.926
	c5.066-1.85,9.891-4.063,14.543-6.822c8.675-5.145,26.247-16.313,20.678-28.557c-6.938,11.604-21.701,20.785-32.434,24.465
	c-8.753,3.002-18.312,7.418-27.862,7.779c4.57,3.209,9.154,4.873,13.99,5.059C421.714,321.754,422.585,321.676,422.994,322.116z
	 M292.069,333.399c-7.751,3.307-17.42,4.961-25.124,0.506c-0.213-0.123-0.41-0.262-0.616-0.391
	c-0.779,7.111,2.087,13.334,10.084,14.523c5.327,0.791,14.574,0.387,18.409-4.172c-0.977-3.561-1.735-7.146-2.26-10.754
	C292.437,333.213,292.279,333.309,292.069,333.399z M327.586,324.071c-7.841,5.477-11.336,19.541-7.578,27.742
	c4.078,8.9,17.109,15.438,26.688,11.867c-0.38-0.336-0.771-0.654-1.144-0.998C333.866,351.913,329.292,338.434,327.586,324.071z
	 M331.131,321.946c0.012,0.182-0.207,0.402-0.788,0.639c1.642,15.023,6.313,29.125,18.861,39.854
	c0.004,0.004,0.008,0.006,0.012,0.01c0.384-0.236,0.762-0.486,1.127-0.766c7.409-5.65,11.052-16.125,8.375-25.158
	C355.576,325.926,341.933,318.331,331.131,321.946z"></path>
<path id="color_x5F_1" d="M165.595,266.565c-0.945,7.787-6.415,13.146-13.649,15.561c-7.719,2.572-17.423,1.674-22.217-5.672
	c-5.558-8.514-3.412-18.965,4.841-24.764c0.547-0.385,3.186-0.66,2.612-0.258c-6.588,4.629-9.767,13-6.471,20.666
	c3.78,8.797,13.869,13.039,22.77,8.467c13.854-7.115,11.108-25.982-3.388-30.027c-0.785-0.219,1.749-1.262,2.392-1.082
	C160.197,251.606,166.635,257.995,165.595,266.565z M145.366,262.788c-1.063-2.342-0.113-6.953-0.069-9.457
	c0.052-2.99,0.546-6.332,0.085-9.303c-0.042-0.268-0.363-0.475-0.599-0.535c-0.005-0.002-0.01-0.004-0.016-0.004
	c-1-0.262-2.839,0.977-2.189,1.605c-0.166-0.143-0.078-0.152-0.077,0.527c0.001,0.816-0.016,1.635-0.028,2.451
	c-0.033,2.086-0.079,4.172-0.115,6.258c-0.043,2.463-0.944,6.91,0.11,9.232C143.015,264.77,145.876,263.913,145.366,262.788z
	 M189.103,274.569c2.915-9.711,1.684-20.756-3.583-29.367c-5.214-8.523-14.558-17.631-24.974-18.652
	c-1.2-0.117-3.051,1.586-1.092,1.777c11.141,1.092,21.011,12.605,25.587,22.063c4.493,9.283,3.161,21.867-1.373,30.867
	c-3.296,6.543-8.854,11.631-14.981,15.484c-0.605,0.383-7.066,3.324-6.006,4.553c0.577,0.666,2.492,0.102,2.786-0.635
	c0.025-0.002,0.162-0.109,0.657-0.391c0.836-0.475,1.681-0.932,2.515-1.408c2.481-1.42,4.877-3.014,7.099-4.813
	C182.065,288.92,186.751,282.405,189.103,274.569z M119.448,296.581c-5.993-3.611-11.134-8.406-14.792-14.395
	c-5.24-8.578-6.159-19.994-3.453-29.553c2.95-10.422,14.899-23.451,26.033-24.541c1.477-0.146,2.356-1.949,0.355-1.754
	c-10.161,0.996-18.545,9.205-24.287,17.033c-6.463,8.811-7.736,19.99-5.266,30.484c1.914,8.131,7.071,15.074,13.475,20.262
	c2.204,1.785,4.586,3.34,7.036,4.762c0.831,0.482,1.676,0.939,2.515,1.408c1.133,0.633,0.523,0.629,1.153-0.1
	c-1.148,1.328,1.658,1.389,2.353,0.586C125.862,299.278,120.316,297.102,119.448,296.581z M75.125,236.729
	c3.107-12.475,11.994-26.357,24.424-31.059c1.864-0.705,0.207-2.207-1.268-1.648C85,209.043,75.507,223.661,72.193,236.965
	C71.852,238.334,74.815,237.971,75.125,236.729z M188.97,205.801c12.552,4.746,21.523,18.883,24.65,31.436
	c0.325,1.307,3.225,0.537,2.897-0.777c-3.293-13.219-12.704-27.592-25.863-32.566C189.461,203.44,187.257,205.153,188.97,205.801z
	 M99.305,318.52c-12.55-4.746-21.517-18.861-24.645-31.414c-0.333-1.34-3.233-0.572-2.897,0.777
	c3.293,13.217,12.708,27.607,25.868,32.586C98.859,320.932,101.027,319.172,99.305,318.52z M213.177,287.692
	c-3.096,12.432-11.928,26.564-24.368,31.27c-1.905,0.721-0.147,1.545,1.112,1.066c13.266-5.016,22.822-19.393,26.145-32.73
	C216.31,286.317,213.407,286.772,213.177,287.692z M420.864,416.786c-12.123,2.258-34.563,5.619-40.313-8.992
	c-0.064-0.162-0.138-0.316-0.198-0.484c-0.007-0.02-0.02-0.035-0.026-0.053c0.402,0.055,0.809,0.102,1.216,0.143
	c7.482,0.734,15.589-1.023,23.231-2.5c1.158-0.223,2.56-1.496,0.529-1.104c-13.446,2.594-27.792,5.93-37.768-5.979
	c-0.225-0.266-0.963-0.176-1.622,0.049c-0.723,0.248-1.351,0.656-1.106,0.947c3.871,4.621,8.445,7.02,13.382,8.074
	c-0.539,0.25-0.918,0.686-0.733,1.199c5.957,16.648,30.509,13.123,43.924,10.625c0.779-0.146,1.104-0.574,1.107-0.996
	C422.493,417.147,421.891,416.594,420.864,416.786z M517.381,405.418c-4.441,6.043-10.906,10.766-17.683,13.895
	c-0.718,0.33-3.432,0.357-1.688-0.447c7.13-3.291,13.993-8.547,18.131-15.303c6.595-10.768,5.366-22.707,0.273-33.793
	c-0.198-0.094-0.342-0.201-0.436-0.316c-0.006,0.004-0.011,0.008-0.017,0.012c-2.071-3.92-5.293-7.533-7.851-11.141
	c-5.195-7.332-10.389-14.668-15.514-22.049c-0.668-0.961-1.314-1.934-1.97-2.9c-1.794,7.277-10.878,14.117-16.624,17.016
	c-8.134,4.105-18.123,6.303-27.43,5.854c5.88,9.596,13.505,18.836,22.095,26.059c10.459-7.217,22.409-10.672,34.985-11.91
	c1.97-0.193,1.437,2.076-0.227,2.238c-12.608,1.24-25.073,4.809-35.132,12.805c-9.461,7.523-16.37,17.414-22.332,27.82
	c-0.543,0.945-2.582,1.055-2.895,0.289c-0.071-0.182-0.052-0.406,0.106-0.684c6.199-10.82,13.501-21.586,23.574-29.176
	c-0.298,0-0.563-0.059-0.739-0.207c-7.739-6.5-14.705-14.637-20.313-23.201c-1.101,2.68-3.186,5.289-4.525,6.877
	c-6.518,7.711-15.051,13.824-23.895,18.592c-10.315,5.561-21.467,9.402-32.829,11.008c-0.354,0.051-0.709,0.094-1.063,0.139
	c-6.002,0.771-12.057,0.926-18.074,0.365c-7.83-0.73-15.595-2.66-23.096-5.947c-1.573-0.34-3.279-1.381-4.514-1.957
	c-4.853-2.264-9.588-4.822-14.085-7.729c-1.288-0.832-2.567-1.688-3.83-2.572c-0.104,1.324-0.482,2.682-0.82,3.83
	c-0.897,3.049-2.105,5.963-3.636,8.746c0.212,0.137,0.296,0.361,0.142,0.699c-8.842,19.406-31.01,26.768-50.881,27.781
	c-9.691,0.496-19.804-0.404-29.098-3.305c-6.113-1.908-12.938-4.625-17.029-9.826c-11.197,5.119-25.846-6.059-30.221-16.521
	c-1.215,0.363-2.377,0.506-3.238,0.34c-5.463-1.051-9.593-5.703-10.718-11.049c-1.464-6.955,1.771-19.01,10.799-15.664
	c0.075-1.738,0.463-3.41,1.332-4.898c2.833-4.854,9.814-3.879,14.323-2.482c0.309-0.746,0.666-1.465,1.089-2.145
	c2.589-4.16,6.82-5.451,11.197-5.021c-3.49-1.799-7.246-3.105-10.936-4.596c-3.823-1.543-10.845-3.9-11.804-8.611
	c-0.975-4.787,3.694-9.1,7.488-11.219c19.139-10.691,38.554,14.617,43.704,31.994c0.639-1.455,1.332-2.854,2.057-4.158
	c2.15-3.869,5.271-8.42,10.292-7.893c7.318,0.77,7.857,15.498,7.127,20.441c-0.798,5.408-2.575,10.613-5.05,15.48
	c4.437-1.816,8.998-3.852,13.73-4.732c-5.448-8.633-2.249-18.262-0.323-28.098c0.046-0.238,0.177-0.443,0.353-0.613
	c-5.165-2.691-7.384-8.084-5.889-15.516c0.017-0.082,0.074-0.16,0.16-0.234c-5.794-4.889-8.354-12.512-7.744-20.225
	c1.329-16.783,12.671-32.574,28.967-35.16c-3.138-0.582-6.037-1.895-8.881-4.488c-9.428-8.602-21.394-29.102-4.241-35.715
	c-3.345-23.469,14.452-50.547,36.025-58.795c25.543-9.764,51.896,5.771,63.353,29.094c13.801,0.584,15.527,17.645,13.074,28.854
	c-1.021,4.668-2.986,10.854-8.135,12.482c-0.364,0.115-0.734,0.199-1.104,0.285c0.496,1.373,0.481,2.74,0.274,4.227
	c-0.235,1.707-0.277,3.002,1.021,4.295c0.035,0.033,0.055,0.068,0.08,0.104c3.815-5.934,8.932-11.229,14.878-14.166
	c9.478-4.682,21.014-6.697,31.556-6.354c19.431,0.637,39.609,9.428,46.854,28.455c0.102,0.092,0.185,0.203,0.231,0.346
	c2.092,6.168,1.154,12.158-1.608,17.67c0.525-0.102,1.005-0.078,1.162,0.199c2.388,4.174,2.08,8.279,0.213,12.135
	c0.041,0.041,0.081,0.082,0.113,0.131c8.502,13.283,16.219,26.902,25.229,39.859c5.131,7.377,10.315,14.717,15.514,22.049
	c2.552,3.602,5.766,7.207,7.838,11.119c0.219,0.029,0.388,0.107,0.457,0.258C524.897,380.792,525.723,394.063,517.381,405.418z
	 M441.693,354.456c-7.881-9.738-15.497-19.686-21.219-30.877c-6.23-0.09-12.072-2.367-17.47-6.52
	c-0.043-0.033-0.053-0.074-0.047-0.119c-0.521-0.051-1.043-0.1-1.563-0.18c-4.954-0.771-9.854-2.551-14.146-5.145
	c-12.175-7.354-19.072-21.977-17.648-36.104c-9.44,7.512-21.209,11.941-33.13,13.502c-2.17,0.285-4.445,0.529-6.764,0.672
	c-0.152,10.232-0.502,20.84,0.448,31.07c12.24-5.734,27.616-5.063,35.964,7.023c7.918,11.467,2.294,32.326-12.967,33.855
	c-0.869,0.65-1.807,1.229-2.797,1.738c15.535,12.799,34.837,19.154,53.505,25.908c0.595,0.217,0.095,0.662-0.612,0.982
	c4.656-1.738,9.188-3.854,13.529-6.322c7.663-4.357,15.181-9.57,21.02-16.25c1.912-2.188,6.52-7.369,5.618-11.066
	c-0.059-0.098-0.123-0.193-0.182-0.289c-0.081-0.137-0.105-0.27-0.09-0.396c-0.243-0.029-0.489-0.051-0.73-0.086
	C441.361,355.711,441.3,355.024,441.693,354.456z M320.008,351.813c4.078,8.9,17.109,15.438,26.688,11.867
	c-0.38-0.336-0.771-0.654-1.144-0.998c-11.688-10.77-16.263-24.248-17.968-38.611C319.746,329.547,316.25,343.612,320.008,351.813z
	 M349.216,362.448c0.384-0.236,0.762-0.486,1.127-0.766c7.409-5.65,11.052-16.125,8.375-25.158
	c-3.143-10.598-16.785-18.193-27.587-14.578c0.012,0.182-0.207,0.402-0.788,0.639c1.642,15.023,6.313,29.125,18.861,39.854
	C349.208,362.442,349.212,362.444,349.216,362.448z M354.986,360.098c5.743-1.336,10.246-8.59,11.427-13.791
	c1.438-6.334,0.33-13.275-3.724-18.504c-6.683-8.623-17.327-10.832-27.034-7.885c10.075-0.771,21.948,4.213,25.276,13.717
	C364.041,342.508,361.867,353.557,354.986,360.098z M305.449,272.942c0.143-0.033,0.291-0.066,0.431-0.098
	c2.304-0.518,4.706-1.061,7.112-1.695l11.525-36.018c-0.597-0.031-1.249,0.043-1.979,0.254c-1.395,0.406-2.753,0.895-4.101,1.418
	L305.449,272.942z M295.714,276.442c0.295,0.314,0.597,0.619,0.904,0.912c9.132,8.682,23.738,7.328,34.994,3.494
	c12.177-4.148,26.517-15.582,20.043-29.906c-0.236-0.523,0.257-0.986,0.904-1.213c0.747-0.262,1.701-0.211,1.994,0.438
	c1.277,2.826,1.772,5.572,1.649,8.199c0.869-4.746,5.063-8.998,7.613-12.867c-5.813-4.779-8.105-12.984-7.923-20.639
	c-3.837,3.828-8.352,7.348-9.451,12.637c-0.144,0.689-0.248,1.398-0.266,2.154c-0.183,7.934-3.843,12.777-7.807,19.313
	c-0.249,0.41-1.113,0.688-1.818,0.711c-3.343,5-9.261,8.307-14.705,10.389c-7.783,2.975-16.073,5.201-24.396,6.201
	C296.873,276.334,296.293,276.385,295.714,276.442z M313.701,285.797c4.021,1.537,8.599,2.043,13.142,1.986
	c0.009-0.891,0.016-1.779,0.019-2.664c0.005-1.031,2.9-1.533,2.898-0.777c-0.004,1.105-0.015,2.221-0.028,3.34
	c2.877-0.174,5.686-0.535,8.266-0.961c6.09-1.006,12.033-2.711,17.601-5.219c-0.197-0.055-0.271-0.166-0.118-0.354
	c5.337-6.539,0.484-13.793,0.555-21.111c-1.557,10.527-12.874,18.887-22.783,22.264
	C327.256,284.342,320.373,285.848,313.701,285.797z M467.389,284.811c-6.938,11.604-21.701,20.785-32.434,24.465
	c-8.753,3.002-18.312,7.418-27.862,7.779c4.57,3.209,9.154,4.873,13.99,5.059c0.631-0.359,1.502-0.438,1.91,0.002
	c2.938-0.119,5.979-0.76,9.175-1.926c5.066-1.85,9.891-4.063,14.543-6.822C455.386,308.223,472.958,297.055,467.389,284.811z
	 M380.588,302.547c4.508,5.219,10.48,9.066,17.083,11.078c9.837,3,19.654-0.117,29.035-3.475
	c10.798-3.863,20.651-7.994,29.189-15.945c7.498-6.984,14.533-16.438,11.758-27.043c-0.023-0.043-0.052-0.086-0.067-0.137
	c-1.34-4.023-3.188-7.891-5.855-11.215c-14.887-18.559-45.223-22.27-66.274-12.904C373.984,252.459,364.654,284.1,380.588,302.547z
	 M372.182,248.481c-2.322,0.02-4.624-0.551-6.661-1.764c-3.604,5.191-7.635,9.959-6.244,16.848
	c1.199,5.936,3.038,11.215-0.417,16.355c3.938-2.064,7.65-4.572,11.043-7.572c0.058-0.051,0.119-0.094,0.184-0.133
	c0.325-1.66,0.766-3.305,1.337-4.922c1.097-3.104,2.605-6.291,4.456-9.348c-0.674,0.289-1.563,0.355-1.991-0.072
	C371.187,255.182,373.515,251.641,372.182,248.481z M379.549,242.256c-0.046,0.016-0.087,0.027-0.133,0.043
	c-0.828,0.26-1.737,0.508-2.652,0.654c-1.414,0.223-2.844,0.189-4.021-0.504c-3.331-1.961-4.404-5.883-5.352-9.406
	c-2.156-8.031-2.779-17.713,1.096-25.322c-0.01,0-0.02,0-0.029,0c-0.271,0.016-0.448,0-0.565-0.033
	c-7.141-1.49-8.984,11.504-9.027,16.146c-0.063,6.725,1.332,14.904,6.529,19.705c0.328,0.305,0.688,0.598,1.061,0.883
	c0.337,0.012,0.549,0.072,0.479,0.184c-0.025,0.041-0.054,0.08-0.08,0.123c1.771,1.271,3.918,2.246,5.983,2.389
	c0.519-0.221,1.178-0.285,1.649-0.088c1.596-0.287,3.061-1.195,4.153-3.049C378.97,243.42,379.269,242.842,379.549,242.256z
	 M371.895,207.956c-0.151,0.424-0.694,0.738-1.286,0.838c-2.354,5.734-2.359,12.48-1.392,18.512
	c0.794,4.941,2.636,16.582,10.092,14.139c0.202-0.064,0.434-0.107,0.661-0.133c1.424-3.342,2.122-7.004,2.39-10.607
	C382.998,222.108,381.297,209.85,371.895,207.956z M279.185,209.622c2.56,4.057,6.875,10.061,12.473,8.26
	c3.948-1.271,7.119-4.371,9.977-7.254c4.896-4.936,9.634-11.107,16.578-13.168c14.199-4.215,20.811,9.609,17.261,21.426
	c0.021,0.031,0.034,0.064,0.045,0.102c5.485-3.748,10.585-8.074,16.396-11.346c4.213-2.371,9.318-4.98,14.308-4.559
	c-12.181-20.117-37.701-34.289-60.307-22.328C294.792,186.639,284.768,197.336,279.185,209.622z M327.139,224.729
	c0.327-0.225,0.653-0.451,0.967-0.689c1.706-1.301,3.208-2.822,4.405-4.641c1.985-6.148,1.625-14.52-3.459-18.771
	c-7.924-6.627-16.669,1.98-22.05,7.549c-4.454,4.607-9.219,10.002-15.707,11.559c-5.832,1.398-10.251-2.523-13.434-6.926
	c-3.337,8.715-4.401,18.064-2.047,26.971c0.069,0.262,0.021,0.502-0.104,0.709c11.291-0.227,22.329-4.92,32.934-8.326
	C314.588,230.252,321.715,228.458,327.139,224.729z M265.99,246.319c2.007,0.502,4.118,0.619,6.181,0.539
	c11.541-0.455,23.242-3.416,34.086-7.281c5.02-1.789,9.829-4.271,14.951-5.764c2.151-0.627,4.69-1.23,6.83-0.201
	c3.419,1.645,5.236,5.771,6.913,8.936c1.785,3.371,4.515,7.439,3.958,11.488c1.236-1.855,2.388-3.764,3.078-5.801
	c1.219-3.59,0.59-7.293,1.564-10.836c1.864-6.77,8.21-10.311,12.335-15.58c0.056-0.07,0.138-0.135,0.23-0.195
	c0.124-1.059,0.285-2.098,0.502-3.098c1.313-6.07,4.959-12.252,11.42-12.219c-0.142-0.271-0.288-0.539-0.435-0.809
	c-6.503-2.449-14.123,3.076-19.235,6.59c-4.805,3.299-9.335,7.063-14.32,10.088c-0.043,0.025-0.084,0.055-0.127,0.08
	c-0.034,0.021-0.078,0.029-0.115,0.049c-0.244,0.127-0.521,0.229-0.815,0.275c-5.554,5.869-14.106,8.416-21.622,10.807
	c-12.569,4-25.439,9.59-38.853,9.148c-1.674-0.055-0.748-1.545,0.411-1.953c-0.003-0.01-0.009-0.018-0.011-0.027
	c-0.215-0.814-0.398-1.637-0.558-2.463C268.189,239.829,266.303,242.792,265.99,246.319z M282.91,273.565
	c0.589,0.316,1.224,0.563,1.878,0.779l17.101-31.354c-4.605,1.447-9.281,2.68-14.004,3.656l-10.43,22.672
	C279.354,271.182,281.245,272.67,282.91,273.565z M267.414,331.229c7.248,4.746,15.744,3.934,23.425,0.658
	c0.555-0.236,1.143-0.176,1.546,0.031c-1.313-10.016-0.802-20.18,1.96-30.398c0.372-1.373,4.114-15.756,8.126-17.609
	c-3.233-1.188-6.218-3-8.793-5.582c-0.022-0.002-0.046,0-0.069-0.004c-19.218-2.896-33.793,14.867-34.489,32.959
	C258.837,318.651,260.843,326.928,267.414,331.229z M276.413,348.038c5.327,0.793,14.574,0.387,18.409-4.17
	c-0.977-3.563-1.735-7.148-2.26-10.756c-0.125,0.102-0.283,0.197-0.493,0.287c-7.751,3.307-17.42,4.961-25.124,0.506
	c-0.213-0.123-0.41-0.262-0.616-0.391C265.55,340.625,268.417,346.848,276.413,348.038z M190.915,375.426
	c1.742,4.004,3.953,8.279,7.24,11.248c0.754,0.682,2.649,2.314,3.167,1.623c1.215-1.623,1.412-3.887,1.58-5.836
	c0.013-0.145,0.125-0.281,0.3-0.406c-1.338-2.02-2.256-4.484-2.781-6.877c-1.153-5.258-1.899-11.961-0.067-17.414
	c-0.574,0.232-1.235,0.385-1.548,0.283c-4.74-1.541-10.012-2.053-10.64,4.123C187.709,366.655,189.144,371.356,190.915,375.426z
	 M187.824,389.016c0.17-0.447,0.996-0.822,1.728-0.896c1.302-0.914,2.31-2.254,1.946-3.488c-0.082-0.277,0.16-0.547,0.533-0.758
	c-1.563-2.309-2.799-4.881-3.751-7.066c-1.368-3.145-2.947-7.232-3.181-11.131c-0.523,0.174-1.076,0.25-1.36,0.117
	c-6.988-3.307-7.593,9.143-6.547,13.178c0.749,2.891,2.059,5.811,4.431,7.742c1.338,1.088,2.827,2.021,4.513,2.469
	C186.594,389.303,187.192,389.229,187.824,389.016z M316.961,376.993c-7.903-5.939-14.855-13.105-18.567-22.455
	c-1.193-3.012-2.234-6.045-3.127-9.094c-4.893,3.314-12.762,4.256-17.909,3.994c-1.919-0.096-3.657-0.396-5.21-0.879
	c-1.909,9.465-5.069,18.975,0.749,27.275c0.939-0.057,1.886-0.059,2.839,0.01c10.124,0.711,17.581,7.779,23.632,15.34
	c0.966,1.207-1.778,2.389-2.645,1.305c-5.635-7.039-13.36-14.83-23.138-14.438c-0.582,0.582-1.854,0.842-2.469,0.227
	c-5.354,0.771-10.286,3.09-15.303,5.084c-0.421,0.168-0.846,0.158-1.207,0.045c-2.359,4.146-5.213,8.018-8.392,11.523
	c-0.543,0.6-3.403,0.885-2.663,0.068c5.957-6.57,11.025-14.58,13.32-23.219c1.878-7.066,2.914-17.99-2.767-23.877
	c-6.299-6.523-13.331,19.252-13.134,23.889c0.042,0.979-2.866,1.514-2.897,0.777c-0.153-3.602,0.564-7.451,1.759-11.127
	c-0.227-0.035-0.389-0.117-0.418-0.266c-1.941-9.727-8.051-19.416-14.753-26.549c-3.743-3.982-8.208-8.063-13.501-9.82
	c-6.412-2.133-14.865-0.029-17.568,6.969c-3.728,9.652,15.187,13.188,21.029,16.086c10.226,5.074,13.62,13.336,16.299,23.93
	c0.187,0.738-2.716,1.496-2.897,0.777c-1.646-6.512-3.38-13.91-8.537-18.645c-1-0.916-2.055-1.727-3.151-2.457
	c-0.543,0.207-1.137,0.332-1.438,0.232c-13.474-4.426-13.678,13.111-11.754,21.879c0.875,3.992,4.949,15.871,11.125,10.393
	c5.299-4.703,6.374-12.613,4.374-19.109c-0.248-0.805,2.638-1.621,2.897-0.775c2.279,7.398,0.341,19.367-8.318,21.975
	c-3.253,0.979-5.861,0.188-7.879-1.543c-0.87,3.381-3.007,6.822-7.097,5.066c-1.574-0.676-2.97-1.795-4.208-3.146
	c-0.61,1.102-1.736,2.078-3.044,2.834c3.427,8.357,17.294,21.59,26.613,16.488c-0.545-0.998,2.171-1.912,2.711-1.094
	c0.03,0.047,0.065,0.09,0.096,0.135c0.696,0.035,1.163,0.26,0.528,0.738c3.839,5.076,10.412,7.9,16.328,9.656
	c8.728,2.592,17.937,3.648,27.03,3.289c18.936-0.75,39.579-7.482,48.221-25.713c-0.226-0.041-0.346-0.123-0.271-0.254
	c1.49-2.641,2.762-5.441,3.618-8.357c0.603-2.045,1.476-4.551,0.836-6.678C316.648,377.317,316.762,377.147,316.961,376.993z
	 M402.579,390.512c-0.415,0.117-0.815,0.166-1.052,0.08c-18.563-6.715-38.553-13.027-53.84-26.047
	c-10.187,3.529-24.157-0.127-29.56-9.934c-5.291-9.605-1.634-24.592,7.521-30.984c-0.207-0.092-0.21-0.252,0.186-0.502
	c0.507-0.324,1.025-0.631,1.55-0.932c-1.075-10.604-0.708-21.639-0.566-32.389c-6.295,0.131-12.715-0.65-18.055-3.572
	c-0.431-0.236-0.491-0.539-0.339-0.83c-1.303-0.191-2.585-0.457-3.837-0.807c-0.241,0.637-1.956,1.227-2.561,0.832
	c0.885,0.576,1.467,0.176,1.598,0.061c-0.063,0.068-0.247,0.291-0.583,0.848c-0.335,0.557-0.665,1.113-0.96,1.693
	c-1.143,2.232-2.129,4.553-2.945,6.924c-2.244,6.521-3.776,13.338-4.317,20.223c-0.718,9.145,0.024,18.898,2.491,28.076
	c0.251,0.004,0.407,0.029,0.373,0.07c-0.083,0.1-0.184,0.188-0.271,0.285c1.427,5.207,3.404,10.225,6.002,14.828
	c5.538,9.82,14.906,17.215,24.412,22.975c3.741,2.268,7.579,4.393,11.547,6.242c1.24,0.578,2.486,1.154,3.76,1.662
	c0.114,0.045,0.27,0.088,0.431,0.129c0.106,0.014,0.208,0.033,0.293,0.07c0.004,0.002,0.007,0.004,0.012,0.006
	c0.299,0.072,0.534,0.139,0.466,0.199c0.067,0.029,0.137,0.059,0.205,0.088c0.191,0.027,0.319,0.092,0.402,0.172
	C363.45,397.926,383.989,397.284,402.579,390.512z M488.357,329.969c-6.947-10.566-13.301-21.445-20.094-32.139
	c-5.667,8.188-17.608,14.932-23.99,18.246c-4.897,2.543-10.094,4.813-15.411,6.342c-1.735,0.5-3.445,0.834-5.13,1.014
	c5.704,10.834,13.142,20.527,20.83,30.021c0.023,0.027,0.034,0.057,0.054,0.086c0.256,0.031,0.479,0.121,0.627,0.285
	c0.015,0.016,0.021,0.033,0.035,0.049c8.562,0.805,18.541-0.818,26.101-4.633c6.182-3.117,16.918-10.49,16.624-18.512
	C487.992,330.422,488.135,330.168,488.357,329.969z" fill="#5980e3"></path>
</svg>
