<svg version="1.1" id="color_x5F_1" xmlns="http://www.w3.org/2000/svg" xmlns:xlink="http://www.w3.org/1999/xlink" x="0px" y="0px" width="600px" height="600px" viewBox="0 0 600 600" enable-background="new 0 0 600 600" xml:space="preserve">
<path id="color_x5F_10" fill="#FFFFFF" d="M331.9,280.296l1.209,4.233c-0.201,0.302-0.403,0.605-0.604,0.806l0,0
	c-0.907,1.109-2.117,2.117-3.528,3.024l0,0c-0.302,0.202-0.705,0.403-1.108,0.604c0,0,0,0-0.101,0
	c-0.303,0.202-0.706,0.403-1.008,0.504c-0.101,0-0.101,0-0.202,0.101c-0.302,0.101-0.705,0.302-1.008,0.403
	c-0.101,0-0.201,0.101-0.201,0.101c-0.303,0.101-0.604,0.202-0.907,0.302c-0.101,0-0.201,0.101-0.303,0.101
	c-0.302,0.101-0.604,0.201-0.806,0.302c-0.101,0-0.303,0.101-0.403,0.101c-0.303,0.101-0.504,0.101-0.807,0.202
	c-0.201,0-0.302,0.101-0.504,0.101c-0.201,0-0.504,0.101-0.705,0.101c-0.202,0-0.403,0.101-0.504,0.101
	c-0.202,0-0.403,0.101-0.706,0.101c-0.201,0-0.403,0-0.604,0.101c-0.201,0-0.403,0-0.604,0c-0.202,0-0.303,0-0.504,0
	c-0.202,0-0.504,0-0.706,0c-0.101,0-0.302,0-0.403,0c-0.402,0-0.705-0.101-1.008-0.101c-0.504-0.101-1.108-0.202-1.612-0.403
	c-0.101,0-0.303-0.101-0.403-0.101c-0.403-0.101-0.806-0.202-1.311-0.403c-0.101-0.101-0.302-0.101-0.504-0.202
	c-0.402-0.101-0.806-0.302-1.209-0.504c-0.101-0.101-0.303-0.101-0.403-0.202c-0.403-0.201-0.907-0.403-1.311-0.604
	c-0.101-0.101-0.201-0.101-0.402-0.202c-0.504-0.202-0.907-0.403-1.311-0.706c-0.101,0-0.202-0.101-0.303-0.202
	c-0.504-0.302-1.008-0.504-1.41-0.806c-0.102,0-0.102-0.101-0.202-0.101c-0.504-0.302-1.008-0.604-1.512-0.907c0,0,0,0-0.101,0
	c-3.729-2.318-7.056-5.04-9.172-6.854l0,0c-0.101-0.101-0.101-0.101-0.202-0.202c-0.202-0.201-0.403-0.403-0.604-0.604l0,0
	c-0.303-0.202-0.504-0.504-0.706-0.706l2.016-4.032l0,0c1.613,1.411,3.931,3.427,6.653,5.543l0,0
	c0.201,0.202,0.504,0.302,0.705,0.504c0.101,0,0.101,0.101,0.201,0.101c0.303,0.202,0.605,0.504,1.008,0.706
	c0.202,0.101,0.303,0.202,0.504,0.302c0.102,0.101,0.303,0.202,0.403,0.302c0.202,0.101,0.403,0.302,0.604,0.403
	c0.102,0.101,0.202,0.202,0.303,0.202c0.201,0.101,0.403,0.302,0.604,0.403c0.102,0.101,0.202,0.101,0.303,0.202
	c0.604,0.403,1.311,0.807,1.915,1.209c0.101,0,0.101,0.101,0.201,0.101c0.303,0.202,0.504,0.302,0.807,0.504
	c0.101,0,0.101,0.101,0.201,0.101c0.303,0.202,0.605,0.302,0.907,0.504h0.101c0.605,0.303,1.311,0.605,1.915,0.907
	c0.102,0,0.102,0,0.202,0.101c0.303,0.101,0.504,0.202,0.807,0.303c0.101,0,0.101,0,0.201,0.101
	c0.303,0.101,0.604,0.202,0.907,0.302l0,0c0.302,0.101,0.604,0.202,0.907,0.202h0.101c0.201,0.101,0.504,0.101,0.705,0.101
	c0.102,0,0.102,0,0.202,0c0.201,0,0.403,0.101,0.604,0.101c0.101,0,0.101,0,0.202,0c0.302,0,0.504,0,0.806,0
	C326.356,287.149,331.9,280.296,331.9,280.296z M265.177,228.994c-9.272-6.047-31.245-18.041-60.675-18.041
	c-39.409,0-63.9,4.636-84.865-16.328v19.15c16.731,20.158,50.193,16.328,84.865,16.328c15.824,0,29.833,5.04,40.417,10.482
	c12.599,6.551,20.46,13.708,20.46,13.708l-3.427-10.18l5.946,2.217l-4.334-12.196l6.451-1.814
	C270.015,232.421,268.302,231.11,265.177,228.994z M238.669,308.013c0.101,0,0.101,0.101,0.202,0.101
	c2.016,1.008,5.04,1.008,6.955-0.101c1.008-0.604,1.411-1.31,1.411-2.016c0,0,0,0,0-0.101c-0.101-1.814-2.621-3.226-5.141-3.226
	c-2.52,0-4.938,1.31-4.938,3.226c0,0.705,0.403,1.41,1.31,2.016C238.569,307.912,238.669,308.013,238.669,308.013z M307.609,432.387
	c-4.637,0-9.272,2.521-9.373,5.947c-0.101,1.31,0.706,2.721,2.419,3.83c0.101,0.101,0.302,0.201,0.403,0.201
	c0.101,0.101,0.303,0.201,0.402,0.303c3.73,1.915,9.475,1.813,13.002-0.202c1.814-1.108,2.822-2.52,2.722-3.931v-0.101
	C317.084,435.008,312.347,432.387,307.609,432.387z M248.144,340.971c-6.148,3.125-10.28,4.637-12.901,5.342l0,0
	c-0.202,0-0.302,0.102-0.504,0.102s-0.302,0.1-0.504,0.1c0.101,0.404,0.706,3.227,0.806,5.645l0,0c0,0.202,0,0.403,0,0.605
	c0,0.101,0,0.101,0,0.201c0,0.201,0,0.303,0,0.504c0,0.102,0,0.201,0,0.303c0,0.101,0,0.201,0,0.402c0,0.102,0,0.202,0,0.303
	c0,0.102,0,0.201-0.101,0.303c0,0.101,0,0.201-0.101,0.303c0,0.1-0.101,0.201-0.101,0.302s-0.101,0.202-0.101,0.202
	c-0.101,0.201-0.202,0.302-0.303,0.402c-0.403,0.403-1.008,1.008-1.713,1.714c-0.202,0.201-0.403,0.403-0.504,0.604l18.949-3.931
	l0,0c0.403-1.21,0.705-2.419,0.907-3.628C252.377,347.119,250.059,343.391,248.144,340.971L248.144,340.971z M202.688,368.89
	c-2.52,0-4.938,1.31-5.039,3.226c0,0.705,0.403,1.41,1.31,2.016c0.101,0,0.101,0.101,0.202,0.101s0.202,0.101,0.202,0.101
	c2.016,1.008,5.04,1.008,6.954-0.101c1.008-0.504,1.512-1.31,1.512-2.016c0,0,0,0,0-0.101
	C207.626,370.301,205.106,368.89,202.688,368.89z M226.776,199.664l5.947-3.427l9.071-5.241l12.8-7.357
	c3.729-2.117,6.753-8.063,6.753-13.103c0-0.403,0-0.706,0-1.008c0-0.101,0-0.202,0-0.302c0-0.202-0.101-0.403-0.101-0.604
	c0-0.101,0-0.202-0.101-0.303c0-0.201-0.101-0.403-0.101-0.504c0-0.101-0.101-0.202-0.101-0.302
	c-0.101-0.202-0.201-0.403-0.201-0.605c0-0.101-0.101-0.201-0.101-0.302c-0.101-0.202-0.202-0.302-0.302-0.504
	c-0.101-0.101-0.101-0.202-0.202-0.302c-0.101-0.101-0.101-0.202-0.202-0.302c-0.101-0.101-0.202-0.202-0.302-0.303
	c-0.101-0.101-0.101-0.101-0.202-0.202c-0.101-0.101-0.202-0.201-0.302-0.201l0,0c-1.109-0.605-2.621-0.504-4.233,0.403
	c-1.209,0.706-2.419,1.814-3.427,3.226c-1.209-4.939-4.938-6.854-9.374-4.233c-5.039,2.923-9.272,10.583-9.776,17.638
	c-2.117,1.512-3.83,4.435-4.435,7.458c-0.303,0.101-0.504,0.202-0.807,0.403c-2.016,1.108-3.729,4.334-3.729,7.156
	c0,1.411,0.403,2.419,1.108,2.923C224.861,200.269,225.769,200.269,226.776,199.664z M308.113,333.412
	c0.102,0,0.102,0.101,0.202,0.101c1.411,0.706,3.628,0.706,5.039-0.101c0.706-0.403,1.008-0.907,1.008-1.512c0,0,0,0,0-0.102
	c-0.101-1.311-1.915-2.318-3.729-2.318c-1.814,0-3.629,0.908-3.629,2.318c0,0.504,0.303,1.008,0.907,1.411
	C308.013,333.311,308.113,333.311,308.113,333.412z M150.479,345.809c-3.628,0-7.257,1.915-7.357,4.737
	c0,1.008,0.605,2.116,1.915,3.024c0.101,0.1,0.202,0.1,0.302,0.201c0.101,0.101,0.202,0.101,0.403,0.201
	c2.923,1.512,7.458,1.411,10.18-0.201c1.411-0.807,2.117-1.915,2.117-3.023v-0.102C157.937,347.724,154.208,345.809,150.479,345.809
	z M122.258,380.077c-2.621,0-5.241,1.411-5.241,3.427c0,0.807,0.403,1.512,1.311,2.117c0.101,0,0.101,0.101,0.201,0.101
	c0.101,0,0.101,0.101,0.202,0.101c2.117,1.109,5.342,1.008,7.358-0.101c1.008-0.604,1.612-1.411,1.512-2.116v-0.102
	C127.6,381.488,124.979,380.077,122.258,380.077z M402.554,296.321c2.821,4.334,3.023,10.985,3.023,10.985l-12.699,1.513l8.869,6.35
	l-8.869,4.636c0,0,37.997,7.861,48.883,22.98c10.885,15.118,0.604,38.3,0.604,38.3s26.104-20.562,21.367-43.642
	C458.895,314.161,402.554,296.321,402.554,296.321z M486.31,353.166c-2.621,0-5.241,1.412-5.342,3.428
	c0,0.705,0.403,1.512,1.311,2.116c0.101,0,0.101,0.101,0.201,0.101s0.201,0.102,0.201,0.102c2.117,1.107,5.342,1.008,7.358-0.102
	c1.008-0.604,1.512-1.411,1.512-2.217c0,0,0,0,0-0.102C491.551,354.578,488.93,353.166,486.31,353.166z M506.064,173.66
	c0,0.202,0,0.504,0,0.807c0,0.201,0,0.504,0,0.706c0,0.302,0,0.504,0,0.806c0,0.202,0,0.504,0,0.706s0,0.504,0,0.706
	c0,0.302,0,0.504-0.101,0.706c0,0.302,0,0.504-0.102,0.706c0,0.302,0,0.504-0.101,0.705c0,0.202-0.101,0.504-0.101,0.706
	c0,0.201-0.101,0.504-0.101,0.705c0,0.202-0.102,0.504-0.102,0.706s-0.101,0.504-0.101,0.706s-0.101,0.504-0.101,0.706
	c-0.101,0.403-0.201,0.907-0.303,1.31c-0.101,0.202-0.101,0.403-0.201,0.706c0,0.201-0.101,0.403-0.201,0.604
	c-0.102,0.202-0.102,0.403-0.202,0.604c-0.101,0.202-0.101,0.403-0.201,0.605c-0.102,0.202-0.102,0.403-0.202,0.605l0,0
	c-0.101,0.201-0.201,0.403-0.201,0.504c-0.101,0.201-0.202,0.403-0.202,0.604c-0.101,0.202-0.201,0.302-0.302,0.504
	s-0.202,0.303-0.202,0.504c-0.101,0.202-0.201,0.303-0.302,0.504c-0.202,0.303-0.403,0.605-0.605,0.907
	c-0.101,0.202-0.201,0.302-0.302,0.504c-0.101,0.101-0.202,0.302-0.303,0.403c-0.101,0.101-0.201,0.302-0.302,0.403
	c-0.102,0.101-0.202,0.302-0.303,0.403c-0.101,0.101-0.201,0.202-0.303,0.403c-0.101,0.101-0.201,0.302-0.302,0.403
	c-0.101,0.101-0.202,0.303-0.303,0.403c-0.101,0.101-0.201,0.202-0.403,0.302c-0.101,0.101-0.201,0.202-0.302,0.303
	c-0.101,0.101-0.202,0.202-0.403,0.302c-0.101,0.101-0.201,0.202-0.403,0.302c-0.101,0.101-0.302,0.202-0.403,0.302
	c-0.101,0.101-0.302,0.202-0.403,0.202c-0.101,0.101-0.201,0.202-0.402,0.302c-0.102,0.101-0.303,0.101-0.403,0.202
	c-0.101,0.101-0.303,0.202-0.403,0.202s-0.303,0.101-0.403,0.202s-0.302,0.101-0.403,0.202c-0.101,0.101-0.302,0.101-0.403,0.202
	l0,0c-0.101,0.101-0.302,0.101-0.402,0.101c-4.536,1.411-9.979-0.101-15.119-4.737c-0.402-0.403-0.806-0.706-1.209-1.109
	s-0.807-0.806-1.21-1.311c-9.877-10.986-14.815-30.438-11.087-44.448c1.915-7.257,5.846-11.692,10.685-12.901
	c0.201-0.101,0.302-0.101,0.504-0.101c0.101,0,0.302,0,0.402-0.101c0.202,0,0.303-0.101,0.504-0.101c0.102,0,0.303,0,0.505-0.101
	c0.101,0,0.302,0,0.402,0c0.202,0,0.303,0,0.504,0c0.202,0,0.303,0,0.504,0c0.202,0,0.303,0,0.504,0c0.102,0,0.303,0,0.504,0
	c0.202,0,0.303,0,0.505,0.101c0.201,0,0.302,0,0.504,0.101c0.201,0,0.302,0.101,0.504,0.101c0.201,0,0.302,0.101,0.504,0.101
	c0.201,0,0.302,0.101,0.504,0.101c0.201,0,0.302,0.101,0.504,0.101c0.101,0.101,0.302,0.101,0.504,0.202
	c0.201,0.101,0.302,0.101,0.504,0.202c0.201,0.101,0.302,0.101,0.504,0.202c0.201,0.101,0.302,0.101,0.504,0.201
	c0.201,0.101,0.303,0.101,0.504,0.202c0.201,0.101,0.303,0.202,0.504,0.302c0.201,0.101,0.303,0.202,0.504,0.303
	c0.201,0.101,0.303,0.201,0.504,0.302c0.202,0.101,0.303,0.202,0.504,0.302c0.202,0.101,0.303,0.202,0.504,0.303
	c0.202,0.101,0.303,0.302,0.504,0.403c0.202,0.101,0.303,0.302,0.504,0.403c0.202,0.101,0.303,0.302,0.504,0.403
	c0.202,0.101,0.303,0.303,0.504,0.403c0.202,0.101,0.303,0.302,0.504,0.403c0.202,0.201,0.303,0.302,0.504,0.504
	c0.202,0.202,0.303,0.302,0.504,0.504c0.202,0.202,0.303,0.302,0.505,0.504c0.201,0.202,0.302,0.302,0.504,0.504
	c0.201,0.202,0.302,0.403,0.504,0.504c0.101,0.202,0.302,0.403,0.504,0.504c0.101,0.202,0.302,0.403,0.402,0.605
	c0.202,0.202,0.303,0.403,0.504,0.604c0.202,0.202,0.303,0.403,0.403,0.605c0.202,0.202,0.303,0.403,0.403,0.604
	c0.202,0.202,0.303,0.403,0.403,0.605c0.201,0.202,0.303,0.403,0.403,0.604s0.302,0.403,0.403,0.605
	c0.101,0.202,0.302,0.403,0.402,0.604c0.102,0.202,0.303,0.403,0.403,0.605l0,0l0,0c0.102,0.202,0.202,0.403,0.403,0.604
	c0.101,0.202,0.202,0.403,0.403,0.706l0,0c0.101,0.202,0.303,0.403,0.403,0.605s0.201,0.504,0.403,0.706
	c0.101,0.201,0.201,0.403,0.302,0.706c0.101,0.202,0.202,0.504,0.403,0.706c0.101,0.201,0.201,0.504,0.303,0.705
	c0.101,0.202,0.201,0.504,0.302,0.706s0.202,0.504,0.303,0.706c0.101,0.202,0.201,0.504,0.302,0.706l0,0l0,0
	c0.102,0.202,0.202,0.504,0.303,0.706c0.101,0.302,0.202,0.504,0.303,0.706c0.101,0.302,0.201,0.504,0.302,0.706
	c0.102,0.302,0.202,0.504,0.303,0.806c0.101,0.202,0.201,0.504,0.303,0.706c0.101,0.303,0.101,0.504,0.201,0.807
	c0.101,0.201,0.201,0.504,0.201,0.705c0.102,0.303,0.102,0.504,0.202,0.807c0.101,0.302,0.101,0.504,0.201,0.806
	c0.102,0.302,0.102,0.504,0.202,0.806c0.101,0.303,0.101,0.504,0.201,0.807c0.101,0.302,0.101,0.504,0.202,0.806
	c0.101,0.302,0.101,0.504,0.201,0.806c0.101,0.303,0.101,0.504,0.201,0.807c0,0.302,0.102,0.504,0.102,0.806
	c0.101,0.202,0.101,0.504,0.101,0.806l0,0c0,0.202,0.101,0.504,0.101,0.706c0,0.302,0.101,0.504,0.101,0.806
	s0.101,0.504,0.101,0.806c0,0.202,0,0.504,0.102,0.807c0,0.201,0.101,0.504,0.101,0.806s0,0.504,0.101,0.806
	c0,0.302,0,0.504,0,0.807c0,0.302,0,0.504,0.101,0.806c0,0.302,0,0.504,0,0.806C506.064,173.156,506.064,173.459,506.064,173.66z
	 M497.296,170.133c0-0.202,0-0.303,0-0.504c0-0.101,0-0.303,0-0.403s0-0.302,0-0.403c0-0.201,0-0.302,0-0.403
	c0-0.202,0-0.302,0-0.504c0-0.101,0-0.303,0-0.403c0-0.202-0.102-0.302-0.102-0.504c0-0.101,0-0.302-0.101-0.403
	c0-0.101,0-0.302-0.101-0.403c0-0.202,0-0.303-0.101-0.403l0,0c0-0.101-0.101-0.302-0.101-0.403c0-0.201-0.102-0.302-0.102-0.504
	c0-0.101-0.101-0.302-0.101-0.403c0-0.201-0.101-0.302-0.101-0.403c0-0.202-0.101-0.302-0.101-0.504
	c0-0.101-0.102-0.302-0.102-0.403c0-0.101-0.101-0.302-0.101-0.403c0-0.202-0.101-0.303-0.101-0.504
	c0-0.101-0.101-0.303-0.101-0.403c0-0.101-0.101-0.303-0.101-0.403s-0.102-0.302-0.102-0.403c-0.101-0.101-0.101-0.302-0.201-0.403
	c0-0.101-0.101-0.302-0.101-0.403c-0.101-0.101-0.101-0.302-0.202-0.403c-0.101-0.101-0.101-0.303-0.201-0.403
	c-0.101-0.101-0.101-0.302-0.202-0.403l0,0c-0.101-0.101-0.101-0.302-0.201-0.403c-0.101-0.201-0.101-0.302-0.201-0.403
	c0-0.101-0.102-0.302-0.202-0.403c-0.101-0.101-0.101-0.302-0.201-0.403c-0.102-0.101-0.102-0.303-0.202-0.403
	s-0.101-0.302-0.201-0.403c-0.101-0.101-0.101-0.302-0.202-0.403c-0.101-0.101-0.101-0.202-0.201-0.403l0,0
	c-0.101-0.101-0.101-0.202-0.201-0.403c-0.102-0.101-0.102-0.202-0.202-0.403l0,0c-0.101-0.101-0.101-0.202-0.201-0.403
	c-0.101-0.101-0.101-0.202-0.202-0.302c-0.101-0.101-0.101-0.302-0.201-0.403c-0.101-0.101-0.202-0.202-0.202-0.403
	c-0.101-0.101-0.201-0.201-0.201-0.302c-0.101-0.101-0.201-0.202-0.303-0.403c-0.101-0.101-0.201-0.201-0.302-0.302
	c-0.101-0.101-0.202-0.202-0.303-0.302s-0.201-0.202-0.201-0.302c-0.102-0.101-0.202-0.202-0.303-0.302
	c-0.101-0.101-0.201-0.202-0.303-0.303c-0.101-0.101-0.201-0.202-0.302-0.302c-0.101-0.101-0.202-0.202-0.303-0.302
	c-0.101-0.101-0.201-0.202-0.302-0.303c-0.102-0.101-0.202-0.201-0.303-0.302c-0.101-0.101-0.201-0.202-0.303-0.202l0,0
	c-0.101-0.101-0.201-0.201-0.302-0.201c-0.101-0.101-0.202-0.202-0.303-0.202c-0.101-0.101-0.201-0.101-0.302-0.202
	c-0.102-0.101-0.202-0.101-0.303-0.202c-0.101-0.101-0.201-0.101-0.303-0.202c-0.101-0.101-0.201-0.101-0.302-0.202
	c-0.101-0.101-0.202-0.101-0.303-0.202c-0.101-0.101-0.201-0.101-0.302-0.201c-0.102-0.101-0.202-0.101-0.303-0.202
	c-0.101,0-0.201-0.101-0.303-0.101c-0.101,0-0.201-0.101-0.302-0.101c-0.102,0-0.202-0.101-0.303-0.101s-0.201-0.101-0.303-0.101
	c-0.101,0-0.201-0.101-0.302-0.101s-0.202-0.101-0.303-0.101s-0.201,0-0.302-0.101c-0.102,0-0.202-0.101-0.303-0.101
	s-0.201,0-0.303-0.101c-0.101,0-0.201,0-0.302,0s-0.202,0-0.303,0s-0.201,0-0.302,0c-0.102,0-0.202,0-0.303,0s-0.201,0-0.303,0
	c-0.101,0-0.201,0-0.302,0c-0.102,0-0.202,0-0.303,0s-0.201,0-0.303,0c-0.101,0-0.201,0-0.302,0s-0.202,0-0.303,0.101
	c-0.101,0-0.201,0-0.201,0.101c-2.822,0.706-5.04,3.225-6.148,7.458c-2.116,8.063,0.706,19.25,6.45,25.701
	c0.202,0.302,0.504,0.504,0.706,0.806c0.201,0.202,0.403,0.403,0.705,0.605c3.024,2.721,6.148,3.528,8.77,2.721l0,0
	c0.101,0,0.101-0.101,0.201-0.101l0,0c0.101,0,0.101-0.101,0.201-0.101c0.102,0,0.102-0.101,0.202-0.101s0.101-0.101,0.201-0.101
	c0.102-0.101,0.102-0.101,0.202-0.101s0.101-0.101,0.201-0.101s0.202-0.101,0.202-0.101c0.101,0,0.101-0.101,0.201-0.101
	c0.101-0.101,0.101-0.101,0.201-0.202c0.102-0.101,0.102-0.101,0.202-0.202c0.101-0.101,0.201-0.101,0.201-0.202l0,0
	c0.101,0,0.101-0.101,0.202-0.201c0.101-0.101,0.101-0.101,0.201-0.202c0.101-0.101,0.101-0.101,0.202-0.202
	c0.101-0.101,0.101-0.101,0.201-0.202c0.101-0.101,0.101-0.202,0.201-0.202c0.102-0.101,0.102-0.202,0.202-0.202
	c0-0.101,0.101-0.202,0.201-0.202c0.102-0.101,0.102-0.201,0.202-0.302c0.101-0.101,0.101-0.202,0.201-0.302
	c0.101-0.202,0.202-0.403,0.303-0.504c0-0.101,0.101-0.202,0.101-0.302c0.101-0.101,0.101-0.202,0.201-0.303
	c0-0.101,0.102-0.202,0.102-0.302c0.101-0.101,0.101-0.202,0.101-0.302c0.101-0.101,0.101-0.202,0.101-0.302
	c0.101-0.101,0.101-0.202,0.101-0.303c0-0.101,0.101-0.201,0.101-0.302c0-0.101,0.102-0.202,0.102-0.403
	c0-0.101,0.101-0.201,0.101-0.403c0.101-0.101,0.101-0.202,0.101-0.403c0.101-0.202,0.101-0.504,0.202-0.806
	c0-0.101,0.101-0.302,0.101-0.403c0-0.101,0-0.302,0.101-0.403c0-0.101,0.101-0.303,0.101-0.403c0-0.101,0-0.303,0.101-0.403
	c0-0.101,0-0.302,0.102-0.403c0-0.201,0-0.302,0-0.403c0-0.101,0-0.302,0-0.403c0-0.101,0-0.302,0-0.403c0-0.202,0-0.303,0-0.403
	c0-0.202,0-0.302,0-0.403c0-0.101,0-0.302,0-0.403c0-0.101,0-0.302,0-0.403C497.296,170.435,497.296,170.334,497.296,170.133z
	 M516.345,318.898c-2.016,0-3.931,1.008-4.031,2.52l0,0c0,0.604,0.302,1.108,1.008,1.612c0,0,0.101,0.101,0.201,0.101
	c0.101,0.102,0.101,0.102,0.202,0.102c1.612,0.806,4.031,0.806,5.543-0.102c0.807-0.504,1.21-1.008,1.21-1.612c0,0,0,0,0-0.101
	C520.275,319.906,518.26,318.898,516.345,318.898z M522.493,180.413c0,0.504,0,0.907,0,1.411s0,0.907,0,1.411
	c0,0.403,0,0.907,0,1.31c0,0.504,0,0.907-0.101,1.411c0,0.403,0,0.907-0.102,1.311c0,0.504-0.101,0.907-0.101,1.31
	s-0.101,0.907-0.101,1.311c0,0.403-0.101,0.907-0.101,1.31s-0.101,0.806-0.202,1.31c-0.101,0.403-0.101,0.907-0.201,1.311
	c-0.101,0.403-0.101,0.806-0.201,1.31c-0.102,0.403-0.202,0.807-0.202,1.209c-0.101,0.403-0.201,0.807-0.302,1.311
	c-0.202,0.806-0.403,1.612-0.605,2.52c-0.101,0.403-0.201,0.806-0.302,1.109c-0.101,0.403-0.202,0.806-0.303,1.108
	c-0.101,0.403-0.201,0.706-0.403,1.109c-0.101,0.403-0.201,0.706-0.403,1.108c-0.101,0.403-0.201,0.706-0.403,1.008l0,0l0,0
	c-0.101,0.302-0.302,0.706-0.402,1.008c-0.102,0.302-0.303,0.604-0.403,1.008c-0.101,0.302-0.303,0.605-0.403,1.008
	c-0.202,0.302-0.303,0.605-0.504,0.907c-0.202,0.302-0.303,0.604-0.504,0.907c-0.303,0.604-0.706,1.209-1.008,1.713
	c-0.202,0.302-0.403,0.604-0.504,0.806c-0.202,0.302-0.403,0.504-0.504,0.806c-0.202,0.303-0.403,0.504-0.605,0.807
	c-0.201,0.202-0.402,0.504-0.604,0.706c-0.201,0.202-0.403,0.504-0.604,0.706c-0.202,0.201-0.403,0.504-0.604,0.705
	c-0.202,0.202-0.403,0.403-0.605,0.605c-0.201,0.202-0.402,0.403-0.604,0.605c-0.201,0.201-0.403,0.403-0.604,0.604l0,0
	c-0.202,0.202-0.403,0.403-0.604,0.504c-0.202,0.202-0.403,0.403-0.605,0.504c-0.201,0.202-0.504,0.302-0.705,0.504
	c-0.202,0.202-0.403,0.303-0.706,0.504c-0.201,0.202-0.504,0.303-0.705,0.403c-0.202,0.101-0.504,0.302-0.706,0.403
	c-0.201,0.101-0.504,0.302-0.705,0.403c-0.201,0.101-0.504,0.202-0.705,0.403c-0.202,0.101-0.505,0.202-0.706,0.302
	c-0.201,0.101-0.504,0.202-0.705,0.303l0,0c-0.202,0.101-0.505,0.201-0.706,0.201l0,0l0,0c-8.164,2.52-17.84-0.101-27.213-8.567
	c-0.706-0.605-1.411-1.311-2.117-2.016c-0.705-0.806-1.512-1.512-2.217-2.318c-17.84-19.755-26.811-54.729-20.058-79.825
	c3.528-13.103,10.583-20.964,19.15-23.182c0.303-0.101,0.504-0.101,0.807-0.202c0.302-0.101,0.504-0.101,0.806-0.202
	c0.303,0,0.605-0.101,0.807-0.101c0.303,0,0.504-0.101,0.807-0.101c0.302,0,0.504-0.101,0.806-0.101c0.303,0,0.504,0,0.807,0
	c0.302,0,0.604,0,0.807,0c0.302,0,0.604,0,0.906,0.101c0.303,0,0.605,0,0.807,0.101c0.303,0,0.604,0.101,0.907,0.101
	s0.604,0.101,0.907,0.202c0.302,0,0.604,0.101,0.907,0.202c0.302,0.101,0.604,0.101,0.907,0.202
	c0.302,0.101,0.604,0.201,0.906,0.201c0.303,0.101,0.605,0.202,0.907,0.303c0.303,0.101,0.605,0.201,0.907,0.302
	c0.303,0.101,0.604,0.202,0.907,0.403c0.303,0.101,0.604,0.202,0.907,0.403c0.302,0.101,0.604,0.303,0.907,0.403
	c0.302,0.202,0.604,0.302,0.907,0.504c0.302,0.202,0.604,0.302,0.906,0.504l0,0c0.303,0.202,0.605,0.302,0.907,0.504
	c0.303,0.202,0.605,0.403,0.907,0.605c0.303,0.202,0.604,0.403,0.907,0.604s0.604,0.403,0.907,0.605s0.604,0.403,0.907,0.706
	c0.302,0.202,0.604,0.504,0.907,0.706c0.302,0.201,0.604,0.504,0.907,0.705c0.302,0.202,0.604,0.504,0.906,0.706l0,0
	c0.303,0.202,0.605,0.504,0.907,0.807c0.303,0.302,0.605,0.504,0.907,0.806l0,0c0.303,0.302,0.604,0.605,0.907,0.907
	s0.604,0.604,0.907,0.907c0.303,0.302,0.604,0.604,0.907,0.907c0.302,0.303,0.604,0.605,0.806,0.907
	c0.303,0.302,0.605,0.706,0.807,1.008c0.303,0.302,0.604,0.706,0.807,1.008c0.302,0.302,0.604,0.705,0.806,1.008
	c0.303,0.302,0.504,0.705,0.807,1.008c0.303,0.403,0.504,0.706,0.807,1.108c0.302,0.403,0.504,0.706,0.806,1.109
	c0.303,0.403,0.504,0.706,0.807,1.109c0.201,0.403,0.504,0.806,0.705,1.108c0.202,0.403,0.505,0.807,0.706,1.109
	c0.201,0.403,0.504,0.706,0.705,1.108l0,0l0,0c0.202,0.403,0.403,0.807,0.706,1.109c0.201,0.403,0.403,0.806,0.705,1.209l0,0
	c0.202,0.403,0.403,0.806,0.605,1.209c0.201,0.403,0.402,0.806,0.604,1.209c0.201,0.403,0.403,0.806,0.604,1.209
	c0.202,0.403,0.403,0.806,0.604,1.31c0.202,0.403,0.403,0.807,0.605,1.311c0.201,0.403,0.403,0.806,0.604,1.31
	c0.201,0.403,0.403,0.907,0.504,1.311c0.201,0.403,0.403,0.806,0.504,1.209l0,0v0.101c0.201,0.403,0.403,0.806,0.504,1.31
	s0.303,0.907,0.504,1.311c0.202,0.403,0.303,0.907,0.504,1.31c0.101,0.403,0.303,0.907,0.504,1.311
	c0.101,0.403,0.303,0.907,0.403,1.31c0.202,0.504,0.303,0.907,0.403,1.411c0.201,0.504,0.303,0.907,0.403,1.411
	c0.101,0.403,0.302,0.907,0.403,1.411c0.101,0.403,0.302,0.907,0.402,1.411c0.102,0.403,0.303,0.907,0.403,1.411
	c0.102,0.504,0.202,0.907,0.403,1.411c0.101,0.504,0.202,0.907,0.303,1.411s0.201,0.907,0.302,1.411
	c0.102,0.504,0.202,0.907,0.303,1.411l0,0c0.101,0.504,0.202,0.907,0.303,1.411s0.201,0.907,0.201,1.411V166
	c0.101,0.403,0.101,0.907,0.202,1.31c0.101,0.504,0.101,0.907,0.201,1.411s0.101,0.907,0.201,1.411c0,0.504,0.102,0.907,0.202,1.411
	c0,0.504,0.101,0.907,0.101,1.411c0,0.504,0.101,0.907,0.101,1.411c0.101,0.504,0.101,0.907,0.101,1.411s0,0.907,0.102,1.411
	c0,0.504,0,0.907,0.101,1.411C522.493,179.506,522.493,180.01,522.493,180.413z M514.833,178.397c0-0.403,0-0.706,0-1.109
	c0-0.403,0-0.706,0-1.108c0-0.403,0-0.706,0-1.109s0-0.706-0.101-1.108c0-0.403,0-0.706-0.102-1.109
	c0-0.403-0.101-0.706-0.101-1.109c0-0.403-0.101-0.705-0.101-1.108c-0.101-0.403-0.101-0.706-0.101-1.109
	c-0.101-0.403-0.101-0.706-0.202-1.108c0-0.403-0.101-0.706-0.201-1.109c0-0.403-0.101-0.706-0.201-1.109l0,0l0,0
	c-0.102-0.403-0.102-0.706-0.202-1.108c-0.101-0.403-0.101-0.706-0.201-1.109l0,0c-0.102-0.403-0.102-0.706-0.202-1.108
	c-0.101-0.403-0.101-0.706-0.201-1.109s-0.202-0.706-0.303-1.109c-0.101-0.403-0.201-0.705-0.302-1.108
	c-0.102-0.403-0.202-0.706-0.303-1.109c-0.101-0.302-0.202-0.706-0.303-1.108c-0.101-0.403-0.201-0.706-0.302-1.109
	c-0.102-0.302-0.202-0.706-0.303-1.109c-0.101-0.403-0.201-0.706-0.303-1.108c-0.101-0.403-0.201-0.706-0.402-1.109
	c-0.102-0.302-0.202-0.706-0.403-1.108c-0.101-0.303-0.303-0.706-0.403-1.008c-0.101-0.403-0.303-0.706-0.403-1.008
	s-0.302-0.706-0.403-1.008l0,0l0,0c-0.101-0.302-0.302-0.706-0.402-1.008c-0.202-0.302-0.303-0.706-0.505-1.008
	c-0.101-0.302-0.302-0.706-0.504-1.008c-0.101-0.303-0.302-0.706-0.504-1.008c-0.101-0.302-0.302-0.705-0.504-1.008
	c-0.201-0.302-0.302-0.604-0.504-1.008c-0.201-0.302-0.302-0.604-0.504-1.008c-0.201-0.302-0.403-0.605-0.504-0.907l0,0
	c-0.201-0.302-0.403-0.604-0.504-0.907c-0.201-0.302-0.403-0.604-0.504-0.907l0,0l0,0c-0.201-0.302-0.403-0.605-0.504-0.907
	c-0.201-0.302-0.403-0.605-0.604-0.907c-0.202-0.302-0.403-0.604-0.604-0.907c-0.202-0.303-0.403-0.605-0.605-0.907
	c-0.201-0.303-0.403-0.605-0.604-0.907s-0.403-0.504-0.604-0.806c-0.202-0.303-0.403-0.504-0.604-0.807
	c-0.202-0.302-0.403-0.504-0.605-0.806c-0.201-0.302-0.403-0.504-0.705-0.806c-0.202-0.303-0.403-0.504-0.706-0.807
	c-0.201-0.202-0.402-0.504-0.705-0.706c-0.202-0.302-0.504-0.504-0.706-0.705c-0.201-0.202-0.504-0.504-0.705-0.706
	c-0.201-0.201-0.504-0.403-0.706-0.705c-0.201-0.202-0.504-0.504-0.705-0.706s-0.504-0.403-0.705-0.605l0,0
	c-0.202-0.202-0.505-0.403-0.706-0.604c-0.201-0.202-0.504-0.403-0.705-0.605c-0.202-0.202-0.504-0.403-0.706-0.504
	c-0.201-0.202-0.504-0.403-0.705-0.504c-0.202-0.202-0.504-0.302-0.706-0.504c-0.302-0.101-0.504-0.302-0.705-0.504
	c-0.202-0.101-0.504-0.302-0.706-0.403c-0.201-0.101-0.504-0.302-0.705-0.403c-0.202-0.101-0.504-0.303-0.706-0.403
	c-0.201-0.101-0.504-0.202-0.705-0.302c-0.202-0.101-0.504-0.202-0.706-0.303c-0.201-0.101-0.504-0.202-0.705-0.302
	c-0.202-0.101-0.504-0.202-0.706-0.302c-0.201-0.101-0.504-0.202-0.705-0.202c-0.201-0.101-0.504-0.101-0.706-0.202
	c-0.201-0.101-0.504-0.101-0.705-0.202c-0.201-0.101-0.504-0.101-0.706-0.201c-0.201-0.101-0.504-0.101-0.705-0.202
	c-0.201,0-0.403-0.101-0.705-0.101c-0.202,0-0.504-0.101-0.706-0.101c-0.201,0-0.403-0.101-0.705-0.101c-0.202,0-0.403,0-0.706,0
	c-0.201,0-0.504,0-0.705,0c-0.202,0-0.504,0-0.706,0c-0.201,0-0.403,0-0.705,0c-0.202,0-0.403,0.101-0.605,0.101
	c-0.201,0-0.402,0-0.705,0.101c-0.201,0-0.403,0.101-0.604,0.101c-0.202,0.101-0.403,0.101-0.605,0.202
	c-6.854,1.713-12.396,8.063-15.219,18.343c-5.342,19.856,1.714,47.573,15.925,63.195c0.604,0.604,1.108,1.209,1.713,1.814
	c0.505,0.504,1.109,1.109,1.613,1.613c7.458,6.652,15.018,8.769,21.568,6.753l0,0c0.202-0.101,0.403-0.101,0.504-0.202l0,0
	c0.202-0.101,0.403-0.101,0.605-0.202c0.201-0.101,0.403-0.202,0.604-0.302s0.403-0.202,0.604-0.302
	c0.202-0.101,0.403-0.202,0.604-0.302c0.202-0.101,0.403-0.202,0.505-0.303c0.201-0.101,0.402-0.202,0.604-0.403
	c0.201-0.101,0.403-0.202,0.504-0.303c0.201-0.101,0.403-0.302,0.504-0.403c0.201-0.101,0.303-0.303,0.504-0.403
	c0.201-0.202,0.303-0.302,0.504-0.403l0,0c0.201-0.101,0.303-0.302,0.504-0.403c0.201-0.202,0.303-0.302,0.504-0.504
	s0.303-0.303,0.504-0.504c0.202-0.202,0.303-0.303,0.504-0.504c0.202-0.201,0.303-0.302,0.504-0.504
	c0.202-0.201,0.303-0.403,0.504-0.604c0.101-0.202,0.303-0.403,0.403-0.605c0.101-0.201,0.303-0.403,0.403-0.604
	s0.303-0.403,0.403-0.605c0.302-0.403,0.504-0.907,0.806-1.31c0.102-0.202,0.303-0.504,0.403-0.706s0.303-0.504,0.403-0.706
	s0.201-0.504,0.403-0.706c0.101-0.302,0.201-0.504,0.302-0.806c0.102-0.302,0.202-0.504,0.303-0.806l0,0
	c0.101-0.303,0.201-0.504,0.303-0.807c0.101-0.302,0.201-0.604,0.302-0.806c0.101-0.302,0.202-0.605,0.303-0.907
	s0.201-0.604,0.302-0.907c0.102-0.302,0.202-0.604,0.202-0.907c0.201-0.605,0.303-1.311,0.504-1.915
	c0.101-0.303,0.101-0.605,0.201-1.008c0.102-0.303,0.102-0.706,0.202-1.008c0.101-0.302,0.101-0.706,0.201-1.008
	c0.102-0.302,0.102-0.706,0.202-1.008c0-0.302,0.101-0.706,0.101-1.008c0-0.403,0.101-0.706,0.101-1.008
	c0-0.403,0.101-0.706,0.101-1.008c0-0.403,0.102-0.705,0.102-1.108c0-0.302,0-0.706,0-1.008c0-0.403,0-0.706,0.101-1.109
	c0-0.403,0-0.706,0-1.109C514.833,179.103,514.833,178.7,514.833,178.397z M319.805,395.095c-2.52,0-4.938,1.311-5.039,3.226
	c0,0.705,0.403,1.411,1.311,2.016c0.101,0.101,0.101,0.101,0.201,0.101c0.101,0.101,0.202,0.101,0.202,0.101
	c2.016,1.009,5.039,1.009,6.954-0.101c1.008-0.604,1.512-1.31,1.512-2.016c0,0,0,0,0-0.101
	C324.845,396.506,322.325,395.095,319.805,395.095z M333.009,122.258c0-0.403-0.101-0.706-0.202-1.008
	c0-0.202-0.101-0.303-0.101-0.504c-0.101-0.303-0.201-0.605-0.201-0.907c0-0.101-0.101-0.303-0.101-0.403
	c-0.102-0.403-0.303-0.706-0.505-1.108c0,0,0-0.101-0.101-0.101c-0.201-0.302-0.403-0.604-0.604-0.907
	c-0.101-0.101-0.201-0.202-0.201-0.302c-0.102-0.202-0.303-0.302-0.403-0.504c-0.102-0.101-0.202-0.202-0.303-0.302
	c-0.201-0.101-0.303-0.302-0.504-0.403c-0.101-0.101-0.201-0.101-0.303-0.202c-0.302-0.202-0.504-0.302-0.806-0.403
	c-1.613-0.604-3.629-0.302-5.745,0.907c-1.915,1.109-3.729,2.822-5.241,4.939c-1.814-7.559-7.56-10.482-14.413-6.551
	c-7.761,4.535-14.11,16.227-14.917,27.112c-3.226,2.419-5.846,6.954-6.854,11.591c-0.403,0.101-0.806,0.302-1.209,0.504
	c-3.125,1.814-5.645,6.753-5.645,10.986c0,2.117,0.605,3.729,1.613,4.536c0,0,0,0,0.101,0c0.101,0.101,0.302,0.202,0.504,0.302
	c1.008,0.504,2.217,0.403,3.528-0.403l9.071-5.241l13.91-8.063l19.653-11.389c5.645-3.326,10.28-12.296,10.28-20.158
	c0-0.604,0-1.108-0.101-1.613C333.109,122.56,333.009,122.459,333.009,122.258z M373.123,352.36c-2.016,0.706-5.04,1.008-7.56,1.008
	c0.403,0.403,0.807,0.907,1.108,1.31c0,0,0,0,0.102,0.102c0.402,0.402,0.705,0.807,1.108,1.209c0.101,0.102,0.101,0.202,0.201,0.202
	c0.303,0.403,0.706,0.705,1.008,1.008c0.102,0.101,0.102,0.101,0.202,0.202c0.504,0.504,1.008,1.008,1.512,1.512
	c0.201,0.201,0.403,0.402,0.604,0.604c0.202,0.202,0.403,0.303,0.605,0.504c0.201,0.202,0.402,0.404,0.705,0.605
	c0.201,0.201,0.303,0.303,0.504,0.504s0.504,0.403,0.706,0.604c0.201,0.101,0.302,0.303,0.504,0.403
	c0.302,0.201,0.504,0.403,0.705,0.605c0.101,0.1,0.201,0.201,0.303,0.302c0.604,0.504,1.209,0.907,1.813,1.21l0,0
	c0.202,0.1,0.303,0.201,0.504,0.302l0,0c0.102,0,0.102,0.101,0.202,0.101c0.201,0.102,0.302,0.201,0.504,0.201
	c0.101,0,0.201,0.102,0.303,0.102c0.101,0,0.101,0.101,0.201,0.101s0.201,0.101,0.303,0.101h0.101c0.101,0,0.201,0,0.201,0.102l0,0
	c0.101,0,0.202,0,0.303,0s0.201,0,0.302,0c0.102,0,0.102,0,0.202,0s0.101,0,0.201,0c0.202,0,0.303,0,0.504-0.102
	c2.923-1.008,3.931-4.636,3.931-4.636s-3.124-6.351-6.954-14.413C377.558,347.522,376.449,351.15,373.123,352.36z M397.11,254.594
	c0-0.101,0-0.101,0-0.202c-0.201-4.132-5.644-7.055-11.188-7.055c-5.342,0-10.684,2.923-10.885,7.055
	c0,1.512,0.907,3.125,2.822,4.435c0.201,0.101,0.302,0.202,0.504,0.302c0.201,0.101,0.302,0.202,0.504,0.302
	c4.334,2.217,10.985,2.117,15.118-0.202C396.103,257.92,397.11,256.308,397.11,254.594z"></path>
<path id="color_x5F_9" fill="#FD6322" d="M538.216,186.864c0-0.706,0-1.31,0-2.016c0-0.605-0.101-1.311-0.101-1.915
	c0-0.706-0.101-1.311-0.101-2.016c-0.101-1.31-0.202-2.721-0.303-4.031c0-0.706-0.101-1.311-0.201-2.016s-0.101-1.31-0.202-2.016
	c-0.201-1.31-0.302-2.721-0.504-4.032c-0.201-1.31-0.402-2.721-0.705-4.031c-0.202-1.311-0.504-2.722-0.807-4.032
	c-0.302-1.31-0.604-2.621-0.907-4.032c-0.302-1.31-0.705-2.62-1.008-3.931c-0.302-1.31-0.705-2.621-1.108-3.931
	c-0.201-0.605-0.403-1.311-0.604-1.915c-0.202-0.604-0.403-1.311-0.604-1.915c-0.202-0.604-0.403-1.31-0.706-1.915
	c-0.201-0.604-0.403-1.31-0.705-1.915c-0.504-1.31-0.907-2.621-1.411-3.83c-0.202-0.604-0.504-1.31-0.807-1.915l0,0
	c-0.201-0.604-0.504-1.209-0.705-1.814c-0.505-1.209-1.109-2.52-1.613-3.729c-0.604-1.21-1.108-2.419-1.713-3.629
	c-0.605-1.209-1.21-2.419-1.814-3.527c-0.604-1.209-1.21-2.318-1.915-3.427c-0.604-1.109-1.311-2.318-2.016-3.427
	c-0.303-0.504-0.706-1.109-1.008-1.613c-0.303-0.504-0.706-1.109-1.008-1.613c-0.706-1.108-1.411-2.116-2.218-3.125
	c-0.705-1.008-1.512-2.016-2.318-3.023c-0.806-1.008-1.512-1.915-2.419-2.923c-0.806-0.907-1.612-1.814-2.419-2.822
	c-0.806-0.907-1.713-1.814-2.52-2.621c-0.403-0.403-0.807-0.806-1.311-1.209l0,0c-0.403-0.403-0.907-0.806-1.31-1.209
	c-0.907-0.806-1.714-1.512-2.621-2.217c-0.403-0.403-0.806-0.706-1.311-1.008c-0.402-0.302-0.906-0.706-1.31-1.008
	c-0.907-0.605-1.714-1.209-2.621-1.814c-0.907-0.604-1.713-1.108-2.62-1.613c-0.403-0.302-0.907-0.504-1.311-0.705l0,0
	c-0.403-0.202-0.907-0.504-1.31-0.706c-0.403-0.202-0.907-0.403-1.311-0.605c-0.202-0.101-0.303-0.101-0.504-0.202
	c-0.303-0.101-0.604-0.302-0.907-0.403c-0.403-0.202-0.807-0.403-1.311-0.504c-0.403-0.202-0.806-0.403-1.31-0.504
	c-0.807-0.303-1.714-0.605-2.521-0.807c-0.907-0.302-1.713-0.504-2.52-0.706c-0.403-0.101-0.807-0.202-1.311-0.202
	c-0.402-0.101-0.806-0.201-1.209-0.201c-0.403-0.101-0.807-0.101-1.21-0.202c-0.402,0-0.806-0.101-1.209-0.101
	s-0.807-0.101-1.21-0.101c-0.101,0-0.101,0-0.201,0c-0.303,0-0.706,0-1.008,0c-0.807,0-1.612,0-2.419,0.101
	c-0.807,0.101-1.512,0.202-2.419,0.303c-0.807,0.101-1.512,0.302-2.318,0.504c-12.296,3.225-22.274,14.413-27.313,32.958
	c-9.575,35.68,3.124,85.369,28.523,113.59c1.008,1.108,2.016,2.217,3.124,3.326c1.008,1.008,2.016,1.915,3.023,2.822
	c13.305,11.994,27.112,15.824,38.703,12.196l0,0l0,0c0.303-0.101,0.706-0.202,1.008-0.302l0,0c0.303-0.101,0.706-0.303,1.008-0.403
	c0.403-0.101,0.706-0.302,1.009-0.403c0.402-0.202,0.705-0.302,1.008-0.504c0.705-0.302,1.411-0.706,2.016-1.108
	c0.201-0.101,0.403-0.303,0.705-0.403c0.102-0.101,0.202-0.101,0.303-0.202c0.303-0.202,0.705-0.403,1.008-0.706
	c0.705-0.403,1.311-0.907,1.915-1.411s1.21-1.008,1.814-1.612c0.302-0.303,0.604-0.605,0.907-0.907
	c0.302-0.302,0.604-0.605,0.907-0.907c0.604-0.604,1.108-1.31,1.713-1.915c0.504-0.706,1.108-1.411,1.612-2.117
	c0.303-0.403,0.504-0.705,0.807-1.108s0.504-0.806,0.807-1.209c0.504-0.806,1.008-1.613,1.411-2.419
	c0.201-0.403,0.403-0.907,0.705-1.31c0.202-0.403,0.403-0.907,0.706-1.311c0.402-0.907,0.806-1.814,1.209-2.822
	c0.403-1.008,0.807-1.915,1.108-3.023c0.202-0.504,0.403-1.008,0.504-1.512c0.202-0.504,0.403-1.008,0.505-1.613
	c0.302-1.008,0.604-2.117,0.906-3.225c0.303-1.209,0.605-2.318,0.807-3.528c0.303-1.209,0.504-2.419,0.705-3.628
	c0.202-1.209,0.403-2.419,0.605-3.729c0.101-0.605,0.201-1.209,0.201-1.814c0.101-0.604,0.101-1.209,0.202-1.814
	c0.101-1.311,0.201-2.52,0.302-3.83c0.101-1.311,0.101-2.621,0.202-3.83c0-1.311,0.101-2.621,0.101-3.931
	C538.216,188.174,538.216,187.469,538.216,186.864z M522.493,181.824c0,0.504,0,0.907,0,1.411c0,0.403,0,0.907,0,1.31
	c0,0.504,0,0.907-0.101,1.411c0,0.403,0,0.907-0.102,1.311c0,0.504-0.101,0.907-0.101,1.31s-0.101,0.907-0.101,1.311
	c0,0.403-0.101,0.907-0.101,1.31s-0.101,0.806-0.202,1.31c-0.101,0.403-0.101,0.907-0.201,1.311
	c-0.101,0.403-0.101,0.806-0.201,1.31c-0.102,0.403-0.202,0.807-0.202,1.209c-0.101,0.403-0.201,0.807-0.302,1.311
	c-0.202,0.806-0.403,1.612-0.605,2.52c-0.101,0.403-0.201,0.806-0.302,1.109c-0.101,0.403-0.202,0.806-0.303,1.108
	c-0.101,0.403-0.201,0.706-0.403,1.109c-0.101,0.403-0.201,0.706-0.403,1.108c-0.101,0.403-0.201,0.706-0.403,1.008l0,0l0,0
	c-0.101,0.302-0.302,0.706-0.402,1.008c-0.102,0.302-0.303,0.604-0.403,1.008c-0.101,0.302-0.303,0.605-0.403,1.008
	c-0.202,0.302-0.303,0.605-0.504,0.907c-0.202,0.302-0.303,0.604-0.504,0.907c-0.303,0.604-0.706,1.209-1.008,1.713
	c-0.202,0.302-0.403,0.604-0.504,0.806c-0.202,0.302-0.403,0.504-0.504,0.806c-0.202,0.303-0.403,0.504-0.605,0.807
	c-0.201,0.202-0.402,0.504-0.604,0.706c-0.201,0.202-0.403,0.504-0.604,0.706c-0.202,0.201-0.403,0.504-0.604,0.705
	c-0.202,0.202-0.403,0.403-0.605,0.605c-0.201,0.202-0.402,0.403-0.604,0.605c-0.201,0.201-0.403,0.403-0.604,0.604l0,0
	c-0.202,0.202-0.403,0.403-0.604,0.504c-0.202,0.202-0.403,0.403-0.605,0.504c-0.201,0.202-0.504,0.302-0.705,0.504
	c-0.202,0.202-0.403,0.303-0.706,0.504c-0.201,0.202-0.504,0.303-0.705,0.403c-0.202,0.101-0.504,0.302-0.706,0.403
	c-0.201,0.101-0.504,0.302-0.705,0.403c-0.201,0.101-0.504,0.202-0.705,0.403c-0.202,0.101-0.505,0.202-0.706,0.302
	c-0.201,0.101-0.504,0.202-0.705,0.303l0,0c-0.202,0.101-0.505,0.201-0.706,0.302l0,0c-8.164,2.52-17.84-0.101-27.213-8.567
	c-0.706-0.604-1.411-1.31-2.117-2.016c-0.705-0.806-1.512-1.512-2.217-2.318c-17.84-19.754-26.811-54.729-20.058-79.825
	c3.528-13.103,10.583-20.964,19.15-23.182c0.303-0.101,0.504-0.101,0.807-0.202c0.302-0.101,0.504-0.101,0.806-0.201
	c0.303,0,0.605-0.101,0.807-0.101c0.303,0,0.504-0.101,0.807-0.101c0.302,0,0.504-0.101,0.806-0.101c0.303,0,0.504,0,0.807,0
	c0.302,0,0.604,0,0.807,0c0.302,0,0.604,0,0.906,0.101c0.303,0,0.605,0,0.807,0.101c0.303,0,0.604,0.101,0.907,0.101
	s0.604,0.101,0.907,0.201c0.302,0,0.604,0.101,0.907,0.202c0.302,0.101,0.604,0.101,0.907,0.202
	c0.302,0.101,0.604,0.202,0.906,0.202c0.303,0.101,0.605,0.202,0.907,0.302c0.303,0.101,0.605,0.202,0.907,0.302
	c0.303,0.101,0.604,0.202,0.907,0.403c0.303,0.101,0.604,0.202,0.907,0.403c0.302,0.101,0.604,0.302,0.907,0.403
	c0.302,0.202,0.604,0.303,0.907,0.504c0.302,0.202,0.604,0.303,0.906,0.504l0,0c0.303,0.201,0.605,0.302,0.907,0.504
	c0.303,0.202,0.605,0.403,0.907,0.604c0.303,0.202,0.604,0.403,0.907,0.605c0.303,0.201,0.604,0.403,0.907,0.604
	s0.604,0.403,0.907,0.706c0.302,0.202,0.604,0.504,0.907,0.706c0.302,0.202,0.604,0.504,0.907,0.706
	c0.302,0.202,0.604,0.504,0.906,0.706l0,0c0.303,0.302,0.605,0.504,0.907,0.806c0.303,0.302,0.605,0.504,0.907,0.806l0,0
	c0.303,0.303,0.604,0.605,0.907,0.907c0.303,0.303,0.604,0.605,0.907,0.907s0.604,0.604,0.907,0.907
	c0.302,0.302,0.604,0.604,0.806,0.907c0.303,0.302,0.605,0.705,0.807,1.008c0.303,0.302,0.604,0.706,0.807,1.008
	c0.302,0.302,0.604,0.706,0.806,1.008c0.303,0.302,0.504,0.706,0.807,1.008c0.303,0.403,0.504,0.706,0.807,1.109
	c0.302,0.403,0.504,0.706,0.806,1.108c0.303,0.403,0.504,0.706,0.807,1.109c0.201,0.403,0.504,0.806,0.705,1.108
	c0.202,0.403,0.505,0.807,0.706,1.109c0.201,0.403,0.504,0.706,0.705,1.109l0,0l0,0c0.202,0.403,0.403,0.806,0.706,1.108
	c0.201,0.403,0.403,0.807,0.705,1.209l0,0c0.202,0.403,0.403,0.807,0.605,1.209c0.201,0.403,0.402,0.807,0.604,1.209
	c0.201,0.403,0.403,0.807,0.604,1.209c0.202,0.403,0.403,0.807,0.604,1.311c0.202,0.403,0.403,0.806,0.605,1.31
	c0.201,0.403,0.403,0.806,0.604,1.311c0.201,0.403,0.403,0.907,0.504,1.31c0.201,0.403,0.403,0.806,0.504,1.209l0,0v0.101
	c0.201,0.403,0.403,0.806,0.504,1.31s0.303,0.907,0.504,1.31c0.202,0.403,0.303,0.907,0.504,1.311
	c0.101,0.403,0.303,0.907,0.504,1.31c0.101,0.403,0.303,0.907,0.403,1.311c0.202,0.504,0.303,0.907,0.403,1.411
	c0.201,0.504,0.303,0.907,0.403,1.411c0.101,0.403,0.302,0.907,0.403,1.411c0.101,0.403,0.302,0.907,0.402,1.411
	c0.102,0.403,0.303,0.907,0.403,1.411c0.102,0.504,0.202,0.907,0.403,1.411c0.101,0.504,0.202,0.907,0.303,1.411
	c0.101,0.504,0.201,0.907,0.302,1.411c0.102,0.504,0.202,0.907,0.303,1.411l0,0c0.101,0.504,0.202,0.907,0.303,1.411
	s0.201,0.907,0.201,1.411v0.101c0.101,0.403,0.101,0.907,0.202,1.31c0.101,0.504,0.101,0.907,0.201,1.411s0.101,0.907,0.201,1.411
	c0,0.504,0.102,0.907,0.202,1.411c0,0.504,0.101,0.907,0.101,1.411s0.101,0.907,0.101,1.411c0.101,0.504,0.101,0.907,0.101,1.411
	c0,0.504,0,0.907,0.102,1.411c0,0.504,0,0.907,0.101,1.411c0,0.504,0,0.907,0,1.411C522.493,180.917,522.493,181.32,522.493,181.824
	z M514.732,176.18c0-0.403,0-0.706,0-1.109s0-0.706-0.102-1.108c0-0.403,0-0.706-0.101-1.109c0-0.403-0.101-0.706-0.101-1.109
	c0-0.403-0.101-0.705-0.101-1.108c-0.101-0.403-0.101-0.706-0.101-1.109c-0.102-0.403-0.102-0.706-0.202-1.108
	c0-0.403-0.101-0.706-0.201-1.109c0-0.403-0.101-0.706-0.202-1.108l0,0l0,0c-0.101-0.403-0.101-0.706-0.201-1.109
	c-0.101-0.403-0.101-0.706-0.202-1.109l0,0c-0.101-0.403-0.101-0.706-0.201-1.108c-0.101-0.403-0.101-0.706-0.201-1.109
	c-0.102-0.403-0.202-0.706-0.303-1.109c-0.101-0.403-0.201-0.705-0.303-1.108c-0.101-0.403-0.201-0.706-0.302-1.109
	c-0.101-0.302-0.202-0.706-0.303-1.108c-0.101-0.403-0.201-0.706-0.302-1.109c-0.102-0.302-0.202-0.706-0.303-1.108
	c-0.101-0.403-0.202-0.706-0.303-1.109c-0.101-0.403-0.201-0.706-0.403-1.109c-0.101-0.302-0.201-0.706-0.402-1.108
	c-0.102-0.303-0.303-0.706-0.403-1.008c-0.101-0.403-0.303-0.706-0.403-1.008s-0.303-0.706-0.403-1.008l0,0l0,0
	c-0.101-0.302-0.302-0.706-0.403-1.008c-0.201-0.302-0.302-0.706-0.504-1.008c-0.101-0.302-0.302-0.706-0.504-1.008
	c-0.101-0.303-0.302-0.706-0.504-1.008c-0.101-0.302-0.302-0.705-0.504-1.008c-0.201-0.302-0.302-0.604-0.504-1.008
	c-0.201-0.302-0.302-0.604-0.504-1.008c-0.201-0.302-0.403-0.604-0.504-0.907l0,0c-0.201-0.302-0.403-0.604-0.504-0.907
	c-0.201-0.302-0.403-0.604-0.504-0.907l0,0l0,0c-0.201-0.302-0.403-0.605-0.504-0.907c-0.201-0.302-0.403-0.605-0.604-0.907
	c-0.202-0.302-0.403-0.604-0.605-0.907c-0.201-0.303-0.402-0.605-0.604-0.907c-0.201-0.303-0.403-0.605-0.604-0.907
	c-0.202-0.302-0.403-0.504-0.604-0.806c-0.202-0.302-0.403-0.504-0.605-0.807c-0.201-0.302-0.402-0.504-0.604-0.806
	c-0.201-0.302-0.403-0.504-0.705-0.806c-0.202-0.303-0.403-0.504-0.706-0.807c-0.201-0.202-0.403-0.504-0.705-0.706
	c-0.202-0.302-0.504-0.504-0.706-0.705c-0.201-0.202-0.504-0.504-0.705-0.706c-0.202-0.202-0.504-0.403-0.706-0.706
	c-0.201-0.202-0.504-0.504-0.705-0.706c-0.202-0.202-0.504-0.403-0.706-0.605l0,0c-0.201-0.201-0.504-0.403-0.705-0.604
	c-0.202-0.202-0.504-0.403-0.706-0.605c-0.201-0.202-0.504-0.403-0.705-0.504c-0.201-0.202-0.504-0.403-0.706-0.504
	c-0.201-0.202-0.504-0.302-0.705-0.504c-0.303-0.101-0.504-0.302-0.706-0.504c-0.201-0.101-0.504-0.302-0.705-0.403
	c-0.201-0.101-0.504-0.302-0.705-0.403c-0.202-0.101-0.504-0.303-0.706-0.403c-0.201-0.101-0.504-0.202-0.705-0.302
	c-0.202-0.101-0.504-0.202-0.706-0.303c-0.201-0.101-0.504-0.201-0.705-0.302c-0.202-0.101-0.504-0.202-0.706-0.302
	c-0.201-0.101-0.504-0.202-0.705-0.202c-0.202-0.101-0.504-0.101-0.706-0.202c-0.201-0.101-0.504-0.101-0.705-0.202
	c-0.202-0.101-0.504-0.101-0.706-0.201c-0.201-0.101-0.504-0.101-0.705-0.202c-0.202,0-0.403-0.101-0.706-0.101
	c-0.201,0-0.504-0.101-0.705-0.101c-0.202,0-0.403-0.101-0.706-0.101c-0.201,0-0.402,0-0.705,0c-0.201,0-0.504,0-0.706,0
	c-0.201,0-0.504,0-0.705,0s-0.403,0-0.705,0c-0.202,0-0.403,0.101-0.605,0.101c-0.201,0-0.403,0-0.705,0.101
	c-0.202,0-0.403,0.101-0.604,0.101c-0.202,0.101-0.403,0.101-0.605,0.202c-6.854,1.713-12.396,8.063-15.219,18.344
	c-5.342,19.855,1.713,47.572,15.925,63.195c0.604,0.604,1.108,1.209,1.713,1.814c0.504,0.504,1.109,1.109,1.613,1.613
	c7.458,6.652,15.018,8.769,21.568,6.753l0,0c0.202-0.101,0.403-0.101,0.504-0.202l0,0c0.202-0.101,0.403-0.101,0.605-0.202
	c0.201-0.101,0.402-0.202,0.604-0.302c0.201-0.101,0.403-0.202,0.604-0.302c0.201-0.101,0.403-0.202,0.604-0.302
	c0.202-0.101,0.403-0.202,0.504-0.303c0.202-0.101,0.403-0.201,0.605-0.403c0.201-0.101,0.402-0.202,0.504-0.303
	c0.201-0.101,0.403-0.302,0.504-0.403c0.201-0.101,0.302-0.303,0.504-0.403c0.201-0.202,0.302-0.302,0.504-0.403l0,0
	c0.201-0.101,0.302-0.302,0.504-0.403c0.201-0.202,0.302-0.302,0.504-0.504c0.201-0.202,0.302-0.303,0.504-0.504
	c0.201-0.202,0.303-0.303,0.504-0.504c0.201-0.201,0.303-0.302,0.504-0.504c0.201-0.201,0.303-0.403,0.504-0.604
	c0.101-0.202,0.303-0.403,0.403-0.605c0.101-0.201,0.302-0.403,0.403-0.604c0.101-0.202,0.302-0.403,0.403-0.605
	c0.302-0.403,0.504-0.907,0.806-1.31c0.101-0.202,0.303-0.504,0.403-0.706s0.303-0.504,0.403-0.706s0.201-0.504,0.403-0.706
	c0.101-0.302,0.201-0.504,0.302-0.806s0.202-0.504,0.303-0.806l0,0c0.101-0.303,0.201-0.504,0.302-0.807
	c0.102-0.302,0.202-0.604,0.303-0.806c0.101-0.302,0.202-0.605,0.303-0.907s0.201-0.604,0.302-0.907
	c0.102-0.302,0.202-0.604,0.202-0.907c0.201-0.605,0.302-1.311,0.504-1.915c0.101-0.303,0.101-0.605,0.201-1.008
	c0.101-0.303,0.101-0.706,0.202-1.008c0.101-0.302,0.101-0.706,0.201-1.008s0.101-0.706,0.202-1.008
	c0-0.302,0.101-0.706,0.101-1.008c0-0.403,0.101-0.706,0.101-1.008c0-0.403,0.101-0.706,0.101-1.008
	c0-0.403,0.101-0.705,0.101-1.108c0-0.302,0-0.706,0-1.008c0-0.403,0-0.706,0.102-1.109c0-0.403,0-0.706,0-1.109
	c0-0.403,0-0.705,0-1.108s0-0.706,0-1.109C514.732,176.886,514.732,176.583,514.732,176.18z M506.064,175.273
	c0,0.302,0,0.504,0,0.806c0,0.202,0,0.504,0,0.706s0,0.504,0,0.706c0,0.303,0,0.504-0.101,0.706c0,0.302,0,0.504-0.102,0.706
	c0,0.302,0,0.504-0.101,0.706c0,0.202-0.101,0.504-0.101,0.706s-0.101,0.504-0.101,0.706s-0.102,0.504-0.102,0.706
	c0,0.201-0.101,0.504-0.101,0.706s-0.101,0.504-0.101,0.706c-0.101,0.403-0.201,0.907-0.303,1.31
	c-0.101,0.202-0.101,0.403-0.201,0.706c0,0.202-0.101,0.403-0.201,0.604c-0.102,0.202-0.102,0.403-0.202,0.605
	s-0.101,0.403-0.201,0.604c-0.102,0.202-0.102,0.403-0.202,0.605l0,0c-0.101,0.202-0.201,0.403-0.201,0.504
	c-0.101,0.202-0.202,0.403-0.202,0.604c-0.101,0.202-0.201,0.303-0.302,0.504c-0.101,0.201-0.202,0.302-0.202,0.504
	c-0.101,0.202-0.201,0.302-0.302,0.504c-0.202,0.302-0.403,0.604-0.605,0.907c-0.101,0.202-0.201,0.303-0.302,0.504
	c-0.101,0.101-0.202,0.302-0.303,0.403c-0.101,0.101-0.201,0.303-0.302,0.403c-0.102,0.101-0.202,0.302-0.303,0.403
	c-0.101,0.101-0.201,0.201-0.303,0.403c-0.101,0.101-0.201,0.302-0.302,0.403c-0.101,0.101-0.202,0.302-0.303,0.403
	c-0.101,0.101-0.201,0.202-0.403,0.303c-0.101,0.101-0.201,0.202-0.302,0.302c-0.101,0.101-0.202,0.202-0.403,0.302
	c-0.101,0.101-0.201,0.202-0.403,0.303c-0.101,0.101-0.302,0.201-0.403,0.302c-0.101,0.101-0.302,0.202-0.403,0.202
	c-0.101,0.101-0.201,0.201-0.402,0.302c-0.102,0.101-0.303,0.101-0.403,0.202c-0.101,0.101-0.303,0.202-0.403,0.202
	s-0.303,0.101-0.403,0.201c-0.101,0.101-0.302,0.101-0.403,0.202c-0.101,0.101-0.302,0.101-0.403,0.202l0,0
	c-0.101,0.101-0.302,0.101-0.402,0.101c-4.536,1.411-9.979-0.101-15.119-4.737c-0.402-0.403-0.806-0.706-1.209-1.109
	c-0.403-0.403-0.807-0.806-1.21-1.31c-9.877-10.986-14.815-30.438-11.087-44.448c1.915-7.257,5.846-11.691,10.685-12.901
	c0.201-0.101,0.302-0.101,0.504-0.101c0.101,0,0.302,0,0.402-0.101c0.202,0,0.303-0.101,0.504-0.101c0.102,0,0.303,0,0.505-0.101
	c0.101,0,0.302,0,0.402,0c0.202,0,0.303,0,0.504,0c0.202,0,0.303,0,0.504,0c0.202,0,0.303,0,0.504,0c0.102,0,0.303,0,0.504,0
	c0.202,0,0.303,0,0.505,0.101c0.201,0,0.302,0,0.504,0.101c0.201,0,0.302,0.101,0.504,0.101c0.201,0,0.302,0.101,0.504,0.101
	c0.201,0,0.302,0.101,0.504,0.101c0.201,0,0.302,0.101,0.504,0.101c0.101,0.101,0.302,0.101,0.504,0.201
	c0.201,0.101,0.302,0.101,0.504,0.202c0.201,0.101,0.302,0.101,0.504,0.202c0.201,0.101,0.302,0.101,0.504,0.202
	c0.201,0.101,0.303,0.101,0.504,0.202c0.201,0.101,0.303,0.201,0.504,0.302c0.201,0.101,0.303,0.202,0.504,0.302
	s0.303,0.202,0.504,0.302c0.202,0.101,0.303,0.202,0.504,0.303c0.202,0.101,0.303,0.202,0.504,0.302
	c0.202,0.101,0.303,0.302,0.504,0.403c0.202,0.101,0.303,0.302,0.504,0.403c0.202,0.101,0.303,0.302,0.504,0.403
	c0.202,0.101,0.303,0.302,0.504,0.403c0.202,0.101,0.303,0.303,0.504,0.403c0.202,0.202,0.303,0.303,0.504,0.504
	c0.202,0.202,0.303,0.303,0.504,0.504c0.202,0.202,0.303,0.303,0.505,0.504c0.201,0.202,0.302,0.303,0.504,0.504
	c0.201,0.202,0.302,0.403,0.504,0.504c0.101,0.202,0.302,0.403,0.504,0.504c0.101,0.202,0.302,0.403,0.402,0.604
	c0.202,0.202,0.303,0.403,0.504,0.605c0.202,0.201,0.303,0.403,0.403,0.604c0.202,0.202,0.303,0.403,0.403,0.605
	c0.202,0.202,0.303,0.403,0.403,0.604c0.201,0.202,0.303,0.403,0.403,0.605s0.302,0.403,0.403,0.604
	c0.101,0.202,0.302,0.403,0.402,0.605c0.102,0.202,0.303,0.403,0.403,0.604l0,0l0,0c0.102,0.202,0.202,0.403,0.403,0.605
	c0.101,0.202,0.202,0.403,0.403,0.706l0,0c0.101,0.202,0.303,0.403,0.403,0.604s0.201,0.504,0.403,0.706
	c0.101,0.202,0.201,0.403,0.302,0.706c0.101,0.202,0.202,0.504,0.403,0.706c0.101,0.202,0.201,0.504,0.303,0.706
	c0.101,0.202,0.201,0.504,0.302,0.706s0.202,0.504,0.303,0.706s0.201,0.504,0.302,0.706l0,0l0,0
	c0.102,0.201,0.202,0.504,0.303,0.705c0.101,0.303,0.202,0.504,0.303,0.706c0.101,0.302,0.201,0.504,0.302,0.705
	c0.102,0.303,0.202,0.504,0.303,0.807c0.101,0.201,0.201,0.504,0.303,0.706c0.101,0.302,0.101,0.504,0.201,0.806
	c0.101,0.202,0.201,0.504,0.201,0.706c0.102,0.302,0.102,0.504,0.202,0.806c0.101,0.303,0.101,0.504,0.201,0.807
	c0.102,0.302,0.102,0.504,0.202,0.806s0.101,0.504,0.201,0.806c0.101,0.303,0.101,0.504,0.202,0.807
	c0.101,0.302,0.101,0.504,0.201,0.806s0.101,0.504,0.201,0.806c0,0.303,0.102,0.504,0.102,0.807
	c0.101,0.201,0.101,0.504,0.101,0.806l0,0c0,0.202,0.101,0.504,0.101,0.706c0,0.302,0.101,0.504,0.101,0.806
	s0.101,0.504,0.101,0.806c0,0.202,0,0.504,0.102,0.807c0,0.202,0.101,0.504,0.101,0.806s0,0.504,0.101,0.807
	c0,0.302,0,0.504,0,0.806s0,0.504,0.101,0.806c0,0.302,0,0.504,0,0.807c0,0.302,0,0.504,0,0.806c0,0.202,0,0.504,0,0.806
	C506.064,174.769,506.064,174.971,506.064,175.273z M497.296,169.629c0,0.201,0,0.302,0,0.504c0,0.101,0,0.302,0,0.403
	c0,0.101,0,0.302,0,0.403c0,0.101,0,0.302,0,0.403c0,0.101,0,0.302,0,0.403c0,0.101,0,0.303,0,0.403s0,0.302,0,0.403
	c0,0.201,0,0.302,0,0.403c0,0.101,0,0.303,0,0.403c0,0.101,0,0.302-0.102,0.403c0,0.101,0,0.302-0.101,0.403
	c0,0.101,0,0.303-0.101,0.403c0,0.101,0,0.302-0.101,0.403c0,0.101-0.101,0.302-0.101,0.403c0,0.303-0.102,0.504-0.202,0.807
	c0,0.101-0.101,0.302-0.101,0.403c0,0.101-0.101,0.303-0.101,0.403s-0.102,0.202-0.102,0.403c0,0.101-0.101,0.201-0.101,0.302
	c0,0.101-0.101,0.202-0.101,0.302s-0.101,0.202-0.101,0.302c0,0.101-0.101,0.202-0.101,0.303c0,0.101-0.102,0.202-0.102,0.302
	c-0.101,0.101-0.101,0.202-0.201,0.302c0,0.101-0.101,0.202-0.101,0.302c-0.101,0.202-0.202,0.403-0.303,0.504
	c0,0.101-0.101,0.202-0.201,0.303c-0.102,0.101-0.102,0.202-0.202,0.302c-0.101,0.101-0.101,0.101-0.201,0.202
	s-0.101,0.202-0.202,0.202c-0.101,0.101-0.101,0.101-0.201,0.202c0,0.101-0.101,0.101-0.201,0.201
	c-0.102,0.101-0.102,0.101-0.202,0.202c-0.101,0.101-0.101,0.101-0.201,0.202c-0.102,0.101-0.102,0.101-0.202,0.202l0,0
	c-0.101,0-0.101,0.101-0.201,0.202c-0.101,0.101-0.101,0.101-0.202,0.201c-0.101,0-0.101,0.101-0.201,0.202
	c-0.101,0-0.201,0.101-0.201,0.101c-0.102,0-0.102,0.101-0.202,0.101c-0.101,0.101-0.101,0.101-0.201,0.101
	c-0.102,0-0.202,0.101-0.202,0.101c-0.101,0-0.201,0.101-0.201,0.101c-0.101,0-0.202,0.101-0.202,0.101
	c-0.101,0-0.201,0.101-0.201,0.101l0,0c-0.101,0-0.101,0-0.201,0.101l0,0c-2.621,0.806-5.745,0-8.77-2.721
	c-0.201-0.202-0.504-0.403-0.705-0.605c-0.202-0.302-0.504-0.504-0.706-0.806c-5.744-6.35-8.668-17.638-6.45-25.702
	c1.108-4.233,3.427-6.753,6.148-7.458c0.101,0,0.201-0.101,0.201-0.101c0.101,0,0.202,0,0.303-0.101c0.101,0,0.201,0,0.302,0
	c0.102,0,0.202,0,0.303,0s0.201,0,0.303,0c0.101,0,0.201,0,0.302,0c0.102,0,0.202,0,0.303,0s0.201,0,0.303,0
	c0.101,0,0.201,0,0.302,0s0.202,0,0.303,0s0.201,0,0.302,0c0.102,0,0.202,0,0.303,0.101c0.101,0,0.201,0,0.303,0.101
	c0.101,0,0.201,0,0.302,0.101c0.101,0,0.202,0.101,0.303,0.101s0.201,0.101,0.302,0.101c0.102,0,0.202,0.101,0.303,0.101
	s0.201,0.101,0.303,0.101c0.101,0,0.201,0.101,0.302,0.101c0.102,0,0.202,0.101,0.303,0.101c0.101,0.101,0.201,0.101,0.303,0.201
	c0.101,0.101,0.201,0.101,0.302,0.202c0.101,0.101,0.202,0.101,0.303,0.202s0.201,0.101,0.302,0.202
	c0.102,0.101,0.202,0.101,0.303,0.202c0.101,0.101,0.201,0.101,0.303,0.201c0.101,0.101,0.201,0.202,0.302,0.202
	c0.101,0.101,0.202,0.202,0.303,0.202c0.101,0.101,0.201,0.202,0.302,0.202l0,0c0.102,0.101,0.202,0.202,0.303,0.202
	c0.101,0.101,0.201,0.202,0.303,0.302c0.101,0.101,0.201,0.202,0.302,0.302c0.101,0.101,0.202,0.202,0.303,0.303
	c0.101,0.101,0.201,0.201,0.302,0.302c0.102,0.101,0.202,0.202,0.303,0.302s0.201,0.202,0.303,0.302
	c0.101,0.101,0.201,0.202,0.201,0.302c0.101,0.101,0.202,0.202,0.303,0.303c0.101,0.101,0.201,0.202,0.302,0.302
	c0.102,0.101,0.202,0.202,0.303,0.403c0.101,0.101,0.201,0.202,0.201,0.302c0.102,0.101,0.202,0.202,0.202,0.403
	c0.101,0.101,0.201,0.201,0.201,0.403c0.101,0.101,0.202,0.202,0.202,0.302c0.101,0.101,0.201,0.303,0.201,0.403l0,0
	c0.101,0.101,0.202,0.202,0.202,0.403c0.101,0.101,0.101,0.302,0.201,0.403l0,0c0.101,0.101,0.101,0.201,0.201,0.403
	c0.102,0.101,0.102,0.302,0.202,0.403c0.101,0.101,0.101,0.302,0.201,0.403c0.101,0.101,0.101,0.303,0.202,0.403
	c0.101,0.101,0.101,0.302,0.201,0.403c0.101,0.101,0.101,0.302,0.202,0.403c0.101,0.101,0.101,0.302,0.201,0.403
	c0,0.101,0.101,0.302,0.201,0.403l0,0c0.102,0.101,0.102,0.302,0.202,0.403c0.101,0.101,0.101,0.303,0.201,0.403
	c0.101,0.202,0.101,0.302,0.202,0.403c0,0.201,0.101,0.302,0.101,0.403c0.101,0.101,0.101,0.303,0.201,0.403
	c0,0.101,0.102,0.302,0.102,0.403c0,0.202,0.101,0.302,0.101,0.403c0,0.202,0.101,0.303,0.101,0.403
	c0,0.202,0.101,0.302,0.101,0.504c0.101,0.101,0.101,0.302,0.101,0.403c0,0.101,0.102,0.302,0.102,0.403
	c0,0.202,0.101,0.303,0.101,0.504c0,0.101,0.101,0.302,0.101,0.403c0,0.101,0.101,0.302,0.101,0.403
	c0,0.202,0.101,0.302,0.101,0.504c0,0.101,0,0.302,0.102,0.403l0,0c0,0.101,0.101,0.303,0.101,0.403
	c0,0.101,0.101,0.303,0.101,0.403c0,0.202,0,0.302,0.101,0.403c0,0.201,0,0.302,0.102,0.504c0,0.101,0,0.302,0,0.403
	c0,0.202,0,0.302,0,0.504c0,0.101,0,0.302,0,0.403c0,0.101,0,0.302,0,0.403C497.296,169.427,497.296,169.528,497.296,169.629z"></path>
<path id="color_x5F_8" fill="#B6C9C0" d="M473.308,415.253v23.383c0,0-26.306-6.249-33.865-26.205
	c-1.714-4.435-2.419-9.474-1.814-15.32c0.403-3.729,1.411-7.861,3.125-12.296c-0.807,2.621-1.311,6.35,0.101,10.381
	c1.209,3.629,3.931,7.459,9.172,11.087C455.064,409.709,462.523,412.834,473.308,415.253z M319.805,110.163l-0.402-0.101
	l-0.403-0.101h-0.504h-0.403h-0.504h-0.504l-0.504,0.101l-0.504,0.101l-0.504,0.201l-0.504,0.202l-0.504,0.202l-0.504,0.303
	l-0.202,0.101l-0.201,0.101l-0.202,0.101l-0.201,0.101l-0.202,0.101l-0.201,0.101l-0.201,0.101l-0.202,0.101l-0.201,0.101
	l-0.202,0.101l-0.201,0.101l-0.202,0.202l-0.201,0.101l-0.201,0.101l-0.202,0.201l0,0l-8.365-4.838l-0.504-0.201l-0.504-0.101
	l-0.504-0.101l-0.505-0.101h-0.503h-0.604h-0.605l-0.604,0.101l-0.605,0.101l-0.604,0.101l-0.605,0.201l-0.604,0.202l-0.605,0.302
	l-0.604,0.303l-0.605,0.403l-0.706,0.403l-0.706,0.504l-0.706,0.504l-0.706,0.605l-0.706,0.604l-0.706,0.605l-0.705,0.706
	l-0.605,0.706l-0.604,0.706l-0.605,0.705l-0.604,0.807l-0.605,0.806l-0.504,0.806l-0.605,0.807l-0.504,0.907l-0.504,0.907
	l-0.504,0.907l-0.504,0.907l-0.403,0.907l-0.403,0.907l-0.403,1.008l-0.403,1.008l-0.403,1.008l-0.302,1.008l-0.303,1.008
	l-0.302,1.008l-0.202,1.008l-0.202,1.008l-0.201,1.008l-0.202,1.008l-0.101,1.008l-0.101,1.008l-0.302,0.202l-0.303,0.202
	l-0.302,0.202l-0.302,0.302l-0.302,0.302l-0.303,0.303l-0.302,0.302l-0.302,0.302l-0.302,0.302l-0.302,0.303l-0.202,0.302
	l-0.302,0.403l-0.202,0.302l-0.202,0.302l-0.202,0.403l-0.202,0.403l-0.202,0.403l-0.202,0.403l-0.202,0.403l-0.201,0.403
	l-0.202,0.403l-0.202,0.403l-0.202,0.403l-0.202,0.403l-0.101,0.403l-0.202,0.403l-0.101,0.403l-0.101,0.403l-0.101,0.403
	l-0.101,0.403l-0.101,0.403l-0.101,0.403h-0.101h-0.101h-0.101h-0.101h-0.101h-0.101h-0.101h-0.101h-0.101h-0.101h-0.101h-0.101
	h-0.101l-0.101,0.101h-0.101h-0.101l-0.302,0.202l-0.302,0.202l-0.302,0.202l-0.302,0.202l-0.303,0.202l-0.302,0.302l-0.302,0.302
	l-0.302,0.302l-0.202,0.302l-0.202,0.303l-0.202,0.302l-0.202,0.302l-0.202,0.303l-0.202,0.302l-0.201,0.403l-0.202,0.403
	l-0.202,0.403l-0.202,0.403l-0.202,0.403l-0.202,0.403l-0.101,0.403l-0.101,0.403l-0.101,0.403l0.605,1.512l-0.101,0.403
	l-0.101,0.403l-0.101,0.403l-0.101,0.403v0.403v0.403v0.403v0.403v0.403v0.403v0.403v0.403l0.101,0.302l0.101,0.303l0.101,0.302
	l0.101,0.302l0.101,0.302l0.101,0.303l0.101,0.201l0.101,0.202l0.202,0.202l0.202,0.202l0.202,0.202l0.202,0.202l8.87,5.14
	c-1.008-0.807-1.613-2.419-1.613-4.536c0-4.233,2.52-9.172,5.644-10.986c0.403-0.202,0.807-0.403,1.209-0.504
	c1.008-4.637,3.628-9.172,6.854-11.591c0.806-10.785,7.257-22.577,14.917-27.112c6.854-3.931,12.699-1.008,14.413,6.551
	c1.512-2.117,3.326-3.83,5.241-4.939c2.116-1.209,4.132-1.512,5.745-0.907l0,0L319.805,110.163z M252.679,161.263l-0.302-0.101
	l-0.302-0.101h-0.302h-0.303h-0.302h-0.302l-0.303,0.101l-0.302,0.101l-0.302,0.101l-0.302,0.101l-0.303,0.202l-0.302,0.202
	l-0.101,0.101l-0.101,0.101l-0.101,0.101l-0.101,0.101l-0.101,0.101l-0.101,0.101l-0.101,0.101l-0.101,0.101l-0.101,0.101
	l-0.101,0.101l-0.101,0.101l-0.101,0.101l-0.101,0.101l-0.101,0.101l-0.101,0.101l0,0l-5.443-3.225l-0.302-0.101l-0.302-0.101
	l-0.303-0.101h-0.302h-0.403h-0.403h-0.302l-0.403,0.101l-0.403,0.101l-0.403,0.101l-0.403,0.101l-0.403,0.101l-0.403,0.201
	l-0.403,0.202l-0.403,0.202l-0.504,0.302l-0.403,0.303l-0.504,0.302l-0.403,0.403l-0.504,0.403l-0.403,0.403l-0.403,0.403
	l-0.403,0.504l-0.403,0.504l-0.403,0.504l-0.403,0.504L231.413,166l-0.403,0.504l-0.403,0.605l-0.302,0.604l-0.303,0.604
	l-0.302,0.605l-0.302,0.605l-0.302,0.604l-0.303,0.604l-0.302,0.605l-0.202,0.605l-0.201,0.705l-0.202,0.605l-0.202,0.706
	l-0.202,0.604l-0.202,0.706l-0.101,0.706l-0.101,0.605l-0.101,0.706l-0.101,0.706l-0.101,0.604l-0.202,0.202l-0.202,0.101
	l-0.201,0.202l-0.202,0.202l-0.202,0.202l-0.202,0.202l-0.202,0.201l-0.202,0.202l-0.201,0.202l-0.202,0.202l-0.202,0.202
	l-0.202,0.202l-0.202,0.202l-0.101,0.201l-0.202,0.202l-0.101,0.202l-0.101,0.202l-0.202,0.302l-0.101,0.202l-0.101,0.302
	l-0.101,0.202l-0.101,0.302l-0.101,0.303l-0.101,0.302l-0.101,0.302l-0.101,0.302l-0.101,0.302l-0.101,0.303l-0.101,0.302
	l-0.101,0.302l-0.101,0.303l-0.101,0.302l0,0h-0.101l0,0h-0.101l0,0h-0.101l0,0h-0.101l0,0h-0.101l0,0h-0.101l0,0h-0.101l0,0h-0.101
	l-0.202,0.101l-0.202,0.101l-0.202,0.201l-0.201,0.101l-0.202,0.202l-0.202,0.202l-0.202,0.201l-0.202,0.202l-0.202,0.202
	l-0.101,0.202l-0.202,0.202l-0.101,0.202l-0.202,0.201l-0.101,0.202l-0.101,0.202l-0.101,0.202l-0.101,0.202l-0.101,0.302
	l-0.101,0.202l-0.101,0.302l-0.101,0.202l-0.101,0.302l-0.101,0.302l-0.101,0.303l-0.101,0.302v0.302l-0.101,0.202v0.302v0.303
	v0.302v0.302v0.302v0.202v0.202v0.202v0.202v0.201l0.101,0.202v0.202l0.101,0.202l0.101,0.202l0.101,0.202l0.101,0.201l0.101,0.101
	l0.101,0.101l0.101,0.101l0.101,0.101l0.101,0.101l5.745,3.326l0,0c-0.706-0.504-1.108-1.512-1.108-2.923
	c0-2.822,1.612-5.946,3.729-7.156c0.302-0.202,0.504-0.303,0.807-0.403c0.705-3.024,2.419-5.947,4.435-7.458
	c0.504-7.055,4.636-14.715,9.776-17.638c4.435-2.621,8.265-0.706,9.374,4.233c1.008-1.411,2.117-2.52,3.427-3.226
	c1.613-0.907,3.125-1.008,4.233-0.403c-0.202-0.101-0.302-0.202-0.504-0.202L252.679,161.263z"></path>
<path id="color_x5F_7" fill="#C95B31" d="M467.663,81.841c0.807-0.101,1.613-0.101,2.419-0.101c0.303,0,0.706,0,1.008,0
	c0.504,0,0.907,0,1.411,0.101c0.807,0,1.613,0.101,2.521,0.303c0.806,0.101,1.713,0.302,2.52,0.403
	c0.806,0.201,1.612,0.403,2.52,0.705c0.807,0.202,1.713,0.504,2.52,0.807c0.907,0.302,1.714,0.706,2.621,1.008
	c0.302,0.101,0.604,0.302,0.906,0.403c0.605,0.302,1.109,0.504,1.714,0.907c0.403,0.202,0.807,0.403,1.311,0.706
	c0.403,0.202,0.907,0.504,1.31,0.807c0.807,0.504,1.714,1.008,2.621,1.612c0.806,0.605,1.713,1.209,2.62,1.814
	c0.807,0.604,1.714,1.31,2.621,2.016s1.713,1.512,2.62,2.217c0.403,0.403,0.807,0.807,1.311,1.209
	c0.403,0.403,0.907,0.807,1.311,1.311c0.806,0.806,1.713,1.713,2.52,2.62c0.806,0.907,1.612,1.814,2.419,2.822
	c0.806,0.907,1.612,1.915,2.419,2.923c0.806,1.008,1.512,2.016,2.318,3.024c0.705,1.008,1.512,2.016,2.217,3.125
	c0.706,1.008,1.411,2.116,2.116,3.225c0.706,1.109,1.411,2.217,2.017,3.427c0.705,1.109,1.31,2.318,1.915,3.427
	c0.604,1.109,1.209,2.318,1.813,3.528c0.605,1.209,1.109,2.419,1.714,3.628s1.108,2.419,1.612,3.729
	c0.202,0.605,0.504,1.21,0.807,1.814s0.504,1.31,0.807,1.915c0.504,1.209,1.008,2.52,1.41,3.83c0.504,1.31,0.907,2.62,1.311,3.83
	c0.403,1.31,0.807,2.62,1.21,3.931c0.403,1.31,0.806,2.621,1.108,3.931c0.403,1.311,0.705,2.621,1.008,3.931
	c0.303,1.311,0.604,2.722,0.907,4.032s0.604,2.721,0.807,4.032c0.201,1.31,0.504,2.721,0.705,4.031
	c0.202,1.311,0.403,2.722,0.504,4.032c0.202,1.31,0.303,2.721,0.403,4.032c0.101,1.31,0.201,2.721,0.303,4.031
	c0.101,1.311,0.101,2.621,0.201,3.931c0,1.31,0.101,2.621,0.101,3.931s0,2.621-0.101,3.931c0,1.311-0.101,2.621-0.201,3.83
	c-0.102,1.31-0.202,2.52-0.303,3.83c-0.101,1.209-0.303,2.52-0.403,3.729c-0.201,1.209-0.403,2.52-0.604,3.729
	c-0.202,1.209-0.504,2.419-0.706,3.628c-0.201,1.209-0.504,2.318-0.806,3.527c-0.303,1.109-0.605,2.217-0.907,3.226
	c-0.303,1.108-0.706,2.116-1.108,3.125c-0.403,1.008-0.706,2.016-1.109,3.023c-0.403,0.907-0.806,1.814-1.209,2.822
	c-0.403,0.907-0.907,1.814-1.311,2.621c-0.504,0.806-0.907,1.612-1.411,2.419c-0.504,0.806-1.008,1.512-1.512,2.318
	c-0.504,0.706-1.008,1.411-1.612,2.117c-0.605,0.706-1.109,1.31-1.714,1.915c-0.604,0.604-1.108,1.209-1.713,1.814
	c-0.605,0.605-1.21,1.109-1.814,1.613s-1.21,1.008-1.915,1.411c-0.403,0.302-0.807,0.604-1.311,0.907
	c-0.201,0.101-0.403,0.302-0.705,0.403c-0.706,0.403-1.311,0.807-2.016,1.109c-0.706,0.403-1.411,0.706-2.117,0.907
	c-0.705,0.302-1.311,0.504-2.016,0.706l12.699-3.427l2.117-0.706l2.116-0.907l2.016-1.109l2.016-1.31l1.915-1.411l1.814-1.613
	l1.814-1.814l1.713-1.915l1.613-2.117l1.512-2.318l1.411-2.52l1.31-2.621l1.21-2.822l1.209-2.923l1.009-3.125l0.906-3.326
	l0.907-3.528l0.706-3.628l0.604-3.628l0.504-3.729l0.303-3.83l0.201-3.83v-3.931l-0.101-3.931l-0.201-4.031l-0.303-4.032
	l-0.403-4.032l-0.604-4.031l-0.706-4.032l-0.806-4.032l-0.907-4.031l-1.008-4.032l-1.109-3.931l-1.209-3.931l-1.311-3.931
	l-1.411-3.83l-1.512-3.729l-1.612-3.729l-1.714-3.629l-1.814-3.527l-1.914-3.427l-2.017-3.326l-2.116-3.326l-2.218-3.125
	l-2.317-3.023l-2.419-2.923l-2.521-2.822l-2.52-2.621l-2.62-2.52l-2.621-2.217l-2.62-2.016l-2.621-1.814l-2.62-1.613l-2.62-1.411
	l-2.621-1.209l-2.62-1.008l-2.621-0.806l-2.52-0.605l-2.52-0.504l-2.52-0.302l-2.419-0.101l-2.419,0.101l-2.419,0.302l-2.318,0.504
	l-12.699,3.528c0.705-0.202,1.512-0.403,2.318-0.504C466.151,81.942,466.857,81.841,467.663,81.841z"></path>
<path id="color_x5F_6" fill="#6BA7D0" d="M559.482,325.248v17.638l-109.457,63.396c-5.342-3.628-7.963-7.458-9.172-11.087
	L559.482,325.248z M437.628,397.01l-174.97,103.107L28.322,365.06v13.405l234.336,136.268l176.785-102.302
	C437.729,407.996,436.923,402.855,437.628,397.01z"></path>
<path id="color_x5F_5" fill="#FFD2BB" d="M320.007,200.672c-1.512,0.302-3.427,0.706-5.342,1.209c0,0-11.087,23.887-13.909,37.595
	c0,0-13.002,1.814-16.731-1.814s-2.217-7.761-2.217-7.761s9.676-6.148,16.731-13.304c4.334-4.435,7.157-9.575,9.374-11.994
	c0.705-0.806,1.311-1.31,2.016-1.512c0.303-0.101,0.706-0.202,1.008-0.302C314.061,201.982,317.588,201.176,320.007,200.672z
	 M365.16,270.821c0.202-1.612-0.705-5.644-0.806-5.745l-9.475-4.737c0,0-2.218-39.509-3.326-44.549
	c-0.302-1.311-1.209-2.621-2.419-3.729c-10.079,1.613-12.599,25.5-12.599,30.54c0,5.039,4.435,3.729,4.435,3.729
	s1.311,22.98,4.032,24.895c2.62,1.915,27.717,6.35,27.717,6.35l-9.272-1.713C363.548,275.76,364.959,272.434,365.16,270.821z
	 M388.947,266.79c-1.411-0.202-4.032,0.706-4.032,0.706c0.101-0.403-0.604-1.008-0.604-1.008s-1.311-0.302-4.535,1.109
	c-3.226,1.411-6.351,2.016-6.351,2.016s0.706,2.621,0.504,4.334c-0.302,1.713-1.008,3.528-1.008,3.528
	c6.753,4.233,16.832,3.326,18.444,0C392.979,274.047,390.257,266.991,388.947,266.79z M343.49,208.231
	c-1.713-0.907-3.023-1.411-3.023-1.411v-6.854c0,0,1.814,0.807,4.838,0.504c1.411-0.202,3.125-0.604,5.04-1.512
	c5.846-2.822,4.435-26.205,4.435-26.306l0,0c-2.016,2.318-3.629,2.923-4.536,3.125l0,0c-0.101,0-0.101,0-0.201,0c0,0,0,0-0.101,0
	h-0.101c0,0,0,0-0.102,0h-0.101l0,0l0,0l0,0l-0.807,14.01c0,0,0-6.35-1.31-7.156c-1.311-0.807-4.435,3.729-3.427,7.156
	c1.108,3.427,2.116,4.032,2.116,4.032s-2.62-1.713-3.124-1.209s-9.273,8.466-14.917,7.257c0,0-1.109-1.411-2.419-3.528l-2.318,3.729
	c0,0-0.807,0.101-2.116,0.403c-0.102,0.101-6.854,11.893,3.124,15.32C334.318,219.318,343.289,208.534,343.49,208.231z
	 M366.773,354.678c-0.403-0.402-0.706-0.906-1.109-1.31l0,0C365.967,353.771,366.37,354.275,366.773,354.678z M348.53,302.973
	c-0.202,0.908-0.403,2.017-0.706,3.024c-1.008,3.931-2.821,8.466-5.543,10.18c0,0,0,0-0.101,0c-0.202,0.101-0.504,0.302-0.706,0.403
	c-0.201,0.101-0.504,0.201-0.806,0.303c-0.102,0-0.202,0.1-0.303,0.1c-0.201,0.102-0.403,0.102-0.604,0.202
	c-0.202,0.101-0.403,0.101-0.706,0.202c-0.101,0-0.201,0-0.302,0.1c-1.814,0.404-3.931,0.505-6.048,0.505l15.118,5.846
	c0,5.342,8.87,19.352,17.639,29.632c2.52,0,5.543-0.201,7.56-1.008c3.325-1.209,4.333-4.838,4.636-6.249
	c3.83,8.063,6.955,14.413,6.955,14.413s-21.569-44.448-21.973-46.867C362.54,311.238,348.53,302.973,348.53,302.973z
	 M296.12,326.559c-0.302,0-0.706,0-1.109-0.102c-0.101,0-0.201,0-0.302,0c-0.302,0-0.604-0.101-0.907-0.101
	c-0.202,0-0.302,0-0.504-0.101c-0.302-0.102-0.604-0.102-0.806-0.201c-0.202,0-0.302-0.102-0.504-0.102
	c-0.403-0.101-0.907-0.303-1.311-0.504c-0.504-0.201-1.008-0.504-1.411-0.807c-0.202-0.101-0.303-0.201-0.403-0.302
	c-0.302-0.202-0.605-0.403-0.907-0.706c-0.101-0.101-0.202-0.201-0.403-0.302c-0.403-0.303-0.807-0.706-1.109-1.009l-0.101-0.1
	c-0.303-0.303-0.605-0.706-0.907-1.008l-0.101-0.102c-1.31-1.612-2.116-3.125-2.62-4.334l0,0l-3.729,16.328
	c0,0-10.784-3.125-26.407,5.645c-1.512,0.906-2.923,1.612-4.334,2.318c1.915,2.418,4.233,6.147,3.729,9.877
	c-0.201,1.209-0.504,2.419-0.907,3.629l38.703-8.064l11.691-20.359l0,0c-1.511,0.303-3.225,0.504-5.039,0.504
	C296.22,326.559,296.12,326.559,296.12,326.559z"></path>
<path id="color_x5F_4" fill="#00CEC9" d="M440.753,384.714c0.705-2.318,1.612-3.729,1.612-3.729s10.28-23.182-0.604-38.3
	c-10.886-15.118-48.883-22.979-48.883-22.979l8.869-4.637l-8.869-6.35l12.699-1.512c0,0-0.202-6.552-3.023-10.987
	c0,0,56.341,17.941,61.078,41.022c4.737,23.08-21.367,43.642-21.367,43.642C441.761,382.295,441.156,383.504,440.753,384.714
	c-0.807,2.62-1.311,6.35,0.101,10.381l118.729-69.948l0,0l0,0L345.305,200.47c-3.023,0.403-4.838-0.504-4.838-0.504v6.854
	c0,0,1.311,0.504,3.023,1.411l0,0c1.009,0.504,2.218,1.209,3.326,1.915c0.202,0.202,0.504,0.303,0.706,0.504
	c0.201,0.101,0.302,0.202,0.504,0.303c0.403,0.302,0.705,0.604,1.108,0.907c0,0,0,0,0.101,0l0,0c1.21,1.109,2.117,2.419,2.419,3.729
	c1.008,5.04,3.326,44.549,3.326,44.549l9.475,4.737l0,0l8.97,4.535c0,0,3.125-0.604,6.351-2.016
	c3.225-1.411,4.535-1.108,4.535-1.108s0.705,0.604,0.604,1.008c0,0,2.621-0.907,4.032-0.706c1.31,0.202,4.031,7.257,2.418,10.684
	c-1.612,3.326-11.792,4.233-18.444,0c0,0-25.097-4.334-27.717-6.35c-2.722-1.915-4.031-24.895-4.031-24.895l-9.172,34.067
	l1.209,4.233c-0.201,0.302-0.403,0.605-0.604,0.807c0.101-0.101,0.201-0.202,0.303-0.303c0,0,12.9,12.397,16.327,13.909
	c0,0-0.302,3.225-1.31,6.955c0.302-1.109,0.504-2.117,0.705-3.024c0,0,14.01,8.265,14.313,10.684
	c0.302,2.419,21.972,46.867,21.972,46.867c0.807,0.604,2.722,1.411,5.745,0.403c4.334-1.311,9.676-4.939,9.676-4.939
	s5.846-0.705,6.148,3.83c0.403,8.266-29.531,22.275-29.935,8.87c-0.101-2.016,0.403-3.528,0.705-4.435
	c-0.604-0.303-1.209-0.705-1.813-1.21c-0.102-0.101-0.202-0.201-0.303-0.302c-0.201-0.202-0.504-0.403-0.705-0.605
	c-0.102-0.101-0.303-0.201-0.504-0.402c-0.202-0.202-0.505-0.404-0.706-0.605c-0.201-0.101-0.303-0.303-0.504-0.504
	s-0.403-0.402-0.706-0.604c-0.201-0.202-0.402-0.302-0.604-0.504c-0.201-0.202-0.403-0.403-0.604-0.604
	c-0.504-0.504-1.008-1.008-1.512-1.512c-0.101-0.102-0.101-0.102-0.202-0.202c-0.302-0.302-0.604-0.706-1.008-1.008
	c-0.101-0.101-0.101-0.202-0.201-0.202c-0.403-0.402-0.706-0.806-1.108-1.209c0,0,0,0-0.102-0.101
	c-9.07-10.382-18.746-25.298-18.746-30.942l-15.119-5.846c2.117,0,4.133-0.102,6.048-0.504c-6.552,1.209-16.328-0.303-16.328-0.303
	l-9.373-7.257l-7.056,14.816c0,0-2.016,0.907-4.838,1.512l-11.691,20.359l-38.703,8.063l0,0l-18.949,3.931
	c0.202-0.202,0.403-0.403,0.504-0.604c-2.318,2.418-5.846,6.35-7.257,10.18c-1.713,4.938-0.907,9.877-0.907,9.877
	s-4.334,3.023-7.761,1.209c-1.008-0.504-2.016-1.713-2.822-3.124l0,0c-0.202-0.403-0.403-0.806-0.605-1.21l0,0
	c-0.101-0.302-0.302-0.705-0.403-1.008v-0.1c-0.101-0.303-0.202-0.605-0.303-0.908c0-0.101,0-0.201-0.101-0.201
	c-0.101-0.303-0.202-0.705-0.202-1.008l0,0c-0.101-0.303-0.101-0.705-0.202-1.008c0-0.102,0-0.201,0-0.303
	c0-0.303-0.101-0.705-0.101-1.008c0,0,0,0,0-0.101c0-0.403,0-0.807,0-1.108c0-0.102,0-0.102,0-0.202c0-0.302,0-0.706,0.101-1.008
	c0-0.101,0-0.101,0-0.202c0-0.402,0.101-0.806,0.202-1.107v-0.102c0.101-0.303,0.101-0.604,0.202-0.906c0-0.102,0-0.202,0.101-0.303
	c0.101-0.403,0.202-0.706,0.403-1.008c2.52-6.048,6.249-9.878,8.466-13.506c0.202-0.303,0.302-0.504,0.504-0.706
	c0.101-0.101,0.101-0.201,0.202-0.201c0.101-0.202,0.202-0.303,0.302-0.403c0-0.102,0.101-0.102,0.101-0.201
	c0.101-0.202,0.302-0.303,0.403-0.504c0.101-0.102,0.101-0.102,0.202-0.202c0.101-0.101,0.202-0.202,0.303-0.302
	c0.101-0.102,0.101-0.102,0.201-0.202c0.101-0.101,0.202-0.202,0.303-0.302c0.101-0.102,0.201-0.102,0.302-0.202
	c0.101,0,0.101-0.101,0.202-0.101c0.101-0.102,0.201-0.102,0.302-0.102l0,0c0.302-0.1,0.604-0.201,0.907-0.302l0,0
	c0.604-0.101,1.31-0.101,2.116,0c2.923,0.202,6.652,0.604,6.652,0.604s0.706,3.023,0.806,5.745c-0.101-2.52-0.706-5.241-0.806-5.644
	c0.202,0,0.302-0.102,0.504-0.102s0.302-0.101,0.504-0.101l0,0c2.621-0.706,6.753-2.116,12.901-5.342l0,0
	c1.311-0.706,2.722-1.411,4.334-2.318c15.724-8.769,26.407-5.644,26.407-5.644l3.729-16.328c-0.504-1.109-0.706-1.916-0.706-1.916
	l11.893-35.981c-0.302-0.202-0.504-0.504-0.706-0.706l2.016-4.032c-1.311-1.109-2.016-1.915-2.016-1.915s7.056-27.012,7.66-32.756
	c0,0-13.002,1.814-16.731-1.814s-2.217-7.761-2.217-7.761s9.676-6.148,16.731-13.304c4.334-4.435,7.157-9.575,9.374-11.994
	l-42.735,24.492c3.125,2.016,4.838,3.427,4.838,3.427l-6.451,1.814l4.334,12.196l-5.946-2.217l3.427,10.18
	c0,0-7.761-7.156-20.46-13.708L28.322,365.06l234.336,135.058l174.87-103.007C438.031,393.281,439.039,389.148,440.753,384.714z
	 M512.313,321.418c0.101-1.512,2.016-2.52,4.031-2.52s4.031,1.108,4.132,2.62v0.101c0,0.605-0.402,1.21-1.209,1.613
	c-1.512,0.906-3.931,0.906-5.543,0.101c-0.102,0-0.102,0-0.202-0.101c-0.101,0-0.101-0.102-0.201-0.102
	C512.615,322.627,512.313,322.022,512.313,321.418L512.313,321.418z M486.31,353.166c2.62,0,5.241,1.412,5.342,3.428
	c0,0,0,0,0,0.101c0,0.806-0.504,1.612-1.512,2.218c-2.016,1.107-5.241,1.209-7.357,0.1c-0.102,0-0.202-0.1-0.202-0.1
	c-0.101,0-0.201-0.102-0.201-0.102c-0.907-0.604-1.411-1.411-1.311-2.116C481.068,354.578,483.688,353.166,486.31,353.166z
	 M378.868,259.432c-0.202-0.101-0.303-0.202-0.504-0.302c-0.202-0.101-0.303-0.202-0.504-0.302
	c-1.915-1.209-2.822-2.822-2.822-4.435c0.201-4.132,5.543-7.055,10.885-7.055c5.442,0,10.986,3.024,11.188,7.055
	c0,0.101,0,0.101,0,0.202c0,1.613-1.008,3.226-3.225,4.536C389.854,261.549,383.202,261.549,378.868,259.432z M242.197,302.671
	c2.52,0,5.04,1.31,5.14,3.226v0.101c0,0.706-0.504,1.512-1.411,2.016c-1.915,1.108-4.938,1.108-6.954,0.101
	c-0.101,0-0.202-0.101-0.202-0.101c-0.101-0.101-0.101-0.101-0.202-0.101c-0.907-0.605-1.31-1.311-1.31-2.016
	C237.258,304.082,239.678,302.671,242.197,302.671z M127.7,383.504c0,0.807-0.504,1.613-1.512,2.117
	c-2.016,1.108-5.241,1.209-7.357,0.101c-0.101-0.101-0.202-0.101-0.202-0.101c-0.101-0.102-0.202-0.102-0.202-0.102
	c-0.907-0.604-1.411-1.41-1.311-2.116c0.101-1.915,2.722-3.427,5.241-3.427C124.979,380.077,127.6,381.488,127.7,383.504
	L127.7,383.504z M158.038,350.646c0,1.109-0.706,2.218-2.117,3.023c-2.822,1.613-7.257,1.714-10.18,0.202
	c-0.101-0.101-0.202-0.101-0.403-0.202c-0.101-0.1-0.202-0.1-0.302-0.201c-1.31-0.807-1.915-1.915-1.915-3.023
	c0.101-2.822,3.729-4.737,7.357-4.737c3.729,0,7.458,2.016,7.56,4.838C158.038,350.646,158.038,350.646,158.038,350.646z
	 M206.215,374.231c-1.915,1.108-4.938,1.108-6.955,0.101c-0.101-0.101-0.201-0.101-0.201-0.101c-0.101,0-0.101-0.101-0.202-0.101
	c-0.907-0.605-1.311-1.311-1.311-2.016c0.101-1.814,2.52-3.226,5.04-3.226s5.04,1.31,5.04,3.226v0.101
	C207.727,373.021,207.223,373.728,206.215,374.231z M310.734,329.48c1.813,0,3.628,1.008,3.729,2.318c0,0,0,0,0,0.102
	c0,0.504-0.302,1.108-1.008,1.512c-1.411,0.807-3.628,0.807-5.039,0.101c-0.101,0-0.101-0.101-0.201-0.101l-0.102-0.102
	c-0.604-0.402-0.907-0.906-0.907-1.41C307.105,330.488,308.92,329.48,310.734,329.48z M317.185,438.636
	c0,1.411-0.907,2.822-2.722,3.931c-3.527,2.017-9.272,2.117-13.002,0.202c-0.1-0.101-0.302-0.202-0.402-0.303
	c-0.102-0.101-0.303-0.101-0.403-0.201c-1.613-1.108-2.52-2.419-2.419-3.83c0.202-3.527,4.736-5.946,9.373-5.946
	s9.374,2.52,9.575,6.047V438.636z M324.945,398.421c0,0.706-0.504,1.512-1.512,2.016c-1.814,1.109-4.938,1.109-6.954,0.101
	c-0.102,0-0.202-0.101-0.202-0.101c-0.101,0-0.101-0.101-0.201-0.101c-0.907-0.604-1.311-1.311-1.311-2.016
	c0.101-1.814,2.52-3.226,5.039-3.226C322.325,395.095,324.845,396.506,324.945,398.421L324.945,398.421z"></path>
<path id="color_x5F_3" fill="#E84393" d="M373.324,269.612c0,0,0.706,2.621,0.504,4.334c-0.302,1.713-1.008,3.528-1.008,3.528
	l-9.272-1.713c0,0,1.311-3.326,1.512-4.838c0.202-1.613-0.705-5.645-0.807-5.745l0,0L373.324,269.612z M332.605,285.436
	L332.605,285.436c-0.907,1.108-2.116,2.117-3.527,3.023l0,0c-0.303,0.202-0.706,0.403-1.109,0.605c0,0,0,0-0.101,0
	c-0.302,0.202-0.705,0.403-1.008,0.504c-0.101,0-0.101,0-0.201,0.101c-0.303,0.101-0.706,0.303-1.008,0.403
	c-0.102,0-0.202,0.101-0.202,0.101c-0.303,0.101-0.604,0.202-0.907,0.303c-0.101,0-0.201,0.101-0.302,0.101
	c-0.303,0.101-0.605,0.202-0.807,0.302c-0.101,0-0.303,0.101-0.403,0.101c-0.302,0.101-0.504,0.101-0.806,0.202
	c-0.202,0-0.303,0.101-0.505,0.101c-0.201,0-0.504,0.101-0.705,0.101s-0.403,0.101-0.504,0.101c-0.202,0-0.403,0.101-0.706,0.101
	c-0.201,0-0.402,0-0.604,0.101c-0.201,0-0.403,0-0.604,0s-0.303,0-0.504,0c-0.202,0-0.504,0-0.706,0c-0.101,0-0.302,0-0.402,0
	c-0.403,0-0.706-0.101-1.008-0.101c-0.505-0.101-1.109-0.202-1.613-0.403c-0.101,0-0.302-0.101-0.403-0.101
	c-0.402-0.101-0.806-0.202-1.31-0.403c-0.102-0.101-0.303-0.101-0.504-0.202c-0.403-0.101-0.807-0.303-1.21-0.504
	c-0.101-0.101-0.303-0.101-0.403-0.202c-0.403-0.202-0.907-0.403-1.31-0.605c-0.102-0.101-0.202-0.101-0.403-0.202
	c-0.504-0.201-0.907-0.403-1.311-0.706c-0.101,0-0.201-0.101-0.303-0.201c-0.504-0.303-1.008-0.504-1.411-0.807
	c-0.1,0-0.1-0.101-0.201-0.101c-0.504-0.302-1.008-0.605-1.512-0.907c0,0,0,0-0.101,0c-3.729-2.318-7.056-5.04-9.172-6.854l0,0
	c-0.101-0.101-0.101-0.101-0.202-0.202c-0.202-0.202-0.403-0.403-0.605-0.605l0,0l-11.893,35.982c0,0,0.202,0.807,0.706,1.914l0,0
	c0.504,1.21,1.411,2.722,2.621,4.334l0.101,0.102c0.302,0.303,0.605,0.705,0.907,1.008l0.101,0.101
	c0.303,0.302,0.706,0.706,1.109,1.008c0.101,0.101,0.202,0.202,0.403,0.303c0.302,0.201,0.604,0.403,0.907,0.705
	c0.101,0.101,0.303,0.202,0.403,0.303c0.504,0.302,0.907,0.604,1.411,0.806c0.403,0.202,0.907,0.404,1.31,0.504
	c0.202,0.102,0.303,0.102,0.504,0.102c0.303,0.101,0.605,0.201,0.807,0.201c0.201,0,0.302,0.102,0.504,0.102
	c0.302,0.1,0.604,0.1,0.907,0.1c0.101,0,0.201,0,0.302,0c0.403,0,0.706,0.102,1.108,0.102c0.101,0,0.101,0,0.202,0
	c1.814,0,3.528-0.201,5.039-0.504l0,0c2.822-0.605,4.838-1.512,4.838-1.512l7.056-14.816l9.373,7.257c0,0,9.777,1.512,16.328,0.302
	c0.101,0,0.202,0,0.303-0.1c0.201,0,0.504-0.102,0.705-0.202c0.202,0,0.403-0.101,0.605-0.202c0.101,0,0.201-0.1,0.302-0.1
	c0.303-0.102,0.504-0.202,0.807-0.303c0.201-0.102,0.504-0.201,0.705-0.403h0.102c2.721-1.714,4.535-6.249,5.543-10.18
	c1.008-3.729,1.311-6.955,1.311-6.955c-3.427-1.512-16.328-13.909-16.328-13.909C332.706,285.234,332.605,285.335,332.605,285.436z
	 M400.336,355.888c0,0-5.342,3.628-9.676,4.938c-3.124,1.008-4.938,0.202-5.745-0.402c0,0-0.907,3.628-3.931,4.636
	c-0.101,0-0.303,0.101-0.504,0.101c-0.101,0-0.101,0-0.201,0c0,0,0,0-0.102,0c-0.101,0-0.201,0-0.402,0c-0.102,0-0.202,0-0.303,0
	l0,0c-0.101,0-0.101,0-0.202,0c-0.101,0-0.101,0-0.201-0.101c-0.101,0-0.201-0.101-0.303-0.101c-0.101,0-0.101-0.102-0.201-0.102
	s-0.201-0.1-0.201-0.1c-0.202-0.102-0.303-0.102-0.504-0.202c-0.102,0-0.102-0.101-0.202-0.101l0,0
	c-0.201-0.102-0.303-0.201-0.504-0.303l0,0c-0.303,0.807-0.705,2.419-0.705,4.436c0.402,13.506,30.337-0.605,29.934-8.87
	C406.182,355.283,400.336,355.888,400.336,355.888z M235.041,352.26c-0.101-2.722-0.806-5.746-0.806-5.746s-3.729-0.302-6.652-0.604
	c-0.806-0.102-1.512-0.102-2.116,0l0,0c-0.303,0-0.605,0.1-0.907,0.302l0,0c-0.101,0-0.202,0.101-0.302,0.101
	c-0.101,0-0.101,0.102-0.202,0.102c-0.101,0.1-0.202,0.1-0.302,0.201c-0.101,0.101-0.202,0.201-0.303,0.303
	c-0.101,0-0.101,0.101-0.201,0.201c-0.101,0.101-0.202,0.201-0.303,0.303c-0.101,0.101-0.101,0.101-0.202,0.201
	c-0.101,0.201-0.302,0.303-0.403,0.504c0,0.102-0.101,0.102-0.101,0.201c-0.101,0.102-0.202,0.303-0.302,0.404
	c-0.101,0.1-0.101,0.201-0.202,0.201c-0.101,0.201-0.302,0.504-0.504,0.705c-2.117,3.527-5.846,7.357-8.466,13.506
	c-0.101,0.303-0.302,0.705-0.403,1.008c0,0.102-0.101,0.201-0.101,0.303c-0.101,0.303-0.202,0.604-0.202,0.906v0.102
	c-0.101,0.403-0.101,0.705-0.202,1.108c0,0.101,0,0.101,0,0.202c0,0.303-0.101,0.705-0.101,1.008c0,0.101,0,0.101,0,0.201
	c0,0.403,0,0.807,0,1.109c0,0,0,0,0,0.1c0,0.303,0.101,0.706,0.101,1.009c0,0.101,0,0.201,0,0.302c0,0.303,0.101,0.706,0.202,1.008
	l0,0c0.101,0.303,0.202,0.706,0.202,1.008c0,0.102,0,0.202,0.101,0.202c0.101,0.302,0.202,0.604,0.303,0.907v0.101
	c0.101,0.302,0.202,0.706,0.403,1.008l0,0c0.202,0.403,0.403,0.807,0.605,1.21l0,0c0.806,1.41,1.713,2.52,2.822,3.124
	c3.427,1.814,7.761-1.21,7.761-1.21s-0.907-4.938,0.907-9.877c1.411-3.83,4.939-7.761,7.257-10.18
	c0.706-0.705,1.311-1.311,1.714-1.713c0.101-0.102,0.201-0.202,0.302-0.403c0-0.101,0.101-0.101,0.101-0.202
	c0-0.101,0.101-0.201,0.101-0.303c0-0.1,0.101-0.201,0.101-0.302s0.101-0.202,0.101-0.302c0-0.102,0-0.202,0-0.303
	c0-0.102,0-0.201,0-0.403c0-0.101,0-0.202,0-0.302c0-0.202,0-0.303,0-0.504c0-0.102,0-0.102,0-0.202
	C235.041,352.662,235.041,352.461,235.041,352.26L235.041,352.26z"></path>
<path id="color_x5F_2" fill="#FBC02D" d="M324.441,215.791c-9.979-3.528-3.226-15.32-3.124-15.32l0,0
	c-0.403,0.101-0.807,0.202-1.311,0.303c-1.512,0.302-3.427,0.706-5.342,1.209c0,0-11.087,23.887-13.909,37.594
	c-0.604,5.745-7.66,32.757-7.66,32.757s0.807,0.706,2.016,1.915l0,0c1.613,1.411,3.931,3.427,6.652,5.543l0,0
	c0.201,0.202,0.504,0.303,0.705,0.504c0.102,0,0.102,0.101,0.202,0.101c0.302,0.202,0.604,0.504,1.008,0.706
	c0.202,0.101,0.303,0.202,0.504,0.302c0.101,0.101,0.303,0.202,0.403,0.302c0.201,0.101,0.403,0.303,0.605,0.403
	c0.1,0.101,0.201,0.202,0.302,0.202c0.202,0.101,0.403,0.302,0.604,0.403c0.101,0.101,0.202,0.101,0.303,0.201
	c0.604,0.403,1.31,0.807,1.915,1.209c0.101,0,0.101,0.101,0.201,0.101c0.303,0.202,0.504,0.302,0.807,0.504
	c0.101,0,0.101,0.101,0.201,0.101c0.303,0.202,0.604,0.303,0.907,0.504h0.101c0.605,0.303,1.311,0.605,1.915,0.907
	c0.102,0,0.102,0,0.202,0.101c0.302,0.101,0.504,0.202,0.806,0.302c0.102,0,0.102,0,0.202,0.101
	c0.302,0.101,0.604,0.202,0.907,0.303l0,0c0.302,0.101,0.604,0.201,0.907,0.201h0.101c0.201,0.101,0.504,0.101,0.705,0.101
	c0.101,0,0.101,0,0.202,0c0.201,0,0.403,0.101,0.604,0.101c0.101,0,0.101,0,0.201,0c0.303,0,0.504,0,0.807,0
	c8.567-0.403,14.11-7.156,14.11-7.156l9.172-34.067c0,0-4.435,1.31-4.435-3.729s2.52-28.926,12.599-30.539l0,0c0,0,0,0-0.101,0
	c-0.303-0.302-0.706-0.605-1.108-0.907c-0.102-0.101-0.303-0.202-0.505-0.302c-0.201-0.202-0.504-0.302-0.705-0.504
	c-1.108-0.706-2.218-1.411-3.326-1.915l0,0C343.289,208.534,334.318,219.318,324.441,215.791z"></path>
<path id="color_x5F_1_1_" fill="#003B4D" d="M343.088,192.609c0.504-0.504,3.124,1.209,3.124,1.209s-1.108-0.706-2.116-4.032
	c-1.109-3.427,2.016-7.962,3.427-7.156c1.31,0.806,1.31,7.156,1.31,7.156l0.807-14.01l0,0l0,0l0,0c0,0,0,0,0.101,0c0,0,0,0,0.102,0
	h0.101c0,0,0,0,0.101,0s0.101,0,0.201,0l0,0c0.807-0.202,2.521-0.806,4.536-3.125l0,0c0.504-0.604,1.108-1.31,1.612-2.217
	c3.729-5.745-1.814-12.498-1.814-12.498c-5.24,4.636-16.429,0.504-22.576,2.923c-6.048,2.419-5.342,10.885-5.342,10.885
	s-4.536,1.21-5.947,8.87c-0.806,4.435,1.814,10.079,4.133,14.111c1.714,3.023,3.326,5.14,3.326,5.14
	C333.814,201.075,342.584,193.113,343.088,192.609z"></path>
</svg>
